<svg width="526" height="61" viewBox="0 0 526 61" fill="none" xmlns="http://www.w3.org/2000/svg">
<path d="M22.8 1.48H21.12L5.88 43.66H0.96V44.98H13.14V43.66H7.74L12.9 29.32H26.88L32.76 43.66H26.46V44.98H44.94V43.66H40.02L22.8 1.48ZM19.44 11.08L26.34 28H13.38L19.44 11.08ZM62.227 32.14C62.227 40.9 68.827 45.94 76.447 45.94C82.087 45.94 86.107 43.48 87.907 38.44L86.527 37.78C84.967 41.98 81.547 44.44 76.987 44.44C71.287 44.44 68.887 39.4 68.887 32.14C68.887 25.06 71.887 19.9 76.447 19.9C77.587 19.9 78.967 20.08 79.747 20.38C80.167 20.56 80.467 20.86 80.647 21.22L84.367 28.3C85.267 28.96 85.987 28.9 86.887 28.84V21.64C84.907 20.14 80.707 18.4 76.447 18.4C69.067 18.4 62.227 23.68 62.227 32.14ZM118.966 19.36H108.046V20.68H112.606V36.46C112.606 41.68 108.526 44.32 105.226 44.32C101.926 44.32 100.186 42.46 100.186 38.08V19.36H89.2664V20.68H93.8264V36.94C93.8264 43.6 98.4464 45.94 103.846 45.94C108.406 45.94 111.466 43.72 112.846 41.14V44.98H123.586V43.66H118.966V19.36ZM143.503 18.4C139.843 18.4 136.663 20.44 135.403 23.02V19.36H124.663V20.68H129.043V59.26H124.663V60.58H139.783V59.26H135.403V41.38C136.663 43.9 139.843 45.94 143.683 45.94C149.983 45.94 156.343 41.14 156.343 32.2C156.343 23.2 149.983 18.4 143.503 18.4ZM142.783 44.44C139.243 44.44 135.403 41.74 135.403 35.44V28.96C135.403 22.6 139.243 19.9 142.783 19.9C147.763 19.9 149.683 24.52 149.683 32.2C149.683 39.82 147.763 44.44 142.783 44.44ZM175.196 32.14C175.196 40.9 182.576 45.94 189.476 45.94C196.376 45.94 203.816 40.9 203.816 32.14C203.816 23.5 196.376 18.4 189.476 18.4C182.576 18.4 175.196 23.44 175.196 32.14ZM181.856 32.14C181.856 24.88 184.436 19.9 189.476 19.9C194.516 19.9 197.156 24.88 197.156 32.14C197.156 39.46 194.516 44.44 189.476 44.44C184.436 44.44 181.856 39.46 181.856 32.14ZM221.577 0.939998C216.237 1.18 211.557 5.2 211.557 15.34V19.36H206.937V20.68H211.557V43.66H206.937V44.98H223.377V43.66H217.917V20.68H226.257V19.36H217.917V7.9C217.917 3.16 220.197 2.26 221.817 2.26C223.677 2.26 224.037 2.44 224.457 3.16L228.177 9.58C229.077 10.24 229.797 10.12 230.697 10.06V2.8C228.897 1.66 225.897 0.759997 221.577 0.939998ZM264.792 18.4C261.132 18.4 257.952 20.44 256.692 23.02V19.36H245.952V20.68H250.332V59.26H245.952V60.58H261.072V59.26H256.692V41.38C257.952 43.9 261.132 45.94 264.972 45.94C271.272 45.94 277.632 41.14 277.632 32.2C277.632 23.2 271.272 18.4 264.792 18.4ZM264.072 44.44C260.532 44.44 256.692 41.74 256.692 35.44V28.96C256.692 22.6 260.532 19.9 264.072 19.9C269.052 19.9 270.972 24.52 270.972 32.2C270.972 39.82 269.052 44.44 264.072 44.44ZM296.658 44.44C290.958 44.44 288.438 39.46 288.438 32.14V30.88H307.698C307.698 22.36 302.058 18.4 295.518 18.4C288.498 18.4 281.778 23.44 281.778 32.14C281.778 40.9 288.378 45.94 295.638 45.94C301.638 45.94 305.658 43.48 307.458 38.44L306.078 37.78C304.578 41.92 301.218 44.44 296.658 44.44ZM295.218 19.9C299.358 19.9 301.038 23.02 301.038 29.02V29.44H288.558C289.038 23.8 291.078 19.9 295.218 19.9ZM327.09 19.06C324.99 19.72 322.89 21.4 321.27 24.52V19.36H310.77V20.68H315.15V43.66H310.77V44.98H325.71V43.66H321.51V28.9C321.81 25.06 325.35 21.04 327.15 20.44C327.33 20.38 327.51 20.44 327.63 20.62L332.13 28.3C333.03 28.96 333.75 28.84 334.65 28.78V19.24C332.79 18.46 329.19 18.4 327.09 19.06ZM353.003 0.939998C347.663 1.18 342.983 5.2 342.983 15.34V19.36H338.363V20.68H342.983V43.66H338.363V44.98H354.803V43.66H349.343V20.68H357.683V19.36H349.343V7.9C349.343 3.16 351.623 2.26 353.243 2.26C355.103 2.26 355.463 2.44 355.883 3.16L359.603 9.58C360.503 10.24 361.223 10.12 362.123 10.06V2.8C360.323 1.66 357.323 0.759997 353.003 0.939998ZM374.705 44.44C369.005 44.44 366.485 39.46 366.485 32.14V30.88H385.745C385.745 22.36 380.105 18.4 373.565 18.4C366.545 18.4 359.825 23.44 359.825 32.14C359.825 40.9 366.425 45.94 373.685 45.94C379.685 45.94 383.705 43.48 385.505 38.44L384.125 37.78C382.625 41.92 379.265 44.44 374.705 44.44ZM373.265 19.9C377.405 19.9 379.085 23.02 379.085 29.02V29.44H366.605C367.085 23.8 369.125 19.9 373.265 19.9ZM389.883 32.14C389.883 40.9 396.483 45.94 404.103 45.94C409.743 45.94 413.763 43.48 415.563 38.44L414.183 37.78C412.623 41.98 409.203 44.44 404.643 44.44C398.943 44.44 396.543 39.4 396.543 32.14C396.543 25.06 399.543 19.9 404.103 19.9C405.243 19.9 406.623 20.08 407.403 20.38C407.823 20.56 408.123 20.86 408.303 21.22L412.023 28.3C412.923 28.96 413.643 28.9 414.543 28.84V21.64C412.563 20.14 408.363 18.4 404.103 18.4C396.723 18.4 389.883 23.68 389.883 32.14ZM438.239 40.9C437.339 42.94 435.599 44.32 433.739 44.32C431.639 44.32 430.199 42.76 430.199 38.98V20.68H438.599V19.36H430.199V8.38H428.879C428.039 15.34 424.259 19.3 418.019 19.48V20.68H423.839V37.18C423.839 43.24 427.019 45.94 432.539 45.94C436.079 45.94 438.479 43.78 439.379 41.56L438.239 40.9ZM444.57 7.9C444.57 10.06 446.37 11.86 448.59 11.86C450.69 11.86 452.61 10.06 452.61 7.9C452.61 5.74 450.69 3.82 448.59 3.82C446.37 3.82 444.57 5.74 444.57 7.9ZM445.77 20.68V43.66H441.15V44.98H456.87V43.66H452.19V19.36H441.21V20.68H445.77ZM460.196 32.14C460.196 40.9 467.576 45.94 474.476 45.94C481.376 45.94 488.816 40.9 488.816 32.14C488.816 23.5 481.376 18.4 474.476 18.4C467.576 18.4 460.196 23.44 460.196 32.14ZM466.856 32.14C466.856 24.88 469.436 19.9 474.476 19.9C479.516 19.9 482.156 24.88 482.156 32.14C482.156 39.46 479.516 44.44 474.476 44.44C469.436 44.44 466.856 39.46 466.856 32.14ZM520.632 27.4C520.632 20.74 516.012 18.4 510.792 18.4C506.232 18.4 503.112 20.98 501.672 23.86V19.36H490.932V20.68H495.552V43.66H490.932V44.98H506.292V43.66H501.912V28.42C501.912 23.14 506.052 20.02 509.352 20.02C512.532 20.02 514.272 21.88 514.272 26.32V43.66H509.892V44.98H525.252V43.66H520.632V27.4Z" fill="white"/>
</svg>
