<svg width="384" height="80" viewBox="0 0 384 80" fill="none" xmlns="http://www.w3.org/2000/svg">
<path d="M25.6 8.56H23.64L5.86 57.77H0.12V59.31H14.33V57.77H8.03L14.05 41.04H30.36L37.22 57.77H29.87V59.31H51.43V57.77H45.69L25.6 8.56ZM21.68 19.76L29.73 39.5H14.61L21.68 19.76ZM84.6855 38.8C84.6855 31.03 79.2955 28.3 73.2055 28.3C67.8855 28.3 64.2455 31.31 62.5655 34.67V29.42H50.0355V30.96H55.4255V57.77H50.0355V59.31H67.9555V57.77H62.8455V39.99C62.8455 33.83 67.6755 30.19 71.5255 30.19C75.2355 30.19 77.2655 32.36 77.2655 37.54V57.77H72.1555V59.31H90.0755V57.77H84.6855V38.8ZM116.041 30.75C113.521 29.07 110.231 28.3 107.151 28.3C100.781 28.3 93.6411 32.01 93.6411 39.43C93.6411 44.68 97.1411 48.04 101.411 49.65C98.5411 50 93.5011 52.03 93.5011 56.16C93.5011 59.45 95.6011 61.69 98.2611 62.67C95.4611 63.65 91.4711 66.24 91.4711 69.74C91.4711 75.69 97.9111 79.05 106.101 79.05C117.721 79.05 124.651 74.22 124.651 65.96C124.651 60.29 121.011 56.93 114.011 56.93H101.061C98.2611 56.93 97.4211 55.95 97.4911 54.27C97.5611 52.17 100.431 50.63 104.351 50.63H107.641C113.941 50.42 120.661 46.71 120.661 39.43C120.661 36.42 119.611 34.04 117.931 32.29C121.571 33.48 125.981 34.74 127.451 34.74V30.05L116.041 30.75ZM107.151 49.23C103.021 49.23 100.641 45.73 100.641 39.43C100.641 33.13 103.021 29.7 107.151 29.7C111.281 29.7 113.661 33.13 113.661 39.43C113.661 45.73 111.281 49.23 107.151 49.23ZM101.411 63.23H114.361C118.701 63.23 121.431 64.63 121.361 68.06C121.221 74.36 114.991 77.16 107.221 77.16C100.921 77.16 97.0711 74.5 97.0711 69.25C97.0711 66.73 98.6811 64.35 100.221 63.16C100.641 63.23 100.991 63.23 101.411 63.23ZM147.816 58.68C141.166 58.68 138.226 52.87 138.226 44.33V42.86H160.696C160.696 32.92 154.116 28.3 146.486 28.3C138.296 28.3 130.456 34.18 130.456 44.33C130.456 54.55 138.156 60.43 146.626 60.43C153.626 60.43 158.316 57.56 160.416 51.68L158.806 50.91C157.056 55.74 153.136 58.68 147.816 58.68ZM146.136 30.05C150.966 30.05 152.926 33.69 152.926 40.69V41.18H138.366C138.926 34.6 141.306 30.05 146.136 30.05ZM169.338 10.03V57.77H163.948V59.31H182.218V57.77H176.828V8.49H163.948V10.03H169.338ZM196.004 9.89C195.514 10.03 194.954 10.1 194.464 10.1C192.084 10.1 190.194 8.21 190.194 5.48C190.194 2.82 192.434 0.789998 194.954 0.789998C197.824 0.789998 199.854 2.96 199.854 6.6C199.854 10.59 195.934 16.61 190.964 19.27L190.054 18.15C193.274 15.98 195.654 12.41 196.144 9.82L196.004 9.89ZM201.159 36.98C201.159 31.52 206.409 28.3 211.589 28.3C214.179 28.3 216.139 28.65 218.379 29.7C221.039 30.96 221.879 29.35 222.229 28.3H223.629V38.59H222.229C221.669 33.83 217.119 29.98 211.519 29.98C208.159 29.98 205.709 31.52 205.709 34.18C205.709 37.12 208.229 38.31 212.429 39.71L217.889 41.6C222.369 43.21 225.519 45.73 225.519 51.19C225.519 57.49 219.989 60.43 214.109 60.43C210.819 60.43 208.719 59.59 206.269 58.54C203.399 57.28 202.489 58.96 202.069 59.94H200.739V48.11H202.139C202.909 53.78 207.459 58.75 213.759 58.75C218.169 58.75 220.969 57.21 220.969 53.85C220.969 50.63 218.449 49.58 214.039 48.11L208.579 46.22C204.379 44.82 201.159 42.02 201.159 36.98ZM306.975 9.26H291.855L277.435 47.2L263.015 9.26H247.335V10.8H253.425V57.77H247.335V59.31H261.965V57.77H255.455V11.29L273.585 59.31H274.985L293.115 11.5V57.77H286.745V59.31H306.975V57.77H300.885V10.8H306.975V9.26ZM342.356 56.23C341.586 57.56 340.746 58.19 339.766 58.19C338.646 58.19 338.296 57.42 338.296 55.6V39.71C338.296 31.87 332.066 28.3 324.856 28.3C320.726 28.3 315.756 30.61 313.726 32.29V39.99C314.776 40.06 315.616 39.99 316.666 39.22L321.356 31.45C321.566 31.03 321.916 30.61 322.406 30.47C323.176 30.26 324.226 30.05 325.206 30.05C328.986 30.05 330.946 32.5 330.946 37.4V42.58C319.746 43 310.856 45.31 310.856 51.89C310.856 58.33 316.526 60.36 321.146 60.36C326.326 60.36 329.756 58.4 330.946 55.81C331.506 58.54 333.746 60.36 337.596 60.36C339.976 60.36 342.076 59.59 343.476 57.07L342.356 56.23ZM324.086 58.33C320.236 58.26 318.556 55.88 318.556 51.68C318.556 46.71 323.736 44.26 330.946 44.12V51.96C330.946 55.53 327.446 58.4 324.086 58.33ZM349.602 10.03V57.77H344.212V59.31H362.482V57.77H357.092V8.49H344.212V10.03H349.602ZM370.999 10.03V57.77H365.609V59.31H383.879V57.77H378.489V8.49H365.609V10.03H370.999Z" fill="black"/>
</svg>
