<svg width="1305" height="212" viewBox="0 0 1305 212" fill="none" xmlns="http://www.w3.org/2000/svg">
<path opacity="0.3" d="M80.56 158.34V86.62C80.56 81.34 79.46 76.28 77.04 71.66C74.62 67.04 71.32 63.08 67.36 60.22C61.64 55.82 55.04 53.62 48 53.62C48 53.62 47.56 53.62 47.34 53.62C40.3 53.62 33.26 55.82 27.54 60.22C23.58 63.08 20.28 67.04 17.86 71.66C15.44 76.28 14.34 81.34 14.34 86.62C14.34 90.58 15 94.32 16.32 97.84C15.44 98.28 14.56 98.94 13.9 99.38C9.72 102.46 6.42 106.42 4.22 110.82C1.8 115.66 0.7 120.72 0.7 126C0.7 131.28 1.8 136.34 4.22 140.96C6.42 145.58 9.72 149.54 13.9 152.4C19.4 156.8 26.22 159 33.26 159C33.48 159 33.48 159 33.7 159C41.18 159 48 156.8 53.94 152.4C58.12 149.32 61.42 145.36 63.84 140.74C65.16 138.1 66.04 135.24 66.7 132.38V159H85.4V158.34H80.56ZM66.7 112.58V125.34C66.7 130.62 65.6 135.68 63.18 140.3C60.76 144.92 57.46 148.66 53.5 151.74C47.78 156.14 40.96 158.34 33.7 158.34C33.48 158.34 33.48 158.34 33.26 158.34C29.3 158.34 25.34 157.02 22.04 154.6C17.42 150.86 14.56 145.58 14.34 139.64C14.34 139.42 14.34 139.2 14.34 138.98C14.34 138.98 14.34 138.76 14.34 138.54V113.46C14.34 113.24 14.34 113.02 14.34 112.8C14.34 112.8 14.34 112.58 14.34 112.36C14.56 106.42 17.42 100.92 22.04 97.4C25.34 94.98 29.3 93.66 33.26 93.66H47.34C51.74 93.66 55.92 92.12 59.44 89.48C62.96 86.84 65.6 83.1 66.7 78.92V112.58ZM66.7 74.08C66.48 80.02 63.84 85.52 59 89.04C55.7 91.46 51.74 92.78 47.34 92.78H33.26C27.54 93 21.82 94.54 16.98 97.4C15.66 93.88 15 90.36 15 86.62C15 81.56 16.32 76.5 18.52 71.88C20.72 67.48 24.02 63.74 27.98 60.66C33.7 56.48 40.3 54.28 47.34 54.28C47.56 54.28 47.78 54.28 47.78 54.28C51.96 54.28 55.7 55.6 59 58.02C63.84 61.76 66.48 67.04 66.7 72.98V74.08ZM172.092 158.34V86.4C172.092 81.34 170.772 76.28 168.352 71.66C166.152 67.26 162.852 63.3 158.892 60.22C153.172 56.04 146.352 53.84 139.312 53.62C139.312 53.62 139.092 53.62 138.872 53.62C132.052 53.62 125.232 55.82 119.732 59.78V53.62H101.032V54.28H105.872V158.34H101.032V159H124.572V158.34H119.732V60.66C125.232 56.7 131.832 54.5 138.872 54.5C139.092 54.5 139.312 54.5 139.312 54.5C143.492 54.5 147.232 55.82 150.532 58.24C155.152 61.76 158.012 67.26 158.232 73.2V74.3V158.34H153.392V159H176.932V158.34H172.092ZM282.975 14.9H297.055V1.03999H296.615C285.175 1.03999 274.395 5.87999 266.915 14.24C260.315 21.5 256.795 30.74 256.575 40.42C256.575 47.02 259.655 53.4 264.495 57.58C258.555 54.94 251.955 53.62 245.135 53.62H244.695C237.215 53.62 229.735 55.16 222.915 58.46C216.315 61.54 210.595 65.94 205.755 71.44C197.175 81.12 192.555 93.44 192.555 106.42C192.555 117.64 195.855 128.2 202.455 137.22L200.255 139.64C200.035 139.86 199.595 140.08 199.375 140.52C189.255 151.52 192.775 164.5 200.475 171.76C204.655 175.72 209.935 178.14 215.215 178.36C215.655 178.36 216.095 178.36 216.315 178.36C222.035 178.36 227.535 176.16 231.935 171.54L244.475 159L245.135 158.34L247.995 155.7C252.835 150.86 259.215 148 266.255 147.78C268.015 147.56 269.775 147.78 271.535 148C271.535 148 271.975 148 272.195 148C272.195 148 272.415 148 272.635 148.22C272.635 148.22 272.855 148.22 273.075 148.22C273.295 148.22 273.955 148.44 274.175 148.44H274.395C274.615 148.66 275.055 148.66 275.275 148.88C280.115 150.2 284.295 152.62 287.815 156.14C293.535 161.86 296.615 170 296.175 177.7C295.735 185.84 292.435 193.54 286.715 199.48L286.495 199.7C281.875 204.1 276.155 206.74 269.775 206.96C269.335 206.96 268.895 206.96 268.455 206.96C261.855 206.96 255.255 204.32 250.195 199.48L240.515 189.8L230.615 199.48L230.835 199.7C238.535 207.4 248.655 211.58 259.215 211.58C259.875 211.58 260.535 211.58 261.415 211.58C270.875 210.92 280.115 206.96 286.935 200.36L287.155 199.92C293.095 193.98 296.615 186.06 297.055 177.7C297.275 169.78 294.195 161.42 288.475 155.48C284.955 152.18 280.775 149.76 276.155 148.22C276.815 147.78 277.255 147.56 277.695 147.12C279.895 145.36 281.875 143.38 283.855 141.18C292.215 131.5 297.055 119.18 297.055 106.42C297.055 93.44 292.215 81.12 283.855 71.44C279.455 66.38 274.395 62.42 268.675 59.56C261.635 55.6 257.455 48.34 257.455 40.42C257.455 34.26 259.875 28.1 264.055 23.48C268.895 18.2 275.715 15.12 282.975 14.9ZM231.495 171.1C221.155 181.44 208.395 178.36 200.915 171.1C193.655 164.06 190.135 151.74 200.035 140.96C200.255 140.74 200.475 140.3 200.695 140.08L202.895 137.88C203.775 138.98 204.655 140.08 205.755 141.18C210.375 146.68 216.315 151.08 222.695 154.16C229.295 157.24 236.335 158.78 243.375 159L231.495 171.1ZM271.755 65.72C279.015 72.76 282.975 82.44 283.195 92.56V120.06C282.975 129.3 279.675 138.1 273.515 144.92C272.855 145.8 272.195 146.46 271.535 147.12C269.775 146.9 267.795 146.9 266.035 146.9C258.995 147.34 252.395 150.2 247.335 155.04L244.255 158.34C234.135 158.12 224.675 153.94 217.635 146.9C210.375 139.64 206.415 130.18 206.195 120.06V92.56C206.415 82.44 210.595 72.76 217.635 65.72C224.895 58.46 234.575 54.5 244.695 54.28C254.815 54.5 264.495 58.46 271.755 65.72ZM415.393 93L415.173 92.56C413.193 84.64 409.233 77.38 403.953 71.44C399.113 65.94 393.173 61.54 386.573 58.46C379.973 55.38 372.713 53.62 365.233 53.62H364.793C357.313 53.62 349.833 55.16 343.013 58.46C336.413 61.54 330.693 65.94 325.853 71.44C317.273 81.12 312.653 93.44 312.653 106.42C312.653 119.18 317.273 131.5 325.853 141.18C330.693 146.68 336.413 151.08 343.013 154.16C349.833 157.46 357.313 159 364.793 159H365.233C372.713 159 379.973 157.24 386.573 154.16C393.173 151.08 399.113 146.68 403.953 141.18C406.373 138.32 408.793 135.02 410.553 131.72C415.173 123.36 414.953 113.46 410.333 105.32C406.593 98.94 400.653 94.54 393.833 93H415.393ZM409.673 105.76C414.293 113.68 414.293 123.36 409.893 131.28C408.133 134.8 405.933 137.88 403.293 140.74C398.453 146.24 392.733 150.42 386.353 153.5C379.533 156.58 372.273 158.34 364.793 158.34C354.673 158.12 344.993 154.16 337.733 146.9C330.693 139.86 326.513 130.18 326.293 120.06V93H388.553C397.353 93.22 405.273 98.06 409.673 105.76ZM326.293 92.12C326.733 82.22 330.693 72.76 337.733 65.72C344.993 58.46 354.673 54.28 364.793 54.28C374.913 54.5 384.593 58.46 391.853 65.72C398.893 72.76 403.073 82.22 403.293 92.12H326.293ZM449.732 158.34V0.819991L431.032 9.4L431.252 10.06L435.872 7.85999V158.34H431.032V159H454.572V158.34H449.732ZM547.134 158.34V53.4L528.434 61.76L528.654 62.42L533.274 60.44V158.34H528.434V159H551.974V158.34H547.134ZM540.314 34.7C544.054 34.7 547.134 31.4 547.134 27.66C547.134 23.92 544.054 20.84 540.314 20.84C536.354 20.84 533.274 23.92 533.274 27.66C533.274 31.4 536.354 34.7 540.314 34.7ZM641.955 158.34V86.4C641.955 81.34 640.635 76.28 638.215 71.66C636.015 67.26 632.715 63.3 628.755 60.22C623.035 56.04 616.215 53.84 609.175 53.62C609.175 53.62 608.955 53.62 608.735 53.62C601.915 53.62 595.095 55.82 589.595 59.78V53.62H570.895V54.28H575.735V158.34H570.895V159H594.435V158.34H589.595V60.66C595.095 56.7 601.695 54.5 608.735 54.5C608.955 54.5 609.175 54.5 609.175 54.5C613.355 54.5 617.095 55.82 620.395 58.24C625.015 61.76 627.875 67.26 628.095 73.2V74.3V158.34H623.255V159H646.795V158.34H641.955ZM788.479 86.84V86.4C788.479 81.34 787.159 76.28 784.739 71.66C782.539 67.26 779.239 63.3 775.279 60.22C769.559 56.04 762.739 53.84 755.699 53.62C755.699 53.62 755.479 53.62 755.259 53.62C748.439 53.62 741.619 55.82 736.119 59.78V1.03999H717.419V1.91999H722.259V158.34H717.419V159H740.959V158.34H736.119V60.66C741.619 56.7 748.219 54.5 755.259 54.5C755.479 54.5 755.699 54.5 755.699 54.5C759.879 54.5 763.619 55.82 766.919 58.24C771.539 61.76 774.399 67.26 774.619 73.2V74.3V158.34H769.779V159H793.319V158.34H788.479V86.84ZM1004.08 158.34V86.62C1004.08 81.34 1002.98 76.28 1000.56 71.66C998.142 67.04 994.842 63.08 990.882 60.22C985.162 55.82 978.562 53.62 971.522 53.62H970.862C938.082 53.84 925.762 84.86 915.862 109.72C912.562 117.86 909.702 125.34 906.182 131.06C904.422 134.36 902.222 137.66 899.582 140.52C894.742 146.02 889.022 150.2 882.642 153.28C875.822 156.36 868.562 158.12 861.082 158.12C850.962 157.9 841.282 153.94 834.022 146.68C826.982 139.64 822.802 129.96 822.582 119.84V92.78H911.682L911.462 92.34C909.482 84.42 905.522 77.16 900.242 71.22C895.402 65.72 889.462 61.32 882.862 58.24C876.262 55.16 869.002 53.4 861.742 53.18H861.082C853.602 53.4 846.122 54.94 839.302 58.24C832.702 61.32 826.982 65.72 822.142 71.22C813.562 80.9 808.942 93.22 808.942 105.98C808.942 118.96 813.562 131.28 822.142 140.96C826.982 146.46 832.702 150.86 839.302 153.94C846.122 157.24 853.602 158.78 861.082 158.78C861.302 158.78 861.522 158.78 861.522 158.78C869.002 158.78 876.262 157.02 882.862 153.94C889.462 150.86 895.402 146.46 900.242 140.96C902.662 138.1 905.082 134.8 906.842 131.5C910.362 125.78 913.222 118.08 916.522 110.16C921.362 97.62 927.082 83.54 935.442 72.76C945.122 60.22 956.782 54.28 971.522 54.28C975.482 54.28 979.222 55.6 982.522 58.02C987.362 61.76 990.002 67.04 990.222 72.98V74.08C990.002 80.02 987.362 85.52 982.522 89.04C979.222 91.46 975.262 92.78 970.862 92.78H956.782C949.742 93 942.922 95.2 937.422 99.38C933.242 102.46 929.942 106.42 927.742 110.82C925.322 115.66 924.222 120.72 924.222 126C924.222 131.28 925.322 136.34 927.742 140.96C929.942 145.58 933.242 149.54 937.422 152.4C942.922 156.8 949.742 159 956.782 159C956.782 159 957.002 159 957.222 159C964.702 159 971.522 156.8 977.462 152.4C981.642 149.32 984.942 145.36 987.362 140.74C988.682 138.1 989.562 135.24 990.222 132.38V152.84V159H1008.92V158.34H1004.08ZM822.582 91.9C823.022 82 826.982 72.54 834.022 65.5C841.282 58.24 850.962 54.06 861.082 54.06C871.202 54.06 880.882 58.24 888.142 65.5C895.182 72.54 899.362 82 899.582 91.9H822.582ZM986.702 140.3C984.282 144.92 980.982 148.66 977.022 151.74C971.302 156.14 964.482 158.34 957.222 158.34C957.002 158.34 956.782 158.34 956.782 158.34C952.822 158.34 948.862 157.02 945.782 154.6C940.942 150.86 938.082 145.58 937.862 139.64C937.862 139.42 937.862 112.58 937.862 112.36C938.082 106.42 940.942 100.92 945.782 97.4C948.862 94.98 952.822 93.66 956.782 93.66H970.862C975.262 93.66 979.442 92.12 982.962 89.48C986.482 86.84 989.122 83.1 990.222 78.92V125.34C990.222 130.62 989.122 135.68 986.702 140.3ZM1079.21 53.62V54.28H1090.65L1088.23 64.84L1067.55 157.24L1035.65 54.28H1040.49V53.62H1016.95V54.28H1021.79L1054.13 159H1067.77L1088.89 64.84C1090.65 58.68 1096.37 54.28 1102.75 54.28V53.62H1079.21ZM1213.32 93L1213.1 92.56C1211.12 84.64 1207.16 77.38 1201.88 71.44C1197.04 65.94 1191.1 61.54 1184.5 58.46C1177.9 55.38 1170.64 53.62 1163.16 53.62H1162.72C1155.24 53.62 1147.76 55.16 1140.94 58.46C1134.34 61.54 1128.62 65.94 1123.78 71.44C1115.2 81.12 1110.58 93.44 1110.58 106.42C1110.58 119.18 1115.2 131.5 1123.78 141.18C1128.62 146.68 1134.34 151.08 1140.94 154.16C1147.76 157.46 1155.24 159 1162.72 159H1163.16C1170.64 159 1177.9 157.24 1184.5 154.16C1191.1 151.08 1197.04 146.68 1201.88 141.18C1204.3 138.32 1206.72 135.02 1208.48 131.72C1213.1 123.36 1212.88 113.46 1208.26 105.32C1204.52 98.94 1198.58 94.54 1191.76 93H1213.32ZM1207.6 105.76C1212.22 113.68 1212.22 123.36 1207.82 131.28C1206.06 134.8 1203.86 137.88 1201.22 140.74C1196.38 146.24 1190.66 150.42 1184.28 153.5C1177.46 156.58 1170.2 158.34 1162.72 158.34C1152.6 158.12 1142.92 154.16 1135.66 146.9C1128.62 139.86 1124.44 130.18 1124.22 120.06V93H1186.48C1195.28 93.22 1203.2 98.06 1207.6 105.76ZM1124.22 92.12C1124.66 82.22 1128.62 72.76 1135.66 65.72C1142.92 58.46 1152.6 54.28 1162.72 54.28C1172.84 54.5 1182.52 58.46 1189.78 65.72C1196.82 72.76 1201 82.22 1201.22 92.12H1124.22ZM1300.02 158.34V86.4C1300.02 81.34 1298.7 76.28 1296.28 71.66C1294.08 67.26 1290.78 63.3 1286.82 60.22C1281.1 56.04 1274.28 53.84 1267.24 53.62C1267.24 53.62 1267.02 53.62 1266.8 53.62C1259.98 53.62 1253.16 55.82 1247.66 59.78V53.62H1228.96V54.28H1233.8V158.34H1228.96V159H1252.5V158.34H1247.66V60.66C1253.16 56.7 1259.76 54.5 1266.8 54.5C1267.02 54.5 1267.24 54.5 1267.24 54.5C1271.42 54.5 1275.16 55.82 1278.46 58.24C1283.08 61.76 1285.94 67.26 1286.16 73.2V74.3V158.34H1281.32V159H1304.86V158.34H1300.02Z" fill="white"/>
</svg>
