<svg width="471" height="46" viewBox="0 0 471 46" fill="none" xmlns="http://www.w3.org/2000/svg">
<path d="M0.6 23.5C0.6 37.84 11.58 45.94 22.14 45.94C25.74 45.94 29.04 44.62 31.44 43.6C33.54 42.7 35.4 42.88 36.18 44.56H37.5V27.16H42.06V25.84H24.42V27.16H31.2V35.5C31.2 41.02 26.76 44.44 22.02 44.44C12.96 44.44 7.92 35.92 7.92 23.5C7.92 11.14 12.96 2.56 22.14 2.56C28.02 2.56 33.24 6.94 34.2 14.08H35.52V0.639998H34.08C33.54 1.9 32.58 3.94 29.46 2.68C26.94 1.66 24.48 1.06 22.02 1.06C11.58 1.06 0.6 9.16 0.6 23.5ZM71.8716 42.34C71.2116 43.48 70.4916 44.02 69.6516 44.02C68.6916 44.02 68.3916 43.36 68.3916 41.8V28.18C68.3916 21.46 63.0516 18.4 56.8716 18.4C53.3316 18.4 49.0716 20.38 47.3316 21.82V28.42C48.2316 28.48 48.9516 28.42 49.8516 27.76L53.8716 21.1C54.0516 20.74 54.3516 20.38 54.7716 20.26C55.4316 20.08 56.3316 19.9 57.1716 19.9C60.4116 19.9 62.0916 22 62.0916 26.2V30.64C52.4916 31 44.8716 32.98 44.8716 38.62C44.8716 44.14 49.7316 45.88 53.6916 45.88C58.1316 45.88 61.0716 44.2 62.0916 41.98C62.5716 44.32 64.4916 45.88 67.7916 45.88C69.8316 45.88 71.6316 45.22 72.8316 43.06L71.8716 42.34ZM56.2116 44.14C52.9116 44.08 51.4716 42.04 51.4716 38.44C51.4716 34.18 55.9116 32.08 62.0916 31.96V38.68C62.0916 41.74 59.0916 44.2 56.2116 44.14ZM90.5944 19.06C88.4944 19.72 86.3944 21.4 84.7744 24.52V19.36H74.2744V20.68H78.6544V43.66H74.2744V44.98H89.2144V43.66H85.0144V28.9C85.3144 25.06 88.8544 21.04 90.6544 20.44C90.8344 20.38 91.0144 20.44 91.1344 20.62L95.6344 28.3C96.5344 28.96 97.2544 28.84 98.1544 28.78V19.24C96.2944 18.46 92.6944 18.4 90.5944 19.06ZM128.07 1.42H117.33V2.74H121.71V22.96C120.45 20.44 117.27 18.4 113.43 18.4C107.13 18.4 100.77 23.2 100.77 32.14C100.77 41.08 107.13 45.88 113.61 45.88C117.27 45.88 120.45 43.84 121.71 41.32V44.98H132.45V43.66H128.07V1.42ZM121.71 35.38C121.71 41.68 117.87 44.38 114.33 44.38C109.35 44.38 107.43 39.76 107.43 32.14C107.43 24.52 109.35 19.9 114.33 19.9C117.87 19.9 121.71 22.6 121.71 28.9V35.38ZM149.459 44.44C143.759 44.44 141.239 39.46 141.239 32.14V30.88H160.499C160.499 22.36 154.859 18.4 148.319 18.4C141.299 18.4 134.579 23.44 134.579 32.14C134.579 40.9 141.179 45.94 148.439 45.94C154.439 45.94 158.459 43.48 160.259 38.44L158.879 37.78C157.379 41.92 154.019 44.44 149.459 44.44ZM148.019 19.9C152.159 19.9 153.839 23.02 153.839 29.02V29.44H141.359C141.839 23.8 143.879 19.9 148.019 19.9ZM192.671 27.4C192.671 20.74 188.051 18.4 182.831 18.4C178.271 18.4 175.151 20.98 173.711 23.86V19.36H162.971V20.68H167.591V43.66H162.971V44.98H178.331V43.66H173.951V28.42C173.951 23.14 178.091 20.02 181.391 20.02C184.571 20.02 186.311 21.88 186.311 26.32V43.66H181.931V44.98H197.291V43.66H192.671V27.4ZM214.852 32.14C214.852 40.9 222.232 45.94 229.132 45.94C236.032 45.94 243.472 40.9 243.472 32.14C243.472 23.5 236.032 18.4 229.132 18.4C222.232 18.4 214.852 23.44 214.852 32.14ZM221.512 32.14C221.512 24.88 224.092 19.9 229.132 19.9C234.172 19.9 236.812 24.88 236.812 32.14C236.812 39.46 234.172 44.44 229.132 44.44C224.092 44.44 221.512 39.46 221.512 32.14ZM261.233 0.939998C255.893 1.18 251.213 5.2 251.213 15.34V19.36H246.593V20.68H251.213V43.66H246.593V44.98H263.033V43.66H257.573V20.68H265.913V19.36H257.573V7.9C257.573 3.16 259.853 2.26 261.473 2.26C263.333 2.26 263.693 2.44 264.113 3.16L267.833 9.58C268.733 10.24 269.453 10.12 270.353 10.06V2.8C268.553 1.66 265.553 0.759997 261.233 0.939998ZM315.308 27.52C315.308 20.74 310.628 18.4 305.408 18.4C301.148 18.4 298.028 20.68 296.588 23.38V1.42H285.848V2.74H290.228V43.66H285.608V44.98H301.028V43.66H296.588V28.42C296.588 23.2 300.788 20.02 304.028 20.02C307.208 20.02 308.948 21.88 308.948 26.32V43.66H304.568V44.98H319.988V43.66H315.308V27.52ZM336.783 44.44C331.083 44.44 328.563 39.46 328.563 32.14V30.88H347.823C347.823 22.36 342.183 18.4 335.643 18.4C328.623 18.4 321.903 23.44 321.903 32.14C321.903 40.9 328.503 45.94 335.763 45.94C341.763 45.94 345.783 43.48 347.583 38.44L346.203 37.78C344.703 41.92 341.343 44.44 336.783 44.44ZM335.343 19.9C339.483 19.9 341.163 23.02 341.163 29.02V29.44H328.683C329.163 23.8 331.203 19.9 335.343 19.9ZM378.375 42.34C377.715 43.48 376.995 44.02 376.155 44.02C375.195 44.02 374.895 43.36 374.895 41.8V28.18C374.895 21.46 369.555 18.4 363.375 18.4C359.835 18.4 355.575 20.38 353.835 21.82V28.42C354.735 28.48 355.455 28.42 356.355 27.76L360.375 21.1C360.555 20.74 360.855 20.38 361.275 20.26C361.935 20.08 362.835 19.9 363.675 19.9C366.915 19.9 368.595 22 368.595 26.2V30.64C358.995 31 351.375 32.98 351.375 38.62C351.375 44.14 356.235 45.88 360.195 45.88C364.635 45.88 367.575 44.2 368.595 41.98C369.075 44.32 370.995 45.88 374.295 45.88C376.335 45.88 378.135 45.22 379.335 43.06L378.375 42.34ZM362.715 44.14C359.415 44.08 357.975 42.04 357.975 38.44C357.975 34.18 362.415 32.08 368.595 31.96V38.68C368.595 41.74 365.595 44.2 362.715 44.14ZM398.266 20.68H402.526L395.506 38.14L388.186 20.68H392.266V19.36H377.866V20.68H381.406L392.326 45.94H394.066L404.266 20.68H407.566V19.36H398.266V20.68ZM422.857 44.44C417.157 44.44 414.637 39.46 414.637 32.14V30.88H433.897C433.897 22.36 428.257 18.4 421.717 18.4C414.697 18.4 407.977 23.44 407.977 32.14C407.977 40.9 414.577 45.94 421.837 45.94C427.837 45.94 431.857 43.48 433.657 38.44L432.277 37.78C430.777 41.92 427.417 44.44 422.857 44.44ZM421.417 19.9C425.557 19.9 427.237 23.02 427.237 29.02V29.44H414.757C415.237 23.8 417.277 19.9 421.417 19.9ZM466.07 27.4C466.07 20.74 461.45 18.4 456.23 18.4C451.67 18.4 448.55 20.98 447.11 23.86V19.36H436.37V20.68H440.99V43.66H436.37V44.98H451.73V43.66H447.35V28.42C447.35 23.14 451.49 20.02 454.79 20.02C457.97 20.02 459.71 21.88 459.71 26.32V43.66H455.33V44.98H470.69V43.66H466.07V27.4Z" fill="white"/>
</svg>
