<svg width="499" height="46" viewBox="0 0 499 46" fill="none" xmlns="http://www.w3.org/2000/svg">
<path d="M0.6 23.5C0.6 37.84 11.58 45.94 22.14 45.94C25.74 45.94 29.04 44.62 31.44 43.6C33.54 42.7 35.4 42.88 36.18 44.56H37.5V27.16H42.06V25.84H24.42V27.16H31.2V35.5C31.2 41.02 26.76 44.44 22.02 44.44C12.96 44.44 7.92 35.92 7.92 23.5C7.92 11.14 12.96 2.56 22.14 2.56C28.02 2.56 33.24 6.94 34.2 14.08H35.52V0.639998H34.08C33.54 1.9 32.58 3.94 29.46 2.68C26.94 1.66 24.48 1.06 22.02 1.06C11.58 1.06 0.6 9.16 0.6 23.5ZM71.8716 42.34C71.2116 43.48 70.4916 44.02 69.6516 44.02C68.6916 44.02 68.3916 43.36 68.3916 41.8V28.18C68.3916 21.46 63.0516 18.4 56.8716 18.4C53.3316 18.4 49.0716 20.38 47.3316 21.82V28.42C48.2316 28.48 48.9516 28.42 49.8516 27.76L53.8716 21.1C54.0516 20.74 54.3516 20.38 54.7716 20.26C55.4316 20.08 56.3316 19.9 57.1716 19.9C60.4116 19.9 62.0916 22 62.0916 26.2V30.64C52.4916 31 44.8716 32.98 44.8716 38.62C44.8716 44.14 49.7316 45.88 53.6916 45.88C58.1316 45.88 61.0716 44.2 62.0916 41.98C62.5716 44.32 64.4916 45.88 67.7916 45.88C69.8316 45.88 71.6316 45.22 72.8316 43.06L71.8716 42.34ZM56.2116 44.14C52.9116 44.08 51.4716 42.04 51.4716 38.44C51.4716 34.18 55.9116 32.08 62.0916 31.96V38.68C62.0916 41.74 59.0916 44.2 56.2116 44.14ZM90.5944 19.06C88.4944 19.72 86.3944 21.4 84.7744 24.52V19.36H74.2744V20.68H78.6544V43.66H74.2744V44.98H89.2144V43.66H85.0144V28.9C85.3144 25.06 88.8544 21.04 90.6544 20.44C90.8344 20.38 91.0144 20.44 91.1344 20.62L95.6344 28.3C96.5344 28.96 97.2544 28.84 98.1544 28.78V19.24C96.2944 18.46 92.6944 18.4 90.5944 19.06ZM128.07 1.42H117.33V2.74H121.71V22.96C120.45 20.44 117.27 18.4 113.43 18.4C107.13 18.4 100.77 23.2 100.77 32.14C100.77 41.08 107.13 45.88 113.61 45.88C117.27 45.88 120.45 43.84 121.71 41.32V44.98H132.45V43.66H128.07V1.42ZM121.71 35.38C121.71 41.68 117.87 44.38 114.33 44.38C109.35 44.38 107.43 39.76 107.43 32.14C107.43 24.52 109.35 19.9 114.33 19.9C117.87 19.9 121.71 22.6 121.71 28.9V35.38ZM149.459 44.44C143.759 44.44 141.239 39.46 141.239 32.14V30.88H160.499C160.499 22.36 154.859 18.4 148.319 18.4C141.299 18.4 134.579 23.44 134.579 32.14C134.579 40.9 141.179 45.94 148.439 45.94C154.439 45.94 158.459 43.48 160.259 38.44L158.879 37.78C157.379 41.92 154.019 44.44 149.459 44.44ZM148.019 19.9C152.159 19.9 153.839 23.02 153.839 29.02V29.44H141.359C141.839 23.8 143.879 19.9 148.019 19.9ZM192.671 27.4C192.671 20.74 188.051 18.4 182.831 18.4C178.271 18.4 175.151 20.98 173.711 23.86V19.36H162.971V20.68H167.591V43.66H162.971V44.98H178.331V43.66H173.951V28.42C173.951 23.14 178.091 20.02 181.391 20.02C184.571 20.02 186.311 21.88 186.311 26.32V43.66H181.931V44.98H197.291V43.66H192.671V27.4ZM237.412 45.94C247.792 45.94 258.892 37.84 258.892 23.5C258.892 9.16 247.792 1.06 237.412 1.06C226.972 1.06 215.932 9.16 215.932 23.5C215.932 37.84 226.972 45.94 237.412 45.94ZM237.412 2.56C246.412 2.56 251.572 11.2 251.572 23.5C251.572 35.86 246.412 44.44 237.412 44.44C228.352 44.44 223.252 35.86 223.252 23.5C223.252 11.2 228.352 2.56 237.412 2.56ZM277.756 0.939998C272.416 1.18 267.736 5.2 267.736 15.34V19.36H263.116V20.68H267.736V43.66H263.116V44.98H279.556V43.66H274.096V20.68H282.436V19.36H274.096V7.9C274.096 3.16 276.376 2.26 277.996 2.26C279.856 2.26 280.216 2.44 280.636 3.16L284.356 9.58C285.256 10.24 285.976 10.12 286.876 10.06V2.8C285.076 1.66 282.076 0.759997 277.756 0.939998ZM348.091 2.08H330.811V3.4H336.211V22.24H314.551V3.4H319.951V2.08H302.671V3.4H307.891V43.66H302.671V44.98H319.951V43.66H314.551V23.56H336.211V43.66H330.811V44.98H348.091V43.66H342.871V3.4H348.091V2.08ZM364.498 44.44C358.798 44.44 356.278 39.46 356.278 32.14V30.88H375.538C375.538 22.36 369.898 18.4 363.358 18.4C356.338 18.4 349.618 23.44 349.618 32.14C349.618 40.9 356.218 45.94 363.478 45.94C369.478 45.94 373.498 43.48 375.298 38.44L373.918 37.78C372.418 41.92 369.058 44.44 364.498 44.44ZM363.058 19.9C367.198 19.9 368.878 23.02 368.878 29.02V29.44H356.398C356.878 23.8 358.918 19.9 363.058 19.9ZM406.09 42.34C405.43 43.48 404.71 44.02 403.87 44.02C402.91 44.02 402.61 43.36 402.61 41.8V28.18C402.61 21.46 397.27 18.4 391.09 18.4C387.55 18.4 383.29 20.38 381.55 21.82V28.42C382.45 28.48 383.17 28.42 384.07 27.76L388.09 21.1C388.27 20.74 388.57 20.38 388.99 20.26C389.65 20.08 390.55 19.9 391.39 19.9C394.63 19.9 396.31 22 396.31 26.2V30.64C386.71 31 379.09 32.98 379.09 38.62C379.09 44.14 383.95 45.88 387.91 45.88C392.35 45.88 395.29 44.2 396.31 41.98C396.79 44.32 398.71 45.88 402.01 45.88C404.05 45.88 405.85 45.22 407.05 43.06L406.09 42.34ZM390.43 44.14C387.13 44.08 385.69 42.04 385.69 38.44C385.69 34.18 390.13 32.08 396.31 31.96V38.68C396.31 41.74 393.31 44.2 390.43 44.14ZM425.981 20.68H430.241L423.221 38.14L415.901 20.68H419.981V19.36H405.581V20.68H409.121L420.041 45.94H421.781L431.981 20.68H435.281V19.36H425.981V20.68ZM450.572 44.44C444.872 44.44 442.352 39.46 442.352 32.14V30.88H461.612C461.612 22.36 455.972 18.4 449.432 18.4C442.412 18.4 435.692 23.44 435.692 32.14C435.692 40.9 442.292 45.94 449.552 45.94C455.552 45.94 459.572 43.48 461.372 38.44L459.992 37.78C458.492 41.92 455.132 44.44 450.572 44.44ZM449.132 19.9C453.272 19.9 454.952 23.02 454.952 29.02V29.44H442.472C442.952 23.8 444.992 19.9 449.132 19.9ZM493.785 27.4C493.785 20.74 489.165 18.4 483.945 18.4C479.385 18.4 476.265 20.98 474.825 23.86V19.36H464.085V20.68H468.705V43.66H464.085V44.98H479.445V43.66H475.065V28.42C475.065 23.14 479.205 20.02 482.505 20.02C485.685 20.02 487.425 21.88 487.425 26.32V43.66H483.045V44.98H498.405V43.66H493.785V27.4Z" fill="white"/>
</svg>
