<svg width="174" height="1437" viewBox="0 0 174 1437" fill="none" xmlns="http://www.w3.org/2000/svg">
<path d="M11.38 1426.26C7.95999 1422.84 5.43999 1419.06 3.81999 1414.74C2.19999 1410.42 1.29999 1406.1 1.47999 1401.6C1.47999 1394.22 3.99999 1387.2 8.5 1381.44C8.5 1381.26 9.22 1380.54 9.39999 1380.36C9.39999 1380.18 9.39999 1380.18 9.57999 1380.18C9.57999 1380 9.75999 1379.82 9.75999 1379.82C9.93999 1379.64 9.93999 1379.64 10.12 1379.46C10.12 1379.46 10.3 1379.28 10.3 1379.1C10.48 1379.1 10.66 1378.92 10.66 1378.74C10.66 1378.74 10.84 1378.74 10.84 1378.56C11.02 1378.38 11.2 1378.2 11.38 1378.2C17.86 1371.72 26.32 1368.12 35.5 1368.12L35.5 1367.58L1.11999 1367.58L1.11999 1368.12C5.61999 1368.12 9.39999 1371.9 9.39999 1376.4C9.39999 1378.2 8.85999 1379.82 7.95999 1381.08C3.46 1387.02 0.939996 1394.04 0.759988 1401.6C0.759989 1406.1 1.47999 1410.6 3.27999 1414.92C4.89999 1419.24 7.6 1423.2 11.02 1426.62C14.62 1430.22 18.76 1432.92 23.62 1434.72L23.8 1434.72C30.28 1437.06 37.66 1435.08 42.16 1429.68C42.52 1429.32 73.3 1392.6 79.6 1385.04L80.86 1383.6C81.22 1383.24 81.58 1382.88 81.94 1382.52C87.16 1377.12 94.18 1374.24 101.56 1374.24C109.12 1374.24 116.14 1377.12 121.36 1382.52C126.4 1387.38 129.28 1394.04 129.46 1401.24L129.46 1401.42L129.46 1401.78C129.46 1401.96 129.46 1402.32 129.46 1402.5L129.46 1403.22C129.28 1410.78 126.58 1417.98 121.72 1423.74L121.72 1423.92C121.54 1424.1 121.36 1424.28 121.18 1424.28C121.18 1424.46 121.18 1424.46 121.18 1424.46C121 1424.64 120.82 1424.82 120.64 1425L120.64 1425.18C120.46 1425.36 120.28 1425.36 120.1 1425.54L120.1 1425.72C119.92 1425.9 119.74 1426.08 119.56 1426.26C114.16 1431.66 107.14 1435.08 99.58 1435.98C98.14 1436.16 96.88 1436.16 95.44 1436.16L95.44 1436.7L129.82 1436.7L129.82 1436.16C125.14 1436.16 121.54 1432.56 121.54 1427.88C121.54 1426.26 122.08 1424.46 122.98 1423.2C127.48 1417.44 129.82 1410.42 130 1403.22L130 1402.5C130 1402.5 130 1402.32 130 1402.14C130 1401.96 130 1401.96 130 1401.78L130 1401.42L130 1401.24C129.82 1392.24 126.22 1383.96 119.92 1377.66C113.08 1370.82 103.36 1367.04 93.64 1367.58C79.78 1368.3 71.86 1376.76 70.96 1377.66L32.98 1423.02C31 1425.36 27.76 1428.42 23.8 1429.14C18.58 1430.04 13.54 1428.42 11.38 1426.26ZM115.06 1280.63C119.56 1284.59 122.98 1289.27 125.5 1294.49C128.02 1300.07 129.46 1306.01 129.46 1312.13C129.46 1320.41 126.04 1328.33 120.1 1334.27C114.34 1340.03 106.42 1343.45 98.14 1343.63L75.64 1343.63C67.36 1343.45 59.44 1340.03 53.68 1334.27C47.74 1328.33 44.32 1320.41 44.32 1312.13C44.5 1303.85 47.74 1295.93 53.68 1289.99C59.44 1284.05 67.36 1280.81 75.64 1280.63L76 1280.63L76 1270.73L75.64 1270.91C69.16 1272.53 63.22 1275.77 58.36 1280.09C53.86 1284.05 50.26 1288.91 47.74 1294.31C45.22 1299.71 43.78 1305.65 43.78 1311.77C43.78 1311.77 43.78 1311.95 43.78 1312.13C43.78 1318.25 45.04 1324.37 47.74 1329.95C50.26 1335.35 53.86 1340.03 58.36 1343.99C66.28 1351.01 76.36 1354.79 86.98 1354.79C97.42 1354.79 107.5 1351.01 115.42 1343.99C119.92 1340.03 123.52 1335.35 126.04 1329.95C128.74 1324.37 130 1318.25 130 1312.13C130 1311.95 130 1311.77 130 1311.77C130 1305.65 128.56 1299.71 126.04 1294.31C123.52 1288.91 119.92 1284.05 115.42 1280.09C110.56 1275.77 104.62 1272.53 98.14 1270.91L97.96 1271.45C104.26 1273.07 110.2 1276.31 115.06 1280.63ZM76 1173.87L75.64 1174.05C69.16 1175.67 63.22 1178.91 58.36 1183.23C53.86 1187.19 50.26 1192.05 47.74 1197.45C45.22 1202.85 43.78 1208.79 43.78 1214.91L43.78 1215.27C43.78 1221.39 45.04 1227.51 47.74 1233.09C50.26 1238.49 53.86 1243.17 58.36 1247.13C66.28 1254.15 76.36 1257.93 86.98 1257.93C97.42 1257.93 107.5 1254.15 115.42 1247.13C119.92 1243.17 123.52 1238.49 126.04 1233.09C128.74 1227.51 130 1221.39 130 1215.27L130 1214.91C130 1208.79 128.56 1202.85 126.04 1197.45C123.52 1192.05 119.92 1187.19 115.42 1183.23C113.08 1181.25 110.38 1179.27 107.68 1177.83C100.84 1174.05 92.74 1174.23 86.08 1178.01C80.86 1181.07 77.26 1185.93 76 1191.51L76 1173.87ZM86.44 1178.55C92.92 1174.77 100.84 1174.77 107.32 1178.37C110.2 1179.81 112.72 1181.61 115.06 1183.77C119.56 1187.73 122.98 1192.41 125.5 1197.63C128.02 1203.21 129.46 1209.15 129.46 1215.27C129.28 1223.55 126.04 1231.47 120.1 1237.41C114.34 1243.17 106.42 1246.59 98.14 1246.77L76 1246.77L76 1195.83C76.18 1188.63 80.14 1182.15 86.44 1178.55ZM75.28 1246.77C67.18 1246.41 59.44 1243.17 53.68 1237.41C47.74 1231.47 44.32 1223.55 44.32 1215.27C44.5 1206.99 47.74 1199.07 53.68 1193.13C59.44 1187.37 67.18 1183.95 75.28 1183.77L75.28 1246.77ZM129.46 1102.93L70.6 1102.93C66.46 1102.93 62.32 1104.01 58.54 1105.99C54.94 1107.79 51.7 1110.49 49.18 1113.73C45.76 1118.41 43.96 1123.99 43.78 1129.75C43.78 1129.75 43.78 1129.93 43.78 1130.11C43.78 1135.69 45.58 1141.27 48.82 1145.77L43.78 1145.77L43.78 1161.07L44.32 1161.07L44.32 1157.11L129.46 1157.11L129.46 1161.07L130 1161.07L130 1141.81L129.46 1141.81L129.46 1145.77L49.54 1145.77C46.3 1141.27 44.5 1135.87 44.5 1130.11C44.5 1129.93 44.5 1129.75 44.5 1129.75C44.5 1126.33 45.58 1123.27 47.56 1120.57C50.44 1116.79 54.94 1114.45 59.8 1114.27L60.7 1114.27L129.46 1114.27L129.46 1118.23L130 1118.23L130 1098.97L129.46 1098.97L129.46 1102.93ZM76 1002.13L75.64 1002.31C69.16 1003.93 63.22 1007.17 58.36 1011.49C53.86 1015.45 50.26 1020.31 47.74 1025.71C45.22 1031.11 43.78 1037.05 43.78 1043.17L43.78 1043.53C43.78 1049.65 45.04 1055.77 47.74 1061.35C50.26 1066.75 53.86 1071.43 58.36 1075.39C66.28 1082.41 76.36 1086.19 86.98 1086.19C97.42 1086.19 107.5 1082.41 115.42 1075.39C119.92 1071.43 123.52 1066.75 126.04 1061.35C128.74 1055.77 130 1049.65 130 1043.53L130 1043.17C130 1037.05 128.56 1031.11 126.04 1025.71C123.52 1020.31 119.92 1015.45 115.42 1011.49C113.08 1009.51 110.38 1007.53 107.68 1006.09C100.84 1002.31 92.74 1002.49 86.08 1006.27C80.86 1009.33 77.26 1014.19 76 1019.77L76 1002.13ZM86.44 1006.81C92.92 1003.03 100.84 1003.03 107.32 1006.63C110.2 1008.07 112.72 1009.87 115.06 1012.03C119.56 1015.99 122.98 1020.67 125.5 1025.89C128.02 1031.47 129.46 1037.41 129.46 1043.53C129.28 1051.81 126.04 1059.73 120.1 1065.67C114.34 1071.43 106.42 1074.85 98.14 1075.03L76 1075.03L76 1024.09C76.18 1016.89 80.14 1010.41 86.44 1006.81ZM75.28 1075.03C67.18 1074.67 59.44 1071.43 53.68 1065.67C47.74 1059.73 44.32 1051.81 44.32 1043.53C44.5 1035.25 47.74 1027.33 53.68 1021.39C59.44 1015.63 67.18 1012.21 75.28 1012.03L75.28 1075.03ZM58.54 934.257C54.76 936.057 51.52 938.757 49.18 941.997C45.58 946.677 43.78 952.257 43.78 958.017C43.78 958.017 43.78 958.197 43.78 958.377C43.78 963.957 45.4 969.537 48.82 974.037L43.78 974.037L43.78 989.337L44.32 989.337L44.32 985.377L129.46 985.377L129.46 989.337L130 989.337L130 970.077L129.46 970.077L129.46 974.037L81.76 974.037L49.54 974.037C46.12 969.537 44.32 964.137 44.32 958.377C44.32 958.197 44.32 958.017 44.32 958.017C44.32 954.597 45.4 951.537 47.38 948.837C50.44 945.057 54.76 942.717 59.62 942.537C59.8 942.537 59.98 942.537 60.16 942.537C60.16 942.537 60.34 942.537 60.52 942.537L71.14 942.537L71.14 931.197L70.78 931.197C66.46 931.197 62.32 932.277 58.54 934.257ZM44.32 872.957L44.32 863.597L52.96 865.577L128.56 882.497L43.78 908.597L43.78 923.897L44.32 923.897L44.32 919.937L130 893.477L130 882.857L147.28 886.637C152.14 887.717 156.64 890.597 159.7 894.737C163.12 899.597 164.56 905.537 163.48 911.477L161.14 922.637L172.3 924.797L172.3 924.617C172.84 922.457 173.02 920.117 173.02 917.957C173.02 911.117 170.68 904.277 166.54 898.517C161.86 892.217 155.02 887.717 147.28 886.097L52.96 865.037C47.92 863.597 44.32 858.917 44.32 853.517L43.78 853.517L43.78 872.957L44.32 872.957ZM58.36 727.43C53.86 731.39 50.26 736.25 47.74 741.65C45.22 747.05 43.78 752.99 43.78 759.11C43.78 759.11 43.78 759.29 43.78 759.47C43.78 765.59 45.04 771.71 47.74 777.29C50.26 782.69 53.86 787.37 58.36 791.33C66.28 798.35 76.36 802.13 86.8 802.13C97.42 802.13 107.5 798.35 115.42 791.33C119.92 787.37 123.52 782.69 126.04 777.29C128.74 771.71 130 765.59 130 759.47C130 753.17 128.74 747.23 126.04 741.65C123.52 736.25 119.92 731.39 115.42 727.43C107.5 720.59 97.42 716.63 86.8 716.63C76.36 716.63 66.28 720.59 58.36 727.43ZM98.14 727.97C106.42 728.15 114.34 731.39 120.1 737.33C126.04 743.27 129.28 751.19 129.46 759.47C129.28 767.75 126.04 775.67 120.1 781.61C114.34 787.37 106.42 790.79 98.14 790.97L75.64 790.97C67.36 790.79 59.44 787.37 53.68 781.61C47.74 775.67 44.32 767.75 44.32 759.47C44.32 751.19 47.74 743.27 53.68 737.33C59.44 731.39 67.36 728.15 75.64 727.97L98.14 727.97ZM9.21996 645.908C3.81996 651.668 0.939964 659.228 0.759956 667.148C0.759956 667.148 0.759956 667.328 0.759956 667.508C0.759956 667.688 0.759956 667.868 0.759956 667.868C0.939965 675.428 3.63996 682.808 8.67996 688.568L9.21997 689.108C9.93996 690.008 10.66 690.908 11.56 691.628C11.74 691.808 11.92 691.988 12.28 692.168C13.36 693.068 14.44 693.968 15.7 694.688C16.42 695.228 17.14 695.588 17.86 695.948C22.54 698.648 27.94 699.908 33.52 699.908L43.78 699.908L43.78 703.868L44.32 703.868L44.32 699.908L129.46 699.908L129.46 703.868L130 703.868L130 684.608L129.46 684.608L129.46 688.568L44.32 688.568C44.32 688.568 44.32 667.688 44.32 667.508L43.78 667.508C43.78 667.688 43.78 688.568 43.78 688.568L22.36 688.568C16.42 688.568 10.84 686.048 6.87996 681.548C3.45996 677.768 1.47996 672.908 1.47996 667.868L1.47996 667.508C1.47996 667.328 1.47996 667.148 1.47996 667.148C1.47996 662.108 3.45996 657.248 6.87996 653.468C10.84 648.968 16.42 646.448 22.36 646.268L33.88 646.268L33.88 635.108L33.52 635.108C24.16 635.108 15.34 638.888 9.21996 645.908ZM58.36 526.574C53.86 530.534 50.26 535.394 47.74 540.794C45.04 546.374 43.78 552.314 43.78 558.614C43.78 558.794 43.78 558.974 43.78 558.974C43.78 567.794 47.02 575.894 53.14 582.014C57.82 586.694 63.58 589.754 69.88 590.834L43.78 590.834L43.78 606.134L44.32 606.134L44.32 602.174L172.3 602.174L172.3 606.134L173.02 606.134L173.02 586.874L172.3 586.874L172.3 590.834L103.9 590.834C110.2 589.754 115.96 586.694 120.64 582.014C126.76 575.894 130 567.794 130 558.974C130 558.974 130 558.794 130 558.614C130 552.314 128.74 546.374 126.04 540.794C123.52 535.394 119.92 530.534 115.42 526.574C107.5 519.734 97.42 515.774 86.98 515.774C76.36 515.774 66.28 519.734 58.36 526.574ZM98.14 527.114C106.42 527.294 114.34 530.534 120.1 536.474C126.04 542.414 129.46 550.334 129.46 558.614C129.46 558.794 129.46 558.974 129.46 558.974C129.46 576.434 115.42 590.654 97.96 590.834L75.82 590.834C58.36 590.654 44.32 576.434 44.32 558.974C44.32 558.974 44.32 558.794 44.32 558.614C44.32 550.334 47.74 542.414 53.68 536.474C59.44 530.534 67.36 527.294 75.64 527.114L98.14 527.114ZM129.46 437.61L70.78 437.61C66.46 437.61 62.32 438.51 58.54 440.49C54.76 442.47 51.52 445.17 49.18 448.41C45.58 453.09 43.78 458.49 43.78 464.25C43.78 464.25 43.78 464.61 43.78 464.79C43.78 470.55 45.58 476.31 49.18 480.99C51.52 484.23 54.76 486.93 58.54 488.91C62.32 490.89 66.46 491.79 70.78 491.79C74.02 491.79 77.08 491.25 79.96 490.17C80.32 490.89 80.86 491.61 81.22 492.15C83.74 495.57 86.98 498.27 90.58 500.07C94.54 502.05 98.68 502.95 103 502.95C107.32 502.95 111.46 502.05 115.24 500.07C119.02 498.27 122.26 495.57 124.6 492.15C128.2 487.65 130 482.07 130 476.31C130 476.13 130 476.13 130 475.95C130 469.83 128.2 464.25 124.6 459.39C122.08 455.97 118.84 453.27 115.06 451.29C112.9 450.21 110.56 449.49 108.22 448.95L130 448.95L130 433.65L129.46 433.65L129.46 437.61ZM92.02 448.95L102.46 448.95C106.78 448.95 110.92 449.85 114.7 451.83C118.48 453.81 121.54 456.51 124.06 459.75C127.66 464.43 129.46 470.01 129.46 475.95C129.46 476.13 129.46 476.13 129.46 476.31C129.46 479.55 128.38 482.79 126.4 485.49C123.34 489.27 119.02 491.61 114.16 491.79C113.98 491.79 113.8 491.79 113.62 491.79C113.62 491.79 113.44 491.79 113.26 491.79L92.74 491.79C92.56 491.79 92.38 491.79 92.2 491.79C92.2 491.79 92.02 491.79 91.84 491.79C86.98 491.61 82.48 489.27 79.6 485.49C77.62 482.79 76.54 479.55 76.54 476.31L76.54 464.79C76.54 461.19 75.28 457.77 73.12 454.89C70.96 452.01 67.9 449.85 64.48 448.95L92.02 448.95ZM60.52 448.95C65.38 449.13 69.88 451.29 72.76 455.25C74.74 457.95 75.82 461.19 75.82 464.79L75.82 476.31C76 480.99 77.26 485.67 79.6 489.63C76.72 490.71 73.84 491.25 70.78 491.25C66.64 491.25 62.5 490.17 58.72 488.37C55.12 486.57 52.06 483.87 49.54 480.63C46.12 475.95 44.32 470.55 44.32 464.79C44.32 464.61 44.32 464.43 44.32 464.43C44.32 461.01 45.4 457.95 47.38 455.25C50.44 451.29 54.76 449.13 59.62 448.95L60.52 448.95ZM129.46 308.54L70.7799 308.54C66.4599 308.54 62.3199 309.62 58.5399 311.6C54.7599 313.4 51.5199 316.1 49.1799 319.52C45.5799 324.02 43.7799 329.6 43.7799 335.36L43.7799 335.9C43.7799 344.72 46.4799 353.18 51.8799 360.38C53.5 362.54 55.2999 364.52 57.28 366.32C54.2199 368.12 51.34 370.64 49.1799 373.52C45.58 378.2 43.7799 383.78 43.7799 389.54C43.7799 389.54 43.7799 389.72 43.7799 389.9C43.7799 395.48 45.3999 401.06 48.8199 405.56L43.7799 405.56L43.7799 420.86L44.32 420.86L44.32 416.9L129.46 416.9L129.46 420.86L130 420.86L130 401.6L129.46 401.6L129.46 405.56L49.5399 405.56C46.12 401.06 44.32 395.66 44.32 389.9C44.32 389.72 44.32 389.54 44.32 389.54C44.32 386.12 45.3999 383.06 47.3799 380.36C50.4399 376.58 54.76 374.24 59.6199 374.06C59.8 374.06 71.1399 374.06 71.1399 374.06L71.1399 362.72L70.7799 362.72C66.46 362.72 62.3199 363.8 58.54 365.6C58.3599 365.78 58.1799 365.96 57.8199 365.96C55.8399 364.16 54.0399 362.18 52.24 360.02C47.0199 353 44.32 344.72 44.3199 335.9C44.3199 335.72 44.3199 335.36 44.3199 335.36C44.3199 332.12 45.3999 328.88 47.3799 326.18C50.4399 322.4 54.7599 320.06 59.6199 319.88L60.5199 319.88C65.3799 320.06 69.8799 322.4 72.7599 326.18C74.7399 329.06 75.8199 332.3 75.8199 335.72L75.8199 347.24C76 353.18 77.7999 358.58 81.2199 363.26C83.74 366.5 86.98 369.2 90.58 371.18C94.54 373.16 98.68 374.06 103 374.06C107.32 374.06 111.46 373.16 115.24 371.18C119.02 369.2 122.26 366.5 124.6 363.26C128.2 358.58 130 353.18 130 347.24C130 347.24 130 347.06 130 346.88C130 340.94 128.2 335.18 124.6 330.32C122.08 327.08 118.84 324.2 115.06 322.4C112.9 321.32 110.56 320.42 108.22 319.88L124.96 319.88L130 319.88L130 304.58L129.46 304.58L129.46 308.54ZM102.46 319.88C106.78 319.88 110.92 320.96 114.7 322.94C118.48 324.74 121.54 327.44 124.06 330.68C127.66 335.36 129.46 341.12 129.46 346.88C129.46 347.06 129.46 347.24 129.46 347.24C129.46 350.66 128.38 353.72 126.4 356.42C123.34 360.38 119.02 362.54 114.16 362.72C113.98 362.72 92.02 362.72 91.84 362.72C86.98 362.54 82.48 360.38 79.6 356.42C77.62 353.72 76.5399 350.66 76.5399 347.24L76.5399 335.72C76.5399 332.12 75.2799 328.7 73.1199 325.82C70.9599 322.94 67.8999 320.96 64.4799 319.88L102.46 319.88ZM129.46 205.792L0.579938 205.792L7.59995 221.092L8.13994 220.912L6.33994 216.952L69.8799 216.952C63.5799 218.212 57.8199 221.272 53.1399 225.952C47.0199 232.072 43.7799 240.172 43.7799 248.992C43.7799 248.992 43.7799 249.172 43.7799 249.352C43.7799 255.472 45.0399 261.592 47.7399 267.172C50.2599 272.572 53.8599 277.252 58.3599 281.212C66.2799 288.232 76.3599 292.012 86.9799 292.012C97.4199 292.012 107.5 288.232 115.42 281.212C119.92 277.252 123.52 272.572 126.04 267.172C128.74 261.592 130 255.472 130 249.352L130.18 248.992C130.18 240.172 126.76 232.072 120.64 225.952C115.96 221.272 110.2 218.212 103.9 216.952L130.18 216.952L130.18 201.652L129.46 201.652L129.46 205.792ZM97.9599 216.952C115.42 217.132 129.46 231.532 129.46 248.812L129.46 249.352C129.46 257.632 126.04 265.552 120.1 271.492C114.34 277.252 106.42 280.672 98.1399 280.852L75.6399 280.852C67.3599 280.672 59.4399 277.252 53.6799 271.492C47.7399 265.552 44.4999 257.632 44.3199 249.352C44.3199 249.172 44.3199 248.992 44.3199 248.992C44.3199 231.532 58.3599 217.132 75.8199 216.952L97.9599 216.952ZM129.46 170.829L43.5999 170.829L50.4399 186.129L50.9799 185.949L49.3599 182.169L129.46 182.169L129.46 186.129L130 186.129L130 166.869L129.46 166.869L129.46 170.829ZM28.2999 176.409C28.2999 173.349 25.5999 170.829 22.5399 170.829C19.4799 170.829 16.9599 173.349 16.9599 176.409C16.9599 179.649 19.4799 182.169 22.5399 182.169C25.5999 182.169 28.2999 179.649 28.2999 176.409ZM97.7799 97.7475C93.8199 98.4675 90.2199 100.267 86.7999 102.607C85.8999 103.507 84.8199 104.227 83.9199 105.127C81.0399 108.187 78.3399 113.047 76.3599 117.187L71.1399 128.167C66.6399 137.527 61.7799 146.167 56.7399 147.067C54.9399 147.427 53.3199 146.707 51.6999 145.087C51.6999 145.087 51.5199 145.087 51.5199 144.907C47.1999 140.587 44.4999 134.287 44.3199 127.447C43.9599 120.787 45.9399 114.127 49.5399 109.087C49.7199 108.727 49.8999 108.547 50.0799 108.187C50.7999 107.287 51.5199 106.387 52.4199 105.667C57.0999 100.807 63.5799 98.1075 70.2399 97.9275L70.2399 97.2075L43.9599 97.2075L43.9599 97.9275C47.7399 97.9275 50.6199 100.807 50.6199 104.587C50.6199 105.667 50.2599 106.927 49.5399 107.827C49.3599 108.187 49.1799 108.367 48.9999 108.727C45.3999 113.767 43.4199 120.607 43.7799 127.447C43.9599 134.467 46.6599 140.947 51.1599 145.447C51.1599 145.447 51.1599 145.447 51.3399 145.627C53.6799 147.967 56.0199 149.407 58.8999 150.487C61.9599 151.567 65.1999 151.747 68.0799 150.847C71.4999 149.947 74.0199 147.787 75.6399 144.727C75.6399 144.727 92.1999 110.347 92.3799 109.807C93.2799 108.367 94.3599 106.927 95.6199 105.667C99.0399 102.247 103.54 100.267 108.4 100.267C113.26 100.087 117.94 101.887 121.36 105.307C121.36 105.307 121.72 105.487 121.72 105.667C126.22 110.167 128.92 116.107 129.46 122.587C129.82 128.887 128.02 135.007 124.24 140.047C124.06 140.407 123.88 140.767 123.7 140.947C123.16 141.667 122.44 142.387 121.72 143.107C116.68 148.147 110.2 150.847 103.18 150.847L103.18 151.387L129.82 151.387L129.82 150.847C126.22 150.847 123.16 148.147 123.16 144.547C123.16 143.467 123.52 142.387 124.24 141.307C124.42 141.127 124.6 140.767 124.78 140.587L124.78 140.407C128.2 135.727 130 130.147 130 124.387C130 123.667 130 123.127 130 122.407C129.64 115.927 126.76 109.807 122.26 105.127C122.08 105.127 121.9 104.947 121.72 104.767C115.42 98.6475 106.42 95.9475 97.7799 97.7475ZM75.9999 0.354834L75.6399 0.534832C69.1599 2.15484 63.2199 5.39483 58.3599 9.71484C53.8599 13.6748 50.2599 18.5348 47.7399 23.9348C45.2199 29.3348 43.7799 35.2748 43.7799 41.3948L43.7799 41.7548C43.7799 47.8748 45.0399 53.9948 47.7399 59.5748C50.2599 64.9748 53.8599 69.6548 58.3599 73.6148C66.2799 80.6348 76.3599 84.4148 86.9799 84.4148C97.4199 84.4148 107.5 80.6348 115.42 73.6148C119.92 69.6548 123.52 64.9748 126.04 59.5748C128.74 53.9948 130 47.8748 130 41.7548L130 41.3948C130 35.2748 128.56 29.3348 126.04 23.9348C123.52 18.5348 119.92 13.6748 115.42 9.71484C113.08 7.73483 110.38 5.75483 107.68 4.31484C100.84 0.534831 92.7399 0.714839 86.0799 4.49483C80.8599 7.55484 77.2599 12.4148 75.9999 17.9948L75.9999 0.354834ZM86.4399 5.03484C92.9199 1.25484 100.84 1.25484 107.32 4.85483C110.2 6.29484 112.72 8.09483 115.06 10.2548C119.56 14.2148 122.98 18.8948 125.5 24.1148C128.02 29.6948 129.46 35.6348 129.46 41.7548C129.28 50.0348 126.04 57.9548 120.1 63.8948C114.34 69.6548 106.42 73.0748 98.1399 73.2548L75.9999 73.2548L75.9999 22.3148C76.1799 15.1148 80.1399 8.63483 86.4399 5.03484ZM75.2799 73.2548C67.1799 72.8948 59.4399 69.6548 53.6799 63.8948C47.7399 57.9548 44.3199 50.0348 44.3199 41.7548C44.4999 33.4748 47.7399 25.5548 53.6799 19.6148C59.4399 13.8548 67.1799 10.4348 75.2799 10.2548L75.2799 73.2548Z" fill="black"/>
</svg>
