<svg width="138" height="138" viewBox="0 0 138 138" fill="none" xmlns="http://www.w3.org/2000/svg">
<g filter="url(#filter0_d)">
<circle cx="69" cy="65" r="59" fill="white"/>
</g>
<path d="M27.75 76H28.675V68H32.225C36.3 68 38.625 66.3 38.625 62.8C38.625 59.175 36.25 57.85 32.125 57.85H27.75V76ZM28.675 67.175V58.675H31.8C35.725 58.675 37.625 59.625 37.625 62.8C37.625 65.925 35.775 67.175 31.9 67.175H28.675ZM44.0242 76.325C45.7742 76.325 47.4242 75.35 48.7742 74.25H48.8492L48.9742 76H49.7242V67.475C49.7242 64.8 48.7742 62.5 45.6742 62.5C43.5242 62.5 41.6992 63.6 40.8742 64.2L41.3242 64.925C42.1742 64.25 43.7492 63.325 45.6242 63.325C48.3492 63.325 48.8992 65.65 48.8242 67.775C42.8992 68.45 40.2242 69.825 40.2242 72.75C40.2242 75.25 41.9742 76.325 44.0242 76.325ZM44.0992 75.5C42.4992 75.5 41.1492 74.75 41.1492 72.725C41.1492 70.5 43.0992 69.175 48.8242 68.55V73.275C47.0992 74.75 45.6742 75.5 44.0992 75.5ZM57.7025 76.325C60.4775 76.325 62.0025 74.625 62.0025 72.675C62.0025 70.1 59.7275 69.45 57.6275 68.65C56.0525 68.05 54.5525 67.45 54.5525 65.875C54.5525 64.575 55.5525 63.325 57.7275 63.325C59.1025 63.325 60.0275 63.875 60.9025 64.525L61.4275 63.85C60.5025 63.05 59.1025 62.5 57.7775 62.5C55.0525 62.5 53.6275 64.1 53.6275 65.925C53.6275 68.2 55.7775 68.95 57.7775 69.675C59.3275 70.225 61.0775 71 61.0775 72.725C61.0775 74.225 59.9525 75.5 57.7525 75.5C55.8025 75.5 54.5775 74.75 53.4775 73.8L52.9025 74.525C54.0775 75.5 55.7275 76.325 57.7025 76.325ZM68.7377 76.325C71.5127 76.325 73.0377 74.625 73.0377 72.675C73.0377 70.1 70.7627 69.45 68.6627 68.65C67.0877 68.05 65.5877 67.45 65.5877 65.875C65.5877 64.575 66.5877 63.325 68.7627 63.325C70.1377 63.325 71.0627 63.875 71.9377 64.525L72.4627 63.85C71.5377 63.05 70.1377 62.5 68.8127 62.5C66.0877 62.5 64.6627 64.1 64.6627 65.925C64.6627 68.2 66.8127 68.95 68.8127 69.675C70.3627 70.225 72.1127 71 72.1127 72.725C72.1127 74.225 70.9877 75.5 68.7877 75.5C66.8377 75.5 65.6127 74.75 64.5127 73.8L63.9377 74.525C65.1127 75.5 66.7627 76.325 68.7377 76.325ZM76.6729 76H77.5729V62.825H76.6729V76ZM77.1479 59.5C77.6479 59.5 78.0479 59.125 78.0479 58.475C78.0479 57.925 77.6479 57.525 77.1479 57.525C76.6229 57.525 76.2479 57.925 76.2479 58.475C76.2479 59.125 76.6229 59.5 77.1479 59.5ZM87.5008 76.325C90.6508 76.325 93.3508 73.8 93.3508 69.45C93.3508 65.025 90.6508 62.5 87.5008 62.5C84.3508 62.5 81.6508 65.025 81.6508 69.45C81.6508 73.8 84.3508 76.325 87.5008 76.325ZM87.5008 75.5C84.7008 75.5 82.6008 73.05 82.6008 69.45C82.6008 65.825 84.7008 63.325 87.5008 63.325C90.3008 63.325 92.4258 65.825 92.4258 69.45C92.4258 73.05 90.3008 75.5 87.5008 75.5ZM97.4492 76H98.3492V65.925C100.024 64.2 101.224 63.325 102.849 63.325C105.099 63.325 106.024 64.75 106.024 67.65V76H106.924V67.525C106.924 64.125 105.649 62.5 102.949 62.5C101.124 62.5 99.7492 63.55 98.3992 64.925H98.3492L98.1992 62.825H97.4492V76Z" fill="black"/>
<defs>
<filter id="filter0_d" x="0" y="0" width="138" height="138" filterUnits="userSpaceOnUse" color-interpolation-filters="sRGB">
<feFlood flood-opacity="0" result="BackgroundImageFix"/>
<feColorMatrix in="SourceAlpha" type="matrix" values="0 0 0 0 0 0 0 0 0 0 0 0 0 0 0 0 0 0 127 0"/>
<feOffset dy="4"/>
<feGaussianBlur stdDeviation="5"/>
<feColorMatrix type="matrix" values="0 0 0 0 0 0 0 0 0 0 0 0 0 0 0 0 0 0 0.1 0"/>
<feBlend mode="normal" in2="BackgroundImageFix" result="effect1_dropShadow"/>
<feBlend mode="normal" in="SourceGraphic" in2="effect1_dropShadow" result="shape"/>
</filter>
</defs>
</svg>
