<svg width="138" height="138" viewBox="0 0 138 138" fill="none" xmlns="http://www.w3.org/2000/svg">
<g filter="url(#filter0_d)">
<circle cx="69" cy="65" r="59" fill="white"/>
</g>
<path d="M41.75 73H42.675V65H46.225C50.3 65 52.625 63.3 52.625 59.8C52.625 56.175 50.25 54.85 46.125 54.85H41.75V73ZM42.675 64.175V55.675H45.8C49.725 55.675 51.625 56.625 51.625 59.8C51.625 62.925 49.775 64.175 45.9 64.175H42.675ZM56.5664 73H57.4664V63.9C58.4914 61.3 59.9414 60.375 61.1164 60.375C61.6414 60.375 61.8664 60.425 62.2914 60.6L62.5164 59.775C62.0664 59.55 61.6914 59.5 61.2414 59.5C59.6664 59.5 58.3914 60.7 57.5164 62.3H57.4664L57.3164 59.825H56.5664V73ZM65.0381 73H65.9381V59.825H65.0381V73ZM65.5131 56.5C66.0131 56.5 66.4131 56.125 66.4131 55.475C66.4131 54.925 66.0131 54.525 65.5131 54.525C64.9881 54.525 64.6131 54.925 64.6131 55.475C64.6131 56.125 64.9881 56.5 65.5131 56.5ZM75.466 73.325C77.291 73.325 78.766 72.35 79.866 71.25H79.916L80.041 73H80.791V53.15H79.891V58.675L79.966 61.15C78.616 60.1 77.516 59.5 75.916 59.5C72.716 59.5 70.016 62.2 70.016 66.45C70.016 70.9 72.166 73.325 75.466 73.325ZM75.541 72.5C72.616 72.5 70.966 70.05 70.966 66.45C70.966 63.05 73.091 60.325 75.866 60.325C77.241 60.325 78.441 60.825 79.891 62.125V70.225C78.441 71.675 77.066 72.5 75.541 72.5ZM90.9092 73.325C92.8592 73.325 93.9842 72.675 94.9842 72.075L94.5842 71.3C93.5842 72.025 92.4592 72.5 90.9592 72.5C87.8592 72.5 85.8342 69.95 85.8342 66.475H95.4842C95.5342 66.125 95.5342 65.85 95.5342 65.575C95.5342 61.675 93.6092 59.5 90.5592 59.5C87.6342 59.5 84.8842 62.15 84.8842 66.45C84.8842 70.75 87.5842 73.325 90.9092 73.325ZM85.8342 65.65C86.1092 62.325 88.2092 60.325 90.5592 60.325C93.0342 60.325 94.6592 62.075 94.6592 65.65H85.8342Z" fill="black"/>
<defs>
<filter id="filter0_d" x="0" y="0" width="138" height="138" filterUnits="userSpaceOnUse" color-interpolation-filters="sRGB">
<feFlood flood-opacity="0" result="BackgroundImageFix"/>
<feColorMatrix in="SourceAlpha" type="matrix" values="0 0 0 0 0 0 0 0 0 0 0 0 0 0 0 0 0 0 127 0"/>
<feOffset dy="4"/>
<feGaussianBlur stdDeviation="5"/>
<feColorMatrix type="matrix" values="0 0 0 0 0 0 0 0 0 0 0 0 0 0 0 0 0 0 0.1 0"/>
<feBlend mode="normal" in2="BackgroundImageFix" result="effect1_dropShadow"/>
<feBlend mode="normal" in="SourceGraphic" in2="effect1_dropShadow" result="shape"/>
</filter>
</defs>
</svg>
