<svg width="25" height="255" viewBox="0 0 25 255" fill="none" xmlns="http://www.w3.org/2000/svg">
<path d="M7.462 254.299L7.462 253.903C4.558 253.573 3.48 252.539 3.48 250.427L3.48 248.425L18.242 248.425L18.242 250.405L18.682 250.405L18.682 244.883L18.242 244.883L18.242 246.863L3.48 246.863L3.48 244.883C3.48 242.749 4.558 241.715 7.462 241.385L7.462 240.989L3.04 240.989L3.04 254.299L7.462 254.299ZM12.324 230.12C9.882 230.12 9.024 231.792 9.024 233.354C9.024 235.158 9.882 236.39 10.872 236.984L2.798 236.984L2.798 239.91L3.238 239.91L3.238 238.436L18.242 238.436L18.242 239.91L18.682 239.91L18.682 235.598L18.242 235.598L18.242 236.984L12.698 236.984C10.74 236.984 9.574 235.224 9.574 233.816C9.574 232.474 10.322 231.572 11.928 231.572L18.242 231.572L18.242 232.958L18.682 232.958L18.682 228.646L18.242 228.646L18.242 230.12L12.324 230.12ZM18.528 222.532C18.528 224.886 16.702 225.92 14.018 225.92L13.534 225.92L13.534 218.594C10.41 218.594 8.98 220.552 8.98 222.774C8.98 225.15 10.828 227.504 14.018 227.504C17.186 227.504 19.012 225.26 19.012 222.862C19.012 220.684 18.154 219.386 16.372 218.682L16.152 219.122C17.582 219.628 18.528 220.816 18.528 222.532ZM9.464 222.884C9.464 220.97 10.608 220.156 12.852 220.156L13.072 220.156L13.072 225.876C10.938 225.678 9.464 224.732 9.464 222.884ZM10.52 203.538C10.168 201.624 8.958 200.282 6.912 200.282C4.096 200.282 3.04 202.856 3.04 206.376L3.04 211.546L3.48 211.546L3.48 209.632L18.242 209.632L18.242 211.546L18.682 211.546L18.682 206.09C18.682 202.284 17.56 199.336 14.414 199.336C12.104 199.336 10.938 201.118 10.586 203.538L10.52 203.538ZM3.48 206.552C3.48 202.988 4.734 201.888 6.912 201.888C9.09 201.888 10.344 202.746 10.344 205.804L10.344 208.07L3.48 208.07L3.48 206.552ZM18.242 206.244L18.242 208.07L10.784 208.07L10.784 205.738C10.784 202.24 12.06 201.03 14.414 201.03C17.01 201.03 18.242 202.35 18.242 206.244ZM3.238 195.841L18.242 195.841L18.242 197.315L18.682 197.315L18.682 192.893L18.242 192.893L18.242 194.367L2.798 194.367L2.798 197.315L3.238 197.315L3.238 195.841ZM5.13 190.159C5.68 190.159 6.164 189.675 6.164 189.103C6.164 188.553 5.68 188.047 5.13 188.047C4.558 188.047 4.052 188.553 4.052 189.103C4.052 189.675 4.558 190.159 5.13 190.159ZM9.816 189.697L18.242 189.697L18.242 191.171L18.682 191.171L18.682 186.749L18.242 186.749L18.242 188.223L9.376 188.223L9.376 191.171L9.816 191.171L9.816 189.697ZM11.598 184.809C9.904 184.809 9.046 183.335 9.046 181.839C9.046 181.113 9.2 180.475 9.508 179.837C9.904 179.001 9.376 178.781 9.046 178.671L9.046 178.275L12.17 178.275L12.17 178.671C10.762 178.847 9.53 180.277 9.53 181.817C9.53 182.983 10.234 183.819 11.048 183.819C12.126 183.819 12.5 183.005 12.94 181.751L13.556 180.035C14.018 178.715 14.81 177.681 16.394 177.681C18.132 177.681 19.012 179.221 19.012 180.937C19.012 181.905 18.66 182.697 18.308 183.401C17.868 184.281 18.572 184.435 18.88 184.545L18.88 184.941L15.25 184.941L15.25 184.545C16.944 184.303 18.528 182.939 18.528 181.003C18.528 179.573 17.824 178.671 16.68 178.671C15.536 178.671 15.25 179.485 14.744 180.805L14.084 182.543C13.644 183.709 12.94 184.809 11.598 184.809ZM11.598 175.313C9.90399 175.313 9.046 173.839 9.046 172.343C9.046 171.617 9.2 170.979 9.508 170.341C9.90399 169.505 9.37599 169.285 9.046 169.175L9.046 168.779L12.17 168.779L12.17 169.175C10.762 169.351 9.52999 170.781 9.52999 172.321C9.52999 173.487 10.234 174.323 11.048 174.323C12.126 174.323 12.5 173.509 12.94 172.255L13.556 170.539C14.018 169.219 14.81 168.185 16.394 168.185C18.132 168.185 19.012 169.725 19.012 171.441C19.012 172.409 18.66 173.201 18.308 173.905C17.868 174.785 18.572 174.939 18.88 175.049L18.88 175.445L15.25 175.445L15.25 175.049C16.944 174.807 18.528 173.443 18.528 171.507C18.528 170.077 17.824 169.175 16.68 169.175C15.536 169.175 15.25 169.989 14.744 171.309L14.084 173.047C13.644 174.213 12.94 175.313 11.598 175.313ZM2.64399 161.546C2.66599 163.328 4.00799 164.956 7.57199 164.956L9.37599 164.956L9.37599 166.452L9.81599 166.452L9.81599 164.956L18.242 164.956L18.242 166.452L18.682 166.452L18.682 161.7L18.242 161.7L18.242 163.482L9.81599 163.482L9.81599 160.644L9.37599 160.644L9.37599 163.482L5.67999 163.482C3.52399 163.482 3.08399 162.14 3.08399 161.568C3.08399 160.974 3.10599 160.82 3.36999 160.688L5.70199 159.412C5.87799 159.192 5.89999 159.038 5.87799 158.818L3.30399 158.818C2.84199 159.434 2.62199 160.314 2.64399 161.546ZM9.37599 149.921L9.37599 152.759L9.81599 152.759L9.81599 151.373L15.36 151.373C17.318 151.373 18.484 153.133 18.484 154.541C18.484 155.883 17.736 156.785 16.13 156.785L9.37599 156.785L9.37599 159.711L9.81599 159.711L9.81599 158.237L15.734 158.237C18.176 158.237 19.034 156.565 19.034 155.003C19.034 153.111 18.088 151.857 17.032 151.307L18.682 151.307L18.682 148.447L18.242 148.447L18.242 149.921L9.37599 149.921ZM3.23799 146.019L18.242 146.019L18.242 147.493L18.682 147.493L18.682 143.071L18.242 143.071L18.242 144.545L2.79799 144.545L2.79799 147.493L3.23799 147.493L3.23799 146.019ZM2.81999 128.55L2.81999 129.166L18.242 134.622L18.242 136.426L18.682 136.426L18.682 132.092L18.242 132.092L18.242 134.072L12.94 132.202L12.94 126.394L18.242 124.458L18.242 126.768L18.682 126.768L18.682 120.982L18.242 120.982L18.242 122.786L2.81999 128.55ZM4.84399 129.342L12.5 126.548L12.5 132.048L4.84399 129.342ZM12.302 111.269C9.88199 111.269 9.02399 112.941 9.02399 114.503C9.02399 116.395 9.94799 117.671 10.982 118.221L9.37599 118.221L9.37599 121.059L9.81599 121.059L9.81599 119.585L18.242 119.585L18.242 121.059L18.682 121.059L18.682 116.747L18.242 116.747L18.242 118.133L12.654 118.133C10.718 118.133 9.57399 116.373 9.57399 114.965C9.57399 113.623 10.322 112.721 11.906 112.721L18.242 112.721L18.242 114.107L18.682 114.107L18.682 109.795L18.242 109.795L18.242 111.269L12.302 111.269ZM9.74999 101.745C9.24399 102.471 9.00199 103.417 9.00199 104.319C9.00199 106.167 10.124 108.257 12.456 108.257C14.128 108.257 15.206 107.201 15.69 105.925C15.866 107.047 16.526 108.367 17.714 108.367C18.77 108.367 19.386 107.575 19.584 106.651C19.892 107.641 20.816 108.917 21.938 108.917C23.808 108.917 24.886 106.981 24.886 104.495C24.886 101.019 23.346 99.0169 20.75 99.0169C19.21 99.0169 18.352 100.007 18.286 102.229C18.264 102.955 18.286 105.133 18.286 106.079C18.286 107.267 17.868 107.597 17.23 107.575C16.592 107.553 15.976 106.563 15.976 105.045L15.976 104.165C15.91 102.339 14.744 100.381 12.456 100.381C11.444 100.381 10.696 100.733 10.146 101.283C10.454 100.117 10.806 98.6429 10.806 98.1809L9.66199 98.1809L9.74999 101.745ZM15.58 104.319C15.58 105.969 14.436 106.871 12.456 106.871C10.454 106.871 9.39799 105.969 9.39799 104.319C9.39799 102.669 10.454 101.767 12.456 101.767C14.436 101.767 15.58 102.669 15.58 104.319ZM19.65 102.119C19.65 100.447 20.09 99.6769 21.3 99.6989C23.324 99.7429 24.38 101.635 24.38 104.143C24.38 106.387 23.478 107.751 21.784 107.751C20.97 107.751 20.002 107.069 19.65 106.101C19.65 106.057 19.65 106.013 19.65 105.969L19.65 102.119ZM18.528 91.843C18.528 94.197 16.702 95.231 14.018 95.231L13.534 95.231L13.534 87.905C10.41 87.905 8.97999 89.863 8.97999 92.085C8.97999 94.461 10.828 96.815 14.018 96.815C17.186 96.815 19.012 94.571 19.012 92.173C19.012 89.995 18.154 88.697 16.372 87.993L16.152 88.433C17.582 88.939 18.528 90.127 18.528 91.843ZM9.46399 92.195C9.46399 90.281 10.608 89.467 12.852 89.467L13.072 89.467L13.072 95.187C10.938 94.989 9.46399 94.043 9.46399 92.195ZM3.23799 84.7671L18.242 84.7671L18.242 86.2411L18.682 86.2411L18.682 81.8191L18.242 81.8191L18.242 83.2931L2.79799 83.2931L2.79799 86.2411L3.23799 86.2411L3.23799 84.7671ZM2.59999 77.2525C2.64399 77.3405 2.66599 77.4945 2.66599 77.6265C2.66599 78.1765 2.18199 78.6385 1.56599 78.6385C0.94999 78.6385 0.46599 78.1545 0.46599 77.5165C0.46599 76.8345 0.97199 76.3505 1.82999 76.3505C3.21599 76.3505 4.93199 77.3405 5.81199 78.7045L5.54799 78.9245C4.77799 77.8465 3.47999 77.2965 2.57799 77.2305L2.59999 77.2525ZM11.598 75.6037C9.90399 75.6037 9.04599 74.1297 9.04599 72.6337C9.04599 71.9077 9.19999 71.2697 9.50799 70.6317C9.90399 69.7957 9.37599 69.5757 9.04599 69.4657L9.04599 69.0697L12.17 69.0697L12.17 69.4657C10.762 69.6417 9.52999 71.0717 9.52999 72.6117C9.52999 73.7777 10.234 74.6137 11.048 74.6137C12.126 74.6137 12.5 73.7997 12.94 72.5457L13.556 70.8297C14.018 69.5097 14.81 68.4757 16.394 68.4757C18.132 68.4757 19.012 70.0157 19.012 71.7317C19.012 72.6997 18.66 73.4917 18.308 74.1957C17.868 75.0757 18.572 75.2297 18.88 75.3397L18.88 75.7357L15.25 75.7357L15.25 75.3397C16.944 75.0977 18.528 73.7337 18.528 71.7977C18.528 70.3677 17.824 69.4657 16.68 69.4657C15.536 69.4657 15.25 70.2797 14.744 71.5997L14.084 73.3377C13.644 74.5037 12.94 75.6037 11.598 75.6037ZM10.85 60.583C16.064 60.583 19.012 56.843 19.012 53.235C19.012 52.333 18.792 51.233 18.418 50.331C17.912 49.121 18.33 48.813 18.924 48.615L18.924 48.175L13.71 48.175L13.71 48.527C16.944 49.055 18.528 50.683 18.528 53.279C18.528 56.821 15.404 58.779 10.85 58.779C6.31799 58.779 3.17199 56.821 3.17199 53.235C3.17199 51.189 4.53599 49.209 7.37399 48.879L7.37399 48.483L2.51199 48.483L2.51199 48.923C3.03999 49.121 3.72199 49.495 3.23799 50.661C2.86399 51.585 2.68799 52.487 2.68799 53.279C2.68799 56.843 5.63599 60.583 10.85 60.583ZM14.018 45.8326C17.186 45.8326 19.012 43.2806 19.012 40.9046C19.012 38.5286 17.186 35.9546 14.018 35.9546C10.872 35.9546 9.04599 38.5286 9.04599 40.9046C9.04599 43.2806 10.872 45.8326 14.018 45.8326ZM14.018 44.2486C11.356 44.2486 9.52999 43.1266 9.52999 40.9046C9.52999 38.7046 11.356 37.5386 14.018 37.5386C16.702 37.5386 18.528 38.7046 18.528 40.9046C18.528 43.1266 16.702 44.2486 14.018 44.2486ZM2.64399 22.9144C2.70999 24.5644 4.00799 25.9944 7.57199 25.9944L9.33199 25.9944L9.33199 31.2084L5.67999 31.2084C3.52399 31.2084 3.08399 30.1084 3.08399 29.6684C3.08399 29.4484 3.10599 29.4484 3.36999 29.2944L5.59199 28.0404C5.76799 27.8204 5.78999 27.6664 5.76799 27.4464L3.23799 27.4464C2.77599 28.0624 2.59999 28.8104 2.64399 29.6904C2.73199 31.2744 4.00799 32.6604 7.57199 32.6604L9.33199 32.6604L9.33199 34.1564L9.77199 34.1564L9.77199 32.6604L18.242 32.6604L18.242 34.1564L18.682 34.1564L18.682 29.4484L18.242 29.4484L18.242 31.2084L9.77199 31.2084L9.77199 25.9944L18.242 25.9944L18.242 27.4904L18.682 27.4904L18.682 22.7604L18.242 22.7604L18.242 24.5424L9.77199 24.5424L9.77199 21.9464L9.33199 21.9464L9.33199 24.5424L5.67999 24.5424C3.52399 24.5424 3.12799 23.4424 3.08399 22.8924C3.06199 22.5624 3.10599 22.5624 3.36999 22.4084L5.59199 21.1544C5.76799 20.9344 5.78999 20.7804 5.76799 20.5604L3.23799 20.5604C2.77599 21.1764 2.59999 21.9244 2.64399 22.9144ZM18.528 15.552C18.528 17.906 16.702 18.94 14.018 18.94L13.534 18.94L13.534 11.614C10.41 11.614 8.97999 13.572 8.97999 15.794C8.97999 18.17 10.828 20.524 14.018 20.524C17.186 20.524 19.012 18.28 19.012 15.882C19.012 13.704 18.154 12.406 16.372 11.702L16.152 12.142C17.582 12.648 18.528 13.836 18.528 15.552ZM9.46399 15.904C9.46399 13.99 10.608 13.176 12.852 13.176L13.072 13.176L13.072 18.896C10.938 18.698 9.46399 17.752 9.46399 15.904ZM18.528 4.68087C18.528 7.03487 16.702 8.06887 14.018 8.06887L13.534 8.06887L13.534 0.742874C10.41 0.742874 8.97999 2.70087 8.97999 4.92287C8.97999 7.29887 10.828 9.65287 14.018 9.65287C17.186 9.65287 19.012 7.40887 19.012 5.01087C19.012 2.83287 18.154 1.53487 16.372 0.830874L16.152 1.27087C17.582 1.77687 18.528 2.96487 18.528 4.68087ZM9.46399 5.03287C9.46399 3.11887 10.608 2.30487 12.852 2.30487L13.072 2.30487L13.072 8.02487C10.938 7.82687 9.46399 6.88087 9.46399 5.03287Z" fill="black"/>
</svg>
