<svg width="161" height="44" viewBox="0 0 161 44" fill="none" xmlns="http://www.w3.org/2000/svg">
<path d="M159.461 27.5055L159.401 27.4505L154.548 23L154.128 23.3846L158.562 27.4505H131V28H159.161H159.461H160L159.461 27.5055Z" fill="black"/>
<path d="M6.318 36H8.034L14.196 17.046H12.61L9.23 27.94C8.502 30.228 8.008 31.996 7.228 34.284H7.124C6.37 31.996 5.876 30.228 5.174 27.94L1.768 17.046H0.104L6.318 36ZM16.8949 36H18.4029V22.142H16.8949V36ZM17.6749 18.892C18.3509 18.892 18.8709 18.398 18.8709 17.618C18.8709 16.89 18.3509 16.422 17.6749 16.422C16.9729 16.422 16.4529 16.89 16.4529 17.618C16.4529 18.398 16.9729 18.892 17.6749 18.892ZM28.8767 36.338C30.8787 36.338 32.1787 35.688 33.2967 34.986L32.7247 33.868C31.6847 34.596 30.5147 35.064 29.0327 35.064C26.0427 35.064 24.0407 32.698 23.9627 29.318H33.7907C33.8427 28.98 33.8687 28.616 33.8687 28.226C33.8687 24.17 31.8667 21.778 28.5127 21.778C25.3927 21.778 22.4287 24.586 22.4287 29.084C22.4287 33.634 25.3147 36.338 28.8767 36.338ZM23.9627 28.122C24.2487 24.95 26.2767 23.078 28.5387 23.078C30.9567 23.078 32.4907 24.768 32.4907 28.122H23.9627ZM39.9742 36H41.7942L44.0562 27.706C44.4982 26.354 44.8102 25.054 45.1222 23.676H45.2522C45.6422 25.054 45.9022 26.328 46.2922 27.654L48.6322 36H50.5822L54.4822 22.142H53.0002L50.6342 30.878C50.2962 32.204 49.9842 33.4 49.6722 34.648H49.5682C49.2042 33.4 48.8922 32.204 48.5542 30.878L46.0842 22.142H44.4202L41.9502 30.878C41.6122 32.178 41.3002 33.4 40.9622 34.648H40.8322C40.5722 33.4 40.2602 32.204 39.9482 30.878L37.5302 22.142H35.9182L39.9742 36ZM63.6681 36H65.0981V23.988C65.0981 22.428 64.9941 20.348 64.9161 18.762H65.0201L66.5021 23L70.5061 33.972H71.7541L75.7321 23L77.2141 18.762H77.3181C77.2401 20.348 77.1361 22.428 77.1361 23.988V36H78.6181V17.046H76.5381L72.6381 27.94C72.1701 29.318 71.7281 30.722 71.2341 32.1H71.1301C70.6361 30.722 70.1421 29.318 69.6481 27.94L65.7481 17.046H63.6681V36ZM89.099 36.338C92.453 36.338 95.365 33.686 95.365 29.084C95.365 24.456 92.453 21.778 89.099 21.778C85.745 21.778 82.833 24.456 82.833 29.084C82.833 33.686 85.745 36.338 89.099 36.338ZM89.099 35.038C86.395 35.038 84.419 32.62 84.419 29.084C84.419 25.548 86.395 23.104 89.099 23.104C91.803 23.104 93.805 25.548 93.805 29.084C93.805 32.62 91.803 35.038 89.099 35.038ZM99.4145 36H100.922V26.692C101.936 24.118 103.418 23.208 104.64 23.208C105.186 23.208 105.446 23.26 105.914 23.442L106.226 22.09C105.784 21.856 105.368 21.778 104.822 21.778C103.21 21.778 101.832 22.974 100.896 24.716H100.844L100.662 22.142H99.4145V36ZM113.783 36.338C115.785 36.338 117.085 35.688 118.203 34.986L117.631 33.868C116.591 34.596 115.421 35.064 113.939 35.064C110.949 35.064 108.947 32.698 108.869 29.318H118.697C118.749 28.98 118.775 28.616 118.775 28.226C118.775 24.17 116.773 21.778 113.419 21.778C110.299 21.778 107.335 24.586 107.335 29.084C107.335 33.634 110.221 36.338 113.783 36.338ZM108.869 28.122C109.155 24.95 111.183 23.078 113.445 23.078C115.863 23.078 117.397 24.768 117.397 28.122H108.869Z" fill="black"/>
<line x1="-1.31134e-07" y1="1.5" x2="161" y2="1.49999" stroke="black" stroke-width="3"/>
</svg>
