<?xml version="1.0" encoding="utf-8"?>
<!-- Generator: Adobe Illustrator 25.0.0, SVG Export Plug-In . SVG Version: 6.00 Build 0)  -->
<svg version="1.1" id="Layer_1" xmlns="http://www.w3.org/2000/svg" xmlns:xlink="http://www.w3.org/1999/xlink" x="0px" y="0px"
	 viewBox="0 0 185 185" style="enable-background:new 0 0 185 185;" xml:space="preserve">
<style type="text/css">
	.st0{fill:#F6F6F6;}
	.st1{fill:#009223;}
	.st2{fill:#FFCE32;}
	.st3{fill:#FFFFFF;}
</style>
<g>
	<circle class="st0" cx="92.5" cy="92.5" r="87.65"/>
	<g>
		<path class="st1" d="M108.67,54.11h-58.7c-3.97,0-7.19,3.22-7.19,7.19v35.73v2.13v19.46L59.31,99.9h49.36
			c3.97,0,7.19-3.22,7.19-7.19v-31.4C115.86,57.33,112.64,54.11,108.67,54.11z"/>
		<path class="st2" d="M142.23,81.3v49.59l-16.55-11H76.34c-3.98,0-7.21-3.23-7.21-7.19v-6.1h57.04V74.11h8.88
			C139,74.11,142.23,77.32,142.23,81.3z"/>
		<rect x="52.21" y="66.01" class="st3" width="54.21" height="3.31"/>
		<rect x="52.21" y="75.7" class="st3" width="42.68" height="3.31"/>
	</g>
</g>
</svg>
