<?xml version="1.0" encoding="utf-8"?>
<!-- Generator: Adobe Illustrator 25.0.0, SVG Export Plug-In . SVG Version: 6.00 Build 0)  -->
<svg version="1.1" id="Layer_1" xmlns="http://www.w3.org/2000/svg" xmlns:xlink="http://www.w3.org/1999/xlink" x="0px" y="0px"
	 viewBox="0 0 185 185" style="enable-background:new 0 0 185 185;" xml:space="preserve">
<style type="text/css">
	.st0{fill:#F6F6F6;}
	.st1{fill:#FFCE32;}
	.st2{fill:#009223;}
	.st3{fill:#FFFFFF;}
	.st4{fill:none;}
</style>
<g>
	<circle class="st0" cx="92.96" cy="92.84" r="87.65"/>
	<path class="st1" d="M48.56,132.58l21.58-2.94l21.09,12.26l23.55-12.26l22.57,3.92l-17.17-26.98c0,0-7.85-11.77-21.09,17.66H85.84
		c0,0-12.75-35.81-25.02-13.74S48.56,132.58,48.56,132.58z"/>
	<path class="st2" d="M120.43,67.33c0-15.17-12.3-27.47-27.47-27.47s-27.47,12.3-27.47,27.47c0,8.1,3.52,15.35,9.1,20.38
		l18.37,26.31l18.37-26.31C116.9,82.69,120.43,75.43,120.43,67.33z"/>
	<circle class="st3" cx="92.96" cy="67.03" r="9.91"/>
	<polygon class="st2" points="113.63,85.37 92.96,114.02 72.28,85.37 	"/>
</g>
<rect id="_x3C_Slice_x3E_" x="5.31" y="5.2" class="st4" width="175.29" height="175.29"/>
</svg>
