<?xml version="1.0" encoding="utf-8"?>
<!-- Generator: Adobe Illustrator 16.0.0, SVG Export Plug-In . SVG Version: 6.00 Build 0)  -->
<!DOCTYPE svg PUBLIC "-//W3C//DTD SVG 1.1//EN" "http://www.w3.org/Graphics/SVG/1.1/DTD/svg11.dtd">
<svg version="1.1" id="Layer_1" xmlns="http://www.w3.org/2000/svg" xmlns:xlink="http://www.w3.org/1999/xlink" x="0px" y="0px"
	 width="180px" height="18px" viewBox="0 0 180 18" enable-background="new 0 0 180 18" xml:space="preserve">
<polygon fill="#222222" points="110.824,14.901 110.824,17.146 100.811,17.146 100.811,0.855 110.824,0.855 110.824,3.099 
	103.257,3.099 103.257,7.789 110.394,7.789 110.394,9.937 103.257,9.937 103.257,14.901 "/>
<polygon fill="#222222" points="134.297,14.842 134.297,17.146 124.524,17.146 124.524,0.855 126.982,0.855 126.982,14.842 "/>
<polygon fill="#222222" points="156.709,14.842 156.709,17.146 146.935,17.146 146.935,0.855 149.393,0.855 149.393,14.842 "/>
<polygon fill="#222222" points="179.36,14.901 179.36,17.146 169.346,17.146 169.346,0.855 179.36,0.855 179.36,3.099 
	171.792,3.099 171.792,7.789 178.93,7.789 178.93,9.937 171.792,9.937 171.792,14.901 "/>
<path fill="#222222" d="M75.596,17.145V0.855h6.337c1.392,0,2.51,0.356,3.353,1.068c0.844,0.712,1.265,1.693,1.265,2.942
	c0,0.963-0.24,1.744-0.721,2.345c-0.482,0.601-1.128,1.013-1.94,1.235v0.119c1.106,0.128,1.977,0.544,2.614,1.248
	c0.636,0.704,0.955,1.621,0.955,2.75c0,1.457-0.523,2.585-1.57,3.385c-1.046,0.8-2.421,1.198-4.123,1.198H75.596z M78.042,2.967
	v4.786h2.375c1.233,0,2.156-0.197,2.769-0.59c0.612-0.394,0.919-1.009,0.919-1.845c0-0.771-0.243-1.356-0.728-1.754
	s-1.122-0.597-1.91-0.597H78.042z M78.042,9.77v5.264h2.686c0.652,0,1.221-0.037,1.706-0.113s0.923-0.207,1.313-0.394
	c0.39-0.188,0.686-0.452,0.889-0.794c0.203-0.343,0.304-0.76,0.304-1.253c0-0.884-0.292-1.556-0.877-2.018
	c-0.584-0.461-1.378-0.692-2.381-0.692H78.042z"/>
<polygon fill="#222222" points="58.962,0.854 58.962,12.646 58.843,12.646 51.012,0.854 48.78,0.854 48.78,17.146 51.167,17.146 
	51.167,5.319 51.275,5.319 59.117,17.146 61.349,17.146 61.349,0.854 "/>
<polygon fill="#222222" points="27.815,0.854 22.134,17.146 24.616,17.146 26.144,12.599 26.74,10.569 29.032,3.636 29.127,3.636 
	31.419,10.569 31.992,12.599 33.519,17.146 36.144,17.146 30.475,0.854 "/>
<polygon fill="#222222" points="0.641,0.854 0.641,17.146 10.415,17.146 10.415,14.843 3.1,14.843 3.1,0.854 "/>
</svg>