<svg width="175" height="45" viewBox="0 0 175 45" fill="none" xmlns="http://www.w3.org/2000/svg">
<path d="M17.391 35L15.675 29.39H7.095L5.379 35H0L8.316 11.339H14.421L22.77 35H17.391ZM12.771 19.721C12.661 19.347 12.518 18.874 12.342 18.302C12.166 17.73 11.99 17.147 11.814 16.553C11.638 15.959 11.495 15.442 11.385 15.002C11.275 15.442 11.121 15.992 10.923 16.652C10.747 17.29 10.571 17.906 10.395 18.5C10.241 19.072 10.12 19.479 10.032 19.721L8.349 25.199H14.487L12.771 19.721ZM24.4942 35H28.9042V23.45C30.1342 22.22 31.0042 21.56 32.3842 21.56C34.0342 21.56 34.7542 22.46 34.7542 25.07V35H39.1642V24.53C39.1642 20.3 37.6042 17.78 33.9742 17.78C31.6942 17.78 29.9842 18.98 28.5142 20.42H28.4242L28.0942 18.2H24.4942V35ZM49.0229 42.29C54.6329 42.29 58.1729 39.71 58.1729 36.32C58.1729 33.38 55.9529 32.12 51.9029 32.12H49.0529C47.0729 32.12 46.4129 31.64 46.4129 30.74C46.4129 30.05 46.6829 29.69 47.1329 29.3C47.8529 29.54 48.6329 29.69 49.2929 29.69C52.8929 29.69 55.7729 27.77 55.7729 23.99C55.7729 22.94 55.4429 22.01 55.0229 21.44H57.8729V18.2H51.8129C51.1229 17.96 50.2229 17.78 49.2929 17.78C45.7229 17.78 42.5129 19.91 42.5129 23.84C42.5129 25.82 43.5929 27.41 44.7629 28.25V28.37C43.7429 29.09 42.8729 30.26 42.8729 31.52C42.8729 32.9 43.5329 33.77 44.4029 34.34V34.49C42.8729 35.36 42.0029 36.56 42.0029 37.97C42.0029 40.94 45.0629 42.29 49.0229 42.29ZM49.2929 26.96C47.8229 26.96 46.6529 25.85 46.6529 23.84C46.6529 21.89 47.7929 20.78 49.2929 20.78C50.7929 20.78 51.9329 21.89 51.9329 23.84C51.9329 25.85 50.7629 26.96 49.2929 26.96ZM49.6829 39.5C47.2529 39.5 45.6929 38.69 45.6929 37.28C45.6929 36.59 46.0229 35.93 46.7729 35.33C47.3729 35.48 48.0929 35.57 49.1129 35.57H51.1529C52.9529 35.57 53.9429 35.87 53.9429 37.07C53.9429 38.39 52.2029 39.5 49.6829 39.5ZM67.1767 35.42C69.2467 35.42 71.3767 34.7 73.0267 33.56L71.5267 30.86C70.3267 31.61 69.1267 32.03 67.7467 32.03C65.2567 32.03 63.4567 30.59 63.0967 27.83H73.4467C73.5667 27.44 73.6567 26.63 73.6567 25.79C73.6567 21.17 71.2567 17.78 66.6367 17.78C62.6467 17.78 58.8067 21.17 58.8067 26.6C58.8067 32.15 62.4667 35.42 67.1767 35.42ZM63.0367 24.89C63.3667 22.46 64.9267 21.2 66.6967 21.2C68.8567 21.2 69.8767 22.64 69.8767 24.89H63.0367ZM81.1283 35H76.6583V12.2H81.1283V35ZM84.3289 27.98H92.5189V24.83H84.3289V27.98ZM95.7325 35H100.142V18.2H95.7325V35ZM97.9525 15.5C99.4525 15.5 100.502 14.54 100.502 13.07C100.502 11.63 99.4525 10.67 97.9525 10.67C96.4225 10.67 95.3725 11.63 95.3725 13.07C95.3725 14.54 96.4225 15.5 97.9525 15.5ZM104.844 35H109.254V23.45C110.484 22.22 111.354 21.56 112.734 21.56C114.384 21.56 115.104 22.46 115.104 25.07V35H119.514V24.53C119.514 20.3 117.954 17.78 114.324 17.78C112.044 17.78 110.334 18.98 108.864 20.42H108.774L108.444 18.2H104.844V35ZM123.163 27.98H131.353V24.83H123.163V27.98ZM140.176 35.42C142.456 35.42 144.076 34.31 145.516 32.6H145.636L145.966 35H149.566V18.2H145.156V29.54C144.016 31.04 143.116 31.64 141.736 31.64C140.116 31.64 139.396 30.71 139.396 28.13V18.2H134.986V28.7C134.986 32.9 136.546 35.42 140.176 35.42ZM159.068 35.42C163.448 35.42 165.758 33.05 165.758 30.11C165.758 26.99 163.298 25.88 161.078 25.04C159.308 24.38 157.748 23.93 157.748 22.7C157.748 21.74 158.468 21.08 159.998 21.08C161.228 21.08 162.398 21.65 163.598 22.52L165.578 19.85C164.198 18.8 162.308 17.78 159.878 17.78C156.038 17.78 153.608 19.91 153.608 22.91C153.608 25.73 155.978 27.02 158.108 27.83C159.878 28.52 161.618 29.09 161.618 30.35C161.618 31.4 160.868 32.12 159.188 32.12C157.628 32.12 156.188 31.46 154.688 30.29L152.678 33.05C154.358 34.43 156.818 35.42 159.068 35.42Z" fill="black"/>
<path d="M171.328 35.372C172.914 35.372 174.201 34.15 174.201 32.421C174.201 30.692 172.914 29.457 171.328 29.457C169.742 29.457 168.442 30.692 168.442 32.421C168.442 34.15 169.742 35.372 171.328 35.372ZM171.328 34.709C170.08 34.709 169.183 33.799 169.183 32.421C169.183 31.043 170.08 30.133 171.328 30.133C172.563 30.133 173.46 31.043 173.46 32.421C173.46 33.799 172.563 34.709 171.328 34.709ZM170.158 33.864H170.951V32.928H171.419L171.887 33.864H172.706L172.082 32.694C172.42 32.551 172.615 32.239 172.615 31.888C172.615 31.225 172.082 30.926 171.432 30.926H170.158V33.864ZM170.951 32.382V31.537H171.276C171.627 31.537 171.77 31.706 171.77 31.953C171.77 32.2 171.601 32.382 171.263 32.382H170.951Z" fill="black"/>
</svg>
