<?xml version="1.0" encoding="utf-8"?>
<!-- Generator: Adobe Illustrator 25.2.0, SVG Export Plug-In . SVG Version: 6.00 Build 0)  -->
<svg version="1.1" id="Layer_1" xmlns="http://www.w3.org/2000/svg" xmlns:xlink="http://www.w3.org/1999/xlink" x="0px" y="0px"
	 viewBox="0 0 449.1 444.4" style="enable-background:new 0 0 449.1 444.4;" xml:space="preserve">
<g>
	<path d="M119.8,110.3L208.6,40c0,0,1.7,2.1,2.2,2.8c-2.8,7.4-1.1,14.7,8.8,27.1l159.5,201.5c9.8,12.4,16.5,15.8,24.4,14.8
		c0.6,0.7,2,2.5,2,2.5l-88.8,70.3c-82.4,65.2-185.2,58.8-240.9-11.6C20.4,277.5,37.4,175.6,119.8,110.3z M314.7,356.6l52.9-41.9
		L175,71.3l-52.9,41.9c-71.1,56.2-70,146.7-18.2,212.1C155.9,391,243.7,412.8,314.7,356.6z"/>
</g>
</svg>
