<svg xmlns="http://www.w3.org/2000/svg" width="1920" height="1409.68" viewBox="0 0 1920 1409.68"><g transform="translate(10058 -5198)"><rect width="1920" height="1279" transform="translate(-10058 5198)"/><path d="M3.45,0H10.8V-25.05h.1L19.65,0H25.7l8.75-25.3h.1V0H41.9V-35.7H30.85l-7.9,24.55h-.1L14.5-35.7H3.45Zm60.7-10A11.1,11.1,0,0,1,64-8.225a5.758,5.758,0,0,1-.7,1.9A4.264,4.264,0,0,1,61.55-4.7a6.605,6.605,0,0,1-3.15.65,6.011,6.011,0,0,1-3.175-.725A2.78,2.78,0,0,1,54.05-7.35a3.009,3.009,0,0,1,1.1-2.575,7.665,7.665,0,0,1,3.1-1.225q.65-.1,1.7-.25,1.65-.25,2.625-.5a3.964,3.964,0,0,0,1.575-.75Zm-9.3-7.9a4.05,4.05,0,0,1,1.4-2.975,5.283,5.283,0,0,1,3.3-.925,6.806,6.806,0,0,1,3.4.7,2.968,2.968,0,0,1,1.2,2.8,2.1,2.1,0,0,1-1.45,2.15,22,22,0,0,1-4.65.95q-1.3.15-2.3.3a21.765,21.765,0,0,0-3.4.7,9.565,9.565,0,0,0-2.725,1.3,6,6,0,0,0-1.95,2.3,7.881,7.881,0,0,0-.725,3.55A6.981,6.981,0,0,0,49.4-1.275,9.8,9.8,0,0,0,55.75.7a14.861,14.861,0,0,0,4.825-.775A9.636,9.636,0,0,0,64.45-2.5a9.738,9.738,0,0,0,.5,2.5h7.2a6.38,6.38,0,0,1-.675-2.275A24.009,24.009,0,0,1,71.25-5.75V-19.2a6.4,6.4,0,0,0-1-3.675,6.677,6.677,0,0,0-2.625-2.275,12.271,12.271,0,0,0-3.6-1.1,27.451,27.451,0,0,0-4.125-.3,21.767,21.767,0,0,0-4.375.425,12.152,12.152,0,0,0-3.8,1.45,8.12,8.12,0,0,0-2.775,2.7,8.559,8.559,0,0,0-1.2,4.075ZM76.95,0h7.1V-25.85h-7.1Zm7.1-35.7h-7.1v5.85h7.1ZM89.65,0h7.1V-13.55q0-3.95,1.3-5.675a4.919,4.919,0,0,1,4.2-1.725,3.917,3.917,0,0,1,3.5,1.55,8.686,8.686,0,0,1,1.05,4.8V0h7.1V-15.9a20.926,20.926,0,0,0-.425-4.475,8.113,8.113,0,0,0-1.5-3.3A6.911,6.911,0,0,0,109.05-25.8a12.3,12.3,0,0,0-4.6-.75,9.6,9.6,0,0,0-4.475,1.1,8.651,8.651,0,0,0-3.425,3.2H96.4v-3.6H89.65Zm44.3,0h7.85V-12.8h8.25a15.323,15.323,0,0,0,5.575-.925,10.215,10.215,0,0,0,3.875-2.55,10.252,10.252,0,0,0,2.2-3.675,13.214,13.214,0,0,0,.7-4.3,13.214,13.214,0,0,0-.7-4.3,10.252,10.252,0,0,0-2.2-3.675,10.215,10.215,0,0,0-3.875-2.55,15.323,15.323,0,0,0-5.575-.925h-16.1Zm7.85-29.6h6.1a16.52,16.52,0,0,1,2.7.2,5.982,5.982,0,0,1,2.175.8,3.99,3.99,0,0,1,1.5,1.65,6.038,6.038,0,0,1,.525,2.7,6.038,6.038,0,0,1-.525,2.7,3.827,3.827,0,0,1-1.5,1.625,6.66,6.66,0,0,1-2.175.8,14.724,14.724,0,0,1-2.7.225h-6.1ZM182.65-10a11.094,11.094,0,0,1-.15,1.775,5.758,5.758,0,0,1-.7,1.9A4.264,4.264,0,0,1,180.05-4.7a6.605,6.605,0,0,1-3.15.65,6.011,6.011,0,0,1-3.175-.725A2.78,2.78,0,0,1,172.55-7.35a3.009,3.009,0,0,1,1.1-2.575,7.665,7.665,0,0,1,3.1-1.225q.65-.1,1.7-.25,1.65-.25,2.625-.5a3.964,3.964,0,0,0,1.575-.75Zm-9.3-7.9a4.05,4.05,0,0,1,1.4-2.975,5.283,5.283,0,0,1,3.3-.925,6.806,6.806,0,0,1,3.4.7,2.968,2.968,0,0,1,1.2,2.8,2.1,2.1,0,0,1-1.45,2.15,22,22,0,0,1-4.65.95q-1.3.15-2.3.3a21.765,21.765,0,0,0-3.4.7,9.565,9.565,0,0,0-2.725,1.3,6,6,0,0,0-1.95,2.3,7.881,7.881,0,0,0-.725,3.55,6.981,6.981,0,0,0,2.45,5.775A9.8,9.8,0,0,0,174.25.7a14.861,14.861,0,0,0,4.825-.775A9.636,9.636,0,0,0,182.95-2.5a9.738,9.738,0,0,0,.5,2.5h7.2a6.38,6.38,0,0,1-.675-2.275,24.008,24.008,0,0,1-.225-3.475V-19.2a6.4,6.4,0,0,0-1-3.675,6.677,6.677,0,0,0-2.625-2.275,12.271,12.271,0,0,0-3.6-1.1,27.451,27.451,0,0,0-4.125-.3,21.767,21.767,0,0,0-4.375.425,12.152,12.152,0,0,0-3.8,1.45,8.12,8.12,0,0,0-2.775,2.7,8.559,8.559,0,0,0-1.2,4.075Zm46.75-7.95h-6.75v3.45h-.1a7.7,7.7,0,0,0-3.15-3.175,9.857,9.857,0,0,0-4.55-.975,10.53,10.53,0,0,0-4.725,1.025,10.129,10.129,0,0,0-3.5,2.825,12.68,12.68,0,0,0-2.15,4.1,16.038,16.038,0,0,0-.725,4.85,19.076,19.076,0,0,0,.65,5.1,12.035,12.035,0,0,0,2,4.125,9.213,9.213,0,0,0,3.475,2.775,11.448,11.448,0,0,0,4.925,1,10.282,10.282,0,0,0,4.525-1.025A7.171,7.171,0,0,0,213.25-4.75h.1v3.4a7.119,7.119,0,0,1-1.425,4.675A5.224,5.224,0,0,1,207.65,5.05a6.693,6.693,0,0,1-3.45-.825A4.066,4.066,0,0,1,202.35,1.5H195.3a7.239,7.239,0,0,0,1.15,3.7,8.477,8.477,0,0,0,2.675,2.6,12.828,12.828,0,0,0,3.6,1.5,16.138,16.138,0,0,0,3.975.5,18.666,18.666,0,0,0,6.925-1.1,9.871,9.871,0,0,0,4.125-2.85,9.545,9.545,0,0,0,1.875-3.65,15.815,15.815,0,0,0,.475-3.85ZM207.3-6.1a5.1,5.1,0,0,1-2.675-.675,5.243,5.243,0,0,1-1.8-1.775A7.938,7.938,0,0,1,201.85-11a13.109,13.109,0,0,1-.3-2.85A9.025,9.025,0,0,1,203-19.1a4.885,4.885,0,0,1,4.3-2.1,5.942,5.942,0,0,1,2.825.625A4.919,4.919,0,0,1,212-18.85a7.958,7.958,0,0,1,1.025,2.525,13.814,13.814,0,0,1,.325,3.075,8.177,8.177,0,0,1-1.575,5.05A5.262,5.262,0,0,1,207.3-6.1Zm43-5.1v-.65a5.3,5.3,0,0,0,.05-.6,17.435,17.435,0,0,0-.825-5.4,13.889,13.889,0,0,0-2.4-4.5,11.108,11.108,0,0,0-3.95-3.075,12.528,12.528,0,0,0-5.425-1.125,13.724,13.724,0,0,0-5.35,1.025,12.169,12.169,0,0,0-4.2,2.875,12.944,12.944,0,0,0-2.7,4.35,15.077,15.077,0,0,0-.95,5.4,15.8,15.8,0,0,0,.925,5.475,12.513,12.513,0,0,0,2.65,4.35,11.523,11.523,0,0,0,4.175,2.8A14.621,14.621,0,0,0,237.75.7a13,13,0,0,0,7.575-2.125A12.278,12.278,0,0,0,249.85-8H243.6a4.164,4.164,0,0,1-1.95,2.325A6.619,6.619,0,0,1,238-4.65a6.226,6.226,0,0,1-4.6-1.6,7.229,7.229,0,0,1-1.75-4.95Zm-18.65-4.5a7.113,7.113,0,0,1,.35-1.775,5.429,5.429,0,0,1,1-1.775,5.382,5.382,0,0,1,1.825-1.4,6.158,6.158,0,0,1,2.725-.55,5.122,5.122,0,0,1,3.825,1.35A7.754,7.754,0,0,1,243.2-15.7ZM254.8,0h7.85V-7.7H254.8Z" transform="translate(-9798 5327)" fill="#fff"/><path d="M.84-14.12a25.886,25.886,0,0,0,.8,6.9,12.33,12.33,0,0,0,2.2,4.56A8.276,8.276,0,0,0,7.08-.2a10.375,10.375,0,0,0,4,.76A10.633,10.633,0,0,0,15.14-.2,8.241,8.241,0,0,0,18.4-2.66a12.33,12.33,0,0,0,2.2-4.56,25.886,25.886,0,0,0,.8-6.9,24.859,24.859,0,0,0-.8-6.76,12.145,12.145,0,0,0-2.22-4.5,8.247,8.247,0,0,0-3.26-2.44,10.731,10.731,0,0,0-4.04-.74,10.375,10.375,0,0,0-4,.76,8.349,8.349,0,0,0-3.24,2.44,12.13,12.13,0,0,0-2.2,4.48A24.859,24.859,0,0,0,.84-14.12Zm5.68,0q0-1.72.1-3.18a15.4,15.4,0,0,1,.52-3,5.94,5.94,0,0,1,1.38-2.56,3.349,3.349,0,0,1,2.56-1.02,3.4,3.4,0,0,1,2.6,1.02,6.109,6.109,0,0,1,1.4,2.58,14.852,14.852,0,0,1,.54,3q.1,1.44.1,3.16,0,1.8-.1,3.3a15.8,15.8,0,0,1-.52,3.06,5.981,5.981,0,0,1-1.4,2.6,3.429,3.429,0,0,1-2.62,1.04A3.316,3.316,0,0,1,8.52-5.16a6.093,6.093,0,0,1-1.38-2.6,15.8,15.8,0,0,1-.52-3.06Q6.52-12.32,6.52-14.12ZM37.92-28H33.4a5.5,5.5,0,0,1-2.6,4.24,10.746,10.746,0,0,1-5.6,1.32v4.28h7.04V0h5.68ZM46.88,0h6.28V-6.16H46.88ZM81.12-28.56H74.64L68.2-8.48h-.08L61.76-28.56H55.28L64.56,0h7.08ZM83.12,0H88.8V-20.68H83.12ZM88.8-28.56H83.12v4.68H88.8ZM92.28-6.72a7.254,7.254,0,0,0,.9,3.38,6.5,6.5,0,0,0,2.18,2.28A9.6,9.6,0,0,0,98.4.18a16.293,16.293,0,0,0,3.6.38,15.834,15.834,0,0,0,3.54-.38,9.658,9.658,0,0,0,3-1.22,6.106,6.106,0,0,0,2.12-2.24,6.8,6.8,0,0,0,.78-3.36A5.05,5.05,0,0,0,110.92-9a4.493,4.493,0,0,0-1.44-1.64,9.227,9.227,0,0,0-2.04-1.06,19.17,19.17,0,0,0-2.56-.74q-.44-.12-1.56-.36a20.506,20.506,0,0,1-3.68-1.04,1.747,1.747,0,0,1-1.2-1.68,1.5,1.5,0,0,1,.92-1.52,5.609,5.609,0,0,1,2.24-.4,5.245,5.245,0,0,1,2.74.62,2.593,2.593,0,0,1,1.14,2.18h5.4a7.1,7.1,0,0,0-.94-3.12,5.974,5.974,0,0,0-2.04-2.04,9.232,9.232,0,0,0-2.8-1.1,15.486,15.486,0,0,0-3.34-.34,17.015,17.015,0,0,0-3.38.32,9.4,9.4,0,0,0-2.86,1.06A5.356,5.356,0,0,0,93.5-17.8a6.452,6.452,0,0,0-.74,3.2,4.465,4.465,0,0,0,.54,2.26,4.663,4.663,0,0,0,1.46,1.56,8.648,8.648,0,0,0,2.02,1,23.36,23.36,0,0,0,2.54.7,30.148,30.148,0,0,1,5,1.38,1.981,1.981,0,0,1,1.44,1.82,2.142,2.142,0,0,1-1.12,2,5.149,5.149,0,0,1-2.6.64,5.276,5.276,0,0,1-3.08-.86,3.064,3.064,0,0,1-1.28-2.62Zm41.88-13.96h-5.68V-9.84a7.672,7.672,0,0,1-1.04,4.54,3.935,3.935,0,0,1-3.36,1.38,3.142,3.142,0,0,1-2.78-1.24A6.818,6.818,0,0,1,120.44-9V-20.68h-5.68V-7.96a16.459,16.459,0,0,0,.34,3.56,6.657,6.657,0,0,0,1.2,2.64,5.456,5.456,0,0,0,2.34,1.72,9.841,9.841,0,0,0,3.68.6,7.683,7.683,0,0,0,3.58-.88,6.921,6.921,0,0,0,2.74-2.56h.12V0h5.4ZM151.36-8a8.875,8.875,0,0,1-.12,1.42,4.607,4.607,0,0,1-.56,1.52,3.411,3.411,0,0,1-1.4,1.3,5.284,5.284,0,0,1-2.52.52,4.809,4.809,0,0,1-2.54-.58,2.224,2.224,0,0,1-.94-2.06,2.407,2.407,0,0,1,.88-2.06,6.132,6.132,0,0,1,2.48-.98q.52-.08,1.36-.2,1.32-.2,2.1-.4a3.171,3.171,0,0,0,1.26-.6Zm-7.44-6.32a3.24,3.24,0,0,1,1.12-2.38,4.226,4.226,0,0,1,2.64-.74,5.445,5.445,0,0,1,2.72.56,2.375,2.375,0,0,1,.96,2.24,1.682,1.682,0,0,1-1.16,1.72,17.6,17.6,0,0,1-3.72.76q-1.04.12-1.84.24a17.412,17.412,0,0,0-2.72.56,7.652,7.652,0,0,0-2.18,1.04,4.8,4.8,0,0,0-1.56,1.84,6.3,6.3,0,0,0-.58,2.84,5.584,5.584,0,0,0,1.96,4.62A7.842,7.842,0,0,0,144.64.56a11.889,11.889,0,0,0,3.86-.62A7.709,7.709,0,0,0,151.6-2a7.791,7.791,0,0,0,.4,2h5.76a5.1,5.1,0,0,1-.54-1.82,19.206,19.206,0,0,1-.18-2.78V-15.36a5.122,5.122,0,0,0-.8-2.94,5.341,5.341,0,0,0-2.1-1.82,9.817,9.817,0,0,0-2.88-.88,21.961,21.961,0,0,0-3.3-.24,17.414,17.414,0,0,0-3.5.34,9.722,9.722,0,0,0-3.04,1.16,6.5,6.5,0,0,0-2.22,2.16,6.847,6.847,0,0,0-.96,3.26ZM161.6,0h5.68V-28.56H161.6Z" transform="translate(-9798 5538)" fill="#fff"/><path d="M.84-14.12a25.886,25.886,0,0,0,.8,6.9,12.33,12.33,0,0,0,2.2,4.56A8.276,8.276,0,0,0,7.08-.2a10.375,10.375,0,0,0,4,.76A10.633,10.633,0,0,0,15.14-.2,8.241,8.241,0,0,0,18.4-2.66a12.33,12.33,0,0,0,2.2-4.56,25.886,25.886,0,0,0,.8-6.9,24.859,24.859,0,0,0-.8-6.76,12.145,12.145,0,0,0-2.22-4.5,8.247,8.247,0,0,0-3.26-2.44,10.731,10.731,0,0,0-4.04-.74,10.375,10.375,0,0,0-4,.76,8.349,8.349,0,0,0-3.24,2.44,12.13,12.13,0,0,0-2.2,4.48A24.859,24.859,0,0,0,.84-14.12Zm5.68,0q0-1.72.1-3.18a15.4,15.4,0,0,1,.52-3,5.94,5.94,0,0,1,1.38-2.56,3.349,3.349,0,0,1,2.56-1.02,3.4,3.4,0,0,1,2.6,1.02,6.109,6.109,0,0,1,1.4,2.58,14.852,14.852,0,0,1,.54,3q.1,1.44.1,3.16,0,1.8-.1,3.3a15.8,15.8,0,0,1-.52,3.06,5.981,5.981,0,0,1-1.4,2.6,3.429,3.429,0,0,1-2.62,1.04A3.316,3.316,0,0,1,8.52-5.16a6.093,6.093,0,0,1-1.38-2.6,15.8,15.8,0,0,1-.52-3.06Q6.52-12.32,6.52-14.12Zm22.64-3.12a11.135,11.135,0,0,1,.24-2.3,7.432,7.432,0,0,1,.76-2.08,4.156,4.156,0,0,1,1.38-1.5,3.692,3.692,0,0,1,2.06-.56,4.073,4.073,0,0,1,3.04,1.18,4.285,4.285,0,0,1,1.16,3.14,4.447,4.447,0,0,1-.44,1.98,6.873,6.873,0,0,1-1.12,1.64,9.182,9.182,0,0,1-1.44,1.28q-.76.54-1.96,1.34-.88.56-.92.6-2.32,1.6-3.74,2.68A15.636,15.636,0,0,0,25.6-7.36a11.143,11.143,0,0,0-1.84,3.2A11.731,11.731,0,0,0,23.08,0H43.64V-4.88H30.4A12.968,12.968,0,0,1,32.78-7.4a39.978,39.978,0,0,1,3.54-2.48q1.48-.96,2.16-1.44a14.627,14.627,0,0,0,3.7-3.66,8.47,8.47,0,0,0,1.3-4.82,8.553,8.553,0,0,0-.76-3.64,8.037,8.037,0,0,0-2.1-2.78,9.464,9.464,0,0,0-3.08-1.74,11.148,11.148,0,0,0-3.66-.6,9.36,9.36,0,0,0-7.48,3.1,12.128,12.128,0,0,0-2.68,8.22ZM46.88,0h6.28V-6.16H46.88ZM90.76,0h4V-15.44h-12v4.68h6.32a6.771,6.771,0,0,1-2.02,4.58A6.846,6.846,0,0,1,82.28-4.6a7.454,7.454,0,0,1-3.52-.78,6.686,6.686,0,0,1-2.42-2.14,9.532,9.532,0,0,1-1.38-3.06,14.236,14.236,0,0,1-.44-3.58,15.289,15.289,0,0,1,.44-3.72A9.725,9.725,0,0,1,76.32-21a6.644,6.644,0,0,1,2.42-2.16,7.419,7.419,0,0,1,3.54-.8,6.228,6.228,0,0,1,3.9,1.24,5.931,5.931,0,0,1,2.14,3.56h6a10.908,10.908,0,0,0-1.3-4.26A10.3,10.3,0,0,0,90.3-26.6a12.362,12.362,0,0,0-3.74-1.96,13.688,13.688,0,0,0-4.28-.68,14.54,14.54,0,0,0-5.86,1.14,12.486,12.486,0,0,0-4.44,3.2,14.274,14.274,0,0,0-2.78,4.82,17.9,17.9,0,0,0-.96,5.92,17.3,17.3,0,0,0,.96,5.8,13.91,13.91,0,0,0,2.78,4.74A12.721,12.721,0,0,0,76.42-.46,14.54,14.54,0,0,0,82.28.68a10.021,10.021,0,0,0,4.24-.94,9.6,9.6,0,0,0,3.6-2.98Zm9.08,0h5.88V-19.12h.08L117.68,0h6.28V-28.56h-5.88V-9.4H118L106.08-28.56H99.84Zm35.92-12.72h6.84a5.105,5.105,0,0,1,3.32.98,3.772,3.772,0,0,1,1.2,3.1,3.255,3.255,0,0,1-1.26,2.9,5.9,5.9,0,0,1-3.38.86h-6.72ZM129.48,0h13.84a14.137,14.137,0,0,0,3.8-.5,10.1,10.1,0,0,0,3.22-1.52,7.283,7.283,0,0,0,2.24-2.6,7.835,7.835,0,0,0,.82-3.66,7.811,7.811,0,0,0-1.34-4.62,6.848,6.848,0,0,0-3.9-2.62,6.235,6.235,0,0,0,3.88-5.96q0-3.8-2.38-5.44a11.791,11.791,0,0,0-6.74-1.64H129.48Zm6.28-23.68h5.88a6.121,6.121,0,0,1,3.14.7,2.746,2.746,0,0,1,1.18,2.58,3.1,3.1,0,0,1-1.04,2.56,4.327,4.327,0,0,1-2.8.84h-6.36Z" transform="translate(-9798 5960)" fill="#fff"/><path d="M.84-14.12a25.886,25.886,0,0,0,.8,6.9,12.33,12.33,0,0,0,2.2,4.56A8.276,8.276,0,0,0,7.08-.2a10.375,10.375,0,0,0,4,.76A10.633,10.633,0,0,0,15.14-.2,8.241,8.241,0,0,0,18.4-2.66a12.33,12.33,0,0,0,2.2-4.56,25.886,25.886,0,0,0,.8-6.9,24.859,24.859,0,0,0-.8-6.76,12.145,12.145,0,0,0-2.22-4.5,8.247,8.247,0,0,0-3.26-2.44,10.731,10.731,0,0,0-4.04-.74,10.375,10.375,0,0,0-4,.76,8.349,8.349,0,0,0-3.24,2.44,12.13,12.13,0,0,0-2.2,4.48A24.859,24.859,0,0,0,.84-14.12Zm5.68,0q0-1.72.1-3.18a15.4,15.4,0,0,1,.52-3,5.94,5.94,0,0,1,1.38-2.56,3.349,3.349,0,0,1,2.56-1.02,3.4,3.4,0,0,1,2.6,1.02,6.109,6.109,0,0,1,1.4,2.58,14.852,14.852,0,0,1,.54,3q.1,1.44.1,3.16,0,1.8-.1,3.3a15.8,15.8,0,0,1-.52,3.06,5.981,5.981,0,0,1-1.4,2.6,3.429,3.429,0,0,1-2.62,1.04A3.316,3.316,0,0,1,8.52-5.16a6.093,6.093,0,0,1-1.38-2.6,15.8,15.8,0,0,1-.52-3.06Q6.52-12.32,6.52-14.12Zm24.84,1.44q1.48,0,2.52.1a6.575,6.575,0,0,1,1.94.48,3.2,3.2,0,0,1,1.46,1.24,4.249,4.249,0,0,1,.56,2.34,4.161,4.161,0,0,1-1.3,3.18,4.578,4.578,0,0,1-3.26,1.22A4.363,4.363,0,0,1,29.7-5.66a6.431,6.431,0,0,1-1.34-3.98h-5.4a9.853,9.853,0,0,0,2.84,7.5A10.518,10.518,0,0,0,33.36.56a12.562,12.562,0,0,0,3.96-.62,10.483,10.483,0,0,0,3.34-1.8,8.235,8.235,0,0,0,2.28-2.9,8.9,8.9,0,0,0,.82-3.88,6.525,6.525,0,0,0-1.34-4.1A6.131,6.131,0,0,0,38.8-15v-.08a4.9,4.9,0,0,0,2.9-2.08,6.5,6.5,0,0,0,1.02-3.64,6.671,6.671,0,0,0-.8-3.26,7.4,7.4,0,0,0-2.18-2.46,10.485,10.485,0,0,0-3.04-1.52,11.244,11.244,0,0,0-3.38-.52,9.215,9.215,0,0,0-6.9,2.68,10.155,10.155,0,0,0-2.78,7h5.4a5.5,5.5,0,0,1,1.14-3.62,3.9,3.9,0,0,1,3.18-1.38,4.094,4.094,0,0,1,2.8,1.02,3.419,3.419,0,0,1,1.16,2.7,3.132,3.132,0,0,1-.44,1.7,3.008,3.008,0,0,1-1.16,1.08,6,6,0,0,1-1.58.56,8.869,8.869,0,0,1-1.82.18,3.693,3.693,0,0,1-.52-.04h-.44ZM46.88,0h6.28V-6.16H46.88ZM94.6-18.96a11.682,11.682,0,0,0-1.34-4.36,10.69,10.69,0,0,0-2.72-3.24,11.807,11.807,0,0,0-3.78-2,14.58,14.58,0,0,0-4.48-.68,14.54,14.54,0,0,0-5.86,1.14,12.486,12.486,0,0,0-4.44,3.2,14.274,14.274,0,0,0-2.78,4.82,17.9,17.9,0,0,0-.96,5.92,17.3,17.3,0,0,0,.96,5.8,13.91,13.91,0,0,0,2.78,4.74A12.721,12.721,0,0,0,76.42-.46,14.54,14.54,0,0,0,82.28.68a13.64,13.64,0,0,0,4.8-.82A11.534,11.534,0,0,0,90.94-2.5,11.675,11.675,0,0,0,93.6-6.2,14.454,14.454,0,0,0,94.84-11H88.76a7.945,7.945,0,0,1-2.02,4.66A5.874,5.874,0,0,1,82.28-4.6a7.454,7.454,0,0,1-3.52-.78,6.686,6.686,0,0,1-2.42-2.14,9.532,9.532,0,0,1-1.38-3.06,14.236,14.236,0,0,1-.44-3.58,15.289,15.289,0,0,1,.44-3.72A9.725,9.725,0,0,1,76.32-21a6.644,6.644,0,0,1,2.42-2.16,7.419,7.419,0,0,1,3.54-.8,6.469,6.469,0,0,1,4.16,1.44,5.339,5.339,0,0,1,2.08,3.56Zm3.28,4.8a17.3,17.3,0,0,0,.96,5.8,13.91,13.91,0,0,0,2.78,4.74,12.721,12.721,0,0,0,4.44,3.16A14.54,14.54,0,0,0,111.92.68a14.54,14.54,0,0,0,5.86-1.14,12.8,12.8,0,0,0,4.46-3.18,13.736,13.736,0,0,0,2.78-4.74,17.457,17.457,0,0,0,.94-5.78,18.243,18.243,0,0,0-.94-5.92,13.846,13.846,0,0,0-2.78-4.82,12.681,12.681,0,0,0-4.46-3.2,14.54,14.54,0,0,0-5.86-1.14,14.54,14.54,0,0,0-5.86,1.14,12.486,12.486,0,0,0-4.44,3.2,14.274,14.274,0,0,0-2.78,4.82A17.9,17.9,0,0,0,97.88-14.16Zm6.28,0a15.289,15.289,0,0,1,.44-3.72A9.725,9.725,0,0,1,105.96-21a6.644,6.644,0,0,1,2.42-2.16,7.419,7.419,0,0,1,3.54-.8,7.419,7.419,0,0,1,3.54.8A6.644,6.644,0,0,1,117.88-21a9.725,9.725,0,0,1,1.36,3.12,15.289,15.289,0,0,1,.44,3.72,14.236,14.236,0,0,1-.44,3.58,9.546,9.546,0,0,1-1.36,3.04,6.713,6.713,0,0,1-2.42,2.14,7.419,7.419,0,0,1-3.54.8,7.454,7.454,0,0,1-3.52-.78,6.686,6.686,0,0,1-2.42-2.14,9.532,9.532,0,0,1-1.38-3.06A14.236,14.236,0,0,1,104.16-14.16ZM130.24,0h5.88V-19.12h.08L148.08,0h6.28V-28.56h-5.88V-9.4h-.08L136.48-28.56h-6.24ZM166.2,0h6.28V-23.28h8.56v-5.28h-23.4v5.28h8.56Zm18.12,0H206V-5.28H190.6v-7h13.84v-4.88H190.6v-6.12h15.08v-5.28H184.32Zm25.92,0h5.88V-19.12h.08L228.08,0h6.28V-28.56h-5.88V-9.4h-.08L216.48-28.56h-6.24ZM246.2,0h6.28V-23.28h8.56v-5.28h-23.4v5.28h8.56Zm16.32-9.48a9.852,9.852,0,0,0,.98,4.5,8.935,8.935,0,0,0,2.68,3.2A11.63,11.63,0,0,0,270.06.08a17.339,17.339,0,0,0,4.62.6q5.64,0,8.76-2.54a8.133,8.133,0,0,0,3.12-6.62,7.341,7.341,0,0,0-.88-3.7,7.234,7.234,0,0,0-2.2-2.44,11.65,11.65,0,0,0-2.52-1.34,26.012,26.012,0,0,0-2.64-.8.755.755,0,0,1-.24-.04,3.356,3.356,0,0,0-.64-.16q-3-.76-4.32-1.16A15.7,15.7,0,0,1,271-18.9a2.616,2.616,0,0,1-1.12-.88,2.46,2.46,0,0,1-.32-1.34,2.68,2.68,0,0,1,1.28-2.44,5.618,5.618,0,0,1,3.04-.8,7.382,7.382,0,0,1,4.02.96,3.928,3.928,0,0,1,1.62,3.36h6.08a8.865,8.865,0,0,0-.92-4.16,8.036,8.036,0,0,0-2.5-2.88,10.8,10.8,0,0,0-3.64-1.64,17.842,17.842,0,0,0-4.38-.52,14.2,14.2,0,0,0-3.9.54,11.34,11.34,0,0,0-3.44,1.62,7.957,7.957,0,0,0-2.44,2.72,7.687,7.687,0,0,0-.9,3.76,7.218,7.218,0,0,0,.7,3.3,6.546,6.546,0,0,0,1.88,2.28,10.671,10.671,0,0,0,2.62,1.46A34.9,34.9,0,0,0,272-12.48q.68.16,1.84.48,1.76.4,2.8.72a11.325,11.325,0,0,1,1.92.78,4.257,4.257,0,0,1,1.4,1.12,2.537,2.537,0,0,1,.52,1.62,2.837,2.837,0,0,1-.52,1.74,3.541,3.541,0,0,1-1.38,1.1,7.056,7.056,0,0,1-1.8.56,11.069,11.069,0,0,1-1.86.16,7.5,7.5,0,0,1-4.54-1.3,4.6,4.6,0,0,1-1.78-3.98Z" transform="translate(-9798 6607)"/></g></svg>