<svg xmlns="http://www.w3.org/2000/svg" width="1088" height="244" viewBox="0 0 1088 244">
  <g id="그룹_167" data-name="그룹 167" transform="translate(-580 -2424)">
    <rect id="사각형_300" data-name="사각형 300" width="1088" height="244" transform="translate(580 2424)" fill="#fff"/>
    <path id="패스_314" data-name="패스 314" d="M3.45,0H11.3V-15.4H25.75V0H33.6V-35.7H25.75V-22H11.3V-35.7H3.45Zm60.8-11.2v-.65a5.307,5.307,0,0,0,.05-.6,17.436,17.436,0,0,0-.825-5.4,13.889,13.889,0,0,0-2.4-4.5,11.108,11.108,0,0,0-3.95-3.075A12.528,12.528,0,0,0,51.7-26.55a13.724,13.724,0,0,0-5.35,1.025,12.169,12.169,0,0,0-4.2,2.875,12.944,12.944,0,0,0-2.7,4.35,15.077,15.077,0,0,0-.95,5.4,15.8,15.8,0,0,0,.925,5.475,12.513,12.513,0,0,0,2.65,4.35,11.522,11.522,0,0,0,4.175,2.8A14.621,14.621,0,0,0,51.7.7a13,13,0,0,0,7.575-2.125A12.278,12.278,0,0,0,63.8-8H57.55A4.164,4.164,0,0,1,55.6-5.675,6.619,6.619,0,0,1,51.95-4.65a6.226,6.226,0,0,1-4.6-1.6A7.229,7.229,0,0,1,45.6-11.2ZM45.6-15.7a7.113,7.113,0,0,1,.35-1.775,5.429,5.429,0,0,1,1-1.775,5.382,5.382,0,0,1,1.825-1.4A6.158,6.158,0,0,1,51.5-21.2a5.122,5.122,0,0,1,3.825,1.35A7.754,7.754,0,0,1,57.15-15.7ZM68.65,0h7.1V-35.7h-7.1ZM104.4-25.85H97.35L91.9-8.2h-.1L86.35-25.85H78.9L87.75,0h7.9ZM131.85-11.2v-.65a5.306,5.306,0,0,0,.05-.6,17.435,17.435,0,0,0-.825-5.4,13.889,13.889,0,0,0-2.4-4.5,11.108,11.108,0,0,0-3.95-3.075A12.528,12.528,0,0,0,119.3-26.55a13.724,13.724,0,0,0-5.35,1.025,12.169,12.169,0,0,0-4.2,2.875,12.944,12.944,0,0,0-2.7,4.35,15.076,15.076,0,0,0-.95,5.4,15.8,15.8,0,0,0,.925,5.475,12.513,12.513,0,0,0,2.65,4.35,11.523,11.523,0,0,0,4.175,2.8A14.621,14.621,0,0,0,119.3.7a13,13,0,0,0,7.575-2.125A12.278,12.278,0,0,0,131.4-8h-6.25a4.164,4.164,0,0,1-1.95,2.325,6.619,6.619,0,0,1-3.65,1.025,6.226,6.226,0,0,1-4.6-1.6,7.229,7.229,0,0,1-1.75-4.95ZM113.2-15.7a7.112,7.112,0,0,1,.35-1.775,5.429,5.429,0,0,1,1-1.775,5.382,5.382,0,0,1,1.825-1.4,6.158,6.158,0,0,1,2.725-.55,5.122,5.122,0,0,1,3.825,1.35,7.754,7.754,0,0,1,1.825,4.15Zm31.85-17.9h-7.1v7.75h-4.3v4.75h4.3V-5.85a6.733,6.733,0,0,0,.625,3.075,4.6,4.6,0,0,0,1.75,1.9,7.389,7.389,0,0,0,2.55.925A18.781,18.781,0,0,0,146.1.3a26.656,26.656,0,0,0,4.15-.25V-5.5a11.238,11.238,0,0,1-2.2.2,3.475,3.475,0,0,1-2.4-.6,3.475,3.475,0,0,1-.6-2.4V-21.1h5.2v-4.75h-5.2ZM153.85,0h7.1V-25.85h-7.1Zm7.1-35.7h-7.1v5.85h7.1ZM191.1-16.75A9.241,9.241,0,0,0,187.325-24a13.766,13.766,0,0,0-8.375-2.55,14.45,14.45,0,0,0-5.575,1.025A11.332,11.332,0,0,0,169.2-22.6a12.8,12.8,0,0,0-2.575,4.475,17.222,17.222,0,0,0-.875,5.575,14.826,14.826,0,0,0,.925,5.325,11.993,11.993,0,0,0,2.675,4.2,12.151,12.151,0,0,0,4.175,2.75A14.011,14.011,0,0,0,178.8.7a12.855,12.855,0,0,0,8.475-2.75A11.631,11.631,0,0,0,191.25-9.9H184.4a6.428,6.428,0,0,1-1.8,3.85,5.308,5.308,0,0,1-3.85,1.4A5.05,5.05,0,0,1,176-5.375a5.386,5.386,0,0,1-1.825-1.9,9.366,9.366,0,0,1-1-2.6,13.113,13.113,0,0,1-.325-2.925,13.786,13.786,0,0,1,.325-2.975,9.544,9.544,0,0,1,1.025-2.7,5.531,5.531,0,0,1,1.9-1.975,5.172,5.172,0,0,1,2.8-.75q4.55,0,5.25,4.45ZM211.35-10a11.1,11.1,0,0,1-.15,1.775,5.759,5.759,0,0,1-.7,1.9A4.264,4.264,0,0,1,208.75-4.7a6.605,6.605,0,0,1-3.15.65,6.011,6.011,0,0,1-3.175-.725A2.78,2.78,0,0,1,201.25-7.35a3.009,3.009,0,0,1,1.1-2.575,7.665,7.665,0,0,1,3.1-1.225q.65-.1,1.7-.25,1.65-.25,2.625-.5a3.964,3.964,0,0,0,1.575-.75Zm-9.3-7.9a4.05,4.05,0,0,1,1.4-2.975,5.283,5.283,0,0,1,3.3-.925,6.806,6.806,0,0,1,3.4.7,2.968,2.968,0,0,1,1.2,2.8,2.1,2.1,0,0,1-1.45,2.15,22,22,0,0,1-4.65.95q-1.3.15-2.3.3a21.765,21.765,0,0,0-3.4.7,9.565,9.565,0,0,0-2.725,1.3,6,6,0,0,0-1.95,2.3,7.881,7.881,0,0,0-.725,3.55,6.981,6.981,0,0,0,2.45,5.775A9.8,9.8,0,0,0,202.95.7a14.861,14.861,0,0,0,4.825-.775A9.636,9.636,0,0,0,211.65-2.5a9.738,9.738,0,0,0,.5,2.5h7.2a6.38,6.38,0,0,1-.675-2.275,24.008,24.008,0,0,1-.225-3.475V-19.2a6.4,6.4,0,0,0-1-3.675,6.677,6.677,0,0,0-2.625-2.275,12.271,12.271,0,0,0-3.6-1.1,27.451,27.451,0,0,0-4.125-.3,21.767,21.767,0,0,0-4.375.425,12.152,12.152,0,0,0-3.8,1.45,8.12,8.12,0,0,0-2.775,2.7,8.559,8.559,0,0,0-1.2,4.075Z" transform="translate(580 2470)"/>
    <path id="패스_315" data-name="패스 315" d="M3.64,0h5.6V-11.88c0-3.4-.44-7.12-.72-10.32h.2l3,6.36L20.28,0h6V-29.6h-5.6v11.8c0,3.36.44,7.28.76,10.36h-.2l-2.96-6.4L9.68-29.6H3.64ZM42.48.56c5.6,0,10.76-4.32,10.76-11.72,0-7.48-5.16-11.8-10.76-11.8s-10.76,4.32-10.76,11.8C31.72-3.76,36.88.56,42.48.56Zm0-4.8c-3.04,0-4.76-2.72-4.76-6.92,0-4.24,1.72-7,4.76-7s4.76,2.76,4.76,7C47.24-6.96,45.52-4.24,42.48-4.24ZM65.24.56a14.476,14.476,0,0,0,4.72-.84L69-4.56a6.545,6.545,0,0,1-2.2.48c-2,0-3.04-1.2-3.04-3.76v-9.92h5.52V-22.4H63.76v-6H58.84l-.68,6-3.44.28v4.36h3.16v9.92C57.88-2.8,59.92.56,65.24.56Zm17.2,0c5.6,0,10.76-4.32,10.76-11.72,0-7.48-5.16-11.8-10.76-11.8s-10.76,4.32-10.76,11.8C71.68-3.76,76.84.56,82.44.56Zm0-4.8c-3.04,0-4.76-2.72-4.76-6.92,0-4.24,1.72-7,4.76-7s4.76,2.76,4.76,7C87.2-6.96,85.48-4.24,82.44-4.24ZM116.52.56c6.84,0,10.88-4.12,10.88-8.96,0-4.28-2.36-6.56-5.96-8.04l-3.88-1.64c-2.52-1-4.64-1.76-4.64-3.88,0-1.96,1.68-3.12,4.28-3.12a9.442,9.442,0,0,1,6.28,2.44l3-3.72a13.136,13.136,0,0,0-9.28-3.8c-6,0-10.24,3.72-10.24,8.56,0,4.32,3,6.72,6,7.96l3.96,1.68c2.64,1.12,4.44,1.8,4.44,4,0,2.08-1.64,3.4-4.72,3.4a11.646,11.646,0,0,1-7.52-3.28l-3.4,4.08A15.773,15.773,0,0,0,116.52.56Zm21.16,0a10.533,10.533,0,0,0,6.76-2.96h.12L145,0h4.8V-13.08c0-6.48-2.92-9.88-8.6-9.88A17.9,17.9,0,0,0,131.84-20l2.12,3.88a12.656,12.656,0,0,1,6.16-2.12c2.76,0,3.72,1.68,3.8,3.88-9,.96-12.88,3.48-12.88,8.28A6.363,6.363,0,0,0,137.68.56Zm1.92-4.6c-1.72,0-2.96-.76-2.96-2.52,0-2,1.84-3.48,7.28-4.2v4.52C142.52-4.84,141.28-4.04,139.6-4.04ZM155.8,0h5.84V-15.4c1.68-1.64,2.84-2.52,4.68-2.52,2.2,0,3.16,1.24,3.16,4.68V0h5.88V-13.96c0-5.64-2.08-9-6.92-9-3.04,0-5.32,1.6-7.28,3.52H161l-.4-2.96h-4.8Zm32.04.56c5.84,0,8.92-3.16,8.92-7.08,0-4.16-3.28-5.64-6.24-6.76-2.36-.88-4.56-1.48-4.56-3.12,0-1.28.96-2.16,2.96-2.16a8.623,8.623,0,0,1,4.84,1.92l2.64-3.56a12.538,12.538,0,0,0-7.64-2.76c-5.04,0-8.32,2.84-8.32,6.88,0,3.72,3.28,5.44,6.12,6.52,2.36.92,4.68,1.68,4.68,3.36,0,1.4-1,2.36-3.24,2.36a9.725,9.725,0,0,1-6-2.44L179.32-2.6A14.114,14.114,0,0,0,187.84.56Zm35.04,0a11.979,11.979,0,0,0,9.44-4.36L229.2-7.48a8.231,8.231,0,0,1-6.12,2.92c-4.68,0-7.72-3.88-7.72-10.32,0-6.36,3.36-10.2,7.84-10.2a7.634,7.634,0,0,1,5.44,2.48l3.12-3.76a12.074,12.074,0,0,0-8.68-3.8c-7.48,0-13.76,5.72-13.76,15.48C209.32-4.8,215.4.56,222.88.56Zm20.16,0C249.4.56,252.2-4,252.2-9.56V-29.6h-5.92v19.56c0,4.08-1.36,5.48-3.96,5.48-1.68,0-3.24-.92-4.4-3.08l-4.08,3A9.771,9.771,0,0,0,243.04.56ZM259.32,0h5.92V-8.32l3.88-4.96L276.76,0h6.52L272.64-17.96l9.04-11.64h-6.52l-9.8,12.84h-.12V-29.6h-5.92Zm36.52,0h5.92V-8.32l3.88-4.96L313.28,0h6.52L309.16-17.96,318.2-29.6h-6.52l-9.8,12.84h-.12V-29.6h-5.92ZM329.2-24.92h3.84c3.8,0,5.88,1.08,5.88,4.28,0,3.16-2.08,4.76-5.88,4.76H329.2ZM346,0l-6.92-12.12c3.4-1.32,5.64-4.08,5.64-8.52,0-6.8-4.92-8.96-11.12-8.96H323.28V0h5.92V-11.2h4.12L339.4,0Z" transform="translate(896 2468)"/>
    <path id="패스_316" data-name="패스 316" d="M11.6-9.32c-2.76,0-4.6-2.92-4.6-8.4,0-5.44,1.84-8.36,4.6-8.36,2.72,0,4.6,2.92,4.6,8.36C16.2-12.24,14.32-9.32,11.6-9.32Zm0-21.52c-5.6,0-9.68,5.04-9.68,13.12C1.92-9.6,6-4.52,11.6-4.52c5.56,0,9.68-5.08,9.68-13.2C21.28-25.8,17.16-30.84,11.6-30.84ZM35.92-19.52H30.56V-33.4H25.28V3.44h5.28v-18.6h5.36Zm9.84-5.52h2.72v15.6c-.88.08-1.84.12-2.72.12Zm7.44,0h2.36v-4.2H38.8v4.2h2.24V-9.2H38.16l.56,4.28c4.56,0,12-.12,17.72-1.36l-.36-3.8c-.88.12-1.88.2-2.88.32Zm4.96,5.08H54.64v4.6h3.52V1.76h4.92v-34.4H58.16ZM65.48-33.4V3.48h5V-33.4Zm26.16,3.52h-4.6V-24c0,3.6-.12,7.72-1.84,11.2-1.72-3.48-1.84-7.68-1.84-11.2v-5.88H78.8V-24c0,5.08-.32,10.92-4.4,14.36L77.36-6a11.882,11.882,0,0,0,3.72-5.96A12.478,12.478,0,0,0,85.2-5.44a12.665,12.665,0,0,0,4.08-6.52,12.283,12.283,0,0,0,3.76,6.04L96-9.6c-4.04-3.44-4.36-9.2-4.36-14.4Zm4.48,8.36H93.2v4.4h2.92V1.76h4.84V-32.8H96.12Zm6.96-11.88V3.44H108V-33.4Z" transform="translate(1015 2568)"/>
    <path id="패스_317" data-name="패스 317" d="M-.28,0H6.08L8.32-6.36H19L21.16,0h6.52L17-28.56H10.56ZM13.68-21.52h.08l3.6,10.48H9.96ZM29.8,0h6.28V-6.16H29.8ZM41.28,0h6.28V-10.24h6.6a12.258,12.258,0,0,0,4.46-.74,8.172,8.172,0,0,0,3.1-2.04,8.2,8.2,0,0,0,1.76-2.94,10.571,10.571,0,0,0,.56-3.44,10.571,10.571,0,0,0-.56-3.44,8.2,8.2,0,0,0-1.76-2.94,8.172,8.172,0,0,0-3.1-2.04,12.258,12.258,0,0,0-4.46-.74H41.28Zm6.28-23.68h4.88a13.216,13.216,0,0,1,2.16.16,4.786,4.786,0,0,1,1.74.64,3.192,3.192,0,0,1,1.2,1.32,4.831,4.831,0,0,1,.42,2.16,4.831,4.831,0,0,1-.42,2.16,3.062,3.062,0,0,1-1.2,1.3,5.328,5.328,0,0,1-1.74.64,11.779,11.779,0,0,1-2.16.18H47.56ZM67.6,0h6.28V-6.16H67.6Zm36.6-18.96a11.682,11.682,0,0,0-1.34-4.36,10.69,10.69,0,0,0-2.72-3.24,11.807,11.807,0,0,0-3.78-2,14.58,14.58,0,0,0-4.48-.68,14.54,14.54,0,0,0-5.86,1.14,12.486,12.486,0,0,0-4.44,3.2,14.274,14.274,0,0,0-2.78,4.82,17.9,17.9,0,0,0-.96,5.92,17.3,17.3,0,0,0,.96,5.8,13.91,13.91,0,0,0,2.78,4.74A12.721,12.721,0,0,0,86.02-.46,14.54,14.54,0,0,0,91.88.68a13.64,13.64,0,0,0,4.8-.82,11.534,11.534,0,0,0,3.86-2.36,11.675,11.675,0,0,0,2.66-3.7,14.454,14.454,0,0,0,1.24-4.8H98.36a7.945,7.945,0,0,1-2.02,4.66A5.874,5.874,0,0,1,91.88-4.6a7.454,7.454,0,0,1-3.52-.78,6.686,6.686,0,0,1-2.42-2.14,9.532,9.532,0,0,1-1.38-3.06,14.236,14.236,0,0,1-.44-3.58,15.289,15.289,0,0,1,.44-3.72A9.725,9.725,0,0,1,85.92-21a6.643,6.643,0,0,1,2.42-2.16,7.419,7.419,0,0,1,3.54-.8,6.469,6.469,0,0,1,4.16,1.44,5.339,5.339,0,0,1,2.08,3.56ZM108.36,0h6.28V-6.16h-6.28Z" transform="translate(632 2566)"/>
    <path id="패스_318" data-name="패스 318" d="M11.3-15.9h8.55A6.382,6.382,0,0,1,24-14.675,4.715,4.715,0,0,1,25.5-10.8a4.069,4.069,0,0,1-1.575,3.625A7.38,7.38,0,0,1,19.7-6.1H11.3ZM3.45,0h17.3A17.671,17.671,0,0,0,25.5-.625a12.625,12.625,0,0,0,4.025-1.9,9.1,9.1,0,0,0,2.8-3.25A9.794,9.794,0,0,0,33.35-10.35a9.764,9.764,0,0,0-1.675-5.775A8.56,8.56,0,0,0,26.8-19.4a7.794,7.794,0,0,0,4.85-7.45q0-4.75-2.975-6.8T20.25-35.7H3.45ZM11.3-29.6h7.35a7.651,7.651,0,0,1,3.925.875A3.432,3.432,0,0,1,24.05-25.5a3.869,3.869,0,0,1-1.3,3.2,5.409,5.409,0,0,1-3.5,1.05H11.3ZM38.1,0h7.1V-35.7H38.1ZM66.9-10a11.1,11.1,0,0,1-.15,1.775,5.758,5.758,0,0,1-.7,1.9A4.264,4.264,0,0,1,64.3-4.7a6.605,6.605,0,0,1-3.15.65,6.011,6.011,0,0,1-3.175-.725A2.78,2.78,0,0,1,56.8-7.35a3.009,3.009,0,0,1,1.1-2.575A7.665,7.665,0,0,1,61-11.15q.65-.1,1.7-.25,1.65-.25,2.625-.5a3.964,3.964,0,0,0,1.575-.75Zm-9.3-7.9A4.05,4.05,0,0,1,59-20.875a5.283,5.283,0,0,1,3.3-.925,6.806,6.806,0,0,1,3.4.7,2.968,2.968,0,0,1,1.2,2.8,2.1,2.1,0,0,1-1.45,2.15,22,22,0,0,1-4.65.95q-1.3.15-2.3.3a21.765,21.765,0,0,0-3.4.7,9.565,9.565,0,0,0-2.725,1.3,6,6,0,0,0-1.95,2.3A7.881,7.881,0,0,0,49.7-7.05a6.981,6.981,0,0,0,2.45,5.775A9.8,9.8,0,0,0,58.5.7a14.861,14.861,0,0,0,4.825-.775A9.636,9.636,0,0,0,67.2-2.5,9.738,9.738,0,0,0,67.7,0h7.2a6.38,6.38,0,0,1-.675-2.275A24.009,24.009,0,0,1,74-5.75V-19.2a6.4,6.4,0,0,0-1-3.675,6.677,6.677,0,0,0-2.625-2.275,12.271,12.271,0,0,0-3.6-1.1,27.451,27.451,0,0,0-4.125-.3,21.767,21.767,0,0,0-4.375.425,12.152,12.152,0,0,0-3.8,1.45,8.12,8.12,0,0,0-2.775,2.7A8.559,8.559,0,0,0,50.5-17.9Zm46.45,1.15A9.241,9.241,0,0,0,100.275-24,13.766,13.766,0,0,0,91.9-26.55a14.45,14.45,0,0,0-5.575,1.025A11.332,11.332,0,0,0,82.15-22.6a12.8,12.8,0,0,0-2.575,4.475A17.221,17.221,0,0,0,78.7-12.55a14.826,14.826,0,0,0,.925,5.325,11.993,11.993,0,0,0,2.675,4.2,12.151,12.151,0,0,0,4.175,2.75A14.011,14.011,0,0,0,91.75.7a12.855,12.855,0,0,0,8.475-2.75A11.631,11.631,0,0,0,104.2-9.9H97.35a6.427,6.427,0,0,1-1.8,3.85,5.308,5.308,0,0,1-3.85,1.4,5.05,5.05,0,0,1-2.75-.725,5.386,5.386,0,0,1-1.825-1.9,9.366,9.366,0,0,1-1-2.6A13.113,13.113,0,0,1,85.8-12.8a13.786,13.786,0,0,1,.325-2.975,9.545,9.545,0,0,1,1.025-2.7,5.532,5.532,0,0,1,1.9-1.975,5.172,5.172,0,0,1,2.8-.75q4.55,0,5.25,4.45ZM108.85,0h7.1V-8.9l2.75-2.65L125.8,0h8.6L123.55-16.35l9.75-9.5h-8.4l-8.95,9.3V-35.7h-7.1ZM167.2-27.95a4.255,4.255,0,0,1-.9,2.825,12.41,12.41,0,0,1-2.75,2.275,6.742,6.742,0,0,0-.45-.55,15.8,15.8,0,0,1-1.775-2.425,4.773,4.773,0,0,1-.575-2.375,2.971,2.971,0,0,1,.95-2.25,3.162,3.162,0,0,1,2.25-.9,3.081,3.081,0,0,1,2.275,1A3.316,3.316,0,0,1,167.2-27.95Zm.35,19.65a10.691,10.691,0,0,1-2.775,2.35,6.473,6.473,0,0,1-3.225.8,5.168,5.168,0,0,1-3.575-1.375A4.317,4.317,0,0,1,156.45-9.85a4.837,4.837,0,0,1,1.425-3.475,11.18,11.18,0,0,1,3.575-2.425ZM174.2,0h8.7l-7.25-8.45a16.146,16.146,0,0,0,2.325-4.075A17.642,17.642,0,0,0,179.1-17.25h-6.15a12.993,12.993,0,0,1-1.3,4.25l-4.6-5.65a13.955,13.955,0,0,0,4.65-3.75,8.181,8.181,0,0,0,1.7-5.15,7.64,7.64,0,0,0-2.775-6.325A10.875,10.875,0,0,0,163.6-36.1a10.629,10.629,0,0,0-3.475.575,9.463,9.463,0,0,0-3,1.675,8,8,0,0,0-2.075,2.6,7.275,7.275,0,0,0-.75,3.3,8.378,8.378,0,0,0,.85,3.8,21.576,21.576,0,0,0,2.55,3.8,17.136,17.136,0,0,0-5.75,4.25A9.028,9.028,0,0,0,149.7-10a10,10,0,0,0,3.35,7.9,10.867,10.867,0,0,0,3.675,2.075A13.919,13.919,0,0,0,161.25.7,13.7,13.7,0,0,0,166.7-.35a14.732,14.732,0,0,0,4.6-3.2Zm69.1-35.7h-7.7l-5.85,24.6h-.1l-6.1-24.6H216.2L210-11.4h-.1l-5.65-24.3H196.4L205.85,0h7.95l5.95-24.3h.1L225.9,0h7.8ZM246.15,0h7.1V-13.55q0-3.95,1.3-5.675a4.919,4.919,0,0,1,4.2-1.725,3.917,3.917,0,0,1,3.5,1.55,8.686,8.686,0,0,1,1.05,4.8V0h7.1V-15.9a20.924,20.924,0,0,0-.425-4.475,8.113,8.113,0,0,0-1.5-3.3A6.911,6.911,0,0,0,265.55-25.8a12.3,12.3,0,0,0-4.6-.75,8.836,8.836,0,0,0-4.175,1.1,8.747,8.747,0,0,0-3.375,3.2h-.15V-35.7h-7.1ZM276,0h7.1V-25.85H276Zm7.1-35.7H276v5.85h7.1Zm14.6,2.1h-7.1v7.75h-4.3v4.75h4.3V-5.85a6.733,6.733,0,0,0,.625,3.075,4.6,4.6,0,0,0,1.75,1.9,7.39,7.39,0,0,0,2.55.925A18.782,18.782,0,0,0,298.75.3,26.656,26.656,0,0,0,302.9.05V-5.5a11.238,11.238,0,0,1-2.2.2,3.475,3.475,0,0,1-2.4-.6,3.475,3.475,0,0,1-.6-2.4V-21.1h5.2v-4.75h-5.2Zm33.1,22.4v-.65a5.306,5.306,0,0,0,.05-.6,17.435,17.435,0,0,0-.825-5.4,13.888,13.888,0,0,0-2.4-4.5,11.108,11.108,0,0,0-3.95-3.075,12.528,12.528,0,0,0-5.425-1.125,13.724,13.724,0,0,0-5.35,1.025,12.169,12.169,0,0,0-4.2,2.875A12.944,12.944,0,0,0,306-18.3a15.077,15.077,0,0,0-.95,5.4,15.8,15.8,0,0,0,.925,5.475,12.513,12.513,0,0,0,2.65,4.35,11.523,11.523,0,0,0,4.175,2.8A14.621,14.621,0,0,0,318.25.7a13,13,0,0,0,7.575-2.125A12.278,12.278,0,0,0,330.35-8H324.1a4.164,4.164,0,0,1-1.95,2.325A6.619,6.619,0,0,1,318.5-4.65a6.226,6.226,0,0,1-4.6-1.6,7.229,7.229,0,0,1-1.75-4.95Zm-18.65-4.5a7.115,7.115,0,0,1,.35-1.775,5.429,5.429,0,0,1,1-1.775,5.382,5.382,0,0,1,1.825-1.4,6.158,6.158,0,0,1,2.725-.55,5.122,5.122,0,0,1,3.825,1.35A7.754,7.754,0,0,1,323.7-15.7Z" transform="translate(1337 2472)"/>
    <path id="패스_322" data-name="패스 322" d="M6.132-4.221c-1.827,0-3.108-1.974-3.108-5.04,0-3.045,1.281-5.019,3.108-5.019,1.806,0,3.087,1.974,3.087,5.019C9.219-6.2,7.938-4.221,6.132-4.221Zm0-11.613c-2.772,0-4.746,2.562-4.746,6.573S3.36-2.688,6.132-2.688s4.725-2.562,4.725-6.573S8.9-15.834,6.132-15.834ZM18.711-9.765H15.6v-7.5H13.881V1.554H15.6v-9.87h3.108ZM23.73-13.5h2.352v8.841c-.8.042-1.575.063-2.352.084Zm3.927,0h1.554v-1.386H20.6V-13.5h1.554v8.967c-.714.021-1.344.021-1.911.021l.168,1.428a56.686,56.686,0,0,0,9.324-.63l-.1-1.26c-.609.084-1.3.147-1.974.21Zm3.57,3.4H28.665v1.512h2.562V.567h1.617V-16.821H31.227Zm3.633-7.161V1.554h1.659V-17.262Zm13.062,1.869H46.389v3.759c0,1.743-.168,4.284-1.47,6.09a11.2,11.2,0,0,1-1.491-6.09v-3.759H41.9v3.759c0,2.079-.4,5.229-2.52,6.888l1.008,1.218a7.163,7.163,0,0,0,2.268-3.843A7.079,7.079,0,0,0,44.9-3.3a6.713,6.713,0,0,0,2.268-3.99,6.97,6.97,0,0,0,2.268,3.8l1.008-1.239c-2.1-1.617-2.52-4.7-2.52-6.909Zm3.108,4.62h-2.1v1.449h2.1V.609h1.6V-16.863h-1.6Zm3.423-6.489V1.554h1.638V-17.262ZM63.777-2.373V-.945H80.85V-2.373Zm2.016-13.545v9.807h13v-9.807h-1.68v3.444H67.494v-3.444Zm1.7,4.83h9.618v3.57H67.494Zm27.321.861h2.52v6.972h1.659V-17.262H97.335v5.628h-2.52v-5.292H93.177V-3.8h1.638ZM92.106-8a30.758,30.758,0,0,1-6.489.546V-10.29h5.376v-5.355H83.916v1.386h5.418v2.667H83.958v5.544H85.2a34.656,34.656,0,0,0,7.077-.567ZM88.431-.273V-4.515H86.709V1.134H99.54V-.273Zm29.085-7.98H106.281v-5.88h11.046v-1.428H104.58v8.715h12.936ZM102.4-2.415V-.987H119.49V-2.415Zm33.432.231V-5.733h6.027V-7.119H130.263v-3.045h11.151V-15.9H128.52v1.407h11.214v2.94H128.562v5.817h5.523v3.549H126.42V-.777h17.115V-2.184Zm23.226-11.34A40.215,40.215,0,0,1,158.34-5l1.722.189a42.462,42.462,0,0,0,.714-8.715v-1.869H147.567v1.407h11.487ZM154.119-2.5V-9.24H152.4V-2.5h-6.615v1.407h17.031V-2.5Zm15.225-1.68c-1.512,0-2.457-1.911-2.457-5,0-3.024.945-4.935,2.457-4.935,1.47,0,2.436,1.911,2.436,4.935C171.78-6.09,170.814-4.179,169.344-4.179Zm6.363-5.775h-2.373c-.21-3.549-1.722-5.754-3.99-5.754-2.457,0-4.032,2.52-4.032,6.531,0,4.074,1.575,6.594,4.032,6.594,2.31,0,3.843-2.268,3.99-5.964h2.373V.63h1.638V-16.863h-1.638Zm3.738-7.329V1.554h1.638V-17.283Zm15.981,1.638h-1.7v3.381a9.98,9.98,0,0,1-4.851,8.421L189.9-2.457a10.432,10.432,0,0,0,4.683-6.237,10.39,10.39,0,0,0,4.557,5.859L200.214-4.2a9.512,9.512,0,0,1-4.788-8.064ZM206.7-9.639h-3.108v-7.623h-1.722V1.554h1.722V-8.211H206.7ZM216.93.21c-2.961,0-4.7-.735-4.7-2.016s1.743-2.016,4.7-2.016c2.94,0,4.7.735,4.7,2.016S219.87.21,216.93.21Zm0-5.376c-4.032,0-6.447,1.2-6.447,3.36s2.415,3.339,6.447,3.339c4.053,0,6.447-1.176,6.447-3.339S220.983-5.166,216.93-5.166Zm-2.6-5a16.348,16.348,0,0,0,2.6.21,16.417,16.417,0,0,0,2.625-.21v2.205h-5.229Zm-2.247-3.276c0-1.365,1.848-2.163,4.851-2.163s4.851.8,4.851,2.163c0,1.344-1.848,2.163-4.851,2.163S212.079-12.1,212.079-13.44Zm9.177,5.481v-2.667a3.108,3.108,0,0,0,2.289-2.814c0-2.205-2.52-3.507-6.615-3.507-4.074,0-6.615,1.3-6.615,3.507,0,1.281.819,2.226,2.31,2.835v2.646H208.4v1.386h17.052V-7.959Zm21.9-9.324h-1.722V-3.192h1.722ZM239.925-7.5c-1.617.189-3.318.294-5.061.378v-2.6H238.6v-1.386h-7.371v-3.549h7.245v-1.407h-8.967v6.342h3.633v2.667c-1.848.063-3.675.084-5.313.084l.252,1.407a89.058,89.058,0,0,0,11.97-.693ZM232.7-.273V-4.116h-1.722v5.25h12.81V-.273Zm34.965-16.989h-1.659V-6.741h1.659Zm-7.14,4.935v1.386H262.6v4.074h1.638v-10.1H262.6v4.641Zm.462-3.108h-3.8v-1.89h-1.7v1.89h-3.822v1.323h9.324Zm-7.035,5.208c0-1.134.966-1.869,2.394-1.869,1.407,0,2.373.735,2.373,1.869s-.966,1.869-2.373,1.869C254.919-8.358,253.953-9.093,253.953-10.227Zm6.279,0c0-1.89-1.6-3.129-3.885-3.129-2.31,0-3.906,1.239-3.906,3.129,0,1.869,1.6,3.108,3.906,3.108C258.636-7.119,260.232-8.358,260.232-10.227ZM256.977.042V-1.743h10.689V-5.9H255.234V-4.62h10.731v1.638H255.276V1.344h13.062V.042Zm20.391-4.62H273.4V-9.45h3.969Zm4.347-5.544h-2.73v-5.292h-1.617v4.578H273.4v-4.578h-1.638V-3.171h7.224V-8.715h2.73V.63h1.638V-16.863h-1.638Zm3.738-7.161V1.554h1.638V-17.283ZM293.307-8.9h6.741V-10.29h-6.741v-3.885h7.434v-1.407h-9.135v12.6H293.1a50.047,50.047,0,0,0,9.051-.63l-.168-1.407a46.089,46.089,0,0,1-8.673.63Zm10.836-8.379V1.533h1.722V-17.283Zm6.783,1.953v1.407h6.783a14.063,14.063,0,0,1-.567,3.3l-7.161.483.294,1.512,6.342-.609a13.417,13.417,0,0,1-6.72,6.384l.945,1.323c6.741-3.36,8.589-8.337,8.589-13.8Zm16.317,5.691h-3.024v-7.644H322.5V1.554h1.722V-8.211h3.024Zm14.994-4.347h-11v4.032h13.041v-1.239h-11.34V-12.81h11v-3.927H331.191v1.218h11.046ZM332.829-1.68H344V-5.691H331.086v1.239H342.3v1.575H331.128V1.3h13.461V.063h-11.76Zm-3.78-6.846v1.3h17.073v-1.3Zm30.345-7.119h-1.7v3.381a9.98,9.98,0,0,1-4.851,8.421l1.029,1.386a10.432,10.432,0,0,0,4.683-6.237,10.39,10.39,0,0,0,4.557,5.859L364.182-4.2a9.512,9.512,0,0,1-4.788-8.064Zm11.277,6.006h-3.108v-7.623h-1.722V1.554h1.722V-8.211h3.108ZM380.9.21c-2.961,0-4.7-.735-4.7-2.016s1.743-2.016,4.7-2.016c2.94,0,4.7.735,4.7,2.016S383.838.21,380.9.21Zm0-5.376c-4.032,0-6.447,1.2-6.447,3.36s2.415,3.339,6.447,3.339c4.053,0,6.447-1.176,6.447-3.339S384.951-5.166,380.9-5.166Zm-2.6-5a16.348,16.348,0,0,0,2.6.21,16.417,16.417,0,0,0,2.625-.21v2.205h-5.229Zm-2.247-3.276c0-1.365,1.848-2.163,4.851-2.163s4.851.8,4.851,2.163c0,1.344-1.848,2.163-4.851,2.163S376.047-12.1,376.047-13.44Zm9.177,5.481v-2.667a3.108,3.108,0,0,0,2.289-2.814c0-2.205-2.52-3.507-6.615-3.507-4.074,0-6.615,1.3-6.615,3.507,0,1.281.819,2.226,2.31,2.835v2.646h-4.221v1.386h17.052V-7.959Zm12.012,3.885a2.824,2.824,0,0,1-2.94-2.9,2.829,2.829,0,0,1,2.94-2.919A2.835,2.835,0,0,1,400.2-6.972,2.83,2.83,0,0,1,397.236-4.074Zm0-7.245a4.294,4.294,0,0,0-4.557,4.347,4.265,4.265,0,0,0,4.557,4.326,4.278,4.278,0,0,0,4.6-4.326A4.306,4.306,0,0,0,397.236-11.319Zm.84-5.733h-1.722v2.793h-4.746v1.386h11.109v-1.386h-4.641Zm11.235,7.518h-3.087v-7.728H404.5V1.554h1.722V-8.085h3.087Zm6.846-5.271a2.983,2.983,0,0,1,3.192,2.982,3,3,0,0,1-3.192,3,2.993,2.993,0,0,1-3.171-3A2.977,2.977,0,0,1,416.157-14.805Zm8.652,1.554v2.814h-4.032a4.8,4.8,0,0,0,.21-1.386,4.522,4.522,0,0,0-.231-1.428Zm0,4.221v2.478h1.743v-10.71h-1.743v2.6h-4.851a4.954,4.954,0,0,0-3.8-1.6c-2.772,0-4.809,1.827-4.809,4.431a4.482,4.482,0,0,0,4.809,4.452,4.992,4.992,0,0,0,3.864-1.659Zm-.315,3.087h-1.68V-4.7a5.655,5.655,0,0,1-2.667,4.536A5.255,5.255,0,0,1,417.522-4.7V-5.943h-1.659V-4.7a5.445,5.445,0,0,1-3.78,4.767l.861,1.281a6.717,6.717,0,0,0,3.717-3.507,6.011,6.011,0,0,0,3.507,3.654,6.452,6.452,0,0,0,3.465-3.717,6.4,6.4,0,0,0,3.8,3.57L428.3.063a5.218,5.218,0,0,1-3.8-4.767Zm14.364-10.164c-3.906,0-6.846,2.079-6.846,5.208,0,3.15,2.94,5.208,6.846,5.208S445.7-7.749,445.7-10.9C445.7-14.028,442.764-16.107,438.858-16.107Zm0,1.407c2.982,0,5.208,1.533,5.208,3.8,0,2.289-2.226,3.8-5.208,3.8-2.961,0-5.208-1.512-5.208-3.8C433.65-13.167,435.9-14.7,438.858-14.7ZM430.332-2.373V-.945h17.115V-2.373ZM459-7.581v-3.78h4.473v3.78Zm-1.7,3h-5.187V-14.07H457.3Zm6.174-12.705v4.515H459v-2.667h-8.568V-3.213H459V-6.174h4.473V1.6h1.722V-17.283ZM479.976-4.578h-3.969V-9.45h3.969Zm4.347-5.544h-2.73v-5.292h-1.617v4.578h-3.969v-4.578h-1.638V-3.171h7.224V-8.715h2.73V.63h1.638V-16.863h-1.638Zm3.738-7.161V1.554H489.7V-17.283Zm18.648,0V1.6h1.722V-17.283ZM498.5-15.834c-2.793,0-4.788,2.562-4.788,6.573s1.995,6.573,4.788,6.573,4.788-2.562,4.788-6.573S501.291-15.834,498.5-15.834Zm0,1.554c1.827,0,3.129,1.974,3.129,5.019,0,3.066-1.3,5.04-3.129,5.04-1.848,0-3.15-1.974-3.15-5.04C495.348-12.306,496.65-14.28,498.5-14.28Zm25.347,6.195c-2.772-.924-4.725-3.213-4.725-5.733v-.756h4.263V-15.96H513.051v1.386h4.3v.756a6.744,6.744,0,0,1-4.767,6.111l.9,1.344A7.953,7.953,0,0,0,518.259-11a8,8,0,0,0,4.746,4.284Zm-8.652,4.578h10.878V1.554h1.722V-4.893h-12.6Zm10.878-13.776v11.4h1.722v-11.4ZM537.18-4.074a2.824,2.824,0,0,1-2.94-2.9,2.829,2.829,0,0,1,2.94-2.919,2.835,2.835,0,0,1,2.961,2.919A2.83,2.83,0,0,1,537.18-4.074Zm0-7.245a4.294,4.294,0,0,0-4.557,4.347,4.265,4.265,0,0,0,4.557,4.326,4.278,4.278,0,0,0,4.6-4.326A4.306,4.306,0,0,0,537.18-11.319Zm.84-5.733H536.3v2.793h-4.746v1.386h11.109v-1.386H538.02Zm11.235,7.518h-3.087v-7.728h-1.722V1.554h1.722V-8.085h3.087Zm15.015-3.99A40.216,40.216,0,0,1,563.556-5l1.722.189a42.462,42.462,0,0,0,.714-8.715v-1.869H552.783v1.407H564.27ZM559.335-2.5V-9.24h-1.722V-2.5H551v1.407h17.031V-2.5ZM586.4-8.757a6.524,6.524,0,0,1-4.767-5.943v-1.827h-1.722V-14.7a6.915,6.915,0,0,1-4.788,6.321l.882,1.344a8.1,8.1,0,0,0,4.788-4.746,7.976,7.976,0,0,0,4.746,4.389Zm-6.447,4.641h8.82V-.084h-8.82ZM578.277,1.3h12.18V-5.481h-12.18Zm10.458-18.564v10.71h1.722v-10.71Zm16.422,5.481h-4.683v-3.591h4.683Zm-6.4,0h-2.793v1.323h13.692v-1.323h-2.772v-3.591h2.835v-1.323H595.9v1.323h2.856ZM598.1-1.722h11.067V-5.859h-12.81v1.281h11.109v1.617H596.421V1.344h13.314V.042H598.1Zm-3.8-7.161v1.365h17.052V-8.883Zm30.513-6.09h-4.7v-2.289h-1.722v2.289H613.7v1.386h11.109Zm-8.421,5.922c0-1.3,1.134-2.142,2.856-2.142,1.7,0,2.877.84,2.877,2.142,0,1.323-1.176,2.163-2.877,2.163C617.526-6.888,616.392-7.728,616.392-9.051Zm7.371,0c0-2.1-1.848-3.486-4.515-3.486s-4.494,1.386-4.494,3.486c0,2.121,1.827,3.507,4.494,3.507S623.763-6.93,623.763-9.051Zm-5.5,4.788h-1.722v5.4H629.1V-.273H618.261Zm10-6.8v-6.2h-1.722V-3.15h1.722V-9.618h2.793v-1.449Zm24.528,2.31H641.466v-6.867h-1.722V-7.35h13.041Zm-15.141,6.3v1.428h17.094V-2.457Zm26.313-4.116c3.108-2.562,4.095-5.67,4.095-9.471h-4.683v1.407h3.066a9.352,9.352,0,0,1-3.717,7.077Zm-6.279-9.471v1.407H661a7.633,7.633,0,0,1-3.8,6.111l1.113,1.092c3.171-2.205,4.347-4.851,4.347-8.61Zm4.137,11.928h8.9V-.084h-8.9ZM660.135,1.3H672.42V-5.481H660.135ZM670.7-17.283v10.9h1.722v-10.9Zm14.112,1.617c3.087,0,4.851.714,4.851,1.974s-1.764,1.974-4.851,1.974-4.851-.714-4.851-1.974S681.723-15.666,684.81-15.666Zm0,5.229c4.137,0,6.615-1.134,6.615-3.255s-2.478-3.276-6.615-3.276-6.615,1.155-6.615,3.276S680.673-10.437,684.81-10.437Zm-4.725,8.526h11.067V-6.153h-12.81v1.3h11.109v1.68H678.405V1.344h13.314V0H680.085Zm-3.8-7.245V-7.77h17.052V-9.156Zm25.494-1.2c3.129-.294,5.943-1.491,7.077-3.36,1.134,1.869,3.948,3.066,7.056,3.36l.546-1.3c-3.339-.294-6.342-1.722-6.573-3.612h5.943v-1.365H701.883v1.365h5.943c-.252,1.89-3.276,3.318-6.594,3.612Zm15.582,2.31V-9.429H700.308v1.386h7.665v1.869h-5.607v1.3h11.109v1.785H702.429V1.344h13.314V.021H704.109V-1.848h11.067V-6.174h-5.46V-8.043ZM740.565-10.1c-3.423-.5-6.783-2.835-6.783-5.46v-1.05h-1.806v1.05c0,2.688-3.318,4.956-6.741,5.46l.693,1.386c2.94-.5,5.775-2.121,6.951-4.41,1.218,2.268,4.053,3.906,6.972,4.41Zm.819,3.423h-17.01V-5.25h7.6V1.575H733.7V-5.25h7.707Zm22.449-10.584h-1.722V-6.51h1.722Zm-10.122,2.52a3.022,3.022,0,0,1,3.255,2.961,3.009,3.009,0,0,1-3.255,2.961,2.973,2.973,0,0,1-3.213-2.961A2.985,2.985,0,0,1,753.711-14.742Zm0,7.35c2.856,0,4.935-1.785,4.935-4.389s-2.079-4.389-4.935-4.389c-2.835,0-4.893,1.785-4.893,4.389S750.876-7.392,753.711-7.392Zm8.022,1.7h-1.68v1.008A5.556,5.556,0,0,1,757.344-.21a5.229,5.229,0,0,1-2.6-4.473V-5.691h-1.659v1.008A5.347,5.347,0,0,1,749.3,0l.861,1.3a6.615,6.615,0,0,0,3.717-3.486,6.011,6.011,0,0,0,3.507,3.654,6.551,6.551,0,0,0,3.486-3.717,6.278,6.278,0,0,0,3.78,3.549l.861-1.3a5.128,5.128,0,0,1-3.78-4.683ZM782.8-11.613H771.708V-16.59h-1.722v6.384H782.8Zm-11.214,7.2H769.86v5.5H782.9V-.315H771.582Zm-3.906-3.276V-6.3h17.073V-7.686Zm33.432,5.4v-5.04h5.754V-8.715h-11.34v-6.951H793.8v8.337h5.586v5.04H791.7V-.882h17.115V-2.289Zm19.32.084V-6.09h5.754V-7.5H814.968v-2.835h10.605V-11.7H814.968v-2.646h11.025V-15.75H813.225v9.66h5.481v3.885H811.02V-.777h17.115V-2.205Zm20.916-5.607a6.594,6.594,0,0,1-4.641-5.964v-2.373h-1.722v2.331a6.844,6.844,0,0,1-4.7,6.468l.9,1.365a7.813,7.813,0,0,0,4.7-4.788,7.922,7.922,0,0,0,4.6,4.326ZM835.023-4.7H833.3V1.134H845.8V-.273H835.023Zm9.954-6.8v-5.8h-1.722V-3.381h1.722v-6.7h2.793v-1.428Zm20.937,3.7c-3.3-.63-6.867-3.486-6.867-6.7V-15.96h-1.806v1.449c0,3.213-3.549,6.048-6.846,6.7l.777,1.428a10.344,10.344,0,0,0,6.972-5.439,10.221,10.221,0,0,0,6.993,5.439ZM849.681-2.394V-.966h17.073V-2.394ZM874.692,0h1.953V-4.872l2.646-3.15L883.89,0h2.184l-5.565-9.534,4.809-5.859h-2.184l-6.426,7.728h-.063v-7.728h-1.953Zm15.519-13.818h2.583c2.415,0,3.738.714,3.738,2.751,0,1.995-1.323,2.961-3.738,2.961h-2.583ZM898.926,0l-3.948-6.741a4.175,4.175,0,0,0,3.486-4.326c0-3.213-2.247-4.326-5.376-4.326h-4.83V0h1.953V-6.531h2.772L896.721,0Zm10.185-15.666c3.087,0,4.851.714,4.851,1.974s-1.764,1.974-4.851,1.974-4.851-.714-4.851-1.974S906.024-15.666,909.111-15.666Zm0,5.229c4.137,0,6.615-1.134,6.615-3.255s-2.478-3.276-6.615-3.276-6.615,1.155-6.615,3.276S904.974-10.437,909.111-10.437Zm-4.725,8.526h11.067V-6.153h-12.81v1.3h11.109v1.68H902.706V1.344H916.02V0H904.386Zm-3.8-7.245V-7.77h17.052V-9.156Zm30.366-6.489h-1.7v3.381A9.98,9.98,0,0,1,924.4-3.843l1.029,1.386a10.432,10.432,0,0,0,4.683-6.237,10.39,10.39,0,0,0,4.557,5.859L935.739-4.2a9.512,9.512,0,0,1-4.788-8.064Zm11.277,6.006H939.12v-7.623H937.4V1.554h1.722V-8.211h3.108ZM952.455.21c-2.961,0-4.7-.735-4.7-2.016s1.743-2.016,4.7-2.016c2.94,0,4.7.735,4.7,2.016S955.4.21,952.455.21Zm0-5.376c-4.032,0-6.447,1.2-6.447,3.36s2.415,3.339,6.447,3.339c4.053,0,6.447-1.176,6.447-3.339S956.508-5.166,952.455-5.166Zm-2.6-5a16.348,16.348,0,0,0,2.6.21,16.416,16.416,0,0,0,2.625-.21v2.205h-5.229ZM947.6-13.44c0-1.365,1.848-2.163,4.851-2.163s4.851.8,4.851,2.163c0,1.344-1.848,2.163-4.851,2.163S947.6-12.1,947.6-13.44Zm9.177,5.481v-2.667a3.108,3.108,0,0,0,2.289-2.814c0-2.205-2.52-3.507-6.615-3.507-4.074,0-6.615,1.3-6.615,3.507,0,1.281.819,2.226,2.31,2.835v2.646h-4.221v1.386h17.052V-7.959Zm12.012,3.885a2.824,2.824,0,0,1-2.94-2.9,2.829,2.829,0,0,1,2.94-2.919,2.835,2.835,0,0,1,2.961,2.919A2.83,2.83,0,0,1,968.793-4.074Zm0-7.245a4.294,4.294,0,0,0-4.557,4.347,4.265,4.265,0,0,0,4.557,4.326,4.278,4.278,0,0,0,4.6-4.326A4.306,4.306,0,0,0,968.793-11.319Zm.84-5.733h-1.722v2.793h-4.746v1.386h11.109v-1.386h-4.641Zm11.235,7.518h-3.087v-7.728h-1.722V1.554h1.722V-8.085h3.087Zm6.846-5.271a2.983,2.983,0,0,1,3.192,2.982,3,3,0,0,1-3.192,3,2.993,2.993,0,0,1-3.171-3A2.977,2.977,0,0,1,987.714-14.805Zm8.652,1.554v2.814h-4.032a4.8,4.8,0,0,0,.21-1.386,4.523,4.523,0,0,0-.231-1.428Zm0,4.221v2.478h1.743v-10.71h-1.743v2.6h-4.851a4.954,4.954,0,0,0-3.8-1.6c-2.772,0-4.809,1.827-4.809,4.431a4.482,4.482,0,0,0,4.809,4.452,4.992,4.992,0,0,0,3.864-1.659Zm-.315,3.087h-1.68V-4.7A5.655,5.655,0,0,1,991.7-.168,5.255,5.255,0,0,1,989.079-4.7V-5.943H987.42V-4.7A5.445,5.445,0,0,1,983.64.063l.861,1.281a6.717,6.717,0,0,0,3.717-3.507,6.011,6.011,0,0,0,3.507,3.654,6.452,6.452,0,0,0,3.465-3.717,6.4,6.4,0,0,0,3.8,3.57l.861-1.281a5.218,5.218,0,0,1-3.8-4.767Zm21.924-5.46c-3.339-.42-6.657-2.5-6.657-4.83v-.84h-1.764v.84c0,2.394-3.3,4.41-6.678,4.83l.63,1.386c2.94-.462,5.754-1.932,6.93-4.032,1.2,2.1,3.99,3.57,6.909,4.032ZM1015.014-.084h-9.261V-2.478h9.261Zm0-3.717h-9.261V-6.006h-1.7V1.3h12.663V-6.006h-1.7Zm-13.125-4.893v1.386h17.052V-8.694Zm22.239-6.762h-1.722V-3.318h1.554a44.75,44.75,0,0,0,9.24-.882l-.189-1.47a44.5,44.5,0,0,1-8.883.882Zm10.815-1.827V1.533h1.722V-17.283Zm8.127,3.234h7.035v-1.428h-8.757V-3.108h1.491a44.654,44.654,0,0,0,8.9-.672l-.189-1.428a45.78,45.78,0,0,1-8.484.63Zm15.078,4.2h-3.108v-7.434h-1.722V1.6h1.722V-8.421h3.108ZM1061.676.273a1.387,1.387,0,0,0,1.386-1.449,1.424,1.424,0,0,0-1.386-1.491,1.424,1.424,0,0,0-1.386,1.491A1.387,1.387,0,0,0,1061.676.273Z" transform="translate(580 2658)"/>
    <path id="패스_319" data-name="패스 319" d="M0,0H71" transform="translate(655.5 2493.5)" fill="none" stroke="#707070" stroke-width="1"/>
    <path id="패스_320" data-name="패스 320" d="M0,0H71" transform="translate(1034.5 2493.5)" fill="none" stroke="#707070" stroke-width="1"/>
    <path id="패스_321" data-name="패스 321" d="M0,0H71" transform="translate(1463.5 2493.5)" fill="none" stroke="#707070" stroke-width="1"/>
    <g id="그룹_101" data-name="그룹 101" transform="translate(213 -14)">
      <rect id="사각형_220" data-name="사각형 220" width="225" height="77" transform="translate(1177 2527)"/>
      <text id="A.P.C." transform="translate(1217 2585)" fill="#fff" font-size="50" font-family="Helvetica75-Bold, Helvetica75" font-weight="700"><tspan x="0" y="0">A.P.C.</tspan></text>
    </g>
  </g>
</svg>
