<svg xmlns="http://www.w3.org/2000/svg" width="1400" height="135" viewBox="0 0 1400 135">
  <g id="그룹_168" data-name="그룹 168" transform="translate(-260 -2962)">
    <path id="패스_323" data-name="패스 323" d="M0,0H1400V135H0Z" transform="translate(260 2962)" fill="#fff"/>
    <path id="패스_327" data-name="패스 327" d="M5.58.26c2.76,0,4.6-1.66,4.6-3.8A4.278,4.278,0,0,0,7.7-7.38v-.1a4.807,4.807,0,0,0,1.96-3.54,3.708,3.708,0,0,0-4.02-3.86,3.719,3.719,0,0,0-4.02,3.72A4.076,4.076,0,0,0,3.6-7.78v.1A4.7,4.7,0,0,0,.9-3.64C.9-1.38,2.88.26,5.58.26Zm1-8.22c-1.72-.68-3.3-1.44-3.3-3.2A2.253,2.253,0,0,1,5.6-13.54a2.446,2.446,0,0,1,2.5,2.62A3.933,3.933,0,0,1,6.58-7.96ZM5.62-1.1A2.811,2.811,0,0,1,2.56-3.8a3.985,3.985,0,0,1,2-3.32c2.08.84,3.88,1.58,3.88,3.54A2.54,2.54,0,0,1,5.62-1.1ZM16.66.26c2.78,0,4.56-2.54,4.56-7.64,0-5.08-1.78-7.56-4.56-7.56-2.8,0-4.58,2.46-4.58,7.56S13.86.26,16.66.26Zm0-1.46c-1.68,0-2.8-1.86-2.8-6.18,0-4.28,1.12-6.08,2.8-6.08,1.66,0,2.78,1.8,2.78,6.08C19.44-3.06,18.32-1.2,16.66-1.2Zm7.38,5.78h1.82V.9L25.82-1a4.9,4.9,0,0,0,3,1.26c2.5,0,4.72-2.14,4.72-5.86,0-3.34-1.52-5.54-4.32-5.54a5.791,5.791,0,0,0-3.46,1.52H25.7l-.16-1.24h-1.5Zm4.48-5.84A4.209,4.209,0,0,1,25.86-2.4V-8.1a4.528,4.528,0,0,1,2.92-1.5c2.06,0,2.86,1.62,2.86,4.02C31.64-2.88,30.32-1.26,28.52-1.26Zm6,1.26h1.92L37.9-2.54c.38-.66.74-1.32,1.12-1.94h.1c.4.62.8,1.28,1.16,1.94L41.88,0h2L40.3-5.48l3.3-5.38H41.7l-1.34,2.4c-.32.6-.64,1.2-.98,1.8H39.3c-.36-.6-.74-1.2-1.08-1.8l-1.46-2.4H34.8l3.3,5.2Z" transform="translate(544 3047)"/>
    <path id="패스_326" data-name="패스 326" d="M1.76,0H9.8V-1.52H6.86V-14.66H5.46a9.289,9.289,0,0,1-3.04,1.04v1.16h2.6V-1.52H1.76ZM13.4-5.5l3.34-5c.42-.72.82-1.44,1.18-2.16H18c-.04.76-.12,1.94-.12,2.66v4.5Zm8.16,0H19.62v-9.16H17.6L11.5-5.24v1.2h6.38V0h1.74V-4.04h1.94ZM27.76.26c2.78,0,4.56-2.54,4.56-7.64,0-5.08-1.78-7.56-4.56-7.56-2.8,0-4.58,2.46-4.58,7.56S24.96.26,27.76.26Zm0-1.46c-1.68,0-2.8-1.86-2.8-6.18,0-4.28,1.12-6.08,2.8-6.08,1.66,0,2.78,1.8,2.78,6.08C30.54-3.06,29.42-1.2,27.76-1.2ZM38.86.26c2.78,0,4.56-2.54,4.56-7.64,0-5.08-1.78-7.56-4.56-7.56-2.8,0-4.58,2.46-4.58,7.56S36.06.26,38.86.26Zm0-1.46c-1.68,0-2.8-1.86-2.8-6.18,0-4.28,1.12-6.08,2.8-6.08,1.66,0,2.78,1.8,2.78,6.08C41.64-3.06,40.52-1.2,38.86-1.2Zm7.38,5.78h1.82V.9L48.02-1a4.9,4.9,0,0,0,3,1.26c2.5,0,4.72-2.14,4.72-5.86,0-3.34-1.52-5.54-4.32-5.54a5.791,5.791,0,0,0-3.46,1.52H47.9l-.16-1.24h-1.5Zm4.48-5.84A4.209,4.209,0,0,1,48.06-2.4V-8.1a4.528,4.528,0,0,1,2.92-1.5c2.06,0,2.86,1.62,2.86,4.02C53.84-2.88,52.52-1.26,50.72-1.26Zm6,1.26h1.92L60.1-2.54c.38-.66.74-1.32,1.12-1.94h.1c.4.62.8,1.28,1.16,1.94L64.08,0h2L62.5-5.48l3.3-5.38H63.9l-1.34,2.4c-.32.6-.64,1.2-.98,1.8H61.5c-.36-.6-.74-1.2-1.08-1.8l-1.46-2.4H57l3.3,5.2Z" transform="translate(927 2985)"/>
    <path id="패스_328" data-name="패스 328" d="M2.3-5.5l3.34-5c.42-.72.82-1.44,1.18-2.16H6.9c-.04.76-.12,1.94-.12,2.66v4.5Zm8.16,0H8.52v-9.16H6.5L.4-5.24v1.2H6.78V0H8.52V-4.04h1.94ZM16.66.26c2.78,0,4.56-2.54,4.56-7.64,0-5.08-1.78-7.56-4.56-7.56-2.8,0-4.58,2.46-4.58,7.56S13.86.26,16.66.26Zm0-1.46c-1.68,0-2.8-1.86-2.8-6.18,0-4.28,1.12-6.08,2.8-6.08,1.66,0,2.78,1.8,2.78,6.08C19.44-3.06,18.32-1.2,16.66-1.2Zm7.38,5.78h1.82V.9L25.82-1a4.9,4.9,0,0,0,3,1.26c2.5,0,4.72-2.14,4.72-5.86,0-3.34-1.52-5.54-4.32-5.54a5.791,5.791,0,0,0-3.46,1.52H25.7l-.16-1.24h-1.5Zm4.48-5.84A4.209,4.209,0,0,1,25.86-2.4V-8.1a4.528,4.528,0,0,1,2.92-1.5c2.06,0,2.86,1.62,2.86,4.02C31.64-2.88,30.32-1.26,28.52-1.26Zm6,1.26h1.92L37.9-2.54c.38-.66.74-1.32,1.12-1.94h.1c.4.62.8,1.28,1.16,1.94L41.88,0h2L40.3-5.48l3.3-5.38H41.7l-1.34,2.4c-.32.6-.64,1.2-.98,1.8H39.3c-.36-.6-.74-1.2-1.08-1.8l-1.46-2.4H34.8l3.3,5.2Z" transform="translate(676 3047)"/>
    <path id="패스_329" data-name="패스 329" d="M0,0V68.309" transform="translate(450.5 2976.5)" fill="none" stroke="#000" stroke-width="1"/>
    <path id="패스_330" data-name="패스 330" d="M0,0V18" transform="translate(539 3059.5)" fill="none" stroke="#000" stroke-width="1"/>
    <path id="패스_331" data-name="패스 331" d="M0,0V18" transform="translate(683.5 3059.5)" fill="none" stroke="#000" stroke-width="1"/>
    <path id="패스_332" data-name="패스 332" d="M54.831,0H0" transform="translate(539 3068.5)" fill="none" stroke="#000" stroke-width="1"/>
    <path id="패스_333" data-name="패스 333" d="M27,0H0" transform="translate(683.5 3068.5)" fill="none" stroke="#000" stroke-width="1"/>
    <path id="패스_334" data-name="패스 334" d="M0,0V18" transform="translate(593.831 3059.5)" fill="none" stroke="#000" stroke-width="1"/>
    <path id="패스_335" data-name="패스 335" d="M0,0V18" transform="translate(710.5 3059.5)" fill="none" stroke="#000" stroke-width="1"/>
    <path id="패스_324" data-name="패스 324" d="M0,0V68.309" transform="translate(1470.5 2976.5)" fill="none" stroke="#000" stroke-width="1"/>
    <path id="패스_325" data-name="패스 325" d="M0,0H1020" transform="translate(450.5 3010.654)" fill="none" stroke="#000" stroke-width="1"/>
  </g>
</svg>
