<svg xmlns="http://www.w3.org/2000/svg" width="1040" height="169" viewBox="0 0 1040 169">
  <g id="그룹_167" data-name="그룹 167" transform="translate(-620 -1253)">
    <rect id="사각형_299" data-name="사각형 299" width="1040" height="168" transform="translate(620 1253)" fill="#fff"/>
    <rect id="사각형_298" data-name="사각형 298" width="1040" height="169" transform="translate(620 1253)" fill="#fff"/>
    <path id="패스_304" data-name="패스 304" d="M5.8-4.66c-1.38,0-2.3-1.46-2.3-4.2,0-2.72.92-4.18,2.3-4.18,1.36,0,2.3,1.46,2.3,4.18C8.1-6.12,7.16-4.66,5.8-4.66Zm0-10.76C3-15.42.96-12.9.96-8.86.96-4.8,3-2.26,5.8-2.26c2.78,0,4.84-2.54,4.84-6.6C10.64-12.9,8.58-15.42,5.8-15.42ZM17.96-9.76H15.28V-16.7H12.64V1.72h2.64v-9.3h2.68Zm4.92-2.76h1.36v7.8c-.44.04-.92.06-1.36.06Zm3.72,0h1.18v-2.1H19.4v2.1h1.12V-4.6H19.08l.28,2.14a45.851,45.851,0,0,0,8.86-.68l-.18-1.9c-.44.06-.94.1-1.44.16Zm2.48,2.54H27.32v2.3h1.76V.88h2.46v-17.2H29.08Zm3.66-6.72V1.74h2.5V-16.7Zm13.08,1.76h-2.3V-12a12.667,12.667,0,0,1-.92,5.6,12.759,12.759,0,0,1-.92-5.6v-2.94H39.4V-12c0,2.54-.16,5.46-2.2,7.18L38.68-3a5.941,5.941,0,0,0,1.86-2.98A6.239,6.239,0,0,0,42.6-2.72a6.333,6.333,0,0,0,2.04-3.26,6.142,6.142,0,0,0,1.88,3.02L48-4.8c-2.02-1.72-2.18-4.6-2.18-7.2Zm2.24,4.18H46.6v2.2h1.46V.88h2.42V-16.4H48.06Zm3.48-5.94V1.72H54V-16.7ZM70.9-11.72H60.76v-4.32H58.12v6.42H70.9ZM60.6-4.16H57.94v5.5H71V-.78H60.6ZM56.06-7.74v2.12H72.74V-7.74ZM79.78,0h8.9V-2.38H85.9V-14.8H83.72a9.6,9.6,0,0,1-3.44,1.24v1.82h2.68v9.36H79.78ZM95.52-7.58c-1.28,0-2.1-.82-2.1-2.56,0-1.82.9-2.72,2-2.72,1.26,0,2.28,1,2.54,3.7A2.953,2.953,0,0,1,95.52-7.58ZM90.96-1.4A5.551,5.551,0,0,0,95.02.28c2.94,0,5.68-2.42,5.68-8.02,0-5.14-2.52-7.34-5.32-7.34a4.638,4.638,0,0,0-4.66,4.94c0,3.14,1.78,4.66,4.24,4.66A4.115,4.115,0,0,0,98-7.1c-.12,3.72-1.5,4.98-3.16,4.98A3.4,3.4,0,0,1,92.5-3.16ZM107.58.28c3,0,4.98-1.72,4.98-3.96a4.3,4.3,0,0,0-2.48-3.96v-.1a4.311,4.311,0,0,0,1.9-3.38c0-2.36-1.68-3.94-4.3-3.94-2.58,0-4.46,1.52-4.46,3.9a4.216,4.216,0,0,0,1.96,3.52v.1a4.307,4.307,0,0,0-2.54,3.86C102.64-1.36,104.76.28,107.58.28Zm.94-8.74c-1.56-.62-2.7-1.3-2.7-2.7a1.721,1.721,0,0,1,1.8-1.84,1.885,1.885,0,0,1,1.96,2.06A3.544,3.544,0,0,1,108.52-8.46Zm-.86,6.66A2.268,2.268,0,0,1,105.18-4a3.558,3.558,0,0,1,1.36-2.74c1.92.78,3.28,1.42,3.28,2.96A1.94,1.94,0,0,1,107.66-1.8ZM117.2,0h2.98c.24-5.8.7-8.82,4.14-13.02V-14.8h-9.84v2.46h6.66C118.32-8.42,117.46-5.14,117.2,0Zm21.68-3.16h2.64V-16.7h-2.64v2.04h-4.46v2.08h4.46v1.36h-4.46v2.08h4.46Zm-2.62-5.1a40.291,40.291,0,0,1-6.52.58v-7.86h-2.62V-5.52h1.48a42.018,42.018,0,0,0,7.92-.6ZM132.02-.7V-4.36h-2.64V1.4h12.56V-.7Zm27.22-6.78h-3.76V-13h3.76Zm-6.38,0h-2.4v2.1H164.3v-2.1h-2.44V-13h2.5v-2.1h-14V-13h2.5Zm-3.8,4.92V-.42h16.68V-2.56Zm19.06-9.48v5.68h1.58a44.354,44.354,0,0,0,8.58-.56l-.22-2.12a39.627,39.627,0,0,1-7.32.56v-1.6h5.76v-5.54h-8.4v2.12h5.8v1.46ZM175.9-.28c-2.4,0-3.64-.46-3.64-1.48s1.24-1.48,3.64-1.48,3.64.46,3.64,1.48S178.3-.28,175.9-.28Zm0-4.98c-3.84,0-6.24,1.28-6.24,3.5,0,2.2,2.4,3.5,6.24,3.5s6.24-1.3,6.24-3.5C182.14-3.98,179.74-5.26,175.9-5.26Zm6.06-7.14v-4.28h-2.64V-5.64h2.64v-4.6h2.44V-12.4Zm20,4.38c-4.16-.72-6.44-3.58-6.44-6.28v-1.32H192.7v1.32c0,2.64-2.3,5.56-6.44,6.28l1.12,2.2a9.246,9.246,0,0,0,6.72-4.76,9.336,9.336,0,0,0,6.74,4.76Zm-16.1,5.36V-.52h16.68V-2.66Zm27.32-10.22h1.9v8.12l-1.9.06Zm4.44,0h1.58V-15H209.04v2.12h1.58v8.24h-2.06l.28,2.16a66.214,66.214,0,0,0,11.06-.74l-.16-1.92c-.68.1-1.4.14-2.12.2Zm8.28,3.14h-2.68v-6.94h-2.64V1.74h2.64v-9.3h2.68Zm4.98,1.72h5.98v-7.12h-8.7v2.1h6v2.94h-5.98v7.58h1.66a50.515,50.515,0,0,0,9.04-.64L238.6-5.3a46.1,46.1,0,0,1-7.72.6Zm9-8.7V1.76h2.64V-16.72Zm9.98,12.74c-1.44,0-2.34-1.82-2.34-4.76,0-2.88.9-4.7,2.34-4.7,1.4,0,2.32,1.82,2.32,4.7C252.18-5.8,251.26-3.98,249.86-3.98Zm6.06-5.5h-2.26c-.2-3.38-1.64-5.48-3.8-5.48-2.34,0-3.84,2.4-3.84,6.22,0,3.88,1.5,6.28,3.84,6.28,2.2,0,3.66-2.16,3.8-5.68h2.26V.6h1.56V-16.06h-1.56Zm3.56-6.98V1.48h1.56V-16.46Zm11,1.54h-1.64v3.22a9.476,9.476,0,0,1-4.64,8.08l1,1.3a9.953,9.953,0,0,0,4.46-6,9.611,9.611,0,0,0,4.5,5.68l.96-1.3a8.943,8.943,0,0,1-4.64-7.76Zm6.86-1.54v6.08h-4.16v1.34h4.16V1.5h1.64V-16.46Zm20.14,8.68a5.835,5.835,0,0,1-4.34-5.32v-.7h3.96v-1.32h-9.62v1.32h4.02v.7A6.354,6.354,0,0,1,287-7.26l.84,1.3a7.408,7.408,0,0,0,4.52-4.4A6.976,6.976,0,0,0,296.7-6.5ZM295.3.16c-2.68,0-4.28-.74-4.28-2.02,0-1.26,1.6-2,4.28-2,2.64,0,4.26.74,4.26,2C299.56-.58,297.94.16,295.3.16Zm0-5.32c-3.68,0-5.92,1.22-5.92,3.3,0,2.1,2.24,3.32,5.92,3.32,3.64,0,5.9-1.22,5.9-3.32C301.2-3.94,298.94-5.16,295.3-5.16Zm5.7-6.76v-4.52h-1.64V-5.62H301v-4.92h2.66v-1.38Zm23.42,3.16H313.74v-2.2h10.04v-1.26H313.74V-14.3H324.2v-1.32H312.12v8.18h12.3Zm1.8,3.16H309.94v1.34h7.32V1.48h1.64V-4.26h7.32ZM341.4-16.46V1.52h1.64V-16.46Zm-7.82,1.38c-2.66,0-4.56,2.44-4.56,6.26s1.9,6.26,4.56,6.26,4.56-2.44,4.56-6.26S336.24-15.08,333.58-15.08Zm0,1.48c1.74,0,2.98,1.88,2.98,4.78,0,2.92-1.24,4.8-2.98,4.8-1.76,0-3-1.88-3-4.8C330.58-11.72,331.82-13.6,333.58-13.6Zm27.64,4.84H350.54v-2.2h10.04v-1.26H350.54V-14.3H361v-1.32H348.92v8.18h12.3Zm1.8,3.16H346.74v1.34h7.32V1.48h1.64V-4.26h7.32Zm3.1-8.94v1.36h6.58c-.38,4.24-2.84,7.68-7.42,9.98l.9,1.28c5.8-2.9,8.14-7.52,8.14-12.62Zm15.72,5.36h-2.88v-7.28h-1.64V1.48h1.64v-9.3h2.88Zm8.78-6.38a4.345,4.345,0,0,0-2.38,3.96c0,1.28.52,2,1.4,2a1.114,1.114,0,0,0,1.18-1.22,1.107,1.107,0,0,0-1.18-1.12.617.617,0,0,0-.2.02,3.166,3.166,0,0,1,1.7-2.78Zm16.02-.9V1.52h1.64V-16.46Zm-7.82,1.38c-2.66,0-4.56,2.44-4.56,6.26s1.9,6.26,4.56,6.26,4.56-2.44,4.56-6.26S401.48-15.08,398.82-15.08Zm0,1.48c1.74,0,2.98,1.88,2.98,4.78,0,2.92-1.24,4.8-2.98,4.8-1.76,0-3-1.88-3-4.8C395.82-11.72,397.06-13.6,398.82-13.6Zm19.16,9.24H414.2V-9h3.78Zm4.14-5.28h-2.6v-5.04h-1.54v4.36H414.2v-4.36h-1.56V-3.02h6.88V-8.3h2.6V.6h1.56V-16.06h-1.56Zm3.56-6.82V1.48h1.56V-16.46Zm17.38,5.48H432.42V-5.4h12.66V-6.74H434.04V-9.66h10.62v-5.42H432.38v1.32h10.68ZM430.38-2.14V-.78h16.3V-2.14ZM457.8.26c2.76,0,4.6-1.66,4.6-3.8a4.278,4.278,0,0,0-2.48-3.84v-.1a4.807,4.807,0,0,0,1.96-3.54,3.708,3.708,0,0,0-4.02-3.86,3.719,3.719,0,0,0-4.02,3.72,4.076,4.076,0,0,0,1.98,3.38v.1a4.7,4.7,0,0,0-2.7,4.04C453.12-1.38,455.1.26,457.8.26Zm1-8.22c-1.72-.68-3.3-1.44-3.3-3.2a2.253,2.253,0,0,1,2.32-2.38,2.446,2.446,0,0,1,2.5,2.62A3.933,3.933,0,0,1,458.8-7.96Zm-.96,6.86a2.811,2.811,0,0,1-3.06-2.7,3.985,3.985,0,0,1,2-3.32c2.08.84,3.88,1.58,3.88,3.54A2.54,2.54,0,0,1,457.84-1.1ZM467.28,0h1.9c.22-5.74.86-9.14,4.3-13.56v-1.1H464.3v1.56h7.1C468.54-9.1,467.52-5.56,467.28,0Zm9.06-9.64a4.345,4.345,0,0,0,2.38-3.96c0-1.28-.54-2.02-1.42-2.02a1.119,1.119,0,0,0-1.16,1.22,1.106,1.106,0,0,0,1.16,1.14.616.616,0,0,0,.2-.02,3.169,3.169,0,0,1-1.68,2.78Zm17.74-6.82V1.52h1.64V-16.46Zm-7.82,1.38c-2.66,0-4.56,2.44-4.56,6.26s1.9,6.26,4.56,6.26,4.56-2.44,4.56-6.26S488.92-15.08,486.26-15.08Zm0,1.48c1.74,0,2.98,1.88,2.98,4.78,0,2.92-1.24,4.8-2.98,4.8-1.76,0-3-1.88-3-4.8C483.26-11.72,484.5-13.6,486.26-13.6Zm15.52,5.24h6.46V-14.8h-8.12v1.34h6.5V-9.7h-6.44v6.86h1.42a45.722,45.722,0,0,0,8.62-.64l-.18-1.36a40.629,40.629,0,0,1-8.26.64Zm14.42-.98h-2.94v-7.14h-1.64V1.5h1.64V-7.96h2.94Zm16.02-1.72H521.66V-15.8h-1.64v6.08h12.2ZM521.54-4.2H519.9V1.04h12.42V-.3H521.54Zm-3.72-3.12V-6h16.26V-7.32Zm35.94-9.14V1.52h1.64V-16.46Zm-7.82,1.38c-2.66,0-4.56,2.44-4.56,6.26s1.9,6.26,4.56,6.26S550.5-5,550.5-8.82,548.6-15.08,545.94-15.08Zm0,1.48c1.74,0,2.98,1.88,2.98,4.78,0,2.92-1.24,4.8-2.98,4.8-1.76,0-3-1.88-3-4.8C542.94-11.72,544.18-13.6,545.94-13.6Zm25.74.6H561.2v4.26h12.48v-1.28H562.82v-1.76H573.3V-16H561.16v1.26h10.52ZM562.9-2.92h8.8V-.08h-8.8Zm-1.6,4.16h12.02V-4.22H561.3ZM559.12-7.2v1.32h16.26V-7.2Zm24.22-7.94c-2.78,0-4.8,1.7-4.8,4.22,0,2.5,2.02,4.22,4.8,4.22,2.8,0,4.8-1.72,4.8-4.22C588.14-13.44,586.14-15.14,583.34-15.14Zm0,1.4a2.9,2.9,0,0,1,3.2,2.82,2.91,2.91,0,0,1-3.2,2.82,2.91,2.91,0,0,1-3.2-2.82A2.9,2.9,0,0,1,583.34-13.74Zm7.16-2.72V1.52h1.64V-16.46ZM577.84-2.42a64.1,64.1,0,0,0,11.62-.78l-.14-1.22a80.778,80.778,0,0,1-11.68.62Zm33.02-7.4a42.071,42.071,0,0,1-7.96.76v-6.5h-1.62v7.88h1.4a41.863,41.863,0,0,0,8.38-.8Zm-6.24,5.8h8.1V-.1h-8.1Zm-1.6,5.24h11.3V-5.34h-11.3Zm13.96-13.56h-2.66v-4.12h-1.64V-6.32h1.64v-4.66h2.66Zm14.94,6.5h1.66v-10.6h-1.66v3.8h-3.9v1.34h3.9Zm-2.6-2.12a6.151,6.151,0,0,1-4.36-5.7v-1.78h-1.64v1.84a6.537,6.537,0,0,1-4.54,6.12l.86,1.34a7.586,7.586,0,0,0,4.54-4.56,7.344,7.344,0,0,0,4.26,4.02ZM627.66.16c-2.7,0-4.34-.78-4.34-2.08,0-1.32,1.64-2.1,4.34-2.1s4.34.78,4.34,2.1C632-.62,630.36.16,627.66.16Zm0-5.46c-3.68,0-5.98,1.22-5.98,3.38,0,2.14,2.3,3.38,5.98,3.38s5.96-1.24,5.96-3.38C633.62-4.08,631.34-5.3,627.66-5.3ZM639-2.8h10.78V1.48h1.64v-5.6H639Zm1.96-9.92h8.72v2.08h-8.72Zm5.18,5.52V-9.34h5.16v-6.7h-1.62V-14h-8.72v-2.04h-1.62v6.7h5.16V-7.2h-7.32v1.34h16.24V-7.2Zm17.56-7.72c2.94,0,4.62.68,4.62,1.88s-1.68,1.88-4.62,1.88-4.62-.68-4.62-1.88S660.76-14.92,663.7-14.92Zm0,4.98c3.94,0,6.3-1.08,6.3-3.1s-2.36-3.12-6.3-3.12-6.3,1.1-6.3,3.12S659.76-9.94,663.7-9.94Zm-4.5,8.12h10.54V-5.86h-12.2v1.24h10.58v1.6H657.6v4.3h12.68V0H659.2Zm-3.62-6.9V-7.4h16.24V-8.72ZM691.6-3.04h1.66v-13.4H691.6v4.2h-3.92v1.36h3.92Zm-2.64-4.24a6.434,6.434,0,0,1-4.34-5.82v-2.28h-1.64v2.22A6.766,6.766,0,0,1,678.5-6.9l.86,1.3a7.812,7.812,0,0,0,4.46-4.68,7.538,7.538,0,0,0,4.28,4.26Zm-5.6,7.02V-4.52h-1.64v5.6h11.96V-.26Zm17.06-10.38h9.16v3.3h-9.16Zm5.4,8.48V-6.02h5.36v-9.16h-1.6v3.2h-9.16v-3.2H698.8v9.16h5.36v3.86h-7.28V-.82h16.26V-2.16Zm22.5-14.3V1.52h1.64V-16.46Zm-7.82,1.38c-2.66,0-4.56,2.44-4.56,6.26s1.9,6.26,4.56,6.26,4.56-2.44,4.56-6.26S723.16-15.08,720.5-15.08Zm0,1.48c1.74,0,2.98,1.88,2.98,4.78,0,2.92-1.24,4.8-2.98,4.8-1.76,0-3-1.88-3-4.8C717.5-11.72,718.74-13.6,720.5-13.6Zm20.58,5.78h-4.96v-5.76h4.96Zm5.72-4.14v2.5h-4.12v-2.5Zm-4.12,3.84h4.12v4.76h1.66V-16.44H746.8v3.14h-4.12v-1.58H734.5v8.36h8.18ZM738.56-.26V-4.52h-1.64v5.6h11.96V-.26Zm19.8-14.66h-1.64v3.22a9.476,9.476,0,0,1-4.64,8.08l1,1.3a9.953,9.953,0,0,0,4.46-6,9.61,9.61,0,0,0,4.5,5.68l.96-1.3a8.943,8.943,0,0,1-4.64-7.76Zm6.86-1.54v6.08h-4.16v1.34h4.16V1.5h1.64V-16.46ZM776.3-9.3c3.02-.24,5.68-1.16,6.78-2.82,1.1,1.66,3.74,2.58,6.74,2.82l.5-1.24c-3.34-.22-6.04-1.32-6.32-3.1h5.52v-1.24H783.9v-1.7h-1.64v1.7h-5.64v1.24h5.54c-.28,1.78-3.02,2.88-6.34,3.1Zm14.86,2.06V-8.5H774.98v1.26h7.26v1.66H776.9v1.22h10.58v1.52H776.96V1.28h12.68V.04H778.56v-1.7H789.1V-5.58h-5.2V-7.24ZM800.8-9.2h-5.08v-2.68h5.08Zm1.6-6.52h-1.6v2.58h-5.08v-2.58H794.1v7.84h8.3ZM797.54-1.98h9.74V-6.34h-11.4v1.3h9.78V-3.2h-9.72V1.28h12V-.02h-10.4Zm9.74-10.62v-3.84h-1.64v9.26h1.64v-4.06h2.66V-12.6Zm15.12-1.66h-4.48v-2.18h-1.64v2.18h-4.46v1.32H822.4Zm-8.02,5.64c0-1.24,1.08-2.04,2.72-2.04,1.62,0,2.74.8,2.74,2.04,0,1.26-1.12,2.06-2.74,2.06C815.46-6.56,814.38-7.36,814.38-8.62Zm7.02,0c0-2-1.76-3.32-4.3-3.32s-4.28,1.32-4.28,3.32c0,2.02,1.74,3.34,4.28,3.34S821.4-6.6,821.4-8.62Zm-5.24,4.56h-1.64V1.08h11.96V-.26H816.16Zm9.52-6.48v-5.9h-1.64V-3h1.64V-9.16h2.66v-1.38Zm8.96,8.28V-.9H850.9V-2.26Zm1.92-12.9v9.34h12.38v-9.34h-1.6v3.28h-9.16v-3.28Zm1.62,4.6h9.16v3.4h-9.16Zm26.02.82h2.4V-3.1h1.58V-16.44H866.6v5.36h-2.4v-5.04h-1.56v12.5h1.56Zm-2.58,2.12a29.293,29.293,0,0,1-6.18.52V-9.8h5.12v-5.1h-6.74v1.32h5.16v2.54h-5.12v5.28h1.18a33.005,33.005,0,0,0,6.74-.54Zm-3.5,7.36V-4.3h-1.64V1.08H868.7V-.26Zm27.7-7.6h-10.7v-5.6h10.52v-1.36H873.5v8.3h12.32ZM871.42-2.3V-.94H887.7V-2.3Zm31.5-14.14v9.62h1.64v-9.62ZM893-5.94V1.24h11.56V-5.94h-1.62v2.2h-8.32v-2.2Zm1.62,3.48h8.32V-.08h-8.32Zm.3-13.14c-2.7,0-4.66,1.68-4.66,4.12,0,2.48,1.96,4.14,4.66,4.14,2.72,0,4.7-1.66,4.7-4.14C899.62-13.92,897.64-15.6,894.92-15.6Zm0,1.36a2.822,2.822,0,0,1,3.1,2.76,2.826,2.826,0,0,1-3.1,2.78,2.813,2.813,0,0,1-3.06-2.78A2.809,2.809,0,0,1,894.92-14.24ZM911-14.72h-1.64V-3.16h1.48a42.619,42.619,0,0,0,8.8-.84l-.18-1.4a42.382,42.382,0,0,1-8.46.84Zm10.3-1.74V1.46h1.64V-16.46Zm7.74,3.08h6.7v-1.36H927.4V-2.96h1.42a42.527,42.527,0,0,0,8.48-.64l-.18-1.36a43.6,43.6,0,0,1-8.08.6Zm14.36,4h-2.96v-7.08H938.8V1.52h1.64V-8.02h2.96ZM946.76.26a1.321,1.321,0,0,0,1.32-1.38,1.356,1.356,0,0,0-1.32-1.42,1.356,1.356,0,0,0-1.32,1.42A1.321,1.321,0,0,0,946.76.26ZM11.38,38.9H6.92V32.66h4.46Zm-6.1,0H2.54v1.34H15.76V38.9H13.02V32.66H15.8V31.34H2.5v1.32H5.28ZM1.06,43.82v1.36H17.32V43.82Zm28.96-6.4a43.9,43.9,0,0,1-8.16.58V35.52h6.42V30.66H20.2V32h6.46v2.26H20.24v5.08h1.42a47.549,47.549,0,0,0,8.52-.58ZM27.66,46.2c-2.68,0-4.3-.74-4.3-2s1.62-2,4.3-2,4.28.74,4.28,2S30.34,46.2,27.66,46.2Zm0-5.28c-3.66,0-5.9,1.2-5.9,3.28s2.24,3.26,5.9,3.26c3.64,0,5.9-1.18,5.9-3.26S31.3,40.92,27.66,40.92Zm5.72-6.88V29.56H31.74v10.8h1.64V35.4h2.66V34.04Zm19.94,4.52c-3.14-.6-6.54-3.32-6.54-6.38V30.8H45.06v1.38c0,3.06-3.38,5.76-6.52,6.38l.74,1.36a9.851,9.851,0,0,0,6.64-5.18,9.734,9.734,0,0,0,6.66,5.18ZM37.86,43.72v1.36H54.12V43.72Zm23.2-1.74c-1.72,0-2.92-1.88-2.92-4.8,0-2.9,1.2-4.78,2.92-4.78,1.7,0,2.9,1.88,2.9,4.78C63.96,40.1,62.76,41.98,61.06,41.98ZM69.4,29.54v6.84H65.5c-.26-3.36-2.02-5.46-4.44-5.46-2.62,0-4.48,2.44-4.48,6.26s1.86,6.26,4.48,6.26c2.5,0,4.28-2.2,4.44-5.72h3.9v9.8h1.64V29.54ZM83.6,43.92V40.54h5.74V39.22H78.3v-2.9H88.92V30.86H76.64V32.2H87.32V35H76.68v5.54h5.26v3.38h-7.3v1.34h16.3V43.92Zm16.52-13.48a4.345,4.345,0,0,0-2.38,3.96c0,1.28.52,2,1.4,2a1.17,1.17,0,1,0,0-2.34.616.616,0,0,0-.2.02,3.166,3.166,0,0,1,1.7-2.78Zm13.48,7.9c-2.64-.78-4.38-2.76-4.38-4.94v-.36h3.96V31.72h-3.96V29.46h-1.64v2.26H103.6v1.32h3.98v.36a5.888,5.888,0,0,1-4.46,5.38l.82,1.3a7.255,7.255,0,0,0,4.48-4.1,7.109,7.109,0,0,0,4.4,3.64Zm-2.28,7.84c-2.68,0-4.28-.72-4.28-1.96s1.6-1.96,4.28-1.96c2.64,0,4.26.72,4.26,1.96S113.96,46.18,111.32,46.18Zm0-5.2c-3.7,0-5.92,1.16-5.92,3.24,0,2.06,2.22,3.22,5.92,3.22,3.66,0,5.9-1.16,5.9-3.22C117.22,42.14,114.98,40.98,111.32,40.98Zm5.7-6.8V29.54h-1.64v11h1.64v-5h2.66V34.18Zm14.9,4.14a6.043,6.043,0,0,1-4.36-5.5v-.7h3.96V30.8H121.9v1.32h4.02v.72a6.349,6.349,0,0,1-4.5,5.82l.86,1.3a7.54,7.54,0,0,0,4.48-4.36,7.249,7.249,0,0,0,4.32,4Zm-8.18,4.32h10.04V47.5h1.64V41.32H123.74Zm14.34-8.38h-2.66v-4.7h-1.64v10.8h1.64V35.62h2.66Zm11.18,5.34a44.6,44.6,0,0,0,.5-7.12V31.5H140.7v1.34h7.46a38.04,38.04,0,0,1-.54,6.6Zm-4.12-2.98h-1.62v5.52c-1.34.04-2.66.06-3.8.06l.18,1.36a73.1,73.1,0,0,0,11.12-.68l-.1-1.2c-1.82.24-3.82.34-5.78.42Zm11.38.42h-2.86v-7.5h-1.64V47.48h1.64V38.42h2.86Zm11.52-4.06h3.2V31.64h-8.18v1.34h3.4V34.6c0,3.3-1.4,6.56-3.9,8.06l1,1.22a9.287,9.287,0,0,0,3.7-5.68,8.578,8.578,0,0,0,3.6,5.24l1-1.2c-2.48-1.4-3.82-4.52-3.82-7.64Zm4.8,3h-2.96v1.34h2.96v9.22h1.56V29.94h-1.56Zm3.6-6.46V47.46h1.58V29.52Zm15.16,8.8a6.043,6.043,0,0,1-4.36-5.5v-.7h3.96V30.8h-9.62v1.32h4.02v.72a6.349,6.349,0,0,1-4.5,5.82l.86,1.3a7.54,7.54,0,0,0,4.48-4.36,7.249,7.249,0,0,0,4.32,4Zm-8.18,4.32h10.04V47.5h1.64V41.32H183.42Zm14.34-8.38H195.1v-4.7h-1.64v10.8h1.64V35.62h2.66Zm7.64-3.4c-2.78,0-4.8,1.7-4.8,4.22,0,2.5,2.02,4.22,4.8,4.22,2.8,0,4.8-1.72,4.8-4.22C210.2,32.56,208.2,30.86,205.4,30.86Zm0,1.4a2.843,2.843,0,1,1-3.2,2.82A2.9,2.9,0,0,1,205.4,32.26Zm7.16-2.72V47.52h1.64V29.54ZM199.9,43.58a64.1,64.1,0,0,0,11.62-.78l-.14-1.22a80.778,80.778,0,0,1-11.68.62Zm27.34-1.6c-1.74,0-2.96-1.88-2.96-4.8,0-2.9,1.22-4.78,2.96-4.78,1.72,0,2.94,1.88,2.94,4.78C230.18,40.1,228.96,41.98,227.24,41.98Zm0-11.06c-2.64,0-4.52,2.44-4.52,6.26s1.88,6.26,4.52,6.26,4.5-2.44,4.5-6.26S229.88,30.92,227.24,30.92Zm11.98,5.78h-2.96V29.56h-1.64V47.48h1.64v-9.4h2.96Zm15.96-1.4H244.62V33.76h9.98V32.6h-9.98V31.2h10.46V30h-12.1v6.48h12.2Zm-10.72,9.08H255V40.46H242.8v1.2h10.58V43.2H242.86v4.08h12.68V46.06H244.46Zm-3.58-6.54v1.24h16.18V37.84Zm21.06-.22h6.62V31.2h-8.32v1.34h6.66v3.74h-6.6v6.88h1.48a52.058,52.058,0,0,0,9.04-.66l-.16-1.34a52.717,52.717,0,0,1-8.72.64Zm10.4-8.1V47.5h1.64V29.52Zm9.38,12.5c-1.44,0-2.34-1.82-2.34-4.76,0-2.88.9-4.7,2.34-4.7,1.4,0,2.32,1.82,2.32,4.7C284.04,40.2,283.12,42.02,281.72,42.02Zm6.06-5.5h-2.26c-.2-3.38-1.64-5.48-3.8-5.48-2.34,0-3.84,2.4-3.84,6.22,0,3.88,1.5,6.28,3.84,6.28,2.2,0,3.66-2.16,3.8-5.68h2.26V46.6h1.56V29.94h-1.56Zm3.56-6.98V47.48h1.56V29.54Zm8.44,20.4,1.14-.54a18.436,18.436,0,0,1-2.56-9.62,18.487,18.487,0,0,1,2.56-9.62l-1.14-.52a18.991,18.991,0,0,0,0,20.3Zm5.8-9.9.72-2.24c.52-1.66,1-3.24,1.46-4.96h.08c.48,1.7.94,3.3,1.48,4.96l.7,2.24Zm6.3,5.96h1.96l-4.98-14.66H306.8L301.82,46h1.88l1.42-4.48h5.36Zm6.98.26a6.837,6.837,0,0,0,2-.4l-.36-1.36a3.847,3.847,0,0,1-1.24.28c-1.26,0-1.68-.76-1.68-2.1V36.62h2.94V35.14h-2.94V32.1h-1.52l-.22,3.04-1.7.1v1.38h1.62v6.02C315.76,44.82,316.54,46.26,318.86,46.26Zm8.2,0a6.464,6.464,0,0,0,3.6-1.12l-.66-1.2a4.682,4.682,0,0,1-2.72.86c-2.06,0-3.48-1.48-3.6-3.8H331a7.1,7.1,0,0,0,.08-1.04c0-3.1-1.56-5.1-4.32-5.1-2.52,0-4.9,2.2-4.9,5.72C321.86,44.16,324.18,46.26,327.06,46.26Zm-3.4-6.56c.22-2.14,1.58-3.38,3.12-3.38,1.7,0,2.7,1.18,2.7,3.38Zm12.02,6.56a2.876,2.876,0,0,0,1.06-.16l-.26-1.4a1.6,1.6,0,0,1-.38.04c-.28,0-.52-.22-.52-.78V30.08h-1.82V43.84C333.76,45.38,334.32,46.26,335.68,46.26Zm3.78-.26h1.82V35.14h-1.82Zm.92-13.1a1.19,1.19,0,0,0,1.26-1.18,1.263,1.263,0,0,0-2.52,0A1.19,1.19,0,0,0,340.38,32.9Zm8.96,13.36a6.464,6.464,0,0,0,3.6-1.12l-.66-1.2a4.682,4.682,0,0,1-2.72.86c-2.06,0-3.48-1.48-3.6-3.8h7.32a7.1,7.1,0,0,0,.08-1.04c0-3.1-1.56-5.1-4.32-5.1-2.52,0-4.9,2.2-4.9,5.72C344.14,44.16,346.46,46.26,349.34,46.26Zm-3.4-6.56c.22-2.14,1.58-3.38,3.12-3.38,1.7,0,2.7,1.18,2.7,3.38Zm10.1,6.3h1.82V39.02c.72-1.86,1.84-2.5,2.74-2.5a2.569,2.569,0,0,1,1.06.18l.34-1.6a2.315,2.315,0,0,0-1.16-.24,3.75,3.75,0,0,0-3.08,2.26h-.06l-.16-1.98h-1.5Zm15.94.26a4.844,4.844,0,0,0,3.3-1.54h.04L375.5,46h1.48V30.08h-1.82v4.18l.1,1.88a4.418,4.418,0,0,0-3.06-1.28c-2.48,0-4.7,2.2-4.7,5.72C367.5,44.2,369.26,46.26,371.98,46.26Zm.4-1.52c-1.92,0-3-1.56-3-4.18,0-2.48,1.38-4.16,3.14-4.16a3.813,3.813,0,0,1,2.64,1.14v5.7A3.732,3.732,0,0,1,372.38,44.74Zm12.68,1.52a6.464,6.464,0,0,0,3.6-1.12l-.66-1.2a4.682,4.682,0,0,1-2.72.86c-2.06,0-3.48-1.48-3.6-3.8H389a7.1,7.1,0,0,0,.08-1.04c0-3.1-1.56-5.1-4.32-5.1-2.52,0-4.9,2.2-4.9,5.72C379.86,44.16,382.18,46.26,385.06,46.26Zm-3.4-6.56c.22-2.14,1.58-3.38,3.12-3.38,1.7,0,2.7,1.18,2.7,3.38ZM396.4,46h1.86V40.18h2.42c3.2,0,5.4-1.44,5.4-4.54,0-3.2-2.2-4.3-5.5-4.3H396.4Zm1.86-7.32V32.84h2.1c2.58,0,3.88.68,3.88,2.8,0,2.1-1.22,3.04-3.8,3.04ZM408.88,46h1.82V39.02c.72-1.86,1.84-2.5,2.74-2.5a2.569,2.569,0,0,1,1.06.18l.34-1.6a2.315,2.315,0,0,0-1.16-.24,3.75,3.75,0,0,0-3.08,2.26h-.06l-.16-1.98h-1.5Zm11.76.26c2.66,0,5.04-2.08,5.04-5.68,0-3.62-2.38-5.72-5.04-5.72s-5.04,2.1-5.04,5.72C415.6,44.18,417.98,46.26,420.64,46.26Zm0-1.52c-1.88,0-3.14-1.66-3.14-4.16s1.26-4.2,3.14-4.2,3.16,1.7,3.16,4.2S422.52,44.74,420.64,44.74Zm11.6,1.52a4.844,4.844,0,0,0,3.3-1.54h.04l.18,1.28h1.48V30.08h-1.82v4.18l.1,1.88a4.418,4.418,0,0,0-3.06-1.28c-2.48,0-4.7,2.2-4.7,5.72C427.76,44.2,429.52,46.26,432.24,46.26Zm.4-1.52c-1.92,0-3-1.56-3-4.18,0-2.48,1.38-4.16,3.14-4.16a3.813,3.813,0,0,1,2.64,1.14v5.7A3.732,3.732,0,0,1,432.64,44.74Zm11.46,1.52a4.659,4.659,0,0,0,3.6-1.96h.06l.14,1.7h1.52V35.14H447.6v7.7c-1.04,1.3-1.82,1.84-2.94,1.84-1.44,0-2.04-.86-2.04-2.88V35.14H440.8v6.88C440.8,44.78,441.82,46.26,444.1,46.26Zm13.26,0a5.178,5.178,0,0,0,3.5-1.38l-.78-1.22a3.829,3.829,0,0,1-2.56,1.08c-2,0-3.36-1.66-3.36-4.16s1.44-4.2,3.4-4.2a3.153,3.153,0,0,1,2.18.98l.94-1.22a4.643,4.643,0,0,0-3.18-1.28c-2.78,0-5.24,2.1-5.24,5.72C452.26,44.18,454.48,46.26,457.36,46.26Zm9.1,0a6.837,6.837,0,0,0,2-.4l-.36-1.36a3.847,3.847,0,0,1-1.24.28c-1.26,0-1.68-.76-1.68-2.1V36.62h2.94V35.14h-2.94V32.1h-1.52l-.22,3.04-1.7.1v1.38h1.62v6.02C463.36,44.82,464.14,46.26,466.46,46.26Zm4.12-.26h1.82V35.14h-1.82Zm.92-13.1a1.19,1.19,0,0,0,1.26-1.18,1.263,1.263,0,0,0-2.52,0A1.19,1.19,0,0,0,471.5,32.9Zm8.8,13.36c2.66,0,5.04-2.08,5.04-5.68,0-3.62-2.38-5.72-5.04-5.72s-5.04,2.1-5.04,5.72C475.26,44.18,477.64,46.26,480.3,46.26Zm0-1.52c-1.88,0-3.14-1.66-3.14-4.16s1.26-4.2,3.14-4.2,3.16,1.7,3.16,4.2S482.18,44.74,480.3,44.74ZM488.2,46h1.82V38.12c1.1-1.1,1.86-1.66,2.98-1.66,1.44,0,2.06.86,2.06,2.9V46h1.82V39.12c0-2.78-1.04-4.26-3.32-4.26a5.208,5.208,0,0,0-3.64,1.84h-.06l-.16-1.56h-1.5Zm21.08.26a6.464,6.464,0,0,0,3.6-1.12l-.66-1.2a4.681,4.681,0,0,1-2.72.86c-2.06,0-3.48-1.48-3.6-3.8h7.32a7.1,7.1,0,0,0,.08-1.04c0-3.1-1.56-5.1-4.32-5.1-2.52,0-4.9,2.2-4.9,5.72C504.08,44.16,506.4,46.26,509.28,46.26Zm-3.4-6.56c.22-2.14,1.58-3.38,3.12-3.38,1.7,0,2.7,1.18,2.7,3.38Zm13.3,6.56a6.837,6.837,0,0,0,2-.4l-.36-1.36a3.848,3.848,0,0,1-1.24.28c-1.26,0-1.68-.76-1.68-2.1V36.62h2.94V35.14H517.9V32.1h-1.52l-.22,3.04-1.7.1v1.38h1.62v6.02C516.08,44.82,516.86,46.26,519.18,46.26Zm12.3,0a4.844,4.844,0,0,0,3.3-1.54h.04L535,46h1.48V30.08h-1.82v4.18l.1,1.88a4.418,4.418,0,0,0-3.06-1.28c-2.48,0-4.7,2.2-4.7,5.72C527,44.2,528.76,46.26,531.48,46.26Zm.4-1.52c-1.92,0-3-1.56-3-4.18,0-2.48,1.38-4.16,3.14-4.16a3.813,3.813,0,0,1,2.64,1.14v5.7A3.732,3.732,0,0,1,531.88,44.74Zm12.68,1.52a6.464,6.464,0,0,0,3.6-1.12l-.66-1.2a4.681,4.681,0,0,1-2.72.86c-2.06,0-3.48-1.48-3.6-3.8h7.32a7.1,7.1,0,0,0,.08-1.04c0-3.1-1.56-5.1-4.32-5.1-2.52,0-4.9,2.2-4.9,5.72C539.36,44.16,541.68,46.26,544.56,46.26Zm-3.4-6.56c.22-2.14,1.58-3.38,3.12-3.38,1.7,0,2.7,1.18,2.7,3.38Zm20.28,6.56a5.667,5.667,0,0,0,4.5-2.1L564.92,43a4.456,4.456,0,0,1-3.4,1.64c-2.8,0-4.56-2.32-4.56-6.02,0-3.66,1.84-5.94,4.62-5.94a4,4,0,0,1,3,1.4l1-1.2a5.421,5.421,0,0,0-4.02-1.82c-3.72,0-6.5,2.88-6.5,7.62C555.06,43.44,557.8,46.26,561.44,46.26ZM568.5,46h1.82V39.02c.72-1.86,1.84-2.5,2.74-2.5a2.57,2.57,0,0,1,1.06.18l.34-1.6a2.315,2.315,0,0,0-1.16-.24,3.75,3.75,0,0,0-3.08,2.26h-.06L570,35.14h-1.5Zm11.92.26a6.464,6.464,0,0,0,3.6-1.12l-.66-1.2a4.681,4.681,0,0,1-2.72.86c-2.06,0-3.48-1.48-3.6-3.8h7.32a7.1,7.1,0,0,0,.08-1.04c0-3.1-1.56-5.1-4.32-5.1-2.52,0-4.9,2.2-4.9,5.72C575.22,44.16,577.54,46.26,580.42,46.26Zm-3.4-6.56c.22-2.14,1.58-3.38,3.12-3.38,1.7,0,2.7,1.18,2.7,3.38Zm2.78-6.52,3.48-3.4-1.26-1.22-3.16,3.72Zm9.5,13.08a5.818,5.818,0,0,0,3.6-1.56h.06l.16,1.3h1.5V39.32c0-2.68-1.12-4.46-3.76-4.46a8.169,8.169,0,0,0-4.28,1.42l.72,1.26a5.983,5.983,0,0,1,3.26-1.16c1.78,0,2.24,1.34,2.24,2.74-4.62.52-6.68,1.7-6.68,4.06A2.944,2.944,0,0,0,589.3,46.26Zm.52-1.46c-1.08,0-1.92-.5-1.92-1.74,0-1.4,1.24-2.3,4.9-2.74v3.04A4.439,4.439,0,0,1,589.82,44.8Zm11.38,1.46a6.837,6.837,0,0,0,2-.4l-.36-1.36a3.848,3.848,0,0,1-1.24.28c-1.26,0-1.68-.76-1.68-2.1V36.62h2.94V35.14h-2.94V32.1H598.4l-.22,3.04-1.7.1v1.38h1.62v6.02C598.1,44.82,598.88,46.26,601.2,46.26Zm4.12-.26h1.82V35.14h-1.82Zm.92-13.1a1.19,1.19,0,0,0,1.26-1.18,1.263,1.263,0,0,0-2.52,0A1.19,1.19,0,0,0,606.24,32.9Zm8.8,13.36c2.66,0,5.04-2.08,5.04-5.68,0-3.62-2.38-5.72-5.04-5.72S610,36.96,610,40.58C610,44.18,612.38,46.26,615.04,46.26Zm0-1.52c-1.88,0-3.14-1.66-3.14-4.16s1.26-4.2,3.14-4.2,3.16,1.7,3.16,4.2S616.92,44.74,615.04,44.74Zm7.9,1.26h1.82V38.12c1.1-1.1,1.86-1.66,2.98-1.66,1.44,0,2.06.86,2.06,2.9V46h1.82V39.12c0-2.78-1.04-4.26-3.32-4.26a5.208,5.208,0,0,0-3.64,1.84h-.06l-.16-1.56h-1.5Zm12.36,3.94a18.882,18.882,0,0,0,0-20.3l-1.12.52a19.355,19.355,0,0,1,0,19.24ZM642,36.36a4.345,4.345,0,0,0,2.38-3.96c0-1.28-.54-2.02-1.42-2.02a1.119,1.119,0,0,0-1.16,1.22,1.107,1.107,0,0,0,1.16,1.14.617.617,0,0,0,.2-.02,3.169,3.169,0,0,1-1.68,2.78Zm7.04,1.28h6.46V31.2h-8.12v1.34h6.5V36.3h-6.44v6.86h1.42a45.723,45.723,0,0,0,8.62-.64l-.18-1.36a40.629,40.629,0,0,1-8.26.64Zm14.42-.98h-2.94V29.52h-1.64V47.5h1.64V38.04h2.94Zm16.02-1.72H668.92V30.2h-1.64v6.08h12.2ZM668.8,41.8h-1.64v5.24h12.42V45.7H668.8Zm-3.72-3.12V40h16.26V38.68Zm28.72-7.82c-2.78,0-4.8,1.7-4.8,4.22,0,2.5,2.02,4.22,4.8,4.22,2.8,0,4.8-1.72,4.8-4.22C698.6,32.56,696.6,30.86,693.8,30.86Zm0,1.4a2.843,2.843,0,1,1-3.2,2.82A2.9,2.9,0,0,1,693.8,32.26Zm7.16-2.72V47.52h1.64V29.54ZM688.3,43.58a64.1,64.1,0,0,0,11.62-.78l-.14-1.22a80.778,80.778,0,0,1-11.68.62ZM707.42,31.3V42.96h8.24V31.3Zm6.64,1.32v9.04h-5.04V32.62Zm5.36-3.08V47.52h1.64V29.54Zm11.18,1.32c-2.78,0-4.8,1.7-4.8,4.22,0,2.5,2.02,4.22,4.8,4.22,2.8,0,4.8-1.72,4.8-4.22C735.4,32.56,733.4,30.86,730.6,30.86Zm0,1.4a2.843,2.843,0,1,1-3.2,2.82A2.9,2.9,0,0,1,730.6,32.26Zm7.16-2.72V47.52h1.64V29.54ZM725.1,43.58a64.1,64.1,0,0,0,11.62-.78l-.14-1.22a80.778,80.778,0,0,1-11.68.62Zm23.94-7.44c2.98-.28,5.66-1.42,6.74-3.2,1.08,1.78,3.76,2.92,6.72,3.2l.52-1.24c-3.18-.28-6.04-1.64-6.26-3.44h5.66v-1.3H749.14v1.3h5.66c-.24,1.8-3.12,3.16-6.28,3.44Zm14.84,2.2V37.02H747.64v1.32h7.3v1.78H749.6v1.24h10.58v1.7H749.66v4.22h12.68V46.02H751.26V44.24H761.8V40.12h-5.2V38.34Zm15.26-8.78V39.82h1.64V29.56Zm-9.96,11.22v6.46h11.6V40.78Zm10,1.3v3.84h-8.4V42.08ZM771.14,30.5c-2.7,0-4.66,1.7-4.66,4.18s1.96,4.18,4.66,4.18c2.72,0,4.7-1.7,4.7-4.18S773.86,30.5,771.14,30.5Zm0,1.36a2.833,2.833,0,1,1,0,5.64,2.829,2.829,0,1,1,0-5.64Zm20.7,4.58H786.8V31.86h5.04Zm1.6-5.88H785.2v7.18h8.24Zm-4.8,13.36h9.74v-4.4h-11.4v1.3h9.78V42.7h-9.72v4.54h12V45.92h-10.4Zm9.74-10.52V29.56h-1.64v9.12h1.64V34.76h2.66V33.4Zm19.2-3.84h-1.64v13.1h1.64Zm-12.7,5.64a3.081,3.081,0,1,1,3.06,3.02A2.933,2.933,0,0,1,804.88,35.2Zm7.76,0a4.687,4.687,0,1,0-4.7,4.44A4.414,4.414,0,0,0,812.64,35.2Zm-4.96,10.54V41.32h-1.64v5.76h12.08V45.74Zm22.84-3.76c-1.74,0-2.96-1.88-2.96-4.8,0-2.9,1.22-4.78,2.96-4.78,1.72,0,2.94,1.88,2.94,4.78C833.46,40.1,832.24,41.98,830.52,41.98Zm0-11.06c-2.64,0-4.52,2.44-4.52,6.26s1.88,6.26,4.52,6.26,4.5-2.44,4.5-6.26S833.16,30.92,830.52,30.92ZM842.5,36.7h-2.96V29.56H837.9V47.48h1.64v-9.4h2.96Zm4.78-3.56h2.24v8.42c-.76.04-1.5.06-2.24.08Zm3.74,0h1.48V31.82h-8.2v1.32h1.48v8.54c-.68.02-1.28.02-1.82.02l.16,1.36a53.986,53.986,0,0,0,8.88-.6l-.1-1.2c-.58.08-1.24.14-1.88.2Zm3.4,3.24h-2.44v1.44h2.44v8.72h1.54V29.98h-1.54Zm3.46-6.82V47.48h1.58V29.56Zm12.44,1.78h-1.46v3.58c0,1.66-.16,4.08-1.4,5.8a10.666,10.666,0,0,1-1.42-5.8V31.34h-1.46v3.58c0,1.98-.38,4.98-2.4,6.56l.96,1.16a6.821,6.821,0,0,0,2.16-3.66,6.741,6.741,0,0,0,2.14,3.88,6.393,6.393,0,0,0,2.16-3.8,6.638,6.638,0,0,0,2.16,3.62l.96-1.18c-2-1.54-2.4-4.48-2.4-6.58Zm2.96,4.4h-2v1.38h2v9.46h1.52V29.94h-1.52Zm3.26-6.18V47.48h1.56V29.56Zm18.78,5.38H884.76V30.2h-1.64v6.08h12.2ZM884.64,41.8H883v5.24h12.42V45.7H884.64Zm-3.72-3.12V40h16.26V38.68ZM9.14,77.58c2.74,0,4.6,1,4.6,2.58s-1.86,2.6-4.6,2.6c-2.72,0-4.58-1.02-4.58-2.6S6.42,77.58,9.14,77.58Zm0,6.5c3.74,0,6.28-1.52,6.28-3.92s-2.54-3.9-6.28-3.9c-3.72,0-6.26,1.5-6.26,3.9S5.42,84.08,9.14,84.08Zm8.16,1.68H1.06V87.1H5.24v6.38H6.9V87.1h4.5v6.38h1.66V87.1H17.3Zm13.44-4h2.28V86.9H34.6V75.54H33.02v4.88H30.74V75.9H29.18V86.26h1.56Zm-2.26-4.08H24.74v-2H23.12v2H19.36v1.3h9.12Zm-6.9,5.3c0-1.1.94-1.84,2.36-1.84,1.4,0,2.36.74,2.36,1.84,0,1.12-.96,1.86-2.36,1.86C22.52,84.84,21.58,84.1,21.58,82.98Zm6.18,0c0-1.84-1.56-3.06-3.82-3.06s-3.84,1.22-3.84,3.06c0,1.88,1.58,3.08,3.84,3.08S27.76,84.86,27.76,82.98Zm.94,9.22c-2.74,0-4.38-.68-4.38-1.86,0-1.2,1.64-1.88,4.38-1.88,2.72,0,4.36.68,4.36,1.88C33.06,91.52,31.42,92.2,28.7,92.2Zm0-5c-3.74,0-6,1.12-6,3.14,0,2,2.26,3.12,6,3.12s6-1.12,6-3.12C34.7,88.32,32.44,87.2,28.7,87.2ZM50.9,75.54V93.52h1.64V75.54Zm-7.82,1.38c-2.66,0-4.56,2.44-4.56,6.26s1.9,6.26,4.56,6.26,4.56-2.44,4.56-6.26S45.74,76.92,43.08,76.92Zm0,1.48c1.74,0,2.98,1.88,2.98,4.78,0,2.92-1.24,4.8-2.98,4.8-1.76,0-3-1.88-3-4.8C40.08,80.28,41.32,78.4,43.08,78.4ZM58.6,77.28H56.98V88.94H58.4a41.892,41.892,0,0,0,8.54-.82l-.2-1.36a40.9,40.9,0,0,1-8.14.8ZM72.94,82.7H70.06V75.54H68.42V93.48h1.64V84.06h2.88ZM85.5,77.1H83.88v3.22a9.425,9.425,0,0,1-4.82,8.1l1,1.34a9.969,9.969,0,0,0,4.64-6.02,9.742,9.742,0,0,0,4.62,5.68l.98-1.32a8.923,8.923,0,0,1-4.8-7.78Zm6.68-1.56V93.52h1.64V75.54Zm7.62,3.52h5.06V77.72H98.18V89.06h1.18a29.455,29.455,0,0,0,6.64-.54l-.14-1.36a28.216,28.216,0,0,1-6.06.54Zm11.4-3.52v7.2h-2.54v-6.8h-1.54V92.58h1.54v-8.5h2.54v9.4h1.58V75.54Zm10.56,1.32c-2.78,0-4.8,1.7-4.8,4.22,0,2.5,2.02,4.22,4.8,4.22,2.8,0,4.8-1.72,4.8-4.22C126.56,78.56,124.56,76.86,121.76,76.86Zm0,1.4a2.843,2.843,0,1,1-3.2,2.82A2.9,2.9,0,0,1,121.76,78.26Zm7.16-2.72V93.52h1.64V75.54ZM116.26,89.58a64.1,64.1,0,0,0,11.62-.78l-.14-1.22a80.778,80.778,0,0,1-11.68.62Zm35.68-9.42V82.7H147.8V80.16Zm-5.76,4.28h-4.84V81.2h4.84Zm1.62-.4h4.14v4.78h1.66V75.56h-1.66v3.28H147.8v-2.1h-1.62V79.9h-4.84V76.74h-1.62v9.02h8.08Zm-4.1,7.7V87.52h-1.64v5.56h11.96V91.74Zm24.34-14.02h-4.52V75.56h-1.64v2.16h-4.56v1.3h10.72Zm-8.02,5.68c0-1.24,1.08-2.06,2.68-2.06s2.68.82,2.68,2.06-1.08,2.04-2.68,2.04S160.02,84.64,160.02,83.4Zm3.5,3.28c2.06-.26,3.42-1.5,3.42-3.28,0-2.02-1.74-3.32-4.24-3.32s-4.24,1.3-4.24,3.32c0,1.78,1.36,3.02,3.42,3.28v1.96c-1.74.06-3.42.06-4.86.06l.22,1.38a66.213,66.213,0,0,0,11.2-.72l-.1-1.22a46.9,46.9,0,0,1-4.82.44Zm10.32-3.52h-2.8V75.54H169.4V93.48h1.64V84.54h2.8Zm14.34-4.48H177.7v3.84h12.42V81.34h-10.8V79.8H189.8V76.06H177.66v1.16h10.52ZM179.22,90.4h10.64V86.58h-12.3v1.18h10.68v1.5H177.6v3.98h12.82V92.06h-11.2Zm-3.6-6.52v1.24h16.26V83.88Zm24.28-1.62c3.02-.32,5.76-1.52,6.72-3.44.98,1.92,3.72,3.12,6.72,3.44l.54-1.26c-3.1-.26-5.98-1.66-6.18-3.48h5.56v-1.3H199.98v1.3h5.56c-.2,1.82-3.1,3.22-6.18,3.48Zm12.68,6.42v-1.3h-5.16v-1.7h-1.64v1.7h-5.16v1.3h5.08c-.38,1.8-2.9,3.16-5.84,3.5l.56,1.22c2.74-.36,5.16-1.5,6.2-3.26,1.08,1.7,3.5,2.9,6.18,3.26l.56-1.22c-2.84-.34-5.42-1.78-5.86-3.5Zm-5.14-5.04V81.2h-1.66v2.44h-7.24v1.32h16.22V83.64Zm15.86-4.9h4.22V77.38H217.5v1.36h4.16v2.28a9.175,9.175,0,0,1-4.76,7.7l.96,1.32a10.061,10.061,0,0,0,4.62-5.92,9.477,9.477,0,0,0,4.7,5.48l.92-1.32a8.353,8.353,0,0,1-4.8-7.26Zm6.64-3.18V93.48h1.64V75.56Zm11.78,5.14a3.039,3.039,0,1,1,3.04,2.8A2.833,2.833,0,0,1,241.72,80.7Zm7.66,0c0-2.44-1.96-4.14-4.62-4.14-2.68,0-4.64,1.7-4.64,4.14s1.96,4.14,4.64,4.14C247.42,84.84,249.38,83.14,249.38,80.7Zm-6.12,5.72h-1.6v6.6h.86a14.781,14.781,0,0,0,4.6-.66l-.26-1.3a13.8,13.8,0,0,1-3.6.6Zm7.72,5.88c-1.1,0-1.86-.56-1.86-1.38s.76-1.36,1.86-1.36c1.08,0,1.86.54,1.86,1.36S252.06,92.3,250.98,92.3Zm0-3.9c-1.94,0-3.32.98-3.32,2.52,0,1.56,1.38,2.54,3.32,2.54s3.32-.98,3.32-2.54C254.3,89.38,252.92,88.4,250.98,88.4Zm.8-3.48h-1.6v1.62h-3.72v1.22h9.02V86.54h-3.7Zm1.92-5.36V75.54h-1.64v8.94h1.64V80.92h2.66V79.56Zm17.14-.44a38.3,38.3,0,0,1-.68,8.12l1.64.18a40.439,40.439,0,0,0,.68-8.3V77.34H259.9v1.34h10.94Zm-4.7,10.5V83.2H264.5v6.42h-6.3v1.34h16.22V89.62Zm25.24-8.42h-4.46V77.44h4.46Zm-6.1,0h-2.64v1.32h13.02V81.2h-2.64V77.44h2.72V76.12H282.58v1.32h2.7Zm8.42,10.72h-9.04V88.94h9.04Zm3.58-6.38V84.22H281.06v1.32h7.3v2.1h-5.3v5.6H295.3v-5.6H290v-2.1Zm16.88-9.98h-1.64v9.3h1.64Zm-3.72,7.66c-2.66-.78-4.52-2.84-4.52-5.14v-.2h4.06V76.56h-9.84v1.32h4.1v.2a6.057,6.057,0,0,1-4.54,5.5l.78,1.3a7.4,7.4,0,0,0,4.62-4.28,7.241,7.241,0,0,0,4.58,3.9Zm-6.22,8.76V90.02h9.96v-4.3H302.56V87h10v1.8H302.6v4.48h12.18v-1.3Zm24.28-3.84h3.92v3.78H328.5Zm5.54,0h2.74V86.82H324.14v1.32h2.74v3.78h-2.9v1.32h12.96V91.92h-2.9Zm-2.76-4.42V81.44h5.46V80.12H326.18V75.94h-1.64v5.5h5.1v2.28h-7.28v1.32h16.22V83.72Zm17.56-6.24c2.82,0,4.62.84,4.62,2.26s-1.8,2.24-4.62,2.24-4.62-.82-4.62-2.24S346.02,77.48,348.84,77.48Zm0,5.82c3.84,0,6.3-1.32,6.3-3.56s-2.46-3.58-6.3-3.58-6.3,1.34-6.3,3.58S345,83.3,348.84,83.3Zm-4.38,4.58h-1.64v5.2h12.34V91.74h-10.7Zm-3.74-2.9V86.3h16.22V84.98Zm26.96,3.04c-1.44,0-2.34-1.82-2.34-4.76,0-2.88.9-4.7,2.34-4.7,1.4,0,2.32,1.82,2.32,4.7C370,86.2,369.08,88.02,367.68,88.02Zm6.06-5.5h-2.26c-.2-3.38-1.64-5.48-3.8-5.48-2.34,0-3.84,2.4-3.84,6.22,0,3.88,1.5,6.28,3.84,6.28,2.2,0,3.66-2.16,3.8-5.68h2.26V92.6h1.56V75.94h-1.56Zm3.56-6.98V93.48h1.56V75.54Zm17.84,13.4h1.64V75.54h-1.64V78.2h-3.62v1.32h3.62v2.36h-3.62v1.34h3.62Zm-2.66-3.98a6.718,6.718,0,0,1-4.32-6.12v-2.3h-1.64v2.3a6.954,6.954,0,0,1-4.48,6.42l.88,1.3a7.8,7.8,0,0,0,4.42-4.74,7.906,7.906,0,0,0,4.24,4.44Zm-5.58,6.78V87.58h-1.64v5.5h11.96V91.74Zm26.64-6.78h1.66v-9.4h-1.66v1.82h-3.52v1.3h3.52V80.6h-3.52v1.3h3.52Zm-2.64-1.58a6.125,6.125,0,0,1-4.4-5.5V76h-1.62v1.88a6.538,6.538,0,0,1-4.46,5.88l.84,1.24a7.526,7.526,0,0,0,4.46-4.44,7.5,7.5,0,0,0,4.34,4.1Zm-5.6,8.58v-1.9h9.9V85.84H403.64V87.1h9.94v1.74h-9.9v4.4h12.2V91.96Zm22.78-3.98c-1.74,0-2.96-1.88-2.96-4.8,0-2.9,1.22-4.78,2.96-4.78,1.72,0,2.94,1.88,2.94,4.78C431.02,86.1,429.8,87.98,428.08,87.98Zm0-11.06c-2.64,0-4.52,2.44-4.52,6.26s1.88,6.26,4.52,6.26,4.5-2.44,4.5-6.26S430.72,76.92,428.08,76.92Zm11.98,5.78H437.1V75.56h-1.64V93.48h1.64v-9.4h2.96Zm14.68-7.16V93.52h1.64V75.54Zm-7.82,1.38c-2.66,0-4.56,2.44-4.56,6.26s1.9,6.26,4.56,6.26,4.56-2.44,4.56-6.26S449.58,76.92,446.92,76.92Zm0,1.48c1.74,0,2.98,1.88,2.98,4.78,0,2.92-1.24,4.8-2.98,4.8-1.76,0-3-1.88-3-4.8C443.92,80.28,445.16,78.4,446.92,78.4Zm23.28,7.76h1.56V75.84H470.2v4.22h-2.38v1.32h2.38Zm-1.68-2.7a27.987,27.987,0,0,1-6.02.48V81.52H467V80.24h-4.5V78.02h5.2V76.7h-6.78v8.56h1.14a31.674,31.674,0,0,0,6.6-.48Zm-3.46,5.04h8.58v3.42h-8.58Zm-1.6,4.74h11.78V87.2H463.46Zm10.2-17.7v10.8h1.58V75.54Zm12.94,1.54c2.94,0,4.62.68,4.62,1.88s-1.68,1.88-4.62,1.88-4.62-.68-4.62-1.88S483.66,77.08,486.6,77.08Zm0,4.98c3.94,0,6.3-1.08,6.3-3.1s-2.36-3.12-6.3-3.12-6.3,1.1-6.3,3.12S482.66,82.06,486.6,82.06Zm-4.5,8.12h10.54V86.14h-12.2v1.24h10.58v1.6H480.5v4.3h12.68V92H482.1Zm-3.62-6.9V84.6h16.24V83.28Zm30.28.86h-5.04V78.46h5.04Zm1.6-7h-8.24v8.3h8.24Zm-4.58,10.3h-1.64v5.64H516.1V91.74H505.78ZM515.3,81V75.52h-1.64V88.66h1.64V82.38h2.66V81Zm18.86,3.14h-10.7v-5.6h10.52V77.18H521.84v8.3h12.32Zm-14.4,5.56v1.36h16.28V89.7Zm32.8-8.76H542V76.2h-1.64v6.08h12.2ZM541.88,87.8h-1.64v5.24h12.42V91.7H541.88Zm-3.72-3.12V86h16.26V84.68Zm36.02,3h1.66V75.56h-1.66V80.6h-3.86v1.34h3.86ZM562.22,76.96V78.3h6.28c-.32,3.16-2.9,5.6-7.14,6.94l.72,1.3c5.12-1.66,8.18-4.96,8.18-9.58Zm8.64,9.16h-1.64v.82c0,2.62-2.8,4.62-6,5.18l.66,1.3c2.68-.52,5.1-1.94,6.16-4.04,1.06,2.06,3.46,3.48,6.1,4l.66-1.28c-3.16-.6-5.94-2.58-5.94-5.16Zm16.7-9.46c-3.72,0-6.52,1.98-6.52,4.96,0,3,2.8,4.96,6.52,4.96s6.52-1.96,6.52-4.96C594.08,78.64,591.28,76.66,587.56,76.66Zm0,1.34c2.84,0,4.96,1.46,4.96,3.62,0,2.18-2.12,3.62-4.96,3.62-2.82,0-4.96-1.44-4.96-3.62C582.6,79.46,584.74,78,587.56,78Zm-8.12,11.74V91.1h16.3V89.74Zm27.36.18V86.54h5.74V85.22H601.5v-2.9h10.62V76.86H599.84V78.2h10.68V81H599.88v5.54h5.26v3.38h-7.3v1.34h16.3V89.92Zm15.74-1.04h10.8v4.74H635V87.54H622.54Zm7.14-4.4V82.34h5.44V81.02h-10.7V77.58h10.54V76.26H622.78v6.08h5.26v2.14h-7.3V85.8h16.24V84.48Zm15.5-5.74h3.98V77.38h-9.7v1.36h4.1v2.28a9.378,9.378,0,0,1-4.72,7.72l.96,1.3a10.127,10.127,0,0,0,4.58-5.94,9.679,9.679,0,0,0,4.5,5.5l.94-1.32a8.627,8.627,0,0,1-4.64-7.26Zm10.72,4.04h-2.96V75.56H651.3V93.48h1.64V84.16h2.96Zm12.22,1.52a6.176,6.176,0,0,1-4.36-5.48V78.1h3.94V76.76h-9.58V78.1h4v.72a6.517,6.517,0,0,1-4.52,5.88l.86,1.3a7.6,7.6,0,0,0,4.5-4.48,7.434,7.434,0,0,0,4.34,4.06Zm-7.8,4.28h10.34V93.5h1.64V87.26H660.32Zm10.34-13.04v4.68h-3.5v1.34h3.5v4.72h1.64V75.54Zm10.8,1.76V88.96h8.24V77.3Zm6.64,1.32v9.04h-5.04V78.62Zm5.36-3.08V93.52h1.64V75.54Zm16,1.9h-4.48v-2h-1.64v2h-4.46v1.32h10.58Zm-8.02,5.5c0-1.2,1.08-1.98,2.72-1.98s2.74.78,2.74,1.96c0,1.2-1.1,1.98-2.74,1.98S701.44,84.14,701.44,82.94Zm7.02,0c0-1.98-1.74-3.26-4.3-3.26-2.54,0-4.28,1.28-4.28,3.24,0,1.98,1.74,3.24,4.28,3.24C706.72,86.16,708.46,84.9,708.46,82.94Zm-7.36,6.14h10V93.5h1.64V87.74H701.1Zm14.3-8.58h-2.66V75.56H711.1v11.2h1.64v-4.9h2.66Zm9.92-3.42c2.94,0,4.62.68,4.62,1.88s-1.68,1.88-4.62,1.88-4.62-.68-4.62-1.88S722.38,77.08,725.32,77.08Zm0,4.98c3.94,0,6.3-1.08,6.3-3.1s-2.36-3.12-6.3-3.12-6.3,1.1-6.3,3.12S721.38,82.06,725.32,82.06Zm-4.5,8.12h10.54V86.14h-12.2v1.24h10.58v1.6H719.22v4.3H731.9V92H720.82Zm-3.62-6.9V84.6h16.24V83.28Zm39.14,1.14h-2.66a29.613,29.613,0,0,0,.5-6.16V76.7H742.14v1.32h10.44v.24a26.519,26.519,0,0,1-.56,6.16h-11.9v1.34h7.24V93.5h1.66V85.76h7.32Zm3.64-.86c2.94-.3,5.56-1.38,6.64-3.18,1.08,1.8,3.68,2.88,6.62,3.18l.52-1.24c-3.4-.34-6.12-1.72-6.26-3.72h5.56V77.3h-5.62V75.44H765.8V77.3h-5.62v1.3h5.54c-.14,2-2.86,3.38-6.24,3.72Zm14.74,2.32V84.56H758.5v1.32h7.3v2.06h-5.5v1.3h10.78v4.18h1.64V87.94h-5.28V85.88Zm13.48-4.06h2.26v4.84h1.58V75.56h-1.58v4.92H788.2V75.84h-1.54V86.38h1.54Zm-2.28-4.22h-3.74V75.64h-1.62V77.6H776.8v1.3h9.12Zm-4.54,3.42c1.4,0,2.36.74,2.36,1.86s-.96,1.84-2.36,1.84c-1.42,0-2.36-.72-2.36-1.84S779.96,81.02,781.38,81.02Zm0,4.92c2.26,0,3.82-1.22,3.82-3.06,0-1.86-1.56-3.08-3.82-3.08s-3.84,1.22-3.84,3.08C777.54,84.72,779.12,85.94,781.38,85.94Zm8.46,1.24h-1.62v.62a5,5,0,0,1-2.52,4.04,4.646,4.646,0,0,1-2.48-4.04v-.62h-1.58v.62a4.914,4.914,0,0,1-3.6,4.24l.76,1.22a6.28,6.28,0,0,0,3.62-3.2,5.511,5.511,0,0,0,3.32,3.36A5.908,5.908,0,0,0,789.02,90a5.872,5.872,0,0,0,3.66,3.26l.76-1.22a4.725,4.725,0,0,1-3.6-4.24Zm20.76-6.04c-3.18-.4-6.34-2.38-6.34-4.6v-.8h-1.68v.8c0,2.28-3.14,4.2-6.36,4.6l.6,1.32c2.8-.44,5.48-1.84,6.6-3.84,1.14,2,3.8,3.4,6.58,3.84Zm-2.82,10.78h-8.82V89.64h8.82Zm0-3.54h-8.82v-2.1h-1.62v6.96H809.4V86.28h-1.62Zm-12.5-4.66v1.32h16.24V83.72Zm21.18-6.44h-1.64V88.84h1.48a42.619,42.619,0,0,0,8.8-.84l-.18-1.4a42.382,42.382,0,0,1-8.46.84Zm10.3-1.74V93.46h1.64V75.54Zm7.74,3.08h6.7V77.26h-8.34V89.04h1.42a42.527,42.527,0,0,0,8.48-.64l-.18-1.36a43.6,43.6,0,0,1-8.08.6Zm14.36,4H845.9V75.54h-1.64V93.52h1.64V83.98h2.96Zm3.36,9.64a1.321,1.321,0,0,0,1.32-1.38,1.323,1.323,0,1,0-2.64,0A1.321,1.321,0,0,0,852.22,92.26ZM14.1,121.54v17.98h1.64V121.54Zm-7.82,1.38c-2.66,0-4.56,2.44-4.56,6.26s1.9,6.26,4.56,6.26,4.56-2.44,4.56-6.26S8.94,122.92,6.28,122.92Zm0,1.48c1.74,0,2.98,1.88,2.98,4.78,0,2.92-1.24,4.8-2.98,4.8-1.76,0-3-1.88-3-4.8C3.28,126.28,4.52,124.4,6.28,124.4Zm15.46,5.08H28.1V123.2H20.08v1.34H26.5v3.62H20.12v7.02H21.5a43.8,43.8,0,0,0,8.22-.58l-.16-1.36a41.489,41.489,0,0,1-7.82.58Zm10.84-7.96v6.92H29.16v1.34h3.42v9.72h1.64V121.52Zm15.92,2.22H44.02v-2.18H42.38v2.18H37.92v1.32H48.5Zm-8.02,5.64c0-1.24,1.08-2.04,2.72-2.04,1.62,0,2.74.8,2.74,2.04,0,1.26-1.12,2.06-2.74,2.06C41.56,131.44,40.48,130.64,40.48,129.38Zm7.02,0c0-2-1.76-3.32-4.3-3.32s-4.28,1.32-4.28,3.32c0,2.02,1.74,3.34,4.28,3.34S47.5,131.4,47.5,129.38Zm-5.24,4.56H40.62v5.14H52.58v-1.34H42.26Zm9.52-6.48v-5.9H50.14V135h1.64v-6.16h2.66v-1.38Zm13.74,6.52c-1.74,0-2.96-1.88-2.96-4.8,0-2.9,1.22-4.78,2.96-4.78,1.72,0,2.94,1.88,2.94,4.78C68.46,132.1,67.24,133.98,65.52,133.98Zm0-11.06c-2.64,0-4.52,2.44-4.52,6.26s1.88,6.26,4.52,6.26,4.5-2.44,4.5-6.26S68.16,122.92,65.52,122.92ZM77.5,128.7H74.54v-7.14H72.9v17.92h1.64v-9.4H77.5Zm4.78-3.56h2.24v8.42c-.76.04-1.5.06-2.24.08Zm3.74,0H87.5v-1.32H79.3v1.32h1.48v8.54c-.68.02-1.28.02-1.82.02l.16,1.36a53.987,53.987,0,0,0,8.88-.6l-.1-1.2c-.58.08-1.24.14-1.88.2Zm3.4,3.24H86.98v1.44h2.44v8.72h1.54V121.98H89.42Zm3.46-6.82v17.92h1.58V121.56Zm12.44,1.78h-1.46v3.58c0,1.66-.16,4.08-1.4,5.8a10.666,10.666,0,0,1-1.42-5.8v-3.58H99.58v3.58c0,1.98-.38,4.98-2.4,6.56l.96,1.16a6.822,6.822,0,0,0,2.16-3.66,6.742,6.742,0,0,0,2.14,3.88,6.393,6.393,0,0,0,2.16-3.8,6.638,6.638,0,0,0,2.16,3.62l.96-1.18c-2-1.54-2.4-4.48-2.4-6.58Zm2.96,4.4h-2v1.38h2v9.46h1.52V121.94h-1.52Zm3.26-6.18v17.92h1.56V121.56Zm10.22,1.3c-2.78,0-4.8,1.7-4.8,4.22,0,2.5,2.02,4.22,4.8,4.22,2.8,0,4.8-1.72,4.8-4.22C126.56,124.56,124.56,122.86,121.76,122.86Zm0,1.4a2.843,2.843,0,1,1-3.2,2.82A2.9,2.9,0,0,1,121.76,124.26Zm7.16-2.72v17.98h1.64V121.54Zm-12.66,14.04a64.1,64.1,0,0,0,11.62-.78l-.14-1.22a80.779,80.779,0,0,1-11.68.62Zm27.34-1.6c-1.74,0-2.96-1.88-2.96-4.8,0-2.9,1.22-4.78,2.96-4.78,1.72,0,2.94,1.88,2.94,4.78C146.54,132.1,145.32,133.98,143.6,133.98Zm0-11.06c-2.64,0-4.52,2.44-4.52,6.26s1.88,6.26,4.52,6.26,4.5-2.44,4.5-6.26S146.24,122.92,143.6,122.92Zm11.98,5.78h-2.96v-7.14h-1.64v17.92h1.64v-9.4h2.96Zm14.68-7.16v17.98h1.64V121.54Zm-7.82,1.38c-2.66,0-4.56,2.44-4.56,6.26s1.9,6.26,4.56,6.26S167,133,167,129.18,165.1,122.92,162.44,122.92Zm0,1.48c1.74,0,2.98,1.88,2.98,4.78,0,2.92-1.24,4.8-2.98,4.8-1.76,0-3-1.88-3-4.8C159.44,126.28,160.68,124.4,162.44,124.4Zm28.38-2.86h-1.58v13.28h1.58Zm-8.66,5v1.32h3.6v6.48h1.56V121.92h-1.56v4.62Zm1.94,3.4a29.38,29.38,0,0,1-6,.54v-6.02h5.18v-1.32h-6.8v8.64h1.16a32.51,32.51,0,0,0,6.64-.52Zm-3.36,7.78v-4.4H179.1v5.76h12.24v-1.36Zm16.04-8.2h6.42V128.2h-6.42v-3.7h7.08v-1.34h-8.7v12h1.42a47.664,47.664,0,0,0,8.62-.6l-.16-1.34a43.894,43.894,0,0,1-8.26.6Zm10.32-7.98v17.92h1.64V121.54Zm6.28,1.92v1.36h6.58c-.38,4.24-2.84,7.68-7.42,9.98l.9,1.28c5.8-2.9,8.14-7.52,8.14-12.62Zm15.72,5.36h-2.88v-7.28h-1.64v17.94h1.64v-9.3h2.88Zm20.58,1.32h-10.7v-5.6H249.5v-1.36H237.36v8.3h12.32Zm-14.4,5.56v1.36h16.28V135.7Zm20.7-6.22h6.36V123.2h-8.02v1.34h6.42v3.62h-6.38v7.02h1.38a43.8,43.8,0,0,0,8.22-.58l-.16-1.36a41.489,41.489,0,0,1-7.82.58Zm10.84-7.96v6.92H263.4v1.34h3.42v9.72h1.64V121.52Zm7.62,1.76h-1.62v11.66h1.42a41.891,41.891,0,0,0,8.54-.82l-.2-1.36a40.9,40.9,0,0,1-8.14.8Zm14.34,5.42H285.9v-7.16h-1.64v17.94h1.64v-9.42h2.88Zm10.66,7.16v-4.6h5.46v-1.32H294.2v-5.62h10.52v-1.34H292.56v8.28h5.22v4.6h-7.3v1.36h16.3v-1.36Zm11.26-.4h10.84v3.86h1.64v-5.2H310.7Zm7.16-4.06v-1.88h5.6v-1.28H312.6v-1.88h10.48V122H310.94v1.28h10.52v1.86H310.98v4.38h5.22v1.88h-7.32v1.34h16.28V131.4Zm19.12,1.86h-2.4v-3.98h2.4Zm4.16-5.22h-1.72v-5.06h-2.44v4.22h-2.4v-4.24H332.1v12.4h7.32v-5.2h1.72v8.76h2.46v-17.3h-2.46Zm3.74-6.76V139.7h2.5V121.28Zm17.72,0v18.48h2.64V121.28Zm-7.26,1.3c-2.78,0-4.84,2.52-4.84,6.56,0,4.06,2.06,6.6,4.84,6.6s4.84-2.54,4.84-6.6C360.18,125.1,358.12,122.58,355.34,122.58Zm0,2.38c1.36,0,2.3,1.46,2.3,4.18,0,2.74-.94,4.2-2.3,4.2s-2.3-1.46-2.3-4.2C353.04,126.42,353.98,124.96,355.34,124.96Zm24.52,4.8c-2.92-.96-4.28-3.12-4.32-5.28h3.64V122.4H369.16v2.08h3.7a5.916,5.916,0,0,1-4.4,5.58l1.34,2.06a7.226,7.226,0,0,0,4.44-3.94,7.06,7.06,0,0,0,4.28,3.6Zm-8.72,5.56h9.88v4.42h2.66v-6.52H371.14Zm9.88-14.02v11.1h2.66V121.3Zm11.08,12.5a2.253,2.253,0,1,1,2.14-2.26A2.079,2.079,0,0,1,392.1,133.8Zm0-6.64a4.406,4.406,0,1,0,4.64,4.38A4.393,4.393,0,0,0,392.1,127.16Zm1.3-5.54h-2.64v2.4h-4.08v2.1H397.4v-2.1h-4Zm10.48,6.88h-2.64v-7.2H398.6v18.42h2.64v-9.04h2.64Zm15.64,4.96a42.623,42.623,0,0,0,.74-8.82v-1.76H406.88v2.1h10.74a38.486,38.486,0,0,1-.74,8.18Zm-5.8,1.92v-6.34h-2.64v6.34H405.2v2.12h16.66v-2.12Zm18.86,1.04h10.38v-4.86H429.94v1.98h10.4v1H429.98v4.98h13.58v-2H432.58Zm9.94-8.04a26.518,26.518,0,0,0,.32-4.8v-1.64H430.18v2.04h10.06c0,.34,0,.7-.02,1.06l-10.56.24.28,2.02,10.16-.44c-.06.5-.14.98-.22,1.52H428.16v2.08h16.58v-2.08Zm7.06,1.84h4.38v-7.14H447v2.12h4.42v2.94h-4.4v7.5h1.3a39.255,39.255,0,0,0,6.58-.44l-.2-2.14a38.919,38.919,0,0,1-5.12.42Zm10.24-8.94v6.96h-1.66v-6.62H455.7v17.22h2.46v-8.48h1.66v9.34h2.5V121.28Zm16.38,8.04a5.55,5.55,0,0,1-4.28-5.42v-1.76h-2.68v1.76a5.892,5.892,0,0,1-4.4,5.72l1.3,2.08a7.33,7.33,0,0,0,4.48-3.92,7.018,7.018,0,0,0,4.3,3.62Zm-8.54,5.88h9.9v4.54h2.66v-6.66H467.66Zm9.9-13.9v10.98h2.66V121.3Zm16.62,1.94h-4.12v-1.96H487.4v1.96h-4.08v2.06h10.84Zm-7.44,6.26c0-1,.82-1.54,2-1.54,1.16,0,2,.54,2,1.54,0,1.02-.84,1.56-2,1.56C487.56,131.06,486.74,130.52,486.74,129.5Zm6.52,0c0-2.08-1.88-3.54-4.52-3.54s-4.52,1.46-4.52,3.54c0,2.12,1.88,3.56,4.52,3.56S493.26,131.62,493.26,129.5Zm-4.68,4.56h-2.64v5.34h12.54v-2.1h-9.9Zm9.24-7.14V121.3h-2.64v13.78h2.64V129.1h2.44v-2.18Zm12.82-1.8h1.9v8.12l-1.9.06Zm4.44,0h1.58V123H506.5v2.12h1.58v8.24h-2.06l.28,2.16a66.214,66.214,0,0,0,11.06-.74l-.16-1.92c-.68.1-1.4.14-2.12.2Zm8.28,3.14h-2.68v-6.94h-2.64v18.42h2.64v-9.3h2.68Zm4.98,1.72h5.98v-7.12h-8.7v2.1h6v2.94h-5.98v7.58h1.66a50.514,50.514,0,0,0,9.04-.64l-.28-2.14a46.1,46.1,0,0,1-7.72.6Zm9-8.7v18.48h2.64V121.28Zm11.64,1.24c-2.88,0-5.06,1.9-5.06,4.54,0,2.66,2.18,4.54,5.06,4.54s5.08-1.88,5.08-4.54C554.06,124.42,551.86,122.52,548.98,122.52Zm0,2.26a2.29,2.29,0,1,1-2.5,2.28A2.267,2.267,0,0,1,548.98,124.78Zm6.8-3.5v18.48h2.64V121.28Zm-12.3,14.74a59.371,59.371,0,0,0,11.46-.84l-.16-1.9a82.842,82.842,0,0,1-11.64.6Zm34.44-8.62h-7.18v-1.66h7.18Zm2.62-5.52h-2.62v1.88h-7.18v-1.88h-2.62v7.58h12.42Zm-9.98,12.46h-2.64v5.06h12.92v-2.1H570.56Zm-4.58-3.6v2.08h7.26v2.9h2.64v-2.9h6.8v-2.08Zm24.4-6.56c1.36,0,2.3.64,2.3,1.8,0,1.12-.94,1.76-2.3,1.76-1.34,0-2.3-.64-2.3-1.76C588.08,124.82,589.04,124.18,590.38,124.18Zm0,5.72c2.78,0,4.82-1.64,4.82-3.92,0-2.32-2.04-3.94-4.82-3.94s-4.84,1.62-4.84,3.94C585.54,128.26,587.6,129.9,590.38,129.9Zm5.76.46a83.888,83.888,0,0,1-11.68.62l.3,2.16c1.3,0,2.8-.02,4.38-.08v6.1h2.64V132.9a38.355,38.355,0,0,0,4.52-.62Zm1.04-9.06v18.4h2.64V121.3Zm6.64,1.9v2.1h6.14c-.38,4.08-2.42,6.96-7.12,9.22l1.38,2.08c6.54-3.16,8.44-7.76,8.44-13.4Zm11.66-1.92V139.7h2.66V121.28Zm18.48,3.4H623.48v3.84H635.9v-1.18H625.1V125.8h10.48v-3.74H623.44v1.16h10.52ZM625,136.4h10.64v-3.82h-12.3v1.18h10.68v1.5H623.38v3.98H636.2v-1.18H625Zm-3.6-6.52v1.24h16.26v-1.24Zm33.26-1.14a37.926,37.926,0,0,1-7.92.6v-5.28H653v-1.32h-7.9v7.96h1.4a38.618,38.618,0,0,0,8.34-.64Zm-6.12,5.22h8.04v3.94h-8.04Zm-1.6,5.26H658.2v-6.56H646.94Zm13.92-13.3H658.2v-4.4h-1.64V131.7h1.64v-4.42h2.66Zm9.92-2.44c2.82,0,4.62.84,4.62,2.26s-1.8,2.24-4.62,2.24-4.62-.82-4.62-2.24S667.96,123.48,670.78,123.48Zm0,5.82c3.84,0,6.3-1.32,6.3-3.56s-2.46-3.58-6.3-3.58-6.3,1.34-6.3,3.58S666.94,129.3,670.78,129.3Zm-4.38,4.58h-1.64v5.2H677.1v-1.34H666.4Zm-3.74-2.9v1.32h16.22v-1.32Zm30.06-.56v1.18h3.14v1h1.54V121.86h-1.54v8.56Zm-2.44-7.1c1.46,0,2.42.58,2.42,1.5s-.96,1.5-2.42,1.5-2.4-.58-2.4-1.5S688.82,123.32,690.28,123.32Zm0,4.18c2.34,0,3.9-1.02,3.9-2.68,0-1.64-1.56-2.66-3.9-2.66-2.32,0-3.88,1.02-3.88,2.66C686.4,126.48,687.96,127.5,690.28,127.5Zm-.74,5.1h1.56v-2.98a33.8,33.8,0,0,0,3.92-.5l-.12-1.14a66.192,66.192,0,0,1-9.46.52l.2,1.28c1.1,0,2.46,0,3.9-.08Zm9.52,5.34h-8.84v-1.7h8.84Zm0-2.96h-8.84V133.3H688.6v5.94h12.06V133.3h-1.6Zm.04-13.42v11.08h1.56V121.56Zm12.96,1.52c2.94,0,4.62.68,4.62,1.88s-1.68,1.88-4.62,1.88-4.62-.68-4.62-1.88S709.12,123.08,712.06,123.08Zm0,4.98c3.94,0,6.3-1.08,6.3-3.1s-2.36-3.12-6.3-3.12-6.3,1.1-6.3,3.12S708.12,128.06,712.06,128.06Zm-4.5,8.12H718.1v-4.04H705.9v1.24h10.58v1.6H705.96v4.3h12.68V138H707.56Zm-3.62-6.9v1.32h16.24v-1.32Zm39.14,1.14h-2.66a29.613,29.613,0,0,0,.5-6.16V122.7H728.88v1.32h10.44v.24a26.519,26.519,0,0,1-.56,6.16h-11.9v1.34h7.24v7.74h1.66v-7.74h7.32Zm15.28,1.74h1.66v-10.6h-1.66v3.8h-3.9v1.34h3.9Zm-2.6-2.12a6.151,6.151,0,0,1-4.36-5.7v-1.78h-1.64v1.84a6.537,6.537,0,0,1-4.54,6.12l.86,1.34a7.586,7.586,0,0,0,4.54-4.56,7.344,7.344,0,0,0,4.26,4.02Zm-1.66,8.12c-2.7,0-4.34-.78-4.34-2.08,0-1.32,1.64-2.1,4.34-2.1s4.34.78,4.34,2.1C758.44,137.38,756.8,138.16,754.1,138.16Zm0-5.46c-3.68,0-5.98,1.22-5.98,3.38,0,2.14,2.3,3.38,5.98,3.38s5.96-1.24,5.96-3.38C760.06,133.92,757.78,132.7,754.1,132.7Zm14.8,1.42a2.77,2.77,0,1,1,2.82-2.76A2.69,2.69,0,0,1,768.9,134.12Zm0-6.9a4.137,4.137,0,1,0,4.38,4.14A4.089,4.089,0,0,0,768.9,127.22Zm.8-5.46h-1.64v2.66h-4.52v1.32h10.58v-1.32H769.7Zm10.7,7.16h-2.94v-7.36h-1.64v17.92h1.64V130.3h2.94Zm14.3-3.8a38.3,38.3,0,0,1-.68,8.12l1.64.18a40.44,40.44,0,0,0,.68-8.3v-1.78H783.76v1.34H794.7Zm-4.7,10.5V129.2h-1.64v6.42h-6.3v1.34h16.22v-1.34Zm16.48-10.88h3.98v-1.36h-9.7v1.36h4.1v2.28a9.378,9.378,0,0,1-4.72,7.72l.96,1.3a10.127,10.127,0,0,0,4.58-5.94,9.679,9.679,0,0,0,4.5,5.5l.94-1.32a8.627,8.627,0,0,1-4.64-7.26Zm10.72,4.04h-2.96v-7.22H812.6v17.92h1.64v-9.32h2.96Zm16.44,2.12h-4.46v-6.24h4.46Zm-6.1,0H824.8v1.34h13.22V130.9h-2.74v-6.24h2.78v-1.32h-13.3v1.32h2.78Zm-4.22,4.92v1.36h16.26v-1.36Zm27.34.1v-3.38h5.74v-1.32H845.36v-2.9h10.62v-5.46H843.7v1.34h10.68V127H843.74v5.54H849v3.38h-7.3v1.34H858v-1.34Zm16.86-9.76v1.34h2.7v4.88h1.56V121.94h-1.56v4.22Zm1.4,4.24a5.651,5.651,0,0,1-3.5-5.06v-1h3.08V123h-7.96v1.34h3.3v1.02a6.074,6.074,0,0,1-3.64,5.46l.86,1.26a6.822,6.822,0,0,0,3.6-4,6.482,6.482,0,0,0,3.44,3.58Zm-5.72,4.24h10.42v4.86h1.64v-6.18H863.2Zm10.48-13.08v10.96h1.58V121.56Zm19.24,9.66H882.26v-2.84h10.08v-1.3H882.26v-2.66h10.48V123.1H880.6v9.44h12.32Zm-14.42,4.6v1.34h16.28v-1.34Zm30.98-11.14H899v3.84h12.42v-1.18h-10.8V125.8H911.1v-3.74H898.96v1.16h10.52Zm-8.96,11.72h10.64v-3.82h-12.3v1.18h10.68v1.5H898.9v3.98h12.82v-1.18h-11.2Zm-3.6-6.52v1.24h16.26v-1.24Zm23.94-6.4v1.32h6.74c-.34,4.26-2.74,7.7-7.56,10l.88,1.34c5.96-2.92,8.34-7.48,8.34-12.66Zm12.02-1.94v17.94h1.64V121.54Zm16.5,1.64h-4.44v-1.74H943.3v1.74h-4.42v1.24h10.5Zm-7.96,4.58c0-.94,1.08-1.52,2.7-1.52,1.66,0,2.72.58,2.72,1.52,0,.92-1.06,1.52-2.72,1.52C942.5,129.28,941.42,128.68,941.42,127.76Zm8.4,3.38c-1.56.22-3.22.34-4.88.42V130.4c2.12-.2,3.46-1.18,3.46-2.64,0-1.64-1.7-2.68-4.28-2.68-2.54,0-4.24,1.04-4.24,2.68,0,1.44,1.32,2.42,3.42,2.64v1.24c-1.78.06-3.52.06-5.02.06l.24,1.3a72.773,72.773,0,0,0,11.4-.7Zm-8.96,4.56h10.38v3.78h1.64V134.4H940.86Zm10.38-14.12v11.98h1.64V121.58Zm16.66,6.24h2.26v4.84h1.58v-11.1h-1.58v4.92H967.9v-4.64h-1.54v10.54h1.54Zm-2.28-4.22h-3.74v-1.96h-1.62v1.96H956.5v1.3h9.12Zm-4.54,3.42c1.4,0,2.36.74,2.36,1.86s-.96,1.84-2.36,1.84c-1.42,0-2.36-.72-2.36-1.84S959.66,127.02,961.08,127.02Zm0,4.92c2.26,0,3.82-1.22,3.82-3.06,0-1.86-1.56-3.08-3.82-3.08s-3.84,1.22-3.84,3.08C957.24,130.72,958.82,131.94,961.08,131.94Zm8.46,1.24h-1.62v.62a5,5,0,0,1-2.52,4.04,4.646,4.646,0,0,1-2.48-4.04v-.62h-1.58v.62a4.914,4.914,0,0,1-3.6,4.24l.76,1.22a6.28,6.28,0,0,0,3.62-3.2,5.511,5.511,0,0,0,3.32,3.36,5.908,5.908,0,0,0,3.28-3.42,5.872,5.872,0,0,0,3.66,3.26l.76-1.22a4.725,4.725,0,0,1-3.6-4.24Zm20.76-6.04c-3.18-.4-6.34-2.38-6.34-4.6v-.8h-1.68v.8c0,2.28-3.14,4.2-6.36,4.6l.6,1.32c2.8-.44,5.48-1.84,6.6-3.84,1.14,2,3.8,3.4,6.58,3.84Zm-2.82,10.78h-8.82v-2.28h8.82Zm0-3.54h-8.82v-2.1h-1.62v6.96H989.1v-6.96h-1.62Zm-12.5-4.66v1.32h16.24v-1.32Zm21.18-6.44h-1.64v11.56H996a42.619,42.619,0,0,0,8.8-.84l-.18-1.4a42.382,42.382,0,0,1-8.46.84Zm10.3-1.74v17.92h1.64V121.54Zm7.74,3.08h6.7v-1.36h-8.34v11.78h1.42a42.527,42.527,0,0,0,8.48-.64l-.18-1.36a43.6,43.6,0,0,1-8.08.6Zm14.36,4h-2.96v-7.08h-1.64v17.98h1.64v-9.54h2.96Zm3.36,9.64a1.321,1.321,0,0,0,1.32-1.38,1.324,1.324,0,1,0-2.64,0A1.321,1.321,0,0,0,1031.92,138.26Z" transform="translate(620 1277)"/>
  </g>
</svg>
