<svg xmlns="http://www.w3.org/2000/svg" width="1920" height="2958" viewBox="0 0 1920 2958">
  <g id="그룹_166" data-name="그룹 166" transform="translate(0 -1150)">
    <rect id="사각형_295" data-name="사각형 295" width="1920" height="2958" transform="translate(0 1150)" fill="#fff"/>
    <g id="그룹_165" data-name="그룹 165">
      <g id="그룹_164" data-name="그룹 164">
        <rect id="사각형_296" data-name="사각형 296" width="255" height="60" transform="translate(260 1253)" fill="#fff"/>
        <text id="Over_View." data-name="Over View." transform="translate(260 1302)" font-size="50" font-family="Helvetica75-Bold, Helvetica75" font-weight="700"><tspan x="0" y="0">Over View.</tspan></text>
      </g>
    </g>
    <path id="패스_300" data-name="패스 300" d="M3.45,0H11.3V-11.5l4.5-4.55L26.55,0H36.4L21.1-21.6,35.05-35.7h-9.8L11.3-20.9V-35.7H3.45ZM63.3-11.2v-.65a5.307,5.307,0,0,0,.05-.6,17.436,17.436,0,0,0-.825-5.4,13.889,13.889,0,0,0-2.4-4.5,11.108,11.108,0,0,0-3.95-3.075A12.528,12.528,0,0,0,50.75-26.55a13.724,13.724,0,0,0-5.35,1.025,12.169,12.169,0,0,0-4.2,2.875,12.944,12.944,0,0,0-2.7,4.35,15.077,15.077,0,0,0-.95,5.4,15.8,15.8,0,0,0,.925,5.475,12.513,12.513,0,0,0,2.65,4.35A11.522,11.522,0,0,0,45.3-.275,14.621,14.621,0,0,0,50.75.7a13,13,0,0,0,7.575-2.125A12.278,12.278,0,0,0,62.85-8H56.6a4.164,4.164,0,0,1-1.95,2.325A6.619,6.619,0,0,1,51-4.65a6.226,6.226,0,0,1-4.6-1.6,7.229,7.229,0,0,1-1.75-4.95ZM44.65-15.7A7.113,7.113,0,0,1,45-17.475a5.429,5.429,0,0,1,1-1.775,5.382,5.382,0,0,1,1.825-1.4,6.158,6.158,0,0,1,2.725-.55,5.122,5.122,0,0,1,3.825,1.35A7.754,7.754,0,0,1,56.2-15.7Zm46.4-10.15H83.7L78.05-8.15h-.1L72.1-25.85H64.5L73.6-1.6A4.268,4.268,0,0,1,73.9,0a3.422,3.422,0,0,1-.725,2.175A2.871,2.871,0,0,1,71.15,3.25q-1.3,0-3.25-.15L67,3V8.85a42.33,42.33,0,0,0,4.35.25,10.3,10.3,0,0,0,5.7-1.35,8.743,8.743,0,0,0,3.2-4.5Zm40.1,0h-7.3L119.1-8.35H119l-4.4-17.5h-6.9L103.4-8.3h-.1L98.55-25.85h-7.5L99.25,0h7.35L111-17.35h.1L115.7,0H123Zm2.2,12.95A13.5,13.5,0,0,0,137-3.025,12.965,12.965,0,0,0,146.7.7a13.03,13.03,0,0,0,9.75-3.725A13.5,13.5,0,0,0,160.1-12.9q0-6.2-3.65-9.925a13.03,13.03,0,0,0-9.75-3.725,12.965,12.965,0,0,0-9.7,3.725Q133.35-19.1,133.35-12.9Zm7.1,0a14.5,14.5,0,0,1,.325-3.125,8.477,8.477,0,0,1,1.05-2.65,5.2,5.2,0,0,1,1.95-1.85A5.974,5.974,0,0,1,146.7-21.2a6.085,6.085,0,0,1,2.975.675,5.2,5.2,0,0,1,1.95,1.85,8.478,8.478,0,0,1,1.05,2.65A14.5,14.5,0,0,1,153-12.9a14.152,14.152,0,0,1-.325,3.1,8.5,8.5,0,0,1-1.05,2.625,5.2,5.2,0,0,1-1.95,1.85,6.085,6.085,0,0,1-2.975.675,5.974,5.974,0,0,1-2.925-.675,5.2,5.2,0,0,1-1.95-1.85,8.5,8.5,0,0,1-1.05-2.625A14.152,14.152,0,0,1,140.45-12.9ZM164.7,0h7.1V-11.65a9.929,9.929,0,0,1,1.675-6.025q1.675-2.275,5.325-2.275a13.388,13.388,0,0,1,1.375.075,10.688,10.688,0,0,1,1.175.175v-6.6a4.869,4.869,0,0,0-1.55-.25A8.848,8.848,0,0,0,174.85-25a8.378,8.378,0,0,0-3.3,3.95h-.1v-4.8H164.7Zm37.9,0h6.75V-35.7h-7.1v13h-.1a7.567,7.567,0,0,0-3.225-2.85,10.062,10.062,0,0,0-4.425-1,10.968,10.968,0,0,0-4.925,1.075A10.154,10.154,0,0,0,185.95-22.5a13.412,13.412,0,0,0-2.175,4.3,17.37,17.37,0,0,0-.725,5.05,18.5,18.5,0,0,0,.725,5.225,13.6,13.6,0,0,0,2.2,4.425A10.593,10.593,0,0,0,189.65-.425a10.826,10.826,0,0,0,5,1.125,10.533,10.533,0,0,0,4.625-.975A7.416,7.416,0,0,0,202.5-3.3h.1Zm-.1-13a15.925,15.925,0,0,1-.3,3.175,8.059,8.059,0,0,1-1.025,2.65,5.315,5.315,0,0,1-1.9,1.85,5.689,5.689,0,0,1-2.875.675,5.321,5.321,0,0,1-2.775-.7,5.9,5.9,0,0,1-1.95-1.9,8.961,8.961,0,0,1-1.15-2.675,12.229,12.229,0,0,1-.375-3.025,14.5,14.5,0,0,1,.325-3.125,8.132,8.132,0,0,1,1.075-2.65,5.249,5.249,0,0,1,1.95-1.825,6.012,6.012,0,0,1,2.9-.65,5.9,5.9,0,0,1,2.85.65,4.934,4.934,0,0,1,1.9,1.8,8.563,8.563,0,0,1,1.025,2.6A14.4,14.4,0,0,1,202.5-13ZM215,0h7.85V-7.7H215Z" transform="translate(260 1642)"/>
    <path id="패스_301" data-name="패스 301" d="M1.2-11.85A12.316,12.316,0,0,0,2.425-6.225a11.169,11.169,0,0,0,3.35,4A14.538,14.538,0,0,0,10.625.1,21.674,21.674,0,0,0,16.4.85q7.05,0,10.95-3.175a10.166,10.166,0,0,0,3.9-8.275,9.176,9.176,0,0,0-1.1-4.625,9.042,9.042,0,0,0-2.75-3.05,14.563,14.563,0,0,0-3.15-1.675,32.516,32.516,0,0,0-3.3-1,.944.944,0,0,1-.3-.05,4.2,4.2,0,0,0-.8-.2q-3.75-.95-5.4-1.45a19.623,19.623,0,0,1-2.65-.975,3.269,3.269,0,0,1-1.4-1.1A3.076,3.076,0,0,1,10-26.4a3.35,3.35,0,0,1,1.6-3.05,7.023,7.023,0,0,1,3.8-1,9.227,9.227,0,0,1,5.025,1.2,4.91,4.91,0,0,1,2.025,4.2h7.6a11.081,11.081,0,0,0-1.15-5.2,10.046,10.046,0,0,0-3.125-3.6,13.5,13.5,0,0,0-4.55-2.05,22.3,22.3,0,0,0-5.475-.65,17.746,17.746,0,0,0-4.875.675,14.175,14.175,0,0,0-4.3,2.025,9.947,9.947,0,0,0-3.05,3.4A9.609,9.609,0,0,0,2.4-25.75a9.023,9.023,0,0,0,.875,4.125,8.182,8.182,0,0,0,2.35,2.85A13.339,13.339,0,0,0,8.9-16.95a43.623,43.623,0,0,0,4.15,1.35q.85.2,2.3.6,2.2.5,3.5.9a14.156,14.156,0,0,1,2.4.975,5.322,5.322,0,0,1,1.75,1.4A3.171,3.171,0,0,1,23.65-9.7,3.546,3.546,0,0,1,23-7.525,4.427,4.427,0,0,1,21.275-6.15a8.821,8.821,0,0,1-2.25.7,13.836,13.836,0,0,1-2.325.2,9.377,9.377,0,0,1-5.675-1.625A5.753,5.753,0,0,1,8.8-11.85ZM44.15-33.6h-7.1v7.75h-4.3v4.75h4.3V-5.85a6.733,6.733,0,0,0,.625,3.075,4.6,4.6,0,0,0,1.75,1.9,7.389,7.389,0,0,0,2.55.925A18.781,18.781,0,0,0,45.2.3,26.656,26.656,0,0,0,49.35.05V-5.5a11.238,11.238,0,0,1-2.2.2,3.475,3.475,0,0,1-2.4-.6,3.475,3.475,0,0,1-.6-2.4V-21.1h5.2v-4.75h-5.2ZM52.75,0h7.1V-11.65a9.929,9.929,0,0,1,1.675-6.025Q63.2-19.95,66.85-19.95a13.389,13.389,0,0,1,1.375.075A10.687,10.687,0,0,1,69.4-19.7v-6.6a4.869,4.869,0,0,0-1.55-.25A8.848,8.848,0,0,0,62.9-25a8.378,8.378,0,0,0-3.3,3.95h-.1v-4.8H52.75ZM88.3-10a11.1,11.1,0,0,1-.15,1.775,5.758,5.758,0,0,1-.7,1.9A4.264,4.264,0,0,1,85.7-4.7a6.605,6.605,0,0,1-3.15.65,6.011,6.011,0,0,1-3.175-.725A2.78,2.78,0,0,1,78.2-7.35a3.009,3.009,0,0,1,1.1-2.575,7.665,7.665,0,0,1,3.1-1.225q.65-.1,1.7-.25,1.65-.25,2.625-.5a3.964,3.964,0,0,0,1.575-.75ZM79-17.9a4.05,4.05,0,0,1,1.4-2.975,5.283,5.283,0,0,1,3.3-.925,6.806,6.806,0,0,1,3.4.7,2.968,2.968,0,0,1,1.2,2.8,2.1,2.1,0,0,1-1.45,2.15,22,22,0,0,1-4.65.95q-1.3.15-2.3.3a21.765,21.765,0,0,0-3.4.7,9.565,9.565,0,0,0-2.725,1.3,6,6,0,0,0-1.95,2.3A7.881,7.881,0,0,0,71.1-7.05a6.98,6.98,0,0,0,2.45,5.775A9.8,9.8,0,0,0,79.9.7a14.861,14.861,0,0,0,4.825-.775A9.636,9.636,0,0,0,88.6-2.5,9.738,9.738,0,0,0,89.1,0h7.2a6.38,6.38,0,0,1-.675-2.275A24.009,24.009,0,0,1,95.4-5.75V-19.2a6.4,6.4,0,0,0-1-3.675,6.677,6.677,0,0,0-2.625-2.275,12.271,12.271,0,0,0-3.6-1.1,27.451,27.451,0,0,0-4.125-.3,21.767,21.767,0,0,0-4.375.425,12.152,12.152,0,0,0-3.8,1.45,8.12,8.12,0,0,0-2.775,2.7A8.559,8.559,0,0,0,71.9-17.9Zm30.9-15.7h-7.1v7.75H98.5v4.75h4.3V-5.85a6.733,6.733,0,0,0,.625,3.075,4.6,4.6,0,0,0,1.75,1.9,7.389,7.389,0,0,0,2.55.925A18.781,18.781,0,0,0,110.95.3,26.656,26.656,0,0,0,115.1.05V-5.5a11.238,11.238,0,0,1-2.2.2,3.475,3.475,0,0,1-2.4-.6,3.475,3.475,0,0,1-.6-2.4V-21.1h5.2v-4.75h-5.2Zm33.45,7.75H136.6v3.45h-.1a7.7,7.7,0,0,0-3.15-3.175,9.857,9.857,0,0,0-4.55-.975,10.53,10.53,0,0,0-4.725,1.025,10.128,10.128,0,0,0-3.5,2.825,12.68,12.68,0,0,0-2.15,4.1,16.038,16.038,0,0,0-.725,4.85,19.076,19.076,0,0,0,.65,5.1,12.035,12.035,0,0,0,2,4.125,9.213,9.213,0,0,0,3.475,2.775,11.448,11.448,0,0,0,4.925,1,10.282,10.282,0,0,0,4.525-1.025A7.172,7.172,0,0,0,136.5-4.75h.1v3.4a7.119,7.119,0,0,1-1.425,4.675A5.224,5.224,0,0,1,130.9,5.05a6.693,6.693,0,0,1-3.45-.825A4.066,4.066,0,0,1,125.6,1.5h-7.05a7.238,7.238,0,0,0,1.15,3.7,8.476,8.476,0,0,0,2.675,2.6,12.828,12.828,0,0,0,3.6,1.5,16.138,16.138,0,0,0,3.975.5,18.666,18.666,0,0,0,6.925-1.1A9.871,9.871,0,0,0,141,5.85a9.545,9.545,0,0,0,1.875-3.65,15.815,15.815,0,0,0,.475-3.85ZM130.55-6.1a5.1,5.1,0,0,1-2.675-.675,5.243,5.243,0,0,1-1.8-1.775A7.938,7.938,0,0,1,125.1-11a13.108,13.108,0,0,1-.3-2.85,9.025,9.025,0,0,1,1.45-5.25,4.885,4.885,0,0,1,4.3-2.1,5.942,5.942,0,0,1,2.825.625,4.92,4.92,0,0,1,1.875,1.725,7.957,7.957,0,0,1,1.025,2.525,13.814,13.814,0,0,1,.325,3.075,8.177,8.177,0,0,1-1.575,5.05A5.262,5.262,0,0,1,130.55-6.1ZM172.6-25.85h-7.35L159.6-8.15h-.1l-5.85-17.7h-7.6l9.1,24.25a4.268,4.268,0,0,1,.3,1.6,3.422,3.422,0,0,1-.725,2.175A2.871,2.871,0,0,1,152.7,3.25q-1.3,0-3.25-.15l-.9-.1V8.85a42.33,42.33,0,0,0,4.35.25,10.3,10.3,0,0,0,5.7-1.35,8.743,8.743,0,0,0,3.2-4.5ZM175.3,0h7.85V-7.7H175.3Z" transform="translate(260 1974)"/>
    <path id="패스_302" data-name="패스 302" d="M34.85-23.7a14.6,14.6,0,0,0-1.675-5.45,13.363,13.363,0,0,0-3.4-4.05,14.759,14.759,0,0,0-4.725-2.5,18.225,18.225,0,0,0-5.6-.85,18.175,18.175,0,0,0-7.325,1.425,15.608,15.608,0,0,0-5.55,4A17.843,17.843,0,0,0,3.1-25.1a22.37,22.37,0,0,0-1.2,7.4,21.625,21.625,0,0,0,1.2,7.25A17.387,17.387,0,0,0,6.575-4.525a15.9,15.9,0,0,0,5.55,3.95A18.175,18.175,0,0,0,19.45.85a17.05,17.05,0,0,0,6-1.025,14.418,14.418,0,0,0,4.825-2.95A14.594,14.594,0,0,0,33.6-7.75a18.067,18.067,0,0,0,1.55-6h-7.6a9.931,9.931,0,0,1-2.525,5.825A7.343,7.343,0,0,1,19.45-5.75a9.317,9.317,0,0,1-4.4-.975A8.357,8.357,0,0,1,12.025-9.4,11.915,11.915,0,0,1,10.3-13.225,17.794,17.794,0,0,1,9.75-17.7a19.111,19.111,0,0,1,.55-4.65,12.156,12.156,0,0,1,1.7-3.9,8.3,8.3,0,0,1,3.025-2.7,9.273,9.273,0,0,1,4.425-1,8.086,8.086,0,0,1,5.2,1.8,6.674,6.674,0,0,1,2.6,4.45Zm4.1,10.8A13.5,13.5,0,0,0,42.6-3.025,12.965,12.965,0,0,0,52.3.7a13.03,13.03,0,0,0,9.75-3.725A13.5,13.5,0,0,0,65.7-12.9q0-6.2-3.65-9.925A13.03,13.03,0,0,0,52.3-26.55a12.965,12.965,0,0,0-9.7,3.725Q38.95-19.1,38.95-12.9Zm7.1,0a14.494,14.494,0,0,1,.325-3.125,8.478,8.478,0,0,1,1.05-2.65,5.2,5.2,0,0,1,1.95-1.85A5.974,5.974,0,0,1,52.3-21.2a6.085,6.085,0,0,1,2.975.675,5.2,5.2,0,0,1,1.95,1.85,8.478,8.478,0,0,1,1.05,2.65A14.494,14.494,0,0,1,58.6-12.9a14.152,14.152,0,0,1-.325,3.1,8.5,8.5,0,0,1-1.05,2.625,5.2,5.2,0,0,1-1.95,1.85A6.085,6.085,0,0,1,52.3-4.65a5.974,5.974,0,0,1-2.925-.675,5.2,5.2,0,0,1-1.95-1.85A8.5,8.5,0,0,1,46.375-9.8,14.151,14.151,0,0,1,46.05-12.9ZM70.5,0h7.1V-35.7H70.5ZM82.4-12.9a13.5,13.5,0,0,0,3.65,9.875A12.965,12.965,0,0,0,95.75.7a13.03,13.03,0,0,0,9.75-3.725,13.5,13.5,0,0,0,3.65-9.875q0-6.2-3.65-9.925a13.03,13.03,0,0,0-9.75-3.725,12.965,12.965,0,0,0-9.7,3.725Q82.4-19.1,82.4-12.9Zm7.1,0a14.494,14.494,0,0,1,.325-3.125,8.478,8.478,0,0,1,1.05-2.65,5.2,5.2,0,0,1,1.95-1.85A5.974,5.974,0,0,1,95.75-21.2a6.085,6.085,0,0,1,2.975.675,5.2,5.2,0,0,1,1.95,1.85,8.478,8.478,0,0,1,1.05,2.65,14.494,14.494,0,0,1,.325,3.125,14.151,14.151,0,0,1-.325,3.1,8.5,8.5,0,0,1-1.05,2.625,5.2,5.2,0,0,1-1.95,1.85,6.085,6.085,0,0,1-2.975.675,5.974,5.974,0,0,1-2.925-.675,5.2,5.2,0,0,1-1.95-1.85A8.5,8.5,0,0,1,89.825-9.8,14.151,14.151,0,0,1,89.5-12.9ZM113.75,0h7.1V-11.65a9.929,9.929,0,0,1,1.675-6.025q1.675-2.275,5.325-2.275a13.388,13.388,0,0,1,1.375.075,10.687,10.687,0,0,1,1.175.175v-6.6a4.87,4.87,0,0,0-1.55-.25A8.848,8.848,0,0,0,123.9-25a8.378,8.378,0,0,0-3.3,3.95h-.1v-4.8h-6.75ZM163.5-27.95a4.255,4.255,0,0,1-.9,2.825,12.41,12.41,0,0,1-2.75,2.275,6.742,6.742,0,0,0-.45-.55,15.8,15.8,0,0,1-1.775-2.425,4.772,4.772,0,0,1-.575-2.375,2.971,2.971,0,0,1,.95-2.25,3.162,3.162,0,0,1,2.25-.9,3.081,3.081,0,0,1,2.275,1A3.316,3.316,0,0,1,163.5-27.95Zm.35,19.65a10.691,10.691,0,0,1-2.775,2.35,6.473,6.473,0,0,1-3.225.8,5.168,5.168,0,0,1-3.575-1.375A4.317,4.317,0,0,1,152.75-9.85a4.837,4.837,0,0,1,1.425-3.475,11.18,11.18,0,0,1,3.575-2.425ZM170.5,0h8.7l-7.25-8.45a16.146,16.146,0,0,0,2.325-4.075A17.642,17.642,0,0,0,175.4-17.25h-6.15a12.993,12.993,0,0,1-1.3,4.25l-4.6-5.65A13.956,13.956,0,0,0,168-22.4a8.181,8.181,0,0,0,1.7-5.15,7.64,7.64,0,0,0-2.775-6.325A10.875,10.875,0,0,0,159.9-36.1a10.629,10.629,0,0,0-3.475.575,9.463,9.463,0,0,0-3,1.675,8,8,0,0,0-2.075,2.6,7.275,7.275,0,0,0-.75,3.3,8.378,8.378,0,0,0,.85,3.8,21.576,21.576,0,0,0,2.55,3.8,17.136,17.136,0,0,0-5.75,4.25A9.028,9.028,0,0,0,146-10a10,10,0,0,0,3.35,7.9,10.867,10.867,0,0,0,3.675,2.075A13.919,13.919,0,0,0,157.55.7,13.7,13.7,0,0,0,163-.35a14.732,14.732,0,0,0,4.6-3.2ZM3.45,60H11.3V45.25H26.25v-6.1H11.3V30.9H28.55V24.3H3.45Zm28.1-12.9a13.5,13.5,0,0,0,3.65,9.875A12.965,12.965,0,0,0,44.9,60.7a13.03,13.03,0,0,0,9.75-3.725A13.5,13.5,0,0,0,58.3,47.1q0-6.2-3.65-9.925A13.03,13.03,0,0,0,44.9,33.45a12.965,12.965,0,0,0-9.7,3.725Q31.55,40.9,31.55,47.1Zm7.1,0a14.494,14.494,0,0,1,.325-3.125,8.478,8.478,0,0,1,1.05-2.65,5.2,5.2,0,0,1,1.95-1.85A5.974,5.974,0,0,1,44.9,38.8a6.085,6.085,0,0,1,2.975.675,5.2,5.2,0,0,1,1.95,1.85,8.478,8.478,0,0,1,1.05,2.65A14.494,14.494,0,0,1,51.2,47.1a14.151,14.151,0,0,1-.325,3.1,8.5,8.5,0,0,1-1.05,2.625,5.2,5.2,0,0,1-1.95,1.85,6.085,6.085,0,0,1-2.975.675,5.974,5.974,0,0,1-2.925-.675,5.2,5.2,0,0,1-1.95-1.85,8.5,8.5,0,0,1-1.05-2.625A14.152,14.152,0,0,1,38.65,47.1ZM62.9,60H70V46.45q0-3.95,1.3-5.675a4.919,4.919,0,0,1,4.2-1.725A3.917,3.917,0,0,1,79,40.6a8.686,8.686,0,0,1,1.05,4.8V60h7.1V44.1a20.926,20.926,0,0,0-.425-4.475,8.113,8.113,0,0,0-1.5-3.3A6.911,6.911,0,0,0,82.3,34.2a12.3,12.3,0,0,0-4.6-.75,9.6,9.6,0,0,0-4.475,1.1,8.651,8.651,0,0,0-3.425,3.2h-.15v-3.6H62.9Zm38.65-33.6h-7.1v7.75h-4.3V38.9h4.3V54.15a6.733,6.733,0,0,0,.625,3.075,4.6,4.6,0,0,0,1.75,1.9,7.389,7.389,0,0,0,2.55.925,18.781,18.781,0,0,0,3.225.25,26.656,26.656,0,0,0,4.15-.25V54.5a11.238,11.238,0,0,1-2.2.2,3.475,3.475,0,0,1-2.4-.6,3.475,3.475,0,0,1-.6-2.4V38.9h5.2V34.15h-5.2Zm8.9,33.6h7.85V52.3h-7.85Z" transform="translate(260 2470)"/>
    <path id="패스_303" data-name="패스 303" d="M30.05,0h5V-19.3h-15v5.85h7.9a8.464,8.464,0,0,1-2.525,5.725A8.558,8.558,0,0,1,19.45-5.75a9.317,9.317,0,0,1-4.4-.975A8.357,8.357,0,0,1,12.025-9.4,11.915,11.915,0,0,1,10.3-13.225,17.794,17.794,0,0,1,9.75-17.7a19.111,19.111,0,0,1,.55-4.65,12.156,12.156,0,0,1,1.7-3.9,8.3,8.3,0,0,1,3.025-2.7,9.273,9.273,0,0,1,4.425-1,7.785,7.785,0,0,1,4.875,1.55A7.414,7.414,0,0,1,27-23.95h7.5a13.635,13.635,0,0,0-1.625-5.325,12.874,12.874,0,0,0-3.4-3.975A15.452,15.452,0,0,0,24.8-35.7a17.11,17.11,0,0,0-5.35-.85,18.175,18.175,0,0,0-7.325,1.425,15.608,15.608,0,0,0-5.55,4A17.843,17.843,0,0,0,3.1-25.1a22.37,22.37,0,0,0-1.2,7.4,21.625,21.625,0,0,0,1.2,7.25A17.387,17.387,0,0,0,6.575-4.525a15.9,15.9,0,0,0,5.55,3.95A18.175,18.175,0,0,0,19.45.85a12.527,12.527,0,0,0,5.3-1.175,12,12,0,0,0,4.5-3.725Zm10.6,0h7.1V-11.65a9.929,9.929,0,0,1,1.675-6.025Q51.1-19.95,54.75-19.95a13.388,13.388,0,0,1,1.375.075A10.687,10.687,0,0,1,57.3-19.7v-6.6a4.87,4.87,0,0,0-1.55-.25A8.848,8.848,0,0,0,50.8-25a8.378,8.378,0,0,0-3.3,3.95h-.1v-4.8H40.65ZM60.3,0h7.1V-25.85H60.3Zm7.1-35.7H60.3v5.85h7.1ZM91.45,0H98.2V-35.7H91.1v13H91a7.567,7.567,0,0,0-3.225-2.85,10.062,10.062,0,0,0-4.425-1,10.968,10.968,0,0,0-4.925,1.075A10.154,10.154,0,0,0,74.8-22.5a13.412,13.412,0,0,0-2.175,4.3,17.37,17.37,0,0,0-.725,5.05,18.5,18.5,0,0,0,.725,5.225,13.6,13.6,0,0,0,2.2,4.425A10.593,10.593,0,0,0,78.5-.425,10.826,10.826,0,0,0,83.5.7a10.533,10.533,0,0,0,4.625-.975A7.416,7.416,0,0,0,91.35-3.3h.1Zm-.1-13a15.925,15.925,0,0,1-.3,3.175,8.059,8.059,0,0,1-1.025,2.65,5.315,5.315,0,0,1-1.9,1.85,5.689,5.689,0,0,1-2.875.675,5.321,5.321,0,0,1-2.775-.7,5.9,5.9,0,0,1-1.95-1.9,8.961,8.961,0,0,1-1.15-2.675A12.229,12.229,0,0,1,79-12.95a14.494,14.494,0,0,1,.325-3.125,8.131,8.131,0,0,1,1.075-2.65,5.249,5.249,0,0,1,1.95-1.825,6.012,6.012,0,0,1,2.9-.65,5.9,5.9,0,0,1,2.85.65,4.934,4.934,0,0,1,1.9,1.8,8.562,8.562,0,0,1,1.025,2.6A14.4,14.4,0,0,1,91.35-13Zm24.6,1.15a12.316,12.316,0,0,0,1.225,5.625,11.169,11.169,0,0,0,3.35,4A14.538,14.538,0,0,0,125.375.1a21.674,21.674,0,0,0,5.775.75q7.05,0,10.95-3.175A10.166,10.166,0,0,0,146-10.6a9.176,9.176,0,0,0-1.1-4.625,9.043,9.043,0,0,0-2.75-3.05A14.563,14.563,0,0,0,139-19.95a32.516,32.516,0,0,0-3.3-1,.944.944,0,0,1-.3-.05,4.2,4.2,0,0,0-.8-.2q-3.75-.95-5.4-1.45a19.623,19.623,0,0,1-2.65-.975,3.269,3.269,0,0,1-1.4-1.1,3.076,3.076,0,0,1-.4-1.675,3.35,3.35,0,0,1,1.6-3.05,7.023,7.023,0,0,1,3.8-1,9.227,9.227,0,0,1,5.025,1.2,4.91,4.91,0,0,1,2.025,4.2h7.6a11.081,11.081,0,0,0-1.15-5.2,10.046,10.046,0,0,0-3.125-3.6,13.5,13.5,0,0,0-4.55-2.05,22.3,22.3,0,0,0-5.475-.65,17.746,17.746,0,0,0-4.875.675,14.175,14.175,0,0,0-4.3,2.025,9.947,9.947,0,0,0-3.05,3.4,9.609,9.609,0,0,0-1.125,4.7,9.023,9.023,0,0,0,.875,4.125,8.182,8.182,0,0,0,2.35,2.85,13.339,13.339,0,0,0,3.275,1.825,43.624,43.624,0,0,0,4.15,1.35q.85.2,2.3.6,2.2.5,3.5.9a14.155,14.155,0,0,1,2.4.975,5.322,5.322,0,0,1,1.75,1.4A3.171,3.171,0,0,1,138.4-9.7a3.546,3.546,0,0,1-.65,2.175,4.427,4.427,0,0,1-1.725,1.375,8.82,8.82,0,0,1-2.25.7,13.836,13.836,0,0,1-2.325.2,9.377,9.377,0,0,1-5.675-1.625,5.753,5.753,0,0,1-2.225-4.975Zm57.5-14H166.1l-5.65,17.7h-.1l-5.85-17.7h-7.6L156-1.6a4.268,4.268,0,0,1,.3,1.6,3.422,3.422,0,0,1-.725,2.175A2.871,2.871,0,0,1,153.55,3.25q-1.3,0-3.25-.15l-.9-.1V8.85a42.33,42.33,0,0,0,4.35.25,10.3,10.3,0,0,0,5.7-1.35,8.743,8.743,0,0,0,3.2-4.5ZM174.6-8.4a9.067,9.067,0,0,0,1.125,4.225,8.122,8.122,0,0,0,2.725,2.85,12,12,0,0,0,3.8,1.55,20.366,20.366,0,0,0,4.5.475,19.792,19.792,0,0,0,4.425-.475,12.073,12.073,0,0,0,3.75-1.525,7.633,7.633,0,0,0,2.65-2.8,8.5,8.5,0,0,0,.975-4.2,6.313,6.313,0,0,0-.65-2.95,5.616,5.616,0,0,0-1.8-2.05,11.534,11.534,0,0,0-2.55-1.325,23.964,23.964,0,0,0-3.2-.925q-.55-.15-1.95-.45a25.633,25.633,0,0,1-4.6-1.3,2.183,2.183,0,0,1-1.5-2.1,1.88,1.88,0,0,1,1.15-1.9,7.011,7.011,0,0,1,2.8-.5,6.556,6.556,0,0,1,3.425.775A3.241,3.241,0,0,1,191.1-18.3h6.75a8.88,8.88,0,0,0-1.175-3.9,7.467,7.467,0,0,0-2.55-2.55,11.54,11.54,0,0,0-3.5-1.375,19.358,19.358,0,0,0-4.175-.425,21.269,21.269,0,0,0-4.225.4,11.746,11.746,0,0,0-3.575,1.325,6.7,6.7,0,0,0-2.525,2.575,8.066,8.066,0,0,0-.925,4,5.581,5.581,0,0,0,.675,2.825,5.828,5.828,0,0,0,1.825,1.95,10.81,10.81,0,0,0,2.525,1.25,29.2,29.2,0,0,0,3.175.875,37.686,37.686,0,0,1,6.25,1.725,2.477,2.477,0,0,1,1.8,2.275,2.678,2.678,0,0,1-1.4,2.5,6.436,6.436,0,0,1-3.25.8,6.594,6.594,0,0,1-3.85-1.075,3.83,3.83,0,0,1-1.6-3.275Zm37.1-25.2h-7.1v7.75h-4.3v4.75h4.3V-5.85a6.733,6.733,0,0,0,.625,3.075,4.6,4.6,0,0,0,1.75,1.9,7.389,7.389,0,0,0,2.55.925A18.781,18.781,0,0,0,212.75.3,26.656,26.656,0,0,0,216.9.05V-5.5a11.238,11.238,0,0,1-2.2.2,3.475,3.475,0,0,1-2.4-.6,3.475,3.475,0,0,1-.6-2.4V-21.1h5.2v-4.75h-5.2Zm33.1,22.4v-.65a5.3,5.3,0,0,0,.05-.6,17.435,17.435,0,0,0-.825-5.4,13.889,13.889,0,0,0-2.4-4.5,11.108,11.108,0,0,0-3.95-3.075,12.528,12.528,0,0,0-5.425-1.125,13.724,13.724,0,0,0-5.35,1.025,12.169,12.169,0,0,0-4.2,2.875A12.944,12.944,0,0,0,220-18.3a15.077,15.077,0,0,0-.95,5.4,15.8,15.8,0,0,0,.925,5.475,12.513,12.513,0,0,0,2.65,4.35,11.523,11.523,0,0,0,4.175,2.8A14.621,14.621,0,0,0,232.25.7a13,13,0,0,0,7.575-2.125A12.278,12.278,0,0,0,244.35-8H238.1a4.164,4.164,0,0,1-1.95,2.325A6.619,6.619,0,0,1,232.5-4.65a6.226,6.226,0,0,1-4.6-1.6,7.229,7.229,0,0,1-1.75-4.95Zm-18.65-4.5a7.113,7.113,0,0,1,.35-1.775,5.429,5.429,0,0,1,1-1.775,5.382,5.382,0,0,1,1.825-1.4,6.158,6.158,0,0,1,2.725-.55,5.122,5.122,0,0,1,3.825,1.35A7.754,7.754,0,0,1,237.7-15.7ZM249.2,0h7.1V-15a7.356,7.356,0,0,1,.525-2.95A5.111,5.111,0,0,1,258.1-19.8a4.367,4.367,0,0,1,1.55-.9,4.908,4.908,0,0,1,1.45-.25,4.792,4.792,0,0,1,2.375.5,3.168,3.168,0,0,1,1.3,1.35,5.343,5.343,0,0,1,.525,1.9q.1,1.05.1,2.7V0h7.1V-14.4a14.5,14.5,0,0,1,.2-2.525,6.468,6.468,0,0,1,.7-2.025,3.786,3.786,0,0,1,1.45-1.45,4.736,4.736,0,0,1,2.4-.55,5.032,5.032,0,0,1,2.35.475,3,3,0,0,1,1.325,1.325,5.73,5.73,0,0,1,.55,1.9,22.57,22.57,0,0,1,.125,2.6V0h7.1V-17.3q0-4.8-2.525-7.025a10.111,10.111,0,0,0-6.925-2.225,8.535,8.535,0,0,0-4.55,1.225,10.444,10.444,0,0,0-3.25,3.075,6.674,6.674,0,0,0-2.975-3.25,9.6,9.6,0,0,0-4.575-1.05,9.222,9.222,0,0,0-4.475,1.1A9.953,9.953,0,0,0,256-22.35h-.1v-3.5h-6.7Zm45.4,0h7.85V-7.7H294.6Z" transform="translate(260 2905)"/>
  </g>
</svg>
