<svg xmlns="http://www.w3.org/2000/svg" width="886.431" height="250.304" viewBox="0 0 886.431 250.304">
  <g id="그룹_166" data-name="그룹 166" transform="translate(-621.029 -2030.696)">
    <rect id="사각형_299" data-name="사각형 299" width="885" height="250" transform="translate(622 2031)" fill="#fff"/>
    <path id="패스_307" data-name="패스 307" d="M8.148.273a6.61,6.61,0,0,0,4.767-1.785V-7.98H7.875v1.617H11.13v4.032a4.242,4.242,0,0,1-2.793.9c-3.3,0-5.124-2.436-5.124-6.321,0-3.843,2.016-6.237,5.1-6.237a4.317,4.317,0,0,1,3.339,1.47l1.05-1.26a5.859,5.859,0,0,0-4.431-1.911c-4.074,0-7.056,3.024-7.056,8C1.218-2.688,4.1.273,8.148.273ZM16.569,0h1.848V-8.085c0-1.617-.147-3.255-.231-4.809h.084l1.659,3.171L25.536,0h2V-15.393H25.683v8c0,1.6.147,3.318.252,4.872h-.1L24.192-5.691l-5.607-9.7H16.569ZM31.731,0h4.914c3.444,0,5.838-1.491,5.838-4.515a3.553,3.553,0,0,0-3.15-3.675v-.1A3.354,3.354,0,0,0,41.6-11.634c0-2.709-2.163-3.759-5.292-3.759H31.731Zm1.953-8.841V-13.86h2.373c2.394,0,3.633.672,3.633,2.478,0,1.554-1.071,2.541-3.717,2.541Zm0,7.287v-5.8h2.688c2.688,0,4.2.861,4.2,2.772,0,2.079-1.554,3.024-4.2,3.024Zm13.167-10.08a3.033,3.033,0,0,1,3.318-2.982,3.026,3.026,0,0,1,3.3,2.982,3,3,0,0,1-3.3,2.961A3.006,3.006,0,0,1,46.851-11.634ZM51.03-7.266a4.4,4.4,0,0,0,4.116-4.368c0-2.646-2.1-4.431-4.977-4.431-2.919,0-5,1.785-5,4.431a4.37,4.37,0,0,0,4.137,4.368v3.255c-1.764.042-3.486.063-4.977.063L44.562-2.5a72.814,72.814,0,0,0,11.7-.735l-.147-1.26c-1.617.231-3.36.336-5.082.42ZM62.013-9.513H59.031V-17.3H57.309V1.554h1.722V-8.064h2.982ZM82.362-.084H73.605V-2.5h8.757Zm0-3.759H73.605V-6.2H71.883V1.3h12.18V-6.2h-1.7Zm-.021-13.44v2.961H78.1a9.718,9.718,0,0,0,.168-1.785H69.762V-14.7h6.657c-.294,3.087-3,5.418-7.623,6.594l.714,1.365c4.158-1.071,7.035-3.171,8.19-6.174h4.641v2.436H77.469v1.407h4.872v1.911h1.722V-17.283Zm12.474,4.641H99.12v-1.386H94.836v-2.919H93.093v2.919H88.746v1.386h4.368v1.449A8.881,8.881,0,0,1,88.242-3.4l.966,1.3A9.723,9.723,0,0,0,94-7.917a9.436,9.436,0,0,0,4.809,5.5l.966-1.344a8.436,8.436,0,0,1-4.956-7.434Zm6.762-4.662V1.533h1.743V-17.3ZM122.3-11.613H111.216V-16.59h-1.722v6.384H122.3ZM111.09-4.41h-1.722v5.5h13.041V-.315H111.09Zm-3.906-3.276V-6.3h17.073V-7.686Zm30.282,2.814h-3.948v-8.862h3.948Zm4.389-5.313h-2.793V-15.1H131.9V-3.507h7.161v-5.25h2.793V.609h1.638V-16.863h-1.638Zm3.738-7.1V1.533h1.638V-17.283Zm20.412.021h-1.722V-3.507h1.722ZM152.67-11.34a3.08,3.08,0,0,1,3.213-3.129,3.091,3.091,0,0,1,3.255,3.129,3.1,3.1,0,0,1-3.255,3.171A3.089,3.089,0,0,1,152.67-11.34Zm8.148,0a4.635,4.635,0,0,0-4.935-4.62,4.611,4.611,0,0,0-4.893,4.62,4.632,4.632,0,0,0,4.893,4.662A4.656,4.656,0,0,0,160.818-11.34ZM155.61-.273V-4.914h-1.722V1.134h12.684V-.273Zm32.655-17.01V1.575h1.722V-17.283Zm-12.621,1.6V-2.982h8.862V-15.687h-1.7v4.977h-5.46v-4.977Zm1.7,6.342h5.46v4.956h-5.46Zm18.228,1.218c2.919-.5,5.691-2.079,6.846-4.3,1.134,2.226,3.927,3.8,6.846,4.3l.672-1.365c-3.318-.483-6.573-2.646-6.573-5.124v-.1h5.9v-1.386H195.51v1.386h5.943v.1c0,2.478-3.255,4.641-6.531,5.124Zm15.351,1.575h-17.01v1.407h7.6v6.7h1.722v-6.7h7.707Zm4.221-5.817a2.955,2.955,0,0,1,3.213-2.856,2.955,2.955,0,0,1,3.213,2.856,2.958,2.958,0,0,1-3.213,2.877A2.958,2.958,0,0,1,215.145-12.369Zm11.844.672v4.011h1.722v-9.576h-1.722v4.179h-3.843c-.357-2.121-2.268-3.549-4.788-3.549-2.814,0-4.851,1.743-4.851,4.263,0,2.541,2.037,4.284,4.851,4.284,2.541,0,4.452-1.449,4.809-3.612ZM218.316-.063V-2.121h10.395V-6.657H216.573v1.365H227.01V-3.4h-10.4V1.3h12.81V-.063Z" transform="translate(620 2048)"/>
    <path id="패스_308" data-name="패스 308" d="M8.148.273a6.61,6.61,0,0,0,4.767-1.785V-7.98H7.875v1.617H11.13v4.032a4.242,4.242,0,0,1-2.793.9c-3.3,0-5.124-2.436-5.124-6.321,0-3.843,2.016-6.237,5.1-6.237a4.317,4.317,0,0,1,3.339,1.47l1.05-1.26a5.859,5.859,0,0,0-4.431-1.911c-4.074,0-7.056,3.024-7.056,8C1.218-2.688,4.1.273,8.148.273ZM16.569,0h1.848V-8.085c0-1.617-.147-3.255-.231-4.809h.084l1.659,3.171L25.536,0h2V-15.393H25.683v8c0,1.6.147,3.318.252,4.872h-.1L24.192-5.691l-5.607-9.7H16.569ZM31.731,0h4.914c3.444,0,5.838-1.491,5.838-4.515a3.553,3.553,0,0,0-3.15-3.675v-.1A3.354,3.354,0,0,0,41.6-11.634c0-2.709-2.163-3.759-5.292-3.759H31.731Zm1.953-8.841V-13.86h2.373c2.394,0,3.633.672,3.633,2.478,0,1.554-1.071,2.541-3.717,2.541Zm0,7.287v-5.8h2.688c2.688,0,4.2.861,4.2,2.772,0,2.079-1.554,3.024-4.2,3.024Zm17.85-7.119h5.04V-15.2H49.812V-13.8h5.1v3.759h-5.04v6.972h1.239a40.774,40.774,0,0,0,7.161-.546l-.147-1.407a36.663,36.663,0,0,1-6.594.5Zm8.253-1.848H57.456v1.428h2.331V.567H61.4V-16.821H59.787Zm3.8-6.762V1.554h1.659V-17.283Zm18.669,0V1.6h1.722V-17.283Zm-8.211,1.449c-2.793,0-4.788,2.562-4.788,6.573s2,6.573,4.788,6.573,4.788-2.562,4.788-6.573S76.839-15.834,74.046-15.834Zm0,1.554c1.827,0,3.129,1.974,3.129,5.019,0,3.066-1.3,5.04-3.129,5.04-1.848,0-3.15-1.974-3.15-5.04C70.9-12.306,72.2-14.28,74.046-14.28ZM92.9-4.221c-1.827,0-3.108-1.974-3.108-5.04,0-3.045,1.281-5.019,3.108-5.019,1.806,0,3.087,1.974,3.087,5.019C95.991-6.2,94.71-4.221,92.9-4.221Zm0-11.613c-2.772,0-4.746,2.562-4.746,6.573S90.132-2.688,92.9-2.688s4.725-2.562,4.725-6.573S95.676-15.834,92.9-15.834Zm12.579,6.069h-3.108v-7.5h-1.722V1.554h1.722v-9.87h3.108Zm10.227-5.922c3,0,4.851.8,4.851,2.121,0,1.344-1.848,2.121-4.851,2.121s-4.851-.777-4.851-2.121C110.859-14.889,112.707-15.687,115.71-15.687Zm0,5.586c4.095,0,6.615-1.26,6.615-3.465,0-2.184-2.52-3.444-6.615-3.444s-6.615,1.26-6.615,3.444C109.095-11.361,111.615-10.1,115.71-10.1Zm.882,5.775h-1.785v.588c0,2.016-2.961,3.549-6.363,3.906l.567,1.323c2.94-.336,5.565-1.491,6.7-3.255,1.092,1.785,3.717,2.9,6.657,3.255l.567-1.323c-3.444-.336-6.342-1.848-6.342-3.906ZM107.2-8.673v1.407h7.644v2.079h1.7V-7.266h7.728V-8.673Zm29.589-4.977h3.423v-1.407h-8.736v1.407h3.654v1.47c0,3.822-1.407,7.035-4.1,8.547l1.05,1.3A8.793,8.793,0,0,0,136-8.064a8.427,8.427,0,0,0,3.822,5.082l1.008-1.323c-2.667-1.386-4.032-4.431-4.032-7.875Zm8.841-3.654v7.623h-2.478v-7.182H141.54V.63h1.617V-8.253h2.478V1.554h1.659V-17.3ZM172.3-7.959h-2.793a31.093,31.093,0,0,0,.525-6.468v-1.638H157.4v1.386h10.962v.252a27.845,27.845,0,0,1-.588,6.468H155.274v1.407h7.6V1.575h1.743V-6.552H172.3Zm3.822-.9c3.087-.315,5.838-1.449,6.972-3.339,1.134,1.89,3.864,3.024,6.951,3.339l.546-1.3c-3.57-.357-6.426-1.806-6.573-3.906h5.838v-1.365h-5.9v-1.953h-1.722v1.953h-5.9v1.365h5.817c-.147,2.1-3,3.549-6.552,3.906ZM191.6-6.426V-7.812H174.573v1.386h7.665v2.163h-5.775V-2.9h11.319V1.491H189.5V-4.263H183.96V-6.426Z" transform="translate(1271 2078)"/>
    <path id="패스_309" data-name="패스 309" d="M3-2.94H14.322V1.554h1.722v-5.88H3ZM5.061-13.356h9.156v2.184H5.061ZM10.5-7.56V-9.807h5.418v-7.035h-1.7V-14.7H5.061v-2.142H3.36v7.035H8.778V-7.56H1.092v1.407H18.144V-7.56Zm20.853-.945c-2.751-.9-4.557-3.108-4.557-5.5v-.63h4.137v-1.407H20.853v1.407h4.2v.63a6.422,6.422,0,0,1-4.725,5.88l.84,1.386a7.733,7.733,0,0,0,4.767-4.494,7.609,7.609,0,0,0,4.62,4.1ZM33.348-.084H24.885V-2.436h8.463Zm0-3.717H24.885V-6.069h-1.7V1.3H35.049V-6.069h-1.7Zm4.494-9.135H35.049v-4.347H33.327V-6.951h1.722v-4.557h2.793Zm13.083-2.037h-4.7v-2.289H44.5v2.289H39.816v1.386H50.925ZM42.5-9.051c0-1.3,1.134-2.142,2.856-2.142,1.7,0,2.877.84,2.877,2.142,0,1.323-1.176,2.163-2.877,2.163C43.638-6.888,42.5-7.728,42.5-9.051Zm7.371,0c0-2.1-1.848-3.486-4.515-3.486s-4.494,1.386-4.494,3.486c0,2.121,1.827,3.507,4.494,3.507S49.875-6.93,49.875-9.051Zm-5.5,4.788H42.651v5.4H55.209V-.273H44.373Zm10-6.8v-6.2H52.647V-3.15h1.722V-9.618h2.793v-1.449Zm10.6-4.263v1.407h6.783a14.064,14.064,0,0,1-.567,3.3l-7.161.483.294,1.512,6.342-.609a13.417,13.417,0,0,1-6.72,6.384l.945,1.323c6.741-3.36,8.589-8.337,8.589-13.8ZM81.291-9.639H78.267v-7.644H76.545V1.554h1.722V-8.211h3.024Zm4.158,1.071h4.473V-9.933H85.449v-3.7H90.8v-1.407H83.79V-2.982h1.218a33,33,0,0,0,6.867-.483l-.147-1.407a29.333,29.333,0,0,1-6.279.483Zm8.211-1.575H90.93v1.407h2.73V.588h1.617V-16.821H93.66ZM97.44-17.3V1.533h1.638V-17.3Zm18.27,3.78A40.216,40.216,0,0,1,115-5l1.722.189a42.462,42.462,0,0,0,.714-8.715v-1.869H104.223v1.407H115.71ZM110.775-2.5V-9.24h-1.722V-2.5h-6.615v1.407h17.031V-2.5Zm13.776-6.3H131.5V-15.54h-8.736v1.407h6.993v3.927h-6.93v7.224h1.554a54.661,54.661,0,0,0,9.492-.693l-.168-1.407a55.353,55.353,0,0,1-9.156.672Zm10.92-8.505V1.575h1.722V-17.3Z" transform="translate(620 2181)"/>
    <path id="패스_305" data-name="패스 305" d="M2.31-15.33v1.407H9.093a14.064,14.064,0,0,1-.567,3.3l-7.161.483.294,1.512L8-9.24a13.417,13.417,0,0,1-6.72,6.384l.945,1.323c6.741-3.36,8.589-8.337,8.589-13.8ZM18.627-9.639H15.6v-7.644H13.881V1.554H15.6V-8.211h3.024Zm4.158,1.071h4.473V-9.933H22.785v-3.7H28.14v-1.407H21.126V-2.982h1.218a33,33,0,0,0,6.867-.483l-.147-1.407a29.333,29.333,0,0,1-6.279.483ZM31-10.143h-2.73v1.407H31V.588h1.617V-16.821H31Zm3.78-7.161V1.533h1.638V-17.3Zm18.27,3.78A40.216,40.216,0,0,1,52.332-5l1.722.189a42.462,42.462,0,0,0,.714-8.715v-1.869H41.559v1.407H53.046ZM48.111-2.5V-9.24H46.389V-2.5H39.774v1.407H56.805V-2.5ZM61.887-8.8h6.951V-15.54H60.1v1.407H67.1v3.927h-6.93v7.224h1.554a54.661,54.661,0,0,0,9.492-.693l-.168-1.407a55.353,55.353,0,0,1-9.156.672ZM72.807-17.3V1.575h1.722V-17.3ZM88.662-13.65h3.423v-1.407H83.349v1.407H87v1.47c0,3.822-1.407,7.035-4.095,8.547l1.05,1.3a8.793,8.793,0,0,0,3.906-5.733,8.427,8.427,0,0,0,3.822,5.082l1.008-1.323c-2.667-1.386-4.032-4.431-4.032-7.875ZM97.5-17.3v7.623H95.025v-7.182H93.408V.63h1.617V-8.253H97.5V1.554h1.659V-17.3ZM120.9-7.539h1.743v-9.723H120.9v3.4h-4.1v1.407h4.1Zm-2.772-1.743c-2.709-.9-4.62-3.192-4.62-5.649v-1.743h-1.7v1.743a6.535,6.535,0,0,1-4.7,6.069L108-7.5a7.86,7.86,0,0,0,4.7-4.578,7.633,7.633,0,0,0,4.536,4.137Zm-5.88,9.219V-2.079h10.4V-6.594H110.5v1.365h10.437v1.848H110.544V1.3h12.81V-.063ZM136.5-12.39v1.407h3.717v4.935h1.743V-17.262h-1.743v4.872Zm1.05,4.284a6.485,6.485,0,0,1-4.578-5.754v-.651h4.137V-15.9H127.05v1.386h4.2v.651A6.943,6.943,0,0,1,126.5-7.581l.9,1.365A8.152,8.152,0,0,0,132.153-11a7.738,7.738,0,0,0,4.536,4.242ZM135.744.21c-2.835,0-4.557-.8-4.557-2.163s1.722-2.184,4.557-2.184,4.557.819,4.557,2.184S138.579.21,135.744.21Zm0-5.67c-3.864,0-6.279,1.281-6.279,3.507s2.415,3.507,6.279,3.507S142,.273,142-1.953,139.608-5.46,135.744-5.46Z" transform="translate(1271 2181)"/>
    <path id="패스_310" data-name="패스 310" d="M7.35-4.872H3.4v-8.862H7.35Zm4.389-5.313H8.946V-15.1H1.785V-3.507H8.946v-5.25h2.793V.609h1.638V-16.863H11.739Zm3.738-7.1V1.533h1.638V-17.283Zm20.412.021H34.167V-3.507h1.722ZM22.554-11.34a3.08,3.08,0,0,1,3.213-3.129,3.091,3.091,0,0,1,3.255,3.129,3.1,3.1,0,0,1-3.255,3.171A3.089,3.089,0,0,1,22.554-11.34Zm8.148,0a4.635,4.635,0,0,0-4.935-4.62,4.611,4.611,0,0,0-4.893,4.62,4.632,4.632,0,0,0,4.893,4.662A4.656,4.656,0,0,0,30.7-11.34ZM25.494-.273V-4.914H23.772V1.134H36.456V-.273ZM47.754-13.5h2.352v8.841c-.8.042-1.575.063-2.352.084Zm3.927,0h1.554v-1.386h-8.61V-13.5h1.554v8.967c-.714.021-1.344.021-1.911.021l.168,1.428a56.686,56.686,0,0,0,9.324-.63l-.1-1.26c-.609.084-1.3.147-1.974.21Zm3.57,3.4H52.689v1.512h2.562V.567h1.617V-16.821H55.251Zm3.633-7.161V1.554h1.659V-17.262Zm18.585-.021V1.6h1.722V-17.283Zm-8.211,1.449c-2.793,0-4.788,2.562-4.788,6.573s1.995,6.573,4.788,6.573,4.788-2.562,4.788-6.573S72.051-15.834,69.258-15.834Zm0,1.554c1.827,0,3.129,1.974,3.129,5.019,0,3.066-1.3,5.04-3.129,5.04-1.848,0-3.15-1.974-3.15-5.04C66.108-12.306,67.41-14.28,69.258-14.28Zm20.559.357h4.431v-1.428H83.727v1.428h4.368v2.394a9.634,9.634,0,0,1-5,8.085L84.1-2.058a10.564,10.564,0,0,0,4.851-6.216A9.951,9.951,0,0,0,93.891-2.52l.966-1.386a8.771,8.771,0,0,1-5.04-7.623Zm6.972-3.339V1.554h1.722V-17.262Zm19.992,5.985V-9.87H120.9V-3.3h1.743V-17.262H120.9v5.985Zm-8.316-4.494v1.407h6.573a8.4,8.4,0,0,1-.462,2.2l-7.077.315.315,1.407,6.132-.462c-1.134,1.806-3.171,3.3-6.342,4.305l.714,1.386c6.048-2.016,8.505-5.67,8.505-10.563Zm4.053,15.5v-4.41H110.8V1.134h12.39V-.273Zm29.82-16.989h-1.659V-3.15h1.659ZM137.046-3.633h1.638V-16.884h-1.638v4.935h-2.5v1.407h2.5Zm-1.785-4.536a29.3,29.3,0,0,1-6.3.5V-10.4h4.7v-1.344h-4.7v-2.583h5.46v-1.386H127.3v9.429h1.2a33.376,33.376,0,0,0,6.93-.5Zm-3.444,7.9V-4.7H130.1V1.134h12.789V-.273Zm15.645-5.145c3-.609,5.67-2.2,6.846-4.62,1.155,2.415,3.822,4.011,6.8,4.62l.693-1.407c-3.612-.63-6.636-2.961-6.636-6.048h6.048v-1.386h-6.048v-2.562h-1.743v2.562h-6.069v1.386h6.069c0,3.087-3.024,5.418-6.636,6.048Zm-1.7,3.15V-.861h17.094V-2.268Zm37.212-7.518h-9.345v-2.772h9.345Zm1.722-6.741h-1.722v2.583h-9.345v-2.583h-1.7v8.148h12.768Zm2.163,10.416H169.764v1.386h7.644v6.3h1.722v-6.3h7.728ZM190.7-9.618c3.087-.378,5.88-1.764,6.93-3.843,1.05,2.079,3.864,3.465,6.951,3.843l.609-1.344c-3.318-.378-6.342-2.037-6.447-4.158H204.6v-1.407H190.659v1.407h5.859c-.1,2.121-3.171,3.78-6.447,4.158Zm.294,6.447h11.319V1.575h1.722V-4.557H190.995Zm7.476-4.662v-2.835h-1.722v2.835H189.1v1.407H206.2V-7.833Z" transform="translate(620 2249)"/>
    <path id="패스_304" data-name="패스 304" d="M4.011-6.258,4.767-8.61c.546-1.743,1.05-3.4,1.533-5.208h.084c.5,1.785.987,3.465,1.554,5.208l.735,2.352ZM10.626,0h2.058L7.455-15.393H5.292L.063,0H2.037L3.528-4.7H9.156Zm5.04.273a1.387,1.387,0,0,0,1.386-1.449,1.424,1.424,0,0,0-1.386-1.491A1.424,1.424,0,0,0,14.28-1.176,1.387,1.387,0,0,0,15.666.273ZM20.685,0h1.953V-6.111h2.541c3.36,0,5.67-1.512,5.67-4.767,0-3.36-2.31-4.515-5.775-4.515H20.685Zm1.953-7.686v-6.132h2.2c2.709,0,4.074.714,4.074,2.94,0,2.2-1.281,3.192-3.99,3.192ZM32.151.273a1.387,1.387,0,0,0,1.386-1.449,1.424,1.424,0,0,0-1.386-1.491,1.424,1.424,0,0,0-1.386,1.491A1.387,1.387,0,0,0,32.151.273Zm10.836,0a5.951,5.951,0,0,0,4.725-2.205L46.641-3.15a4.679,4.679,0,0,1-3.57,1.722c-2.94,0-4.788-2.436-4.788-6.321,0-3.843,1.932-6.237,4.851-6.237a4.2,4.2,0,0,1,3.15,1.47l1.05-1.26a5.692,5.692,0,0,0-4.221-1.911c-3.906,0-6.825,3.024-6.825,8C36.288-2.688,39.165.273,42.987.273Zm8.4,0a1.387,1.387,0,0,0,1.386-1.449,1.424,1.424,0,0,0-1.386-1.491A1.424,1.424,0,0,0,50-1.176,1.387,1.387,0,0,0,51.387.273Zm8.736-2.646V-.945H77.2V-2.373Zm2.016-13.545v9.807h13v-9.807h-1.68v3.444H63.84v-3.444Zm1.7,4.83h9.618v3.57H63.84Zm27.321.861h2.52v6.972H95.34V-17.262H93.681v5.628h-2.52v-5.292H89.523V-3.8h1.638ZM88.452-8a30.758,30.758,0,0,1-6.489.546V-10.29h5.376v-5.355H80.262v1.386H85.68v2.667H80.3v5.544h1.239a34.656,34.656,0,0,0,7.077-.567ZM84.777-.273V-4.515H83.055V1.134H95.886V-.273Zm29.085-7.98H102.627v-5.88h11.046v-1.428H100.926v8.715h12.936ZM98.742-2.415V-.987h17.094V-2.415Zm29.064-1.806c-1.827,0-3.108-1.974-3.108-5.04,0-3.045,1.281-5.019,3.108-5.019,1.806,0,3.087,1.974,3.087,5.019C130.893-6.2,129.612-4.221,127.806-4.221Zm0-11.613c-2.772,0-4.746,2.562-4.746,6.573s1.974,6.573,4.746,6.573,4.725-2.562,4.725-6.573S130.578-15.834,127.806-15.834Zm12.579,6.069h-3.108v-7.5h-1.722V1.554h1.722v-9.87h3.108ZM155.8-17.283V1.6h1.722V-17.283Zm-8.211,1.449c-2.793,0-4.788,2.562-4.788,6.573s1.995,6.573,4.788,6.573,4.788-2.562,4.788-6.573S150.381-15.834,147.588-15.834Zm0,1.554c1.827,0,3.129,1.974,3.129,5.019,0,3.066-1.3,5.04-3.129,5.04-1.848,0-3.15-1.974-3.15-5.04C144.438-12.306,145.74-14.28,147.588-14.28Zm29.8-3h-1.659V-3.339h1.659Zm-9.093,5.25v1.386h3.78v6.8h1.638V-16.884h-1.638v4.851Zm2.037,3.57a30.85,30.85,0,0,1-6.3.567v-6.321h5.439V-15.6h-7.14v9.072h1.218a34.136,34.136,0,0,0,6.972-.546ZM166.8-.294v-4.62h-1.722V1.134h12.852V-.294ZM183.645-8.9h6.741V-10.29h-6.741v-3.885h7.434v-1.407h-9.135v12.6h1.491a50.047,50.047,0,0,0,9.051-.63l-.168-1.407a46.089,46.089,0,0,1-8.673.63Zm10.836-8.379V1.533H196.2V-17.283ZM202.965-8.9h6.741V-10.29h-6.741v-3.885H210.4v-1.407h-9.135v12.6h1.491a50.047,50.047,0,0,0,9.051-.63l-.168-1.407a46.089,46.089,0,0,1-8.673.63ZM213.8-17.283V1.533h1.722V-17.283Zm18.774,3.3h-11v4.032h13.041v-1.239h-11.34V-12.81h11v-3.927H221.529v1.218h11.046ZM223.167-1.68h11.172V-5.691H221.424v1.239h11.214v1.575H221.466V1.3h13.461V.063h-11.76Zm-3.78-6.846v1.3H236.46v-1.3ZM7.56,23.385h4.095v4.473H7.56Zm-.294-7.539h4.683V22H7.266Zm6.111,12.012V23.385h3.192V22h-2.9V15.846H16.59V14.46H2.625v1.386H5.544V22H2.667v1.386H5.838v4.473H1.092v1.407H18.186V27.858Zm17.64-10.122v1.407h3.192v2.541H31.017v1.407h3.192v3.99h1.743V12.738H34.209v5Zm0-2.709H26.691v-2.31H24.969v2.31H20.475v1.386H31.017Zm-7.833,6.006a2.331,2.331,0,0,1,2.625-2.226,2.274,2.274,0,1,1,0,4.494A2.349,2.349,0,0,1,23.184,21.033Zm6.888,0c0-2.142-1.764-3.57-4.263-3.57s-4.263,1.428-4.263,3.57c0,2.163,1.764,3.612,4.263,3.612S30.072,23.2,30.072,21.033Zm-4.515,8.694V25.863H23.835v5.271H36.393V29.727ZM50.925,14.439h-4.7V12.528H44.5v1.911H39.816v1.323H50.925ZM42.5,19.689c0-1.134,1.113-1.806,2.856-1.806s2.877.672,2.877,1.806S47.1,21.495,45.36,21.495,42.5,20.823,42.5,19.689Zm7.371,0c0-1.911-1.785-3.087-4.515-3.087-2.709,0-4.494,1.176-4.494,3.087s1.785,3.087,4.494,3.087C48.09,22.776,49.875,21.6,49.875,19.689Zm-5.733,8.526H54.369V24.036H42.4v1.281H52.668v1.638H42.462v4.389h12.6V30.021H44.142ZM54.369,17.19V12.654H52.647V23.07h1.722V18.618h2.793V17.19ZM79.989,19.9c-3.423-.5-6.783-2.835-6.783-5.46v-1.05H71.4v1.05c0,2.688-3.318,4.956-6.741,5.46l.693,1.386c2.94-.5,5.775-2.121,6.951-4.41,1.218,2.268,4.053,3.906,6.972,4.41Zm.819,3.423H63.8V24.75h7.6v6.825h1.722V24.75h7.707Zm22.449-10.584h-1.722V23.49h1.722Zm-10.122,2.52a2.974,2.974,0,1,1,0,5.922,2.971,2.971,0,1,1,0-5.922Zm0,7.35c2.856,0,4.935-1.785,4.935-4.389s-2.079-4.389-4.935-4.389c-2.835,0-4.893,1.785-4.893,4.389S90.3,22.608,93.135,22.608Zm8.022,1.7h-1.68v1.008a5.556,5.556,0,0,1-2.709,4.473,5.229,5.229,0,0,1-2.6-4.473V24.309H92.5v1.008A5.347,5.347,0,0,1,88.725,30l.861,1.3A6.615,6.615,0,0,0,93.3,27.816,6.011,6.011,0,0,0,96.81,31.47a6.551,6.551,0,0,0,3.486-3.717,6.278,6.278,0,0,0,3.78,3.549l.861-1.3a5.128,5.128,0,0,1-3.78-4.683Zm21.063-5.922H111.132V13.41H109.41v6.384h12.81Zm-11.214,7.2h-1.722v5.5h13.041V29.685H111.006ZM107.1,22.314V23.7h17.073V22.314Zm33.7-3.591V20.13h4.116V26.7h1.743V12.738h-1.743v5.985Zm-8.316-4.494v1.407h6.573a8.4,8.4,0,0,1-.462,2.2l-7.077.315.315,1.407,6.132-.462c-1.134,1.806-3.171,3.3-6.342,4.305l.714,1.386c6.048-2.016,8.505-5.67,8.505-10.563Zm4.053,15.5v-4.41H134.82v5.817h12.39V29.727Zm29.82-16.989H164.7V26.85h1.659ZM161.07,26.367h1.638V13.116H161.07v4.935h-2.5v1.407h2.5Zm-1.785-4.536a29.3,29.3,0,0,1-6.3.5V19.6h4.7V18.261h-4.7V15.678h5.46V14.292h-7.119v9.429h1.2a33.376,33.376,0,0,0,6.93-.5Zm-3.444,7.9V25.3h-1.722v5.838h12.789V29.727Zm15.645-5.145c3-.609,5.67-2.205,6.846-4.62,1.155,2.415,3.822,4.011,6.8,4.62l.693-1.407c-3.612-.63-6.636-2.961-6.636-6.048h6.048V15.741h-6.048V13.179H177.45v2.562h-6.069v1.386h6.069c0,3.087-3.024,5.418-6.636,6.048Zm-1.7,3.15v1.407h17.094V27.732Zm25.725-5.061c2.919-.441,5.628-1.89,6.825-3.927,1.2,2.037,3.885,3.486,6.8,3.927l.609-1.386c-3.36-.462-6.552-2.541-6.552-4.851H209.2V15.048H203.2v-2.31h-1.722v2.31h-6.006v1.386h5.985c0,2.331-3.171,4.389-6.573,4.851ZM210.861,24.1H193.83v1.407h7.644v6.069H203.2V25.506h7.665Zm3.276-9.366v1.428h6.909c-.4,4.452-2.982,8.064-7.791,10.479l.945,1.344c6.09-3.045,8.547-7.9,8.547-13.251Zm16.506,5.628h-3.024V12.717H225.9V31.554h1.722V21.789h3.024Z" transform="translate(1271 2249)"/>
    <path id="패스_311" data-name="패스 311" d="M7.791-15.645H6.09v3.381A9.9,9.9,0,0,1,1.029-3.759l1.05,1.407A10.467,10.467,0,0,0,6.951-8.673,10.229,10.229,0,0,0,11.8-2.709L12.831-4.1a9.369,9.369,0,0,1-5.04-8.169Zm7.014-1.638V1.6h1.722V-17.283Zm19.4,14.091h1.743v-14.07H34.209v4.41H30.093v1.428h4.116ZM31.437-7.644a6.755,6.755,0,0,1-4.557-6.111v-2.394H25.158v2.331a7.1,7.1,0,0,1-4.7,6.573l.9,1.365a8.2,8.2,0,0,0,4.683-4.914,7.915,7.915,0,0,0,4.494,4.473ZM25.557-.273V-4.746H23.835v5.88H36.393V-.273Zm27.888-17.01V1.6h1.722V-17.283Zm-8.211,1.449c-2.793,0-4.788,2.562-4.788,6.573s1.995,6.573,4.788,6.573,4.788-2.562,4.788-6.573S48.027-15.834,45.234-15.834Zm0,1.554c1.827,0,3.129,1.974,3.129,5.019,0,3.066-1.3,5.04-3.129,5.04-1.848,0-3.15-1.974-3.15-5.04C42.084-12.306,43.386-14.28,45.234-14.28Zm31.647,3.759H67.725v-2.436h9.156Zm1.7-6.153h-1.7v2.394H67.725v-2.394h-1.7v7.518H78.582ZM67.62-3.99h-1.7V1.134h13.02V-.273H67.62ZM63.735-7.329v1.386h7.833v3.654H73.29V-5.943h7.56V-7.329ZM94.08-7.812a6.594,6.594,0,0,1-4.641-5.964v-2.373H87.717v2.331a6.844,6.844,0,0,1-4.7,6.468l.9,1.365a7.813,7.813,0,0,0,4.7-4.788,7.922,7.922,0,0,0,4.6,4.326ZM87.759-4.7H86.037V1.134h12.5V-.273H87.759Zm9.954-6.8v-5.8H95.991V-3.381h1.722v-6.7h2.793v-1.428Zm11.781,3.759h4.053V-9.156H105.63v-4.935h7.833v-1.428h-9.534v7.77h3.843v3.738c-1.827.063-3.612.063-5.229.063l.21,1.449a83.4,83.4,0,0,0,12.2-.714l-.147-1.26c-1.68.21-3.507.315-5.313.4Zm6.552-9.555V1.6h1.722V-17.3Zm20.79,5.691H125.748V-16.59h-1.722v6.384h12.81Zm-11.214,7.2H123.9v5.5h13.041V-.315H125.622Zm-3.906-3.276V-6.3h17.073V-7.686ZM152.8.273a6.61,6.61,0,0,0,4.767-1.785V-7.98h-5.04v1.617h3.255v4.032a4.242,4.242,0,0,1-2.793.9c-3.3,0-5.124-2.436-5.124-6.321,0-3.843,2.016-6.237,5.1-6.237a4.317,4.317,0,0,1,3.339,1.47l1.05-1.26a5.859,5.859,0,0,0-4.431-1.911c-4.074,0-7.056,3.024-7.056,8C145.866-2.688,148.743.273,152.8.273ZM161.217,0h1.848V-8.085c0-1.617-.147-3.255-.231-4.809h.084l1.659,3.171L170.184,0h1.995V-15.393h-1.848v8c0,1.6.147,3.318.252,4.872h-.1L168.84-5.691l-5.607-9.7h-2.016Zm15.162,0h4.914c3.444,0,5.838-1.491,5.838-4.515a3.553,3.553,0,0,0-3.15-3.675v-.1a3.354,3.354,0,0,0,2.268-3.339c0-2.709-2.163-3.759-5.292-3.759h-4.578Zm1.953-8.841V-13.86H180.7c2.394,0,3.633.672,3.633,2.478,0,1.554-1.071,2.541-3.717,2.541Zm0,7.287v-5.8h2.688c2.688,0,4.2.861,4.2,2.772,0,2.079-1.554,3.024-4.2,3.024Z" transform="translate(620 2113)"/>
    <path id="패스_220" data-name="패스 220" d="M5778,2783h39.1v64.6H5778" transform="translate(-4898 -744)" fill="none" stroke="#000" stroke-width="0.8"/>
    <path id="패스_312" data-name="패스 312" d="M0,0H323" transform="translate(919.5 2069.5)" fill="none" stroke="#000" stroke-width="0.8"/>
    <path id="패스_313" data-name="패스 313" d="M0,0H362" transform="translate(880.5 2172.5)" fill="none" stroke="#000" stroke-width="0.8"/>
    <path id="패스_306" data-name="패스 306" d="M0,0H362" transform="translate(880.5 2240)" fill="none" stroke="#000" stroke-width="0.8"/>
  </g>
</svg>
