<svg xmlns="http://www.w3.org/2000/svg" width="237.5" height="46.35" viewBox="0 0 237.5 46.35">
  <path id="패스_338" data-name="패스 338" d="M1.2-11.85A12.316,12.316,0,0,0,2.425-6.225a11.169,11.169,0,0,0,3.35,4A14.538,14.538,0,0,0,10.625.1,21.674,21.674,0,0,0,16.4.85q7.05,0,10.95-3.175a10.166,10.166,0,0,0,3.9-8.275,9.176,9.176,0,0,0-1.1-4.625,9.042,9.042,0,0,0-2.75-3.05,14.563,14.563,0,0,0-3.15-1.675,32.516,32.516,0,0,0-3.3-1,.944.944,0,0,1-.3-.05,4.2,4.2,0,0,0-.8-.2q-3.75-.95-5.4-1.45a19.623,19.623,0,0,1-2.65-.975,3.269,3.269,0,0,1-1.4-1.1A3.076,3.076,0,0,1,10-26.4a3.35,3.35,0,0,1,1.6-3.05,7.023,7.023,0,0,1,3.8-1,9.227,9.227,0,0,1,5.025,1.2,4.91,4.91,0,0,1,2.025,4.2h7.6a11.081,11.081,0,0,0-1.15-5.2,10.046,10.046,0,0,0-3.125-3.6,13.5,13.5,0,0,0-4.55-2.05,22.3,22.3,0,0,0-5.475-.65,17.746,17.746,0,0,0-4.875.675,14.175,14.175,0,0,0-4.3,2.025,9.947,9.947,0,0,0-3.05,3.4A9.609,9.609,0,0,0,2.4-25.75a9.023,9.023,0,0,0,.875,4.125,8.182,8.182,0,0,0,2.35,2.85A13.339,13.339,0,0,0,8.9-16.95a43.623,43.623,0,0,0,4.15,1.35q.85.2,2.3.6,2.2.5,3.5.9a14.156,14.156,0,0,1,2.4.975,5.322,5.322,0,0,1,1.75,1.4A3.171,3.171,0,0,1,23.65-9.7,3.546,3.546,0,0,1,23-7.525,4.427,4.427,0,0,1,21.275-6.15a8.821,8.821,0,0,1-2.25.7,13.836,13.836,0,0,1-2.325.2,9.377,9.377,0,0,1-5.675-1.625A5.753,5.753,0,0,1,8.8-11.85Zm58.2-14H52.3V-12.3q0,3.95-1.3,5.675A4.919,4.919,0,0,1,46.8-4.9a3.928,3.928,0,0,1-3.475-1.55,8.523,8.523,0,0,1-1.075-4.8v-14.6h-7.1v15.9a20.573,20.573,0,0,0,.425,4.45,8.321,8.321,0,0,0,1.5,3.3A6.821,6.821,0,0,0,40-.05,12.3,12.3,0,0,0,44.6.7,9.6,9.6,0,0,0,49.075-.4,8.651,8.651,0,0,0,52.5-3.6h.15V0H59.4ZM64.8,0h6.75V-3.3h.1a6.716,6.716,0,0,0,3.3,3.025A12.755,12.755,0,0,0,80.15.7a9.7,9.7,0,0,0,3.9-.825,10.262,10.262,0,0,0,3.45-2.5,11.931,11.931,0,0,0,2.45-4.3,18.546,18.546,0,0,0,.9-6.025,18.319,18.319,0,0,0-.9-6,11.956,11.956,0,0,0-2.45-4.275,10.262,10.262,0,0,0-3.45-2.5,9.7,9.7,0,0,0-3.9-.825,11.469,11.469,0,0,0-4.7.975A7.81,7.81,0,0,0,72-22.7h-.1v-13H64.8ZM83.75-12.9A10.528,10.528,0,0,1,82.2-7.025,5.044,5.044,0,0,1,77.7-4.65a5.044,5.044,0,0,1-4.5-2.375A10.528,10.528,0,0,1,71.65-12.9a10.624,10.624,0,0,1,1.55-5.925A5.044,5.044,0,0,1,77.7-21.2a5.044,5.044,0,0,1,4.5,2.375A10.625,10.625,0,0,1,83.75-12.9ZM110,0h7.85V-12.8h8.25a15.323,15.323,0,0,0,5.575-.925,10.215,10.215,0,0,0,3.875-2.55,10.252,10.252,0,0,0,2.2-3.675,13.214,13.214,0,0,0,.7-4.3,13.214,13.214,0,0,0-.7-4.3,10.252,10.252,0,0,0-2.2-3.675,10.215,10.215,0,0,0-3.875-2.55A15.323,15.323,0,0,0,126.1-35.7H110Zm7.85-29.6h6.1a16.52,16.52,0,0,1,2.7.2,5.982,5.982,0,0,1,2.175.8,3.991,3.991,0,0,1,1.5,1.65,6.038,6.038,0,0,1,.525,2.7,6.038,6.038,0,0,1-.525,2.7,3.827,3.827,0,0,1-1.5,1.625,6.66,6.66,0,0,1-2.175.8,14.724,14.724,0,0,1-2.7.225h-6.1ZM158.7-10a11.1,11.1,0,0,1-.15,1.775,5.759,5.759,0,0,1-.7,1.9A4.264,4.264,0,0,1,156.1-4.7a6.605,6.605,0,0,1-3.15.65,6.011,6.011,0,0,1-3.175-.725A2.78,2.78,0,0,1,148.6-7.35a3.009,3.009,0,0,1,1.1-2.575,7.665,7.665,0,0,1,3.1-1.225q.65-.1,1.7-.25,1.65-.25,2.625-.5a3.964,3.964,0,0,0,1.575-.75Zm-9.3-7.9a4.05,4.05,0,0,1,1.4-2.975,5.283,5.283,0,0,1,3.3-.925,6.806,6.806,0,0,1,3.4.7,2.968,2.968,0,0,1,1.2,2.8,2.1,2.1,0,0,1-1.45,2.15,22,22,0,0,1-4.65.95q-1.3.15-2.3.3a21.765,21.765,0,0,0-3.4.7,9.565,9.565,0,0,0-2.725,1.3,6,6,0,0,0-1.95,2.3,7.881,7.881,0,0,0-.725,3.55,6.981,6.981,0,0,0,2.45,5.775A9.8,9.8,0,0,0,150.3.7a14.861,14.861,0,0,0,4.825-.775A9.636,9.636,0,0,0,159-2.5a9.738,9.738,0,0,0,.5,2.5h7.2a6.38,6.38,0,0,1-.675-2.275A24.008,24.008,0,0,1,165.8-5.75V-19.2a6.4,6.4,0,0,0-1-3.675,6.677,6.677,0,0,0-2.625-2.275,12.271,12.271,0,0,0-3.6-1.1,27.451,27.451,0,0,0-4.125-.3,21.767,21.767,0,0,0-4.375.425,12.152,12.152,0,0,0-3.8,1.45,8.12,8.12,0,0,0-2.775,2.7,8.559,8.559,0,0,0-1.2,4.075Zm46.75-7.95H189.4v3.45h-.1a7.7,7.7,0,0,0-3.15-3.175,9.857,9.857,0,0,0-4.55-.975,10.53,10.53,0,0,0-4.725,1.025,10.129,10.129,0,0,0-3.5,2.825,12.68,12.68,0,0,0-2.15,4.1,16.038,16.038,0,0,0-.725,4.85,19.076,19.076,0,0,0,.65,5.1,12.035,12.035,0,0,0,2,4.125,9.213,9.213,0,0,0,3.475,2.775,11.448,11.448,0,0,0,4.925,1,10.282,10.282,0,0,0,4.525-1.025A7.171,7.171,0,0,0,189.3-4.75h.1v3.4a7.119,7.119,0,0,1-1.425,4.675A5.224,5.224,0,0,1,183.7,5.05a6.693,6.693,0,0,1-3.45-.825A4.066,4.066,0,0,1,178.4,1.5h-7.05a7.239,7.239,0,0,0,1.15,3.7,8.477,8.477,0,0,0,2.675,2.6,12.828,12.828,0,0,0,3.6,1.5,16.138,16.138,0,0,0,3.975.5,18.666,18.666,0,0,0,6.925-1.1A9.871,9.871,0,0,0,193.8,5.85a9.545,9.545,0,0,0,1.875-3.65,15.815,15.815,0,0,0,.475-3.85ZM183.35-6.1a5.1,5.1,0,0,1-2.675-.675,5.243,5.243,0,0,1-1.8-1.775A7.938,7.938,0,0,1,177.9-11a13.109,13.109,0,0,1-.3-2.85,9.025,9.025,0,0,1,1.45-5.25,4.885,4.885,0,0,1,4.3-2.1,5.942,5.942,0,0,1,2.825.625,4.919,4.919,0,0,1,1.875,1.725,7.958,7.958,0,0,1,1.025,2.525,13.814,13.814,0,0,1,.325,3.075,8.177,8.177,0,0,1-1.575,5.05A5.262,5.262,0,0,1,183.35-6.1Zm43-5.1v-.65a5.3,5.3,0,0,0,.05-.6,17.435,17.435,0,0,0-.825-5.4,13.889,13.889,0,0,0-2.4-4.5,11.108,11.108,0,0,0-3.95-3.075A12.528,12.528,0,0,0,213.8-26.55a13.724,13.724,0,0,0-5.35,1.025,12.169,12.169,0,0,0-4.2,2.875,12.944,12.944,0,0,0-2.7,4.35,15.077,15.077,0,0,0-.95,5.4,15.8,15.8,0,0,0,.925,5.475,12.513,12.513,0,0,0,2.65,4.35,11.523,11.523,0,0,0,4.175,2.8A14.621,14.621,0,0,0,213.8.7a13,13,0,0,0,7.575-2.125A12.278,12.278,0,0,0,225.9-8h-6.25a4.164,4.164,0,0,1-1.95,2.325,6.619,6.619,0,0,1-3.65,1.025,6.226,6.226,0,0,1-4.6-1.6,7.229,7.229,0,0,1-1.75-4.95ZM207.7-15.7a7.113,7.113,0,0,1,.35-1.775,5.429,5.429,0,0,1,1-1.775,5.382,5.382,0,0,1,1.825-1.4,6.158,6.158,0,0,1,2.725-.55,5.122,5.122,0,0,1,3.825,1.35,7.754,7.754,0,0,1,1.825,4.15ZM230.85,0h7.85V-7.7h-7.85Z" transform="translate(-1.2 36.55)"/>
</svg>
