<svg xmlns="http://www.w3.org/2000/svg" width="373.42" height="30.528" viewBox="0 0 373.42 30.528">
  <path id="패스_337" data-name="패스 337" d="M7.959-18.887h5.267V-38.412h7.179V-42.84H.78v4.428H7.959Zm14.694,0h4.764v-9.091a6.434,6.434,0,0,1,.872-3.808,3.3,3.3,0,0,1,2.818-1.157,2.628,2.628,0,0,1,2.348,1.04,5.828,5.828,0,0,1,.7,3.221v9.8h4.764V-29.555a14.04,14.04,0,0,0-.285-3,5.444,5.444,0,0,0-1.006-2.214A4.637,4.637,0,0,0,35.67-36.2a8.253,8.253,0,0,0-3.086-.5,5.929,5.929,0,0,0-2.8.738,5.869,5.869,0,0,0-2.264,2.147h-.1V-42.84H22.653Zm30.7-6.71a7.444,7.444,0,0,1-.1,1.191,3.864,3.864,0,0,1-.47,1.275A2.861,2.861,0,0,1,51.6-22.04a4.432,4.432,0,0,1-2.114.436,4.033,4.033,0,0,1-2.13-.486,1.865,1.865,0,0,1-.788-1.728,2.019,2.019,0,0,1,.738-1.728,5.143,5.143,0,0,1,2.08-.822q.436-.067,1.141-.168,1.107-.168,1.761-.335a2.66,2.66,0,0,0,1.057-.5Zm-6.24-5.3a2.717,2.717,0,0,1,.939-2,3.544,3.544,0,0,1,2.214-.621,4.566,4.566,0,0,1,2.281.47,1.992,1.992,0,0,1,.805,1.879,1.411,1.411,0,0,1-.973,1.443,14.762,14.762,0,0,1-3.12.637q-.872.1-1.543.2a14.6,14.6,0,0,0-2.281.47,6.418,6.418,0,0,0-1.828.872A4.027,4.027,0,0,0,42.3-26a5.288,5.288,0,0,0-.486,2.382,4.684,4.684,0,0,0,1.644,3.875,6.577,6.577,0,0,0,4.261,1.325,9.971,9.971,0,0,0,3.237-.52,6.465,6.465,0,0,0,2.6-1.627,6.534,6.534,0,0,0,.335,1.677h4.831a4.281,4.281,0,0,1-.453-1.526,16.109,16.109,0,0,1-.151-2.332v-9.024a4.3,4.3,0,0,0-.671-2.466,4.48,4.48,0,0,0-1.761-1.526,8.233,8.233,0,0,0-2.415-.738,18.419,18.419,0,0,0-2.768-.2,14.6,14.6,0,0,0-2.935.285,8.154,8.154,0,0,0-2.55.973,5.448,5.448,0,0,0-1.862,1.812,5.742,5.742,0,0,0-.805,2.734ZM61.8-18.887h4.764v-9.091a6.434,6.434,0,0,1,.872-3.808,3.3,3.3,0,0,1,2.818-1.157,2.628,2.628,0,0,1,2.348,1.04,5.828,5.828,0,0,1,.7,3.221v9.8h4.764V-29.555a14.04,14.04,0,0,0-.285-3,5.444,5.444,0,0,0-1.006-2.214A4.637,4.637,0,0,0,74.82-36.2a8.253,8.253,0,0,0-3.086-.5,6.444,6.444,0,0,0-3,.738,5.8,5.8,0,0,0-2.3,2.147h-.1v-2.415H61.8Zm20.33,0H86.9v-5.972l1.845-1.778,4.764,7.75h5.77L92-29.857l6.542-6.374H92.9L86.9-29.991V-42.84H82.133Zm43.948-17.344h-4.932l-3.791,11.876h-.067l-3.925-11.876h-5.1l6.106,16.271a2.863,2.863,0,0,1,.2,1.074,2.3,2.3,0,0,1-.486,1.459,1.926,1.926,0,0,1-1.359.721q-.872,0-2.181-.1l-.6-.067v3.925a28.4,28.4,0,0,0,2.919.168,6.909,6.909,0,0,0,3.824-.906,5.866,5.866,0,0,0,2.147-3.019Zm1.074,8.689a9.059,9.059,0,0,0,2.449,6.626,8.7,8.7,0,0,0,6.508,2.5,8.742,8.742,0,0,0,6.542-2.5,9.059,9.059,0,0,0,2.449-6.626,9.1,9.1,0,0,0-2.449-6.659,8.743,8.743,0,0,0-6.542-2.5,8.7,8.7,0,0,0-6.508,2.5A9.1,9.1,0,0,0,127.154-27.542Zm4.764,0a9.725,9.725,0,0,1,.218-2.1,5.688,5.688,0,0,1,.7-1.778,3.488,3.488,0,0,1,1.308-1.241,4.008,4.008,0,0,1,1.963-.453,4.083,4.083,0,0,1,2,.453,3.488,3.488,0,0,1,1.308,1.241,5.688,5.688,0,0,1,.7,1.778,9.725,9.725,0,0,1,.218,2.1,9.5,9.5,0,0,1-.218,2.08,5.7,5.7,0,0,1-.7,1.761,3.488,3.488,0,0,1-1.308,1.241,4.083,4.083,0,0,1-2,.453,4.008,4.008,0,0,1-1.963-.453,3.488,3.488,0,0,1-1.308-1.241,5.7,5.7,0,0,1-.7-1.761A9.5,9.5,0,0,1,131.918-27.542Zm32.541-8.689H159.7v9.091a6.434,6.434,0,0,1-.872,3.808,3.3,3.3,0,0,1-2.818,1.157,2.635,2.635,0,0,1-2.332-1.04,5.719,5.719,0,0,1-.721-3.221v-9.8h-4.764v10.668a13.8,13.8,0,0,0,.285,2.986,5.583,5.583,0,0,0,1.006,2.214,4.576,4.576,0,0,0,1.963,1.443,8.253,8.253,0,0,0,3.086.5,6.444,6.444,0,0,0,3-.738,5.8,5.8,0,0,0,2.3-2.147h.1v2.415h4.529Zm13.989,17.344h4.764V-33.044H186.5v-3.187h-3.288v-1.04a2.225,2.225,0,0,1,.419-1.526,1.827,1.827,0,0,1,1.392-.453,14.64,14.64,0,0,1,1.744.1v-3.556q-.3,0-.973-.067-1.006-.067-1.543-.067a5.959,5.959,0,0,0-4.311,1.443,5.074,5.074,0,0,0-1.493,3.824v1.342H175.6v3.187h2.852Zm9.595-8.655a9.059,9.059,0,0,0,2.449,6.626,8.7,8.7,0,0,0,6.508,2.5,8.743,8.743,0,0,0,6.542-2.5,9.059,9.059,0,0,0,2.449-6.626,9.1,9.1,0,0,0-2.449-6.659A8.743,8.743,0,0,0,197-36.7a8.7,8.7,0,0,0-6.508,2.5A9.1,9.1,0,0,0,188.044-27.542Zm4.764,0a9.724,9.724,0,0,1,.218-2.1,5.688,5.688,0,0,1,.7-1.778,3.488,3.488,0,0,1,1.308-1.241A4.008,4.008,0,0,1,197-33.111a4.083,4.083,0,0,1,2,.453,3.488,3.488,0,0,1,1.308,1.241,5.688,5.688,0,0,1,.7,1.778,9.724,9.724,0,0,1,.218,2.1,9.5,9.5,0,0,1-.218,2.08,5.7,5.7,0,0,1-.7,1.761A3.488,3.488,0,0,1,199-22.46a4.083,4.083,0,0,1-2,.453,4.008,4.008,0,0,1-1.963-.453A3.488,3.488,0,0,1,193.73-23.7a5.7,5.7,0,0,1-.7-1.761A9.494,9.494,0,0,1,192.807-27.542Zm16.271,8.655h4.764V-26.7a6.662,6.662,0,0,1,1.124-4.043,4.141,4.141,0,0,1,3.573-1.526,8.984,8.984,0,0,1,.923.05,7.173,7.173,0,0,1,.788.117v-4.428a3.267,3.267,0,0,0-1.04-.168,5.936,5.936,0,0,0-3.321,1.04,5.621,5.621,0,0,0-2.214,2.65h-.067v-3.221h-4.529Zm47.671-17.344h-4.9l-3.187,11.742H248.6l-2.952-11.742h-4.63L238.13-24.456h-.067l-3.187-11.775h-5.032l5.5,17.344h4.932l2.952-11.641h.067l3.086,11.641h4.9ZM269.565-25.6a7.446,7.446,0,0,1-.1,1.191,3.864,3.864,0,0,1-.47,1.275,2.861,2.861,0,0,1-1.174,1.09,4.432,4.432,0,0,1-2.113.436,4.033,4.033,0,0,1-2.13-.486,1.865,1.865,0,0,1-.788-1.728,2.019,2.019,0,0,1,.738-1.728,5.142,5.142,0,0,1,2.08-.822q.436-.067,1.141-.168,1.107-.168,1.761-.335a2.659,2.659,0,0,0,1.057-.5Zm-6.24-5.3a2.717,2.717,0,0,1,.939-2,3.544,3.544,0,0,1,2.214-.621,4.566,4.566,0,0,1,2.281.47,1.992,1.992,0,0,1,.805,1.879,1.411,1.411,0,0,1-.973,1.443,14.762,14.762,0,0,1-3.12.637q-.872.1-1.543.2a14.6,14.6,0,0,0-2.281.47,6.418,6.418,0,0,0-1.828.872A4.027,4.027,0,0,0,258.511-26a5.287,5.287,0,0,0-.486,2.382,4.684,4.684,0,0,0,1.644,3.875,6.577,6.577,0,0,0,4.261,1.325,9.971,9.971,0,0,0,3.237-.52,6.465,6.465,0,0,0,2.6-1.627,6.534,6.534,0,0,0,.335,1.677h4.831a4.281,4.281,0,0,1-.453-1.526,16.109,16.109,0,0,1-.151-2.332v-9.024a4.3,4.3,0,0,0-.671-2.466,4.48,4.48,0,0,0-1.761-1.526,8.233,8.233,0,0,0-2.415-.738,18.419,18.419,0,0,0-2.768-.2,14.605,14.605,0,0,0-2.935.285,8.154,8.154,0,0,0-2.55.973,5.448,5.448,0,0,0-1.862,1.812,5.742,5.742,0,0,0-.805,2.734Zm20.733-10.534h-4.764v5.2h-2.885v3.187h2.885v10.232a4.518,4.518,0,0,0,.419,2.063,3.085,3.085,0,0,0,1.174,1.275,4.958,4.958,0,0,0,1.711.621,12.6,12.6,0,0,0,2.164.168,17.885,17.885,0,0,0,2.784-.168v-3.724a7.54,7.54,0,0,1-1.476.134,2.331,2.331,0,0,1-1.61-.4,2.331,2.331,0,0,1-.4-1.61v-8.588h3.489v-3.187h-3.489ZM306.3-30.125a6.2,6.2,0,0,0-2.533-4.864,9.236,9.236,0,0,0-5.619-1.711,9.7,9.7,0,0,0-3.741.688,7.6,7.6,0,0,0-2.8,1.963,8.589,8.589,0,0,0-1.728,3,11.555,11.555,0,0,0-.587,3.741,9.948,9.948,0,0,0,.621,3.573,8.047,8.047,0,0,0,1.795,2.818,8.153,8.153,0,0,0,2.8,1.845,9.4,9.4,0,0,0,3.539.654,8.625,8.625,0,0,0,5.686-1.845,7.8,7.8,0,0,0,2.667-5.267h-4.6a4.313,4.313,0,0,1-1.208,2.583,3.562,3.562,0,0,1-2.583.939,3.388,3.388,0,0,1-1.845-.486,3.614,3.614,0,0,1-1.224-1.275,6.285,6.285,0,0,1-.671-1.744,8.8,8.8,0,0,1-.218-1.963,9.249,9.249,0,0,1,.218-2,6.4,6.4,0,0,1,.688-1.812,3.711,3.711,0,0,1,1.275-1.325,3.47,3.47,0,0,1,1.879-.5,3.194,3.194,0,0,1,3.522,2.986Zm2.784,11.238h4.764v-9.091a6.434,6.434,0,0,1,.872-3.808,3.3,3.3,0,0,1,2.818-1.157,2.628,2.628,0,0,1,2.348,1.04,5.828,5.828,0,0,1,.7,3.221v9.8h4.764V-29.555a14.039,14.039,0,0,0-.285-3,5.444,5.444,0,0,0-1.006-2.214A4.637,4.637,0,0,0,322.1-36.2a8.253,8.253,0,0,0-3.086-.5,5.929,5.929,0,0,0-2.8.738,5.869,5.869,0,0,0-2.264,2.147h-.1V-42.84h-4.764Zm20.028,0h4.764V-36.231h-4.764Zm4.764-23.953h-4.764v3.925h4.764Zm3.757,23.953H342.4v-9.091a6.434,6.434,0,0,1,.872-3.808,3.3,3.3,0,0,1,2.818-1.157,2.628,2.628,0,0,1,2.348,1.04,5.828,5.828,0,0,1,.7,3.221v9.8H353.9V-29.555a14.039,14.039,0,0,0-.285-3,5.444,5.444,0,0,0-1.006-2.214A4.637,4.637,0,0,0,350.65-36.2a8.253,8.253,0,0,0-3.086-.5,6.444,6.444,0,0,0-3,.738,5.8,5.8,0,0,0-2.3,2.147h-.1v-2.415h-4.529ZM374.2-36.231h-4.529v2.315H369.6a5.169,5.169,0,0,0-2.114-2.13,6.614,6.614,0,0,0-3.053-.654,7.065,7.065,0,0,0-3.17.688,6.8,6.8,0,0,0-2.348,1.9,8.508,8.508,0,0,0-1.443,2.751,10.76,10.76,0,0,0-.486,3.254,12.8,12.8,0,0,0,.436,3.422,8.074,8.074,0,0,0,1.342,2.768,6.181,6.181,0,0,0,2.332,1.862,7.681,7.681,0,0,0,3.3.671,6.9,6.9,0,0,0,3.036-.688,4.812,4.812,0,0,0,2.164-2h.067v2.281a4.776,4.776,0,0,1-.956,3.137,3.505,3.505,0,0,1-2.868,1.157,4.491,4.491,0,0,1-2.315-.554,2.728,2.728,0,0,1-1.241-1.828h-4.73a4.857,4.857,0,0,0,.772,2.483,5.687,5.687,0,0,0,1.795,1.744,8.607,8.607,0,0,0,2.415,1.006,10.828,10.828,0,0,0,2.667.335,12.524,12.524,0,0,0,4.646-.738,6.623,6.623,0,0,0,2.768-1.912,6.405,6.405,0,0,0,1.258-2.449,10.612,10.612,0,0,0,.319-2.583ZM365.612-22.98a3.424,3.424,0,0,1-1.795-.453,3.518,3.518,0,0,1-1.208-1.191,5.328,5.328,0,0,1-.654-1.644,8.8,8.8,0,0,1-.2-1.912,6.056,6.056,0,0,1,.973-3.523,3.278,3.278,0,0,1,2.885-1.409,3.987,3.987,0,0,1,1.9.419,3.3,3.3,0,0,1,1.258,1.157,5.339,5.339,0,0,1,.688,1.694,9.268,9.268,0,0,1,.218,2.063,5.486,5.486,0,0,1-1.057,3.388A3.531,3.531,0,0,1,365.612-22.98Z" transform="translate(-0.78 42.84)" fill="#fff"/>
</svg>
