<svg xmlns="http://www.w3.org/2000/svg" width="1920" height="168" viewBox="0 0 1920 168">
  <g id="그룹_99" data-name="그룹 99" transform="translate(0 -3639)">
    <g id="그룹_98" data-name="그룹 98">
      <rect id="사각형_110" data-name="사각형 110" width="1920" height="168" transform="translate(0 3639)" fill="#404040"/>
      <text id="개인정보_보호정책" data-name="개인정보 보호정책" transform="translate(326 3699)" fill="#fff" font-size="15" font-family="NotoSansCJKkr-Bold, Noto Sans CJK KR" font-weight="700"><tspan x="0" y="0">개인정보 보호정책</tspan></text>
      <text id="그린피스_이용약관" data-name="그린피스 이용약관" transform="translate(499 3699)" fill="#cecece" font-size="15" font-family="NotoSansCJKkr-Regular, Noto Sans CJK KR"><tspan x="0" y="0">그린피스 이용약관</tspan></text>
      <text id="저작권" transform="translate(671 3699)" fill="#cecece" font-size="15" font-family="NotoSansCJKkr-Regular, Noto Sans CJK KR"><tspan x="0" y="0">저작권</tspan></text>
      <text id="국세청" transform="translate(771 3699)" fill="#cecece" font-size="15" font-family="NotoSansCJKkr-Regular, Noto Sans CJK KR"><tspan x="0" y="0">국세청</tspan></text>
      <text id="행정안전부" transform="translate(870 3699)" fill="#cecece" font-size="15" font-family="NotoSansCJKkr-Regular, Noto Sans CJK KR"><tspan x="0" y="0">행정안전부</tspan></text>
      <text id="Copyright_Greenpeace_2020_재단법인_그린피스_대표자:_SZE_Pang_Cheung_쯔이팽청_주소:_서울시_용산구_한강대로_257_청룡빌딩_6층_우편번호:_04322_고유번호:_105-82-21567" data-name="Copyright Greenpeace 2020 | 재단법인 그린피스
대표자: SZE Pang Cheung (쯔이팽청) | 주소: 서울시 용산구 한강대로 257 청룡빌딩 6층 (우편번호: 04322) | 고유번호: 105-82-21567" transform="translate(326 3739)" fill="#cecece" font-size="15" font-family="NotoSansCJKkr-Regular, Noto Sans CJK KR"><tspan x="0" y="0">Copyright Greenpeace 2020 | 재단법인 그린피스</tspan><tspan x="0" y="21">대표자: SZE Pang Cheung (쯔이팽청) | 주소: 서울시 용산구 한강대로 257 청룡빌딩 6층 (우편번호: 04322) | 고유번호: 105-82-21567</tspan></text>
      <g id="youtube" transform="translate(1532.128 3683.368)">
        <g id="그룹_70" data-name="그룹 70">
          <path id="패스_42" data-name="패스 42" d="M25.29,81.75c-.716-1.274-1.494-1.509-3.077-1.6-1.581-.107-5.558-.152-9-.152s-7.43.045-9.01.15-2.359.324-3.082,1.6S0,85.215,0,89.074v.013C0,92.93.38,95.139,1.118,96.4s1.5,1.506,3.08,1.613,5.56.147,9.012.147,7.422-.054,9-.145c1.583-.107,2.361-.338,3.077-1.613.744-1.26,1.121-3.468,1.121-7.311v-.013C26.412,85.215,26.036,83.023,25.29,81.75ZM9.9,94.031v-9.9l8.254,4.952Z" transform="translate(0 -80)" fill="#fff"/>
        </g>
      </g>
      <g id="facebook" transform="translate(1491.079 3682)">
        <g id="그룹_62" data-name="그룹 62">
          <path id="패스_38" data-name="패스 38" d="M19.306,0H2.758A2.761,2.761,0,0,0,0,2.758V19.306a2.761,2.761,0,0,0,2.758,2.758h8.274V14.479H8.274V11.032h2.758V8.274a4.137,4.137,0,0,1,4.137-4.137h2.758V7.584H16.548c-.761,0-1.379-.072-1.379.689v2.758h3.447l-1.379,3.447H15.169v7.584h4.137a2.761,2.761,0,0,0,2.758-2.758V2.758A2.761,2.761,0,0,0,19.306,0Z" fill="#fff"/>
        </g>
      </g>
      <g id="instagram" transform="translate(1451.398 3682)">
        <g id="그룹_64" data-name="그룹 64">
          <g id="그룹_63" data-name="그룹 63">
            <path id="패스_39" data-name="패스 39" d="M15.169,0H6.895A6.9,6.9,0,0,0,0,6.895v8.274a6.9,6.9,0,0,0,6.895,6.895h8.274a6.9,6.9,0,0,0,6.895-6.895V6.895A6.9,6.9,0,0,0,15.169,0ZM20,15.169a4.832,4.832,0,0,1-4.826,4.826H6.895a4.832,4.832,0,0,1-4.826-4.826V6.895A4.832,4.832,0,0,1,6.895,2.068h8.274A4.832,4.832,0,0,1,20,6.895Z" fill="#fff"/>
          </g>
        </g>
        <g id="그룹_66" data-name="그룹 66" transform="translate(5.516 5.516)">
          <g id="그룹_65" data-name="그룹 65">
            <path id="패스_40" data-name="패스 40" d="M133.516,128a5.516,5.516,0,1,0,5.516,5.516A5.516,5.516,0,0,0,133.516,128Zm0,8.963a3.447,3.447,0,1,1,3.447-3.447A3.452,3.452,0,0,1,133.516,136.963Z" transform="translate(-128 -128)" fill="#fff"/>
          </g>
        </g>
        <g id="그룹_68" data-name="그룹 68" transform="translate(16.226 4.367)">
          <g id="그룹_67" data-name="그룹 67">
            <ellipse id="타원_27" data-name="타원 27" cx="0.735" cy="0.735" rx="0.735" ry="0.735" fill="#fff"/>
          </g>
        </g>
      </g>
      <g id="twitter" transform="translate(1575.915 3683.368)">
        <g id="그룹_69" data-name="그룹 69">
          <path id="패스_41" data-name="패스 41" d="M24.085,50.317a10.3,10.3,0,0,1-2.845.78,4.91,4.91,0,0,0,2.172-2.729,9.868,9.868,0,0,1-3.131,1.2,4.937,4.937,0,0,0-8.541,3.376,5.084,5.084,0,0,0,.114,1.126A13.976,13.976,0,0,1,1.677,48.9a4.939,4.939,0,0,0,1.517,6.6,4.876,4.876,0,0,1-2.231-.608v.054A4.96,4.96,0,0,0,4.919,59.8a4.928,4.928,0,0,1-1.295.163,4.366,4.366,0,0,1-.935-.084A4.985,4.985,0,0,0,7.3,63.315a9.921,9.921,0,0,1-6.122,2.106A9.247,9.247,0,0,1,0,65.354a13.9,13.9,0,0,0,7.575,2.216A13.957,13.957,0,0,0,21.629,53.519c0-.218-.008-.429-.018-.638A9.851,9.851,0,0,0,24.085,50.317Z" transform="translate(0 -48)" fill="#fff"/>
        </g>
      </g>
    </g>
  </g>
</svg>
