<svg xmlns="http://www.w3.org/2000/svg" width="196.478" height="32.746" viewBox="0 0 196.478 32.746">
  <g id="그룹_1" data-name="그룹 1" transform="translate(-663.239 -461.496)">
    <path id="패스_1" data-name="패스 1" d="M715.052,482.088l0-.005h0Z" transform="translate(-34.66 -13.772)" fill="#6c0"/>
    <path id="패스_2" data-name="패스 2" d="M687.618,476a2.55,2.55,0,0,0-1.524-1.544c-.417-.147-1.286-.453-7.2.4-6.527.943-6.748,1.408-7.23,2.428a2.376,2.376,0,0,0,.978,3.1,2.08,2.08,0,0,0,1.788.079c.48-.2.192-.121.167-.111a59.961,59.961,0,0,1,8.141-1.323c.1-.011-.017.122-.064.266a9.207,9.207,0,0,1-.617,1.766,1.312,1.312,0,0,1-.627.523c-2.255.92-6.348,2.433-8.377,2.511a5.28,5.28,0,0,1-5.218-3.4c-.293-.676-.461-1.7.516-4.182.857-2.173,4.018-5.059,5.369-6.291.249-.228.464-.424.633-.584,2.384-2.269,4.133-3.258,5.047-3.471a7.427,7.427,0,0,1,.986,2.145,2.17,2.17,0,0,0,2.712,1.567,2.334,2.334,0,0,0,1.484-2.867c-.371-1.338-1.838-5.693-5.127-5.509-2.177.121-4.877,1.7-8.026,4.7-.135.128-.334.311-.565.52-1.85,1.689-5.294,4.832-6.548,8.012-1.275,3.238-1.416,5.67-.455,7.886a9.582,9.582,0,0,0,9.354,6.1,29.979,29.979,0,0,0,7.812-2.044v5.256a2.189,2.189,0,1,0,4.371,0v-8.023C688.369,478.075,687.868,476.677,687.618,476Z" transform="translate(0 0)" fill="#6c0"/>
    <path id="패스_3" data-name="패스 3" d="M747.006,499.932Z" transform="translate(-56.037 -25.712)" fill="#6c0"/>
    <path id="패스_4" data-name="패스 4" d="M750.5,479.643l-.115-.106a11.883,11.883,0,0,0,1.954-1.369c2.084-1.958,2.431-6.007,2.308-8.09-.194-3.288-3.379-6.637-6.309-6.637a29.592,29.592,0,0,0-5.757,1.118,2.715,2.715,0,0,0-1.807,3.3,2.588,2.588,0,0,0,2.2,1.98,15.18,15.18,0,0,1-.425,2.117,23.08,23.08,0,0,0-.8,3.6l-.345-.032a2.6,2.6,0,0,0-2.764,2.45,2.663,2.663,0,0,0,2.146,2.89,69.508,69.508,0,0,0-.213,8.3,2.189,2.189,0,1,0,4.371-.084c-.041-2.332-.019-5.071.066-6.566l2.349,1.381,5.5,5.076a2.454,2.454,0,0,0,3.6-.26,2.807,2.807,0,0,0-.245-3.806Zm-.943-9.228a7.737,7.737,0,0,1-.632,3.743,13.353,13.353,0,0,1-2.762,1.552,18.391,18.391,0,0,1,.44-2.037,27.234,27.234,0,0,0,.918-4.745,6.369,6.369,0,0,1,.731-.087A2.6,2.6,0,0,1,749.561,470.415Z" transform="translate(-50.432 -1.302)" fill="#6c0"/>
    <path id="패스_5" data-name="패스 5" d="M811.316,473.012a3.093,3.093,0,0,0,2.169-3.706,2.913,2.913,0,0,0-3.5-2.294l-10.929,3.082a3.146,3.146,0,0,0-1.373,5.189c-.072,1.522-.172,2.88-.278,3.5a2.812,2.812,0,0,0-.343,1.391q-.057.212-.117.432c-.935,3.462-1.223,4.79-1.082,5.835.288,2.129,3.118,4.962,4.942,5.445a19.139,19.139,0,0,0,6.458.257,2.709,2.709,0,0,0,1.856-3.27,2.543,2.543,0,0,0-3.093-1.962l.044-.012a18.328,18.328,0,0,1-3.9-.222,5.6,5.6,0,0,1-1.176-1.148c.132-.7.443-1.9.688-2.811l7.916-.516a2.648,2.648,0,0,0,2.388-2.858,2.6,2.6,0,0,0-2.7-2.525l-6.6.431c.043-.612.077-1.238.1-1.835Z" transform="translate(-88.696 -3.635)" fill="#6c0"/>
    <path id="패스_6" data-name="패스 6" d="M866.664,469.307a2.913,2.913,0,0,0-3.5-2.294l-12.386,3.082a3.145,3.145,0,0,0-1.372,5.189c-.073,1.522-.173,2.88-.278,3.5a2.8,2.8,0,0,0-.344,1.393l-.116.43c-.936,3.462-1.224,4.79-1.083,5.835.288,2.129,3.118,4.962,4.942,5.445a19.138,19.138,0,0,0,6.458.257,2.709,2.709,0,0,0,1.856-3.27,2.542,2.542,0,0,0-3.093-1.962l.044-.012a18.386,18.386,0,0,1-3.912-.223,5.241,5.241,0,0,1-1.045-.893c-.139-.144-.122-.281-.045-.634.144-.651.371-1.528.565-2.258l.047-.172.119-.008,7.8-.509a2.648,2.648,0,0,0,2.388-2.858,2.6,2.6,0,0,0-2.7-2.525l-6.6.431c.041-.584.074-1.182.1-1.755l9.995-2.486A3.092,3.092,0,0,0,866.664,469.307Z" transform="translate(-123.295 -3.635)" fill="#6c0"/>
    <path id="패스_7" data-name="패스 7" d="M923.591,467.158c.01.023.029.073.055.147a.12.12,0,0,0,0,.012Z" transform="translate(-174.166 -3.788)" fill="#6c0"/>
    <path id="패스_8" data-name="패스 8" d="M918.935,463.3a2.242,2.242,0,0,0-2.243,2.249l-.363,11c-.019.451-.047,1.04-.08,1.7-.228-.5-.422-.907-.554-1.162a15.864,15.864,0,0,0-.964-1.493,34.428,34.428,0,0,1-2.529-4.1,21.4,21.4,0,0,1-1.082-2.863,15.025,15.025,0,0,0-.539-4.6,2.513,2.513,0,0,0-3.263-1.6,2.742,2.742,0,0,0-1.525,3.456l-.022-.067a13.736,13.736,0,0,1,.234,3.792,71.4,71.4,0,0,1-.905,9.63c-.511,2.3-1,6.4-1.019,6.575a2.67,2.67,0,0,0,2.214,3.01,2.582,2.582,0,0,0,2.847-2.34c0-.04.475-3.994.923-6.009.18-.81.341-1.906.482-3.12.231.343.452.665.646.948.263.383.591.86.671,1,.559,1.084,2.762,6.181,3.564,8.052a2.327,2.327,0,0,0,.3.5,2.18,2.18,0,1,0,4.357.1v0c.02-.337.488-8.274.61-11.216l.365-11.081A2.258,2.258,0,0,0,918.935,463.3Z" transform="translate(-161.102 -0.521)" fill="#6c0"/>
    <path id="패스_9" data-name="패스 9" d="M976.046,476.6c2.58-1.637,2.71-5.808,2.554-7.14-.322-2.725-3.871-4.707-6.2-5.035a21.828,21.828,0,0,0-7.634.057c-2.049.542-6.034,2.071-6.2,2.136a2.742,2.742,0,0,0-1.525,3.456,2.515,2.515,0,0,0,3.269,1.612c.653-.251,2.058-.776,3.4-1.239l-.286,4.849c-.509.12-.859.2-.906.216a2.7,2.7,0,0,0-1.919,3.229,2.581,2.581,0,0,0,2.5,2.092l-.008.146c-.124,2.6-.124,8.471-.124,8.718a2.189,2.189,0,1,0,4.37,0c0-.06,0-6.007.121-8.488l.078-1.333c.713-.156,1.359-.289,1.769-.355A24.385,24.385,0,0,0,976.046,476.6Zm-8.192-2.289.283-4.806a25.224,25.224,0,0,1,3.588.265,3.116,3.116,0,0,1,1.753.809,2.409,2.409,0,0,1-.234,1.5,20.044,20.044,0,0,1-4.728,2.108C968.326,474.223,968.1,474.265,967.854,474.312Z" transform="translate(-196.437 -1.748)" fill="#6c0"/>
    <path id="패스_10" data-name="패스 10" d="M1027.047,483.193a2.132,2.132,0,0,0-2.932,1.032c.02-.043.031-.063.031-.063a1.874,1.874,0,0,1-1.72.84c-2.4,0-3.513-.243-3.958-.873-.351-.491-.36-1.963.164-3.669a9.518,9.518,0,0,1,2.4-.115c1.4.245,3.631-.093,6.553-.677.2-.041.4-.079.478-.094a10.748,10.748,0,0,0,2.665-1.019,2.768,2.768,0,0,0,1.138-3.618,2.486,2.486,0,0,0-3.42-1.205h0a7.362,7.362,0,0,1-1.233.525c-.128.023-.317.06-.579.113a19.558,19.558,0,0,1-4.772.655,7.548,7.548,0,0,0-.979-.095c.48-1.111.97-2.23,1.4-3.207.077-.013.15-.014.225-.033l5.849-1.515a36.509,36.509,0,0,0,6.25-1.928,3.134,3.134,0,0,0,1.717-3.962,2.87,2.87,0,0,0-3.746-1.816,32.023,32.023,0,0,1-5.038,1.614l-.238.02-.231.06-5.951,1.541a3.027,3.027,0,0,0-2.2,2.7c-.684,1.546-2.363,5.365-3.439,7.953a2.8,2.8,0,0,0-.419,1.022c-.169.421-.307.778-.4,1.04-.574,1.618-1.694,5.682.3,8.489,1.783,2.514,4.784,2.724,7.455,2.724a6.2,6.2,0,0,0,5.6-3.332A2.376,2.376,0,0,0,1027.047,483.193Z" transform="translate(-234.537 -0.521)" fill="#6c0"/>
    <path id="패스_11" data-name="패스 11" d="M1078.686,465.561a3.149,3.149,0,0,0-2.926-.865c-1.817.451-3.12,2.379-5.574,8.256-.831,1.987-1.512,3.606-2.082,4.945a3.071,3.071,0,0,0-2.014,3.115,3.224,3.224,0,0,0,.238,1.012c-.288.656-.518,1.175-.708,1.605l-.241.546c-.6,1.364-1.752,3.611-1.764,3.634a2.38,2.38,0,0,0,.882,3.132,2.127,2.127,0,0,0,2.964-.931c.048-.1,1.221-2.39,1.88-3.88l.238-.536c.208-.471.46-1.038.782-1.778l6.237-.412c-.006,2.843-.039,5.527-.039,5.572a2.188,2.188,0,1,0,4.37.06c0-.3.091-7.5,0-10.883C1080.656,468.11,1079.711,466.466,1078.686,465.561Zm-4.5,9.258c.763-1.827,1.784-3.943,1.784-3.943l.136.259s.289,2.957.416,6.1l-3.444.228C1073.415,476.657,1073.781,475.785,1074.184,474.819Z" transform="translate(-267.659 -2.083)" fill="#6c0"/>
    <path id="패스_12" data-name="패스 12" d="M1163.506,468.118a2.958,2.958,0,0,0-3.222-2.719c-.245.03-6.009.714-7.312.911l-2.687.414c-1.615.251-4.055.63-4.346.667-.816.1-2.28.364-3.065.509a2.534,2.534,0,0,0-2.521,1.617l0,.015a3.087,3.087,0,0,0-.254.63,23.562,23.562,0,0,0-1.024,2.843c-.067.216-.317.945-.542,1.6-.427,1.235-.849,2.476-1.226,3.631a2.742,2.742,0,0,0-.277.858c-.4,1.267-.724,2.381-.886,3.177a7.723,7.723,0,0,0-.118.926,2.471,2.471,0,0,0-.474-.25c-1.32-.522-1.863-.414-3.281,1.578l0,0a6.11,6.11,0,0,1-3.58.471,10.494,10.494,0,0,1-2.141-.867,13.848,13.848,0,0,1-3-1.974,4.908,4.908,0,0,1-.582-3.458,7.7,7.7,0,0,1,.8-1.884,15.644,15.644,0,0,1,4.9-4.079c1.489-.844,2.028-.5,2.166-.259s-.138,1.107-.138,1.107c-.136,2.071-.3,2.37.5,3.6a2.464,2.464,0,0,0,3.545.7,7.578,7.578,0,0,0,2.074-3.261,6.758,6.758,0,0,0-.358-5.676,4.024,4.024,0,0,0-3.172-2.14c-.158-.011-.343-.031-.538-.052a9.727,9.727,0,0,0-6.484,1.232,20.734,20.734,0,0,0-6.27,5.213,8.911,8.911,0,0,0-2.418,4.618c-.313,1.983-.487,5.656,1.861,7.993a25.4,25.4,0,0,0,4.983,3.526c.462.273.9.533,1.3.782a9.8,9.8,0,0,0,6.891,1.315c2.082-.276,3.4-2.468,4.116-4.181a6.556,6.556,0,0,0,.613,1.024c1.839,2.912,5.407,2.92,7.795,2.92a10.453,10.453,0,0,0,6.2-2.319,2.8,2.8,0,0,0,.41-3.787,2.455,2.455,0,0,0-3.582-.437l.014-.013a5.548,5.548,0,0,1-3.044,1.163c-2.171,0-3.372-.182-3.573-.541l-.131-.235-.114-.132a1.95,1.95,0,0,1-.185-1.475c.069-.331.189-.78.336-1.289.371-.018.721-.039.965-.06.732-.066,3.98-.247,4.4-.249l4.351-.064a2.7,2.7,0,0,0-.081-5.392l-4.27.064c-.475,0-2.268.1-3.559.178.017-.046.036-.1.052-.147.5-1.449.64-1.863.707-2.163.025-.081.067-.2.128-.369.808-.148,1.908-.34,2.466-.41.32-.04,2-.3,4.514-.691l2.662-.411c.976-.147,5.1-.645,7.14-.887A3.048,3.048,0,0,0,1163.506,468.118Z" transform="translate(-303.808 -2.598)" fill="#6c0"/>
  </g>
</svg>
