<svg xmlns="http://www.w3.org/2000/svg" width="46.665" height="44.045" viewBox="0 0 46.665 44.045">
  <g id="그룹_93" data-name="그룹 93" transform="translate(-986.839 -638.476)">
    <path id="패스_14" data-name="패스 14" d="M690.19,477.531a2.818,2.818,0,0,0-1.685-1.706c-.461-.163-1.422-.5-7.954.442-7.216,1.043-7.46,1.557-7.993,2.684a2.626,2.626,0,0,0,1.081,3.428,2.3,2.3,0,0,0,1.976.088c.531-.225.212-.134.184-.123a66.282,66.282,0,0,1,9-1.462c.109-.012-.019.135-.07.294a10.182,10.182,0,0,1-.682,1.952,1.45,1.45,0,0,1-.693.578c-2.493,1.017-7.017,2.689-9.26,2.775a5.837,5.837,0,0,1-5.769-3.763c-.324-.747-.509-1.882.57-4.624.947-2.4,4.442-5.593,5.936-6.955.276-.252.513-.468.7-.646,2.635-2.509,4.569-3.6,5.579-3.837a8.209,8.209,0,0,1,1.09,2.371,2.4,2.4,0,0,0,3,1.733,2.58,2.58,0,0,0,1.64-3.17c-.41-1.48-2.031-6.293-5.668-6.091-2.406.133-5.391,1.881-8.873,5.194-.15.142-.37.343-.625.575-2.046,1.867-5.852,5.342-7.239,8.858-1.41,3.579-1.565,6.268-.5,8.718a10.593,10.593,0,0,0,10.341,6.743c2.394-.093,5.994-1.271,8.636-2.26v5.81a2.42,2.42,0,1,0,4.832,0v-8.869C691.021,479.824,690.466,478.278,690.19,477.531Z" transform="translate(325.034 176.98)" fill="#6c0"/>
    <path id="패스_15" data-name="패스 15" d="M188.4,536.807a48.551,48.551,0,0,0,39.98,0" transform="translate(801.81 138.87)" fill="none" stroke="#51caff" stroke-linecap="round" stroke-width="5"/>
  </g>
</svg>
