<svg xmlns="http://www.w3.org/2000/svg" width="720" height="234.472" viewBox="0 0 720 234.472">
  <g id="그룹_92" data-name="그룹 92" transform="translate(-590.496 -322.081)">
    <g id="그룹_76" data-name="그룹 76" transform="translate(719.545 322.081)">
      <g id="그룹_3" data-name="그룹 3" transform="translate(0)">
        <path id="패스_1" data-name="패스 1" d="M715.055,482.1l0-.013h0Z" transform="translate(-673.033 -465.388)" fill="#fff"/>
        <path id="패스_2" data-name="패스 2" d="M722.961,497.028a6.246,6.246,0,0,0-3.734-3.781c-1.023-.361-3.151-1.11-17.626.98-15.991,2.31-16.532,3.45-17.712,5.948a5.82,5.82,0,0,0,2.4,7.6,5.1,5.1,0,0,0,4.379.195c1.176-.5.47-.3.408-.272,2.271-.874,13.057-2.529,19.943-3.241.241-.027-.042.3-.156.652a22.56,22.56,0,0,1-1.511,4.326,3.214,3.214,0,0,1-1.537,1.28c-5.523,2.253-15.55,5.96-20.521,6.15-5.73.226-10.388-2.812-12.783-8.338-.719-1.655-1.129-4.17,1.264-10.246,2.1-5.323,9.844-12.393,13.153-15.411.611-.558,1.137-1.038,1.551-1.431,5.839-5.559,10.125-7.982,12.363-8.5a18.188,18.188,0,0,1,2.416,5.255,5.315,5.315,0,0,0,6.643,3.84,5.717,5.717,0,0,0,3.635-7.025c-.909-3.279-4.5-13.946-12.56-13.5-5.332.3-11.947,4.168-19.661,11.511-.332.314-.819.761-1.384,1.275-4.533,4.138-12.969,11.837-16.042,19.629-3.124,7.932-3.468,13.889-1.114,19.318,4.226,9.753,12.793,15.34,22.915,14.943,5.305-.207,13.282-2.816,19.137-5.008v12.876a5.363,5.363,0,1,0,10.709,0V516.4C724.8,502.111,723.574,498.685,722.961,497.028Z" transform="translate(-663.239 -461.496)" fill="#fff"/>
        <path id="패스_3" data-name="패스 3" d="M747.006,499.932Z" transform="translate(-679.074 -468.762)" fill="#fff"/>
        <path id="패스_4" data-name="패스 4" d="M767.722,503.13l-.281-.259a29.1,29.1,0,0,0,4.786-3.353c5.1-4.8,5.956-14.715,5.654-19.817-.476-8.054-8.277-16.259-15.456-16.259-4.178,0-12.482,2.281-14.1,2.739a6.652,6.652,0,0,0-4.426,8.084,6.34,6.34,0,0,0,5.38,4.85,37.2,37.2,0,0,1-1.042,5.186,56.512,56.512,0,0,0-1.966,8.812l-.846-.08a6.36,6.36,0,0,0-6.771,6,6.524,6.524,0,0,0,5.257,7.079c-.672,4.6-.624,14.437-.521,20.344a5.363,5.363,0,1,0,10.707-.206c-.1-5.712-.047-12.423.162-16.085l5.754,3.382,13.481,12.435a6.011,6.011,0,0,0,8.813-.636,6.878,6.878,0,0,0-.6-9.323Zm-2.31-22.606c.244,4.122-.852,8.229-1.548,9.169a32.708,32.708,0,0,1-6.766,3.8,45.007,45.007,0,0,1,1.078-4.99c.943-2.491,1.745-7.729,2.249-11.625a15.6,15.6,0,0,1,1.791-.213C763.36,477.066,765.338,479.27,765.412,480.525Z" transform="translate(-677.49 -461.864)" fill="#fff"/>
        <path id="패스_5" data-name="패스 5" d="M833.773,481.831a7.576,7.576,0,0,0,5.314-9.079,7.136,7.136,0,0,0-8.585-5.62l-26.772,7.551a7.706,7.706,0,0,0-3.364,12.712c-.177,3.728-.422,7.055-.68,8.582a6.886,6.886,0,0,0-.841,3.407q-.139.518-.286,1.058c-2.292,8.48-3,11.734-2.651,14.294.7,5.215,7.638,12.155,12.107,13.338,2.713.717,11.938,1.657,15.821.629a6.638,6.638,0,0,0,4.546-8.01,6.229,6.229,0,0,0-7.577-4.806c.069-.02.108-.028.108-.028a44.9,44.9,0,0,1-9.559-.543,13.7,13.7,0,0,1-2.882-2.812c.322-1.717,1.086-4.649,1.684-6.887l19.392-1.264a6.488,6.488,0,0,0,5.849-7,6.381,6.381,0,0,0-6.62-6.186l-16.167,1.056c.1-1.5.189-3.033.256-4.5Z" transform="translate(-688.303 -462.523)" fill="#fff"/>
        <path id="패스_6" data-name="패스 6" d="M894.379,472.752a7.136,7.136,0,0,0-8.584-5.62l-30.344,7.551a7.7,7.7,0,0,0-3.362,12.712c-.179,3.73-.423,7.055-.68,8.582a6.865,6.865,0,0,0-.842,3.412c-.093.343-.187.7-.285,1.053-2.293,8.48-3,11.734-2.653,14.294.706,5.215,7.638,12.155,12.108,13.338,2.714.717,11.937,1.657,15.82.629a6.638,6.638,0,0,0,4.546-8.01,6.228,6.228,0,0,0-7.576-4.806c.068-.02.107-.028.107-.028a45.049,45.049,0,0,1-9.584-.548,12.841,12.841,0,0,1-2.559-2.187c-.341-.353-.3-.689-.11-1.552.352-1.6.908-3.744,1.384-5.532l.114-.422.291-.019,19.1-1.246a6.487,6.487,0,0,0,5.849-7,6.381,6.381,0,0,0-6.62-6.186l-16.167,1.056c.1-1.431.182-2.9.247-4.3l24.485-6.091A7.576,7.576,0,0,0,894.379,472.752Z" transform="translate(-698.08 -462.523)" fill="#fff"/>
        <path id="패스_7" data-name="패스 7" d="M923.591,467.158c.024.057.071.178.135.361a.3.3,0,0,0,.012.029Z" transform="translate(-712.455 -462.566)" fill="#fff"/>
        <path id="패스_8" data-name="패스 8" d="M940.5,464.8a5.493,5.493,0,0,0-5.494,5.51l-.889,26.957c-.047,1.105-.115,2.548-.2,4.154-.56-1.216-1.034-2.221-1.357-2.846a38.87,38.87,0,0,0-2.362-3.658,84.358,84.358,0,0,1-6.2-10.043,52.444,52.444,0,0,1-2.65-7.013c-.008-6.7-.947-10.168-1.319-11.26a6.156,6.156,0,0,0-7.993-3.921,6.718,6.718,0,0,0-3.735,8.466l-.053-.164c.009.028.808,2.872.573,9.29-.286,7.895-1.161,18.844-2.218,23.592-1.252,5.626-2.447,15.686-2.5,16.107a6.541,6.541,0,0,0,5.423,7.373,6.326,6.326,0,0,0,6.973-5.733c.011-.1,1.163-9.785,2.262-14.721.441-1.985.835-4.669,1.18-7.642.566.839,1.108,1.629,1.584,2.323.645.938,1.449,2.108,1.643,2.458,1.37,2.654,6.767,15.143,8.73,19.725a5.7,5.7,0,0,0,.739,1.228,5.339,5.339,0,1,0,10.674.247v0c.049-.826,1.2-20.268,1.494-27.475l.893-27.147A5.532,5.532,0,0,0,940.5,464.8Z" transform="translate(-708.764 -461.643)" fill="#fff"/>
        <path id="패스_9" data-name="패스 9" d="M1003.828,494.71c6.321-4.009,6.639-14.228,6.257-17.492-.789-6.676-9.483-11.53-15.191-12.336-4.426-.624-12.743-1.436-18.7.14-5.019,1.327-14.781,5.074-15.2,5.233a6.717,6.717,0,0,0-3.737,8.466,6.161,6.161,0,0,0,8.009,3.949c1.6-.616,5.042-1.9,8.318-3.036l-.7,11.879c-1.247.3-2.1.5-2.22.53a6.626,6.626,0,0,0-4.7,7.911,6.322,6.322,0,0,0,6.118,5.125l-.02.357c-.3,6.359-.3,20.751-.3,21.358a5.361,5.361,0,1,0,10.706,0c0-.146.008-14.716.3-20.794l.192-3.265c1.747-.381,3.329-.707,4.333-.87C992.686,500.987,1001.3,496.313,1003.828,494.71ZM983.759,489.1l.694-11.773a61.8,61.8,0,0,1,8.789.65c1.483.208,3.928,1.2,4.295,1.981.346.731-.076,2.755-.574,3.685-3.073,1.865-9.119,4.765-11.582,5.163C984.916,488.884,984.361,488.988,983.759,489.1Z" transform="translate(-718.749 -461.99)" fill="#fff"/>
        <path id="패스_10" data-name="패스 10" d="M1046.2,513.519a5.223,5.223,0,0,0-7.184,2.529c.05-.105.077-.154.077-.154a4.592,4.592,0,0,1-4.215,2.058c-5.884,0-8.605-.6-9.7-2.139-.859-1.2-.881-4.809.4-8.989a23.317,23.317,0,0,1,5.889-.281c3.425.6,8.9-.227,16.053-1.659.5-.1.973-.195,1.172-.23a26.325,26.325,0,0,0,6.529-2.5,6.782,6.782,0,0,0,2.789-8.863,6.09,6.09,0,0,0-8.379-2.953l0,0a18.042,18.042,0,0,1-3.019,1.286c-.315.056-.778.148-1.418.276-8.337,1.667-10.9,1.721-11.69,1.606a18.489,18.489,0,0,0-2.4-.232c1.176-2.721,2.375-5.462,3.425-7.857.188-.031.368-.034.552-.081l14.329-3.712c4.721-.673,12.809-3.739,15.31-4.722a7.677,7.677,0,0,0,4.207-9.7,7.032,7.032,0,0,0-9.176-4.449c-4.487,1.76-10.655,3.817-12.341,3.954l-.583.048-.567.146-14.578,3.774a7.416,7.416,0,0,0-5.379,6.605c-1.675,3.786-5.789,13.143-8.425,19.484a6.851,6.851,0,0,0-1.026,2.5c-.414,1.032-.751,1.907-.978,2.547-1.406,3.963-4.149,13.92.729,20.8,4.368,6.158,11.72,6.672,18.264,6.672a15.2,15.2,0,0,0,13.716-8.163A5.82,5.82,0,0,0,1046.2,513.519Z" transform="translate(-729.515 -461.643)" fill="#fff"/>
        <path id="패스_11" data-name="패스 11" d="M1100.918,466.941c-2.3-2.017-4.7-2.73-7.169-2.12-4.451,1.1-7.643,5.828-13.654,20.225-2.035,4.868-3.705,8.833-5.1,12.113a7.523,7.523,0,0,0-4.935,7.63,7.9,7.9,0,0,0,.583,2.479c-.7,1.607-1.268,2.879-1.735,3.932l-.59,1.337c-1.475,3.342-4.292,8.845-4.322,8.9a5.832,5.832,0,0,0,2.161,7.673,5.211,5.211,0,0,0,7.261-2.281c.118-.235,2.992-5.854,4.6-9.505l.583-1.313c.509-1.155,1.126-2.544,1.916-4.355l15.279-1.009c-.016,6.964-.1,13.541-.1,13.65a5.361,5.361,0,1,0,10.7.146c.011-.746.222-18.38,0-26.66C1105.746,473.183,1103.432,469.156,1100.918,466.941Zm-11.027,22.679c1.87-4.476,4.371-9.659,4.371-9.659l.334.634s.709,7.243,1.019,14.941l-8.436.559C1088.007,494.123,1088.9,491.987,1089.892,489.62Z" transform="translate(-738.875 -462.085)" fill="#fff"/>
        <path id="패스_12" data-name="패스 12" d="M1230.369,472.088a7.246,7.246,0,0,0-7.892-6.661c-.6.073-14.721,1.749-17.911,2.233l-6.583,1.015c-3.957.615-9.935,1.542-10.647,1.634-2,.248-5.586.893-7.51,1.248a6.208,6.208,0,0,0-6.177,3.962c0,.014-.007.024-.011.036a7.555,7.555,0,0,0-.621,1.543,57.725,57.725,0,0,0-2.51,6.965c-.165.53-.777,2.316-1.329,3.923-1.046,3.026-2.081,6.067-3,8.9a6.718,6.718,0,0,0-.679,2.1c-.984,3.1-1.774,5.833-2.172,7.784a18.868,18.868,0,0,0-.288,2.268,6.046,6.046,0,0,0-1.16-.612c-3.234-1.279-4.563-1.015-8.038,3.865l0-.012a14.968,14.968,0,0,1-8.77,1.155,25.707,25.707,0,0,1-5.244-2.123c-1.779-1.066-4.993-2.479-7.357-4.835-.874-.869-2.05-4.5-1.425-8.47a18.867,18.867,0,0,1,1.962-4.615,38.326,38.326,0,0,1,12-9.993c3.647-2.068,4.969-1.223,5.306-.633s-.338,2.713-.338,2.713c-.333,5.073-.743,5.806,1.215,8.813a6.037,6.037,0,0,0,8.685,1.7c1.735-1.264,3.352-3.8,5.08-7.988a16.555,16.555,0,0,0-.877-13.9,9.857,9.857,0,0,0-7.77-5.242c-.386-.028-.839-.077-1.318-.128a23.829,23.829,0,0,0-15.885,3.019,50.8,50.8,0,0,0-15.359,12.77,21.83,21.83,0,0,0-5.923,11.312c-.766,4.857-1.192,13.857,4.559,19.581,3.482,3.468,8.114,6.212,12.206,8.638,1.131.669,2.2,1.3,3.188,1.916,5,3.108,10.2,4.1,16.881,3.221,5.1-.676,8.317-6.045,10.083-10.243a16.047,16.047,0,0,0,1.5,2.509c4.505,7.134,13.245,7.154,19.1,7.154,8.192,0,14.5-5.1,15.191-5.68a6.857,6.857,0,0,0,1-9.278,6.015,6.015,0,0,0-8.774-1.07l.035-.032a13.588,13.588,0,0,1-7.456,2.848c-5.317,0-8.261-.446-8.754-1.325l-.322-.575-.28-.324a4.777,4.777,0,0,1-.452-3.614c.168-.81.464-1.911.823-3.159.909-.043,1.767-.1,2.365-.147,1.793-.161,9.751-.606,10.785-.609l10.659-.157a6.615,6.615,0,0,0-.2-13.208l-10.46.157c-1.165,0-5.555.238-8.719.437.042-.113.088-.252.127-.36,1.225-3.55,1.567-4.564,1.731-5.3.061-.2.165-.5.315-.9,1.98-.362,4.674-.834,6.042-1,.785-.1,4.889-.733,11.057-1.692l6.521-1.007c2.391-.361,12.487-1.579,17.49-2.173A7.467,7.467,0,0,0,1230.369,472.088Z" transform="translate(-749.09 -462.23)" fill="#fff"/>
      </g>
    </g>
    <text id="어떤_힘이_우리를_가로막고_있든_우리의_바다_숲_음식_기후_그리고_민주주의를_위해_그린피스는_더_푸르고_건강한_세상을_위해_싸우는_것을_멈추지_않을_것입니다." data-name="어떤 힘이 우리를 가로막고 있든, 우리의 바다, 숲, 음식, 기후, 그리고 민주주의를 위해
그린피스는 더 푸르고 건강한 세상을 위해 싸우는 것을 멈추지 않을 것입니다." transform="translate(950.496 516.553)" fill="#fff" font-size="21" font-family="NotoSansCJKkr-Light, Noto Sans CJK KR" font-weight="300"><tspan x="-359.877" y="0">어떤 힘이 우리를 가로막고 있든, 우리의 바다, 숲, 음식, 기후, 그리고 민주주의를 위해</tspan><tspan x="-325.395" y="34">그린피스는 더 푸르고 건강한 세상을 위해 싸우는 것을 멈추지 않을 것입니다.</tspan></text>
    <line id="선_21" data-name="선 21" x2="60.433" transform="translate(930.215 450.935)" fill="none" stroke="#fff" stroke-width="3"/>
  </g>
</svg>
