<svg xmlns="http://www.w3.org/2000/svg" width="505.47" height="135.36" viewBox="0 0 505.47 135.36">
  <path id="패스_72" data-name="패스 72" d="M-504.84,0h11.13l3.92-11.13h18.69L-467.32,0h11.41L-474.6-49.98h-11.27Zm24.43-37.66h.14l6.3,18.34h-12.95Zm72.8,4.48a20.444,20.444,0,0,0-2.345-7.63,18.708,18.708,0,0,0-4.76-5.67,20.662,20.662,0,0,0-6.615-3.5,25.514,25.514,0,0,0-7.84-1.19,25.446,25.446,0,0,0-10.255,1.995,21.851,21.851,0,0,0-7.77,5.6,24.98,24.98,0,0,0-4.865,8.435,31.319,31.319,0,0,0-1.68,10.36,30.276,30.276,0,0,0,1.68,10.15,24.342,24.342,0,0,0,4.865,8.295,22.262,22.262,0,0,0,7.77,5.53,25.445,25.445,0,0,0,10.255,2,23.87,23.87,0,0,0,8.4-1.435,20.184,20.184,0,0,0,6.755-4.13,20.431,20.431,0,0,0,4.655-6.475,25.294,25.294,0,0,0,2.17-8.4h-10.64a13.9,13.9,0,0,1-3.535,8.155,10.28,10.28,0,0,1-7.8,3.045,13.044,13.044,0,0,1-6.16-1.365,11.7,11.7,0,0,1-4.235-3.745,16.681,16.681,0,0,1-2.415-5.355,24.912,24.912,0,0,1-.77-6.265,26.756,26.756,0,0,1,.77-6.51,17.018,17.018,0,0,1,2.38-5.46,11.626,11.626,0,0,1,4.235-3.78,12.983,12.983,0,0,1,6.2-1.4,11.32,11.32,0,0,1,7.28,2.52,9.344,9.344,0,0,1,3.64,6.23Zm51.87,0a20.444,20.444,0,0,0-2.345-7.63,18.708,18.708,0,0,0-4.76-5.67,20.662,20.662,0,0,0-6.615-3.5,25.514,25.514,0,0,0-7.84-1.19,25.446,25.446,0,0,0-10.255,1.995,21.851,21.851,0,0,0-7.77,5.6,24.98,24.98,0,0,0-4.865,8.435,31.319,31.319,0,0,0-1.68,10.36,30.276,30.276,0,0,0,1.68,10.15,24.342,24.342,0,0,0,4.865,8.295,22.262,22.262,0,0,0,7.77,5.53,25.445,25.445,0,0,0,10.255,2,23.87,23.87,0,0,0,8.4-1.435,20.184,20.184,0,0,0,6.755-4.13,20.431,20.431,0,0,0,4.655-6.475,25.294,25.294,0,0,0,2.17-8.4h-10.64a13.9,13.9,0,0,1-3.535,8.155,10.28,10.28,0,0,1-7.8,3.045,13.044,13.044,0,0,1-6.16-1.365,11.7,11.7,0,0,1-4.235-3.745,16.681,16.681,0,0,1-2.415-5.355,24.912,24.912,0,0,1-.77-6.265,26.756,26.756,0,0,1,.77-6.51,17.018,17.018,0,0,1,2.38-5.46,11.626,11.626,0,0,1,4.235-3.78,12.983,12.983,0,0,1,6.2-1.4,11.32,11.32,0,0,1,7.28,2.52,9.344,9.344,0,0,1,3.64,6.23ZM-347.83,0h37.94V-9.24h-26.95V-21.49h24.22v-8.54h-24.22V-40.74h26.39v-9.24h-37.38Zm42.21-16.59A17.242,17.242,0,0,0-303.9-8.715a15.636,15.636,0,0,0,4.69,5.6A20.353,20.353,0,0,0-292.425.14a30.344,30.344,0,0,0,8.085,1.05q9.87,0,15.33-4.445a14.232,14.232,0,0,0,5.46-11.585,12.847,12.847,0,0,0-1.54-6.475,12.659,12.659,0,0,0-3.85-4.27,20.389,20.389,0,0,0-4.41-2.345,45.522,45.522,0,0,0-4.62-1.4,1.321,1.321,0,0,1-.42-.07,5.873,5.873,0,0,0-1.12-.28q-5.25-1.33-7.56-2.03a27.473,27.473,0,0,1-3.71-1.365,4.577,4.577,0,0,1-1.96-1.54,4.306,4.306,0,0,1-.56-2.345,4.69,4.69,0,0,1,2.24-4.27,9.832,9.832,0,0,1,5.32-1.4,12.918,12.918,0,0,1,7.035,1.68q2.625,1.68,2.835,5.88h10.64a15.513,15.513,0,0,0-1.61-7.28,14.064,14.064,0,0,0-4.375-5.04,18.892,18.892,0,0,0-6.37-2.87,31.223,31.223,0,0,0-7.665-.91,24.844,24.844,0,0,0-6.825.945,19.845,19.845,0,0,0-6.02,2.835,13.925,13.925,0,0,0-4.27,4.76,13.453,13.453,0,0,0-1.575,6.58,12.632,12.632,0,0,0,1.225,5.775,11.455,11.455,0,0,0,3.29,3.99,18.675,18.675,0,0,0,4.585,2.555,61.075,61.075,0,0,0,5.81,1.89q1.19.28,3.22.84,3.08.7,4.9,1.26a19.818,19.818,0,0,1,3.36,1.365,7.451,7.451,0,0,1,2.45,1.96,4.439,4.439,0,0,1,.91,2.835,4.965,4.965,0,0,1-.91,3.045,6.2,6.2,0,0,1-2.415,1.925,12.349,12.349,0,0,1-3.15.98,19.371,19.371,0,0,1-3.255.28,13.128,13.128,0,0,1-7.945-2.275q-3.115-2.275-3.115-6.965Zm45.43,0a17.242,17.242,0,0,0,1.715,7.875,15.636,15.636,0,0,0,4.69,5.6A20.353,20.353,0,0,0-246.995.14a30.344,30.344,0,0,0,8.085,1.05q9.87,0,15.33-4.445a14.232,14.232,0,0,0,5.46-11.585,12.847,12.847,0,0,0-1.54-6.475,12.66,12.66,0,0,0-3.85-4.27,20.388,20.388,0,0,0-4.41-2.345,45.524,45.524,0,0,0-4.62-1.4,1.321,1.321,0,0,1-.42-.07,5.873,5.873,0,0,0-1.12-.28q-5.25-1.33-7.56-2.03a27.473,27.473,0,0,1-3.71-1.365,4.577,4.577,0,0,1-1.96-1.54,4.306,4.306,0,0,1-.56-2.345,4.69,4.69,0,0,1,2.24-4.27,9.832,9.832,0,0,1,5.32-1.4,12.918,12.918,0,0,1,7.035,1.68q2.625,1.68,2.835,5.88h10.64a15.513,15.513,0,0,0-1.61-7.28,14.064,14.064,0,0,0-4.375-5.04,18.893,18.893,0,0,0-6.37-2.87,31.223,31.223,0,0,0-7.665-.91,24.844,24.844,0,0,0-6.825.945,19.845,19.845,0,0,0-6.02,2.835,13.925,13.925,0,0,0-4.27,4.76,13.453,13.453,0,0,0-1.575,6.58,12.632,12.632,0,0,0,1.225,5.775,11.455,11.455,0,0,0,3.29,3.99,18.675,18.675,0,0,0,4.585,2.555,61.071,61.071,0,0,0,5.81,1.89q1.19.28,3.22.84,3.08.7,4.9,1.26a19.818,19.818,0,0,1,3.36,1.365,7.45,7.45,0,0,1,2.45,1.96,4.439,4.439,0,0,1,.91,2.835,4.965,4.965,0,0,1-.91,3.045,6.2,6.2,0,0,1-2.415,1.925,12.349,12.349,0,0,1-3.15.98,19.371,19.371,0,0,1-3.255.28,13.128,13.128,0,0,1-7.945-2.275q-3.115-2.275-3.115-6.965Zm46.41-8.19a30.276,30.276,0,0,0,1.68,10.15,24.342,24.342,0,0,0,4.865,8.295,22.262,22.262,0,0,0,7.77,5.53,25.445,25.445,0,0,0,10.255,2,25.445,25.445,0,0,0,10.255-2A22.4,22.4,0,0,0-171.15-6.37a24.039,24.039,0,0,0,4.865-8.3A30.551,30.551,0,0,0-164.64-24.78a31.925,31.925,0,0,0-1.645-10.36,24.23,24.23,0,0,0-4.865-8.435,22.192,22.192,0,0,0-7.805-5.6A25.446,25.446,0,0,0-189.21-51.17a25.445,25.445,0,0,0-10.255,1.995,21.851,21.851,0,0,0-7.77,5.6A24.98,24.98,0,0,0-212.1-35.14,31.319,31.319,0,0,0-213.78-24.78Zm10.99,0a26.756,26.756,0,0,1,.77-6.51,17.018,17.018,0,0,1,2.38-5.46,11.626,11.626,0,0,1,4.235-3.78,12.983,12.983,0,0,1,6.195-1.4,12.983,12.983,0,0,1,6.2,1.4,11.626,11.626,0,0,1,4.235,3.78,17.018,17.018,0,0,1,2.38,5.46,26.757,26.757,0,0,1,.77,6.51,24.912,24.912,0,0,1-.77,6.265,16.706,16.706,0,0,1-2.38,5.32,11.748,11.748,0,0,1-4.235,3.745,12.983,12.983,0,0,1-6.2,1.4,13.044,13.044,0,0,1-6.16-1.365A11.7,11.7,0,0,1-199.6-13.16a16.681,16.681,0,0,1-2.415-5.355A24.912,24.912,0,0,1-202.79-24.78ZM-157.15,0h10.99V-19.53h10.99q4.06,0,5.915,1.75t2.415,5.81q.21,1.4.42,4.06.21,2.87.455,4.69A11.594,11.594,0,0,0-125.09,0h10.99a9.779,9.779,0,0,1-1.435-4.06q-.385-2.52-.595-6.09-.07-1.4-.07-1.68a18.643,18.643,0,0,0-1.925-7.6,8.066,8.066,0,0,0-5.355-4.1v-.14a11.768,11.768,0,0,0,5.985-4.795,14.69,14.69,0,0,0,1.925-7.735,14.025,14.025,0,0,0-1.015-5.355,13.288,13.288,0,0,0-2.94-4.41,13.176,13.176,0,0,0-4.655-2.975,16.641,16.641,0,0,0-6.02-1.05h-26.95Zm10.99-41.44h12.04q3.78,0,5.67,1.68t1.89,5.25q0,3.71-1.89,5.425t-5.67,1.715h-12.04ZM-106.61,0h10.99V-49.98h-10.99Zm20.65,0h37.94V-9.24H-74.97V-21.49h24.22v-8.54H-74.97V-40.74h26.39v-9.24H-85.96Zm42.21-16.59a17.242,17.242,0,0,0,1.715,7.875,15.636,15.636,0,0,0,4.69,5.6A20.353,20.353,0,0,0-30.555.14,30.344,30.344,0,0,0-22.47,1.19q9.87,0,15.33-4.445A14.232,14.232,0,0,0-1.68-14.84a12.847,12.847,0,0,0-1.54-6.475,12.659,12.659,0,0,0-3.85-4.27,20.388,20.388,0,0,0-4.41-2.345,45.523,45.523,0,0,0-4.62-1.4,1.321,1.321,0,0,1-.42-.07,5.873,5.873,0,0,0-1.12-.28q-5.25-1.33-7.56-2.03a27.473,27.473,0,0,1-3.71-1.365,4.577,4.577,0,0,1-1.96-1.54,4.306,4.306,0,0,1-.56-2.345,4.69,4.69,0,0,1,2.24-4.27,9.832,9.832,0,0,1,5.32-1.4,12.918,12.918,0,0,1,7.035,1.68Q-14.21-39.27-14-35.07H-3.36a15.513,15.513,0,0,0-1.61-7.28,14.064,14.064,0,0,0-4.375-5.04,18.893,18.893,0,0,0-6.37-2.87,31.223,31.223,0,0,0-7.665-.91,24.844,24.844,0,0,0-6.825.945,19.845,19.845,0,0,0-6.02,2.835,13.925,13.925,0,0,0-4.27,4.76,13.453,13.453,0,0,0-1.575,6.58,12.632,12.632,0,0,0,1.225,5.775,11.455,11.455,0,0,0,3.29,3.99A18.675,18.675,0,0,0-32.97-23.73a61.073,61.073,0,0,0,5.81,1.89q1.19.28,3.22.84,3.08.7,4.9,1.26a19.818,19.818,0,0,1,3.36,1.365,7.451,7.451,0,0,1,2.45,1.96,4.439,4.439,0,0,1,.91,2.835,4.965,4.965,0,0,1-.91,3.045A6.2,6.2,0,0,1-15.645-8.61a12.349,12.349,0,0,1-3.15.98,19.371,19.371,0,0,1-3.255.28,13.128,13.128,0,0,1-7.945-2.275Q-33.11-11.9-33.11-16.59ZM-402.71,84.19h7.98l19.53-52.36h-7.98Zm60.83-51.17h-10.99V66.76q0,1.82-.105,3.08a7.1,7.1,0,0,1-.665,2.45,4.421,4.421,0,0,1-1.785,1.925,6.285,6.285,0,0,1-3.255.735q-3.64,0-5.005-2.135a11.561,11.561,0,0,1-1.365-6.2V64.38h-9.94v4.34a16.752,16.752,0,0,0,1.33,6.895,12.875,12.875,0,0,0,3.675,4.865,15.77,15.77,0,0,0,5.285,2.8,20.714,20.714,0,0,0,6.16.91,19.831,19.831,0,0,0,8.645-1.645,12.547,12.547,0,0,0,5.11-4.2,15.246,15.246,0,0,0,2.31-5.355,27.539,27.539,0,0,0,.6-5.74ZM-332.22,83h37.94V73.76h-26.95V61.51h24.22V52.97h-24.22V42.26h26.39V33.02h-37.38Zm106.4-49.98H-236.6l-8.19,34.44h-.14l-8.54-34.44h-10.29l-8.68,34.02h-.14l-7.91-34.02h-10.99L-278.25,83h11.13l8.33-34.02h.14L-250.18,83h10.92ZM-220.78,83h37.94V73.76h-26.95V61.51h24.22V52.97h-24.22V42.26h26.39V33.02h-37.38Zm45.36,0h35.35V73.76h-24.36V33.02h-10.99Zm41.51,0h35.35V73.76h-24.36V33.02h-10.99Zm41.51,0h10.99V63.47h10.99q4.06,0,5.915,1.75t2.415,5.81q.21,1.4.42,4.06.21,2.87.455,4.69A11.594,11.594,0,0,0-60.34,83h10.99a9.779,9.779,0,0,1-1.435-4.06q-.385-2.52-.595-6.09-.07-1.4-.07-1.68a18.643,18.643,0,0,0-1.925-7.6,8.066,8.066,0,0,0-5.355-4.1v-.14a11.768,11.768,0,0,0,5.985-4.795A14.69,14.69,0,0,0-50.82,46.81a14.025,14.025,0,0,0-1.015-5.355,13.288,13.288,0,0,0-2.94-4.41A13.176,13.176,0,0,0-59.43,34.07a16.641,16.641,0,0,0-6.02-1.05H-92.4Zm10.99-41.44h12.04q3.78,0,5.67,1.68t1.89,5.25q0,3.71-1.89,5.425t-5.67,1.715H-81.41ZM-28.91,83h10.99V63.82L.63,33.02H-11.62L-23.24,52.76-34.93,33.02H-47.32l18.41,30.52Z" transform="translate(504.84 51.17)"/>
</svg>
