<svg xmlns="http://www.w3.org/2000/svg" width="158.034" height="41.145" viewBox="0 0 158.034 41.145">
  <path id="패스_55" data-name="패스 55" d="M-1.75-142.54H7l3.08-8.746H24.763l2.97,8.746H36.7L22.013-181.815H13.157Zm19.2-29.594h.11l4.951,14.412H12.332ZM39.615-142.54h8.636v-8.471H39.615Zm15.787,0h8.636v-14.082h9.076a16.857,16.857,0,0,0,6.133-1.018,11.238,11.238,0,0,0,4.263-2.805,11.278,11.278,0,0,0,2.42-4.043,14.538,14.538,0,0,0,.77-4.731,14.537,14.537,0,0,0-.77-4.731,11.278,11.278,0,0,0-2.42-4.043,11.237,11.237,0,0,0-4.263-2.805,16.857,16.857,0,0,0-6.133-1.018H55.4ZM64.038-175.1h6.711a18.172,18.172,0,0,1,2.97.22,6.582,6.582,0,0,1,2.393.88,4.39,4.39,0,0,1,1.65,1.815,6.643,6.643,0,0,1,.578,2.97,6.643,6.643,0,0,1-.578,2.97,4.21,4.21,0,0,1-1.65,1.788,7.326,7.326,0,0,1-2.393.88,16.2,16.2,0,0,1-2.97.248H64.038ZM91.6-142.54h8.636v-8.471H91.6Zm50.331-26.073a16.065,16.065,0,0,0-1.843-6,14.7,14.7,0,0,0-3.74-4.456,16.237,16.237,0,0,0-5.2-2.75,20.05,20.05,0,0,0-6.161-.935,20,20,0,0,0-8.058,1.568,17.171,17.171,0,0,0-6.106,4.4A19.63,19.63,0,0,0,107-170.153a24.61,24.61,0,0,0-1.32,8.141,23.791,23.791,0,0,0,1.32,7.976,19.128,19.128,0,0,0,3.823,6.518,17.493,17.493,0,0,0,6.106,4.346,20,20,0,0,0,8.058,1.568,18.757,18.757,0,0,0,6.6-1.128,15.861,15.861,0,0,0,5.308-3.245,16.055,16.055,0,0,0,3.658-5.088,19.876,19.876,0,0,0,1.705-6.6H133.9a10.926,10.926,0,0,1-2.778,6.408,8.078,8.078,0,0,1-6.133,2.393,10.25,10.25,0,0,1-4.841-1.073,9.194,9.194,0,0,1-3.328-2.943,13.108,13.108,0,0,1-1.9-4.208,19.576,19.576,0,0,1-.605-4.923,21.026,21.026,0,0,1,.605-5.116,13.373,13.373,0,0,1,1.87-4.291,9.136,9.136,0,0,1,3.328-2.97,10.2,10.2,0,0,1,4.868-1.1,8.9,8.9,0,0,1,5.721,1.98,7.342,7.342,0,0,1,2.86,4.9Zm5.721,26.073h8.636v-8.471h-8.636Z" transform="translate(1.75 182.75)"/>
</svg>
