<svg xmlns="http://www.w3.org/2000/svg" width="28.16" height="14.56" viewBox="0 0 28.16 14.56">
  <path id="패스_66" data-name="패스 66" d="M3.616-5.088H6.352A2.042,2.042,0,0,1,7.68-4.7a1.509,1.509,0,0,1,.48,1.24,1.3,1.3,0,0,1-.5,1.16A2.362,2.362,0,0,1,6.3-1.952H3.616ZM1.1,0H6.64A5.655,5.655,0,0,0,8.16-.2,4.04,4.04,0,0,0,9.448-.808a2.913,2.913,0,0,0,.9-1.04,3.134,3.134,0,0,0,.328-1.464,3.124,3.124,0,0,0-.536-1.848,2.739,2.739,0,0,0-1.56-1.048,2.494,2.494,0,0,0,1.552-2.384,2.452,2.452,0,0,0-.952-2.176,4.716,4.716,0,0,0-2.7-.656H1.1ZM3.616-9.472H5.968a2.448,2.448,0,0,1,1.256.28A1.1,1.1,0,0,1,7.7-8.16,1.238,1.238,0,0,1,7.28-7.136,1.731,1.731,0,0,1,6.16-6.8H3.616ZM17.28-3.2a3.55,3.55,0,0,1-.048.568,1.843,1.843,0,0,1-.224.608,1.365,1.365,0,0,1-.56.52A2.114,2.114,0,0,1,15.44-1.3a1.923,1.923,0,0,1-1.016-.232.89.89,0,0,1-.376-.824.963.963,0,0,1,.352-.824,2.453,2.453,0,0,1,.992-.392l.544-.08q.528-.08.84-.16a1.268,1.268,0,0,0,.5-.24ZM14.3-5.728a1.3,1.3,0,0,1,.448-.952,1.69,1.69,0,0,1,1.056-.3,2.178,2.178,0,0,1,1.088.224.95.95,0,0,1,.384.9.673.673,0,0,1-.464.688,7.041,7.041,0,0,1-1.488.3q-.416.048-.736.1a6.965,6.965,0,0,0-1.088.224,3.061,3.061,0,0,0-.872.416,1.921,1.921,0,0,0-.624.736,2.522,2.522,0,0,0-.232,1.136A2.234,2.234,0,0,0,12.56-.408a3.137,3.137,0,0,0,2.032.632,4.756,4.756,0,0,0,1.544-.248A3.084,3.084,0,0,0,17.376-.8a3.116,3.116,0,0,0,.16.8h2.3a2.042,2.042,0,0,1-.216-.728,7.683,7.683,0,0,1-.072-1.112v-4.3a2.049,2.049,0,0,0-.32-1.176,2.137,2.137,0,0,0-.84-.728A3.927,3.927,0,0,0,17.24-8.4a8.784,8.784,0,0,0-1.32-.1,6.965,6.965,0,0,0-1.4.136A3.889,3.889,0,0,0,13.3-7.9a2.6,2.6,0,0,0-.888.864,2.739,2.739,0,0,0-.384,1.3Zm14.96-2.544H27.1v1.1h-.032a2.465,2.465,0,0,0-1.008-1.016A3.154,3.154,0,0,0,24.608-8.5a3.37,3.37,0,0,0-1.512.328,3.241,3.241,0,0,0-1.12.9,4.058,4.058,0,0,0-.688,1.312A5.132,5.132,0,0,0,21.056-4.4a6.1,6.1,0,0,0,.208,1.632,3.851,3.851,0,0,0,.64,1.32,2.948,2.948,0,0,0,1.112.888,3.663,3.663,0,0,0,1.576.32A3.29,3.29,0,0,0,26.04-.568a2.3,2.3,0,0,0,1.032-.952H27.1V-.432a2.278,2.278,0,0,1-.456,1.5,1.672,1.672,0,0,1-1.368.552,2.142,2.142,0,0,1-1.1-.264A1.3,1.3,0,0,1,23.584.48H21.328A2.316,2.316,0,0,0,21.7,1.664a2.712,2.712,0,0,0,.856.832,4.1,4.1,0,0,0,1.152.48,5.164,5.164,0,0,0,1.272.16,5.973,5.973,0,0,0,2.216-.352,3.159,3.159,0,0,0,1.32-.912A3.055,3.055,0,0,0,29.112.7a5.061,5.061,0,0,0,.152-1.232Zm-4.1,6.32a1.633,1.633,0,0,1-.856-.216,1.678,1.678,0,0,1-.576-.568,2.54,2.54,0,0,1-.312-.784,4.2,4.2,0,0,1-.1-.912,2.888,2.888,0,0,1,.464-1.68,1.563,1.563,0,0,1,1.376-.672,1.9,1.9,0,0,1,.9.2,1.574,1.574,0,0,1,.6.552A2.546,2.546,0,0,1,27-5.224a4.421,4.421,0,0,1,.1.984,2.617,2.617,0,0,1-.5,1.616A1.684,1.684,0,0,1,25.168-1.952Z" transform="translate(-1.104 11.424)"/>
</svg>
