<svg xmlns="http://www.w3.org/2000/svg" width="141.47" height="52.36" viewBox="0 0 141.47 52.36">
  <path id="패스_74" data-name="패스 74" d="M15.82-22.26H27.79a8.935,8.935,0,0,1,5.81,1.715q2.1,1.715,2.1,5.425,0,3.57-2.205,5.075a10.332,10.332,0,0,1-5.915,1.5H15.82ZM4.83,0H29.05A24.739,24.739,0,0,0,35.7-.875a17.675,17.675,0,0,0,5.635-2.66,12.745,12.745,0,0,0,3.92-4.55A13.711,13.711,0,0,0,46.69-14.49a13.669,13.669,0,0,0-2.345-8.085A11.984,11.984,0,0,0,37.52-27.16q6.79-3.29,6.79-10.43,0-6.65-4.165-9.52t-11.8-2.87H4.83ZM15.82-41.44H26.11a10.712,10.712,0,0,1,5.495,1.225Q33.67-38.99,33.67-35.7a5.416,5.416,0,0,1-1.82,4.48,7.573,7.573,0,0,1-4.9,1.47H15.82ZM48.79,0H59.92l3.92-11.13H82.53L86.31,0H97.72L79.03-49.98H67.76ZM73.22-37.66h.14l6.3,18.34H66.71ZM139.3,0h7V-27.02h-21v8.19h11.06q-.49,5.25-3.535,8.015T124.46-8.05a13.044,13.044,0,0,1-6.16-1.365,11.7,11.7,0,0,1-4.235-3.745,16.681,16.681,0,0,1-2.415-5.355,24.912,24.912,0,0,1-.77-6.265,26.756,26.756,0,0,1,.77-6.51,17.018,17.018,0,0,1,2.38-5.46,11.626,11.626,0,0,1,4.235-3.78,12.983,12.983,0,0,1,6.195-1.4,10.9,10.9,0,0,1,6.825,2.17,10.38,10.38,0,0,1,3.745,6.23h10.5a19.089,19.089,0,0,0-2.275-7.455,18.024,18.024,0,0,0-4.76-5.565,21.633,21.633,0,0,0-6.545-3.43,23.953,23.953,0,0,0-7.49-1.19A25.445,25.445,0,0,0,114.2-49.175a21.851,21.851,0,0,0-7.77,5.6,24.98,24.98,0,0,0-4.865,8.435,31.319,31.319,0,0,0-1.68,10.36,30.276,30.276,0,0,0,1.68,10.15,24.342,24.342,0,0,0,4.865,8.295,22.262,22.262,0,0,0,7.77,5.53,25.445,25.445,0,0,0,10.255,2,17.537,17.537,0,0,0,7.42-1.645,16.8,16.8,0,0,0,6.3-5.215Z" transform="translate(-4.83 51.17)"/>
</svg>
