<svg xmlns="http://www.w3.org/2000/svg" width="54.545" height="11.647" viewBox="0 0 54.545 11.647">
  <path id="패스_68" data-name="패스 68" d="M3.616-5.088H6.352A2.042,2.042,0,0,1,7.68-4.7a1.509,1.509,0,0,1,.48,1.24,1.3,1.3,0,0,1-.5,1.16A2.362,2.362,0,0,1,6.3-1.952H3.616ZM1.1,0H6.64A5.655,5.655,0,0,0,8.16-.2,4.04,4.04,0,0,0,9.448-.808a2.913,2.913,0,0,0,.9-1.04,3.134,3.134,0,0,0,.328-1.464,3.124,3.124,0,0,0-.536-1.848,2.739,2.739,0,0,0-1.56-1.048,2.494,2.494,0,0,0,1.552-2.384,2.452,2.452,0,0,0-.952-2.176,4.716,4.716,0,0,0-2.7-.656H1.1ZM3.616-9.472H5.968a2.448,2.448,0,0,1,1.256.28A1.1,1.1,0,0,1,7.7-8.16,1.238,1.238,0,0,1,7.28-7.136,1.731,1.731,0,0,1,6.16-6.8H3.616Zm8.256,5.344A4.32,4.32,0,0,0,13.04-.968a4.149,4.149,0,0,0,3.1,1.192,4.17,4.17,0,0,0,3.12-1.192,4.32,4.32,0,0,0,1.168-3.16A4.342,4.342,0,0,0,19.264-7.3,4.17,4.17,0,0,0,16.144-8.5,4.149,4.149,0,0,0,13.04-7.3,4.342,4.342,0,0,0,11.872-4.128Zm2.272,0a4.638,4.638,0,0,1,.1-1,2.713,2.713,0,0,1,.336-.848,1.664,1.664,0,0,1,.624-.592,1.912,1.912,0,0,1,.936-.216,1.947,1.947,0,0,1,.952.216,1.664,1.664,0,0,1,.624.592,2.713,2.713,0,0,1,.336.848,4.638,4.638,0,0,1,.1,1,4.528,4.528,0,0,1-.1.992,2.719,2.719,0,0,1-.336.84A1.664,1.664,0,0,1,17.1-1.7a1.947,1.947,0,0,1-.952.216,1.912,1.912,0,0,1-.936-.216,1.664,1.664,0,0,1-.624-.592,2.719,2.719,0,0,1-.336-.84A4.528,4.528,0,0,1,14.144-4.128Zm10.64-6.624H22.512v2.48H21.136v1.52h1.376v4.88a2.155,2.155,0,0,0,.2.984,1.471,1.471,0,0,0,.56.608,2.365,2.365,0,0,0,.816.3A6.01,6.01,0,0,0,25.12.1a8.53,8.53,0,0,0,1.328-.08V-1.76a3.6,3.6,0,0,1-.7.064,1.112,1.112,0,0,1-.768-.192,1.112,1.112,0,0,1-.192-.768v-4.1h1.664v-1.52H24.784Zm5.632,0H28.144v2.48H26.768v1.52h1.376v4.88a2.155,2.155,0,0,0,.2.984,1.471,1.471,0,0,0,.56.608,2.365,2.365,0,0,0,.816.3A6.01,6.01,0,0,0,30.752.1,8.53,8.53,0,0,0,32.08.016V-1.76a3.6,3.6,0,0,1-.7.064,1.112,1.112,0,0,1-.768-.192,1.112,1.112,0,0,1-.192-.768v-4.1H32.08v-1.52H30.416Zm2.5,6.624A4.32,4.32,0,0,0,34.08-.968a4.149,4.149,0,0,0,3.1,1.192A4.17,4.17,0,0,0,40.3-.968a4.32,4.32,0,0,0,1.168-3.16A4.342,4.342,0,0,0,40.3-7.3,4.17,4.17,0,0,0,37.184-8.5,4.149,4.149,0,0,0,34.08-7.3,4.342,4.342,0,0,0,32.912-4.128Zm2.272,0a4.638,4.638,0,0,1,.1-1,2.713,2.713,0,0,1,.336-.848,1.664,1.664,0,0,1,.624-.592,1.912,1.912,0,0,1,.936-.216,1.947,1.947,0,0,1,.952.216,1.664,1.664,0,0,1,.624.592,2.713,2.713,0,0,1,.336.848,4.638,4.638,0,0,1,.1,1,4.529,4.529,0,0,1-.1.992,2.719,2.719,0,0,1-.336.84,1.664,1.664,0,0,1-.624.592,1.947,1.947,0,0,1-.952.216,1.912,1.912,0,0,1-.936-.216,1.664,1.664,0,0,1-.624-.592,2.719,2.719,0,0,1-.336-.84A4.529,4.529,0,0,1,35.184-4.128ZM43.008,0H45.28V-4.8a2.354,2.354,0,0,1,.168-.944,1.636,1.636,0,0,1,.408-.592,1.4,1.4,0,0,1,.5-.288,1.571,1.571,0,0,1,.464-.08,1.534,1.534,0,0,1,.76.16,1.014,1.014,0,0,1,.416.432,1.71,1.71,0,0,1,.168.608q.032.336.032.864V0h2.272V-4.608a4.64,4.64,0,0,1,.064-.808,2.07,2.07,0,0,1,.224-.648,1.212,1.212,0,0,1,.464-.464,1.515,1.515,0,0,1,.768-.176,1.61,1.61,0,0,1,.752.152.958.958,0,0,1,.424.424,1.833,1.833,0,0,1,.176.608,7.223,7.223,0,0,1,.04.832V0h2.272V-5.536a2.848,2.848,0,0,0-.808-2.248A3.235,3.235,0,0,0,52.624-8.5a2.731,2.731,0,0,0-1.456.392,3.342,3.342,0,0,0-1.04.984,2.136,2.136,0,0,0-.952-1.04A3.073,3.073,0,0,0,47.712-8.5a2.951,2.951,0,0,0-1.432.352,3.185,3.185,0,0,0-1.1.992h-.032v-1.12H43.008Z" transform="translate(-1.104 11.424)"/>
</svg>
