<svg xmlns="http://www.w3.org/2000/svg" width="297.57" height="52.36" viewBox="0 0 297.57 52.36">
  <path id="패스_69" data-name="패스 69" d="M15.82-22.26H27.79a8.935,8.935,0,0,1,5.81,1.715q2.1,1.715,2.1,5.425,0,3.57-2.205,5.075a10.332,10.332,0,0,1-5.915,1.5H15.82ZM4.83,0H29.05A24.739,24.739,0,0,0,35.7-.875a17.675,17.675,0,0,0,5.635-2.66,12.745,12.745,0,0,0,3.92-4.55A13.711,13.711,0,0,0,46.69-14.49a13.669,13.669,0,0,0-2.345-8.085A11.984,11.984,0,0,0,37.52-27.16q6.79-3.29,6.79-10.43,0-6.65-4.165-9.52t-11.8-2.87H4.83ZM15.82-41.44H26.11a10.712,10.712,0,0,1,5.495,1.225Q33.67-38.99,33.67-35.7a5.416,5.416,0,0,1-1.82,4.48,7.573,7.573,0,0,1-4.9,1.47H15.82ZM51.94-24.78a30.276,30.276,0,0,0,1.68,10.15,24.342,24.342,0,0,0,4.865,8.295,22.262,22.262,0,0,0,7.77,5.53,25.445,25.445,0,0,0,10.255,2,25.445,25.445,0,0,0,10.255-2A22.4,22.4,0,0,0,94.57-6.37a24.039,24.039,0,0,0,4.865-8.3A30.551,30.551,0,0,0,101.08-24.78a31.924,31.924,0,0,0-1.645-10.36,24.23,24.23,0,0,0-4.865-8.435,22.192,22.192,0,0,0-7.805-5.6A25.445,25.445,0,0,0,76.51-51.17a25.445,25.445,0,0,0-10.255,1.995,21.851,21.851,0,0,0-7.77,5.6A24.98,24.98,0,0,0,53.62-35.14,31.319,31.319,0,0,0,51.94-24.78Zm10.99,0a26.756,26.756,0,0,1,.77-6.51,17.018,17.018,0,0,1,2.38-5.46,11.626,11.626,0,0,1,4.235-3.78,12.983,12.983,0,0,1,6.195-1.4,12.983,12.983,0,0,1,6.195,1.4,11.626,11.626,0,0,1,4.235,3.78,17.018,17.018,0,0,1,2.38,5.46,26.756,26.756,0,0,1,.77,6.51,24.912,24.912,0,0,1-.77,6.265,16.706,16.706,0,0,1-2.38,5.32A11.748,11.748,0,0,1,82.705-9.45a12.983,12.983,0,0,1-6.195,1.4,13.044,13.044,0,0,1-6.16-1.365,11.7,11.7,0,0,1-4.235-3.745A16.681,16.681,0,0,1,63.7-18.515,24.912,24.912,0,0,1,62.93-24.78ZM119.63,0h10.99V-40.74H145.6v-9.24H104.65v9.24h14.98ZM162.4,0h10.99V-40.74h14.98v-9.24H147.42v9.24H162.4Zm29.54-24.78a30.276,30.276,0,0,0,1.68,10.15,24.342,24.342,0,0,0,4.865,8.295,22.262,22.262,0,0,0,7.77,5.53,25.445,25.445,0,0,0,10.255,2,25.445,25.445,0,0,0,10.255-2A22.4,22.4,0,0,0,234.57-6.37a24.039,24.039,0,0,0,4.865-8.3A30.551,30.551,0,0,0,241.08-24.78a31.925,31.925,0,0,0-1.645-10.36,24.23,24.23,0,0,0-4.865-8.435,22.192,22.192,0,0,0-7.805-5.6A25.446,25.446,0,0,0,216.51-51.17a25.445,25.445,0,0,0-10.255,1.995,21.851,21.851,0,0,0-7.77,5.6,24.98,24.98,0,0,0-4.865,8.435A31.319,31.319,0,0,0,191.94-24.78Zm10.99,0a26.756,26.756,0,0,1,.77-6.51,17.018,17.018,0,0,1,2.38-5.46,11.626,11.626,0,0,1,4.235-3.78,12.983,12.983,0,0,1,6.195-1.4,12.983,12.983,0,0,1,6.2,1.4,11.626,11.626,0,0,1,4.235,3.78,17.018,17.018,0,0,1,2.38,5.46,26.757,26.757,0,0,1,.77,6.51,24.912,24.912,0,0,1-.77,6.265,16.706,16.706,0,0,1-2.38,5.32,11.748,11.748,0,0,1-4.235,3.745,12.983,12.983,0,0,1-6.2,1.4,13.044,13.044,0,0,1-6.16-1.365,11.7,11.7,0,0,1-4.235-3.745,16.681,16.681,0,0,1-2.415-5.355A24.912,24.912,0,0,1,202.93-24.78ZM248.57,0h10.29V-35.07H259L271.25,0h8.47l12.25-35.42h.14V0H302.4V-49.98H286.93L275.87-15.61h-.14L264.04-49.98H248.57Z" transform="translate(-4.83 51.17)"/>
</svg>
