<svg xmlns="http://www.w3.org/2000/svg" width="113.793" height="14.56" viewBox="0 0 113.793 14.56">
  <path id="패스_205" data-name="패스 205" d="M3.616-5.088H6.352A2.042,2.042,0,0,1,7.68-4.7a1.509,1.509,0,0,1,.48,1.24,1.3,1.3,0,0,1-.5,1.16A2.362,2.362,0,0,1,6.3-1.952H3.616ZM1.1,0H6.64A5.655,5.655,0,0,0,8.16-.2,4.04,4.04,0,0,0,9.448-.808a2.913,2.913,0,0,0,.9-1.04,3.134,3.134,0,0,0,.328-1.464,3.124,3.124,0,0,0-.536-1.848,2.739,2.739,0,0,0-1.56-1.048,2.494,2.494,0,0,0,1.552-2.384,2.452,2.452,0,0,0-.952-2.176,4.716,4.716,0,0,0-2.7-.656H1.1ZM3.616-9.472H5.968a2.448,2.448,0,0,1,1.256.28A1.1,1.1,0,0,1,7.7-8.16,1.238,1.238,0,0,1,7.28-7.136,1.731,1.731,0,0,1,6.16-6.8H3.616Zm16.272,1.2H17.616v4.336A3.069,3.069,0,0,1,17.2-2.12a1.574,1.574,0,0,1-1.344.552,1.257,1.257,0,0,1-1.112-.5A2.727,2.727,0,0,1,14.4-3.6V-8.272H12.128v5.088a6.583,6.583,0,0,0,.136,1.424A2.663,2.663,0,0,0,12.744-.7a2.183,2.183,0,0,0,.936.688,3.936,3.936,0,0,0,1.472.24,3.073,3.073,0,0,0,1.432-.352,2.768,2.768,0,0,0,1.1-1.024h.048V0h2.16Zm4.608-2.48H22.224v2.48H20.848v1.52h1.376v4.88a2.155,2.155,0,0,0,.2.984,1.471,1.471,0,0,0,.56.608,2.365,2.365,0,0,0,.816.3A6.01,6.01,0,0,0,24.832.1,8.53,8.53,0,0,0,26.16.016V-1.76a3.6,3.6,0,0,1-.7.064,1.112,1.112,0,0,1-.768-.192,1.112,1.112,0,0,1-.192-.768v-4.1H26.16v-1.52H24.5ZM27.312,0h2.272V-11.424H27.312Zm11.9-3.584v-.208a1.7,1.7,0,0,0,.016-.192,5.579,5.579,0,0,0-.264-1.728,4.444,4.444,0,0,0-.768-1.44,3.555,3.555,0,0,0-1.264-.984A4.009,4.009,0,0,0,35.2-8.5a4.392,4.392,0,0,0-1.712.328,3.894,3.894,0,0,0-1.344.92,4.142,4.142,0,0,0-.864,1.392,4.825,4.825,0,0,0-.3,1.728,5.055,5.055,0,0,0,.3,1.752A4,4,0,0,0,32.12-.984a3.687,3.687,0,0,0,1.336.9A4.679,4.679,0,0,0,35.2.224a4.161,4.161,0,0,0,2.424-.68,3.929,3.929,0,0,0,1.448-2.1h-2a1.333,1.333,0,0,1-.624.744,2.118,2.118,0,0,1-1.168.328A1.992,1.992,0,0,1,33.808-2a2.313,2.313,0,0,1-.56-1.584Zm-5.968-1.44a2.276,2.276,0,0,1,.112-.568,1.737,1.737,0,0,1,.32-.568,1.722,1.722,0,0,1,.584-.448,1.971,1.971,0,0,1,.872-.176,1.639,1.639,0,0,1,1.224.432,2.481,2.481,0,0,1,.584,1.328ZM40.56,0h2.272V-3.728a3.177,3.177,0,0,1,.536-1.928,1.975,1.975,0,0,1,1.7-.728,4.284,4.284,0,0,1,.44.024,3.42,3.42,0,0,1,.376.056V-8.416a1.558,1.558,0,0,0-.5-.08,2.831,2.831,0,0,0-1.584.5,2.681,2.681,0,0,0-1.056,1.264H42.72V-8.272H40.56ZM51.232,2.912H53.5V-1.024h.032A2.6,2.6,0,0,0,54.6-.1a3.22,3.22,0,0,0,1.416.32,3.409,3.409,0,0,0,1.56-.344,3.326,3.326,0,0,0,1.144-.944,4.2,4.2,0,0,0,.7-1.368,5.558,5.558,0,0,0,.232-1.616,6.145,6.145,0,0,0-.232-1.7,4.325,4.325,0,0,0-.7-1.424,3.254,3.254,0,0,0-1.176-.968A3.693,3.693,0,0,0,55.888-8.5a3.139,3.139,0,0,0-1.424.32,2.566,2.566,0,0,0-1.04.96h-.032V-8.272h-2.16Zm4.176-4.4A1.831,1.831,0,0,1,54.5-1.7a1.77,1.77,0,0,1-.624-.584,2.515,2.515,0,0,1-.344-.832,4.529,4.529,0,0,1-.1-.992,4.717,4.717,0,0,1,.1-1.016,2.713,2.713,0,0,1,.336-.848,1.681,1.681,0,0,1,.616-.592,1.831,1.831,0,0,1,.912-.216,1.779,1.779,0,0,1,.912.224,1.725,1.725,0,0,1,.616.608,2.969,2.969,0,0,1,.344.856,4.248,4.248,0,0,1,.112.984,4.607,4.607,0,0,1-.1,1.008,2.527,2.527,0,0,1-.336.824,1.748,1.748,0,0,1-.608.576A1.82,1.82,0,0,1,55.408-1.488ZM61.008,0H63.28V-3.728a3.177,3.177,0,0,1,.536-1.928,1.975,1.975,0,0,1,1.7-.728,4.284,4.284,0,0,1,.44.024,3.42,3.42,0,0,1,.376.056V-8.416a1.558,1.558,0,0,0-.5-.08,2.831,2.831,0,0,0-1.584.5A2.681,2.681,0,0,0,63.2-6.736h-.032V-8.272h-2.16Zm5.968-4.128a4.32,4.32,0,0,0,1.168,3.16,4.149,4.149,0,0,0,3.1,1.192,4.17,4.17,0,0,0,3.12-1.192,4.32,4.32,0,0,0,1.168-3.16A4.342,4.342,0,0,0,74.368-7.3,4.17,4.17,0,0,0,71.248-8.5a4.149,4.149,0,0,0-3.1,1.192A4.342,4.342,0,0,0,66.976-4.128Zm2.272,0a4.638,4.638,0,0,1,.1-1,2.713,2.713,0,0,1,.336-.848,1.664,1.664,0,0,1,.624-.592,1.912,1.912,0,0,1,.936-.216,1.947,1.947,0,0,1,.952.216,1.664,1.664,0,0,1,.624.592,2.713,2.713,0,0,1,.336.848,4.638,4.638,0,0,1,.1,1,4.528,4.528,0,0,1-.1.992,2.719,2.719,0,0,1-.336.84A1.664,1.664,0,0,1,72.2-1.7a1.947,1.947,0,0,1-.952.216,1.912,1.912,0,0,1-.936-.216,1.664,1.664,0,0,1-.624-.592,2.719,2.719,0,0,1-.336-.84A4.528,4.528,0,0,1,69.248-4.128ZM84.96-8.272H82.8v1.1h-.032A2.465,2.465,0,0,0,81.76-8.184,3.154,3.154,0,0,0,80.3-8.5a3.37,3.37,0,0,0-1.512.328,3.241,3.241,0,0,0-1.12.9,4.058,4.058,0,0,0-.688,1.312A5.132,5.132,0,0,0,76.752-4.4a6.1,6.1,0,0,0,.208,1.632,3.851,3.851,0,0,0,.64,1.32,2.948,2.948,0,0,0,1.112.888,3.663,3.663,0,0,0,1.576.32,3.29,3.29,0,0,0,1.448-.328,2.3,2.3,0,0,0,1.032-.952H82.8V-.432a2.278,2.278,0,0,1-.456,1.5,1.672,1.672,0,0,1-1.368.552,2.142,2.142,0,0,1-1.1-.264A1.3,1.3,0,0,1,79.28.48H77.024a2.316,2.316,0,0,0,.368,1.184,2.712,2.712,0,0,0,.856.832,4.1,4.1,0,0,0,1.152.48,5.164,5.164,0,0,0,1.272.16,5.973,5.973,0,0,0,2.216-.352,3.159,3.159,0,0,0,1.32-.912A3.055,3.055,0,0,0,84.808.7,5.061,5.061,0,0,0,84.96-.528Zm-4.1,6.32a1.633,1.633,0,0,1-.856-.216,1.678,1.678,0,0,1-.576-.568,2.54,2.54,0,0,1-.312-.784,4.2,4.2,0,0,1-.1-.912,2.888,2.888,0,0,1,.464-1.68,1.563,1.563,0,0,1,1.376-.672,1.9,1.9,0,0,1,.9.2,1.574,1.574,0,0,1,.6.552,2.546,2.546,0,0,1,.328.808,4.421,4.421,0,0,1,.1.984,2.617,2.617,0,0,1-.5,1.616A1.684,1.684,0,0,1,80.864-1.952ZM86.784,0h2.272V-3.728a3.177,3.177,0,0,1,.536-1.928,1.975,1.975,0,0,1,1.7-.728,4.284,4.284,0,0,1,.44.024,3.42,3.42,0,0,1,.376.056V-8.416a1.558,1.558,0,0,0-.5-.08,2.831,2.831,0,0,0-1.584.5,2.681,2.681,0,0,0-1.056,1.264h-.032V-8.272h-2.16ZM98.16-3.2a3.55,3.55,0,0,1-.048.568,1.843,1.843,0,0,1-.224.608,1.365,1.365,0,0,1-.56.52A2.114,2.114,0,0,1,96.32-1.3,1.923,1.923,0,0,1,95.3-1.528a.89.89,0,0,1-.376-.824.963.963,0,0,1,.352-.824,2.453,2.453,0,0,1,.992-.392l.544-.08q.528-.08.84-.16a1.268,1.268,0,0,0,.5-.24ZM95.184-5.728a1.3,1.3,0,0,1,.448-.952,1.69,1.69,0,0,1,1.056-.3,2.178,2.178,0,0,1,1.088.224.95.95,0,0,1,.384.9.673.673,0,0,1-.464.688,7.041,7.041,0,0,1-1.488.3q-.416.048-.736.1a6.965,6.965,0,0,0-1.088.224,3.061,3.061,0,0,0-.872.416,1.921,1.921,0,0,0-.624.736,2.522,2.522,0,0,0-.232,1.136A2.234,2.234,0,0,0,93.44-.408a3.137,3.137,0,0,0,2.032.632,4.756,4.756,0,0,0,1.544-.248A3.084,3.084,0,0,0,98.256-.8a3.116,3.116,0,0,0,.16.8h2.3a2.042,2.042,0,0,1-.216-.728,7.684,7.684,0,0,1-.072-1.112v-4.3a2.049,2.049,0,0,0-.32-1.176,2.137,2.137,0,0,0-.84-.728A3.927,3.927,0,0,0,98.12-8.4a8.784,8.784,0,0,0-1.32-.1,6.965,6.965,0,0,0-1.4.136,3.889,3.889,0,0,0-1.216.464,2.6,2.6,0,0,0-.888.864,2.739,2.739,0,0,0-.384,1.3ZM102.256,0h2.272V-4.8a2.354,2.354,0,0,1,.168-.944,1.636,1.636,0,0,1,.408-.592,1.4,1.4,0,0,1,.5-.288,1.571,1.571,0,0,1,.464-.08,1.534,1.534,0,0,1,.76.16,1.014,1.014,0,0,1,.416.432,1.71,1.71,0,0,1,.168.608q.032.336.032.864V0h2.272V-4.608a4.64,4.64,0,0,1,.064-.808A2.07,2.07,0,0,1,110-6.064a1.212,1.212,0,0,1,.464-.464,1.515,1.515,0,0,1,.768-.176,1.61,1.61,0,0,1,.752.152.958.958,0,0,1,.424.424,1.833,1.833,0,0,1,.176.608,7.223,7.223,0,0,1,.04.832V0H114.9V-5.536a2.848,2.848,0,0,0-.808-2.248,3.235,3.235,0,0,0-2.216-.712,2.731,2.731,0,0,0-1.456.392,3.342,3.342,0,0,0-1.04.984,2.136,2.136,0,0,0-.952-1.04A3.073,3.073,0,0,0,106.96-8.5a2.951,2.951,0,0,0-1.432.352,3.185,3.185,0,0,0-1.1.992H104.4v-1.12h-2.144Z" transform="translate(-1.104 11.424)"/>
</svg>
