<svg xmlns="http://www.w3.org/2000/svg" width="32.063" height="11.969" viewBox="0 0 32.063 11.969">
  <path id="패스_58" data-name="패스 58" d="M11.152-7.584a4.673,4.673,0,0,0-.536-1.744,4.276,4.276,0,0,0-1.088-1.3,4.723,4.723,0,0,0-1.512-.8A5.832,5.832,0,0,0,6.224-11.7a5.816,5.816,0,0,0-2.344.456A4.994,4.994,0,0,0,2.1-9.96,5.71,5.71,0,0,0,.992-8.032,7.159,7.159,0,0,0,.608-5.664a6.92,6.92,0,0,0,.384,2.32A5.564,5.564,0,0,0,2.1-1.448,5.088,5.088,0,0,0,3.88-.184,5.816,5.816,0,0,0,6.224.272a5.456,5.456,0,0,0,1.92-.328A4.614,4.614,0,0,0,9.688-1a4.67,4.67,0,0,0,1.064-1.48,5.782,5.782,0,0,0,.5-1.92H8.816a3.178,3.178,0,0,1-.808,1.864,2.35,2.35,0,0,1-1.784.7,2.982,2.982,0,0,1-1.408-.312,2.674,2.674,0,0,1-.968-.856A3.813,3.813,0,0,1,3.3-4.232,5.694,5.694,0,0,1,3.12-5.664,6.116,6.116,0,0,1,3.3-7.152,3.89,3.89,0,0,1,3.84-8.4a2.657,2.657,0,0,1,.968-.864,2.967,2.967,0,0,1,1.416-.32,2.587,2.587,0,0,1,1.664.576A2.136,2.136,0,0,1,8.72-7.584ZM17.872-3.2a3.55,3.55,0,0,1-.048.568,1.843,1.843,0,0,1-.224.608,1.365,1.365,0,0,1-.56.52,2.114,2.114,0,0,1-1.008.208,1.923,1.923,0,0,1-1.016-.232.89.89,0,0,1-.376-.824.963.963,0,0,1,.352-.824,2.453,2.453,0,0,1,.992-.392l.544-.08q.528-.08.84-.16a1.268,1.268,0,0,0,.5-.24ZM14.9-5.728a1.3,1.3,0,0,1,.448-.952,1.69,1.69,0,0,1,1.056-.3,2.178,2.178,0,0,1,1.088.224.95.95,0,0,1,.384.9.673.673,0,0,1-.464.688,7.041,7.041,0,0,1-1.488.3q-.416.048-.736.1a6.965,6.965,0,0,0-1.088.224,3.061,3.061,0,0,0-.872.416,1.921,1.921,0,0,0-.624.736,2.522,2.522,0,0,0-.232,1.136,2.234,2.234,0,0,0,.784,1.848,3.137,3.137,0,0,0,2.032.632,4.756,4.756,0,0,0,1.544-.248A3.084,3.084,0,0,0,17.968-.8a3.116,3.116,0,0,0,.16.8h2.3a2.042,2.042,0,0,1-.216-.728,7.683,7.683,0,0,1-.072-1.112v-4.3a2.049,2.049,0,0,0-.32-1.176,2.137,2.137,0,0,0-.84-.728A3.927,3.927,0,0,0,17.832-8.4a8.784,8.784,0,0,0-1.32-.1,6.965,6.965,0,0,0-1.4.136A3.889,3.889,0,0,0,13.9-7.9a2.6,2.6,0,0,0-.888.864,2.739,2.739,0,0,0-.384,1.3ZM21.9,0h2.272V-3.728a3.177,3.177,0,0,1,.536-1.928,1.975,1.975,0,0,1,1.7-.728,4.284,4.284,0,0,1,.44.024,3.42,3.42,0,0,1,.376.056V-8.416a1.558,1.558,0,0,0-.5-.08,2.831,2.831,0,0,0-1.584.5A2.681,2.681,0,0,0,24.1-6.736h-.032V-8.272H21.9Zm9.1-10.752H28.736v2.48H27.36v1.52h1.376v4.88a2.155,2.155,0,0,0,.2.984,1.471,1.471,0,0,0,.56.608,2.365,2.365,0,0,0,.816.3A6.01,6.01,0,0,0,31.344.1a8.53,8.53,0,0,0,1.328-.08V-1.76a3.6,3.6,0,0,1-.7.064,1.112,1.112,0,0,1-.768-.192,1.112,1.112,0,0,1-.192-.768v-4.1h1.664v-1.52H31.008Z" transform="translate(-0.608 11.696)" fill="#fff"/>
</svg>
