<svg xmlns="http://www.w3.org/2000/svg" width="30.06" height="11.22" viewBox="0 0 30.06 11.22">
  <path id="패스_214" data-name="패스 214" d="M10.455-7.11a4.381,4.381,0,0,0-.5-1.635A4.009,4.009,0,0,0,8.933-9.96a4.428,4.428,0,0,0-1.418-.75,5.467,5.467,0,0,0-1.68-.255,5.453,5.453,0,0,0-2.2.427,4.682,4.682,0,0,0-1.665,1.2A5.353,5.353,0,0,0,.93-7.53,6.711,6.711,0,0,0,.57-5.31,6.488,6.488,0,0,0,.93-3.135,5.216,5.216,0,0,0,1.973-1.358,4.77,4.77,0,0,0,3.638-.173a5.453,5.453,0,0,0,2.2.428,5.115,5.115,0,0,0,1.8-.308A4.325,4.325,0,0,0,9.083-.937a4.378,4.378,0,0,0,1-1.388,5.42,5.42,0,0,0,.465-1.8H8.265a2.979,2.979,0,0,1-.758,1.747,2.2,2.2,0,0,1-1.672.653,2.8,2.8,0,0,1-1.32-.293,2.507,2.507,0,0,1-.908-.8A3.575,3.575,0,0,1,3.09-3.968,5.338,5.338,0,0,1,2.925-5.31a5.733,5.733,0,0,1,.165-1.4,3.647,3.647,0,0,1,.51-1.17,2.491,2.491,0,0,1,.908-.81,2.782,2.782,0,0,1,1.328-.3,2.426,2.426,0,0,1,1.56.54,2,2,0,0,1,.78,1.335ZM16.755-3a3.328,3.328,0,0,1-.045.532,1.728,1.728,0,0,1-.21.57,1.279,1.279,0,0,1-.525.488,1.982,1.982,0,0,1-.945.2,1.8,1.8,0,0,1-.953-.218.834.834,0,0,1-.352-.772.9.9,0,0,1,.33-.773,2.3,2.3,0,0,1,.93-.367l.51-.075q.495-.075.787-.15a1.189,1.189,0,0,0,.473-.225Zm-2.79-2.37a1.215,1.215,0,0,1,.42-.892,1.585,1.585,0,0,1,.99-.278,2.042,2.042,0,0,1,1.02.21.89.89,0,0,1,.36.84.631.631,0,0,1-.435.645,6.6,6.6,0,0,1-1.395.285q-.39.045-.69.09a6.53,6.53,0,0,0-1.02.21,2.87,2.87,0,0,0-.818.39,1.8,1.8,0,0,0-.585.69,2.364,2.364,0,0,0-.218,1.065A2.094,2.094,0,0,0,12.33-.383a2.941,2.941,0,0,0,1.9.593,4.458,4.458,0,0,0,1.448-.233A2.891,2.891,0,0,0,16.845-.75a2.922,2.922,0,0,0,.15.75h2.16a1.914,1.914,0,0,1-.2-.683,7.2,7.2,0,0,1-.067-1.042V-5.76a1.921,1.921,0,0,0-.3-1.1,2,2,0,0,0-.787-.682,3.681,3.681,0,0,0-1.08-.33,8.235,8.235,0,0,0-1.238-.09,6.53,6.53,0,0,0-1.312.127,3.646,3.646,0,0,0-1.14.435,2.436,2.436,0,0,0-.833.81,2.568,2.568,0,0,0-.36,1.223ZM20.535,0h2.13V-3.5a2.979,2.979,0,0,1,.5-1.808,1.851,1.851,0,0,1,1.6-.682,4.017,4.017,0,0,1,.412.023,3.206,3.206,0,0,1,.353.052V-7.89a1.461,1.461,0,0,0-.465-.075A2.654,2.654,0,0,0,23.58-7.5a2.513,2.513,0,0,0-.99,1.185h-.03v-1.44H20.535ZM29.07-10.08H26.94v2.325H25.65V-6.33h1.29v4.575a2.02,2.02,0,0,0,.187.923,1.379,1.379,0,0,0,.525.57,2.217,2.217,0,0,0,.765.277,5.634,5.634,0,0,0,.968.075A8,8,0,0,0,30.63.015V-1.65a3.371,3.371,0,0,1-.66.06,1.042,1.042,0,0,1-.72-.18,1.042,1.042,0,0,1-.18-.72V-6.33h1.56V-7.755H29.07Z" transform="translate(-0.57 10.965)" fill="#525252"/>
</svg>
