<svg xmlns="http://www.w3.org/2000/svg" width="48.763" height="14.364" viewBox="0 0 48.763 14.364">
  <path id="패스_58" data-name="패스 58" d="M13.248-.18l-1.6-1.458a6.456,6.456,0,0,0,1.242-2.133,7.707,7.707,0,0,0,.432-2.6A8.209,8.209,0,0,0,12.9-9.036,6.231,6.231,0,0,0,11.646-11.2a5.707,5.707,0,0,0-2.007-1.44A6.543,6.543,0,0,0,7-13.158a6.543,6.543,0,0,0-2.637.513,5.619,5.619,0,0,0-2,1.44A6.424,6.424,0,0,0,1.116-9.036,8.053,8.053,0,0,0,.684-6.372a7.785,7.785,0,0,0,.432,2.61A6.259,6.259,0,0,0,2.367-1.629a5.724,5.724,0,0,0,2,1.422A6.543,6.543,0,0,0,7,.306,6.139,6.139,0,0,0,10.116-.45l1.818,1.656ZM6.93-3.348l1.206,1.1a.648.648,0,0,1-.405.153Q7.452-2.07,7-2.07a3.354,3.354,0,0,1-1.584-.351,3.009,3.009,0,0,1-1.089-.963,4.289,4.289,0,0,1-.621-1.377,6.406,6.406,0,0,1-.2-1.611,6.88,6.88,0,0,1,.2-1.674,4.376,4.376,0,0,1,.612-1.4,2.99,2.99,0,0,1,1.089-.972A3.338,3.338,0,0,1,7-10.782a3.338,3.338,0,0,1,1.593.36,2.99,2.99,0,0,1,1.089.972,4.376,4.376,0,0,1,.612,1.4,6.88,6.88,0,0,1,.2,1.674A4.947,4.947,0,0,1,9.7-3.42L8.244-4.752ZM23.706-9.306H21.15v4.878a3.452,3.452,0,0,1-.468,2.043,1.771,1.771,0,0,1-1.512.621,1.414,1.414,0,0,1-1.251-.558,3.068,3.068,0,0,1-.387-1.728V-9.306H14.976v5.724a7.406,7.406,0,0,0,.153,1.6,3,3,0,0,0,.54,1.188,2.455,2.455,0,0,0,1.053.774,4.428,4.428,0,0,0,1.656.27,3.457,3.457,0,0,0,1.611-.4A3.114,3.114,0,0,0,21.222-1.3h.054V0h2.43ZM25.722,0h2.556V-9.306H25.722Zm2.556-12.852H25.722v2.106h2.556ZM30.366,0h2.556V-12.852H30.366Zm7.812-12.1H35.622v2.79H34.074V-7.6h1.548v5.49A2.424,2.424,0,0,0,35.847-1a1.655,1.655,0,0,0,.63.684A2.66,2.66,0,0,0,37.4.018a6.761,6.761,0,0,0,1.161.09A9.6,9.6,0,0,0,40.05.018v-2a4.046,4.046,0,0,1-.792.072,1.251,1.251,0,0,1-.864-.216,1.251,1.251,0,0,1-.216-.864V-7.6H40.05v-1.71H38.178Zm2.646,9.072a3.264,3.264,0,0,0,.4,1.521A2.924,2.924,0,0,0,42.21-.477a4.321,4.321,0,0,0,1.368.558A7.332,7.332,0,0,0,45.2.252,7.125,7.125,0,0,0,46.791.081a4.346,4.346,0,0,0,1.35-.549,2.748,2.748,0,0,0,.954-1.008,3.062,3.062,0,0,0,.351-1.512,2.273,2.273,0,0,0-.234-1.062,2.022,2.022,0,0,0-.648-.738,4.152,4.152,0,0,0-.918-.477A8.627,8.627,0,0,0,46.494-5.6q-.2-.054-.7-.162a9.228,9.228,0,0,1-1.656-.468.786.786,0,0,1-.54-.756.677.677,0,0,1,.414-.684,2.524,2.524,0,0,1,1.008-.18,2.36,2.36,0,0,1,1.233.279,1.167,1.167,0,0,1,.513.981h2.43a3.2,3.2,0,0,0-.423-1.4,2.688,2.688,0,0,0-.918-.918,4.154,4.154,0,0,0-1.26-.495,6.969,6.969,0,0,0-1.5-.153,7.657,7.657,0,0,0-1.521.144,4.229,4.229,0,0,0-1.287.477,2.41,2.41,0,0,0-.909.927,2.9,2.9,0,0,0-.333,1.44,2.009,2.009,0,0,0,.243,1.017,2.1,2.1,0,0,0,.657.7,3.892,3.892,0,0,0,.909.45,10.512,10.512,0,0,0,1.143.315,13.567,13.567,0,0,1,2.25.621.892.892,0,0,1,.648.819.964.964,0,0,1-.5.9,2.317,2.317,0,0,1-1.17.288,2.374,2.374,0,0,1-1.386-.387,1.379,1.379,0,0,1-.576-1.179Z" transform="translate(-0.684 13.158)"/>
</svg>
