<svg xmlns="http://www.w3.org/2000/svg" width="287.46" height="64.26" viewBox="0 0 287.46 64.26">
  <path id="패스_77" data-name="패스 77" d="M6.21,0H33.93A31.6,31.6,0,0,0,46.62-2.385a24.5,24.5,0,0,0,9.18-6.8,29.094,29.094,0,0,0,5.49-10.305,44.393,44.393,0,0,0,1.8-13.005q0-15.48-8.055-23.625T33.93-64.26H6.21ZM20.34-52.38H30.42q10.08,0,14.31,5.445t4.23,15.8a26.937,26.937,0,0,1-1.305,8.865,16,16,0,0,1-3.555,6.03,13.607,13.607,0,0,1-5.085,3.33A17.578,17.578,0,0,1,32.94-11.88H20.34ZM72.9,0h48.78V-11.88H87.03V-27.63h31.14V-38.61H87.03V-52.38h33.93V-64.26H72.9Zm58.32,0h13.23V-43.02h.18L171.36,0h14.13V-64.26H172.26v43.11h-.18L145.26-64.26H131.22Zm66.69,0h14.13V-64.26H197.91Zm26.55,0h13.23V-45.09h.18L253.62,0h10.89l15.75-45.54h.18V0h13.23V-64.26H273.78L259.56-20.07h-.18L244.35-64.26H224.46Z" transform="translate(-6.21 64.26)" fill="#fff"/>
</svg>
