<svg xmlns="http://www.w3.org/2000/svg" width="324.45" height="71.82" viewBox="0 0 324.45 71.82">
  <path id="패스_75" data-name="패스 75" d="M66.24-.9,58.23-8.19a32.282,32.282,0,0,0,6.21-10.665,38.537,38.537,0,0,0,2.16-13,41.046,41.046,0,0,0-2.115-13.32A31.153,31.153,0,0,0,58.23-56.025a28.532,28.532,0,0,0-10.035-7.2A32.716,32.716,0,0,0,35.01-65.79a32.716,32.716,0,0,0-13.185,2.565,28.094,28.094,0,0,0-9.99,7.2A32.118,32.118,0,0,0,5.58-45.18,40.267,40.267,0,0,0,3.42-31.86,38.926,38.926,0,0,0,5.58-18.81,31.3,31.3,0,0,0,11.835-8.145a28.622,28.622,0,0,0,9.99,7.11A32.715,32.715,0,0,0,35.01,1.53,30.7,30.7,0,0,0,50.58-2.25l9.09,8.28ZM34.65-16.74l6.03,5.49a3.239,3.239,0,0,1-2.025.765q-1.4.135-3.645.135a16.771,16.771,0,0,1-7.92-1.755,15.043,15.043,0,0,1-5.445-4.815,21.447,21.447,0,0,1-3.105-6.885,32.029,32.029,0,0,1-.99-8.055,34.4,34.4,0,0,1,.99-8.37,21.88,21.88,0,0,1,3.06-7.02,14.948,14.948,0,0,1,5.445-4.86,16.692,16.692,0,0,1,7.965-1.8,16.692,16.692,0,0,1,7.965,1.8,14.948,14.948,0,0,1,5.445,4.86,21.88,21.88,0,0,1,3.06,7.02,34.4,34.4,0,0,1,.99,8.37q0,9.27-3.96,14.76l-7.29-6.66Zm96.12-47.52H116.64V-24.3q0,7.38-2.97,10.665T103.32-10.35a17.281,17.281,0,0,1-6.705-1.125,9.646,9.646,0,0,1-4.1-3.06A10.84,10.84,0,0,1,90.585-18.9a27.127,27.127,0,0,1-.5-5.4V-64.26H75.96V-24.3q0,12.87,7.11,19.35t20.25,6.48q13.14,0,20.295-6.525T130.77-24.3ZM142.92,0h14.13V-64.26H142.92Zm26.55,0h45.45V-11.88H183.6V-64.26H169.47Zm67.59,0h14.13V-52.38h19.26V-64.26H217.8v11.88h19.26Zm36.72-21.33a22.169,22.169,0,0,0,2.2,10.125,20.1,20.1,0,0,0,6.03,7.2A26.168,26.168,0,0,0,290.745.18,39.013,39.013,0,0,0,301.14,1.53q12.69,0,19.71-5.715a18.3,18.3,0,0,0,7.02-14.9,16.517,16.517,0,0,0-1.98-8.325,16.276,16.276,0,0,0-4.95-5.49,26.213,26.213,0,0,0-5.67-3.015,58.528,58.528,0,0,0-5.94-1.8,1.7,1.7,0,0,1-.54-.09,7.552,7.552,0,0,0-1.44-.36q-6.75-1.71-9.72-2.61a35.322,35.322,0,0,1-4.77-1.755,5.885,5.885,0,0,1-2.52-1.98,5.536,5.536,0,0,1-.72-3.015,6.03,6.03,0,0,1,2.88-5.49,12.641,12.641,0,0,1,6.84-1.8q5.67,0,9.045,2.16t3.645,7.56h13.68a19.946,19.946,0,0,0-2.07-9.36,18.082,18.082,0,0,0-5.625-6.48,24.29,24.29,0,0,0-8.19-3.69,40.144,40.144,0,0,0-9.855-1.17,31.943,31.943,0,0,0-8.775,1.215,25.515,25.515,0,0,0-7.74,3.645,17.9,17.9,0,0,0-5.49,6.12,17.3,17.3,0,0,0-2.025,8.46,16.241,16.241,0,0,0,1.575,7.425,14.728,14.728,0,0,0,4.23,5.13,24.01,24.01,0,0,0,5.895,3.285,78.524,78.524,0,0,0,7.47,2.43q1.53.36,4.14,1.08,3.96.9,6.3,1.62a25.48,25.48,0,0,1,4.32,1.755,9.579,9.579,0,0,1,3.15,2.52,5.708,5.708,0,0,1,1.17,3.645,6.383,6.383,0,0,1-1.17,3.915,7.968,7.968,0,0,1-3.1,2.475,15.877,15.877,0,0,1-4.05,1.26,24.905,24.905,0,0,1-4.185.36,16.878,16.878,0,0,1-10.215-2.925Q287.46-15.3,287.46-21.33Z" transform="translate(-3.42 65.79)" fill="#fff"/>
</svg>
