<svg xmlns="http://www.w3.org/2000/svg" width="232.12" height="52.36" viewBox="0 0 232.12 52.36">
  <path id="패스_70" data-name="패스 70" d="M4.83,0H26.39a24.58,24.58,0,0,0,9.87-1.855A19.059,19.059,0,0,0,43.4-7.14a22.629,22.629,0,0,0,4.27-8.015,34.528,34.528,0,0,0,1.4-10.115q0-12.04-6.265-18.375T26.39-49.98H4.83ZM15.82-40.74h7.84q7.84,0,11.13,4.235T38.08-24.22a20.951,20.951,0,0,1-1.015,6.9,12.445,12.445,0,0,1-2.765,4.69,10.583,10.583,0,0,1-3.955,2.59,13.672,13.672,0,0,1-4.725.805h-9.8ZM56.7,0H67.69V-19.53H78.68q4.06,0,5.915,1.75t2.415,5.81q.21,1.4.42,4.06.21,2.87.455,4.69A11.594,11.594,0,0,0,88.76,0H99.75a9.779,9.779,0,0,1-1.435-4.06q-.385-2.52-.6-6.09-.07-1.4-.07-1.68a18.643,18.643,0,0,0-1.925-7.6,8.066,8.066,0,0,0-5.355-4.1v-.14a11.768,11.768,0,0,0,5.985-4.795A14.69,14.69,0,0,0,98.28-36.19a14.025,14.025,0,0,0-1.015-5.355,13.287,13.287,0,0,0-2.94-4.41A13.176,13.176,0,0,0,89.67-48.93a16.641,16.641,0,0,0-6.02-1.05H56.7ZM67.69-41.44H79.73q3.78,0,5.67,1.68t1.89,5.25q0,3.71-1.89,5.425T79.73-27.37H67.69ZM107.24,0h37.94V-9.24H118.23V-21.49h24.22v-8.54H118.23V-40.74h26.39v-9.24H107.24Zm42.21-16.59a17.242,17.242,0,0,0,1.715,7.875,15.636,15.636,0,0,0,4.69,5.6A20.353,20.353,0,0,0,162.645.14a30.344,30.344,0,0,0,8.085,1.05q9.87,0,15.33-4.445a14.232,14.232,0,0,0,5.46-11.585,12.847,12.847,0,0,0-1.54-6.475,12.66,12.66,0,0,0-3.85-4.27,20.388,20.388,0,0,0-4.41-2.345,45.524,45.524,0,0,0-4.62-1.4,1.321,1.321,0,0,1-.42-.07,5.873,5.873,0,0,0-1.12-.28q-5.25-1.33-7.56-2.03a27.473,27.473,0,0,1-3.71-1.365,4.577,4.577,0,0,1-1.96-1.54,4.306,4.306,0,0,1-.56-2.345,4.69,4.69,0,0,1,2.24-4.27,9.832,9.832,0,0,1,5.32-1.4,12.918,12.918,0,0,1,7.035,1.68q2.625,1.68,2.835,5.88h10.64a15.513,15.513,0,0,0-1.61-7.28,14.064,14.064,0,0,0-4.375-5.04,18.893,18.893,0,0,0-6.37-2.87,31.223,31.223,0,0,0-7.665-.91,24.844,24.844,0,0,0-6.825.945,19.845,19.845,0,0,0-6.02,2.835,13.925,13.925,0,0,0-4.27,4.76,13.453,13.453,0,0,0-1.575,6.58,12.632,12.632,0,0,0,1.225,5.775,11.455,11.455,0,0,0,3.29,3.99,18.675,18.675,0,0,0,4.585,2.555,61.071,61.071,0,0,0,5.81,1.89q1.19.28,3.22.84,3.08.7,4.9,1.26a19.817,19.817,0,0,1,3.36,1.365,7.451,7.451,0,0,1,2.45,1.96,4.439,4.439,0,0,1,.91,2.835,4.965,4.965,0,0,1-.91,3.045,6.2,6.2,0,0,1-2.415,1.925,12.349,12.349,0,0,1-3.15.98,19.371,19.371,0,0,1-3.255.28,13.128,13.128,0,0,1-7.945-2.275Q160.09-11.9,160.09-16.59Zm45.43,0A17.242,17.242,0,0,0,196.6-8.715a15.636,15.636,0,0,0,4.69,5.6A20.353,20.353,0,0,0,208.075.14a30.344,30.344,0,0,0,8.085,1.05q9.87,0,15.33-4.445a14.232,14.232,0,0,0,5.46-11.585,12.847,12.847,0,0,0-1.54-6.475,12.66,12.66,0,0,0-3.85-4.27,20.388,20.388,0,0,0-4.41-2.345,45.524,45.524,0,0,0-4.62-1.4,1.321,1.321,0,0,1-.42-.07,5.873,5.873,0,0,0-1.12-.28q-5.25-1.33-7.56-2.03a27.473,27.473,0,0,1-3.71-1.365,4.577,4.577,0,0,1-1.96-1.54,4.306,4.306,0,0,1-.56-2.345,4.69,4.69,0,0,1,2.24-4.27,9.832,9.832,0,0,1,5.32-1.4,12.918,12.918,0,0,1,7.035,1.68q2.625,1.68,2.835,5.88h10.64a15.513,15.513,0,0,0-1.61-7.28,14.064,14.064,0,0,0-4.375-5.04,18.893,18.893,0,0,0-6.37-2.87,31.223,31.223,0,0,0-7.665-.91,24.844,24.844,0,0,0-6.825.945,19.845,19.845,0,0,0-6.02,2.835,13.925,13.925,0,0,0-4.27,4.76,13.453,13.453,0,0,0-1.575,6.58,12.632,12.632,0,0,0,1.225,5.775,11.455,11.455,0,0,0,3.29,3.99,18.675,18.675,0,0,0,4.585,2.555,61.071,61.071,0,0,0,5.81,1.89q1.19.28,3.22.84,3.08.7,4.9,1.26a19.818,19.818,0,0,1,3.36,1.365,7.45,7.45,0,0,1,2.45,1.96,4.439,4.439,0,0,1,.91,2.835,4.965,4.965,0,0,1-.91,3.045,6.2,6.2,0,0,1-2.415,1.925,12.349,12.349,0,0,1-3.15.98,19.371,19.371,0,0,1-3.255.28,13.128,13.128,0,0,1-7.945-2.275Q205.52-11.9,205.52-16.59Z" transform="translate(-4.83 51.17)"/>
</svg>
