<svg xmlns="http://www.w3.org/2000/svg" width="42.881" height="11.647" viewBox="0 0 42.881 11.647">
  <path id="패스_67" data-name="패스 67" d="M1.1,0H6.032A5.618,5.618,0,0,0,8.288-.424,4.356,4.356,0,0,0,9.92-1.632,5.172,5.172,0,0,0,10.9-3.464a7.892,7.892,0,0,0,.32-2.312,5.726,5.726,0,0,0-1.432-4.2,5.043,5.043,0,0,0-3.752-1.448H1.1ZM3.616-9.312H5.408a3.031,3.031,0,0,1,2.544.968A4.505,4.505,0,0,1,8.7-5.536,4.789,4.789,0,0,1,8.472-3.96,2.845,2.845,0,0,1,7.84-2.888a2.419,2.419,0,0,1-.9.592,3.125,3.125,0,0,1-1.08.184H3.616ZM12.72,0h2.272V-3.728a3.177,3.177,0,0,1,.536-1.928,1.975,1.975,0,0,1,1.7-.728,4.284,4.284,0,0,1,.44.024,3.42,3.42,0,0,1,.376.056V-8.416a1.558,1.558,0,0,0-.5-.08,2.831,2.831,0,0,0-1.584.5,2.681,2.681,0,0,0-1.056,1.264H14.88V-8.272H12.72ZM26.784-3.584v-.208a1.7,1.7,0,0,0,.016-.192,5.579,5.579,0,0,0-.264-1.728,4.444,4.444,0,0,0-.768-1.44A3.555,3.555,0,0,0,24.5-8.136a4.009,4.009,0,0,0-1.736-.36,4.392,4.392,0,0,0-1.712.328,3.894,3.894,0,0,0-1.344.92,4.142,4.142,0,0,0-.864,1.392,4.825,4.825,0,0,0-.3,1.728,5.055,5.055,0,0,0,.3,1.752,4,4,0,0,0,.848,1.392,3.687,3.687,0,0,0,1.336.9,4.679,4.679,0,0,0,1.744.312,4.161,4.161,0,0,0,2.424-.68,3.929,3.929,0,0,0,1.448-2.1h-2a1.333,1.333,0,0,1-.624.744,2.118,2.118,0,0,1-1.168.328A1.992,1.992,0,0,1,21.376-2a2.313,2.313,0,0,1-.56-1.584Zm-5.968-1.44a2.276,2.276,0,0,1,.112-.568,1.737,1.737,0,0,1,.32-.568,1.722,1.722,0,0,1,.584-.448,1.971,1.971,0,0,1,.872-.176,1.639,1.639,0,0,1,1.224.432,2.481,2.481,0,0,1,.584,1.328Zm6.912,2.336a2.9,2.9,0,0,0,.36,1.352,2.6,2.6,0,0,0,.872.912,3.841,3.841,0,0,0,1.216.5,6.517,6.517,0,0,0,1.44.152A6.333,6.333,0,0,0,33.032.072a3.863,3.863,0,0,0,1.2-.488,2.443,2.443,0,0,0,.848-.9,2.721,2.721,0,0,0,.312-1.344,2.02,2.02,0,0,0-.208-.944,1.8,1.8,0,0,0-.576-.656,3.691,3.691,0,0,0-.816-.424,7.668,7.668,0,0,0-1.024-.3q-.176-.048-.624-.144a8.2,8.2,0,0,1-1.472-.416.7.7,0,0,1-.48-.672.6.6,0,0,1,.368-.608,2.243,2.243,0,0,1,.9-.16,2.1,2.1,0,0,1,1.1.248,1.037,1.037,0,0,1,.456.872h2.16A2.842,2.842,0,0,0,34.792-7.1a2.389,2.389,0,0,0-.816-.816,3.693,3.693,0,0,0-1.12-.44A6.2,6.2,0,0,0,31.52-8.5a6.806,6.806,0,0,0-1.352.128,3.759,3.759,0,0,0-1.144.424,2.142,2.142,0,0,0-.808.824,2.581,2.581,0,0,0-.3,1.28,1.786,1.786,0,0,0,.216.9,1.865,1.865,0,0,0,.584.624,3.459,3.459,0,0,0,.808.4,9.344,9.344,0,0,0,1.016.28,12.059,12.059,0,0,1,2,.552.793.793,0,0,1,.576.728.857.857,0,0,1-.448.8,2.059,2.059,0,0,1-1.04.256A2.11,2.11,0,0,1,30.4-1.64a1.226,1.226,0,0,1-.512-1.048Zm8.592,0a2.9,2.9,0,0,0,.36,1.352,2.6,2.6,0,0,0,.872.912,3.841,3.841,0,0,0,1.216.5,6.517,6.517,0,0,0,1.44.152A6.333,6.333,0,0,0,41.624.072a3.863,3.863,0,0,0,1.2-.488,2.443,2.443,0,0,0,.848-.9,2.721,2.721,0,0,0,.312-1.344,2.02,2.02,0,0,0-.208-.944,1.8,1.8,0,0,0-.576-.656,3.691,3.691,0,0,0-.816-.424,7.668,7.668,0,0,0-1.024-.3q-.176-.048-.624-.144a8.2,8.2,0,0,1-1.472-.416.7.7,0,0,1-.48-.672.6.6,0,0,1,.368-.608,2.243,2.243,0,0,1,.9-.16,2.1,2.1,0,0,1,1.1.248,1.037,1.037,0,0,1,.456.872h2.16A2.842,2.842,0,0,0,43.384-7.1a2.389,2.389,0,0,0-.816-.816,3.693,3.693,0,0,0-1.12-.44A6.2,6.2,0,0,0,40.112-8.5a6.806,6.806,0,0,0-1.352.128,3.759,3.759,0,0,0-1.144.424,2.142,2.142,0,0,0-.808.824,2.581,2.581,0,0,0-.3,1.28,1.786,1.786,0,0,0,.216.9,1.865,1.865,0,0,0,.584.624,3.459,3.459,0,0,0,.808.4,9.344,9.344,0,0,0,1.016.28,12.059,12.059,0,0,1,2,.552.793.793,0,0,1,.576.728.857.857,0,0,1-.448.8,2.06,2.06,0,0,1-1.04.256,2.11,2.11,0,0,1-1.232-.344,1.226,1.226,0,0,1-.512-1.048Z" transform="translate(-1.104 11.424)"/>
</svg>
