<svg xmlns="http://www.w3.org/2000/svg" width="1920" height="314.553" viewBox="0 0 1920 314.553">
  <g id="그룹_94" data-name="그룹 94" transform="translate(0 -8053)">
    <path id="패스_80" data-name="패스 80" d="M0,0H1920V314.553H0Z" transform="translate(0 8053)"/>
    <g id="facebook" transform="translate(1587.914 8099)">
      <g id="그룹_62" data-name="그룹 62">
        <path id="패스_38" data-name="패스 38" d="M19.306,0H2.758A2.761,2.761,0,0,0,0,2.758V19.306a2.761,2.761,0,0,0,2.758,2.758h8.274V14.479H8.274V11.032h2.758V8.274a4.137,4.137,0,0,1,4.137-4.137h2.758V7.584H16.548c-.761,0-1.379-.072-1.379.689v2.758h3.447l-1.379,3.447H15.169v7.584h4.137a2.761,2.761,0,0,0,2.758-2.758V2.758A2.761,2.761,0,0,0,19.306,0Z" fill="#fff"/>
      </g>
    </g>
    <g id="instagram" transform="translate(1539.915 8099)">
      <g id="그룹_64" data-name="그룹 64">
        <g id="그룹_63" data-name="그룹 63">
          <path id="패스_39" data-name="패스 39" d="M15.169,0H6.895A6.9,6.9,0,0,0,0,6.895v8.274a6.9,6.9,0,0,0,6.895,6.895h8.274a6.9,6.9,0,0,0,6.895-6.895V6.895A6.9,6.9,0,0,0,15.169,0ZM20,15.169a4.832,4.832,0,0,1-4.826,4.826H6.895a4.832,4.832,0,0,1-4.826-4.826V6.895A4.832,4.832,0,0,1,6.895,2.068h8.274A4.832,4.832,0,0,1,20,6.895Z" fill="#fff"/>
        </g>
      </g>
      <g id="그룹_66" data-name="그룹 66" transform="translate(5.516 5.516)">
        <g id="그룹_65" data-name="그룹 65">
          <path id="패스_40" data-name="패스 40" d="M133.516,128a5.516,5.516,0,1,0,5.516,5.516A5.516,5.516,0,0,0,133.516,128Zm0,8.963a3.447,3.447,0,1,1,3.447-3.447A3.452,3.452,0,0,1,133.516,136.963Z" transform="translate(-128 -128)" fill="#fff"/>
        </g>
      </g>
      <g id="그룹_68" data-name="그룹 68" transform="translate(16.226 4.367)">
        <g id="그룹_67" data-name="그룹 67">
          <ellipse id="타원_27" data-name="타원 27" cx="0.735" cy="0.735" rx="0.735" ry="0.735" fill="#fff"/>
        </g>
      </g>
    </g>
    <g id="twitter" transform="translate(1635.915 8100)">
      <g id="그룹_69" data-name="그룹 69">
        <path id="패스_41" data-name="패스 41" d="M24.085,50.317a10.3,10.3,0,0,1-2.845.78,4.91,4.91,0,0,0,2.172-2.729,9.868,9.868,0,0,1-3.131,1.2,4.937,4.937,0,0,0-8.541,3.376,5.084,5.084,0,0,0,.114,1.126A13.976,13.976,0,0,1,1.677,48.9a4.939,4.939,0,0,0,1.517,6.6,4.876,4.876,0,0,1-2.231-.608v.054A4.96,4.96,0,0,0,4.919,59.8a4.928,4.928,0,0,1-1.295.163,4.366,4.366,0,0,1-.935-.084A4.985,4.985,0,0,0,7.3,63.315a9.921,9.921,0,0,1-6.122,2.106A9.247,9.247,0,0,1,0,65.354a13.9,13.9,0,0,0,7.575,2.216A13.957,13.957,0,0,0,21.629,53.519c0-.218-.008-.429-.018-.638A9.851,9.851,0,0,0,24.085,50.317Z" transform="translate(0 -48)" fill="#fff"/>
      </g>
    </g>
    <path id="패스_51" data-name="패스 51" d="M-1.75-151.645H5.016L7.4-158.411H18.76l2.3,6.766h6.936L16.632-182.027H9.781ZM13.1-174.538h.085l3.83,11.148H9.143Zm17.148,22.893h6.681V-158.2H30.249Zm12.212,0h6.681v-10.893h7.021a13.04,13.04,0,0,0,4.744-.787,8.693,8.693,0,0,0,3.3-2.17,8.724,8.724,0,0,0,1.872-3.128,11.246,11.246,0,0,0,.6-3.659,11.246,11.246,0,0,0-.6-3.659,8.724,8.724,0,0,0-1.872-3.128,8.693,8.693,0,0,0-3.3-2.17,13.04,13.04,0,0,0-4.744-.787h-13.7Zm6.681-25.19h5.191a14.06,14.06,0,0,1,2.3.17,5.091,5.091,0,0,1,1.851.681,3.4,3.4,0,0,1,1.277,1.4,5.139,5.139,0,0,1,.447,2.3,5.139,5.139,0,0,1-.447,2.3,3.257,3.257,0,0,1-1.277,1.383,5.668,5.668,0,0,1-1.851.681,12.53,12.53,0,0,1-2.3.191H49.141Zm21.318,25.19H77.14V-158.2H70.46Zm38.934-20.169a12.428,12.428,0,0,0-1.425-4.638,11.372,11.372,0,0,0-2.893-3.447,12.56,12.56,0,0,0-4.021-2.128,15.509,15.509,0,0,0-4.766-.723,15.468,15.468,0,0,0-6.234,1.213,13.282,13.282,0,0,0-4.723,3.4,15.185,15.185,0,0,0-2.957,5.127,19.038,19.038,0,0,0-1.021,6.3,18.4,18.4,0,0,0,1.021,6.17,14.8,14.8,0,0,0,2.957,5.042,13.533,13.533,0,0,0,4.723,3.362,15.468,15.468,0,0,0,6.234,1.213,14.51,14.51,0,0,0,5.106-.872A12.27,12.27,0,0,0,105.5-154.3a12.42,12.42,0,0,0,2.83-3.936,15.376,15.376,0,0,0,1.319-5.106h-6.468a8.452,8.452,0,0,1-2.149,4.957,6.249,6.249,0,0,1-4.744,1.851,7.929,7.929,0,0,1-3.745-.83,7.112,7.112,0,0,1-2.574-2.276A10.14,10.14,0,0,1,88.5-162.9a15.143,15.143,0,0,1-.468-3.808,16.264,16.264,0,0,1,.468-3.957,10.345,10.345,0,0,1,1.447-3.319,7.067,7.067,0,0,1,2.574-2.3,7.892,7.892,0,0,1,3.766-.851,6.881,6.881,0,0,1,4.425,1.532,5.68,5.68,0,0,1,2.213,3.787Zm4.425,20.169H120.5V-158.2h-6.681Z" transform="translate(261.75 8276.867)" fill="#fff"/>
    <path id="패스_98" data-name="패스 98" d="M7.994-5.614A4.263,4.263,0,0,1,4.956-9.492v-1.386H3.808V-9.59A4.6,4.6,0,0,1,.686-5.278l.6.91A5.248,5.248,0,0,0,4.4-7.546a5.271,5.271,0,0,0,3,2.828ZM6.5.126c-1.862,0-3-.518-3-1.386s1.134-1.4,3-1.4,2.982.518,2.982,1.4S8.344.126,6.5.126Zm0-3.682c-2.562,0-4.144.826-4.144,2.3S3.934,1.022,6.5,1.022,10.626.2,10.626-1.26,9.044-3.556,6.5-3.556Zm3.99-4.718v-3.234H9.338v7.6h1.148V-7.322h1.862v-.952ZM24.374-9.688H19.88v-1.638H18.732v1.638h-4.55v.938H24.374ZM16.338-5.516C16.338-6.44,17.472-7,19.306-7c1.806,0,2.926.56,2.926,1.484s-1.12,1.5-2.926,1.5C17.472-4.018,16.338-4.578,16.338-5.516ZM19.88-1.372V-3.136c2.184-.14,3.514-.98,3.514-2.38,0-1.512-1.582-2.38-4.088-2.38-2.548,0-4.13.868-4.13,2.38,0,1.4,1.344,2.254,3.556,2.38v1.764h-5.11v.938H25v-.938ZM30.842-5.46a.933.933,0,0,0,.924-.966.941.941,0,0,0-.924-.994.941.941,0,0,0-.924.994A.933.933,0,0,0,30.842-5.46Zm0,5.642a.925.925,0,0,0,.924-.966.949.949,0,0,0-.924-.994.949.949,0,0,0-.924.994A.925.925,0,0,0,30.842.182ZM39.27,2.758l.8-.378a12.906,12.906,0,0,1-1.792-6.734,12.941,12.941,0,0,1,1.792-6.734l-.8-.364a13.075,13.075,0,0,0-2.058,7.1A13.123,13.123,0,0,0,39.27,2.758Zm3.248-8.176a6.348,6.348,0,0,0,4.564-2.87,6.32,6.32,0,0,0,4.564,2.87l.448-.91c-2.212-.322-4.382-1.764-4.382-3.416v-.07h3.934v-.924h-9.17v.924h3.962v.07c0,1.652-2.17,3.094-4.354,3.416Zm10.234,1.05H41.412v.938H46.48V1.036h1.148V-3.43h5.138Zm2.17,7.126a13.015,13.015,0,0,0,2.072-7.112,12.967,12.967,0,0,0-2.072-7.1l-.784.364A13.075,13.075,0,0,1,55.93-4.354,13.039,13.039,0,0,1,54.138,2.38Zm7.434-5.572c-1.218,0-2.072-1.316-2.072-3.36s.854-3.346,2.072-3.346S64.414-8.2,64.414-6.174,63.56-2.814,62.356-2.814Zm0-7.742c-1.848,0-3.164,1.708-3.164,4.382s1.316,4.382,3.164,4.382,3.15-1.708,3.15-4.382S64.2-10.556,62.356-10.556ZM70.742-6.51H68.67v-5H67.522V1.036H68.67v-6.58h2.072Zm10.276-5.012V1.064h1.148V-11.522Zm-5.474.966c-1.862,0-3.192,1.708-3.192,4.382s1.33,4.382,3.192,4.382S78.736-3.5,78.736-6.174,77.406-10.556,75.544-10.556Zm0,1.036c1.218,0,2.086,1.316,2.086,3.346s-.868,3.36-2.086,3.36-2.1-1.316-2.1-3.36S74.312-9.52,75.544-9.52Zm11.172.154h4.8v-.966H85.582v8.274H86.59a31.774,31.774,0,0,0,6.1-.434l-.126-.966a29.336,29.336,0,0,1-5.852.42ZM93.9-11.522V1.064h1.148V-11.522ZM106.442-9H99.106v3.066h8.736v-.9h-7.6V-8.148h7.336V-11.2h-8.5v.9h7.364Zm2.59,5.068v-.924h-11.4v.924h5.124V-2.59H98.91v.924H106.5v2.7h1.148V-2.59h-3.724V-3.934Z" transform="translate(260 8203)" fill="#fff"/>
    <path id="패스_96" data-name="패스 96" d="M1.218-9.9v.938H4.984A7.6,7.6,0,0,1,.742-2.478l.672.826A8.783,8.783,0,0,0,6.118-9.9Zm9.072-1.624v5.054H8.582v-4.718H7.5V.406H8.582V-5.53H10.29V1.036H11.4V-11.522Zm13.636.014H22.778v9.17h1.148ZM15.036-7.56a2.053,2.053,0,0,1,2.142-2.086,2.06,2.06,0,0,1,2.17,2.086,2.067,2.067,0,0,1-2.17,2.114A2.059,2.059,0,0,1,15.036-7.56Zm5.432,0a3.09,3.09,0,0,0-3.29-3.08,3.074,3.074,0,0,0-3.262,3.08,3.088,3.088,0,0,0,3.262,3.108A3.1,3.1,0,0,0,20.468-7.56ZM17-.182V-3.276H15.848V.756H24.3V-.182ZM33.208-8.26v.938h2.478v3.29h1.162v-7.476H35.686V-8.26Zm.7,2.856A4.323,4.323,0,0,1,30.856-9.24v-.434h2.758V-10.6H26.908v.924h2.8v.434a4.629,4.629,0,0,1-3.164,4.186l.6.91A5.435,5.435,0,0,0,30.31-7.336a5.159,5.159,0,0,0,3.024,2.828ZM32.7.14c-1.89,0-3.038-.532-3.038-1.442S30.814-2.758,32.7-2.758s3.038.546,3.038,1.456S34.594.14,32.7.14Zm0-3.78c-2.576,0-4.186.854-4.186,2.338s1.61,2.338,4.186,2.338S36.876.182,36.876-1.3,35.28-3.64,32.7-3.64ZM41.86-7.448h6.412v2.31H41.86Zm3.78,5.936v-2.7h3.752v-6.412h-1.12v2.24H41.86v-2.24H40.726v6.412h3.752v2.7h-5.1v.938H50.764v-.938ZM58.856-6.16a18.162,18.162,0,0,0,.322-3.724v-.658H52.934V-9.6h5.124a15.962,15.962,0,0,1-.336,3.318Zm1.19.756c-1.274.182-2.7.28-4.074.336V-7.742H54.838v2.716c-.952.014-1.862.028-2.66.028l.112.938a50.321,50.321,0,0,0,7.84-.5Zm-4.8,2.478H54.1V.756H62.44V-.182h-7.2Zm6.79-4.508v-4.088H60.886v9.464h1.148V-6.482H63.84v-.952Zm4.984,1.568h4.634V-10.36H65.828v.938H70.49V-6.8H65.87v4.816h1.036a36.441,36.441,0,0,0,6.328-.462l-.112-.938a36.9,36.9,0,0,1-6.1.448Zm7.28-5.67V1.05h1.148V-11.536ZM82.25-9.282h2.786v-.952h-6.79v.952h2.87v1.6a6.565,6.565,0,0,1-3.3,5.4l.672.91A7.089,7.089,0,0,0,81.69-5.53a6.776,6.776,0,0,0,3.15,3.85L85.5-2.6A6.039,6.039,0,0,1,82.25-7.686Zm7.5,2.828H87.682v-5.054H86.534V1.036h1.148V-5.488h2.072Zm5.488.994a.933.933,0,0,0,.924-.966.941.941,0,0,0-.924-.994.941.941,0,0,0-.924.994A.933.933,0,0,0,95.242-5.46Zm0,5.642a.925.925,0,0,0,.924-.966.949.949,0,0,0-.924-.994.949.949,0,0,0-.924.994A.925.925,0,0,0,95.242.182Zm14.98-11.69v7.182h1.148v-7.182ZM103.25-3.654V.868h8.12V-3.654Zm7,.91V-.056h-5.88V-2.744Zm-5.628-8.106a2.982,2.982,0,0,0-3.262,2.926A2.982,2.982,0,0,0,104.622-5a3,3,0,0,0,3.29-2.926A3,3,0,0,0,104.622-10.85Zm0,.952a2.007,2.007,0,0,1,2.17,1.974,2,2,0,0,1-2.17,1.974,1.982,1.982,0,0,1-2.142-1.974A1.99,1.99,0,0,1,104.622-9.9Zm20.132,3.164c-2.282-.336-4.522-1.89-4.522-3.64v-.7h-1.2v.7c0,1.792-2.212,3.3-4.494,3.64L115-5.81a6.434,6.434,0,0,0,4.634-2.94,6.59,6.59,0,0,0,4.648,2.94Zm.546,2.282H113.96V-3.5h5.068V1.05h1.148V-3.5h5.138Zm2.814-3.122a2.074,2.074,0,0,1,2.142-2.142,2.071,2.071,0,0,1,2.128,2.142,2.071,2.071,0,0,1-2.128,2.142A2.074,2.074,0,0,1,128.114-7.574Zm7.9-1.05v2.086h-2.7a3.152,3.152,0,0,0,.168-1.036,3.176,3.176,0,0,0-.168-1.05Zm0,3.01V-2.24h1.162v-9.268H136.01v1.96h-3.192a3.217,3.217,0,0,0-2.562-1.176,3.1,3.1,0,0,0-3.234,3.15,3.1,3.1,0,0,0,3.234,3.15,3.214,3.214,0,0,0,2.576-1.19ZM130.3-.182v-3.01h-1.162V.756h8.386V-.182Z" transform="translate(260 8244)" fill="#fff"/>
    <path id="패스_99" data-name="패스 99" d="M2.674-4.172l.5-1.568c.364-1.162.7-2.268,1.022-3.472h.056c.336,1.19.658,2.31,1.036,3.472l.49,1.568ZM7.084,0H8.456L4.97-10.262H3.528L.042,0H1.358l.994-3.136H6.1Zm6.048.182c1.75,0,3.3-1.5,3.3-4.116,0-2.324-1.064-3.864-3.038-3.864a3.83,3.83,0,0,0-2.38,1.078l.042-1.372v-3.052H9.786V0h1.022l.112-.784h.042A3.368,3.368,0,0,0,13.132.182Zm-.21-1.064a2.918,2.918,0,0,1-1.862-.8V-5.67A3.139,3.139,0,0,1,13.1-6.72c1.442,0,2,1.134,2,2.814C15.106-2.016,14.182-.882,12.922-.882ZM21.392.182c1.862,0,3.528-1.456,3.528-3.976s-1.666-4-3.528-4-3.528,1.47-3.528,4S19.53.182,21.392.182Zm0-1.064c-1.316,0-2.2-1.162-2.2-2.912s.882-2.94,2.2-2.94S23.6-5.544,23.6-3.794,22.708-.882,21.392-.882ZM29.134.182a3.261,3.261,0,0,0,2.52-1.372H31.7l.1,1.19h1.064V-7.6H31.584v5.39c-.728.91-1.274,1.288-2.058,1.288-1.008,0-1.428-.6-1.428-2.016V-7.6H26.824v4.816C26.824-.854,27.538.182,29.134.182Zm8.68,0a4.786,4.786,0,0,0,1.4-.28l-.252-.952a2.693,2.693,0,0,1-.868.2c-.882,0-1.176-.532-1.176-1.47V-6.566h2.058V-7.6H36.918V-9.73H35.854L35.7-7.6l-1.19.07v.966h1.134v4.214C35.644-.826,36.19.182,37.814.182ZM45.22-4.172l.5-1.568c.364-1.162.7-2.268,1.022-3.472H46.8c.336,1.19.658,2.31,1.036,3.472l.49,1.568ZM49.63,0H51L47.516-10.262H46.074L42.588,0H43.9L44.9-3.136H48.65Zm3.36.182a.925.925,0,0,0,.924-.966.949.949,0,0,0-.924-.994.949.949,0,0,0-.924.994A.925.925,0,0,0,52.99.182ZM56.336,0h1.3V-4.074h1.694c2.24,0,3.78-1.008,3.78-3.178,0-2.24-1.54-3.01-3.85-3.01H56.336Zm1.3-5.124V-9.212h1.47c1.806,0,2.716.476,2.716,1.96s-.854,2.128-2.66,2.128ZM63.98.182A.925.925,0,0,0,64.9-.784a.949.949,0,0,0-.924-.994.949.949,0,0,0-.924.994A.925.925,0,0,0,63.98.182Zm7.224,0a3.967,3.967,0,0,0,3.15-1.47L73.64-2.1A3.119,3.119,0,0,1,71.26-.952c-1.96,0-3.192-1.624-3.192-4.214,0-2.562,1.288-4.158,3.234-4.158a2.8,2.8,0,0,1,2.1.98l.7-.84a3.8,3.8,0,0,0-2.814-1.274c-2.6,0-4.55,2.016-4.55,5.334S68.656.182,71.2.182Zm5.6,0a.925.925,0,0,0,.924-.966.949.949,0,0,0-.924-.994.949.949,0,0,0-.924.994A.925.925,0,0,0,76.8.182Z" transform="translate(260 8307)" fill="#fff"/>
    <path id="패스_90" data-name="패스 90" d="M4.256.182C6.4.182,7.742-1.106,7.742-2.73c0-1.526-.924-2.226-2.114-2.744L4.158-6.1c-.8-.336-1.694-.714-1.694-1.708,0-.924.756-1.512,1.918-1.512a3.325,3.325,0,0,1,2.338.966l.686-.826a4.208,4.208,0,0,0-3.024-1.274c-1.862,0-3.234,1.148-3.234,2.73A2.9,2.9,0,0,0,3.234-5.1l1.484.644c.966.434,1.708.77,1.708,1.82,0,1.008-.812,1.68-2.156,1.68A4.032,4.032,0,0,1,1.428-2.226l-.77.882A4.9,4.9,0,0,0,4.256.182ZM9.646,0H10.92V-7.6H9.646Zm.644-9.17A.833.833,0,0,0,11.172-10a.809.809,0,0,0-.882-.826A.809.809,0,0,0,9.408-10,.833.833,0,0,0,10.29-9.17ZM15.89.182a4.786,4.786,0,0,0,1.4-.28l-.252-.952a2.693,2.693,0,0,1-.868.2c-.882,0-1.176-.532-1.176-1.47V-6.566h2.058V-7.6H14.994V-9.73H13.93L13.776-7.6l-1.19.07v.966H13.72v4.214C13.72-.826,14.266.182,15.89.182Zm5.74,0A4.525,4.525,0,0,0,24.15-.6l-.462-.84a3.277,3.277,0,0,1-1.9.6,2.519,2.519,0,0,1-2.52-2.66h5.124a4.973,4.973,0,0,0,.056-.728c0-2.17-1.092-3.57-3.024-3.57-1.764,0-3.43,1.54-3.43,4A3.633,3.633,0,0,0,21.63.182ZM19.25-4.41a2.339,2.339,0,0,1,2.184-2.366c1.19,0,1.89.826,1.89,2.366ZM29.568,0h1.176V-5.684c0-.882-.1-2.128-.154-3.024h.056l.812,2.338L33.4-1.036h.868L36.218-6.37l.812-2.338h.056c-.07.9-.168,2.142-.168,3.024V0h1.218V-10.262H36.568l-1.96,5.488c-.238.714-.462,1.428-.7,2.142h-.07c-.252-.714-.49-1.428-.728-2.142l-1.974-5.488H29.568ZM42.574.182A4.073,4.073,0,0,0,45.094-.91h.042l.112.91H46.3V-4.676c0-1.876-.784-3.122-2.632-3.122a5.718,5.718,0,0,0-3,.994l.5.882a4.188,4.188,0,0,1,2.282-.812c1.246,0,1.568.938,1.568,1.918-3.234.364-4.676,1.19-4.676,2.842A2.061,2.061,0,0,0,42.574.182ZM42.938-.84c-.756,0-1.344-.35-1.344-1.218,0-.98.868-1.61,3.43-1.918v2.128A3.107,3.107,0,0,1,42.938-.84ZM48.72,3.206h1.274V.63L49.966-.7a3.43,3.43,0,0,0,2.1.882c1.75,0,3.3-1.5,3.3-4.1,0-2.338-1.064-3.878-3.024-3.878a4.054,4.054,0,0,0-2.422,1.064h-.042L49.77-7.6H48.72ZM51.856-.882a2.946,2.946,0,0,1-1.862-.8V-5.67a3.169,3.169,0,0,1,2.044-1.05c1.442,0,2,1.134,2,2.814C54.04-2.016,53.116-.882,51.856-.882Z" transform="translate(595 8307)" fill="#fff"/>
    <path id="패스_97" data-name="패스 97" d="M5.222-9.282H8.176v-.952H1.162v.952H4.074v1.6A6.423,6.423,0,0,1,.742-2.3l.672.924A7.042,7.042,0,0,0,4.648-5.516,6.634,6.634,0,0,0,7.938-1.68L8.582-2.6a5.847,5.847,0,0,1-3.36-5.082ZM9.87-11.508V1.036h1.148V-11.508ZM22.358-8.064h-6.1v-1.2h6.1Zm1.134-3.262H22.358v1.19h-6.1v-1.19H15.12v4.144h8.372Zm1.484,6.09V-6.16H13.608v.924h5.11V-4H14.98v.868h7.406v1.092H15.022V.9H23.9V.014H16.142V-1.2H23.52V-4H19.866V-5.236Zm6.734-.63H28.154V-7.938H31.71Zm1.12-4.858H31.71v1.89H28.154v-1.89H27.02v5.782h5.81ZM32.256.126c-1.876,0-3-.532-3-1.428s1.12-1.414,3-1.414c1.848,0,2.982.518,2.982,1.414S34.1.126,32.256.126Zm0-3.766c-2.562,0-4.144.854-4.144,2.338s1.582,2.338,4.144,2.338,4.13-.854,4.13-2.338S34.8-3.64,32.256-3.64Zm3.99-4.718v-3.164H35.1v7.56h1.148V-7.406h1.862v-.952ZM48.58-.07H42.812V-1.638H48.58Zm0-2.464H42.812V-4.046H41.678v4.9h8.036v-4.9H48.58ZM44.534-6.062H41.146V-8.05h3.388Zm4.032-5.446v3.08h-2.9v-2.436H44.534v1.918H41.146v-1.918H40.012v5.74h5.656V-7.49h2.9v2.842h1.162v-6.86Z" transform="translate(364 8307)" fill="#fff"/>
    <path id="패스_86" data-name="패스 86" d="M7.994-5.614A4.263,4.263,0,0,1,4.956-9.492v-1.386H3.808V-9.59A4.6,4.6,0,0,1,.686-5.278l.6.91A5.248,5.248,0,0,0,4.4-7.546a5.271,5.271,0,0,0,3,2.828ZM6.5.126c-1.862,0-3-.518-3-1.386s1.134-1.4,3-1.4,2.982.518,2.982,1.4S8.344.126,6.5.126Zm0-3.682c-2.562,0-4.144.826-4.144,2.3S3.934,1.022,6.5,1.022,10.626.2,10.626-1.26,9.044-3.556,6.5-3.556Zm3.99-4.718v-3.234H9.338v7.6h1.148V-7.322h1.862v-.952Zm10.36.714H17.724v-2.632h3.122Zm-4.27,0H14.728v.924h9.114V-7.56H21.994v-2.632h1.9v-.924H14.686v.924h1.89Zm5.894,7.5H16.142V-2.142H22.47Zm2.506-4.466v-.924H13.622v.924h5.11v1.47h-3.71V.868H23.59v-3.92H19.88v-1.47Zm5.7,1.484H28.042V-6.356h2.632Zm0-4.228H28.042v-3.066H26.95v8.218h4.8v-8.218H30.674Zm5.4-4.256v4.97H34.384v-4.69H33.306V.42h1.078V-5.614h1.694v6.65H37.17V-11.522ZM50.05-7.392C47.81-7.7,45.64-9.1,45.64-10.766v-.56H44.464v.56c0,1.666-2.156,3.066-4.4,3.374l.434.91a6.409,6.409,0,0,0,4.55-2.744,6.468,6.468,0,0,0,4.564,2.744Zm-5,7.532c-1.988,0-3.136-.462-3.136-1.288s1.148-1.288,3.136-1.288,3.136.462,3.136,1.288S47.04.14,45.052.14Zm0-3.458c-2.688,0-4.3.77-4.3,2.17s1.61,2.17,4.3,2.17,4.3-.77,4.3-2.17S47.74-3.318,45.052-3.318Zm.574-1.974V-7.14H44.478v1.848h-5.1v.924H50.736v-.924Z" transform="translate(699 8307)" fill="#fff"/>
    <path id="패스_95" data-name="패스 95" d="M5.95-5.32H2.394v-2.3H5.95Zm1.12-5.292H5.95v2.1H2.394v-2.1H1.26V-4.4H7.07ZM3.822-3.178H2.674V.756h8.372V-.182H3.822Zm6.664-4.536v-3.794H9.338V-2.3h1.148V-6.748h1.862v-.966Zm10.36.154H17.724v-2.632h3.122Zm-4.27,0H14.728v.924h9.114V-7.56H21.994v-2.632h1.9v-.924H14.686v.924h1.89Zm5.894,7.5H16.142V-2.142H22.47Zm2.506-4.466v-.924H13.622v.924h5.11v1.47h-3.71V.868H23.59v-3.92H19.88v-1.47Zm10.4-4.354a26.128,26.128,0,0,1-.434,5.446l1.134.14a26.882,26.882,0,0,0,.448-5.586v-1.386H27.678v.938h7.7ZM33.53-1.666V-5.824H32.4v4.158H30.422V-5.824H29.288v4.158H26.5v.938H37.856v-.938ZM46.844-10.29H43.82v-1.274H42.672v1.274H39.634v.854h7.21ZM41.4-6.986c0-.672.714-1.106,1.848-1.106,1.106,0,1.834.434,1.834,1.106,0,.7-.728,1.12-1.834,1.12C42.112-5.866,41.4-6.286,41.4-6.986Zm5.824,2.478a29.471,29.471,0,0,1-3.4.336v-.9c1.442-.154,2.352-.84,2.352-1.918C46.172-8.176,45-8.9,43.246-8.9s-2.94.728-2.94,1.918c0,1.078.924,1.778,2.366,1.918v.952c-1.2.042-2.366.056-3.346.056l.126.924a46.735,46.735,0,0,0,7.854-.546Zm-4.9,2.17H41.174V.756H49.56V-.182H42.322Zm6.79-4.8v-4.382H47.964v9.828h1.148V-6.188H50.96V-7.14Z" transform="translate(441 8307)" fill="#fff"/>
    <path id="패스_87" data-name="패스 87" d="M9.52-9.814a11.359,11.359,0,0,1-.336,3.192L10.3-6.5a11.645,11.645,0,0,0,.35-3.318v-1.064H2.1v.924H9.52ZM6.37.126c-1.96,0-3.22-.532-3.22-1.4,0-.9,1.26-1.428,3.22-1.428S9.6-2.17,9.6-1.274C9.6-.406,8.344.126,6.37.126Zm0-3.71C3.7-3.584,2-2.73,2-1.274,2,.154,3.7,1.022,6.37,1.022s4.382-.868,4.382-2.3C10.752-2.73,9.044-3.584,6.37-3.584ZM6.552-5.67V-8.078H5.4V-5.67H.77v.938h11.3V-5.67ZM18.1-9.282h2.954v-.952H14.042v.952h2.912v1.6A6.423,6.423,0,0,1,13.622-2.3l.672.924a7.042,7.042,0,0,0,3.234-4.144,6.634,6.634,0,0,0,3.29,3.836l.644-.924A5.847,5.847,0,0,1,18.1-7.686Zm4.648-2.226V1.036H23.9V-11.508Zm7.966,1.078H29.582v2.254a6.654,6.654,0,0,1-3.234,5.614l.686.924A6.955,6.955,0,0,0,30.156-5.8,6.927,6.927,0,0,0,33.194-1.89l.714-.91a6.341,6.341,0,0,1-3.192-5.376Zm7.518,4H36.162v-5.082H35.014V1.036h1.148v-6.51h2.072Zm8.6-3.682H43.694v-1.526H42.546v1.526H39.424v.924H46.83ZM41.216-6.342c0-.812.77-1.344,1.9-1.344s1.918.532,1.918,1.344-.77,1.358-1.918,1.358S41.216-5.516,41.216-6.342Zm4.914,0c0-1.344-1.218-2.212-3.01-2.212s-3,.868-3,2.212,1.2,2.226,3,2.226S46.13-4.984,46.13-6.342ZM45.192.14c-1.834,0-2.954-.476-2.954-1.288s1.12-1.288,2.954-1.288,2.954.476,2.954,1.288S47.026.14,45.192.14Zm0-3.458c-2.534,0-4.088.784-4.088,2.17s1.554,2.17,4.088,2.17,4.088-.8,4.088-2.17S47.712-3.318,45.192-3.318Zm3.934-4.718v-3.486H47.978v8.078h1.148v-3.64h1.862v-.952Z" transform="translate(776 8307)" fill="#fff"/>
    <path id="패스_93" data-name="패스 93" d="M9.87-11.522V1.064h1.148V-11.522ZM4.4-10.556C2.534-10.556,1.2-8.848,1.2-6.174S2.534-1.792,4.4-1.792,7.588-3.5,7.588-6.174,6.258-10.556,4.4-10.556Zm0,1.036c1.218,0,2.086,1.316,2.086,3.346S5.614-2.814,4.4-2.814,2.3-4.13,2.3-6.174,3.164-9.52,4.4-9.52ZM19.292.14c-1.974,0-3.136-.49-3.136-1.344s1.162-1.344,3.136-1.344,3.136.49,3.136,1.344S21.252.14,19.292.14Zm0-3.584c-2.688,0-4.3.8-4.3,2.24s1.61,2.226,4.3,2.226,4.3-.784,4.3-2.226S21.994-3.444,19.292-3.444ZM17.556-6.776a10.9,10.9,0,0,0,1.736.14,10.944,10.944,0,0,0,1.75-.14v1.47H17.556Zm-1.5-2.184c0-.91,1.232-1.442,3.234-1.442s3.234.532,3.234,1.442-1.232,1.442-3.234,1.442S16.058-8.064,16.058-8.96Zm6.118,3.654V-7.084A2.072,2.072,0,0,0,23.7-8.96c0-1.47-1.68-2.338-4.41-2.338s-4.41.868-4.41,2.338a2.067,2.067,0,0,0,1.54,1.89v1.764H13.608v.924H24.976v-.924ZM27.86-7.8a1.992,1.992,0,0,1,2.156-2,2,2,0,0,1,2.156,2,2.007,2.007,0,0,1-2.156,2A2,2,0,0,1,27.86-7.8Zm5.432,0a3.009,3.009,0,0,0-3.276-2.968A3,3,0,0,0,26.74-7.8,3.009,3.009,0,0,0,30.016-4.83,3.017,3.017,0,0,0,33.292-7.8ZM28.084-2.534H35.1v3.57h1.148V-3.472H28.084Zm10-6.118V-9.6H36.246v-1.9H35.1V-4.06h1.148V-5.978H38.08v-.938H36.246V-8.652Zm7.9,2.492A18.161,18.161,0,0,0,46.3-9.884v-.658H40.054V-9.6h5.124a15.962,15.962,0,0,1-.336,3.318Zm1.19.756c-1.274.182-2.7.28-4.074.336V-7.742H41.958v2.716C41.006-5.012,40.1-5,39.3-5l.112.938a50.321,50.321,0,0,0,7.84-.5Zm-4.8,2.478H41.216V.756H49.56V-.182h-7.2Zm6.79-4.508v-4.088H48.006v9.464h1.148V-6.482H50.96v-.952Z" transform="translate(518 8307)" fill="#fff"/>
    <path id="패스_85" data-name="패스 85" d="M4.4-8.246H6.762v-.938H4.41V-11.06H3.3v1.876H.938v.938H3.3v.574A6.153,6.153,0,0,1,.63-2.436l.686.868A6.113,6.113,0,0,0,3.864-5.292,5.791,5.791,0,0,0,6.44-1.848L7.1-2.7a5.73,5.73,0,0,1-2.7-4.97Zm5.95-3.276v5.068H8.694v-4.788H7.616V.42H8.694V-5.5h1.652V1.036h1.106V-11.522ZM22.414-6.846h-6.23V-9.9h6.23Zm1.134-3.976H15.064v4.886h8.484ZM25-4.228h-11.4v.938h5.1V1.022h1.148V-3.29H25Zm5.978-5.054h2.954v-.952H26.922v.952h2.912v1.6A6.423,6.423,0,0,1,26.5-2.3l.672.924a7.042,7.042,0,0,0,3.234-4.144A6.634,6.634,0,0,0,33.7-1.68l.644-.924a5.847,5.847,0,0,1-3.36-5.082Zm4.648-2.226V1.036h1.148V-11.508ZM48.16-.056H41.986V-1.778H48.16Zm0-2.618H41.986V-4.326H40.852V.868h8.442V-4.326H48.16ZM48.972-6.4a15.678,15.678,0,0,0,.336-3.64v-.91H40.824v.938h7.35a14.861,14.861,0,0,1-.35,3.612H39.368v.938h11.41V-6.4Zm5.768-1.05h6.412v2.31H54.74Zm3.78,5.936v-2.7h3.752v-6.412h-1.12v2.24H54.74v-2.24H53.606v6.412h3.752v2.7h-5.1v.938H63.644v-.938Zm7.672-4.8c2.058-.252,3.934-1.162,4.634-2.534.686,1.372,2.576,2.282,4.634,2.534l.406-.91c-2.226-.238-4.242-1.33-4.3-2.73h3.906v-.924H66.192v.924h3.892c-.056,1.4-2.072,2.492-4.3,2.73ZM70.812.112c-1.974,0-3.136-.49-3.136-1.372s1.162-1.372,3.136-1.372,3.136.5,3.136,1.372S72.772.112,70.812.112Zm0-3.64c-2.688,0-4.3.812-4.3,2.268s1.61,2.282,4.3,2.282,4.3-.812,4.3-2.282S73.486-3.528,70.812-3.528Zm-5.67-2.016v.924H76.5v-.924Z" transform="translate(853 8307)" fill="#fff"/>
    <path id="패스_81" data-name="패스 81" d="M1.092-10.094v1.47H4.354A7.1,7.1,0,0,1,.434-2.716L1.512-1.428c3.6-2.1,4.662-5.054,4.662-8.666Zm8.792-1.6v4.858H8.736v-4.522H7.014V.658H8.736V-5.348H9.884V1.2h1.764V-11.69Zm14.308.014H22.33v9.254h1.862ZM15.47-7.588a1.609,1.609,0,0,1,1.708-1.68,1.59,1.59,0,0,1,1.694,1.68,1.594,1.594,0,0,1-1.694,1.666A1.613,1.613,0,0,1,15.47-7.588Zm5.208,0a3.31,3.31,0,0,0-3.5-3.276,3.322,3.322,0,0,0-3.514,3.276,3.328,3.328,0,0,0,3.514,3.262A3.315,3.315,0,0,0,20.678-7.588Zm-3.22,7.1V-3.332H15.61V.98h8.9V-.49Zm15.9-8.092v1.5h1.932v3.066h1.848V-11.69H35.294v3.108Zm.77,2.772A3.954,3.954,0,0,1,31.22-9.436h2.506V-10.92H26.8v1.484H29.33a4.294,4.294,0,0,1-3.038,3.962l.938,1.456a5.035,5.035,0,0,0,3.08-2.856,4.873,4.873,0,0,0,2.926,2.506ZM32.788-.182c-1.694,0-2.576-.35-2.576-1.078s.882-1.078,2.576-1.078,2.562.35,2.562,1.078S34.468-.182,32.788-.182Zm0-3.556c-2.744,0-4.424.91-4.424,2.478s1.68,2.478,4.424,2.478S37.2.308,37.2-1.26,35.518-3.738,32.788-3.738Zm9.52-3.7h5.516v1.806H42.308ZM45.99-1.792V-4.158h3.654v-6.734h-1.82v2H42.308v-2H40.474v6.734h3.668v2.366h-4.9v1.5H50.918v-1.5ZM53.326-5.11A4.515,4.515,0,0,0,56.42-7.07,4.464,4.464,0,0,0,59.4-5.306l.714-1.428C58.24-7.07,57.358-7.966,57.3-8.988h2.52v-1.428H57.3v-1.26H55.454v1.26h-2.52v1.428h2.52C55.4-7.9,54.516-6.9,52.584-6.538Zm7.014.168a64.261,64.261,0,0,1-8.176.378l.224,1.5c.924,0,1.96,0,3.052-.042V.812h1.848V-3.22a30.039,30.039,0,0,0,3.164-.392Zm.728-6.748V1.2h1.848V-11.69ZM73.43-.406H68.222V-1.582H73.43Zm0-2.6H68.222V-4.354H66.388V1.064h8.89V-4.354H73.43Zm1.6-3.654a16.449,16.449,0,0,0,.28-3.472v-1.036H66.444V-9.7h7.042a14.3,14.3,0,0,1-.294,3.038H65V-5.18H76.678V-6.664Zm7.588.406H80.08v-1.6h2.534Zm1.82-4.606h-1.82v1.6H80.08v-1.6H78.26v6.048h6.174ZM83.8-.21c-1.638,0-2.52-.35-2.52-1.078s.882-1.078,2.52-1.078,2.534.35,2.534,1.078S85.456-.21,83.8-.21Zm0-3.6c-2.674,0-4.354.938-4.354,2.52s1.68,2.52,4.354,2.52,4.368-.952,4.368-2.52S86.492-3.808,83.8-3.808ZM88.032-8.68v-3H86.184v7.588h1.848v-3.08H89.74V-8.68Zm10.78,2.856A3.619,3.619,0,0,1,95.76-8.96h2.59v-1.456H95.76v-1.33H93.912v1.33h-2.6V-8.96h2.6A3.721,3.721,0,0,1,90.874-5.6l.854,1.428a4.827,4.827,0,0,0,3.15-2.492,4.813,4.813,0,0,0,3.094,2.282Zm-4.1,3.7h4.956V-.392H94.71ZM92.89,1.05h8.582V-3.584H92.89Zm6.72-12.74v7.546h1.862V-11.69Z" transform="translate(1557 8307)" fill="#fff"/>
    <path id="패스_82" data-name="패스 82" d="M9.87-11.522V1.064h1.148V-11.522ZM4.4-10.556C2.534-10.556,1.2-8.848,1.2-6.174S2.534-1.792,4.4-1.792,7.588-3.5,7.588-6.174,6.258-10.556,4.4-10.556Zm0,1.036c1.218,0,2.086,1.316,2.086,3.346S5.614-2.814,4.4-2.814,2.3-4.13,2.3-6.174,3.164-9.52,4.4-9.52ZM19.292.14c-1.974,0-3.136-.49-3.136-1.344s1.162-1.344,3.136-1.344,3.136.49,3.136,1.344S21.252.14,19.292.14Zm0-3.584c-2.688,0-4.3.8-4.3,2.24s1.61,2.226,4.3,2.226,4.3-.784,4.3-2.226S21.994-3.444,19.292-3.444ZM17.556-6.776a10.9,10.9,0,0,0,1.736.14,10.944,10.944,0,0,0,1.75-.14v1.47H17.556Zm-1.5-2.184c0-.91,1.232-1.442,3.234-1.442s3.234.532,3.234,1.442-1.232,1.442-3.234,1.442S16.058-8.064,16.058-8.96Zm6.118,3.654V-7.084A2.072,2.072,0,0,0,23.7-8.96c0-1.47-1.68-2.338-4.41-2.338s-4.41.868-4.41,2.338a2.067,2.067,0,0,0,1.54,1.89v1.764H13.608v.924H24.976v-.924Zm5.684-2.24a2.06,2.06,0,0,1,2.156-2.1,2.06,2.06,0,0,1,2.156,2.1,2.06,2.06,0,0,1-2.156,2.1A2.06,2.06,0,0,1,27.86-7.546Zm5.432,0a3.081,3.081,0,0,0-3.276-3.094A3.081,3.081,0,0,0,26.74-7.546a3.081,3.081,0,0,0,3.276,3.094A3.081,3.081,0,0,0,33.292-7.546ZM29.582-3.22H28.434V.756h8.372V-.182H29.582ZM36.246-7.7v-3.822H35.1v9.24h1.148V-6.748h1.862V-7.7Zm4.9-2.3H40v7.77h.8a23.234,23.234,0,0,0,4.494-.392l-.112-.994a21.831,21.831,0,0,1-4.032.392Zm7.784-1.526v5.11H47.152v-4.83H46.074V.392h1.078V-5.46H48.93V1.022h1.106V-11.522Z" transform="translate(1480 8307)" fill="#fff"/>
    <path id="패스_94" data-name="패스 94" d="M5.46-9.058H9V-10H4.326v7.938h.826A20.619,20.619,0,0,0,9.8-2.436l-.1-.952A19.752,19.752,0,0,1,5.46-3.01Zm7.98-2.464v5.04H11.662v-4.76H10.584V.406h1.078v-5.95H13.44v6.58h1.106V-11.522ZM21.056-4.41h2.73v2.982h-2.73Zm-.2-5.026h3.122v4.1H20.86Zm4.074,8.008V-4.41h2.128v-.924H25.13v-4.1h1.946v-.924h-9.31v.924h1.946v4.1H17.794v.924h2.114v2.982H16.744V-.49h11.4v-.938ZM33.978-5.46a.933.933,0,0,0,.924-.966.941.941,0,0,0-.924-.994.941.941,0,0,0-.924.994A.933.933,0,0,0,33.978-5.46Zm0,5.642A.925.925,0,0,0,34.9-.784a.949.949,0,0,0-.924-.994.949.949,0,0,0-.924.994A.925.925,0,0,0,33.978.182ZM40.6-10.724v.938h4.55c-.224,2.128-2.142,3.78-5.208,4.578l.462.91c3.668-.98,5.978-3.22,5.978-6.426Zm2.506,7.812h5.866V-.07H43.106ZM41.986.854h8.12V-3.822h-8.12Zm6.972-12.376v7.1h1.148v-7.1ZM56.392-9.1h2.282v-.938H52.85V-9.1h2.436v.98c0,2.548-.938,4.69-2.73,5.7l.7.868a5.862,5.862,0,0,0,2.6-3.822,5.618,5.618,0,0,0,2.548,3.388l.672-.882c-1.778-.924-2.688-2.954-2.688-5.25Zm5.894-2.436v5.082H60.634v-4.788H59.556V.42h1.078V-5.5h1.652V1.036h1.106V-11.536Zm10.5,4.046H69.664v-2.632h3.122Zm-4.27,0H66.668v.924h9.114V-7.49H73.934v-2.632h1.9v-.938H66.626v.938h1.89Zm5.852,6.37c0,.812-1.162,1.274-3.122,1.274-1.988,0-3.15-.462-3.15-1.274s1.162-1.274,3.15-1.274C73.206-2.394,74.368-1.932,74.368-1.12Zm2.548-3.346V-5.4H65.562v.938h5.11v1.218c-2.352.1-3.738.826-3.738,2.128,0,1.386,1.6,2.142,4.312,2.142,2.674,0,4.284-.756,4.284-2.142,0-1.288-1.372-2.016-3.71-2.128V-4.466ZM78.75,2.66A3.115,3.115,0,0,0,80.794-.266c0-.938-.406-1.512-1.078-1.512a.91.91,0,0,0-.966.9.877.877,0,0,0,.938.9A.574.574,0,0,0,79.842,0a2.1,2.1,0,0,1-1.4,1.9Zm7.756-6.776A6.766,6.766,0,0,0,91.168-7.5a6.676,6.676,0,0,0,4.7,3.332l.462-.924c-2.184-.35-4.578-2.072-4.578-4.074v-.266h4.158v-.938H86.408v.938h4.158v.266c0,2-2.38,3.752-4.55,4.116Zm5.236,2.59V-4.564H90.594v3.038H85.47v.952h11.4v-.952Zm17.3-5.894c-2.226-.322-4.424-1.736-4.424-3.332v-.56h-1.176v.56c0,1.638-2.184,3.01-4.424,3.332l.42.9a6.353,6.353,0,0,0,4.592-2.744,6.424,6.424,0,0,0,4.578,2.744ZM104.034.14c-1.988,0-3.15-.476-3.15-1.344s1.162-1.344,3.15-1.344c1.96,0,3.122.49,3.122,1.344S105.994.14,104.034.14Zm0-3.57c-2.688,0-4.312.8-4.312,2.226s1.624,2.24,4.312,2.24,4.284-.8,4.284-2.24S106.708-3.43,104.034-3.43ZM98.35-5.53v.938H109.7V-5.53Zm22.456-.588a16.976,16.976,0,0,0,.336-3.78v-.882h-8.568v.938h7.434a14.711,14.711,0,0,1-.35,3.584ZM113.82-3.052h-1.148V.756h8.778V-.182h-7.63Zm3.22-2.212v-2.59h-1.148v2.59h-4.648v.938H122.57v-.938Z" transform="translate(424 8244)" fill="#fff"/>
    <path id="패스_91" data-name="패스 91" d="M10.542-8.05v.938h2.52v4.8h1.162v-9.2H13.062V-8.05ZM11.284-5.1a4.311,4.311,0,0,1-3.052-3.85v-.616H10.99V-10.5H4.284v.938h2.8v.63A4.576,4.576,0,0,1,3.92-4.816l.6.9A5.359,5.359,0,0,0,7.686-7.042,5.181,5.181,0,0,0,10.71-4.2ZM7.35-.182v-2.94H6.188V.756h8.386V-.182ZM24.332-10H21.168v-1.512H20.02V-10H16.828v.91h7.5ZM18.718-6.02c0-.868.756-1.442,1.876-1.442s1.876.574,1.876,1.442-.756,1.428-1.876,1.428S18.718-5.152,18.718-6.02Zm2.45,2.3a2.4,2.4,0,0,0,2.394-2.3c0-1.414-1.218-2.324-2.968-2.324s-2.968.91-2.968,2.324a2.4,2.4,0,0,0,2.394,2.3v1.372c-1.218.042-2.394.042-3.4.042l.154.966a46.349,46.349,0,0,0,7.84-.5l-.07-.854a32.826,32.826,0,0,1-3.374.308Zm7.224-2.464h-1.96v-5.334H25.284V1.036h1.148V-5.222h1.96Zm6.4.9H31.4V-7.56H34.79Zm1.134-1.75h2.9v4.816h1.162v-9.3H38.822V-7.98h-2.9v-2.7H34.79V-8.47H31.4v-2.212H30.268v6.314h5.656Zm-2.87,6.86V-3.136H31.906V.756h8.372V-.182ZM53.27-9.688H48.776v-1.638H47.628v1.638h-4.55v.938H53.27ZM45.234-5.516C45.234-6.44,46.368-7,48.2-7c1.806,0,2.926.56,2.926,1.484s-1.12,1.5-2.926,1.5C46.368-4.018,45.234-4.578,45.234-5.516Zm3.542,4.144V-3.136c2.184-.14,3.514-.98,3.514-2.38,0-1.512-1.582-2.38-4.088-2.38-2.548,0-4.13.868-4.13,2.38,0,1.4,1.344,2.254,3.556,2.38v1.764h-5.11v.938H53.9v-.938ZM59.738-5.46a.933.933,0,0,0,.924-.966.941.941,0,0,0-.924-.994.941.941,0,0,0-.924.994A.933.933,0,0,0,59.738-5.46Zm0,5.642a.925.925,0,0,0,.924-.966.949.949,0,0,0-.924-.994.949.949,0,0,0-.924.994A.925.925,0,0,0,59.738.182ZM66.052,0H71.68V-1.064H69.622v-9.2h-.98a6.5,6.5,0,0,1-2.128.728v.812h1.82v7.658H66.052ZM76.5.182c1.932,0,3.22-1.162,3.22-2.66A3,3,0,0,0,77.98-5.166v-.07a3.365,3.365,0,0,0,1.372-2.478,2.6,2.6,0,0,0-2.814-2.7,2.6,2.6,0,0,0-2.814,2.6A2.853,2.853,0,0,0,75.11-5.446v.07a3.287,3.287,0,0,0-1.89,2.828C73.22-.966,74.606.182,76.5.182Zm.7-5.754c-1.2-.476-2.31-1.008-2.31-2.24A1.577,1.577,0,0,1,76.51-9.478a1.712,1.712,0,0,1,1.75,1.834A2.753,2.753,0,0,1,77.2-5.572Zm-.672,4.8a1.968,1.968,0,0,1-2.142-1.89,2.79,2.79,0,0,1,1.4-2.324C77.238-4.4,78.5-3.878,78.5-2.506A1.778,1.778,0,0,1,76.524-.77Zm7.532.952a2.987,2.987,0,0,0,3.29-2.926,2.639,2.639,0,0,0-2.184-2.6V-5.4A2.558,2.558,0,0,0,87-7.882c0-1.652-1.26-2.576-2.982-2.576a4.109,4.109,0,0,0-2.87,1.232l.686.812a3.2,3.2,0,0,1,2.128-1.022,1.6,1.6,0,0,1,1.736,1.652c0,1.106-.728,1.96-2.842,1.96v.98c2.366,0,3.192.826,3.192,2.058a1.89,1.89,0,0,1-2.086,1.9A3.393,3.393,0,0,1,81.41-2.058l-.644.84A4.248,4.248,0,0,0,84.056.182Zm7.77,0a2.987,2.987,0,0,0,3.29-2.926,2.639,2.639,0,0,0-2.184-2.6V-5.4a2.558,2.558,0,0,0,1.834-2.478c0-1.652-1.26-2.576-2.982-2.576a4.109,4.109,0,0,0-2.87,1.232l.686.812a3.2,3.2,0,0,1,2.128-1.022,1.6,1.6,0,0,1,1.736,1.652c0,1.106-.728,1.96-2.842,1.96v.98c2.366,0,3.192.826,3.192,2.058a1.89,1.89,0,0,1-2.086,1.9A3.393,3.393,0,0,1,89.18-2.058l-.644.84A4.248,4.248,0,0,0,91.826.182ZM96.544-3.43h3.584v-.98H96.544ZM101.374,0h6.454V-1.106h-2.842c-.518,0-1.148.056-1.68.1,2.408-2.282,4.018-4.368,4.018-6.412a2.815,2.815,0,0,0-2.982-3.038,3.925,3.925,0,0,0-3.024,1.512l.742.728a2.874,2.874,0,0,1,2.128-1.19,1.8,1.8,0,0,1,1.89,2.03c0,1.764-1.484,3.808-4.7,6.622Zm7.77,0H115.6V-1.106h-2.842c-.518,0-1.148.056-1.68.1,2.408-2.282,4.018-4.368,4.018-6.412a2.815,2.815,0,0,0-2.982-3.038,3.925,3.925,0,0,0-3.024,1.512l.742.728a2.874,2.874,0,0,1,2.128-1.19,1.8,1.8,0,0,1,1.89,2.03c0,1.764-1.484,3.808-4.7,6.622Zm10.808.182a3.333,3.333,0,0,0,3.36-3.528,2.929,2.929,0,0,0-3.094-3.262,2.947,2.947,0,0,0-1.526.406l.252-2.968h3.878v-1.092h-5l-.322,4.8.686.42a2.792,2.792,0,0,1,1.708-.6A2.077,2.077,0,0,1,122.024-3.3,2.218,2.218,0,0,1,119.84-.882a3.376,3.376,0,0,1-2.52-1.134l-.63.84A4.36,4.36,0,0,0,119.952.182Zm8.008,0c1.946,0,3.192-1.778,3.192-5.348s-1.246-5.292-3.192-5.292-3.206,1.722-3.206,5.292S126,.182,127.96.182Zm0-1.022c-1.176,0-1.96-1.3-1.96-4.326,0-3,.784-4.256,1.96-4.256s1.946,1.26,1.946,4.256C129.906-2.142,129.122-.84,127.96-.84Z" transform="translate(572 8244)" fill="#fff"/>
    <path id="패스_88" data-name="패스 88" d="M3.024-9.478h1.61v3.836c-.532.028-1.092.042-1.61.056ZM7-5.838c-.406.056-.854.1-1.316.126V-9.478H6.748v-.938H.9v.938H1.974v3.92H.686l.126.952A39.907,39.907,0,0,0,7.07-5Zm-4.2,3.5h7.392V1.05H11.34V-3.262H2.8Zm7.448-9.17v3.276H8.68V-11.3H7.6v7.322H8.68v-3.3h1.568v3.374H11.34v-7.6Zm14.2,6.3c-2.2-.42-4.578-2.324-4.578-4.466v-.966h-1.2v.966c0,2.142-2.366,4.032-4.564,4.466l.518.952a6.9,6.9,0,0,0,4.648-3.626,6.814,6.814,0,0,0,4.662,3.626ZM13.622-1.6v.952H25V-1.6Zm18.032-3.7H28.266V-7.56h3.388Zm1.134-1.75h2.9v4.816h1.162v-9.3H35.686V-7.98h-2.9v-2.7H31.654V-8.47H28.266v-2.212H27.132v6.314h5.656Zm-2.87,6.86V-3.136H28.77V.756h8.372V-.182ZM50.134-9.688H45.64v-1.638H44.492v1.638h-4.55v.938H50.134ZM42.1-5.516C42.1-6.44,43.232-7,45.066-7c1.806,0,2.926.56,2.926,1.484s-1.12,1.5-2.926,1.5C43.232-4.018,42.1-4.578,42.1-5.516ZM45.64-1.372V-3.136c2.184-.14,3.514-.98,3.514-2.38,0-1.512-1.582-2.38-4.088-2.38-2.548,0-4.13.868-4.13,2.38,0,1.4,1.344,2.254,3.556,2.38v1.764h-5.11v.938H50.764v-.938ZM56.6-5.46a.933.933,0,0,0,.924-.966A.941.941,0,0,0,56.6-7.42a.941.941,0,0,0-.924.994A.933.933,0,0,0,56.6-5.46Zm-.9,8.12A3.115,3.115,0,0,0,57.75-.266c0-.938-.406-1.512-1.078-1.512a.91.91,0,0,0-.966.9.877.877,0,0,0,.938.9A.574.574,0,0,0,56.8,0a2.1,2.1,0,0,1-1.4,1.9ZM65.576.182c1.946,0,3.192-1.778,3.192-5.348s-1.246-5.292-3.192-5.292S62.37-8.736,62.37-5.166,63.616.182,65.576.182Zm0-1.022c-1.176,0-1.96-1.3-1.96-4.326,0-3,.784-4.256,1.96-4.256s1.946,1.26,1.946,4.256C67.522-2.142,66.738-.84,65.576-.84ZM70.07,0h6.454V-1.106H73.682c-.518,0-1.148.056-1.68.1C74.41-3.29,76.02-5.376,76.02-7.42a2.815,2.815,0,0,0-2.982-3.038,3.925,3.925,0,0,0-3.024,1.512l.742.728a2.874,2.874,0,0,1,2.128-1.19,1.8,1.8,0,0,1,1.89,2.03c0,1.764-1.484,3.808-4.7,6.622Zm7.8-3.43h3.584v-.98H77.868ZM85.736.182A3.333,3.333,0,0,0,89.1-3.346,2.929,2.929,0,0,0,86-6.608a2.947,2.947,0,0,0-1.526.406l.252-2.968h3.878v-1.092h-5l-.322,4.8.686.42a2.792,2.792,0,0,1,1.708-.6A2.077,2.077,0,0,1,87.808-3.3,2.218,2.218,0,0,1,85.624-.882,3.376,3.376,0,0,1,83.1-2.016l-.63.84A4.36,4.36,0,0,0,85.736.182ZM91.462-3.85,93.8-7.35c.294-.5.574-1.008.826-1.512h.056C94.654-8.33,94.6-7.5,94.6-7v3.15Zm5.712,0H95.816v-6.412H94.4l-4.27,6.594v.84H94.6V0h1.218V-2.828h1.358ZM100.394,0h1.33c.154-4.018.6-6.4,3.01-9.492v-.77H98.308V-9.17h4.97C101.276-6.37,100.562-3.892,100.394,0Zm5.642-3.43h3.584v-.98h-3.584Zm8.428,2.618c-1.288,0-2.058-1.162-2.212-3.29a2.675,2.675,0,0,1,2.1-1.316c1.246,0,1.848.882,1.848,2.268S115.444-.812,114.464-.812Zm2.758-8.6a3.153,3.153,0,0,0-2.394-1.05c-1.988,0-3.794,1.54-3.794,5.558,0,3.388,1.456,5.082,3.43,5.082A3.081,3.081,0,0,0,117.4-3.15c0-2.142-1.106-3.22-2.842-3.22a3.192,3.192,0,0,0-2.338,1.246c.056-3.192,1.246-4.27,2.646-4.27a2.17,2.17,0,0,1,1.652.784Zm4.494,9.59a2.987,2.987,0,0,0,3.29-2.926,2.639,2.639,0,0,0-2.184-2.6V-5.4a2.558,2.558,0,0,0,1.834-2.478c0-1.652-1.26-2.576-2.982-2.576a4.109,4.109,0,0,0-2.87,1.232l.686.812a3.2,3.2,0,0,1,2.128-1.022,1.6,1.6,0,0,1,1.736,1.652c0,1.106-.728,1.96-2.842,1.96v.98c2.366,0,3.192.826,3.192,2.058a1.89,1.89,0,0,1-2.086,1.9,3.393,3.393,0,0,1-2.548-1.176l-.644.84A4.248,4.248,0,0,0,121.716.182ZM130-.812c-1.288,0-2.058-1.162-2.212-3.29a2.675,2.675,0,0,1,2.1-1.316c1.246,0,1.848.882,1.848,2.268S130.984-.812,130-.812Zm2.758-8.6a3.153,3.153,0,0,0-2.394-1.05c-1.988,0-3.794,1.54-3.794,5.558,0,3.388,1.456,5.082,3.43,5.082a3.081,3.081,0,0,0,2.94-3.332c0-2.142-1.106-3.22-2.842-3.22a3.192,3.192,0,0,0-2.338,1.246c.056-3.192,1.246-4.27,2.646-4.27a2.17,2.17,0,0,1,1.652.784Zm4.494,9.59a2.987,2.987,0,0,0,3.29-2.926,2.639,2.639,0,0,0-2.184-2.6V-5.4A2.558,2.558,0,0,0,140.2-7.882c0-1.652-1.26-2.576-2.982-2.576a4.109,4.109,0,0,0-2.87,1.232l.686.812a3.2,3.2,0,0,1,2.128-1.022,1.6,1.6,0,0,1,1.736,1.652c0,1.106-.728,1.96-2.842,1.96v.98c2.366,0,3.192.826,3.192,2.058a1.89,1.89,0,0,1-2.086,1.9,3.393,3.393,0,0,1-2.548-1.176l-.644.84A4.248,4.248,0,0,0,137.256.182Z" transform="translate(729 8244)" fill="#fff"/>
    <path id="패스_92" data-name="패스 92" d="M1.862-5.418a6.348,6.348,0,0,0,4.564-2.87,6.32,6.32,0,0,0,4.564,2.87l.448-.91C9.226-6.65,7.056-8.092,7.056-9.744v-.07H10.99v-.924H1.82v.924H5.782v.07c0,1.652-2.17,3.094-4.354,3.416ZM12.1-4.368H.756v.938H5.824V1.036H6.972V-3.43H12.11ZM24.458-5.39c-2.2-.392-4.592-2.24-4.592-4.326v-.966h-1.2v.966c0,2.086-2.38,3.934-4.578,4.326l.476.952a6.769,6.769,0,0,0,4.7-3.5,6.8,6.8,0,0,0,4.7,3.5Zm-4.62,3.85V-4.592H18.69V-1.54H13.622V-.6h11.4V-1.54Zm11-3.92a.933.933,0,0,0,.924-.966.941.941,0,0,0-.924-.994.941.941,0,0,0-.924.994A.933.933,0,0,0,30.842-5.46Zm0,5.642a.925.925,0,0,0,.924-.966.949.949,0,0,0-.924-.994.949.949,0,0,0-.924.994A.925.925,0,0,0,30.842.182Zm10.22-10.626H39.914V-8.19a6.633,6.633,0,0,1-3.248,5.656l.7.91a6.967,6.967,0,0,0,3.122-4.2,6.727,6.727,0,0,0,3.15,3.976l.672-.91A6.26,6.26,0,0,1,41.062-8.19Zm4.8-1.078v4.256H42.952v.938h2.912V1.05h1.148V-11.522Zm9.352,1.008c2.058,0,3.234.476,3.234,1.316s-1.176,1.316-3.234,1.316S51.982-8.358,51.982-9.2,53.158-10.514,55.216-10.514Zm0,3.486c2.772,0,4.41-.756,4.41-2.17s-1.638-2.184-4.41-2.184-4.41.77-4.41,2.184S52.458-7.028,55.216-7.028Zm5.67,1.75V-6.2H49.546v.924h5.1V-4.1H50.918v.868H58.31v1.12H50.946V.9h8.876V0H52.066V-1.274h7.378V-4.1H55.79V-5.278Zm5.236-5.306v.924h4.55c-.21,2.17-2.1,3.878-5.082,4.76l.462.924c3.64-1.078,5.866-3.416,5.866-6.608Zm5.25,10.7c-1.806,0-2.954-.574-2.954-1.526s1.148-1.54,2.954-1.54,2.954.574,2.954,1.54S73.178.112,71.372.112Zm0-3.962c-2.478,0-4.088.91-4.088,2.436s1.61,2.436,4.088,2.436S75.46.1,75.46-1.414,73.85-3.85,71.372-3.85Zm3.934-4.424v-3.248H74.158v7.5h1.148v-3.3h1.862v-.952Zm10.458,1.4a29.45,29.45,0,0,1-5.572.532v-4.55H79.058v5.516h.98a29.3,29.3,0,0,0,5.866-.56ZM81.4-2.814h5.67V-.07H81.4ZM80.276.854h7.91V-3.738h-7.91Zm9.772-9.492H88.186v-2.884H87.038v7.1h1.148V-7.686h1.862ZM102.69-5.306h-1.862a20.729,20.729,0,0,0,.35-4.312V-10.71H92.75v.924h7.308v.168a18.563,18.563,0,0,1-.392,4.312h-8.33v.938H96.4V1.05h1.162V-4.368h5.124Zm5.208-5.278v.924h4.55c-.21,2.17-2.1,3.878-5.082,4.76l.462.924c3.64-1.078,5.866-3.416,5.866-6.608Zm5.25,10.7c-1.806,0-2.954-.574-2.954-1.526s1.148-1.54,2.954-1.54,2.954.574,2.954,1.54S114.954.112,113.148.112Zm0-3.962c-2.478,0-4.088.91-4.088,2.436s1.61,2.436,4.088,2.436,4.088-.924,4.088-2.436S115.626-3.85,113.148-3.85Zm3.934-4.424v-3.248h-1.148v7.5h1.148v-3.3h1.862v-.952Zm10.458,1.4a29.45,29.45,0,0,1-5.572.532v-4.55h-1.134v5.516h.98a29.3,29.3,0,0,0,5.866-.56Zm-4.368,4.06h5.67V-.07h-5.67ZM122.052.854h7.91V-3.738h-7.91Zm9.772-9.492h-1.862v-2.884h-1.148v7.1h1.148V-7.686h1.862Zm2.856-.42h3.542V-10h-4.676v7.938h.826a20.619,20.619,0,0,0,4.648-.378l-.1-.952a19.752,19.752,0,0,1-4.242.378Zm7.98-2.464v5.04h-1.778v-4.76H139.8V.406h1.078v-5.95h1.778v6.58h1.106V-11.522Zm9.576,10.066V-3.822h4.018v-.924h-7.728v-2.03h7.434V-10.6h-8.6v.938h7.476V-7.7h-7.448v3.878h3.682v2.366h-5.11v.938h11.41v-.938ZM164.906.182a3.333,3.333,0,0,0,3.36-3.528,2.929,2.929,0,0,0-3.094-3.262,2.947,2.947,0,0,0-1.526.406L163.9-9.17h3.878v-1.092h-5l-.322,4.8.686.42a2.792,2.792,0,0,1,1.708-.6A2.077,2.077,0,0,1,166.978-3.3a2.218,2.218,0,0,1-2.184,2.422,3.376,3.376,0,0,1-2.52-1.134l-.63.84A4.36,4.36,0,0,0,164.906.182Zm8.022,0c1.932,0,3.22-1.162,3.22-2.66a3,3,0,0,0-1.736-2.688v-.07a3.365,3.365,0,0,0,1.372-2.478,2.6,2.6,0,0,0-2.814-2.7,2.6,2.6,0,0,0-2.814,2.6,2.853,2.853,0,0,0,1.386,2.366v.07a3.287,3.287,0,0,0-1.89,2.828C169.652-.966,171.038.182,172.928.182Zm.7-5.754c-1.2-.476-2.31-1.008-2.31-2.24a1.577,1.577,0,0,1,1.624-1.666,1.712,1.712,0,0,1,1.75,1.834A2.753,2.753,0,0,1,173.628-5.572Zm-.672,4.8a1.968,1.968,0,0,1-2.142-1.89,2.79,2.79,0,0,1,1.4-2.324c1.456.588,2.716,1.106,2.716,2.478A1.778,1.778,0,0,1,172.956-.77Zm7.728.952c1.946,0,3.192-1.778,3.192-5.348s-1.246-5.292-3.192-5.292-3.206,1.722-3.206,5.292S178.724.182,180.684.182Zm0-1.022c-1.176,0-1.96-1.3-1.96-4.326,0-3,.784-4.256,1.96-4.256s1.946,1.26,1.946,4.256C182.63-2.142,181.846-.84,180.684-.84ZM191.6.182c1.932,0,3.22-1.162,3.22-2.66a3,3,0,0,0-1.736-2.688v-.07a3.365,3.365,0,0,0,1.372-2.478,2.6,2.6,0,0,0-2.814-2.7,2.6,2.6,0,0,0-2.814,2.6,2.853,2.853,0,0,0,1.386,2.366v.07a3.287,3.287,0,0,0-1.89,2.828C188.328-.966,189.714.182,191.6.182Zm.7-5.754c-1.2-.476-2.31-1.008-2.31-2.24a1.577,1.577,0,0,1,1.624-1.666,1.712,1.712,0,0,1,1.75,1.834A2.753,2.753,0,0,1,192.3-5.572Zm-.672,4.8a1.968,1.968,0,0,1-2.142-1.89,2.79,2.79,0,0,1,1.4-2.324c1.456.588,2.716,1.106,2.716,2.478A1.778,1.778,0,0,1,191.632-.77Zm5.6-5.194c2.072-.21,3.892-.952,4.662-2.184.756,1.232,2.59,1.974,4.662,2.184l.35-.882c-2.366-.224-4.284-1.162-4.4-2.534H206.4v-.91h-3.934v-1.274H201.32v1.274h-3.934v.91h3.878c-.112,1.372-2.044,2.31-4.382,2.534ZM201.88.154c-1.988,0-3.136-.434-3.136-1.218S199.892-2.3,201.88-2.3s3.136.448,3.136,1.232S203.854.154,201.88.154Zm0-3.3c-2.7,0-4.3.728-4.3,2.086s1.6,2.086,4.3,2.086,4.3-.728,4.3-2.086S204.582-3.15,201.88-3.15Zm-5.67-1.988v.924h11.354v-.924Z" transform="translate(395 8203)" fill="#fff"/>
    <path id="패스_89" data-name="패스 89" d="M9.492-8.19H3.332v-2h6.16ZM10.626-11.1H2.212V-7.28h8.414Zm1.47,5.8V-6.23H.728v.924h5.11v1.232H2.1v.868H9.506v1.12H2.142V.9h8.876V0H3.262V-1.246H10.64V-4.074H6.986V-5.306ZM22.47-8.666H15.008v3.332h8.9v-.924H16.156V-7.8h7.476v-3.234H14.966v.924h7.5ZM25-4.032h-11.4v.924h2.968V1.05h1.148V-3.108h3.164V1.05h1.148V-3.108H25Zm12.1-7.49H35.994V-2.1H37.1ZM33.544-2.464h1.078V-11.27H33.544v2.912h-1.96v.938h1.96ZM32.676-5.11a4.1,4.1,0,0,1-2.464-3.682V-10.64H29.106v1.848a4.634,4.634,0,0,1-2.576,4l.644.882a5.221,5.221,0,0,0,2.492-2.912,4.687,4.687,0,0,0,2.38,2.59ZM30.058-.182V-3.248H28.91v4h8.554V-.182ZM41.1-5.922H45.22v-.924H41.1v-2.59h4.662v-.952h-5.81v8.414h.966a30.529,30.529,0,0,0,5.74-.392L46.536-3.3a28.361,28.361,0,0,1-5.432.392Zm7.476-5.614V-6.79H45.99v.952h2.59V1.05h1.148V-11.536ZM56.6-5.46a.933.933,0,0,0,.924-.966A.941.941,0,0,0,56.6-7.42a.941.941,0,0,0-.924.994A.933.933,0,0,0,56.6-5.46Zm0,5.642a.925.925,0,0,0,.924-.966.949.949,0,0,0-.924-.994.949.949,0,0,0-.924.994A.925.925,0,0,0,56.6.182ZM71.61-8.274v1.68H68.32v.938h3.29V-4h1.162v-7.5H71.61v2.3H68.768a7.2,7.2,0,0,0,.14-1.358h-5.67v.924h4.424c-.21,2.17-2.072,3.836-5.068,4.732l.462.91c2.7-.784,4.606-2.254,5.418-4.27ZM68.67.084c-1.848,0-3.024-.574-3.024-1.526s1.176-1.512,3.024-1.512,3.024.574,3.024,1.512S70.518.084,68.67.084Zm0-3.948c-2.534,0-4.158.91-4.158,2.422S66.136.98,68.67.98s4.158-.91,4.158-2.422S71.2-3.864,68.67-3.864Zm7.378-6.3v.924h4.718c-.238,2.982-1.918,5.39-5.292,7l.616.938c4.172-2.044,5.838-5.236,5.838-8.862Zm8.414-1.358V1.036H85.61V-11.522ZM94.444-1.5v-3.22h3.822v-.924h-7.49V-9.576H98.14v-.938H89.628v5.8h3.654V-1.5h-5.11v.952h11.41V-1.5ZM113.386-3.78h1.162v-7.728h-1.162v2.226h-2.072v.938h2.072v1.316h-2.072v.938h2.072Zm-6.454-5.866h1.89v4.074c-.63.028-1.274.056-1.89.07ZM111.58-5.8c-.518.07-1.078.126-1.638.168V-9.646h1.246v-.924H104.58v.924h1.246v4.158c-.56.014-1.106.014-1.582.014l.126.952a49.935,49.935,0,0,0,7.28-.42ZM110.4.126c-1.9,0-3.038-.5-3.038-1.386,0-.854,1.134-1.372,3.038-1.372s3.038.518,3.038,1.372C113.442-.378,112.308.126,110.4.126Zm0-3.64c-2.6,0-4.186.812-4.186,2.254S107.8,1.022,110.4,1.022,114.576.2,114.576-1.26,112.994-3.514,110.4-3.514Zm12.558-2.324a19.728,19.728,0,0,1-4.228.336V-7.21h3.6v-.882h-3.6V-9.674h3.738V-10.6h-4.844v6.034h.8a21.432,21.432,0,0,0,4.648-.35Zm-3.724,3.514h7.294v3.36h1.148V-3.248h-8.442Zm7.336-9.184v3.262h-1.68v-3.038H123.8V-3.99h1.092V-7.308h1.68v3.4h1.106v-7.6Zm7.84,1.078H133.28v2.254a6.6,6.6,0,0,1-3.374,5.67l.7.938a6.978,6.978,0,0,0,3.248-4.214,6.819,6.819,0,0,0,3.234,3.976l.686-.924a6.246,6.246,0,0,1-3.36-5.446Zm4.676-1.092V1.064h1.148V-11.522Zm11.284,1.078h-1.148V-8.19a6.633,6.633,0,0,1-3.248,5.656l.7.91a6.967,6.967,0,0,0,3.122-4.2,6.727,6.727,0,0,0,3.15,3.976l.672-.91a6.26,6.26,0,0,1-3.248-5.432Zm4.8-1.078v4.256h-2.912v.938h2.912V1.05h1.148V-11.522Zm10.808,6.1a27.924,27.924,0,0,1-5.4.364V-6.93h4.368v-.91H160.58V-9.59h4.592v-.924h-5.74v6.37h.952a28.788,28.788,0,0,0,5.726-.364Zm-4.046,2.366H160.79V.756h8.372V-.182h-7.224ZM168.6-7.616v-3.906h-1.148v9.31H168.6V-6.664h1.862v-.952Zm8.316,2.142h-3.472V-9.506h3.472Zm4-2.9v1.75h-2.884v-1.75Zm-2.884,2.688h2.884v3.332h1.162v-9.156h-1.162v2.2h-2.884v-1.106h-5.726v5.852h5.726Zm-2.884,5.5V-3.164h-1.148V.756h8.372V-.182Zm17-10.262H191V-8.19a6.633,6.633,0,0,1-3.248,5.656l.7.91a6.967,6.967,0,0,0,3.122-4.2,6.727,6.727,0,0,0,3.15,3.976l.672-.91A6.26,6.26,0,0,1,192.15-8.19Zm4.8-1.078v4.256H194.04v.938h2.912V1.05H198.1V-11.522Zm10.808,6.1a27.924,27.924,0,0,1-5.4.364V-6.93h4.368v-.91h-4.368V-9.59h4.592v-.924h-5.74v6.37h.952a28.788,28.788,0,0,0,5.726-.364Zm-4.046,2.366h-1.148V.756h8.372V-.182h-7.224Zm6.664-4.564v-3.906H209.23v9.31h1.148V-6.664h1.862v-.952ZM213.388,0h6.454V-1.106H217c-.518,0-1.148.056-1.68.1,2.408-2.282,4.018-4.368,4.018-6.412a2.815,2.815,0,0,0-2.982-3.038,3.925,3.925,0,0,0-3.024,1.512l.742.728a2.874,2.874,0,0,1,2.128-1.19,1.8,1.8,0,0,1,1.89,2.03c0,1.764-1.484,3.808-4.7,6.622Zm14.154-1.456V-3.822h4.018v-.924h-7.728v-2.03h7.434V-10.6h-8.6v.938h7.476V-7.7H222.7v3.878h3.682v2.366h-5.11v.938h11.41v-.938Zm12.67-3.388c-1.218,0-1.834-.9-1.834-2.282s.756-2.324,1.736-2.324c1.316,0,2.1,1.12,2.24,3.234A2.712,2.712,0,0,1,240.212-4.844ZM237.37-.868a3.265,3.265,0,0,0,2.464,1.05c1.932,0,3.724-1.6,3.724-5.754,0-3.262-1.47-4.886-3.444-4.886a3.081,3.081,0,0,0-2.94,3.332c0,2.128,1.12,3.234,2.828,3.234a3.164,3.164,0,0,0,2.366-1.274c-.1,3.192-1.246,4.284-2.576,4.284a2.316,2.316,0,0,1-1.722-.784ZM247.1,0h1.33c.154-4.018.6-6.4,3.01-9.492v-.77h-6.426V-9.17h4.97C247.982-6.37,247.268-3.892,247.1,0Z" transform="translate(628 8203)" fill="#fff"/>
    <path id="패스_83" data-name="패스 83" d="M4.956-10.43H3.822v2.254A6.654,6.654,0,0,1,.588-2.562l.686.924A6.955,6.955,0,0,0,4.4-5.8,6.927,6.927,0,0,0,7.434-1.89l.714-.91A6.341,6.341,0,0,1,4.956-8.176Zm7.518,4H10.4v-5.082H9.254V1.036H10.4v-6.51h2.072ZM22.82-.056H17.066V-1.68H22.82Zm0-2.52H17.066V-4.158H15.932V.868h8.036V-4.158H22.82Zm-5.768-3.5a1.98,1.98,0,0,1-2.142-1.96,1.969,1.969,0,0,1,2.142-1.946,1.969,1.969,0,0,1,2.142,1.946A1.98,1.98,0,0,1,17.052-6.076Zm5.754-5.432v2.982H20.244a2.99,2.99,0,0,0-3.192-2.408,2.952,2.952,0,0,0-3.234,2.9,2.955,2.955,0,0,0,3.234,2.912,3,3,0,0,0,3.206-2.464h2.548v2.814h1.162v-6.734ZM30.73-9.282h2.786v-.952h-6.79v.952H29.6v1.6a6.565,6.565,0,0,1-3.3,5.4l.672.91A7.089,7.089,0,0,0,30.17-5.53a6.776,6.776,0,0,0,3.15,3.85l.658-.924A6.039,6.039,0,0,1,30.73-7.686Zm7.5,2.828H36.162v-5.054H35.014V1.036h1.148V-5.488h2.072ZM49.42-7.672H41.958v-2.422h7.378v-.924H40.81v4.27h8.61ZM45.052.126c-1.974,0-3.136-.49-3.136-1.372s1.162-1.372,3.136-1.372,3.136.49,3.136,1.372S47.012.126,45.052.126Zm0-3.64c-2.674,0-4.3.812-4.3,2.268s1.624,2.268,4.3,2.268,4.3-.812,4.3-2.268S47.726-3.514,45.052-3.514Zm-5.67-2.03v.952H50.75v-.952Zm14.14,3.766H61.11v2.7h1.148v-3.64H53.522ZM58.534-4.62V-5.936h3.92v-.9h-7.6V-8.148h7.336V-11.2h-8.5v.9h7.364V-9H53.718v3.066h3.654V-4.62H52.248v.938h11.4V-4.62Zm11.76-.672H66.906V-7.56h3.388Zm1.134-1.75h2.9v4.816h1.162v-9.3H74.326V-7.98h-2.9v-2.7H70.294V-8.47H66.906v-2.212H65.772v6.314h5.656Zm-2.87,6.86V-3.136H67.41V.756h8.372V-.182ZM88.774-9.688H84.28v-1.638H83.132v1.638h-4.55v.938H88.774ZM80.738-5.516C80.738-6.44,81.872-7,83.706-7c1.806,0,2.926.56,2.926,1.484s-1.12,1.5-2.926,1.5C81.872-4.018,80.738-4.578,80.738-5.516ZM84.28-1.372V-3.136c2.184-.14,3.514-.98,3.514-2.38,0-1.512-1.582-2.38-4.088-2.38-2.548,0-4.13.868-4.13,2.38,0,1.4,1.344,2.254,3.556,2.38v1.764h-5.11v.938H89.4v-.938ZM95.242-5.46a.933.933,0,0,0,.924-.966.941.941,0,0,0-.924-.994.941.941,0,0,0-.924.994A.933.933,0,0,0,95.242-5.46Zm0,5.642a.925.925,0,0,0,.924-.966.949.949,0,0,0-.924-.994.949.949,0,0,0-.924.994A.925.925,0,0,0,95.242.182ZM100.94,0h6.454V-1.106h-2.842c-.518,0-1.148.056-1.68.1,2.408-2.282,4.018-4.368,4.018-6.412a2.815,2.815,0,0,0-2.982-3.038,3.925,3.925,0,0,0-3.024,1.512l.742.728a2.874,2.874,0,0,1,2.128-1.19,1.8,1.8,0,0,1,1.89,2.03c0,1.764-1.484,3.808-4.7,6.622Zm8.386,0h5.628V-1.064H112.9v-9.2h-.98a6.5,6.5,0,0,1-2.128.728v.812h1.82v7.658h-2.282Zm7.77,0h5.628V-1.064h-2.058v-9.2h-.98a6.5,6.5,0,0,1-2.128.728v.812h1.82v7.658H117.1Zm7.182-3.43h3.584v-.98h-3.584ZM132.4.182c1.932,0,3.22-1.162,3.22-2.66a3,3,0,0,0-1.736-2.688v-.07a3.365,3.365,0,0,0,1.372-2.478,2.6,2.6,0,0,0-2.814-2.7,2.6,2.6,0,0,0-2.814,2.6,2.853,2.853,0,0,0,1.386,2.366v.07a3.287,3.287,0,0,0-1.89,2.828C129.122-.966,130.508.182,132.4.182Zm.7-5.754c-1.2-.476-2.31-1.008-2.31-2.24a1.577,1.577,0,0,1,1.624-1.666,1.712,1.712,0,0,1,1.75,1.834A2.753,2.753,0,0,1,133.1-5.572Zm-.672,4.8a1.968,1.968,0,0,1-2.142-1.89,2.79,2.79,0,0,1,1.4-2.324c1.456.588,2.716,1.106,2.716,2.478A1.778,1.778,0,0,1,132.426-.77Zm5.068.77h5.628V-1.064h-2.058v-9.2h-.98a6.5,6.5,0,0,1-2.128.728v.812h1.82v7.658h-2.282Zm7.182-3.43h3.584v-.98h-3.584Zm7.91,3.612a2.987,2.987,0,0,0,3.29-2.926,2.639,2.639,0,0,0-2.184-2.6V-5.4a2.558,2.558,0,0,0,1.834-2.478c0-1.652-1.26-2.576-2.982-2.576a4.109,4.109,0,0,0-2.87,1.232l.686.812a3.2,3.2,0,0,1,2.128-1.022,1.6,1.6,0,0,1,1.736,1.652c0,1.106-.728,1.96-2.842,1.96v.98c2.366,0,3.192.826,3.192,2.058a1.89,1.89,0,0,1-2.086,1.9,3.393,3.393,0,0,1-2.548-1.176l-.644.84A4.248,4.248,0,0,0,152.586.182Zm7.728-5.026c-1.218,0-1.834-.9-1.834-2.282s.756-2.324,1.736-2.324c1.316,0,2.1,1.12,2.24,3.234A2.712,2.712,0,0,1,160.314-4.844ZM157.472-.868a3.265,3.265,0,0,0,2.464,1.05c1.932,0,3.724-1.6,3.724-5.754,0-3.262-1.47-4.886-3.444-4.886a3.081,3.081,0,0,0-2.94,3.332c0,2.128,1.12,3.234,2.828,3.234a3.164,3.164,0,0,0,2.366-1.274c-.1,3.192-1.246,4.284-2.576,4.284a2.316,2.316,0,0,1-1.722-.784ZM168.084.182a3.333,3.333,0,0,0,3.36-3.528,2.929,2.929,0,0,0-3.094-3.262,2.947,2.947,0,0,0-1.526.406l.252-2.968h3.878v-1.092h-5l-.322,4.8.686.42a2.792,2.792,0,0,1,1.708-.6A2.077,2.077,0,0,1,170.156-3.3a2.218,2.218,0,0,1-2.184,2.422,3.376,3.376,0,0,1-2.52-1.134l-.63.84A4.36,4.36,0,0,0,168.084.182ZM172.816,0h6.454V-1.106h-2.842c-.518,0-1.148.056-1.68.1,2.408-2.282,4.018-4.368,4.018-6.412a2.815,2.815,0,0,0-2.982-3.038,3.925,3.925,0,0,0-3.024,1.512l.742.728a2.874,2.874,0,0,1,2.128-1.19,1.8,1.8,0,0,1,1.89,2.03c0,1.764-1.484,3.808-4.7,6.622ZM181.2,0h5.628V-1.064h-2.058v-9.2h-.98a6.5,6.5,0,0,1-2.128.728v.812h1.82v7.658H181.2Z" transform="translate(905 8203)" fill="#fff"/>
    <path id="패스_84" data-name="패스 84" d="M6.412.154C4.4.154,3.262-.238,3.262-.994S4.4-2.142,6.412-2.142s3.15.406,3.15,1.148S8.442.154,6.412.154Zm0-3.15c-2.73,0-4.3.7-4.3,2s1.568,2.016,4.3,2.016,4.3-.7,4.3-2.016S9.142-3,6.412-3Zm.574-1.876V-6.1h3.78V-7H3.374V-8.232H10.36V-9.1H3.374v-1.162H10.7v-.9H2.226V-6.1H5.838v1.232H.728v.924H12.1v-.924Zm16.94-6.65H22.778V-2.31h1.148ZM21.182-5.264a4.658,4.658,0,0,1-3.136-4.284v-1.274H16.9v1.274a4.893,4.893,0,0,1-3.15,4.508l.6.938a5.634,5.634,0,0,0,3.136-3.36A5.413,5.413,0,0,0,20.58-4.354ZM17-.182V-3.164H15.848V.756H24.3V-.182Zm12.25-9.24h2v4.214c-.672.042-1.344.056-2,.07Zm4.942,3.976c-.588.084-1.2.14-1.834.168V-9.422H33.6v-.924H26.894v.924h1.232V-5.11c-.56.014-1.092.014-1.582.014l.126.952a52.031,52.031,0,0,0,7.6-.448Zm-4.606,2.31H28.434V.756h8.372V-.182H29.582ZM36.246-7.7v-3.822H35.1v9.254h1.148v-4.48h1.862V-7.7Zm4.662-1.456H43.54v5.908H40.908ZM39.83-2.338H44.6v-7.728H39.83Zm9.128-9.184v4.97H47.264v-4.69H46.186V.406h1.078v-6.02h1.694V1.022H50.05V-11.522ZM61.46-.056H55.706V-1.68H61.46Zm0-2.52H55.706V-4.158H54.572V.868h8.036V-4.158H61.46Zm-5.768-3.5a1.98,1.98,0,0,1-2.142-1.96,1.969,1.969,0,0,1,2.142-1.946,1.969,1.969,0,0,1,2.142,1.946A1.98,1.98,0,0,1,55.692-6.076Zm5.754-5.432v2.982H58.884a2.99,2.99,0,0,0-3.192-2.408,2.952,2.952,0,0,0-3.234,2.9,2.955,2.955,0,0,0,3.234,2.912A3,3,0,0,0,58.9-7.588h2.548v2.814h1.162v-6.734Zm14-.014H74.3V-2.31h1.148ZM72.7-5.264a4.658,4.658,0,0,1-3.136-4.284v-1.274H68.418v1.274a4.893,4.893,0,0,1-3.15,4.508l.6.938a5.634,5.634,0,0,0,3.136-3.36A5.413,5.413,0,0,0,72.1-4.354ZM68.516-.182V-3.164H67.368V.756h8.456V-.182ZM86.884-9.016a26.81,26.81,0,0,1-.476,5.684l1.148.126a28.308,28.308,0,0,0,.476-5.81v-1.246H79.226v.938h7.658Zm-3.29,7.35V-6.16H82.446v4.494h-4.41v.938H89.39v-.938Zm12.46-3.626H92.666V-7.56h3.388Zm1.134-1.75h2.9v4.816h1.162v-9.3h-1.162V-7.98h-2.9v-2.7H96.054V-8.47H92.666v-2.212H91.532v6.314h5.656Zm-2.87,6.86V-3.136H93.17V.756h8.372V-.182Zm20.216-9.506H110.04v-1.638h-1.148v1.638h-4.55v.938h10.192ZM106.5-5.516C106.5-6.44,107.632-7,109.466-7c1.806,0,2.926.56,2.926,1.484s-1.12,1.5-2.926,1.5C107.632-4.018,106.5-4.578,106.5-5.516Zm3.542,4.144V-3.136c2.184-.14,3.514-.98,3.514-2.38,0-1.512-1.582-2.38-4.088-2.38-2.548,0-4.13.868-4.13,2.38,0,1.4,1.344,2.254,3.556,2.38v1.764h-5.11v.938h11.382v-.938ZM121-5.46a.933.933,0,0,0,.924-.966A.941.941,0,0,0,121-7.42a.941.941,0,0,0-.924.994A.933.933,0,0,0,121-5.46Zm0,5.642a.925.925,0,0,0,.924-.966A.949.949,0,0,0,121-1.778a.949.949,0,0,0-.924.994A.925.925,0,0,0,121,.182ZM126.7,0h6.454V-1.106h-2.842c-.518,0-1.148.056-1.68.1,2.408-2.282,4.018-4.368,4.018-6.412a2.815,2.815,0,0,0-2.982-3.038,3.925,3.925,0,0,0-3.024,1.512l.742.728a2.874,2.874,0,0,1,2.128-1.19,1.8,1.8,0,0,1,1.89,2.03c0,1.764-1.484,3.808-4.7,6.622Zm11.046.182c1.946,0,3.192-1.778,3.192-5.348s-1.246-5.292-3.192-5.292-3.206,1.722-3.206,5.292S135.786.182,137.746.182Zm0-1.022c-1.176,0-1.96-1.3-1.96-4.326,0-3,.784-4.256,1.96-4.256s1.946,1.26,1.946,4.256C139.692-2.142,138.908-.84,137.746-.84Zm7.77,1.022c1.946,0,3.192-1.778,3.192-5.348s-1.246-5.292-3.192-5.292-3.206,1.722-3.206,5.292S143.556.182,145.516.182Zm0-1.022c-1.176,0-1.96-1.3-1.96-4.326,0-3,.784-4.256,1.96-4.256s1.946,1.26,1.946,4.256C147.462-2.142,146.678-.84,145.516-.84Zm7.532-4c-1.218,0-1.834-.9-1.834-2.282s.756-2.324,1.736-2.324c1.316,0,2.1,1.12,2.24,3.234A2.712,2.712,0,0,1,153.048-4.844ZM150.206-.868A3.265,3.265,0,0,0,152.67.182c1.932,0,3.724-1.6,3.724-5.754,0-3.262-1.47-4.886-3.444-4.886a3.081,3.081,0,0,0-2.94,3.332c0,2.128,1.12,3.234,2.828,3.234A3.164,3.164,0,0,0,155.2-5.166c-.1,3.192-1.246,4.284-2.576,4.284a2.316,2.316,0,0,1-1.722-.784Zm7.6-2.562h3.584v-.98h-3.584Zm9.352-7.014h-1.148V-8.19a6.633,6.633,0,0,1-3.248,5.656l.7.91a6.967,6.967,0,0,0,3.122-4.2,6.727,6.727,0,0,0,3.15,3.976l.672-.91A6.26,6.26,0,0,1,167.16-8.19Zm4.8-1.078v4.256H169.05v.938h2.912V1.05h1.148V-11.522Zm9.352,1.008c2.058,0,3.234.476,3.234,1.316s-1.176,1.316-3.234,1.316S178.08-8.358,178.08-9.2,179.256-10.514,181.314-10.514Zm0,3.486c2.772,0,4.41-.756,4.41-2.17s-1.638-2.184-4.41-2.184-4.41.77-4.41,2.184S178.556-7.028,181.314-7.028Zm5.67,1.75V-6.2h-11.34v.924h5.1V-4.1h-3.724v.868h7.392v1.12h-7.364V.9h8.876V0h-7.756V-1.274h7.378V-4.1h-3.654V-5.278Zm2.1-5.306v.924h4.55c-.21,2.17-2.1,3.878-5.082,4.76l.462.924c3.64-1.078,5.866-3.416,5.866-6.608Zm5.25,10.7c-1.806,0-2.954-.574-2.954-1.526s1.148-1.54,2.954-1.54,2.954.574,2.954,1.54S196.14.112,194.334.112Zm0-3.962c-2.478,0-4.088.91-4.088,2.436s1.61,2.436,4.088,2.436,4.088-.924,4.088-2.436S196.812-3.85,194.334-3.85Zm3.934-4.424v-3.248H197.12v7.5h1.148v-3.3h1.862v-.952Zm10.458,1.4a29.449,29.449,0,0,1-5.572.532v-4.55H202.02v5.516H203a29.3,29.3,0,0,0,5.866-.56Zm-4.368,4.06h5.67V-.07h-5.67ZM203.238.854h7.91V-3.738h-7.91Zm9.772-9.492h-1.862v-2.884H210v7.1h1.148V-7.686h1.862Zm1.176,5.208h3.584v-.98h-3.584ZM222.292.182c1.946,0,3.192-1.778,3.192-5.348s-1.246-5.292-3.192-5.292-3.206,1.722-3.206,5.292S220.332.182,222.292.182Zm0-1.022c-1.176,0-1.96-1.3-1.96-4.326,0-3,.784-4.256,1.96-4.256s1.946,1.26,1.946,4.256C224.238-2.142,223.454-.84,222.292-.84Zm4.494.84h6.454V-1.106H230.4c-.518,0-1.148.056-1.68.1,2.408-2.282,4.018-4.368,4.018-6.412a2.815,2.815,0,0,0-2.982-3.038,3.925,3.925,0,0,0-3.024,1.512l.742.728a2.874,2.874,0,0,1,2.128-1.19,1.8,1.8,0,0,1,1.89,2.03c0,1.764-1.484,3.808-4.7,6.622Zm8.386,0H240.8V-1.064h-2.058v-9.2h-.98a6.5,6.5,0,0,1-2.128.728v.812h1.82v7.658h-2.282Zm8.148-3.85,2.338-3.5c.294-.5.574-1.008.826-1.512h.056c-.028.532-.084,1.358-.084,1.862v3.15Zm5.712,0h-1.358v-6.412H246.26l-4.27,6.594v.84h4.466V0h1.218V-2.828h1.358ZM253.176.182a2.987,2.987,0,0,0,3.29-2.926,2.639,2.639,0,0,0-2.184-2.6V-5.4a2.558,2.558,0,0,0,1.834-2.478c0-1.652-1.26-2.576-2.982-2.576a4.109,4.109,0,0,0-2.87,1.232l.686.812a3.2,3.2,0,0,1,2.128-1.022,1.6,1.6,0,0,1,1.736,1.652c0,1.106-.728,1.96-2.842,1.96v.98c2.366,0,3.192.826,3.192,2.058a1.89,1.89,0,0,1-2.086,1.9,3.393,3.393,0,0,1-2.548-1.176l-.644.84A4.248,4.248,0,0,0,253.176.182Z" transform="translate(1199 8203)" fill="#fff"/>
    <g id="그룹_93" data-name="그룹 93" transform="translate(-12 31.125)">
      <g id="사각형_207" data-name="사각형 207" transform="translate(1112 8151.876)" fill="none" stroke="#fff" stroke-width="0.7">
        <rect width="74" height="28" stroke="none"/>
        <rect x="0.35" y="0.35" width="73.3" height="27.3" fill="none"/>
      </g>
      <text id="사업자정보확인" transform="translate(1119 8169.875)" fill="#fff" font-size="9" font-family="NotoSansCJKkr-Regular, Noto Sans CJK KR"><tspan x="0" y="0">사업자정보확인</tspan></text>
    </g>
  </g>
</svg>
