<svg xmlns="http://www.w3.org/2000/svg" width="597.66" height="52.36" viewBox="0 0 597.66 52.36">
  <path id="패스_71" data-name="패스 71" d="M4.83,0H40.18V-9.24H15.82V-49.98H4.83ZM46.34,0H84.28V-9.24H57.33V-21.49H81.55v-8.54H57.33V-40.74H83.72v-9.24H46.34ZM86.38,0H97.51l3.92-11.13h18.69L123.9,0h11.41L116.62-49.98H105.35Zm24.43-37.66h.14l6.3,18.34H104.3ZM150.71,0H161.7V-40.74h14.98v-9.24H135.73v9.24h14.98Zm31.71,0h10.99V-21.56h20.23V0h10.99V-49.98H213.64V-30.8H193.41V-49.98H182.42Zm51.87,0h37.94V-9.24H245.28V-21.49H269.5v-8.54H245.28V-40.74h26.39v-9.24H234.29Zm45.36,0h10.99V-19.53h10.99q4.06,0,5.915,1.75t2.415,5.81q.21,1.4.42,4.06.21,2.87.455,4.69A11.594,11.594,0,0,0,311.71,0H322.7a9.779,9.779,0,0,1-1.435-4.06q-.385-2.52-.6-6.09-.07-1.4-.07-1.68a18.643,18.643,0,0,0-1.925-7.6,8.066,8.066,0,0,0-5.355-4.1v-.14a11.768,11.768,0,0,0,5.985-4.795,14.689,14.689,0,0,0,1.925-7.735,14.025,14.025,0,0,0-1.015-5.355,13.287,13.287,0,0,0-2.94-4.41,13.176,13.176,0,0,0-4.655-2.975,16.641,16.641,0,0,0-6.02-1.05H279.65Zm10.99-41.44h12.04q3.78,0,5.67,1.68t1.89,5.25q0,3.71-1.89,5.425t-5.67,1.715H290.64ZM386.89,0h7V-27.02h-21v8.19h11.06q-.49,5.25-3.535,8.015T372.05-8.05a13.044,13.044,0,0,1-6.16-1.365,11.7,11.7,0,0,1-4.235-3.745,16.681,16.681,0,0,1-2.415-5.355,24.912,24.912,0,0,1-.77-6.265,26.756,26.756,0,0,1,.77-6.51,17.018,17.018,0,0,1,2.38-5.46,11.626,11.626,0,0,1,4.235-3.78,12.983,12.983,0,0,1,6.2-1.4,10.9,10.9,0,0,1,6.825,2.17,10.38,10.38,0,0,1,3.745,6.23h10.5a19.088,19.088,0,0,0-2.275-7.455,18.024,18.024,0,0,0-4.76-5.565,21.633,21.633,0,0,0-6.545-3.43,23.953,23.953,0,0,0-7.49-1.19A25.446,25.446,0,0,0,361.8-49.175a21.851,21.851,0,0,0-7.77,5.6,24.98,24.98,0,0,0-4.865,8.435,31.319,31.319,0,0,0-1.68,10.36,30.276,30.276,0,0,0,1.68,10.15,24.342,24.342,0,0,0,4.865,8.295,22.262,22.262,0,0,0,7.77,5.53,25.445,25.445,0,0,0,10.255,2,17.537,17.537,0,0,0,7.42-1.645,16.8,16.8,0,0,0,6.3-5.215Zm13.72-24.78a30.276,30.276,0,0,0,1.68,10.15,24.342,24.342,0,0,0,4.865,8.295,22.262,22.262,0,0,0,7.77,5.53,25.445,25.445,0,0,0,10.255,2,25.445,25.445,0,0,0,10.255-2,22.4,22.4,0,0,0,7.8-5.565,24.038,24.038,0,0,0,4.865-8.3A30.551,30.551,0,0,0,449.75-24.78a31.925,31.925,0,0,0-1.645-10.36,24.23,24.23,0,0,0-4.865-8.435,22.192,22.192,0,0,0-7.8-5.6A25.446,25.446,0,0,0,425.18-51.17a25.446,25.446,0,0,0-10.255,1.995,21.851,21.851,0,0,0-7.77,5.6,24.98,24.98,0,0,0-4.865,8.435A31.319,31.319,0,0,0,400.61-24.78Zm10.99,0a26.756,26.756,0,0,1,.77-6.51,17.018,17.018,0,0,1,2.38-5.46,11.626,11.626,0,0,1,4.235-3.78,12.983,12.983,0,0,1,6.2-1.4,12.983,12.983,0,0,1,6.195,1.4,11.626,11.626,0,0,1,4.235,3.78,17.018,17.018,0,0,1,2.38,5.46,26.756,26.756,0,0,1,.77,6.51,24.912,24.912,0,0,1-.77,6.265,16.706,16.706,0,0,1-2.38,5.32,11.748,11.748,0,0,1-4.235,3.745,12.983,12.983,0,0,1-6.195,1.4,13.044,13.044,0,0,1-6.16-1.365,11.7,11.7,0,0,1-4.235-3.745,16.681,16.681,0,0,1-2.415-5.355A24.912,24.912,0,0,1,411.6-24.78Zm43.47,0a30.276,30.276,0,0,0,1.68,10.15,24.342,24.342,0,0,0,4.865,8.295,22.262,22.262,0,0,0,7.77,5.53,25.445,25.445,0,0,0,10.255,2,25.445,25.445,0,0,0,10.255-2,22.4,22.4,0,0,0,7.8-5.565,24.038,24.038,0,0,0,4.865-8.3A30.551,30.551,0,0,0,504.21-24.78a31.925,31.925,0,0,0-1.645-10.36,24.23,24.23,0,0,0-4.865-8.435,22.192,22.192,0,0,0-7.8-5.6A25.446,25.446,0,0,0,479.64-51.17a25.446,25.446,0,0,0-10.255,1.995,21.851,21.851,0,0,0-7.77,5.6,24.98,24.98,0,0,0-4.865,8.435A31.319,31.319,0,0,0,455.07-24.78Zm10.99,0a26.756,26.756,0,0,1,.77-6.51,17.018,17.018,0,0,1,2.38-5.46,11.626,11.626,0,0,1,4.235-3.78,12.983,12.983,0,0,1,6.2-1.4,12.983,12.983,0,0,1,6.2,1.4,11.626,11.626,0,0,1,4.235,3.78,17.018,17.018,0,0,1,2.38,5.46,26.756,26.756,0,0,1,.77,6.51,24.912,24.912,0,0,1-.77,6.265,16.706,16.706,0,0,1-2.38,5.32,11.749,11.749,0,0,1-4.235,3.745,12.983,12.983,0,0,1-6.2,1.4,13.044,13.044,0,0,1-6.16-1.365,11.7,11.7,0,0,1-4.235-3.745,16.681,16.681,0,0,1-2.415-5.355A24.912,24.912,0,0,1,466.06-24.78ZM511.7,0h21.56a24.58,24.58,0,0,0,9.87-1.855,19.059,19.059,0,0,0,7.14-5.285,22.628,22.628,0,0,0,4.27-8.015,34.527,34.527,0,0,0,1.4-10.115q0-12.04-6.265-18.375T533.26-49.98H511.7Zm10.99-40.74h7.84q7.84,0,11.13,4.235t3.29,12.285a20.95,20.95,0,0,1-1.015,6.9,12.445,12.445,0,0,1-2.765,4.69,10.583,10.583,0,0,1-3.955,2.59,13.671,13.671,0,0,1-4.725.805h-9.8Zm37.73,24.15a17.242,17.242,0,0,0,1.715,7.875,15.636,15.636,0,0,0,4.69,5.6A20.353,20.353,0,0,0,573.615.14,30.344,30.344,0,0,0,581.7,1.19q9.87,0,15.33-4.445a14.232,14.232,0,0,0,5.46-11.585,12.847,12.847,0,0,0-1.54-6.475,12.66,12.66,0,0,0-3.85-4.27,20.389,20.389,0,0,0-4.41-2.345,45.525,45.525,0,0,0-4.62-1.4,1.321,1.321,0,0,1-.42-.07,5.872,5.872,0,0,0-1.12-.28q-5.25-1.33-7.56-2.03a27.471,27.471,0,0,1-3.71-1.365,4.577,4.577,0,0,1-1.96-1.54,4.306,4.306,0,0,1-.56-2.345,4.69,4.69,0,0,1,2.24-4.27,9.832,9.832,0,0,1,5.32-1.4,12.918,12.918,0,0,1,7.035,1.68q2.625,1.68,2.835,5.88h10.64a15.514,15.514,0,0,0-1.61-7.28,14.064,14.064,0,0,0-4.375-5.04,18.893,18.893,0,0,0-6.37-2.87,31.224,31.224,0,0,0-7.665-.91,24.844,24.844,0,0,0-6.825.945,19.846,19.846,0,0,0-6.02,2.835,13.925,13.925,0,0,0-4.27,4.76,13.453,13.453,0,0,0-1.575,6.58,12.631,12.631,0,0,0,1.225,5.775,11.455,11.455,0,0,0,3.29,3.99A18.675,18.675,0,0,0,571.2-23.73a61.069,61.069,0,0,0,5.81,1.89q1.19.28,3.22.84,3.08.7,4.9,1.26a19.818,19.818,0,0,1,3.36,1.365,7.451,7.451,0,0,1,2.45,1.96,4.439,4.439,0,0,1,.91,2.835,4.965,4.965,0,0,1-.91,3.045,6.2,6.2,0,0,1-2.415,1.925,12.348,12.348,0,0,1-3.15.98,19.371,19.371,0,0,1-3.255.28,13.128,13.128,0,0,1-7.945-2.275Q571.06-11.9,571.06-16.59Z" transform="translate(-4.83 51.17)"/>
</svg>
