<svg xmlns="http://www.w3.org/2000/svg" width="108.961" height="14.56" viewBox="0 0 108.961 14.56">
  <path id="패스_63" data-name="패스 63" d="M1.1,0h8.08V-2.112H3.616v-9.312H1.1ZM18.192-3.584v-.208a1.7,1.7,0,0,0,.016-.192,5.579,5.579,0,0,0-.264-1.728,4.444,4.444,0,0,0-.768-1.44,3.555,3.555,0,0,0-1.264-.984,4.009,4.009,0,0,0-1.736-.36,4.392,4.392,0,0,0-1.712.328,3.894,3.894,0,0,0-1.344.92,4.142,4.142,0,0,0-.864,1.392,4.825,4.825,0,0,0-.3,1.728,5.055,5.055,0,0,0,.3,1.752A4,4,0,0,0,11.1-.984a3.687,3.687,0,0,0,1.336.9,4.679,4.679,0,0,0,1.744.312A4.161,4.161,0,0,0,16.6-.456a3.929,3.929,0,0,0,1.448-2.1h-2a1.333,1.333,0,0,1-.624.744,2.118,2.118,0,0,1-1.168.328A1.992,1.992,0,0,1,12.784-2a2.313,2.313,0,0,1-.56-1.584Zm-5.968-1.44a2.276,2.276,0,0,1,.112-.568,1.737,1.737,0,0,1,.32-.568,1.722,1.722,0,0,1,.584-.448,1.971,1.971,0,0,1,.872-.176,1.639,1.639,0,0,1,1.224.432,2.481,2.481,0,0,1,.584,1.328ZM24.688-3.2a3.55,3.55,0,0,1-.048.568,1.843,1.843,0,0,1-.224.608,1.365,1.365,0,0,1-.56.52,2.114,2.114,0,0,1-1.008.208,1.923,1.923,0,0,1-1.016-.232.89.89,0,0,1-.376-.824.963.963,0,0,1,.352-.824,2.453,2.453,0,0,1,.992-.392l.544-.08q.528-.08.84-.16a1.268,1.268,0,0,0,.5-.24ZM21.712-5.728a1.3,1.3,0,0,1,.448-.952,1.69,1.69,0,0,1,1.056-.3,2.178,2.178,0,0,1,1.088.224.95.95,0,0,1,.384.9.673.673,0,0,1-.464.688,7.041,7.041,0,0,1-1.488.3q-.416.048-.736.1a6.965,6.965,0,0,0-1.088.224,3.061,3.061,0,0,0-.872.416,1.921,1.921,0,0,0-.624.736,2.522,2.522,0,0,0-.232,1.136,2.234,2.234,0,0,0,.784,1.848A3.137,3.137,0,0,0,22,.224a4.756,4.756,0,0,0,1.544-.248A3.084,3.084,0,0,0,24.784-.8a3.116,3.116,0,0,0,.16.8h2.3a2.042,2.042,0,0,1-.216-.728A7.683,7.683,0,0,1,26.96-1.84v-4.3a2.049,2.049,0,0,0-.32-1.176,2.137,2.137,0,0,0-.84-.728A3.927,3.927,0,0,0,24.648-8.4a8.784,8.784,0,0,0-1.32-.1,6.965,6.965,0,0,0-1.4.136,3.889,3.889,0,0,0-1.216.464,2.6,2.6,0,0,0-.888.864,2.739,2.739,0,0,0-.384,1.3ZM31.6-10.752H29.328v2.48H27.952v1.52h1.376v4.88a2.155,2.155,0,0,0,.2.984,1.471,1.471,0,0,0,.56.608,2.365,2.365,0,0,0,.816.3A6.01,6.01,0,0,0,31.936.1a8.53,8.53,0,0,0,1.328-.08V-1.76a3.6,3.6,0,0,1-.7.064,1.112,1.112,0,0,1-.768-.192,1.112,1.112,0,0,1-.192-.768v-4.1h1.664v-1.52H31.6ZM34.352,0h2.272V-4.336a3.069,3.069,0,0,1,.416-1.816A1.574,1.574,0,0,1,38.384-6.7a1.253,1.253,0,0,1,1.12.5,2.779,2.779,0,0,1,.336,1.536V0h2.272V-5.088a6.7,6.7,0,0,0-.136-1.432,2.6,2.6,0,0,0-.48-1.056,2.212,2.212,0,0,0-.936-.68,3.936,3.936,0,0,0-1.472-.24,2.828,2.828,0,0,0-1.336.352,2.8,2.8,0,0,0-1.08,1.024h-.048v-4.3H34.352ZM51.68-3.584v-.208a1.7,1.7,0,0,0,.016-.192,5.579,5.579,0,0,0-.264-1.728,4.444,4.444,0,0,0-.768-1.44A3.555,3.555,0,0,0,49.4-8.136a4.009,4.009,0,0,0-1.736-.36,4.392,4.392,0,0,0-1.712.328,3.894,3.894,0,0,0-1.344.92,4.142,4.142,0,0,0-.864,1.392,4.824,4.824,0,0,0-.3,1.728,5.056,5.056,0,0,0,.3,1.752,4,4,0,0,0,.848,1.392,3.687,3.687,0,0,0,1.336.9,4.679,4.679,0,0,0,1.744.312,4.161,4.161,0,0,0,2.424-.68,3.929,3.929,0,0,0,1.448-2.1h-2a1.333,1.333,0,0,1-.624.744,2.118,2.118,0,0,1-1.168.328A1.992,1.992,0,0,1,46.272-2a2.313,2.313,0,0,1-.56-1.584Zm-5.968-1.44a2.276,2.276,0,0,1,.112-.568,1.737,1.737,0,0,1,.32-.568,1.722,1.722,0,0,1,.584-.448,1.971,1.971,0,0,1,.872-.176,1.639,1.639,0,0,1,1.224.432,2.481,2.481,0,0,1,.584,1.328ZM53.024,0H55.3V-3.728a3.177,3.177,0,0,1,.536-1.928,1.975,1.975,0,0,1,1.7-.728,4.284,4.284,0,0,1,.44.024,3.42,3.42,0,0,1,.376.056V-8.416a1.558,1.558,0,0,0-.5-.08,2.831,2.831,0,0,0-1.584.5,2.681,2.681,0,0,0-1.056,1.264h-.032V-8.272h-2.16ZM71.648-8.272h-2.16v1.1h-.032a2.465,2.465,0,0,0-1.008-1.016A3.154,3.154,0,0,0,66.992-8.5a3.37,3.37,0,0,0-1.512.328,3.241,3.241,0,0,0-1.12.9,4.058,4.058,0,0,0-.688,1.312A5.132,5.132,0,0,0,63.44-4.4a6.1,6.1,0,0,0,.208,1.632,3.851,3.851,0,0,0,.64,1.32A2.948,2.948,0,0,0,65.4-.56a3.663,3.663,0,0,0,1.576.32,3.29,3.29,0,0,0,1.448-.328,2.3,2.3,0,0,0,1.032-.952h.032V-.432a2.278,2.278,0,0,1-.456,1.5,1.672,1.672,0,0,1-1.368.552,2.142,2.142,0,0,1-1.1-.264A1.3,1.3,0,0,1,65.968.48H63.712a2.316,2.316,0,0,0,.368,1.184,2.713,2.713,0,0,0,.856.832,4.1,4.1,0,0,0,1.152.48,5.164,5.164,0,0,0,1.272.16,5.973,5.973,0,0,0,2.216-.352,3.159,3.159,0,0,0,1.32-.912A3.054,3.054,0,0,0,71.5.7a5.061,5.061,0,0,0,.152-1.232Zm-4.1,6.32a1.633,1.633,0,0,1-.856-.216,1.678,1.678,0,0,1-.576-.568,2.54,2.54,0,0,1-.312-.784,4.2,4.2,0,0,1-.1-.912,2.888,2.888,0,0,1,.464-1.68,1.563,1.563,0,0,1,1.376-.672,1.9,1.9,0,0,1,.9.2,1.574,1.574,0,0,1,.6.552,2.546,2.546,0,0,1,.328.808,4.42,4.42,0,0,1,.1.984,2.617,2.617,0,0,1-.5,1.616A1.684,1.684,0,0,1,67.552-1.952Zm5.664-2.176a4.32,4.32,0,0,0,1.168,3.16,4.149,4.149,0,0,0,3.1,1.192,4.17,4.17,0,0,0,3.12-1.192,4.32,4.32,0,0,0,1.168-3.16A4.342,4.342,0,0,0,80.608-7.3,4.17,4.17,0,0,0,77.488-8.5a4.149,4.149,0,0,0-3.1,1.192A4.342,4.342,0,0,0,73.216-4.128Zm2.272,0a4.638,4.638,0,0,1,.1-1,2.713,2.713,0,0,1,.336-.848,1.664,1.664,0,0,1,.624-.592,1.912,1.912,0,0,1,.936-.216,1.947,1.947,0,0,1,.952.216,1.664,1.664,0,0,1,.624.592,2.713,2.713,0,0,1,.336.848,4.638,4.638,0,0,1,.1,1,4.528,4.528,0,0,1-.1.992,2.719,2.719,0,0,1-.336.84,1.664,1.664,0,0,1-.624.592,1.947,1.947,0,0,1-.952.216,1.912,1.912,0,0,1-.936-.216,1.664,1.664,0,0,1-.624-.592,2.719,2.719,0,0,1-.336-.84A4.528,4.528,0,0,1,75.488-4.128Zm7.5,0A4.32,4.32,0,0,0,84.16-.968a4.149,4.149,0,0,0,3.1,1.192,4.17,4.17,0,0,0,3.12-1.192,4.32,4.32,0,0,0,1.168-3.16A4.342,4.342,0,0,0,90.384-7.3,4.17,4.17,0,0,0,87.264-8.5,4.149,4.149,0,0,0,84.16-7.3,4.342,4.342,0,0,0,82.992-4.128Zm2.272,0a4.638,4.638,0,0,1,.1-1,2.713,2.713,0,0,1,.336-.848,1.664,1.664,0,0,1,.624-.592,1.912,1.912,0,0,1,.936-.216,1.947,1.947,0,0,1,.952.216,1.664,1.664,0,0,1,.624.592,2.713,2.713,0,0,1,.336.848,4.638,4.638,0,0,1,.1,1,4.528,4.528,0,0,1-.1.992,2.719,2.719,0,0,1-.336.84,1.664,1.664,0,0,1-.624.592,1.947,1.947,0,0,1-.952.216,1.912,1.912,0,0,1-.936-.216A1.664,1.664,0,0,1,85.7-2.3a2.719,2.719,0,0,1-.336-.84A4.528,4.528,0,0,1,85.264-4.128ZM98.928,0h2.16V-11.424H98.816v4.16h-.032a2.421,2.421,0,0,0-1.032-.912,3.22,3.22,0,0,0-1.416-.32,3.51,3.51,0,0,0-1.576.344A3.249,3.249,0,0,0,93.6-7.2a4.292,4.292,0,0,0-.7,1.376,5.558,5.558,0,0,0-.232,1.616A5.918,5.918,0,0,0,92.9-2.536a4.351,4.351,0,0,0,.7,1.416,3.39,3.39,0,0,0,1.176.984,3.464,3.464,0,0,0,1.6.36,3.371,3.371,0,0,0,1.48-.312A2.373,2.373,0,0,0,98.9-1.056h.032ZM98.9-4.16a5.1,5.1,0,0,1-.1,1.016,2.579,2.579,0,0,1-.328.848,1.7,1.7,0,0,1-.608.592,1.82,1.82,0,0,1-.92.216,1.7,1.7,0,0,1-.888-.224,1.886,1.886,0,0,1-.624-.608,2.868,2.868,0,0,1-.368-.856,3.913,3.913,0,0,1-.12-.968,4.638,4.638,0,0,1,.1-1,2.6,2.6,0,0,1,.344-.848,1.68,1.68,0,0,1,.624-.584,1.924,1.924,0,0,1,.928-.208,1.888,1.888,0,0,1,.912.208A1.579,1.579,0,0,1,98.464-6a2.74,2.74,0,0,1,.328.832A4.607,4.607,0,0,1,98.9-4.16Zm3.5,1.472a2.9,2.9,0,0,0,.36,1.352,2.6,2.6,0,0,0,.872.912,3.841,3.841,0,0,0,1.216.5,6.517,6.517,0,0,0,1.44.152A6.333,6.333,0,0,0,107.7.072a3.863,3.863,0,0,0,1.2-.488,2.443,2.443,0,0,0,.848-.9,2.721,2.721,0,0,0,.312-1.344,2.02,2.02,0,0,0-.208-.944,1.8,1.8,0,0,0-.576-.656,3.691,3.691,0,0,0-.816-.424,7.668,7.668,0,0,0-1.024-.3q-.176-.048-.624-.144a8.2,8.2,0,0,1-1.472-.416.7.7,0,0,1-.48-.672.6.6,0,0,1,.368-.608,2.244,2.244,0,0,1,.9-.16,2.1,2.1,0,0,1,1.1.248,1.037,1.037,0,0,1,.456.872h2.16a2.842,2.842,0,0,0-.376-1.248,2.389,2.389,0,0,0-.816-.816,3.693,3.693,0,0,0-1.12-.44,6.2,6.2,0,0,0-1.336-.136,6.806,6.806,0,0,0-1.352.128,3.759,3.759,0,0,0-1.144.424,2.142,2.142,0,0,0-.808.824,2.581,2.581,0,0,0-.3,1.28,1.786,1.786,0,0,0,.216.9,1.865,1.865,0,0,0,.584.624,3.459,3.459,0,0,0,.808.4,9.344,9.344,0,0,0,1.016.28,12.059,12.059,0,0,1,2,.552.793.793,0,0,1,.576.728.857.857,0,0,1-.448.8,2.059,2.059,0,0,1-1.04.256,2.11,2.11,0,0,1-1.232-.344,1.226,1.226,0,0,1-.512-1.048Z" transform="translate(-1.104 11.424)"/>
</svg>
