<svg xmlns="http://www.w3.org/2000/svg" width="77.265" height="11.647" viewBox="0 0 77.265 11.647">
  <path id="패스_61" data-name="패스 61" d="M1.1,0H3.616V-11.424H1.1ZM11.488,0h2.16V-11.424H11.376v4.16h-.032a2.421,2.421,0,0,0-1.032-.912A3.22,3.22,0,0,0,8.9-8.5a3.51,3.51,0,0,0-1.576.344A3.249,3.249,0,0,0,6.16-7.2a4.292,4.292,0,0,0-.7,1.376,5.558,5.558,0,0,0-.232,1.616,5.918,5.918,0,0,0,.232,1.672,4.351,4.351,0,0,0,.7,1.416,3.39,3.39,0,0,0,1.176.984,3.464,3.464,0,0,0,1.6.36,3.371,3.371,0,0,0,1.48-.312,2.373,2.373,0,0,0,1.032-.968h.032Zm-.032-4.16a5.1,5.1,0,0,1-.1,1.016,2.579,2.579,0,0,1-.328.848,1.7,1.7,0,0,1-.608.592,1.82,1.82,0,0,1-.92.216,1.7,1.7,0,0,1-.888-.224,1.886,1.886,0,0,1-.624-.608,2.868,2.868,0,0,1-.368-.856,3.913,3.913,0,0,1-.12-.968,4.638,4.638,0,0,1,.1-1,2.6,2.6,0,0,1,.344-.848,1.68,1.68,0,0,1,.624-.584A1.924,1.924,0,0,1,9.5-6.784a1.888,1.888,0,0,1,.912.208A1.579,1.579,0,0,1,11.024-6a2.74,2.74,0,0,1,.328.832A4.607,4.607,0,0,1,11.456-4.16ZM15.424,0H17.7V-11.424H15.424Zm3.808-4.128A4.32,4.32,0,0,0,20.4-.968,4.149,4.149,0,0,0,23.5.224a4.17,4.17,0,0,0,3.12-1.192,4.32,4.32,0,0,0,1.168-3.16A4.342,4.342,0,0,0,26.624-7.3,4.17,4.17,0,0,0,23.5-8.5,4.149,4.149,0,0,0,20.4-7.3,4.342,4.342,0,0,0,19.232-4.128Zm2.272,0a4.638,4.638,0,0,1,.1-1,2.713,2.713,0,0,1,.336-.848,1.664,1.664,0,0,1,.624-.592,1.912,1.912,0,0,1,.936-.216,1.947,1.947,0,0,1,.952.216,1.664,1.664,0,0,1,.624.592,2.713,2.713,0,0,1,.336.848,4.638,4.638,0,0,1,.1,1,4.528,4.528,0,0,1-.1.992,2.719,2.719,0,0,1-.336.84,1.664,1.664,0,0,1-.624.592,1.947,1.947,0,0,1-.952.216,1.912,1.912,0,0,1-.936-.216,1.664,1.664,0,0,1-.624-.592,2.719,2.719,0,0,1-.336-.84A4.528,4.528,0,0,1,21.5-4.128Zm7.5,0a4.32,4.32,0,0,0,1.168,3.16A4.149,4.149,0,0,0,33.28.224,4.17,4.17,0,0,0,36.4-.968a4.32,4.32,0,0,0,1.168-3.16A4.342,4.342,0,0,0,36.4-7.3,4.17,4.17,0,0,0,33.28-8.5a4.149,4.149,0,0,0-3.1,1.192A4.342,4.342,0,0,0,29.008-4.128Zm2.272,0a4.638,4.638,0,0,1,.1-1,2.713,2.713,0,0,1,.336-.848,1.664,1.664,0,0,1,.624-.592,1.912,1.912,0,0,1,.936-.216,1.947,1.947,0,0,1,.952.216,1.664,1.664,0,0,1,.624.592,2.713,2.713,0,0,1,.336.848,4.638,4.638,0,0,1,.1,1,4.529,4.529,0,0,1-.1.992,2.719,2.719,0,0,1-.336.84,1.664,1.664,0,0,1-.624.592,1.947,1.947,0,0,1-.952.216,1.912,1.912,0,0,1-.936-.216A1.664,1.664,0,0,1,31.72-2.3a2.719,2.719,0,0,1-.336-.84A4.528,4.528,0,0,1,31.28-4.128ZM39.248,0H41.52V-2.848L42.4-3.7,44.672,0h2.752L43.952-5.232l3.12-3.04H44.384L41.52-5.3v-6.128H39.248Zm9.04,0H50.56V-4.8a2.354,2.354,0,0,1,.168-.944,1.636,1.636,0,0,1,.408-.592,1.4,1.4,0,0,1,.5-.288A1.571,1.571,0,0,1,52.1-6.7a1.534,1.534,0,0,1,.76.16,1.014,1.014,0,0,1,.416.432,1.71,1.71,0,0,1,.168.608q.032.336.032.864V0h2.272V-4.608a4.64,4.64,0,0,1,.064-.808,2.07,2.07,0,0,1,.224-.648,1.212,1.212,0,0,1,.464-.464,1.515,1.515,0,0,1,.768-.176,1.61,1.61,0,0,1,.752.152.958.958,0,0,1,.424.424,1.833,1.833,0,0,1,.176.608,7.223,7.223,0,0,1,.04.832V0h2.272V-5.536a2.848,2.848,0,0,0-.808-2.248A3.235,3.235,0,0,0,57.9-8.5a2.731,2.731,0,0,0-1.456.392,3.342,3.342,0,0,0-1.04.984,2.136,2.136,0,0,0-.952-1.04A3.073,3.073,0,0,0,52.992-8.5a2.951,2.951,0,0,0-1.432.352,3.185,3.185,0,0,0-1.1.992h-.032v-1.12H48.288ZM67.872-3.2a3.55,3.55,0,0,1-.048.568,1.843,1.843,0,0,1-.224.608,1.365,1.365,0,0,1-.56.52,2.114,2.114,0,0,1-1.008.208,1.923,1.923,0,0,1-1.016-.232.89.89,0,0,1-.376-.824.963.963,0,0,1,.352-.824,2.453,2.453,0,0,1,.992-.392l.544-.08q.528-.08.84-.16a1.268,1.268,0,0,0,.5-.24ZM64.9-5.728a1.3,1.3,0,0,1,.448-.952,1.69,1.69,0,0,1,1.056-.3,2.178,2.178,0,0,1,1.088.224.95.95,0,0,1,.384.9.673.673,0,0,1-.464.688,7.041,7.041,0,0,1-1.488.3q-.416.048-.736.1a6.965,6.965,0,0,0-1.088.224,3.061,3.061,0,0,0-.872.416,1.921,1.921,0,0,0-.624.736,2.522,2.522,0,0,0-.232,1.136,2.234,2.234,0,0,0,.784,1.848,3.137,3.137,0,0,0,2.032.632,4.756,4.756,0,0,0,1.544-.248A3.084,3.084,0,0,0,67.968-.8a3.116,3.116,0,0,0,.16.8h2.3a2.042,2.042,0,0,1-.216-.728,7.684,7.684,0,0,1-.072-1.112v-4.3a2.049,2.049,0,0,0-.32-1.176,2.137,2.137,0,0,0-.84-.728A3.927,3.927,0,0,0,67.832-8.4a8.784,8.784,0,0,0-1.32-.1,6.965,6.965,0,0,0-1.4.136A3.889,3.889,0,0,0,63.9-7.9a2.6,2.6,0,0,0-.888.864,2.739,2.739,0,0,0-.384,1.3ZM71.968,0H74.24V-11.424H71.968ZM76.1,0h2.272V-11.424H76.1Z" transform="translate(-1.104 11.424)" fill="#fff"/>
</svg>
