<svg xmlns="http://www.w3.org/2000/svg" width="72.435" height="10.92" viewBox="0 0 72.435 10.92">
  <path id="패스_217" data-name="패스 217" d="M1.035,0H3.39V-10.71H1.035ZM10.77,0H12.8V-10.71h-2.13v3.9h-.03a2.27,2.27,0,0,0-.968-.855,3.019,3.019,0,0,0-1.327-.3,3.29,3.29,0,0,0-1.477.322,3.046,3.046,0,0,0-1.088.892,4.024,4.024,0,0,0-.653,1.29A5.211,5.211,0,0,0,4.9-3.945a5.549,5.549,0,0,0,.217,1.568,4.079,4.079,0,0,0,.66,1.328,3.178,3.178,0,0,0,1.1.922,3.248,3.248,0,0,0,1.5.338A3.16,3.16,0,0,0,9.773-.083,2.225,2.225,0,0,0,10.74-.99h.03Zm-.03-3.9a4.777,4.777,0,0,1-.09.953,2.418,2.418,0,0,1-.307.8,1.6,1.6,0,0,1-.57.555,1.707,1.707,0,0,1-.863.2,1.6,1.6,0,0,1-.833-.21,1.768,1.768,0,0,1-.585-.57,2.688,2.688,0,0,1-.345-.8,3.669,3.669,0,0,1-.113-.907,4.348,4.348,0,0,1,.1-.938,2.439,2.439,0,0,1,.323-.8,1.575,1.575,0,0,1,.585-.547,1.8,1.8,0,0,1,.87-.2,1.77,1.77,0,0,1,.855.2,1.48,1.48,0,0,1,.57.54,2.569,2.569,0,0,1,.307.78A4.319,4.319,0,0,1,10.74-3.9ZM14.46,0h2.13V-10.71H14.46Zm3.57-3.87a4.05,4.05,0,0,0,1.1,2.963A3.89,3.89,0,0,0,22.035.21,3.909,3.909,0,0,0,24.96-.908a4.05,4.05,0,0,0,1.1-2.963,4.071,4.071,0,0,0-1.1-2.977,3.909,3.909,0,0,0-2.925-1.117,3.89,3.89,0,0,0-2.91,1.117A4.071,4.071,0,0,0,18.03-3.87Zm2.13,0a4.348,4.348,0,0,1,.1-.938,2.543,2.543,0,0,1,.315-.8,1.56,1.56,0,0,1,.585-.555,1.792,1.792,0,0,1,.878-.2,1.825,1.825,0,0,1,.892.2,1.56,1.56,0,0,1,.585.555,2.543,2.543,0,0,1,.315.8,4.348,4.348,0,0,1,.1.938,4.245,4.245,0,0,1-.1.93,2.549,2.549,0,0,1-.315.788,1.56,1.56,0,0,1-.585.555,1.825,1.825,0,0,1-.892.2,1.792,1.792,0,0,1-.878-.2,1.56,1.56,0,0,1-.585-.555,2.549,2.549,0,0,1-.315-.788A4.245,4.245,0,0,1,20.16-3.87Zm7.035,0a4.05,4.05,0,0,0,1.1,2.963A3.89,3.89,0,0,0,31.2.21,3.909,3.909,0,0,0,34.125-.908a4.05,4.05,0,0,0,1.1-2.963,4.071,4.071,0,0,0-1.1-2.977A3.909,3.909,0,0,0,31.2-7.965a3.89,3.89,0,0,0-2.91,1.117A4.071,4.071,0,0,0,27.195-3.87Zm2.13,0a4.348,4.348,0,0,1,.1-.938,2.543,2.543,0,0,1,.315-.8,1.56,1.56,0,0,1,.585-.555,1.792,1.792,0,0,1,.878-.2,1.825,1.825,0,0,1,.892.2,1.56,1.56,0,0,1,.585.555,2.543,2.543,0,0,1,.315.8,4.348,4.348,0,0,1,.1.938,4.245,4.245,0,0,1-.1.93,2.549,2.549,0,0,1-.315.788,1.56,1.56,0,0,1-.585.555,1.825,1.825,0,0,1-.892.2,1.792,1.792,0,0,1-.878-.2,1.56,1.56,0,0,1-.585-.555,2.549,2.549,0,0,1-.315-.788A4.245,4.245,0,0,1,29.325-3.87ZM36.8,0h2.13V-2.67l.825-.8L41.88,0h2.58L41.205-4.905l2.925-2.85H41.61l-2.685,2.79V-10.71H36.8ZM45.27,0H47.4V-4.5a2.207,2.207,0,0,1,.158-.885,1.533,1.533,0,0,1,.382-.555,1.31,1.31,0,0,1,.465-.27,1.472,1.472,0,0,1,.435-.075,1.438,1.438,0,0,1,.713.15.95.95,0,0,1,.39.4,1.6,1.6,0,0,1,.158.57q.03.315.03.81V0h2.13V-4.32a4.35,4.35,0,0,1,.06-.758,1.941,1.941,0,0,1,.21-.607,1.136,1.136,0,0,1,.435-.435,1.421,1.421,0,0,1,.72-.165,1.51,1.51,0,0,1,.7.142.9.9,0,0,1,.4.4,1.719,1.719,0,0,1,.165.57,6.772,6.772,0,0,1,.037.78V0h2.13V-5.19A2.67,2.67,0,0,0,56.363-7.3a3.033,3.033,0,0,0-2.077-.667A2.56,2.56,0,0,0,52.92-7.6a3.133,3.133,0,0,0-.975.922,2,2,0,0,0-.892-.975,2.881,2.881,0,0,0-1.373-.315,2.766,2.766,0,0,0-1.342.33,2.986,2.986,0,0,0-1.028.93h-.03v-1.05H45.27ZM63.63-3a3.328,3.328,0,0,1-.045.532,1.728,1.728,0,0,1-.21.57,1.279,1.279,0,0,1-.525.488,1.982,1.982,0,0,1-.945.2,1.8,1.8,0,0,1-.952-.218A.834.834,0,0,1,60.6-2.2a.9.9,0,0,1,.33-.773,2.3,2.3,0,0,1,.93-.367l.51-.075q.495-.075.787-.15A1.189,1.189,0,0,0,63.63-3.8ZM60.84-5.37a1.215,1.215,0,0,1,.42-.892,1.585,1.585,0,0,1,.99-.278,2.042,2.042,0,0,1,1.02.21.89.89,0,0,1,.36.84.631.631,0,0,1-.435.645A6.6,6.6,0,0,1,61.8-4.56q-.39.045-.69.09a6.53,6.53,0,0,0-1.02.21,2.87,2.87,0,0,0-.817.39,1.8,1.8,0,0,0-.585.69,2.364,2.364,0,0,0-.217,1.065,2.094,2.094,0,0,0,.735,1.732,2.941,2.941,0,0,0,1.9.593,4.458,4.458,0,0,0,1.448-.233A2.891,2.891,0,0,0,63.72-.75a2.921,2.921,0,0,0,.15.75h2.16a1.914,1.914,0,0,1-.2-.683,7.2,7.2,0,0,1-.067-1.042V-5.76a1.921,1.921,0,0,0-.3-1.1,2,2,0,0,0-.787-.682,3.681,3.681,0,0,0-1.08-.33,8.235,8.235,0,0,0-1.237-.09,6.53,6.53,0,0,0-1.312.127A3.646,3.646,0,0,0,59.9-7.4a2.436,2.436,0,0,0-.832.81,2.568,2.568,0,0,0-.36,1.223ZM67.47,0H69.6V-10.71H67.47Zm3.87,0h2.13V-10.71H71.34Z" transform="translate(-1.035 10.71)" fill="#525252"/>
</svg>
