<svg xmlns="http://www.w3.org/2000/svg" width="62.944" height="14.336" viewBox="0 0 62.944 14.336">
  <path id="패스_62" data-name="패스 62" d="M7.792-11.424H5.28v7.712q0,.416-.024.7a1.623,1.623,0,0,1-.152.56,1.011,1.011,0,0,1-.408.44,1.437,1.437,0,0,1-.744.168,1.253,1.253,0,0,1-1.144-.488A2.642,2.642,0,0,1,2.5-3.744v-.512H.224v.992a3.829,3.829,0,0,0,.3,1.576,2.943,2.943,0,0,0,.84,1.112,3.6,3.6,0,0,0,1.208.64A4.735,4.735,0,0,0,3.984.272,4.533,4.533,0,0,0,5.96-.1a2.868,2.868,0,0,0,1.168-.96,3.485,3.485,0,0,0,.528-1.224A6.3,6.3,0,0,0,7.792-3.6ZM17.6-3.584v-.208a1.7,1.7,0,0,0,.016-.192,5.579,5.579,0,0,0-.264-1.728,4.444,4.444,0,0,0-.768-1.44,3.555,3.555,0,0,0-1.264-.984,4.009,4.009,0,0,0-1.736-.36,4.392,4.392,0,0,0-1.712.328,3.894,3.894,0,0,0-1.344.92,4.142,4.142,0,0,0-.864,1.392,4.825,4.825,0,0,0-.3,1.728,5.055,5.055,0,0,0,.3,1.752A4,4,0,0,0,10.5-.984a3.687,3.687,0,0,0,1.336.9,4.679,4.679,0,0,0,1.744.312,4.161,4.161,0,0,0,2.424-.68,3.929,3.929,0,0,0,1.448-2.1h-2a1.333,1.333,0,0,1-.624.744,2.118,2.118,0,0,1-1.168.328A1.992,1.992,0,0,1,12.192-2a2.313,2.313,0,0,1-.56-1.584Zm-5.968-1.44a2.276,2.276,0,0,1,.112-.568,1.737,1.737,0,0,1,.32-.568,1.722,1.722,0,0,1,.584-.448,1.971,1.971,0,0,1,.872-.176,1.639,1.639,0,0,1,1.224.432,2.481,2.481,0,0,1,.584,1.328ZM31.008-8.272H28.672l-1.52,5.6H27.12l-1.408-5.6H23.5L22.128-2.656H22.1l-1.52-5.616h-2.4L20.8,0h2.352L24.56-5.552h.032L26.064,0H28.4Zm8.8,4.688v-.208a1.7,1.7,0,0,0,.016-.192,5.579,5.579,0,0,0-.264-1.728,4.444,4.444,0,0,0-.768-1.44,3.555,3.555,0,0,0-1.264-.984,4.009,4.009,0,0,0-1.736-.36,4.392,4.392,0,0,0-1.712.328,3.894,3.894,0,0,0-1.344.92,4.142,4.142,0,0,0-.864,1.392,4.825,4.825,0,0,0-.3,1.728,5.055,5.055,0,0,0,.3,1.752,4,4,0,0,0,.848,1.392,3.687,3.687,0,0,0,1.336.9,4.679,4.679,0,0,0,1.744.312,4.161,4.161,0,0,0,2.424-.68,3.929,3.929,0,0,0,1.448-2.1h-2a1.333,1.333,0,0,1-.624.744,2.118,2.118,0,0,1-1.168.328A1.992,1.992,0,0,1,34.4-2a2.313,2.313,0,0,1-.56-1.584ZM33.84-5.024a2.276,2.276,0,0,1,.112-.568,1.737,1.737,0,0,1,.32-.568,1.722,1.722,0,0,1,.584-.448,1.971,1.971,0,0,1,.872-.176,1.639,1.639,0,0,1,1.224.432,2.481,2.481,0,0,1,.584,1.328ZM41.216,0h2.272V-11.424H41.216Zm4.128,0h2.272V-11.424H45.344Zm4.064,0H51.68V-3.728a3.177,3.177,0,0,1,.536-1.928,1.975,1.975,0,0,1,1.7-.728,4.284,4.284,0,0,1,.44.024,3.42,3.42,0,0,1,.376.056V-8.416a1.558,1.558,0,0,0-.5-.08,2.831,2.831,0,0,0-1.584.5A2.681,2.681,0,0,0,51.6-6.736h-.032V-8.272h-2.16Zm13.76-8.272H60.816L59.008-2.608h-.032L57.1-8.272H54.672l2.912,7.76a1.366,1.366,0,0,1,.1.512,1.1,1.1,0,0,1-.232.7.919.919,0,0,1-.648.344q-.416,0-1.04-.048L55.472.96V2.832a13.545,13.545,0,0,0,1.392.08,3.3,3.3,0,0,0,1.824-.432,2.8,2.8,0,0,0,1.024-1.44Z" transform="translate(-0.224 11.424)"/>
</svg>
