<svg xmlns="http://www.w3.org/2000/svg" width="29.25" height="10.965" viewBox="0 0 29.25 10.965">
  <path id="패스_212" data-name="패스 212" d="M7.305-10.71H4.95v7.23q0,.39-.023.66a1.522,1.522,0,0,1-.143.525.947.947,0,0,1-.382.412,1.347,1.347,0,0,1-.7.158,1.174,1.174,0,0,1-1.072-.458A2.477,2.477,0,0,1,2.34-3.51v-.48H.21v.93A3.59,3.59,0,0,0,.5-1.583,2.759,2.759,0,0,0,1.283-.54a3.379,3.379,0,0,0,1.133.6,4.439,4.439,0,0,0,1.32.2A4.249,4.249,0,0,0,5.588-.1,2.689,2.689,0,0,0,6.683-1a3.267,3.267,0,0,0,.495-1.147,5.9,5.9,0,0,0,.128-1.23Zm1.6,6.84a4.05,4.05,0,0,0,1.1,2.963A3.89,3.89,0,0,0,12.915.21,3.909,3.909,0,0,0,15.84-.908a4.05,4.05,0,0,0,1.1-2.963,4.071,4.071,0,0,0-1.1-2.977,3.909,3.909,0,0,0-2.925-1.117,3.89,3.89,0,0,0-2.91,1.117A4.071,4.071,0,0,0,8.91-3.87Zm2.13,0a4.348,4.348,0,0,1,.1-.938,2.543,2.543,0,0,1,.315-.8,1.56,1.56,0,0,1,.585-.555,1.792,1.792,0,0,1,.878-.2,1.825,1.825,0,0,1,.892.2,1.56,1.56,0,0,1,.585.555,2.543,2.543,0,0,1,.315.8,4.348,4.348,0,0,1,.1.938,4.245,4.245,0,0,1-.1.93,2.549,2.549,0,0,1-.315.788,1.56,1.56,0,0,1-.585.555,1.825,1.825,0,0,1-.892.2,1.792,1.792,0,0,1-.878-.2,1.56,1.56,0,0,1-.585-.555,2.549,2.549,0,0,1-.315-.788A4.245,4.245,0,0,1,11.04-3.87ZM18.375,0h2.13V-7.755h-2.13Zm2.13-10.71h-2.13v1.755h2.13ZM22.185,0h2.13V-4.065a2.877,2.877,0,0,1,.39-1.7,1.476,1.476,0,0,1,1.26-.517,1.175,1.175,0,0,1,1.05.465,2.606,2.606,0,0,1,.315,1.44V0h2.13V-4.77a6.278,6.278,0,0,0-.128-1.342,2.434,2.434,0,0,0-.45-.99,2.073,2.073,0,0,0-.877-.638,3.69,3.69,0,0,0-1.38-.225,2.881,2.881,0,0,0-1.342.33,2.6,2.6,0,0,0-1.028.96H24.21v-1.08H22.185Z" transform="translate(-0.21 10.71)" fill="#525252"/>
</svg>
