<svg xmlns="http://www.w3.org/2000/svg" width="31.2" height="11.696" viewBox="0 0 31.2 11.696">
  <path id="패스_56" data-name="패스 56" d="M7.792-11.424H5.28v7.712q0,.416-.024.7a1.623,1.623,0,0,1-.152.56,1.011,1.011,0,0,1-.408.44,1.437,1.437,0,0,1-.744.168,1.253,1.253,0,0,1-1.144-.488A2.642,2.642,0,0,1,2.5-3.744v-.512H.224v.992a3.829,3.829,0,0,0,.3,1.576,2.943,2.943,0,0,0,.84,1.112,3.6,3.6,0,0,0,1.208.64A4.735,4.735,0,0,0,3.984.272,4.533,4.533,0,0,0,5.96-.1a2.868,2.868,0,0,0,1.168-.96,3.485,3.485,0,0,0,.528-1.224A6.3,6.3,0,0,0,7.792-3.6ZM9.5-4.128a4.32,4.32,0,0,0,1.168,3.16,4.149,4.149,0,0,0,3.1,1.192A4.17,4.17,0,0,0,16.9-.968a4.32,4.32,0,0,0,1.168-3.16A4.342,4.342,0,0,0,16.9-7.3,4.17,4.17,0,0,0,13.776-8.5a4.149,4.149,0,0,0-3.1,1.192A4.342,4.342,0,0,0,9.5-4.128Zm2.272,0a4.638,4.638,0,0,1,.1-1,2.713,2.713,0,0,1,.336-.848,1.664,1.664,0,0,1,.624-.592,1.912,1.912,0,0,1,.936-.216,1.947,1.947,0,0,1,.952.216,1.664,1.664,0,0,1,.624.592,2.713,2.713,0,0,1,.336.848,4.638,4.638,0,0,1,.1,1,4.528,4.528,0,0,1-.1.992,2.719,2.719,0,0,1-.336.84,1.664,1.664,0,0,1-.624.592,1.947,1.947,0,0,1-.952.216A1.912,1.912,0,0,1,12.84-1.7a1.664,1.664,0,0,1-.624-.592,2.719,2.719,0,0,1-.336-.84A4.528,4.528,0,0,1,11.776-4.128ZM19.6,0h2.272V-8.272H19.6Zm2.272-11.424H19.6v1.872h2.272ZM23.664,0h2.272V-4.336a3.069,3.069,0,0,1,.416-1.816A1.574,1.574,0,0,1,27.7-6.7a1.253,1.253,0,0,1,1.12.5,2.779,2.779,0,0,1,.336,1.536V0h2.272V-5.088a6.7,6.7,0,0,0-.136-1.432,2.6,2.6,0,0,0-.48-1.056,2.212,2.212,0,0,0-.936-.68A3.936,3.936,0,0,0,28.4-8.5a3.073,3.073,0,0,0-1.432.352,2.768,2.768,0,0,0-1.1,1.024h-.048V-8.272h-2.16Z" transform="translate(-0.224 11.424)" fill="#fff"/>
</svg>
