<svg xmlns="http://www.w3.org/2000/svg" width="88.26" height="11.22" viewBox="0 0 88.26 11.22">
  <path id="패스_218" data-name="패스 218" d="M.36-3.555A3.7,3.7,0,0,0,.728-1.868a3.351,3.351,0,0,0,1.005,1.2,4.361,4.361,0,0,0,1.455.7A6.5,6.5,0,0,0,4.92.255,5.071,5.071,0,0,0,8.205-.7,3.05,3.05,0,0,0,9.375-3.18a2.753,2.753,0,0,0-.33-1.387,2.713,2.713,0,0,0-.825-.915,4.369,4.369,0,0,0-.945-.5,9.755,9.755,0,0,0-.99-.3A.283.283,0,0,1,6.2-6.3a1.259,1.259,0,0,0-.24-.06Q4.83-6.645,4.335-6.8a5.887,5.887,0,0,1-.795-.293.981.981,0,0,1-.42-.33A.923.923,0,0,1,3-7.92a1,1,0,0,1,.48-.915,2.107,2.107,0,0,1,1.14-.3,2.768,2.768,0,0,1,1.507.36,1.473,1.473,0,0,1,.608,1.26h2.28a3.324,3.324,0,0,0-.345-1.56,3.014,3.014,0,0,0-.937-1.08,4.048,4.048,0,0,0-1.365-.615,6.691,6.691,0,0,0-1.642-.195,5.324,5.324,0,0,0-1.463.2,4.253,4.253,0,0,0-1.29.608,2.984,2.984,0,0,0-.915,1.02A2.883,2.883,0,0,0,.72-7.725,2.707,2.707,0,0,0,.983-6.488a2.455,2.455,0,0,0,.705.855,4,4,0,0,0,.982.548,13.087,13.087,0,0,0,1.245.4q.255.06.69.18.66.15,1.05.27a4.247,4.247,0,0,1,.72.292,1.6,1.6,0,0,1,.525.42.951.951,0,0,1,.2.608,1.064,1.064,0,0,1-.2.652,1.328,1.328,0,0,1-.517.413,2.646,2.646,0,0,1-.675.21,4.151,4.151,0,0,1-.7.06,2.813,2.813,0,0,1-1.7-.487A1.726,1.726,0,0,1,2.64-3.555ZM10.3-3.87A4.05,4.05,0,0,0,11.4-.908,3.89,3.89,0,0,0,14.31.21,3.909,3.909,0,0,0,17.235-.908,4.05,4.05,0,0,0,18.33-3.87a4.071,4.071,0,0,0-1.095-2.977A3.909,3.909,0,0,0,14.31-7.965,3.89,3.89,0,0,0,11.4-6.848,4.071,4.071,0,0,0,10.3-3.87Zm2.13,0a4.348,4.348,0,0,1,.1-.938,2.543,2.543,0,0,1,.315-.8,1.56,1.56,0,0,1,.585-.555,1.792,1.792,0,0,1,.877-.2,1.825,1.825,0,0,1,.892.2,1.56,1.56,0,0,1,.585.555,2.543,2.543,0,0,1,.315.8,4.348,4.348,0,0,1,.1.938,4.245,4.245,0,0,1-.1.93,2.549,2.549,0,0,1-.315.788A1.56,1.56,0,0,1,15.2-1.6a1.825,1.825,0,0,1-.892.2,1.792,1.792,0,0,1-.877-.2,1.56,1.56,0,0,1-.585-.555,2.549,2.549,0,0,1-.315-.788A4.245,4.245,0,0,1,12.435-3.87Zm14.55-3.885h-2.13V-3.69a2.877,2.877,0,0,1-.39,1.7,1.476,1.476,0,0,1-1.26.518,1.178,1.178,0,0,1-1.042-.465,2.557,2.557,0,0,1-.323-1.44v-4.38H19.71v4.77a6.172,6.172,0,0,0,.128,1.335,2.5,2.5,0,0,0,.45.99,2.046,2.046,0,0,0,.877.645,3.69,3.69,0,0,0,1.38.225,2.881,2.881,0,0,0,1.343-.33,2.6,2.6,0,0,0,1.028-.96h.045V0h2.025ZM31.3-10.08h-2.13v2.325h-1.29V-6.33h1.29v4.575a2.02,2.02,0,0,0,.187.923,1.379,1.379,0,0,0,.525.57,2.217,2.217,0,0,0,.765.277A5.634,5.634,0,0,0,31.62.09,8,8,0,0,0,32.865.015V-1.65a3.371,3.371,0,0,1-.66.06,1.042,1.042,0,0,1-.72-.18,1.042,1.042,0,0,1-.18-.72V-6.33h1.56V-7.755H31.3ZM33.885,0h2.13V-4.065a2.877,2.877,0,0,1,.39-1.7,1.476,1.476,0,0,1,1.26-.517,1.175,1.175,0,0,1,1.05.465,2.606,2.606,0,0,1,.315,1.44V0h2.13V-4.77a6.278,6.278,0,0,0-.127-1.342,2.434,2.434,0,0,0-.45-.99A2.073,2.073,0,0,0,39.7-7.74a3.69,3.69,0,0,0-1.38-.225,2.651,2.651,0,0,0-1.252.33,2.624,2.624,0,0,0-1.013.96h-.045V-10.71h-2.13Zm13.29,0H49.53V-3.45l1.35-1.365L54.1,0H57.06L52.47-6.48l4.185-4.23h-2.94L49.53-6.27v-4.44H47.175ZM57.54-3.87a4.05,4.05,0,0,0,1.1,2.963A3.89,3.89,0,0,0,61.545.21,3.909,3.909,0,0,0,64.47-.908a4.05,4.05,0,0,0,1.1-2.963,4.071,4.071,0,0,0-1.1-2.977,3.909,3.909,0,0,0-2.925-1.117,3.89,3.89,0,0,0-2.91,1.117A4.071,4.071,0,0,0,57.54-3.87Zm2.13,0a4.348,4.348,0,0,1,.1-.938,2.543,2.543,0,0,1,.315-.8,1.56,1.56,0,0,1,.585-.555,1.792,1.792,0,0,1,.877-.2,1.825,1.825,0,0,1,.892.2,1.56,1.56,0,0,1,.585.555,2.543,2.543,0,0,1,.315.8,4.348,4.348,0,0,1,.1.938,4.245,4.245,0,0,1-.1.93,2.549,2.549,0,0,1-.315.788,1.56,1.56,0,0,1-.585.555,1.825,1.825,0,0,1-.892.2,1.792,1.792,0,0,1-.877-.2,1.56,1.56,0,0,1-.585-.555,2.549,2.549,0,0,1-.315-.788A4.245,4.245,0,0,1,59.67-3.87ZM66.945,0h2.13V-3.5a2.979,2.979,0,0,1,.5-1.808,1.851,1.851,0,0,1,1.6-.682,4.017,4.017,0,0,1,.412.023,3.206,3.206,0,0,1,.353.052V-7.89a1.461,1.461,0,0,0-.465-.075A2.654,2.654,0,0,0,69.99-7.5,2.513,2.513,0,0,0,69-6.315h-.03v-1.44H66.945ZM80.13-3.36v-.2a1.591,1.591,0,0,0,.015-.18,5.231,5.231,0,0,0-.248-1.62,4.167,4.167,0,0,0-.72-1.35,3.332,3.332,0,0,0-1.185-.923,3.758,3.758,0,0,0-1.628-.337,4.117,4.117,0,0,0-1.6.307A3.651,3.651,0,0,0,73.5-6.8a3.883,3.883,0,0,0-.81,1.3A4.523,4.523,0,0,0,72.4-3.87a4.739,4.739,0,0,0,.278,1.643,3.754,3.754,0,0,0,.795,1.305,3.457,3.457,0,0,0,1.253.84A4.386,4.386,0,0,0,76.365.21a3.9,3.9,0,0,0,2.273-.638A3.683,3.683,0,0,0,80-2.4H78.12a1.249,1.249,0,0,1-.585.7,1.986,1.986,0,0,1-1.1.308,1.868,1.868,0,0,1-1.38-.48,2.169,2.169,0,0,1-.525-1.485Zm-5.6-1.35a2.134,2.134,0,0,1,.1-.533,1.629,1.629,0,0,1,.3-.532,1.615,1.615,0,0,1,.548-.42,1.847,1.847,0,0,1,.817-.165,1.536,1.536,0,0,1,1.147.405A2.326,2.326,0,0,1,78-4.71ZM86.22-3a3.328,3.328,0,0,1-.045.532,1.727,1.727,0,0,1-.21.57,1.279,1.279,0,0,1-.525.488,1.982,1.982,0,0,1-.945.2,1.8,1.8,0,0,1-.952-.218A.834.834,0,0,1,83.19-2.2a.9.9,0,0,1,.33-.773,2.3,2.3,0,0,1,.93-.367l.51-.075q.5-.075.788-.15A1.189,1.189,0,0,0,86.22-3.8ZM83.43-5.37a1.215,1.215,0,0,1,.42-.892,1.585,1.585,0,0,1,.99-.278,2.042,2.042,0,0,1,1.02.21.89.89,0,0,1,.36.84.631.631,0,0,1-.435.645,6.6,6.6,0,0,1-1.4.285q-.39.045-.69.09a6.53,6.53,0,0,0-1.02.21,2.87,2.87,0,0,0-.817.39,1.8,1.8,0,0,0-.585.69,2.364,2.364,0,0,0-.217,1.065,2.094,2.094,0,0,0,.735,1.732A2.941,2.941,0,0,0,83.7.21a4.458,4.458,0,0,0,1.447-.233A2.891,2.891,0,0,0,86.31-.75a2.922,2.922,0,0,0,.15.75h2.16a1.914,1.914,0,0,1-.2-.683,7.2,7.2,0,0,1-.068-1.042V-5.76a1.921,1.921,0,0,0-.3-1.1,2,2,0,0,0-.787-.682,3.681,3.681,0,0,0-1.08-.33,8.235,8.235,0,0,0-1.238-.09,6.53,6.53,0,0,0-1.312.127,3.646,3.646,0,0,0-1.14.435,2.436,2.436,0,0,0-.832.81A2.568,2.568,0,0,0,81.3-5.37Z" transform="translate(-0.36 10.965)" fill="#525252"/>
</svg>
