<svg xmlns="http://www.w3.org/2000/svg" width="108.616" height="11.969" viewBox="0 0 108.616 11.969">
  <g id="그룹_89" data-name="그룹 89" transform="translate(-8920.384 -9815.304)">
    <path id="패스_62" data-name="패스 62" d="M.384-3.792a3.941,3.941,0,0,0,.392,1.8A3.574,3.574,0,0,0,1.848-.712,4.652,4.652,0,0,0,3.4.032a6.936,6.936,0,0,0,1.848.24,5.41,5.41,0,0,0,3.5-1.016A3.253,3.253,0,0,0,10-3.392a2.936,2.936,0,0,0-.352-1.48,2.894,2.894,0,0,0-.88-.976A4.66,4.66,0,0,0,7.76-6.384,10.405,10.405,0,0,0,6.7-6.7a.3.3,0,0,1-.1-.016,1.342,1.342,0,0,0-.256-.064q-1.2-.3-1.728-.464a6.279,6.279,0,0,1-.848-.312,1.046,1.046,0,0,1-.448-.352A.984.984,0,0,1,3.2-8.448a1.072,1.072,0,0,1,.512-.976,2.247,2.247,0,0,1,1.216-.32,2.953,2.953,0,0,1,1.608.384,1.571,1.571,0,0,1,.648,1.344H9.616A3.546,3.546,0,0,0,9.248-9.68a3.215,3.215,0,0,0-1-1.152,4.318,4.318,0,0,0-1.456-.656A7.137,7.137,0,0,0,5.04-11.7a5.679,5.679,0,0,0-1.56.216,4.536,4.536,0,0,0-1.376.648,3.183,3.183,0,0,0-.976,1.088,3.075,3.075,0,0,0-.36,1.5,2.887,2.887,0,0,0,.28,1.32,2.618,2.618,0,0,0,.752.912,4.269,4.269,0,0,0,1.048.584,13.959,13.959,0,0,0,1.328.432q.272.064.736.192.7.16,1.12.288A4.53,4.53,0,0,1,6.8-4.2a1.7,1.7,0,0,1,.56.448,1.015,1.015,0,0,1,.208.648,1.135,1.135,0,0,1-.208.7,1.417,1.417,0,0,1-.552.44,2.823,2.823,0,0,1-.72.224,4.428,4.428,0,0,1-.744.064A3,3,0,0,1,3.528-2.2a1.841,1.841,0,0,1-.712-1.592Zm10.608-.336A4.32,4.32,0,0,0,12.16-.968a4.149,4.149,0,0,0,3.1,1.192,4.17,4.17,0,0,0,3.12-1.192,4.32,4.32,0,0,0,1.168-3.16A4.342,4.342,0,0,0,18.384-7.3,4.17,4.17,0,0,0,15.264-8.5,4.149,4.149,0,0,0,12.16-7.3,4.342,4.342,0,0,0,10.992-4.128Zm2.272,0a4.638,4.638,0,0,1,.1-1,2.713,2.713,0,0,1,.336-.848,1.664,1.664,0,0,1,.624-.592,1.912,1.912,0,0,1,.936-.216,1.947,1.947,0,0,1,.952.216,1.664,1.664,0,0,1,.624.592,2.713,2.713,0,0,1,.336.848,4.638,4.638,0,0,1,.1,1,4.528,4.528,0,0,1-.1.992,2.719,2.719,0,0,1-.336.84,1.664,1.664,0,0,1-.624.592,1.947,1.947,0,0,1-.952.216,1.912,1.912,0,0,1-.936-.216A1.664,1.664,0,0,1,13.7-2.3a2.719,2.719,0,0,1-.336-.84A4.528,4.528,0,0,1,13.264-4.128Zm15.52-4.144H26.512v4.336A3.069,3.069,0,0,1,26.1-2.12a1.574,1.574,0,0,1-1.344.552,1.257,1.257,0,0,1-1.112-.5A2.727,2.727,0,0,1,23.3-3.6V-8.272H21.024v5.088A6.583,6.583,0,0,0,21.16-1.76,2.663,2.663,0,0,0,21.64-.7a2.183,2.183,0,0,0,.936.688,3.936,3.936,0,0,0,1.472.24A3.073,3.073,0,0,0,25.48-.128a2.768,2.768,0,0,0,1.1-1.024h.048V0h2.16Zm4.608-2.48H31.12v2.48H29.744v1.52H31.12v4.88a2.155,2.155,0,0,0,.2.984,1.471,1.471,0,0,0,.56.608,2.365,2.365,0,0,0,.816.3A6.01,6.01,0,0,0,33.728.1a8.53,8.53,0,0,0,1.328-.08V-1.76a3.6,3.6,0,0,1-.7.064,1.112,1.112,0,0,1-.768-.192,1.112,1.112,0,0,1-.192-.768v-4.1h1.664v-1.52H33.392ZM36.144,0h2.272V-4.336a3.069,3.069,0,0,1,.416-1.816A1.574,1.574,0,0,1,40.176-6.7a1.253,1.253,0,0,1,1.12.5,2.779,2.779,0,0,1,.336,1.536V0H43.9V-5.088a6.7,6.7,0,0,0-.136-1.432,2.6,2.6,0,0,0-.48-1.056,2.212,2.212,0,0,0-.936-.68A3.936,3.936,0,0,0,40.88-8.5a2.828,2.828,0,0,0-1.336.352,2.8,2.8,0,0,0-1.08,1.024h-.048v-4.3H36.144ZM50.32,0h2.512V-3.68l1.44-1.456L57.712,0h3.152l-4.9-6.912,4.464-4.512H57.3L52.832-6.688v-4.736H50.32ZM61.376-4.128a4.32,4.32,0,0,0,1.168,3.16,4.149,4.149,0,0,0,3.1,1.192,4.17,4.17,0,0,0,3.12-1.192,4.321,4.321,0,0,0,1.168-3.16A4.342,4.342,0,0,0,68.768-7.3,4.17,4.17,0,0,0,65.648-8.5a4.149,4.149,0,0,0-3.1,1.192A4.342,4.342,0,0,0,61.376-4.128Zm2.272,0a4.638,4.638,0,0,1,.1-1,2.713,2.713,0,0,1,.336-.848,1.664,1.664,0,0,1,.624-.592,1.912,1.912,0,0,1,.936-.216,1.947,1.947,0,0,1,.952.216,1.664,1.664,0,0,1,.624.592,2.713,2.713,0,0,1,.336.848,4.638,4.638,0,0,1,.1,1,4.529,4.529,0,0,1-.1.992,2.719,2.719,0,0,1-.336.84A1.664,1.664,0,0,1,66.6-1.7a1.947,1.947,0,0,1-.952.216,1.912,1.912,0,0,1-.936-.216,1.664,1.664,0,0,1-.624-.592,2.719,2.719,0,0,1-.336-.84A4.529,4.529,0,0,1,63.648-4.128ZM71.408,0H73.68V-3.728a3.177,3.177,0,0,1,.536-1.928,1.975,1.975,0,0,1,1.7-.728,4.284,4.284,0,0,1,.44.024,3.42,3.42,0,0,1,.376.056V-8.416a1.558,1.558,0,0,0-.5-.08,2.831,2.831,0,0,0-1.584.5A2.681,2.681,0,0,0,73.6-6.736h-.032V-8.272h-2.16ZM85.472-3.584v-.208a1.7,1.7,0,0,0,.016-.192,5.579,5.579,0,0,0-.264-1.728,4.444,4.444,0,0,0-.768-1.44,3.555,3.555,0,0,0-1.264-.984,4.009,4.009,0,0,0-1.736-.36,4.392,4.392,0,0,0-1.712.328,3.894,3.894,0,0,0-1.344.92,4.142,4.142,0,0,0-.864,1.392,4.824,4.824,0,0,0-.3,1.728,5.055,5.055,0,0,0,.3,1.752,4,4,0,0,0,.848,1.392,3.687,3.687,0,0,0,1.336.9,4.679,4.679,0,0,0,1.744.312,4.161,4.161,0,0,0,2.424-.68,3.929,3.929,0,0,0,1.448-2.1h-2a1.333,1.333,0,0,1-.624.744,2.118,2.118,0,0,1-1.168.328A1.992,1.992,0,0,1,80.064-2a2.313,2.313,0,0,1-.56-1.584ZM79.5-5.024a2.276,2.276,0,0,1,.112-.568,1.737,1.737,0,0,1,.32-.568,1.722,1.722,0,0,1,.584-.448,1.971,1.971,0,0,1,.872-.176,1.639,1.639,0,0,1,1.224.432A2.481,2.481,0,0,1,83.2-5.024ZM91.968-3.2a3.55,3.55,0,0,1-.048.568,1.843,1.843,0,0,1-.224.608,1.365,1.365,0,0,1-.56.52,2.114,2.114,0,0,1-1.008.208,1.923,1.923,0,0,1-1.016-.232.89.89,0,0,1-.376-.824.963.963,0,0,1,.352-.824,2.453,2.453,0,0,1,.992-.392l.544-.08q.528-.08.84-.16a1.268,1.268,0,0,0,.5-.24ZM88.992-5.728a1.3,1.3,0,0,1,.448-.952,1.69,1.69,0,0,1,1.056-.3,2.178,2.178,0,0,1,1.088.224.95.95,0,0,1,.384.9.673.673,0,0,1-.464.688,7.041,7.041,0,0,1-1.488.3q-.416.048-.736.1a6.965,6.965,0,0,0-1.088.224,3.061,3.061,0,0,0-.872.416,1.921,1.921,0,0,0-.624.736,2.522,2.522,0,0,0-.232,1.136,2.234,2.234,0,0,0,.784,1.848A3.137,3.137,0,0,0,89.28.224a4.756,4.756,0,0,0,1.544-.248A3.084,3.084,0,0,0,92.064-.8a3.116,3.116,0,0,0,.16.8h2.3a2.042,2.042,0,0,1-.216-.728A7.684,7.684,0,0,1,94.24-1.84v-4.3a2.049,2.049,0,0,0-.32-1.176,2.137,2.137,0,0,0-.84-.728A3.927,3.927,0,0,0,91.928-8.4a8.784,8.784,0,0,0-1.32-.1,6.965,6.965,0,0,0-1.4.136,3.889,3.889,0,0,0-1.216.464,2.6,2.6,0,0,0-.888.864,2.739,2.739,0,0,0-.384,1.3Z" transform="translate(8920 9827)" fill="#fff"/>
    <path id="패스_64" data-name="패스 64" d="M4,0,8,7H0Z" transform="translate(9029 9827) rotate(180)" fill="#fff"/>
  </g>
</svg>
