<svg xmlns="http://www.w3.org/2000/svg" width="75.696" height="11.647" viewBox="0 0 75.696 11.647">
  <path id="패스_205" data-name="패스 205" d="M1.1,0h8.08V-2.112H3.616v-9.312H1.1ZM10.1-4.128a4.32,4.32,0,0,0,1.168,3.16,4.149,4.149,0,0,0,3.1,1.192,4.17,4.17,0,0,0,3.12-1.192,4.32,4.32,0,0,0,1.168-3.16A4.342,4.342,0,0,0,17.488-7.3,4.17,4.17,0,0,0,14.368-8.5a4.149,4.149,0,0,0-3.1,1.192A4.342,4.342,0,0,0,10.1-4.128Zm2.272,0a4.638,4.638,0,0,1,.1-1,2.713,2.713,0,0,1,.336-.848,1.664,1.664,0,0,1,.624-.592,1.912,1.912,0,0,1,.936-.216,1.947,1.947,0,0,1,.952.216,1.664,1.664,0,0,1,.624.592,2.713,2.713,0,0,1,.336.848,4.638,4.638,0,0,1,.1,1,4.528,4.528,0,0,1-.1.992,2.719,2.719,0,0,1-.336.84,1.664,1.664,0,0,1-.624.592,1.947,1.947,0,0,1-.952.216,1.912,1.912,0,0,1-.936-.216,1.664,1.664,0,0,1-.624-.592,2.719,2.719,0,0,1-.336-.84A4.528,4.528,0,0,1,12.368-4.128Zm7.5,0A4.32,4.32,0,0,0,21.04-.968a4.149,4.149,0,0,0,3.1,1.192,4.17,4.17,0,0,0,3.12-1.192,4.32,4.32,0,0,0,1.168-3.16A4.342,4.342,0,0,0,27.264-7.3,4.17,4.17,0,0,0,24.144-8.5,4.149,4.149,0,0,0,21.04-7.3,4.342,4.342,0,0,0,19.872-4.128Zm2.272,0a4.638,4.638,0,0,1,.1-1,2.713,2.713,0,0,1,.336-.848,1.664,1.664,0,0,1,.624-.592,1.912,1.912,0,0,1,.936-.216,1.947,1.947,0,0,1,.952.216,1.664,1.664,0,0,1,.624.592,2.713,2.713,0,0,1,.336.848,4.638,4.638,0,0,1,.1,1,4.528,4.528,0,0,1-.1.992,2.719,2.719,0,0,1-.336.84A1.664,1.664,0,0,1,25.1-1.7a1.947,1.947,0,0,1-.952.216,1.912,1.912,0,0,1-.936-.216,1.664,1.664,0,0,1-.624-.592,2.719,2.719,0,0,1-.336-.84A4.528,4.528,0,0,1,22.144-4.128ZM30.112,0h2.272V-2.848l.88-.848L35.536,0h2.752L34.816-5.232l3.12-3.04H35.248L32.384-5.3v-6.128H30.112Zm8.976,0h2.16V-1.056h.032a2.149,2.149,0,0,0,1.056.968A4.081,4.081,0,0,0,44,.224,3.1,3.1,0,0,0,45.248-.04a3.284,3.284,0,0,0,1.1-.8,3.818,3.818,0,0,0,.784-1.376,5.935,5.935,0,0,0,.288-1.928,5.862,5.862,0,0,0-.288-1.92,3.826,3.826,0,0,0-.784-1.368,3.284,3.284,0,0,0-1.1-.8A3.1,3.1,0,0,0,44-8.5a3.67,3.67,0,0,0-1.5.312,2.5,2.5,0,0,0-1.1.92H41.36v-4.16H39.088Zm6.064-4.128a3.369,3.369,0,0,1-.5,1.88,1.614,1.614,0,0,1-1.44.76,1.614,1.614,0,0,1-1.44-.76,3.369,3.369,0,0,1-.5-1.88,3.4,3.4,0,0,1,.5-1.9,1.614,1.614,0,0,1,1.44-.76,1.614,1.614,0,0,1,1.44.76A3.4,3.4,0,0,1,45.152-4.128Zm3.456,0a4.32,4.32,0,0,0,1.168,3.16A4.149,4.149,0,0,0,52.88.224,4.17,4.17,0,0,0,56-.968a4.32,4.32,0,0,0,1.168-3.16A4.342,4.342,0,0,0,56-7.3,4.17,4.17,0,0,0,52.88-8.5a4.149,4.149,0,0,0-3.1,1.192A4.342,4.342,0,0,0,48.608-4.128Zm2.272,0a4.638,4.638,0,0,1,.1-1,2.713,2.713,0,0,1,.336-.848,1.664,1.664,0,0,1,.624-.592,1.912,1.912,0,0,1,.936-.216,1.947,1.947,0,0,1,.952.216,1.664,1.664,0,0,1,.624.592,2.713,2.713,0,0,1,.336.848,4.638,4.638,0,0,1,.1,1,4.529,4.529,0,0,1-.1.992,2.719,2.719,0,0,1-.336.84,1.664,1.664,0,0,1-.624.592,1.947,1.947,0,0,1-.952.216,1.912,1.912,0,0,1-.936-.216A1.664,1.664,0,0,1,51.32-2.3a2.719,2.719,0,0,1-.336-.84A4.529,4.529,0,0,1,50.88-4.128Zm7.5,0a4.32,4.32,0,0,0,1.168,3.16,4.149,4.149,0,0,0,3.1,1.192,4.17,4.17,0,0,0,3.12-1.192,4.32,4.32,0,0,0,1.168-3.16A4.342,4.342,0,0,0,65.776-7.3,4.17,4.17,0,0,0,62.656-8.5a4.149,4.149,0,0,0-3.1,1.192A4.342,4.342,0,0,0,58.384-4.128Zm2.272,0a4.638,4.638,0,0,1,.1-1,2.713,2.713,0,0,1,.336-.848,1.664,1.664,0,0,1,.624-.592,1.912,1.912,0,0,1,.936-.216,1.947,1.947,0,0,1,.952.216,1.664,1.664,0,0,1,.624.592,2.713,2.713,0,0,1,.336.848,4.638,4.638,0,0,1,.1,1,4.528,4.528,0,0,1-.1.992,2.719,2.719,0,0,1-.336.84,1.664,1.664,0,0,1-.624.592,1.947,1.947,0,0,1-.952.216A1.912,1.912,0,0,1,61.72-1.7,1.664,1.664,0,0,1,61.1-2.3a2.719,2.719,0,0,1-.336-.84A4.529,4.529,0,0,1,60.656-4.128ZM68.624,0H70.9V-2.848l.88-.848L74.048,0H76.8L73.328-5.232l3.12-3.04H73.76L70.9-5.3v-6.128H68.624Z" transform="translate(-1.104 11.424)"/>
</svg>
