<svg xmlns="http://www.w3.org/2000/svg" width="718.25" height="187" viewBox="0 0 718.25 187">
  <path id="패스_64" data-name="패스 64" d="M-1.75,0H38L52-39.75h66.75L132.25,0H173L106.25-178.5H66ZM85.5-134.5H86L108.5-69H62.25ZM186.25,0H225.5V-38.5H186.25ZM258,0h39.25V-64H338.5q16,0,27.875-4.625a51.074,51.074,0,0,0,19.375-12.75,51.259,51.259,0,0,0,11-18.375,66.071,66.071,0,0,0,3.5-21.5,66.071,66.071,0,0,0-3.5-21.5,51.259,51.259,0,0,0-11-18.375,51.074,51.074,0,0,0-19.375-12.75Q354.5-178.5,338.5-178.5H258Zm39.25-148h30.5a82.6,82.6,0,0,1,13.5,1,29.91,29.91,0,0,1,10.875,4,19.952,19.952,0,0,1,7.5,8.25q2.625,5.25,2.625,13.5t-2.625,13.5a19.134,19.134,0,0,1-7.5,8.125,33.3,33.3,0,0,1-10.875,4,73.62,73.62,0,0,1-13.5,1.125h-30.5ZM422.5,0h39.25V-38.5H422.5ZM651.25-118.5a73.014,73.014,0,0,0-8.375-27.25,66.814,66.814,0,0,0-17-20.25,73.793,73.793,0,0,0-23.625-12.5,91.123,91.123,0,0,0-28-4.25q-20.25,0-36.625,7.125a78.038,78.038,0,0,0-27.75,20A89.215,89.215,0,0,0,492.5-125.5a111.852,111.852,0,0,0-6,37,108.127,108.127,0,0,0,6,36.25,86.936,86.936,0,0,0,17.375,29.625,79.506,79.506,0,0,0,27.75,19.75Q554,4.25,574.25,4.25a85.251,85.251,0,0,0,30-5.125,72.088,72.088,0,0,0,24.125-14.75A72.969,72.969,0,0,0,645-38.75a90.336,90.336,0,0,0,7.75-30h-38Q612.5-50.5,602.125-39.625T574.25-28.75q-12.75,0-22-4.875A41.785,41.785,0,0,1,537.125-47,59.574,59.574,0,0,1,528.5-66.125,88.972,88.972,0,0,1,525.75-88.5a95.558,95.558,0,0,1,2.75-23.25,60.778,60.778,0,0,1,8.5-19.5,41.522,41.522,0,0,1,15.125-13.5q9.375-5,22.125-5a40.429,40.429,0,0,1,26,9q11.25,9,13,22.25ZM677.25,0H716.5V-38.5H677.25Z" transform="translate(1.75 182.75)"/>
</svg>
