<svg xmlns="http://www.w3.org/2000/svg" width="524.93" height="52.36" viewBox="0 0 524.93 52.36">
  <path id="패스_66" data-name="패스 66" d="M4.83,0H15.12V-33.46h.14L36.05,0H47.04V-49.98H36.75v33.53h-.14L15.75-49.98H4.83ZM56.7,0H94.64V-9.24H67.69V-21.49H91.91v-8.54H67.69V-40.74H94.08v-9.24H56.7ZM163.1-49.98H152.32l-8.19,34.44h-.14l-8.54-34.44H125.16l-8.68,34.02h-.14l-7.91-34.02H97.44L110.67,0H121.8l8.33-34.02h.14L138.74,0h10.92ZM182.28,0h11.13l3.92-11.13h18.69L219.8,0h11.41L212.52-49.98H201.25Zm24.43-37.66h.14l6.3,18.34H200.2ZM235.55,0h10.99V-19.53h10.99q4.06,0,5.915,1.75t2.415,5.81q.21,1.4.42,4.06.21,2.87.455,4.69A11.593,11.593,0,0,0,267.61,0H278.6a9.779,9.779,0,0,1-1.435-4.06q-.385-2.52-.6-6.09-.07-1.4-.07-1.68a18.643,18.643,0,0,0-1.925-7.6,8.066,8.066,0,0,0-5.355-4.1v-.14a11.768,11.768,0,0,0,5.985-4.795,14.69,14.69,0,0,0,1.925-7.735,14.025,14.025,0,0,0-1.015-5.355,13.287,13.287,0,0,0-2.94-4.41,13.176,13.176,0,0,0-4.655-2.975,16.641,16.641,0,0,0-6.02-1.05H235.55Zm10.99-41.44h12.04q3.78,0,5.67,1.68t1.89,5.25q0,3.71-1.89,5.425t-5.67,1.715H246.54ZM286.09,0h10.99V-19.53h10.99q4.06,0,5.915,1.75t2.415,5.81q.21,1.4.42,4.06.21,2.87.455,4.69A11.594,11.594,0,0,0,318.15,0h10.99a9.779,9.779,0,0,1-1.435-4.06q-.385-2.52-.6-6.09-.07-1.4-.07-1.68a18.643,18.643,0,0,0-1.925-7.6,8.066,8.066,0,0,0-5.355-4.1v-.14a11.768,11.768,0,0,0,5.985-4.795,14.689,14.689,0,0,0,1.925-7.735,14.025,14.025,0,0,0-1.015-5.355,13.287,13.287,0,0,0-2.94-4.41,13.176,13.176,0,0,0-4.655-2.975,16.641,16.641,0,0,0-6.02-1.05H286.09Zm10.99-41.44h12.04q3.78,0,5.67,1.68t1.89,5.25q0,3.71-1.89,5.425t-5.67,1.715H297.08ZM336.63,0h10.99V-49.98H336.63Zm60.48-49.98H385.77L374.5-14.84h-.14L363.23-49.98H351.89L368.13,0h12.39ZM396.06,0h11.13l3.92-11.13H429.8L433.58,0h11.41L426.3-49.98H415.03Zm24.43-37.66h.14l6.3,18.34H413.98ZM449.33,0h35.35V-9.24H460.32V-49.98H449.33Zm38.36-16.59a17.242,17.242,0,0,0,1.715,7.875,15.636,15.636,0,0,0,4.69,5.6A20.353,20.353,0,0,0,500.885.14a30.344,30.344,0,0,0,8.085,1.05q9.87,0,15.33-4.445a14.232,14.232,0,0,0,5.46-11.585,12.847,12.847,0,0,0-1.54-6.475,12.66,12.66,0,0,0-3.85-4.27,20.387,20.387,0,0,0-4.41-2.345,45.52,45.52,0,0,0-4.62-1.4,1.321,1.321,0,0,1-.42-.07,5.874,5.874,0,0,0-1.12-.28q-5.25-1.33-7.56-2.03a27.473,27.473,0,0,1-3.71-1.365,4.577,4.577,0,0,1-1.96-1.54,4.306,4.306,0,0,1-.56-2.345,4.69,4.69,0,0,1,2.24-4.27,9.832,9.832,0,0,1,5.32-1.4,12.918,12.918,0,0,1,7.035,1.68q2.625,1.68,2.835,5.88h10.64a15.514,15.514,0,0,0-1.61-7.28,14.064,14.064,0,0,0-4.375-5.04,18.893,18.893,0,0,0-6.37-2.87,31.223,31.223,0,0,0-7.665-.91,24.844,24.844,0,0,0-6.825.945,19.845,19.845,0,0,0-6.02,2.835,13.925,13.925,0,0,0-4.27,4.76,13.453,13.453,0,0,0-1.575,6.58,12.632,12.632,0,0,0,1.225,5.775,11.455,11.455,0,0,0,3.29,3.99,18.675,18.675,0,0,0,4.585,2.555,61.075,61.075,0,0,0,5.81,1.89q1.19.28,3.22.84,3.08.7,4.9,1.26a19.818,19.818,0,0,1,3.36,1.365,7.45,7.45,0,0,1,2.45,1.96,4.439,4.439,0,0,1,.91,2.835,4.965,4.965,0,0,1-.91,3.045A6.2,6.2,0,0,1,515.8-8.61a12.349,12.349,0,0,1-3.15.98,19.371,19.371,0,0,1-3.255.28,13.128,13.128,0,0,1-7.945-2.275Q498.33-11.9,498.33-16.59Z" transform="translate(-4.83 51.17)"/>
</svg>
