<svg xmlns="http://www.w3.org/2000/svg" width="31.217" height="11.647" viewBox="0 0 31.217 11.647">
  <path id="패스_62" data-name="패스 62" d="M1.1,0H3.456V-8.016h.032L6.288,0H8.224l2.8-8.1h.032V0h2.352V-11.424H9.872L7.344-3.568H7.312L4.64-11.424H1.1ZM23.216-3.584v-.208a1.7,1.7,0,0,0,.016-.192,5.579,5.579,0,0,0-.264-1.728,4.444,4.444,0,0,0-.768-1.44,3.555,3.555,0,0,0-1.264-.984A4.009,4.009,0,0,0,19.2-8.5a4.392,4.392,0,0,0-1.712.328,3.894,3.894,0,0,0-1.344.92,4.142,4.142,0,0,0-.864,1.392,4.825,4.825,0,0,0-.3,1.728,5.055,5.055,0,0,0,.3,1.752A4,4,0,0,0,16.12-.984a3.687,3.687,0,0,0,1.336.9A4.679,4.679,0,0,0,19.2.224a4.161,4.161,0,0,0,2.424-.68,3.929,3.929,0,0,0,1.448-2.1h-2a1.333,1.333,0,0,1-.624.744,2.118,2.118,0,0,1-1.168.328A1.992,1.992,0,0,1,17.808-2a2.313,2.313,0,0,1-.56-1.584Zm-5.968-1.44a2.276,2.276,0,0,1,.112-.568,1.737,1.737,0,0,1,.32-.568,1.722,1.722,0,0,1,.584-.448,1.971,1.971,0,0,1,.872-.176,1.639,1.639,0,0,1,1.224.432,2.481,2.481,0,0,1,.584,1.328ZM24.56,0h2.272V-4.336a3.069,3.069,0,0,1,.416-1.816A1.574,1.574,0,0,1,28.592-6.7a1.253,1.253,0,0,1,1.12.5,2.779,2.779,0,0,1,.336,1.536V0H32.32V-5.088a6.7,6.7,0,0,0-.136-1.432,2.6,2.6,0,0,0-.48-1.056,2.212,2.212,0,0,0-.936-.68A3.936,3.936,0,0,0,29.3-8.5a3.073,3.073,0,0,0-1.432.352,2.768,2.768,0,0,0-1.1,1.024H26.72V-8.272H24.56Z" transform="translate(-1.104 11.424)"/>
</svg>
