<svg xmlns="http://www.w3.org/2000/svg" width="94.704" height="11.647" viewBox="0 0 94.704 11.647">
  <path id="패스_71" data-name="패스 71" d="M1.1,0H3.456V-7.648h.032L8.24,0h2.512V-11.424H8.4V-3.76H8.368L3.6-11.424H1.1ZM20.56-3.584v-.208a1.7,1.7,0,0,0,.016-.192,5.579,5.579,0,0,0-.264-1.728,4.444,4.444,0,0,0-.768-1.44,3.555,3.555,0,0,0-1.264-.984,4.009,4.009,0,0,0-1.736-.36,4.392,4.392,0,0,0-1.712.328,3.894,3.894,0,0,0-1.344.92,4.142,4.142,0,0,0-.864,1.392,4.825,4.825,0,0,0-.3,1.728,5.055,5.055,0,0,0,.3,1.752,4,4,0,0,0,.848,1.392,3.687,3.687,0,0,0,1.336.9,4.679,4.679,0,0,0,1.744.312,4.161,4.161,0,0,0,2.424-.68,3.929,3.929,0,0,0,1.448-2.1h-2a1.333,1.333,0,0,1-.624.744,2.118,2.118,0,0,1-1.168.328A1.992,1.992,0,0,1,15.152-2a2.313,2.313,0,0,1-.56-1.584Zm-5.968-1.44a2.276,2.276,0,0,1,.112-.568,1.737,1.737,0,0,1,.32-.568,1.722,1.722,0,0,1,.584-.448,1.971,1.971,0,0,1,.872-.176,1.639,1.639,0,0,1,1.224.432,2.481,2.481,0,0,1,.584,1.328ZM33.968-8.272H31.632l-1.52,5.6H30.08l-1.408-5.6H26.464L25.088-2.656h-.032l-1.52-5.616h-2.4L23.76,0h2.352L27.52-5.552h.032L29.024,0H31.36ZM38.4,0h2.544l.9-2.544h4.272L46.976,0h2.608L45.312-11.424H42.736Zm5.584-8.608h.032l1.44,4.192H42.5ZM50.336,0h2.272V-3.728a3.177,3.177,0,0,1,.536-1.928,1.975,1.975,0,0,1,1.7-.728,4.284,4.284,0,0,1,.44.024,3.42,3.42,0,0,1,.376.056V-8.416a1.558,1.558,0,0,0-.5-.08,2.831,2.831,0,0,0-1.584.5,2.681,2.681,0,0,0-1.056,1.264H52.5V-8.272h-2.16ZM56.56,0h2.272V-3.728a3.177,3.177,0,0,1,.536-1.928,1.975,1.975,0,0,1,1.7-.728,4.284,4.284,0,0,1,.44.024,3.42,3.42,0,0,1,.376.056V-8.416a1.558,1.558,0,0,0-.5-.08,2.831,2.831,0,0,0-1.584.5,2.681,2.681,0,0,0-1.056,1.264H58.72V-8.272H56.56Zm6.288,0H65.12V-8.272H62.848ZM65.12-11.424H62.848v1.872H65.12Zm9.168,3.152H72.032L70.288-2.624h-.032L68.512-8.272H66.128L68.96,0h2.528Zm6.1,5.072a3.55,3.55,0,0,1-.048.568,1.843,1.843,0,0,1-.224.608,1.365,1.365,0,0,1-.56.52,2.114,2.114,0,0,1-1.008.208,1.923,1.923,0,0,1-1.016-.232.89.89,0,0,1-.376-.824.963.963,0,0,1,.352-.824,2.453,2.453,0,0,1,.992-.392l.544-.08q.528-.08.84-.16a1.268,1.268,0,0,0,.5-.24ZM77.408-5.728a1.3,1.3,0,0,1,.448-.952,1.69,1.69,0,0,1,1.056-.3A2.178,2.178,0,0,1,80-6.752a.95.95,0,0,1,.384.9.673.673,0,0,1-.464.688,7.041,7.041,0,0,1-1.488.3q-.416.048-.736.1a6.965,6.965,0,0,0-1.088.224,3.061,3.061,0,0,0-.872.416,1.921,1.921,0,0,0-.624.736,2.522,2.522,0,0,0-.232,1.136,2.234,2.234,0,0,0,.784,1.848A3.137,3.137,0,0,0,77.7.224,4.756,4.756,0,0,0,79.24-.024,3.084,3.084,0,0,0,80.48-.8a3.116,3.116,0,0,0,.16.8h2.3a2.042,2.042,0,0,1-.216-.728,7.684,7.684,0,0,1-.072-1.112v-4.3a2.049,2.049,0,0,0-.32-1.176,2.137,2.137,0,0,0-.84-.728A3.927,3.927,0,0,0,80.344-8.4a8.784,8.784,0,0,0-1.32-.1,6.965,6.965,0,0,0-1.4.136,3.889,3.889,0,0,0-1.216.464,2.6,2.6,0,0,0-.888.864,2.739,2.739,0,0,0-.384,1.3ZM84.48,0h2.272V-11.424H84.48Zm3.664-2.688a2.9,2.9,0,0,0,.36,1.352,2.6,2.6,0,0,0,.872.912,3.841,3.841,0,0,0,1.216.5,6.517,6.517,0,0,0,1.44.152A6.333,6.333,0,0,0,93.448.072a3.863,3.863,0,0,0,1.2-.488,2.443,2.443,0,0,0,.848-.9,2.721,2.721,0,0,0,.312-1.344A2.02,2.02,0,0,0,95.6-3.6a1.8,1.8,0,0,0-.576-.656,3.691,3.691,0,0,0-.816-.424,7.668,7.668,0,0,0-1.024-.3q-.176-.048-.624-.144a8.2,8.2,0,0,1-1.472-.416.7.7,0,0,1-.48-.672.6.6,0,0,1,.368-.608,2.244,2.244,0,0,1,.9-.16,2.1,2.1,0,0,1,1.1.248,1.037,1.037,0,0,1,.456.872h2.16A2.842,2.842,0,0,0,95.208-7.1a2.389,2.389,0,0,0-.816-.816,3.693,3.693,0,0,0-1.12-.44A6.2,6.2,0,0,0,91.936-8.5a6.806,6.806,0,0,0-1.352.128,3.759,3.759,0,0,0-1.144.424,2.142,2.142,0,0,0-.808.824,2.581,2.581,0,0,0-.3,1.28,1.786,1.786,0,0,0,.216.9,1.865,1.865,0,0,0,.584.624,3.459,3.459,0,0,0,.808.4,9.344,9.344,0,0,0,1.016.28,12.059,12.059,0,0,1,2,.552.793.793,0,0,1,.576.728.857.857,0,0,1-.448.8,2.059,2.059,0,0,1-1.04.256,2.11,2.11,0,0,1-1.232-.344A1.226,1.226,0,0,1,90.3-2.688Z" transform="translate(-1.104 11.424)"/>
</svg>
