<svg xmlns="http://www.w3.org/2000/svg" width="91.312" height="11.648" viewBox="0 0 91.312 11.648">
  <path id="패스_65" data-name="패스 65" d="M1.1,0H3.456V-7.648h.032L8.24,0h2.512V-11.424H8.4V-3.76H8.368L3.6-11.424H1.1ZM20.56-3.584v-.208a1.7,1.7,0,0,0,.016-.192,5.579,5.579,0,0,0-.264-1.728,4.444,4.444,0,0,0-.768-1.44,3.555,3.555,0,0,0-1.264-.984,4.009,4.009,0,0,0-1.736-.36,4.392,4.392,0,0,0-1.712.328,3.894,3.894,0,0,0-1.344.92,4.142,4.142,0,0,0-.864,1.392,4.825,4.825,0,0,0-.3,1.728,5.055,5.055,0,0,0,.3,1.752,4,4,0,0,0,.848,1.392,3.687,3.687,0,0,0,1.336.9,4.679,4.679,0,0,0,1.744.312,4.161,4.161,0,0,0,2.424-.68,3.929,3.929,0,0,0,1.448-2.1h-2a1.333,1.333,0,0,1-.624.744,2.118,2.118,0,0,1-1.168.328A1.992,1.992,0,0,1,15.152-2a2.313,2.313,0,0,1-.56-1.584Zm-5.968-1.44a2.276,2.276,0,0,1,.112-.568,1.737,1.737,0,0,1,.32-.568,1.722,1.722,0,0,1,.584-.448,1.971,1.971,0,0,1,.872-.176,1.639,1.639,0,0,1,1.224.432,2.481,2.481,0,0,1,.584,1.328ZM33.968-8.272H31.632l-1.52,5.6H30.08l-1.408-5.6H26.464L25.088-2.656h-.032l-1.52-5.616h-2.4L23.76,0h2.352L27.52-5.552h.032L29.024,0H31.36Zm.56,5.584a2.9,2.9,0,0,0,.36,1.352,2.6,2.6,0,0,0,.872.912,3.841,3.841,0,0,0,1.216.5,6.517,6.517,0,0,0,1.44.152A6.333,6.333,0,0,0,39.832.072a3.863,3.863,0,0,0,1.2-.488,2.443,2.443,0,0,0,.848-.9,2.721,2.721,0,0,0,.312-1.344,2.02,2.02,0,0,0-.208-.944,1.8,1.8,0,0,0-.576-.656,3.691,3.691,0,0,0-.816-.424,7.668,7.668,0,0,0-1.024-.3q-.176-.048-.624-.144a8.2,8.2,0,0,1-1.472-.416.7.7,0,0,1-.48-.672.6.6,0,0,1,.368-.608,2.243,2.243,0,0,1,.9-.16,2.1,2.1,0,0,1,1.1.248,1.037,1.037,0,0,1,.456.872h2.16A2.842,2.842,0,0,0,41.592-7.1a2.389,2.389,0,0,0-.816-.816,3.693,3.693,0,0,0-1.12-.44A6.2,6.2,0,0,0,38.32-8.5a6.806,6.806,0,0,0-1.352.128,3.759,3.759,0,0,0-1.144.424,2.142,2.142,0,0,0-.808.824,2.581,2.581,0,0,0-.3,1.28,1.786,1.786,0,0,0,.216.9,1.865,1.865,0,0,0,.584.624,3.459,3.459,0,0,0,.808.4,9.344,9.344,0,0,0,1.016.28,12.059,12.059,0,0,1,2,.552.793.793,0,0,1,.576.728.857.857,0,0,1-.448.8,2.06,2.06,0,0,1-1.04.256A2.11,2.11,0,0,1,37.2-1.64a1.226,1.226,0,0,1-.512-1.048ZM48.208,0h8.08V-2.112H50.72v-9.312H48.208ZM65.3-3.584v-.208a1.7,1.7,0,0,0,.016-.192,5.579,5.579,0,0,0-.264-1.728,4.444,4.444,0,0,0-.768-1.44,3.555,3.555,0,0,0-1.264-.984A4.009,4.009,0,0,0,61.28-8.5a4.392,4.392,0,0,0-1.712.328,3.894,3.894,0,0,0-1.344.92,4.142,4.142,0,0,0-.864,1.392,4.824,4.824,0,0,0-.3,1.728,5.056,5.056,0,0,0,.3,1.752A4,4,0,0,0,58.2-.984a3.687,3.687,0,0,0,1.336.9A4.679,4.679,0,0,0,61.28.224,4.161,4.161,0,0,0,63.7-.456a3.929,3.929,0,0,0,1.448-2.1h-2a1.333,1.333,0,0,1-.624.744,2.118,2.118,0,0,1-1.168.328A1.992,1.992,0,0,1,59.888-2a2.313,2.313,0,0,1-.56-1.584Zm-5.968-1.44a2.276,2.276,0,0,1,.112-.568,1.737,1.737,0,0,1,.32-.568,1.722,1.722,0,0,1,.584-.448,1.971,1.971,0,0,1,.872-.176,1.639,1.639,0,0,1,1.224.432,2.481,2.481,0,0,1,.584,1.328ZM69.52-10.752H67.248v2.48H65.872v1.52h1.376v4.88a2.155,2.155,0,0,0,.2.984,1.471,1.471,0,0,0,.56.608,2.365,2.365,0,0,0,.816.3A6.01,6.01,0,0,0,69.856.1a8.53,8.53,0,0,0,1.328-.08V-1.76a3.6,3.6,0,0,1-.7.064,1.112,1.112,0,0,1-.768-.192,1.112,1.112,0,0,1-.192-.768v-4.1h1.664v-1.52H69.52Zm5.632,0H72.88v2.48H71.5v1.52H72.88v4.88a2.155,2.155,0,0,0,.2.984,1.471,1.471,0,0,0,.56.608,2.365,2.365,0,0,0,.816.3A6.01,6.01,0,0,0,75.488.1a8.53,8.53,0,0,0,1.328-.08V-1.76a3.6,3.6,0,0,1-.7.064,1.112,1.112,0,0,1-.768-.192,1.112,1.112,0,0,1-.192-.768v-4.1h1.664v-1.52H75.152ZM85.744-3.584v-.208a1.7,1.7,0,0,0,.016-.192A5.579,5.579,0,0,0,85.5-5.712a4.444,4.444,0,0,0-.768-1.44,3.555,3.555,0,0,0-1.264-.984,4.009,4.009,0,0,0-1.736-.36,4.392,4.392,0,0,0-1.712.328,3.894,3.894,0,0,0-1.344.92,4.142,4.142,0,0,0-.864,1.392,4.824,4.824,0,0,0-.3,1.728,5.055,5.055,0,0,0,.3,1.752,4,4,0,0,0,.848,1.392,3.687,3.687,0,0,0,1.336.9,4.679,4.679,0,0,0,1.744.312,4.161,4.161,0,0,0,2.424-.68A3.929,3.929,0,0,0,85.6-2.56h-2a1.333,1.333,0,0,1-.624.744,2.118,2.118,0,0,1-1.168.328A1.992,1.992,0,0,1,80.336-2a2.313,2.313,0,0,1-.56-1.584Zm-5.968-1.44a2.276,2.276,0,0,1,.112-.568,1.737,1.737,0,0,1,.32-.568,1.722,1.722,0,0,1,.584-.448,1.971,1.971,0,0,1,.872-.176,1.639,1.639,0,0,1,1.224.432,2.481,2.481,0,0,1,.584,1.328ZM87.088,0H89.36V-3.728A3.177,3.177,0,0,1,89.9-5.656a1.975,1.975,0,0,1,1.7-.728,4.284,4.284,0,0,1,.44.024,3.42,3.42,0,0,1,.376.056V-8.416a1.558,1.558,0,0,0-.5-.08,2.831,2.831,0,0,0-1.584.5A2.681,2.681,0,0,0,89.28-6.736h-.032V-8.272h-2.16Z" transform="translate(-1.104 11.424)" fill="#fff"/>
</svg>
