<svg xmlns="http://www.w3.org/2000/svg" width="279.44" height="29.92" viewBox="0 0 279.44 29.92">
  <path id="패스_78" data-name="패스 78" d="M2.76,0H8.64V-19.12h.08L20.6,0h6.28V-28.56H21V-9.4h-.08L9-28.56H2.76ZM32.4,0H54.08V-5.28H38.68v-7H52.52v-4.88H38.68v-6.12H53.76v-5.28H32.4ZM93.2-28.56H87.04L82.36-8.88h-.08L77.4-28.56H71.52L66.56-9.12h-.08L61.96-28.56H55.68L63.24,0H69.6l4.76-19.44h.08L79.28,0h6.24ZM94.28-9.48a9.853,9.853,0,0,0,.98,4.5,8.935,8.935,0,0,0,2.68,3.2A11.63,11.63,0,0,0,101.82.08a17.339,17.339,0,0,0,4.62.6q5.64,0,8.76-2.54a8.133,8.133,0,0,0,3.12-6.62,7.341,7.341,0,0,0-.88-3.7,7.234,7.234,0,0,0-2.2-2.44,11.65,11.65,0,0,0-2.52-1.34,26.013,26.013,0,0,0-2.64-.8.755.755,0,0,1-.24-.04,3.356,3.356,0,0,0-.64-.16q-3-.76-4.32-1.16a15.7,15.7,0,0,1-2.12-.78,2.616,2.616,0,0,1-1.12-.88,2.461,2.461,0,0,1-.32-1.34,2.68,2.68,0,0,1,1.28-2.44,5.618,5.618,0,0,1,3.04-.8,7.382,7.382,0,0,1,4.02.96,3.928,3.928,0,0,1,1.62,3.36h6.08a8.865,8.865,0,0,0-.92-4.16,8.037,8.037,0,0,0-2.5-2.88,10.8,10.8,0,0,0-3.64-1.64,17.842,17.842,0,0,0-4.38-.52,14.2,14.2,0,0,0-3.9.54,11.34,11.34,0,0,0-3.44,1.62,7.957,7.957,0,0,0-2.44,2.72,7.687,7.687,0,0,0-.9,3.76,7.218,7.218,0,0,0,.7,3.3,6.546,6.546,0,0,0,1.88,2.28,10.671,10.671,0,0,0,2.62,1.46,34.9,34.9,0,0,0,3.32,1.08q.68.16,1.84.48,1.76.4,2.8.72a11.325,11.325,0,0,1,1.92.78,4.257,4.257,0,0,1,1.4,1.12,2.537,2.537,0,0,1,.52,1.62,2.837,2.837,0,0,1-.52,1.74,3.542,3.542,0,0,1-1.38,1.1,7.056,7.056,0,0,1-1.8.56,11.069,11.069,0,0,1-1.86.16,7.5,7.5,0,0,1-4.54-1.3,4.6,4.6,0,0,1-1.78-3.98ZM133.16,0h20.2V-5.28H139.44V-28.56h-6.28Zm23.72,0h21.68V-5.28h-15.4v-7H177v-4.88H163.16v-6.12h15.08v-5.28H156.88Zm32.24,0h6.28V-23.28h8.56v-5.28h-23.4v5.28h8.56Zm24.44,0h6.28V-23.28h8.56v-5.28H205v5.28h8.56Zm18.12,0h21.68V-5.28h-15.4v-7H251.8v-4.88H237.96v-6.12h15.08v-5.28H231.68ZM257.6,0h6.28V-11.16h6.28a4.808,4.808,0,0,1,3.38,1,5.493,5.493,0,0,1,1.38,3.32q.12.8.24,2.32.12,1.64.26,2.68a6.626,6.626,0,0,0,.5,1.84h6.28a5.588,5.588,0,0,1-.82-2.32q-.22-1.44-.34-3.48-.04-.8-.04-.96a10.653,10.653,0,0,0-1.1-4.34,4.609,4.609,0,0,0-3.06-2.34v-.08a6.724,6.724,0,0,0,3.42-2.74,8.394,8.394,0,0,0,1.1-4.42,8.014,8.014,0,0,0-.58-3.06,7.594,7.594,0,0,0-1.68-2.52,7.529,7.529,0,0,0-2.66-1.7,9.509,9.509,0,0,0-3.44-.6H257.6Zm6.28-23.68h6.88a4.75,4.75,0,0,1,3.24.96,3.816,3.816,0,0,1,1.08,3,4,4,0,0,1-1.08,3.1,4.684,4.684,0,0,1-3.24.98h-6.88Z" transform="translate(-2.76 29.24)"/>
</svg>
