<svg xmlns="http://www.w3.org/2000/svg" width="85.605" height="10.92" viewBox="0 0 85.605 10.92">
  <path id="패스_216" data-name="패스 216" d="M1.035,0h2.2V-7.17h.03L7.725,0H10.08V-10.71H7.875v7.185h-.03L3.375-10.71H1.035Zm18.24-3.36v-.2a1.592,1.592,0,0,0,.015-.18,5.231,5.231,0,0,0-.248-1.62,4.167,4.167,0,0,0-.72-1.35,3.332,3.332,0,0,0-1.185-.923,3.758,3.758,0,0,0-1.628-.337,4.117,4.117,0,0,0-1.605.307,3.651,3.651,0,0,0-1.26.863,3.883,3.883,0,0,0-.81,1.3,4.523,4.523,0,0,0-.285,1.62,4.739,4.739,0,0,0,.277,1.643,3.754,3.754,0,0,0,.8,1.305,3.457,3.457,0,0,0,1.253.84A4.386,4.386,0,0,0,15.51.21a3.9,3.9,0,0,0,2.273-.638A3.683,3.683,0,0,0,19.14-2.4H17.265a1.249,1.249,0,0,1-.585.7,1.986,1.986,0,0,1-1.1.308,1.868,1.868,0,0,1-1.38-.48A2.169,2.169,0,0,1,13.68-3.36Zm-5.6-1.35a2.134,2.134,0,0,1,.1-.533,1.629,1.629,0,0,1,.3-.532,1.615,1.615,0,0,1,.547-.42,1.847,1.847,0,0,1,.818-.165,1.536,1.536,0,0,1,1.148.405,2.326,2.326,0,0,1,.548,1.245ZM31.845-7.755h-2.19L28.23-2.505H28.2l-1.32-5.25H24.81L23.52-2.49h-.03L22.065-7.755h-2.25L22.275,0H24.48L25.8-5.2h.03L27.21,0H29.4ZM32.37-2.52a2.72,2.72,0,0,0,.337,1.268,2.437,2.437,0,0,0,.818.855,3.6,3.6,0,0,0,1.14.465,6.11,6.11,0,0,0,1.35.143A5.938,5.938,0,0,0,37.342.068,3.622,3.622,0,0,0,38.467-.39a2.29,2.29,0,0,0,.795-.84,2.551,2.551,0,0,0,.292-1.26,1.894,1.894,0,0,0-.195-.885,1.685,1.685,0,0,0-.54-.615,3.46,3.46,0,0,0-.765-.4,7.189,7.189,0,0,0-.96-.278Q36.93-4.71,36.51-4.8a7.69,7.69,0,0,1-1.38-.39.655.655,0,0,1-.45-.63.564.564,0,0,1,.345-.57,2.1,2.1,0,0,1,.84-.15,1.967,1.967,0,0,1,1.028.233.972.972,0,0,1,.428.818h2.025a2.664,2.664,0,0,0-.353-1.17,2.24,2.24,0,0,0-.765-.765,3.462,3.462,0,0,0-1.05-.412,5.807,5.807,0,0,0-1.252-.127,6.381,6.381,0,0,0-1.268.12,3.524,3.524,0,0,0-1.072.4,2.009,2.009,0,0,0-.757.773,2.42,2.42,0,0,0-.278,1.2,1.674,1.674,0,0,0,.2.847,1.749,1.749,0,0,0,.548.585,3.243,3.243,0,0,0,.757.375,8.76,8.76,0,0,0,.952.263,11.306,11.306,0,0,1,1.875.518.743.743,0,0,1,.54.683.8.8,0,0,1-.42.75,1.931,1.931,0,0,1-.975.24,1.978,1.978,0,0,1-1.155-.323,1.149,1.149,0,0,1-.48-.983ZM45.195,0H52.77V-1.98H47.55v-8.73H45.195Zm16.02-3.36v-.2a1.592,1.592,0,0,0,.015-.18,5.231,5.231,0,0,0-.247-1.62,4.167,4.167,0,0,0-.72-1.35,3.332,3.332,0,0,0-1.185-.923,3.758,3.758,0,0,0-1.627-.337,4.117,4.117,0,0,0-1.6.307,3.651,3.651,0,0,0-1.26.863,3.883,3.883,0,0,0-.81,1.3,4.523,4.523,0,0,0-.285,1.62,4.739,4.739,0,0,0,.278,1.643,3.754,3.754,0,0,0,.795,1.305,3.457,3.457,0,0,0,1.252.84A4.386,4.386,0,0,0,57.45.21a3.9,3.9,0,0,0,2.272-.638A3.683,3.683,0,0,0,61.08-2.4H59.2a1.249,1.249,0,0,1-.585.7,1.986,1.986,0,0,1-1.095.308,1.868,1.868,0,0,1-1.38-.48A2.169,2.169,0,0,1,55.62-3.36Zm-5.6-1.35a2.134,2.134,0,0,1,.105-.533,1.629,1.629,0,0,1,.3-.532,1.615,1.615,0,0,1,.548-.42,1.847,1.847,0,0,1,.817-.165,1.537,1.537,0,0,1,1.148.405,2.326,2.326,0,0,1,.547,1.245Zm9.555-5.37h-2.13v2.325h-1.29V-6.33h1.29v4.575a2.02,2.02,0,0,0,.188.923,1.379,1.379,0,0,0,.525.57,2.217,2.217,0,0,0,.765.277A5.634,5.634,0,0,0,65.49.09,8,8,0,0,0,66.735.015V-1.65a3.371,3.371,0,0,1-.66.06,1.042,1.042,0,0,1-.72-.18,1.042,1.042,0,0,1-.18-.72V-6.33h1.56V-7.755h-1.56Zm5.28,0h-2.13v2.325h-1.29V-6.33h1.29v4.575a2.02,2.02,0,0,0,.188.923,1.379,1.379,0,0,0,.525.57A2.217,2.217,0,0,0,69.8.015,5.634,5.634,0,0,0,70.77.09,8,8,0,0,0,72.015.015V-1.65a3.371,3.371,0,0,1-.66.06,1.042,1.042,0,0,1-.72-.18,1.042,1.042,0,0,1-.18-.72V-6.33h1.56V-7.755h-1.56Zm9.93,6.72v-.2a1.6,1.6,0,0,0,.015-.18,5.231,5.231,0,0,0-.248-1.62,4.167,4.167,0,0,0-.72-1.35,3.332,3.332,0,0,0-1.185-.923,3.758,3.758,0,0,0-1.628-.337,4.117,4.117,0,0,0-1.6.307,3.651,3.651,0,0,0-1.26.863,3.883,3.883,0,0,0-.81,1.3,4.523,4.523,0,0,0-.285,1.62,4.739,4.739,0,0,0,.278,1.643,3.754,3.754,0,0,0,.795,1.305,3.457,3.457,0,0,0,1.253.84A4.386,4.386,0,0,0,76.62.21a3.9,3.9,0,0,0,2.273-.638A3.683,3.683,0,0,0,80.25-2.4H78.375a1.249,1.249,0,0,1-.585.7,1.986,1.986,0,0,1-1.1.308,1.868,1.868,0,0,1-1.38-.48A2.169,2.169,0,0,1,74.79-3.36Zm-5.6-1.35a2.134,2.134,0,0,1,.1-.533,1.629,1.629,0,0,1,.3-.532,1.615,1.615,0,0,1,.548-.42,1.847,1.847,0,0,1,.817-.165,1.536,1.536,0,0,1,1.147.405,2.326,2.326,0,0,1,.548,1.245ZM81.645,0h2.13V-3.5a2.979,2.979,0,0,1,.5-1.808,1.851,1.851,0,0,1,1.6-.682,4.017,4.017,0,0,1,.412.023,3.206,3.206,0,0,1,.353.052V-7.89a1.461,1.461,0,0,0-.465-.075A2.654,2.654,0,0,0,84.69-7.5a2.513,2.513,0,0,0-.99,1.185h-.03v-1.44H81.645Z" transform="translate(-1.035 10.71)" fill="#525252"/>
</svg>
