<svg xmlns="http://www.w3.org/2000/svg" width="42.336" height="11.969" viewBox="0 0 42.336 11.969">
  <path id="패스_70" data-name="패스 70" d="M.608-5.664a6.92,6.92,0,0,0,.384,2.32A5.564,5.564,0,0,0,2.1-1.448,5.088,5.088,0,0,0,3.88-.184,5.816,5.816,0,0,0,6.224.272,5.816,5.816,0,0,0,8.568-.184a5.12,5.12,0,0,0,1.784-1.272,5.5,5.5,0,0,0,1.112-1.9,6.983,6.983,0,0,0,.376-2.312,7.3,7.3,0,0,0-.376-2.368A5.538,5.538,0,0,0,10.352-9.96a5.072,5.072,0,0,0-1.784-1.28A5.816,5.816,0,0,0,6.224-11.7a5.816,5.816,0,0,0-2.344.456A4.994,4.994,0,0,0,2.1-9.96,5.71,5.71,0,0,0,.992-8.032,7.159,7.159,0,0,0,.608-5.664Zm2.512,0A6.116,6.116,0,0,1,3.3-7.152,3.89,3.89,0,0,1,3.84-8.4a2.657,2.657,0,0,1,.968-.864,2.967,2.967,0,0,1,1.416-.32,2.967,2.967,0,0,1,1.416.32,2.657,2.657,0,0,1,.968.864,3.89,3.89,0,0,1,.544,1.248,6.116,6.116,0,0,1,.176,1.488,5.694,5.694,0,0,1-.176,1.432,3.819,3.819,0,0,1-.544,1.216,2.685,2.685,0,0,1-.968.856,2.967,2.967,0,0,1-1.416.32,2.982,2.982,0,0,1-1.408-.312,2.674,2.674,0,0,1-.968-.856A3.813,3.813,0,0,1,3.3-4.232,5.694,5.694,0,0,1,3.12-5.664ZM21.072-8.272H18.8v4.336a3.069,3.069,0,0,1-.416,1.816,1.574,1.574,0,0,1-1.344.552,1.257,1.257,0,0,1-1.112-.5A2.727,2.727,0,0,1,15.584-3.6V-8.272H13.312v5.088a6.583,6.583,0,0,0,.136,1.424A2.663,2.663,0,0,0,13.928-.7a2.183,2.183,0,0,0,.936.688,3.936,3.936,0,0,0,1.472.24,3.073,3.073,0,0,0,1.432-.352,2.768,2.768,0,0,0,1.1-1.024h.048V0h2.16Zm4.608-2.48H23.408v2.48H22.032v1.52h1.376v4.88a2.155,2.155,0,0,0,.2.984,1.471,1.471,0,0,0,.56.608,2.365,2.365,0,0,0,.816.3A6.01,6.01,0,0,0,26.016.1a8.53,8.53,0,0,0,1.328-.08V-1.76a3.6,3.6,0,0,1-.7.064,1.112,1.112,0,0,1-.768-.192,1.112,1.112,0,0,1-.192-.768v-4.1h1.664v-1.52H25.68ZM36.272-3.584v-.208a1.7,1.7,0,0,0,.016-.192,5.579,5.579,0,0,0-.264-1.728,4.444,4.444,0,0,0-.768-1.44,3.555,3.555,0,0,0-1.264-.984,4.009,4.009,0,0,0-1.736-.36,4.392,4.392,0,0,0-1.712.328,3.894,3.894,0,0,0-1.344.92,4.142,4.142,0,0,0-.864,1.392,4.825,4.825,0,0,0-.3,1.728,5.055,5.055,0,0,0,.3,1.752,4,4,0,0,0,.848,1.392,3.687,3.687,0,0,0,1.336.9,4.679,4.679,0,0,0,1.744.312,4.161,4.161,0,0,0,2.424-.68,3.929,3.929,0,0,0,1.448-2.1h-2a1.333,1.333,0,0,1-.624.744,2.118,2.118,0,0,1-1.168.328A1.992,1.992,0,0,1,30.864-2a2.313,2.313,0,0,1-.56-1.584ZM30.3-5.024a2.276,2.276,0,0,1,.112-.568,1.737,1.737,0,0,1,.32-.568,1.722,1.722,0,0,1,.584-.448,1.971,1.971,0,0,1,.872-.176,1.639,1.639,0,0,1,1.224.432A2.481,2.481,0,0,1,34-5.024ZM37.616,0h2.272V-3.728a3.177,3.177,0,0,1,.536-1.928,1.975,1.975,0,0,1,1.7-.728,4.284,4.284,0,0,1,.44.024,3.42,3.42,0,0,1,.376.056V-8.416a1.558,1.558,0,0,0-.5-.08,2.831,2.831,0,0,0-1.584.5,2.681,2.681,0,0,0-1.056,1.264h-.032V-8.272h-2.16Z" transform="translate(-0.608 11.696)"/>
</svg>
