<svg xmlns="http://www.w3.org/2000/svg" width="53.01" height="13.104" viewBox="0 0 53.01 13.104">
  <path id="패스_59" data-name="패스 59" d="M1.242,0H6.786A6.321,6.321,0,0,0,9.324-.477,4.9,4.9,0,0,0,11.16-1.836a5.819,5.819,0,0,0,1.1-2.061,8.879,8.879,0,0,0,.36-2.6,6.442,6.442,0,0,0-1.611-4.725,5.674,5.674,0,0,0-4.221-1.629H1.242ZM4.068-10.476H6.084A3.41,3.41,0,0,1,8.946-9.387a5.068,5.068,0,0,1,.846,3.159,5.387,5.387,0,0,1-.261,1.773A3.2,3.2,0,0,1,8.82-3.249,2.721,2.721,0,0,1,7.8-2.583a3.516,3.516,0,0,1-1.215.207H4.068ZM23.13-4.032v-.234a1.91,1.91,0,0,0,.018-.216,6.277,6.277,0,0,0-.3-1.944,5,5,0,0,0-.864-1.62,4,4,0,0,0-1.422-1.107,4.51,4.51,0,0,0-1.953-.4,4.941,4.941,0,0,0-1.926.369,4.381,4.381,0,0,0-1.512,1.035A4.66,4.66,0,0,0,14.2-6.588a5.428,5.428,0,0,0-.342,1.944,5.687,5.687,0,0,0,.333,1.971,4.5,4.5,0,0,0,.954,1.566A4.148,4.148,0,0,0,16.65-.1a5.264,5.264,0,0,0,1.962.351,4.681,4.681,0,0,0,2.727-.765A4.42,4.42,0,0,0,22.968-2.88h-2.25a1.5,1.5,0,0,1-.7.837,2.383,2.383,0,0,1-1.314.369,2.241,2.241,0,0,1-1.656-.576,2.6,2.6,0,0,1-.63-1.782Zm-6.714-1.62a2.56,2.56,0,0,1,.126-.639,1.954,1.954,0,0,1,.36-.639,1.937,1.937,0,0,1,.657-.5,2.217,2.217,0,0,1,.981-.2,1.844,1.844,0,0,1,1.377.486,2.792,2.792,0,0,1,.657,1.494ZM24.642,0H27.2V-4.878a3.452,3.452,0,0,1,.468-2.043,1.771,1.771,0,0,1,1.512-.621,1.41,1.41,0,0,1,1.26.558,3.127,3.127,0,0,1,.378,1.728V0h2.556V-5.724a7.533,7.533,0,0,0-.153-1.611,2.921,2.921,0,0,0-.54-1.188,2.488,2.488,0,0,0-1.053-.765,4.428,4.428,0,0,0-1.656-.27,3.457,3.457,0,0,0-1.611.4A3.114,3.114,0,0,0,27.126-8.01h-.054v-1.3h-2.43ZM35.388,0h2.556V-9.306H35.388Zm2.556-12.852H35.388v2.106h2.556ZM40.032,0h2.556V-5.4a2.648,2.648,0,0,1,.189-1.062,1.84,1.84,0,0,1,.459-.666,1.572,1.572,0,0,1,.558-.324,1.767,1.767,0,0,1,.522-.09,1.725,1.725,0,0,1,.855.18,1.14,1.14,0,0,1,.468.486,1.923,1.923,0,0,1,.189.684q.036.378.036.972V0H48.42V-5.184a5.22,5.22,0,0,1,.072-.909,2.329,2.329,0,0,1,.252-.729,1.363,1.363,0,0,1,.522-.522,1.7,1.7,0,0,1,.864-.2,1.812,1.812,0,0,1,.846.171,1.078,1.078,0,0,1,.477.477,2.063,2.063,0,0,1,.2.684,8.126,8.126,0,0,1,.045.936V0h2.556V-6.228a3.2,3.2,0,0,0-.909-2.529,3.64,3.64,0,0,0-2.493-.8,3.073,3.073,0,0,0-1.638.441,3.76,3.76,0,0,0-1.17,1.107,2.4,2.4,0,0,0-1.071-1.17,3.457,3.457,0,0,0-1.647-.378,3.32,3.32,0,0,0-1.611.4A3.583,3.583,0,0,0,42.48-8.046h-.036v-1.26H40.032Z" transform="translate(-1.242 12.852)"/>
</svg>
