<svg xmlns="http://www.w3.org/2000/svg" width="87.75" height="13.464" viewBox="0 0 87.75 13.464">
  <path id="패스_57" data-name="패스 57" d="M.684-6.372a7.785,7.785,0,0,0,.432,2.61A6.259,6.259,0,0,0,2.367-1.629a5.724,5.724,0,0,0,2,1.422A6.543,6.543,0,0,0,7,.306,6.543,6.543,0,0,0,9.639-.207a5.76,5.76,0,0,0,2.007-1.431A6.181,6.181,0,0,0,12.9-3.771a7.856,7.856,0,0,0,.423-2.6A8.209,8.209,0,0,0,12.9-9.036,6.231,6.231,0,0,0,11.646-11.2a5.707,5.707,0,0,0-2.007-1.44A6.543,6.543,0,0,0,7-13.158a6.543,6.543,0,0,0-2.637.513,5.619,5.619,0,0,0-2,1.44A6.424,6.424,0,0,0,1.116-9.036,8.053,8.053,0,0,0,.684-6.372Zm2.826,0a6.88,6.88,0,0,1,.2-1.674,4.376,4.376,0,0,1,.612-1.4,2.99,2.99,0,0,1,1.089-.972A3.338,3.338,0,0,1,7-10.782a3.338,3.338,0,0,1,1.593.36,2.99,2.99,0,0,1,1.089.972,4.376,4.376,0,0,1,.612,1.4,6.88,6.88,0,0,1,.2,1.674,6.406,6.406,0,0,1-.2,1.611,4.3,4.3,0,0,1-.612,1.368A3.021,3.021,0,0,1,8.6-2.43,3.338,3.338,0,0,1,7-2.07a3.354,3.354,0,0,1-1.584-.351,3.009,3.009,0,0,1-1.089-.963,4.289,4.289,0,0,1-.621-1.377A6.406,6.406,0,0,1,3.51-6.372ZM23.274-9.306H20.736L18.774-2.952h-.036L16.776-9.306H14.094L17.28,0h2.844Zm9.882,5.274v-.234a1.911,1.911,0,0,0,.018-.216,6.277,6.277,0,0,0-.3-1.944,5,5,0,0,0-.864-1.62,4,4,0,0,0-1.422-1.107,4.51,4.51,0,0,0-1.953-.4,4.941,4.941,0,0,0-1.926.369A4.381,4.381,0,0,0,25.2-8.154a4.66,4.66,0,0,0-.972,1.566,5.428,5.428,0,0,0-.342,1.944,5.687,5.687,0,0,0,.333,1.971,4.5,4.5,0,0,0,.954,1.566A4.148,4.148,0,0,0,26.676-.1a5.264,5.264,0,0,0,1.962.351,4.681,4.681,0,0,0,2.727-.765A4.42,4.42,0,0,0,32.994-2.88h-2.25a1.5,1.5,0,0,1-.7.837,2.383,2.383,0,0,1-1.314.369,2.241,2.241,0,0,1-1.656-.576,2.6,2.6,0,0,1-.63-1.782Zm-6.714-1.62a2.561,2.561,0,0,1,.126-.639,1.954,1.954,0,0,1,.36-.639,1.937,1.937,0,0,1,.657-.5,2.217,2.217,0,0,1,.981-.2,1.844,1.844,0,0,1,1.377.486A2.792,2.792,0,0,1,30.6-5.652ZM34.668,0h2.556V-4.194a3.574,3.574,0,0,1,.6-2.169,2.222,2.222,0,0,1,1.917-.819,4.82,4.82,0,0,1,.495.027,3.847,3.847,0,0,1,.423.063V-9.468a1.753,1.753,0,0,0-.558-.09A3.185,3.185,0,0,0,38.322-9a3.016,3.016,0,0,0-1.188,1.422H37.1V-9.306h-2.43ZM41.22-3.024A3.264,3.264,0,0,0,41.625-1.5a2.924,2.924,0,0,0,.981,1.026,4.321,4.321,0,0,0,1.368.558,7.332,7.332,0,0,0,1.62.171A7.125,7.125,0,0,0,47.187.081a4.346,4.346,0,0,0,1.35-.549,2.748,2.748,0,0,0,.954-1.008,3.062,3.062,0,0,0,.351-1.512,2.273,2.273,0,0,0-.234-1.062,2.022,2.022,0,0,0-.648-.738,4.152,4.152,0,0,0-.918-.477A8.627,8.627,0,0,0,46.89-5.6q-.2-.054-.7-.162a9.228,9.228,0,0,1-1.656-.468.786.786,0,0,1-.54-.756.677.677,0,0,1,.414-.684,2.524,2.524,0,0,1,1.008-.18,2.36,2.36,0,0,1,1.233.279,1.167,1.167,0,0,1,.513.981h2.43a3.2,3.2,0,0,0-.423-1.4,2.688,2.688,0,0,0-.918-.918,4.154,4.154,0,0,0-1.26-.495,6.969,6.969,0,0,0-1.5-.153,7.657,7.657,0,0,0-1.521.144,4.229,4.229,0,0,0-1.287.477,2.41,2.41,0,0,0-.909.927,2.9,2.9,0,0,0-.333,1.44,2.009,2.009,0,0,0,.243,1.017,2.1,2.1,0,0,0,.657.7,3.892,3.892,0,0,0,.909.45,10.512,10.512,0,0,0,1.143.315,13.567,13.567,0,0,1,2.25.621.892.892,0,0,1,.648.819.964.964,0,0,1-.5.9,2.317,2.317,0,0,1-1.17.288,2.374,2.374,0,0,1-1.386-.387,1.379,1.379,0,0,1-.576-1.179ZM54.576-12.1H52.02v2.79H50.472V-7.6H52.02v5.49A2.424,2.424,0,0,0,52.245-1a1.655,1.655,0,0,0,.63.684,2.66,2.66,0,0,0,.918.333,6.761,6.761,0,0,0,1.161.09,9.6,9.6,0,0,0,1.494-.09v-2a4.046,4.046,0,0,1-.792.072,1.251,1.251,0,0,1-.864-.216,1.251,1.251,0,0,1-.216-.864V-7.6h1.872v-1.71H54.576Zm2.808,7.452A4.861,4.861,0,0,0,58.7-1.089,4.668,4.668,0,0,0,62.19.252,4.691,4.691,0,0,0,65.7-1.089a4.861,4.861,0,0,0,1.314-3.555A4.885,4.885,0,0,0,65.7-8.217a4.691,4.691,0,0,0-3.51-1.341A4.668,4.668,0,0,0,58.7-8.217,4.885,4.885,0,0,0,57.384-4.644Zm2.556,0a5.218,5.218,0,0,1,.117-1.125,3.052,3.052,0,0,1,.378-.954,1.872,1.872,0,0,1,.7-.666,2.151,2.151,0,0,1,1.053-.243,2.191,2.191,0,0,1,1.071.243,1.872,1.872,0,0,1,.7.666,3.052,3.052,0,0,1,.378.954,5.218,5.218,0,0,1,.117,1.125,5.094,5.094,0,0,1-.117,1.116,3.058,3.058,0,0,1-.378.945,1.872,1.872,0,0,1-.7.666,2.19,2.19,0,0,1-1.071.243,2.151,2.151,0,0,1-1.053-.243,1.872,1.872,0,0,1-.7-.666,3.059,3.059,0,0,1-.378-.945A5.094,5.094,0,0,1,59.94-4.644ZM77.508-6.03a3.327,3.327,0,0,0-1.359-2.61,4.956,4.956,0,0,0-3.015-.918,5.2,5.2,0,0,0-2.007.369,4.079,4.079,0,0,0-1.5,1.053A4.608,4.608,0,0,0,68.7-6.525a6.2,6.2,0,0,0-.315,2.007A5.337,5.337,0,0,0,68.715-2.6a4.317,4.317,0,0,0,.963,1.512,4.374,4.374,0,0,0,1.5.99,5.044,5.044,0,0,0,1.9.351,4.628,4.628,0,0,0,3.051-.99,4.187,4.187,0,0,0,1.431-2.826H75.1a2.314,2.314,0,0,1-.648,1.386,1.911,1.911,0,0,1-1.386.5,1.818,1.818,0,0,1-.99-.261,1.939,1.939,0,0,1-.657-.684,3.372,3.372,0,0,1-.36-.936,4.72,4.72,0,0,1-.117-1.053,4.963,4.963,0,0,1,.117-1.071,3.436,3.436,0,0,1,.369-.972,1.991,1.991,0,0,1,.684-.711,1.862,1.862,0,0,1,1.008-.27,1.714,1.714,0,0,1,1.89,1.6ZM79.236,0h2.556V-3.2l.99-.954L85.338,0h3.1L84.528-5.886l3.51-3.42H85.014L81.792-5.958v-6.894H79.236Z" transform="translate(-0.684 13.158)"/>
</svg>
