<svg xmlns="http://www.w3.org/2000/svg" width="31.755" height="11.97" viewBox="0 0 31.755 11.97">
  <path id="패스_215" data-name="패스 215" d="M11.04-.15,9.7-1.365A5.38,5.38,0,0,0,10.74-3.143,6.423,6.423,0,0,0,11.1-5.31a6.841,6.841,0,0,0-.352-2.22A5.192,5.192,0,0,0,9.7-9.337a4.755,4.755,0,0,0-1.672-1.2,5.453,5.453,0,0,0-2.2-.427,5.453,5.453,0,0,0-2.2.427,4.682,4.682,0,0,0-1.665,1.2A5.353,5.353,0,0,0,.93-7.53,6.711,6.711,0,0,0,.57-5.31,6.488,6.488,0,0,0,.93-3.135,5.216,5.216,0,0,0,1.973-1.358,4.77,4.77,0,0,0,3.638-.173a5.453,5.453,0,0,0,2.2.428A5.116,5.116,0,0,0,8.43-.375L9.945,1ZM5.775-2.79l1.005.915a.54.54,0,0,1-.338.127q-.232.023-.607.023a2.8,2.8,0,0,1-1.32-.293,2.507,2.507,0,0,1-.908-.8A3.575,3.575,0,0,1,3.09-3.968,5.338,5.338,0,0,1,2.925-5.31a5.733,5.733,0,0,1,.165-1.4,3.647,3.647,0,0,1,.51-1.17,2.491,2.491,0,0,1,.908-.81,2.782,2.782,0,0,1,1.328-.3,2.782,2.782,0,0,1,1.327.3,2.491,2.491,0,0,1,.908.81,3.647,3.647,0,0,1,.51,1.17,5.733,5.733,0,0,1,.165,1.4,4.123,4.123,0,0,1-.66,2.46L6.87-3.96ZM17.4-8.385a1.276,1.276,0,0,1-.27.848,3.723,3.723,0,0,1-.825.682,2.023,2.023,0,0,0-.135-.165,4.741,4.741,0,0,1-.532-.727,1.432,1.432,0,0,1-.173-.713.891.891,0,0,1,.285-.675.948.948,0,0,1,.675-.27.924.924,0,0,1,.683.3A1,1,0,0,1,17.4-8.385Zm.1,5.895a3.207,3.207,0,0,1-.833.705,1.942,1.942,0,0,1-.968.24,1.55,1.55,0,0,1-1.073-.413,1.3,1.3,0,0,1-.457-1A1.451,1.451,0,0,1,14.6-4a3.354,3.354,0,0,1,1.072-.727ZM19.5,0h2.61L19.935-2.535a4.844,4.844,0,0,0,.7-1.223,5.293,5.293,0,0,0,.338-1.417H19.125a3.9,3.9,0,0,1-.39,1.275L17.355-5.6a4.187,4.187,0,0,0,1.4-1.125,2.454,2.454,0,0,0,.51-1.545,2.292,2.292,0,0,0-.833-1.9,3.262,3.262,0,0,0-2.108-.668,3.189,3.189,0,0,0-1.042.172,2.839,2.839,0,0,0-.9.5,2.4,2.4,0,0,0-.623.78,2.182,2.182,0,0,0-.225.99,2.513,2.513,0,0,0,.255,1.14,6.473,6.473,0,0,0,.765,1.14A5.141,5.141,0,0,0,12.825-4.83,2.708,2.708,0,0,0,12.15-3,3,3,0,0,0,13.155-.63a3.26,3.26,0,0,0,1.1.623A4.176,4.176,0,0,0,15.615.21,4.11,4.11,0,0,0,17.25-.105a4.419,4.419,0,0,0,1.38-.96Zm2.34,0h2.385l.84-2.385h4L29.88,0h2.445L28.32-10.71H25.9Zm5.235-8.07h.03l1.35,3.93H25.68Z" transform="translate(-0.57 10.965)" fill="#525252"/>
</svg>
