<svg xmlns="http://www.w3.org/2000/svg" width="33.872" height="12.769" viewBox="0 0 33.872 12.769">
  <path id="패스_60" data-name="패스 60" d="M11.776-.16l-1.424-1.3a5.739,5.739,0,0,0,1.1-1.9,6.851,6.851,0,0,0,.384-2.312,7.3,7.3,0,0,0-.376-2.368A5.538,5.538,0,0,0,10.352-9.96a5.072,5.072,0,0,0-1.784-1.28A5.816,5.816,0,0,0,6.224-11.7a5.816,5.816,0,0,0-2.344.456A4.994,4.994,0,0,0,2.1-9.96,5.71,5.71,0,0,0,.992-8.032,7.159,7.159,0,0,0,.608-5.664a6.92,6.92,0,0,0,.384,2.32A5.564,5.564,0,0,0,2.1-1.448,5.088,5.088,0,0,0,3.88-.184,5.816,5.816,0,0,0,6.224.272,5.457,5.457,0,0,0,8.992-.4l1.616,1.472ZM6.16-2.976,7.232-2a.576.576,0,0,1-.36.136q-.248.024-.648.024a2.982,2.982,0,0,1-1.408-.312,2.674,2.674,0,0,1-.968-.856A3.813,3.813,0,0,1,3.3-4.232,5.694,5.694,0,0,1,3.12-5.664,6.116,6.116,0,0,1,3.3-7.152,3.89,3.89,0,0,1,3.84-8.4a2.657,2.657,0,0,1,.968-.864,2.967,2.967,0,0,1,1.416-.32,2.967,2.967,0,0,1,1.416.32,2.657,2.657,0,0,1,.968.864,3.89,3.89,0,0,1,.544,1.248,6.116,6.116,0,0,1,.176,1.488,4.4,4.4,0,0,1-.7,2.624l-1.3-1.184Zm12.4-5.968a1.362,1.362,0,0,1-.288.9,3.971,3.971,0,0,1-.88.728,2.158,2.158,0,0,0-.144-.176,5.057,5.057,0,0,1-.568-.776,1.527,1.527,0,0,1-.184-.76.951.951,0,0,1,.3-.72,1.012,1.012,0,0,1,.72-.288.986.986,0,0,1,.728.32A1.061,1.061,0,0,1,18.56-8.944Zm.112,6.288a3.421,3.421,0,0,1-.888.752,2.071,2.071,0,0,1-1.032.256,1.654,1.654,0,0,1-1.144-.44,1.382,1.382,0,0,1-.488-1.064,1.548,1.548,0,0,1,.456-1.112A3.578,3.578,0,0,1,16.72-5.04ZM20.8,0h2.784l-2.32-2.7a5.167,5.167,0,0,0,.744-1.3,5.645,5.645,0,0,0,.36-1.512H20.4a4.158,4.158,0,0,1-.416,1.36L18.512-5.968A4.466,4.466,0,0,0,20-7.168a2.618,2.618,0,0,0,.544-1.648,2.445,2.445,0,0,0-.888-2.024,3.48,3.48,0,0,0-2.248-.712,3.4,3.4,0,0,0-1.112.184,3.028,3.028,0,0,0-.96.536,2.561,2.561,0,0,0-.664.832,2.328,2.328,0,0,0-.24,1.056A2.681,2.681,0,0,0,14.7-7.728a6.9,6.9,0,0,0,.816,1.216,5.483,5.483,0,0,0-1.84,1.36A2.889,2.889,0,0,0,12.96-3.2,3.2,3.2,0,0,0,14.032-.672a3.477,3.477,0,0,0,1.176.664,4.454,4.454,0,0,0,1.448.232A4.384,4.384,0,0,0,18.4-.112a4.714,4.714,0,0,0,1.472-1.024Zm2.5,0H25.84l.9-2.544h4.272L31.872,0H34.48L30.208-11.424H27.632ZM28.88-8.608h.032l1.44,4.192h-2.96Z" transform="translate(-0.608 11.696)" fill="#fff"/>
</svg>
