<svg xmlns="http://www.w3.org/2000/svg" width="43.362" height="16.435" viewBox="0 0 43.362 16.435">
  <path id="패스_60" data-name="패스 60" d="M.432-4.266A4.434,4.434,0,0,0,.873-2.241,4.021,4.021,0,0,0,2.079-.8,5.234,5.234,0,0,0,3.825.036,7.8,7.8,0,0,0,5.9.306,6.086,6.086,0,0,0,9.846-.837a3.66,3.66,0,0,0,1.4-2.979,3.3,3.3,0,0,0-.4-1.665,3.255,3.255,0,0,0-.99-1.1,5.243,5.243,0,0,0-1.134-.6,11.706,11.706,0,0,0-1.188-.36.34.34,0,0,1-.108-.018,1.51,1.51,0,0,0-.288-.072Q5.8-7.974,5.2-8.154a7.064,7.064,0,0,1-.954-.351,1.177,1.177,0,0,1-.5-.4A1.107,1.107,0,0,1,3.6-9.5a1.206,1.206,0,0,1,.576-1.1,2.528,2.528,0,0,1,1.368-.36,3.322,3.322,0,0,1,1.809.432,1.768,1.768,0,0,1,.729,1.512h2.736A3.989,3.989,0,0,0,10.4-10.89a3.616,3.616,0,0,0-1.125-1.3,4.858,4.858,0,0,0-1.638-.738,8.029,8.029,0,0,0-1.971-.234,6.388,6.388,0,0,0-1.755.243,5.1,5.1,0,0,0-1.548.729,3.581,3.581,0,0,0-1.1,1.224A3.459,3.459,0,0,0,.864-9.27a3.248,3.248,0,0,0,.315,1.485,2.946,2.946,0,0,0,.846,1.026A4.8,4.8,0,0,0,3.2-6.1,15.7,15.7,0,0,0,4.7-5.616q.306.072.828.216.792.18,1.26.324a5.1,5.1,0,0,1,.864.351,1.916,1.916,0,0,1,.63.5,1.142,1.142,0,0,1,.234.729,1.277,1.277,0,0,1-.234.783,1.594,1.594,0,0,1-.621.5,3.175,3.175,0,0,1-.81.252,4.981,4.981,0,0,1-.837.072,3.376,3.376,0,0,1-2.043-.585,2.071,2.071,0,0,1-.8-1.791ZM12.654,0H15.21V-4.878a3.452,3.452,0,0,1,.468-2.043,1.771,1.771,0,0,1,1.512-.621,1.41,1.41,0,0,1,1.26.558,3.127,3.127,0,0,1,.378,1.728V0h2.556V-5.724a7.533,7.533,0,0,0-.153-1.611,2.921,2.921,0,0,0-.54-1.188,2.488,2.488,0,0,0-1.053-.765,4.428,4.428,0,0,0-1.656-.27,3.181,3.181,0,0,0-1.5.4A3.149,3.149,0,0,0,15.264-8.01H15.21v-4.842H12.654ZM23.04-4.644a4.861,4.861,0,0,0,1.314,3.555A4.668,4.668,0,0,0,27.846.252a4.691,4.691,0,0,0,3.51-1.341A4.861,4.861,0,0,0,32.67-4.644a4.885,4.885,0,0,0-1.314-3.573,4.691,4.691,0,0,0-3.51-1.341,4.668,4.668,0,0,0-3.492,1.341A4.885,4.885,0,0,0,23.04-4.644Zm2.556,0a5.218,5.218,0,0,1,.117-1.125,3.052,3.052,0,0,1,.378-.954,1.872,1.872,0,0,1,.7-.666,2.151,2.151,0,0,1,1.053-.243,2.191,2.191,0,0,1,1.071.243,1.872,1.872,0,0,1,.7.666A3.052,3.052,0,0,1,30-5.769a5.218,5.218,0,0,1,.117,1.125A5.1,5.1,0,0,1,30-3.528a3.059,3.059,0,0,1-.378.945,1.872,1.872,0,0,1-.7.666,2.19,2.19,0,0,1-1.071.243,2.151,2.151,0,0,1-1.053-.243,1.872,1.872,0,0,1-.7-.666,3.059,3.059,0,0,1-.378-.945A5.094,5.094,0,0,1,25.6-4.644Zm8.73,7.92h2.556V-1.152h.036a2.926,2.926,0,0,0,1.2,1.044,3.622,3.622,0,0,0,1.593.36,3.836,3.836,0,0,0,1.755-.387A3.742,3.742,0,0,0,42.75-1.2a4.722,4.722,0,0,0,.783-1.539,6.253,6.253,0,0,0,.261-1.818,6.914,6.914,0,0,0-.261-1.917,4.866,4.866,0,0,0-.783-1.6,3.661,3.661,0,0,0-1.323-1.089,4.154,4.154,0,0,0-1.863-.4,3.532,3.532,0,0,0-1.6.36,2.887,2.887,0,0,0-1.17,1.08h-.036V-9.306h-2.43Zm4.7-4.95A2.06,2.06,0,0,1,38-1.917a1.992,1.992,0,0,1-.7-.657,2.83,2.83,0,0,1-.387-.936,5.1,5.1,0,0,1-.117-1.116,5.307,5.307,0,0,1,.117-1.143,3.052,3.052,0,0,1,.378-.954,1.892,1.892,0,0,1,.693-.666,2.06,2.06,0,0,1,1.026-.243,2,2,0,0,1,1.026.252,1.941,1.941,0,0,1,.693.684,3.34,3.34,0,0,1,.387.963,4.779,4.779,0,0,1,.126,1.107,5.183,5.183,0,0,1-.117,1.134,2.843,2.843,0,0,1-.378.927,1.967,1.967,0,0,1-.684.648A2.048,2.048,0,0,1,39.024-1.674Z" transform="translate(-0.432 13.158)"/>
</svg>
