<svg xmlns="http://www.w3.org/2000/svg" width="1412.1" height="67.32" viewBox="0 0 1412.1 67.32">
  <path id="패스_76" data-name="패스 76" d="M-.63,0H13.68l5.04-14.31H42.75L47.61,0H62.28L38.25-64.26H23.76ZM30.78-48.42h.18l8.1,23.58H22.41ZM67.05,0H81.18V-13.86H67.05ZM92.88,0h14.13V-23.04h14.85a27.581,27.581,0,0,0,10.035-1.665,18.387,18.387,0,0,0,6.975-4.59,18.453,18.453,0,0,0,3.96-6.615,23.786,23.786,0,0,0,1.26-7.74,23.786,23.786,0,0,0-1.26-7.74,18.453,18.453,0,0,0-3.96-6.615,18.387,18.387,0,0,0-6.975-4.59A27.581,27.581,0,0,0,121.86-64.26H92.88Zm14.13-53.28h10.98a29.736,29.736,0,0,1,4.86.36,10.768,10.768,0,0,1,3.915,1.44,7.183,7.183,0,0,1,2.7,2.97,10.869,10.869,0,0,1,.945,4.86,10.869,10.869,0,0,1-.945,4.86,6.888,6.888,0,0,1-2.7,2.925,11.988,11.988,0,0,1-3.915,1.44,26.5,26.5,0,0,1-4.86.405H107.01ZM152.1,0h14.13V-13.86H152.1Zm82.35-42.66a26.285,26.285,0,0,0-3.015-9.81,24.053,24.053,0,0,0-6.12-7.29,26.565,26.565,0,0,0-8.505-4.5,32.8,32.8,0,0,0-10.08-1.53,32.716,32.716,0,0,0-13.185,2.565,28.094,28.094,0,0,0-9.99,7.2A32.118,32.118,0,0,0,177.3-45.18a40.267,40.267,0,0,0-2.16,13.32,38.926,38.926,0,0,0,2.16,13.05,31.3,31.3,0,0,0,6.255,10.665,28.622,28.622,0,0,0,9.99,7.11A32.716,32.716,0,0,0,206.73,1.53a30.69,30.69,0,0,0,10.8-1.845,25.951,25.951,0,0,0,8.685-5.31A26.269,26.269,0,0,0,232.2-13.95a32.521,32.521,0,0,0,2.79-10.8H221.31a17.877,17.877,0,0,1-4.545,10.485A13.217,13.217,0,0,1,206.73-10.35a16.771,16.771,0,0,1-7.92-1.755,15.043,15.043,0,0,1-5.445-4.815,21.447,21.447,0,0,1-3.1-6.885,32.029,32.029,0,0,1-.99-8.055,34.4,34.4,0,0,1,.99-8.37,21.88,21.88,0,0,1,3.06-7.02,14.948,14.948,0,0,1,5.445-4.86,16.692,16.692,0,0,1,7.965-1.8,14.554,14.554,0,0,1,9.36,3.24,12.013,12.013,0,0,1,4.68,8.01ZM243.81,0h14.13V-13.86H243.81Zm44.1,0h15.93l14.31-22.23L332.19,0h16.83L326.61-33.57l20.61-30.69H331.74L318.69-43.74l-12.6-20.52H289.71l20.7,30.6ZM436.23-42.66a26.285,26.285,0,0,0-3.015-9.81,24.053,24.053,0,0,0-6.12-7.29,26.565,26.565,0,0,0-8.505-4.5,32.8,32.8,0,0,0-10.08-1.53,32.716,32.716,0,0,0-13.185,2.565,28.094,28.094,0,0,0-9.99,7.2A32.117,32.117,0,0,0,379.08-45.18a40.267,40.267,0,0,0-2.16,13.32,38.926,38.926,0,0,0,2.16,13.05,31.3,31.3,0,0,0,6.255,10.665,28.622,28.622,0,0,0,9.99,7.11A32.715,32.715,0,0,0,408.51,1.53a30.69,30.69,0,0,0,10.8-1.845,25.951,25.951,0,0,0,8.685-5.31,26.269,26.269,0,0,0,5.985-8.325,32.521,32.521,0,0,0,2.79-10.8H423.09a17.877,17.877,0,0,1-4.545,10.485A13.217,13.217,0,0,1,408.51-10.35a16.771,16.771,0,0,1-7.92-1.755,15.043,15.043,0,0,1-5.445-4.815,21.447,21.447,0,0,1-3.1-6.885,32.029,32.029,0,0,1-.99-8.055,34.4,34.4,0,0,1,.99-8.37,21.88,21.88,0,0,1,3.06-7.02,14.948,14.948,0,0,1,5.445-4.86,16.692,16.692,0,0,1,7.965-1.8,14.554,14.554,0,0,1,9.36,3.24,12.013,12.013,0,0,1,4.68,8.01ZM446.4,0h14.13V-27.72h26.01V0h14.13V-64.26H486.54V-39.6H460.53V-64.26H446.4Zm59.85,0h14.31l5.04-14.31h24.03L554.49,0h14.67L545.13-64.26H530.64Zm31.41-48.42h.18l8.1,23.58H529.29ZM574.74,0h14.13V-25.11H603q5.22,0,7.6,2.25t3.1,7.47q.27,1.8.54,5.22.27,3.69.585,6.03A14.908,14.908,0,0,0,615.96,0h14.13a12.574,12.574,0,0,1-1.845-5.22q-.5-3.24-.765-7.83-.09-1.8-.09-2.16a23.969,23.969,0,0,0-2.475-9.765,10.37,10.37,0,0,0-6.885-5.265v-.18a15.129,15.129,0,0,0,7.7-6.165A18.887,18.887,0,0,0,628.2-46.53a18.032,18.032,0,0,0-1.3-6.885,17.084,17.084,0,0,0-3.78-5.67,16.941,16.941,0,0,0-5.985-3.825,21.4,21.4,0,0,0-7.74-1.35H574.74Zm14.13-53.28h15.48q4.86,0,7.29,2.16t2.43,6.75q0,4.77-2.43,6.975t-7.29,2.2H588.87ZM639.72,0h45.45V-11.88H653.85V-64.26H639.72ZM690.3-31.86a38.926,38.926,0,0,0,2.16,13.05,31.3,31.3,0,0,0,6.255,10.665,28.622,28.622,0,0,0,9.99,7.11A32.715,32.715,0,0,0,721.89,1.53a32.716,32.716,0,0,0,13.185-2.565A28.8,28.8,0,0,0,745.11-8.19a30.906,30.906,0,0,0,6.255-10.665,39.28,39.28,0,0,0,2.115-13,41.047,41.047,0,0,0-2.115-13.32,31.153,31.153,0,0,0-6.255-10.845,28.532,28.532,0,0,0-10.035-7.2A32.716,32.716,0,0,0,721.89-65.79,32.716,32.716,0,0,0,708.7-63.225a28.094,28.094,0,0,0-9.99,7.2A32.117,32.117,0,0,0,692.46-45.18,40.267,40.267,0,0,0,690.3-31.86Zm14.13,0a34.4,34.4,0,0,1,.99-8.37,21.882,21.882,0,0,1,3.06-7.02,14.948,14.948,0,0,1,5.445-4.86,16.692,16.692,0,0,1,7.965-1.8,16.692,16.692,0,0,1,7.965,1.8,14.948,14.948,0,0,1,5.445,4.86,21.879,21.879,0,0,1,3.06,7.02,34.4,34.4,0,0,1,.99,8.37,32.028,32.028,0,0,1-.99,8.055,21.479,21.479,0,0,1-3.06,6.84,15.105,15.105,0,0,1-5.445,4.815,16.692,16.692,0,0,1-7.965,1.8,16.771,16.771,0,0,1-7.92-1.755,15.042,15.042,0,0,1-5.445-4.815,21.448,21.448,0,0,1-3.105-6.885A32.031,32.031,0,0,1,704.43-31.86ZM777.33,0h14.13V-52.38h19.26V-64.26H758.07v11.88h19.26Zm54.99,0h14.13V-52.38h19.26V-64.26H813.06v11.88h19.26Zm40.77,0h48.78V-11.88H887.22V-27.63h31.14V-38.61H887.22V-52.38h33.93V-64.26H873.09Zm139.86-42.66a26.285,26.285,0,0,0-3.015-9.81,24.054,24.054,0,0,0-6.12-7.29,26.566,26.566,0,0,0-8.505-4.5,32.8,32.8,0,0,0-10.08-1.53,32.716,32.716,0,0,0-13.185,2.565,28.094,28.094,0,0,0-9.99,7.2A32.117,32.117,0,0,0,955.8-45.18a40.267,40.267,0,0,0-2.16,13.32,38.926,38.926,0,0,0,2.16,13.05,31.3,31.3,0,0,0,6.255,10.665,28.622,28.622,0,0,0,9.99,7.11A32.715,32.715,0,0,0,985.23,1.53a30.69,30.69,0,0,0,10.8-1.845,25.952,25.952,0,0,0,8.685-5.31,26.269,26.269,0,0,0,5.985-8.325,32.522,32.522,0,0,0,2.79-10.8H999.81a17.876,17.876,0,0,1-4.545,10.485A13.217,13.217,0,0,1,985.23-10.35a16.771,16.771,0,0,1-7.92-1.755,15.042,15.042,0,0,1-5.445-4.815,21.448,21.448,0,0,1-3.105-6.885,32.031,32.031,0,0,1-.99-8.055,34.4,34.4,0,0,1,.99-8.37,21.882,21.882,0,0,1,3.06-7.02,14.948,14.948,0,0,1,5.445-4.86,16.692,16.692,0,0,1,7.965-1.8,14.554,14.554,0,0,1,9.36,3.24,12.013,12.013,0,0,1,4.68,8.01ZM1023.12,0h14.13V-27.72h26.01V0h14.13V-64.26h-14.13V-39.6h-26.01V-64.26h-14.13Zm66.69,0h48.78V-11.88h-34.65V-27.63h31.14V-38.61h-31.14V-52.38h33.93V-64.26h-48.06Zm54.27-21.33a22.169,22.169,0,0,0,2.2,10.125,20.1,20.1,0,0,0,6.03,7.2,26.167,26.167,0,0,0,8.73,4.185,39.013,39.013,0,0,0,10.4,1.35q12.69,0,19.71-5.715a18.3,18.3,0,0,0,7.02-14.9,16.518,16.518,0,0,0-1.98-8.325,16.275,16.275,0,0,0-4.95-5.49,26.214,26.214,0,0,0-5.67-3.015,58.532,58.532,0,0,0-5.94-1.8,1.7,1.7,0,0,1-.54-.09,7.551,7.551,0,0,0-1.44-.36q-6.75-1.71-9.72-2.61a35.327,35.327,0,0,1-4.77-1.755,5.884,5.884,0,0,1-2.52-1.98,5.536,5.536,0,0,1-.72-3.015,6.03,6.03,0,0,1,2.88-5.49,12.641,12.641,0,0,1,6.84-1.8q5.67,0,9.045,2.16t3.645,7.56h13.68a19.946,19.946,0,0,0-2.07-9.36,18.082,18.082,0,0,0-5.625-6.48,24.291,24.291,0,0,0-8.19-3.69,40.144,40.144,0,0,0-9.855-1.17,31.943,31.943,0,0,0-8.775,1.215,25.516,25.516,0,0,0-7.74,3.645,17.9,17.9,0,0,0-5.49,6.12,17.3,17.3,0,0,0-2.025,8.46,16.24,16.24,0,0,0,1.575,7.425,14.727,14.727,0,0,0,4.23,5.13,24.01,24.01,0,0,0,5.9,3.285,78.529,78.529,0,0,0,7.47,2.43q1.53.36,4.14,1.08,3.96.9,6.3,1.62a25.48,25.48,0,0,1,4.32,1.755,9.58,9.58,0,0,1,3.15,2.52,5.708,5.708,0,0,1,1.17,3.645,6.384,6.384,0,0,1-1.17,3.915,7.969,7.969,0,0,1-3.1,2.475,15.877,15.877,0,0,1-4.05,1.26,24.905,24.905,0,0,1-4.185.36,16.879,16.879,0,0,1-10.215-2.925q-4.005-2.925-4.005-8.955ZM1206.54,0h13.23V-43.02h.18L1246.68,0h14.13V-64.26h-13.23v43.11h-.18l-26.82-43.11h-14.04Zm59.85,0h14.31l5.04-14.31h24.03L1314.63,0h14.67l-24.03-64.26h-14.49Zm31.41-48.42h.18l8.1,23.58h-16.65ZM1334.88,0h14.13V-64.26h-14.13Zm22.5-21.33a22.169,22.169,0,0,0,2.2,10.125,20.1,20.1,0,0,0,6.03,7.2,26.167,26.167,0,0,0,8.73,4.185,39.013,39.013,0,0,0,10.4,1.35q12.69,0,19.71-5.715a18.3,18.3,0,0,0,7.02-14.9,16.518,16.518,0,0,0-1.98-8.325,16.275,16.275,0,0,0-4.95-5.49,26.214,26.214,0,0,0-5.67-3.015,58.532,58.532,0,0,0-5.94-1.8,1.7,1.7,0,0,1-.54-.09,7.551,7.551,0,0,0-1.44-.36q-6.75-1.71-9.72-2.61a35.327,35.327,0,0,1-4.77-1.755,5.884,5.884,0,0,1-2.52-1.98,5.536,5.536,0,0,1-.72-3.015,6.03,6.03,0,0,1,2.88-5.49,12.641,12.641,0,0,1,6.84-1.8q5.67,0,9.045,2.16t3.645,7.56h13.68a19.946,19.946,0,0,0-2.07-9.36,18.082,18.082,0,0,0-5.625-6.48,24.291,24.291,0,0,0-8.19-3.69,40.144,40.144,0,0,0-9.855-1.17,31.943,31.943,0,0,0-8.775,1.215,25.516,25.516,0,0,0-7.74,3.645,17.9,17.9,0,0,0-5.49,6.12,17.3,17.3,0,0,0-2.025,8.46,16.24,16.24,0,0,0,1.575,7.425,14.727,14.727,0,0,0,4.23,5.13,24.01,24.01,0,0,0,5.9,3.285,78.529,78.529,0,0,0,7.47,2.43q1.53.36,4.14,1.08,3.96.9,6.3,1.62a25.48,25.48,0,0,1,4.32,1.755,9.58,9.58,0,0,1,3.15,2.52,5.708,5.708,0,0,1,1.17,3.645,6.384,6.384,0,0,1-1.17,3.915,7.969,7.969,0,0,1-3.1,2.475,15.877,15.877,0,0,1-4.05,1.26,24.905,24.905,0,0,1-4.185.36,16.879,16.879,0,0,1-10.215-2.925q-4.005-2.925-4.005-8.955Z" transform="translate(0.63 65.79)" fill="#fff"/>
</svg>
