<svg xmlns="http://www.w3.org/2000/svg" width="277.416" height="13.464" viewBox="0 0 277.416 13.464">
  <path id="패스_56" data-name="패스 56" d="M-.126,0H2.736L3.744-2.862H8.55L9.522,0h2.934L7.65-12.852h-2.9ZM6.156-9.684h.036l1.62,4.716H4.482ZM13.41,0h2.826V-2.772H13.41Zm5.166,0H21.4V-4.608h2.97a5.516,5.516,0,0,0,2.007-.333,3.677,3.677,0,0,0,1.4-.918,3.691,3.691,0,0,0,.792-1.323,4.757,4.757,0,0,0,.252-1.548,4.757,4.757,0,0,0-.252-1.548,3.691,3.691,0,0,0-.792-1.323,3.677,3.677,0,0,0-1.4-.918,5.516,5.516,0,0,0-2.007-.333h-5.8ZM21.4-10.656h2.2a5.947,5.947,0,0,1,.972.072,2.154,2.154,0,0,1,.783.288,1.437,1.437,0,0,1,.54.594,2.174,2.174,0,0,1,.189.972,2.174,2.174,0,0,1-.189.972,1.378,1.378,0,0,1-.54.585,2.4,2.4,0,0,1-.783.288A5.3,5.3,0,0,1,23.6-6.8H21.4ZM30.42,0h2.826V-2.772H30.42ZM46.89-8.532a5.257,5.257,0,0,0-.6-1.962,4.811,4.811,0,0,0-1.224-1.458,5.313,5.313,0,0,0-1.7-.9,6.561,6.561,0,0,0-2.016-.306,6.543,6.543,0,0,0-2.637.513,5.619,5.619,0,0,0-2,1.44A6.423,6.423,0,0,0,35.46-9.036a8.053,8.053,0,0,0-.432,2.664,7.785,7.785,0,0,0,.432,2.61,6.259,6.259,0,0,0,1.251,2.133,5.724,5.724,0,0,0,2,1.422,6.543,6.543,0,0,0,2.637.513,6.138,6.138,0,0,0,2.16-.369,5.19,5.19,0,0,0,1.737-1.062,5.254,5.254,0,0,0,1.2-1.665A6.5,6.5,0,0,0,47-4.95H44.262a3.575,3.575,0,0,1-.909,2.1,2.643,2.643,0,0,1-2.007.783,3.354,3.354,0,0,1-1.584-.351,3.009,3.009,0,0,1-1.089-.963,4.289,4.289,0,0,1-.621-1.377,6.406,6.406,0,0,1-.2-1.611,6.88,6.88,0,0,1,.2-1.674,4.376,4.376,0,0,1,.612-1.4,2.99,2.99,0,0,1,1.089-.972,3.338,3.338,0,0,1,1.593-.36,2.911,2.911,0,0,1,1.872.648,2.4,2.4,0,0,1,.936,1.6ZM52.578,0h3.186l2.862-4.446L61.434,0H64.8L60.318-6.714l4.122-6.138h-3.1l-2.61,4.1-2.52-4.1H52.938l4.14,6.12ZM82.242-8.532a5.257,5.257,0,0,0-.6-1.962,4.811,4.811,0,0,0-1.224-1.458,5.313,5.313,0,0,0-1.7-.9,6.561,6.561,0,0,0-2.016-.306,6.543,6.543,0,0,0-2.637.513,5.619,5.619,0,0,0-2,1.44,6.424,6.424,0,0,0-1.251,2.169,8.053,8.053,0,0,0-.432,2.664,7.785,7.785,0,0,0,.432,2.61,6.26,6.26,0,0,0,1.251,2.133,5.724,5.724,0,0,0,2,1.422A6.543,6.543,0,0,0,76.7.306a6.138,6.138,0,0,0,2.16-.369,5.19,5.19,0,0,0,1.737-1.062,5.254,5.254,0,0,0,1.2-1.665,6.5,6.5,0,0,0,.558-2.16H79.614a3.575,3.575,0,0,1-.909,2.1A2.643,2.643,0,0,1,76.7-2.07a3.354,3.354,0,0,1-1.584-.351,3.009,3.009,0,0,1-1.089-.963A4.289,4.289,0,0,1,73.4-4.761a6.406,6.406,0,0,1-.2-1.611,6.88,6.88,0,0,1,.2-1.674,4.376,4.376,0,0,1,.612-1.4,2.99,2.99,0,0,1,1.089-.972,3.338,3.338,0,0,1,1.593-.36,2.911,2.911,0,0,1,1.872.648,2.4,2.4,0,0,1,.936,1.6ZM84.276,0H87.1V-5.544h5.2V0H95.13V-12.852H92.3V-7.92H87.1v-4.932H84.276Zm11.97,0h2.862l1.008-2.862h4.806L105.894,0h2.934l-4.806-12.852h-2.9Zm6.282-9.684h.036l1.62,4.716h-3.33ZM109.944,0h2.826V-5.022H115.6a2.164,2.164,0,0,1,1.521.45,2.472,2.472,0,0,1,.621,1.494q.054.36.108,1.044.054.738.117,1.206a2.981,2.981,0,0,0,.225.828h2.826a2.515,2.515,0,0,1-.369-1.044q-.1-.648-.153-1.566-.018-.36-.018-.432a4.794,4.794,0,0,0-.5-1.953A2.074,2.074,0,0,0,118.6-6.048v-.036a3.026,3.026,0,0,0,1.539-1.233,3.777,3.777,0,0,0,.495-1.989,3.606,3.606,0,0,0-.261-1.377,3.417,3.417,0,0,0-.756-1.134,3.388,3.388,0,0,0-1.2-.765,4.279,4.279,0,0,0-1.548-.27h-6.93Zm2.826-10.656h3.1a2.138,2.138,0,0,1,1.458.432,1.717,1.717,0,0,1,.486,1.35,1.8,1.8,0,0,1-.486,1.4,2.108,2.108,0,0,1-1.458.441h-3.1ZM122.94,0h9.09V-2.376h-6.264V-12.852H122.94Zm10.116-6.372a7.785,7.785,0,0,0,.432,2.61,6.26,6.26,0,0,0,1.251,2.133,5.725,5.725,0,0,0,2,1.422,6.543,6.543,0,0,0,2.637.513,6.543,6.543,0,0,0,2.637-.513,5.76,5.76,0,0,0,2.007-1.431,6.181,6.181,0,0,0,1.251-2.133,7.856,7.856,0,0,0,.423-2.6,8.209,8.209,0,0,0-.423-2.664,6.231,6.231,0,0,0-1.251-2.169,5.706,5.706,0,0,0-2.007-1.44,6.543,6.543,0,0,0-2.637-.513,6.543,6.543,0,0,0-2.637.513,5.619,5.619,0,0,0-2,1.44,6.424,6.424,0,0,0-1.251,2.169A8.053,8.053,0,0,0,133.056-6.372Zm2.826,0a6.88,6.88,0,0,1,.2-1.674,4.376,4.376,0,0,1,.612-1.4,2.989,2.989,0,0,1,1.089-.972,3.338,3.338,0,0,1,1.593-.36,3.338,3.338,0,0,1,1.593.36,2.99,2.99,0,0,1,1.089.972,4.376,4.376,0,0,1,.612,1.4,6.88,6.88,0,0,1,.2,1.674,6.406,6.406,0,0,1-.2,1.611,4.3,4.3,0,0,1-.612,1.368,3.021,3.021,0,0,1-1.089.963,3.338,3.338,0,0,1-1.593.36,3.354,3.354,0,0,1-1.584-.351,3.009,3.009,0,0,1-1.089-.963,4.29,4.29,0,0,1-.621-1.377A6.406,6.406,0,0,1,135.882-6.372ZM150.462,0h2.826V-10.476h3.852v-2.376H146.61v2.376h3.852Zm11,0h2.826V-10.476h3.852v-2.376h-10.53v2.376h3.852Zm8.154,0h9.756V-2.376h-6.93v-3.15h6.228v-2.2H172.44v-2.754h6.786v-2.376h-9.612Zm27.972-8.532a5.257,5.257,0,0,0-.6-1.962,4.81,4.81,0,0,0-1.224-1.458,5.313,5.313,0,0,0-1.7-.9,6.561,6.561,0,0,0-2.016-.306,6.543,6.543,0,0,0-2.637.513,5.619,5.619,0,0,0-2,1.44,6.424,6.424,0,0,0-1.251,2.169,8.053,8.053,0,0,0-.432,2.664,7.785,7.785,0,0,0,.432,2.61,6.26,6.26,0,0,0,1.251,2.133,5.725,5.725,0,0,0,2,1.422,6.543,6.543,0,0,0,2.637.513,6.138,6.138,0,0,0,2.16-.369,5.19,5.19,0,0,0,1.737-1.062,5.254,5.254,0,0,0,1.2-1.665,6.5,6.5,0,0,0,.558-2.16h-2.736a3.575,3.575,0,0,1-.909,2.1,2.643,2.643,0,0,1-2.007.783,3.354,3.354,0,0,1-1.584-.351,3.009,3.009,0,0,1-1.089-.963,4.29,4.29,0,0,1-.621-1.377,6.406,6.406,0,0,1-.2-1.611,6.88,6.88,0,0,1,.2-1.674,4.376,4.376,0,0,1,.612-1.4,2.989,2.989,0,0,1,1.089-.972,3.338,3.338,0,0,1,1.593-.36,2.911,2.911,0,0,1,1.872.648,2.4,2.4,0,0,1,.936,1.6ZM199.62,0h2.826V-5.544h5.2V0h2.826V-12.852h-2.826V-7.92h-5.2v-4.932H199.62Zm13.338,0h9.756V-2.376h-6.93v-3.15h6.228v-2.2h-6.228v-2.754h6.786v-2.376h-9.612Zm10.854-4.266a4.434,4.434,0,0,0,.441,2.025A4.021,4.021,0,0,0,225.459-.8,5.233,5.233,0,0,0,227.2.036a7.8,7.8,0,0,0,2.079.27,6.086,6.086,0,0,0,3.942-1.143,3.66,3.66,0,0,0,1.4-2.979,3.3,3.3,0,0,0-.4-1.665,3.255,3.255,0,0,0-.99-1.1,5.243,5.243,0,0,0-1.134-.6,11.706,11.706,0,0,0-1.188-.36.34.34,0,0,1-.108-.018,1.51,1.51,0,0,0-.288-.072q-1.35-.342-1.944-.522a7.065,7.065,0,0,1-.954-.351,1.177,1.177,0,0,1-.5-.4,1.107,1.107,0,0,1-.144-.6,1.206,1.206,0,0,1,.576-1.1,2.528,2.528,0,0,1,1.368-.36,3.322,3.322,0,0,1,1.809.432,1.768,1.768,0,0,1,.729,1.512H234.2a3.989,3.989,0,0,0-.414-1.872,3.616,3.616,0,0,0-1.125-1.3,4.858,4.858,0,0,0-1.638-.738,8.029,8.029,0,0,0-1.971-.234,6.389,6.389,0,0,0-1.755.243,5.1,5.1,0,0,0-1.548.729,3.581,3.581,0,0,0-1.1,1.224,3.459,3.459,0,0,0-.4,1.692,3.248,3.248,0,0,0,.315,1.485,2.946,2.946,0,0,0,.846,1.026,4.8,4.8,0,0,0,1.179.657,15.705,15.705,0,0,0,1.494.486q.306.072.828.216.792.18,1.26.324a5.1,5.1,0,0,1,.864.351,1.916,1.916,0,0,1,.63.5,1.142,1.142,0,0,1,.234.729,1.277,1.277,0,0,1-.234.783,1.594,1.594,0,0,1-.621.5,3.175,3.175,0,0,1-.81.252,4.981,4.981,0,0,1-.837.072,3.376,3.376,0,0,1-2.043-.585,2.071,2.071,0,0,1-.8-1.791ZM236.3,0h2.646V-8.6h.036L244.332,0h2.826V-12.852h-2.646V-4.23h-.036l-5.364-8.622H236.3Zm11.97,0h2.862l1.008-2.862h4.806L257.922,0h2.934L256.05-12.852h-2.9Zm6.282-9.684h.036l1.62,4.716h-3.33ZM261.972,0H264.8V-12.852h-2.826Zm4.5-4.266a4.434,4.434,0,0,0,.441,2.025A4.021,4.021,0,0,0,268.119-.8a5.233,5.233,0,0,0,1.746.837,7.8,7.8,0,0,0,2.079.27,6.086,6.086,0,0,0,3.942-1.143,3.66,3.66,0,0,0,1.4-2.979,3.3,3.3,0,0,0-.4-1.665,3.255,3.255,0,0,0-.99-1.1,5.244,5.244,0,0,0-1.134-.6,11.707,11.707,0,0,0-1.188-.36.34.34,0,0,1-.108-.018,1.51,1.51,0,0,0-.288-.072q-1.35-.342-1.944-.522a7.066,7.066,0,0,1-.954-.351,1.177,1.177,0,0,1-.5-.4,1.107,1.107,0,0,1-.144-.6,1.206,1.206,0,0,1,.576-1.1,2.528,2.528,0,0,1,1.368-.36,3.322,3.322,0,0,1,1.809.432,1.768,1.768,0,0,1,.729,1.512h2.736a3.989,3.989,0,0,0-.414-1.872,3.616,3.616,0,0,0-1.125-1.3,4.858,4.858,0,0,0-1.638-.738,8.029,8.029,0,0,0-1.971-.234,6.388,6.388,0,0,0-1.755.243,5.1,5.1,0,0,0-1.548.729,3.581,3.581,0,0,0-1.1,1.224,3.459,3.459,0,0,0-.4,1.692,3.248,3.248,0,0,0,.315,1.485,2.945,2.945,0,0,0,.846,1.026,4.8,4.8,0,0,0,1.179.657,15.7,15.7,0,0,0,1.494.486q.306.072.828.216.792.18,1.26.324a5.1,5.1,0,0,1,.864.351,1.916,1.916,0,0,1,.63.5,1.141,1.141,0,0,1,.234.729,1.277,1.277,0,0,1-.234.783,1.594,1.594,0,0,1-.621.5,3.175,3.175,0,0,1-.81.252,4.981,4.981,0,0,1-.837.072,3.376,3.376,0,0,1-2.043-.585,2.071,2.071,0,0,1-.8-1.791Z" transform="translate(0.126 13.158)"/>
</svg>
