<svg xmlns="http://www.w3.org/2000/svg" width="36.036" height="13.464" viewBox="0 0 36.036 13.464">
  <path id="패스_61" data-name="패스 61" d="M.432-4.266A4.434,4.434,0,0,0,.873-2.241,4.021,4.021,0,0,0,2.079-.8,5.234,5.234,0,0,0,3.825.036,7.8,7.8,0,0,0,5.9.306,6.086,6.086,0,0,0,9.846-.837a3.66,3.66,0,0,0,1.4-2.979,3.3,3.3,0,0,0-.4-1.665,3.255,3.255,0,0,0-.99-1.1,5.243,5.243,0,0,0-1.134-.6,11.706,11.706,0,0,0-1.188-.36.34.34,0,0,1-.108-.018,1.51,1.51,0,0,0-.288-.072Q5.8-7.974,5.2-8.154a7.064,7.064,0,0,1-.954-.351,1.177,1.177,0,0,1-.5-.4A1.107,1.107,0,0,1,3.6-9.5a1.206,1.206,0,0,1,.576-1.1,2.528,2.528,0,0,1,1.368-.36,3.322,3.322,0,0,1,1.809.432,1.768,1.768,0,0,1,.729,1.512h2.736A3.989,3.989,0,0,0,10.4-10.89a3.616,3.616,0,0,0-1.125-1.3,4.858,4.858,0,0,0-1.638-.738,8.029,8.029,0,0,0-1.971-.234,6.388,6.388,0,0,0-1.755.243,5.1,5.1,0,0,0-1.548.729,3.581,3.581,0,0,0-1.1,1.224A3.459,3.459,0,0,0,.864-9.27a3.248,3.248,0,0,0,.315,1.485,2.946,2.946,0,0,0,.846,1.026A4.8,4.8,0,0,0,3.2-6.1,15.7,15.7,0,0,0,4.7-5.616q.306.072.828.216.792.18,1.26.324a5.1,5.1,0,0,1,.864.351,1.916,1.916,0,0,1,.63.5,1.142,1.142,0,0,1,.234.729,1.277,1.277,0,0,1-.234.783,1.594,1.594,0,0,1-.621.5,3.175,3.175,0,0,1-.81.252,4.981,4.981,0,0,1-.837.072,3.376,3.376,0,0,1-2.043-.585,2.071,2.071,0,0,1-.8-1.791ZM18.45-3.6a3.994,3.994,0,0,1-.054.639,2.073,2.073,0,0,1-.252.684,1.535,1.535,0,0,1-.63.585,2.378,2.378,0,0,1-1.134.234,2.164,2.164,0,0,1-1.143-.261,1,1,0,0,1-.423-.927,1.083,1.083,0,0,1,.4-.927,2.759,2.759,0,0,1,1.116-.441q.234-.036.612-.09.594-.09.945-.18a1.427,1.427,0,0,0,.567-.27ZM15.1-6.444a1.458,1.458,0,0,1,.5-1.071,1.9,1.9,0,0,1,1.188-.333,2.45,2.45,0,0,1,1.224.252,1.069,1.069,0,0,1,.432,1.008.757.757,0,0,1-.522.774,7.921,7.921,0,0,1-1.674.342q-.468.054-.828.108a7.835,7.835,0,0,0-1.224.252,3.443,3.443,0,0,0-.981.468,2.161,2.161,0,0,0-.7.828,2.837,2.837,0,0,0-.261,1.278A2.513,2.513,0,0,0,13.14-.459a3.529,3.529,0,0,0,2.286.711,5.35,5.35,0,0,0,1.737-.279A3.469,3.469,0,0,0,18.558-.9a3.506,3.506,0,0,0,.18.9H21.33a2.3,2.3,0,0,1-.243-.819,8.644,8.644,0,0,1-.081-1.251V-6.912a2.3,2.3,0,0,0-.36-1.323,2.4,2.4,0,0,0-.945-.819,4.418,4.418,0,0,0-1.3-.4,9.882,9.882,0,0,0-1.485-.108,7.836,7.836,0,0,0-1.575.153,4.375,4.375,0,0,0-1.368.522,2.923,2.923,0,0,0-1,.972,3.081,3.081,0,0,0-.432,1.467ZM23.058,0h2.556V-12.852H23.058ZM36.45-4.032v-.234a1.91,1.91,0,0,0,.018-.216,6.277,6.277,0,0,0-.3-1.944,5,5,0,0,0-.864-1.62,4,4,0,0,0-1.422-1.107,4.51,4.51,0,0,0-1.953-.4,4.941,4.941,0,0,0-1.926.369,4.381,4.381,0,0,0-1.512,1.035,4.66,4.66,0,0,0-.972,1.566,5.428,5.428,0,0,0-.342,1.944,5.687,5.687,0,0,0,.333,1.971,4.5,4.5,0,0,0,.954,1.566A4.148,4.148,0,0,0,29.97-.1a5.264,5.264,0,0,0,1.962.351,4.681,4.681,0,0,0,2.727-.765A4.42,4.42,0,0,0,36.288-2.88h-2.25a1.5,1.5,0,0,1-.7.837,2.383,2.383,0,0,1-1.314.369,2.241,2.241,0,0,1-1.656-.576,2.6,2.6,0,0,1-.63-1.782Zm-6.714-1.62a2.56,2.56,0,0,1,.126-.639,1.954,1.954,0,0,1,.36-.639,1.937,1.937,0,0,1,.657-.5,2.217,2.217,0,0,1,.981-.2,1.844,1.844,0,0,1,1.377.486,2.792,2.792,0,0,1,.657,1.494Z" transform="translate(-0.432 13.158)" fill="red"/>
</svg>
