<svg xmlns="http://www.w3.org/2000/svg" width="239.19" height="52.36" viewBox="0 0 239.19 52.36">
  <path id="패스_73" data-name="패스 73" d="M1.68-16.59A17.242,17.242,0,0,0,3.395-8.715a15.636,15.636,0,0,0,4.69,5.6A20.353,20.353,0,0,0,14.875.14,30.344,30.344,0,0,0,22.96,1.19q9.87,0,15.33-4.445A14.232,14.232,0,0,0,43.75-14.84a12.847,12.847,0,0,0-1.54-6.475,12.659,12.659,0,0,0-3.85-4.27,20.389,20.389,0,0,0-4.41-2.345,45.523,45.523,0,0,0-4.62-1.4,1.321,1.321,0,0,1-.42-.07,5.873,5.873,0,0,0-1.12-.28q-5.25-1.33-7.56-2.03a27.473,27.473,0,0,1-3.71-1.365,4.577,4.577,0,0,1-1.96-1.54A4.306,4.306,0,0,1,14-36.96a4.69,4.69,0,0,1,2.24-4.27,9.832,9.832,0,0,1,5.32-1.4A12.918,12.918,0,0,1,28.6-40.95q2.625,1.68,2.835,5.88H42.07a15.513,15.513,0,0,0-1.61-7.28,14.064,14.064,0,0,0-4.375-5.04,18.893,18.893,0,0,0-6.37-2.87,31.223,31.223,0,0,0-7.665-.91,24.844,24.844,0,0,0-6.825.945A19.845,19.845,0,0,0,9.2-47.39a13.925,13.925,0,0,0-4.27,4.76A13.453,13.453,0,0,0,3.36-36.05a12.632,12.632,0,0,0,1.225,5.775,11.455,11.455,0,0,0,3.29,3.99A18.675,18.675,0,0,0,12.46-23.73a61.073,61.073,0,0,0,5.81,1.89q1.19.28,3.22.84,3.08.7,4.9,1.26a19.818,19.818,0,0,1,3.36,1.365,7.451,7.451,0,0,1,2.45,1.96,4.439,4.439,0,0,1,.91,2.835,4.965,4.965,0,0,1-.91,3.045A6.2,6.2,0,0,1,29.785-8.61a12.349,12.349,0,0,1-3.15.98,19.371,19.371,0,0,1-3.255.28,13.128,13.128,0,0,1-7.945-2.275Q12.32-11.9,12.32-16.59ZM50.26,0H61.25V-21.56H81.48V0H92.47V-49.98H81.48V-30.8H61.25V-49.98H50.26Zm49.7-24.78a30.276,30.276,0,0,0,1.68,10.15,24.342,24.342,0,0,0,4.865,8.295,22.262,22.262,0,0,0,7.77,5.53,25.445,25.445,0,0,0,10.255,2,25.445,25.445,0,0,0,10.255-2,22.4,22.4,0,0,0,7.8-5.565,24.039,24.039,0,0,0,4.865-8.3A30.551,30.551,0,0,0,149.1-24.78a31.925,31.925,0,0,0-1.645-10.36,24.23,24.23,0,0,0-4.865-8.435,22.192,22.192,0,0,0-7.8-5.6A25.445,25.445,0,0,0,124.53-51.17a25.445,25.445,0,0,0-10.255,1.995,21.851,21.851,0,0,0-7.77,5.6,24.98,24.98,0,0,0-4.865,8.435A31.319,31.319,0,0,0,99.96-24.78Zm10.99,0a26.756,26.756,0,0,1,.77-6.51,17.018,17.018,0,0,1,2.38-5.46,11.626,11.626,0,0,1,4.235-3.78,12.983,12.983,0,0,1,6.195-1.4,12.983,12.983,0,0,1,6.195,1.4,11.626,11.626,0,0,1,4.235,3.78,17.018,17.018,0,0,1,2.38,5.46,26.756,26.756,0,0,1,.77,6.51,24.912,24.912,0,0,1-.77,6.265,16.706,16.706,0,0,1-2.38,5.32,11.748,11.748,0,0,1-4.235,3.745,12.983,12.983,0,0,1-6.195,1.4,13.044,13.044,0,0,1-6.16-1.365,11.7,11.7,0,0,1-4.235-3.745,16.681,16.681,0,0,1-2.415-5.355A24.912,24.912,0,0,1,110.95-24.78ZM156.59,0h37.94V-9.24H167.58V-21.49H191.8v-8.54H167.58V-40.74h26.39v-9.24H156.59ZM198.8-16.59a17.242,17.242,0,0,0,1.715,7.875,15.636,15.636,0,0,0,4.69,5.6A20.353,20.353,0,0,0,212,.14a30.344,30.344,0,0,0,8.085,1.05q9.87,0,15.33-4.445a14.232,14.232,0,0,0,5.46-11.585,12.847,12.847,0,0,0-1.54-6.475,12.66,12.66,0,0,0-3.85-4.27,20.388,20.388,0,0,0-4.41-2.345,45.524,45.524,0,0,0-4.62-1.4,1.321,1.321,0,0,1-.42-.07,5.873,5.873,0,0,0-1.12-.28q-5.25-1.33-7.56-2.03a27.473,27.473,0,0,1-3.71-1.365,4.577,4.577,0,0,1-1.96-1.54,4.306,4.306,0,0,1-.56-2.345,4.69,4.69,0,0,1,2.24-4.27,9.832,9.832,0,0,1,5.32-1.4,12.918,12.918,0,0,1,7.035,1.68q2.625,1.68,2.835,5.88h10.64a15.513,15.513,0,0,0-1.61-7.28,14.064,14.064,0,0,0-4.375-5.04,18.893,18.893,0,0,0-6.37-2.87,31.223,31.223,0,0,0-7.665-.91,24.844,24.844,0,0,0-6.825.945,19.845,19.845,0,0,0-6.02,2.835,13.925,13.925,0,0,0-4.27,4.76,13.453,13.453,0,0,0-1.575,6.58,12.632,12.632,0,0,0,1.225,5.775,11.455,11.455,0,0,0,3.29,3.99,18.675,18.675,0,0,0,4.585,2.555,61.071,61.071,0,0,0,5.81,1.89q1.19.28,3.22.84,3.08.7,4.9,1.26a19.817,19.817,0,0,1,3.36,1.365,7.451,7.451,0,0,1,2.45,1.96,4.439,4.439,0,0,1,.91,2.835,4.965,4.965,0,0,1-.91,3.045,6.2,6.2,0,0,1-2.415,1.925,12.349,12.349,0,0,1-3.15.98,19.371,19.371,0,0,1-3.255.28,13.128,13.128,0,0,1-7.945-2.275Q209.44-11.9,209.44-16.59Z" transform="translate(-1.68 51.17)"/>
</svg>
