<svg xmlns="http://www.w3.org/2000/svg" width="46.576" height="11.969" viewBox="0 0 46.576 11.969">
  <path id="패스_65" data-name="패스 65" d="M.384-3.792a3.941,3.941,0,0,0,.392,1.8A3.574,3.574,0,0,0,1.848-.712,4.652,4.652,0,0,0,3.4.032a6.936,6.936,0,0,0,1.848.24,5.41,5.41,0,0,0,3.5-1.016A3.253,3.253,0,0,0,10-3.392a2.936,2.936,0,0,0-.352-1.48,2.894,2.894,0,0,0-.88-.976A4.66,4.66,0,0,0,7.76-6.384,10.405,10.405,0,0,0,6.7-6.7a.3.3,0,0,1-.1-.016,1.342,1.342,0,0,0-.256-.064q-1.2-.3-1.728-.464a6.279,6.279,0,0,1-.848-.312,1.046,1.046,0,0,1-.448-.352A.984.984,0,0,1,3.2-8.448a1.072,1.072,0,0,1,.512-.976,2.247,2.247,0,0,1,1.216-.32,2.953,2.953,0,0,1,1.608.384,1.571,1.571,0,0,1,.648,1.344H9.616A3.546,3.546,0,0,0,9.248-9.68a3.215,3.215,0,0,0-1-1.152,4.318,4.318,0,0,0-1.456-.656A7.137,7.137,0,0,0,5.04-11.7a5.679,5.679,0,0,0-1.56.216,4.536,4.536,0,0,0-1.376.648,3.183,3.183,0,0,0-.976,1.088,3.075,3.075,0,0,0-.36,1.5,2.887,2.887,0,0,0,.28,1.32,2.618,2.618,0,0,0,.752.912,4.269,4.269,0,0,0,1.048.584,13.959,13.959,0,0,0,1.328.432q.272.064.736.192.7.16,1.12.288A4.53,4.53,0,0,1,6.8-4.2a1.7,1.7,0,0,1,.56.448,1.015,1.015,0,0,1,.208.648,1.135,1.135,0,0,1-.208.7,1.417,1.417,0,0,1-.552.44,2.823,2.823,0,0,1-.72.224,4.428,4.428,0,0,1-.744.064A3,3,0,0,1,3.528-2.2a1.841,1.841,0,0,1-.712-1.592ZM11.248,0H13.52V-4.336a3.069,3.069,0,0,1,.416-1.816A1.574,1.574,0,0,1,15.28-6.7a1.253,1.253,0,0,1,1.12.5,2.779,2.779,0,0,1,.336,1.536V0h2.272V-5.088a6.7,6.7,0,0,0-.136-1.432,2.6,2.6,0,0,0-.48-1.056,2.212,2.212,0,0,0-.936-.68,3.936,3.936,0,0,0-1.472-.24,2.828,2.828,0,0,0-1.336.352,2.8,2.8,0,0,0-1.08,1.024H13.52v-4.3H11.248ZM20.48-4.128a4.32,4.32,0,0,0,1.168,3.16,4.149,4.149,0,0,0,3.1,1.192,4.17,4.17,0,0,0,3.12-1.192,4.32,4.32,0,0,0,1.168-3.16A4.342,4.342,0,0,0,27.872-7.3,4.17,4.17,0,0,0,24.752-8.5a4.149,4.149,0,0,0-3.1,1.192A4.342,4.342,0,0,0,20.48-4.128Zm2.272,0a4.638,4.638,0,0,1,.1-1,2.713,2.713,0,0,1,.336-.848,1.664,1.664,0,0,1,.624-.592,1.912,1.912,0,0,1,.936-.216,1.947,1.947,0,0,1,.952.216,1.664,1.664,0,0,1,.624.592,2.713,2.713,0,0,1,.336.848,4.638,4.638,0,0,1,.1,1,4.528,4.528,0,0,1-.1.992,2.719,2.719,0,0,1-.336.84A1.664,1.664,0,0,1,25.7-1.7a1.947,1.947,0,0,1-.952.216,1.912,1.912,0,0,1-.936-.216,1.664,1.664,0,0,1-.624-.592,2.719,2.719,0,0,1-.336-.84A4.528,4.528,0,0,1,22.752-4.128Zm15.6.544v-.208a1.7,1.7,0,0,0,.016-.192A5.579,5.579,0,0,0,38.1-5.712a4.444,4.444,0,0,0-.768-1.44,3.555,3.555,0,0,0-1.264-.984,4.009,4.009,0,0,0-1.736-.36,4.392,4.392,0,0,0-1.712.328,3.894,3.894,0,0,0-1.344.92,4.142,4.142,0,0,0-.864,1.392,4.825,4.825,0,0,0-.3,1.728,5.055,5.055,0,0,0,.3,1.752,4,4,0,0,0,.848,1.392,3.687,3.687,0,0,0,1.336.9,4.679,4.679,0,0,0,1.744.312,4.161,4.161,0,0,0,2.424-.68,3.929,3.929,0,0,0,1.448-2.1h-2a1.333,1.333,0,0,1-.624.744,2.118,2.118,0,0,1-1.168.328A1.992,1.992,0,0,1,32.944-2a2.313,2.313,0,0,1-.56-1.584Zm-5.968-1.44a2.276,2.276,0,0,1,.112-.568,1.737,1.737,0,0,1,.32-.568,1.722,1.722,0,0,1,.584-.448,1.971,1.971,0,0,1,.872-.176,1.639,1.639,0,0,1,1.224.432,2.481,2.481,0,0,1,.584,1.328ZM39.3-2.688a2.9,2.9,0,0,0,.36,1.352,2.6,2.6,0,0,0,.872.912,3.841,3.841,0,0,0,1.216.5,6.517,6.517,0,0,0,1.44.152A6.333,6.333,0,0,0,44.6.072a3.863,3.863,0,0,0,1.2-.488,2.443,2.443,0,0,0,.848-.9,2.721,2.721,0,0,0,.312-1.344,2.02,2.02,0,0,0-.208-.944,1.8,1.8,0,0,0-.576-.656,3.691,3.691,0,0,0-.816-.424,7.668,7.668,0,0,0-1.024-.3q-.176-.048-.624-.144a8.2,8.2,0,0,1-1.472-.416.7.7,0,0,1-.48-.672.6.6,0,0,1,.368-.608,2.243,2.243,0,0,1,.9-.16,2.1,2.1,0,0,1,1.1.248,1.037,1.037,0,0,1,.456.872h2.16A2.842,2.842,0,0,0,46.36-7.1a2.389,2.389,0,0,0-.816-.816,3.693,3.693,0,0,0-1.12-.44A6.2,6.2,0,0,0,43.088-8.5a6.806,6.806,0,0,0-1.352.128,3.759,3.759,0,0,0-1.144.424,2.142,2.142,0,0,0-.808.824,2.581,2.581,0,0,0-.3,1.28,1.786,1.786,0,0,0,.216.9,1.865,1.865,0,0,0,.584.624,3.459,3.459,0,0,0,.808.4,9.344,9.344,0,0,0,1.016.28,12.059,12.059,0,0,1,2,.552.793.793,0,0,1,.576.728.857.857,0,0,1-.448.8A2.06,2.06,0,0,1,43.2-1.3a2.11,2.11,0,0,1-1.232-.344,1.226,1.226,0,0,1-.512-1.048Z" transform="translate(-0.384 11.696)"/>
</svg>
