<svg xmlns="http://www.w3.org/2000/svg" width="66.62" height="14.96" viewBox="0 0 66.62 14.96">
  <path id="패스_79" data-name="패스 79" d="M.48-4.74A4.926,4.926,0,0,0,.97-2.49,4.467,4.467,0,0,0,2.31-.89,5.815,5.815,0,0,0,4.25.04a8.67,8.67,0,0,0,2.31.3A6.762,6.762,0,0,0,10.94-.93,4.066,4.066,0,0,0,12.5-4.24a3.67,3.67,0,0,0-.44-1.85,3.617,3.617,0,0,0-1.1-1.22A5.825,5.825,0,0,0,9.7-7.98a13.007,13.007,0,0,0-1.32-.4.377.377,0,0,1-.12-.02,1.678,1.678,0,0,0-.32-.08q-1.5-.38-2.16-.58a7.849,7.849,0,0,1-1.06-.39,1.308,1.308,0,0,1-.56-.44A1.23,1.23,0,0,1,4-10.56a1.34,1.34,0,0,1,.64-1.22,2.809,2.809,0,0,1,1.52-.4,3.691,3.691,0,0,1,2.01.48,1.964,1.964,0,0,1,.81,1.68h3.04a4.432,4.432,0,0,0-.46-2.08,4.018,4.018,0,0,0-1.25-1.44,5.4,5.4,0,0,0-1.82-.82,8.921,8.921,0,0,0-2.19-.26,7.1,7.1,0,0,0-1.95.27,5.67,5.67,0,0,0-1.72.81,3.979,3.979,0,0,0-1.22,1.36A3.844,3.844,0,0,0,.96-10.3a3.609,3.609,0,0,0,.35,1.65,3.273,3.273,0,0,0,.94,1.14,5.336,5.336,0,0,0,1.31.73,17.449,17.449,0,0,0,1.66.54q.34.08.92.24.88.2,1.4.36a5.662,5.662,0,0,1,.96.39,2.129,2.129,0,0,1,.7.56,1.268,1.268,0,0,1,.26.81,1.418,1.418,0,0,1-.26.87,1.771,1.771,0,0,1-.69.55,3.528,3.528,0,0,1-.9.28,5.535,5.535,0,0,1-.93.08,3.751,3.751,0,0,1-2.27-.65,2.3,2.3,0,0,1-.89-1.99Zm23.28-5.6H20.92v5.42a3.836,3.836,0,0,1-.52,2.27,1.968,1.968,0,0,1-1.68.69,1.571,1.571,0,0,1-1.39-.62A3.409,3.409,0,0,1,16.9-4.5v-5.84H14.06v6.36a8.229,8.229,0,0,0,.17,1.78,3.328,3.328,0,0,0,.6,1.32A2.728,2.728,0,0,0,16-.02a4.92,4.92,0,0,0,1.84.3,3.842,3.842,0,0,0,1.79-.44A3.46,3.46,0,0,0,21-1.44h.06V0h2.7ZM25.92,0h2.7V-1.32h.04A2.686,2.686,0,0,0,29.98-.11a5.1,5.1,0,0,0,2.08.39,3.88,3.88,0,0,0,1.56-.33,4.1,4.1,0,0,0,1.38-1,4.772,4.772,0,0,0,.98-1.72,7.419,7.419,0,0,0,.36-2.41,7.328,7.328,0,0,0-.36-2.4A4.783,4.783,0,0,0,35-9.29a4.1,4.1,0,0,0-1.38-1,3.88,3.88,0,0,0-1.56-.33,4.588,4.588,0,0,0-1.88.39A3.124,3.124,0,0,0,28.8-9.08h-.04v-5.2H25.92ZM33.5-5.16a4.211,4.211,0,0,1-.62,2.35,2.018,2.018,0,0,1-1.8.95,2.018,2.018,0,0,1-1.8-.95,4.211,4.211,0,0,1-.62-2.35,4.25,4.25,0,0,1,.62-2.37,2.018,2.018,0,0,1,1.8-.95,2.018,2.018,0,0,1,1.8.95A4.25,4.25,0,0,1,33.5-5.16ZM38.22,0h2.84V-6a2.943,2.943,0,0,1,.21-1.18,2.044,2.044,0,0,1,.51-.74,1.747,1.747,0,0,1,.62-.36,1.963,1.963,0,0,1,.58-.1,1.917,1.917,0,0,1,.95.2,1.267,1.267,0,0,1,.52.54,2.137,2.137,0,0,1,.21.76q.04.42.04,1.08V0h2.84V-5.76a5.8,5.8,0,0,1,.08-1.01,2.587,2.587,0,0,1,.28-.81,1.515,1.515,0,0,1,.58-.58,1.894,1.894,0,0,1,.96-.22,2.013,2.013,0,0,1,.94.19,1.2,1.2,0,0,1,.53.53,2.292,2.292,0,0,1,.22.76,9.028,9.028,0,0,1,.05,1.04V0h2.84V-6.92a3.56,3.56,0,0,0-1.01-2.81,4.044,4.044,0,0,0-2.77-.89,3.414,3.414,0,0,0-1.82.49,4.178,4.178,0,0,0-1.3,1.23,2.67,2.67,0,0,0-1.19-1.3,3.841,3.841,0,0,0-1.83-.42,3.689,3.689,0,0,0-1.79.44,3.981,3.981,0,0,0-1.37,1.24H40.9v-1.4H38.22ZM56.34,0h2.84V-10.34H56.34Zm2.84-14.28H56.34v2.34h2.84Zm5.84.84H62.18v3.1H60.46v1.9h1.72v6.1a2.693,2.693,0,0,0,.25,1.23,1.839,1.839,0,0,0,.7.76,2.956,2.956,0,0,0,1.02.37,7.512,7.512,0,0,0,1.29.1A10.662,10.662,0,0,0,67.1.02V-2.2a4.5,4.5,0,0,1-.88.08,1.39,1.39,0,0,1-.96-.24,1.39,1.39,0,0,1-.24-.96V-8.44H67.1v-1.9H65.02Z" transform="translate(-0.48 14.62)"/>
</svg>
