<svg xmlns="http://www.w3.org/2000/svg" width="427" height="18.7" viewBox="0 0 427 18.7">
  <path id="패스_65" data-name="패스 65" d="M-.175,0H3.8L5.2-3.975h6.675L13.225,0H17.3L10.625-17.85H6.6ZM8.55-13.45H8.6L10.85-6.9H6.225ZM22.975-16.8h-3.55v3.875h-2.15v2.375h2.15v7.625a3.367,3.367,0,0,0,.313,1.538,2.3,2.3,0,0,0,.875.95,3.7,3.7,0,0,0,1.275.463A9.391,9.391,0,0,0,23.5.15,13.328,13.328,0,0,0,25.575.025V-2.75a5.619,5.619,0,0,1-1.1.1,1.737,1.737,0,0,1-1.2-.3,1.737,1.737,0,0,1-.3-1.2v-6.4h2.6v-2.375h-2.6ZM39.525-5.6v-.325a2.652,2.652,0,0,0,.025-.3,8.718,8.718,0,0,0-.412-2.7,6.944,6.944,0,0,0-1.2-2.25,5.554,5.554,0,0,0-1.975-1.537,6.264,6.264,0,0,0-2.713-.562,6.862,6.862,0,0,0-2.675.512,6.085,6.085,0,0,0-2.1,1.438,6.472,6.472,0,0,0-1.35,2.175,7.538,7.538,0,0,0-.475,2.7,7.9,7.9,0,0,0,.462,2.737,6.256,6.256,0,0,0,1.325,2.175,5.761,5.761,0,0,0,2.087,1.4A7.311,7.311,0,0,0,33.25.35,6.5,6.5,0,0,0,37.037-.713,6.139,6.139,0,0,0,39.3-4H36.175A2.082,2.082,0,0,1,35.2-2.838a3.31,3.31,0,0,1-1.825.513,3.113,3.113,0,0,1-2.3-.8A3.615,3.615,0,0,1,30.2-5.6ZM30.2-7.85a3.556,3.556,0,0,1,.175-.888,2.714,2.714,0,0,1,.5-.887,2.691,2.691,0,0,1,.912-.7A3.079,3.079,0,0,1,33.15-10.6a2.561,2.561,0,0,1,1.913.675,3.877,3.877,0,0,1,.912,2.075ZM41.725,0h3.55V-17.85h-3.55Zm6.45,0h3.55V-12.925h-3.55Zm3.55-17.85h-3.55v2.925h3.55ZM66.775-5.6v-.325a2.652,2.652,0,0,0,.025-.3,8.718,8.718,0,0,0-.412-2.7,6.944,6.944,0,0,0-1.2-2.25,5.554,5.554,0,0,0-1.975-1.537,6.264,6.264,0,0,0-2.712-.562,6.862,6.862,0,0,0-2.675.512,6.085,6.085,0,0,0-2.1,1.438,6.472,6.472,0,0,0-1.35,2.175,7.538,7.538,0,0,0-.475,2.7,7.9,7.9,0,0,0,.463,2.737,6.256,6.256,0,0,0,1.325,2.175,5.761,5.761,0,0,0,2.087,1.4A7.311,7.311,0,0,0,60.5.35,6.5,6.5,0,0,0,64.288-.713,6.139,6.139,0,0,0,66.55-4H63.425a2.082,2.082,0,0,1-.975,1.163,3.31,3.31,0,0,1-1.825.513,3.113,3.113,0,0,1-2.3-.8A3.614,3.614,0,0,1,57.45-5.6ZM57.45-7.85a3.556,3.556,0,0,1,.175-.888,2.714,2.714,0,0,1,.5-.887,2.691,2.691,0,0,1,.912-.7A3.079,3.079,0,0,1,60.4-10.6a2.561,2.561,0,0,1,1.913.675,3.877,3.877,0,0,1,.912,2.075ZM68.875,0h3.55V-5.825a4.964,4.964,0,0,1,.838-3.013,3.086,3.086,0,0,1,2.662-1.137,6.694,6.694,0,0,1,.688.038,5.344,5.344,0,0,1,.588.087v-3.3a2.435,2.435,0,0,0-.775-.125,4.424,4.424,0,0,0-2.475.775,4.189,4.189,0,0,0-1.65,1.975h-.05v-2.4H68.875Zm25.9,0H98.15V-17.85H94.6v6.5h-.05a3.783,3.783,0,0,0-1.612-1.425,5.031,5.031,0,0,0-2.213-.5,5.484,5.484,0,0,0-2.463.537A5.077,5.077,0,0,0,86.45-11.25,6.706,6.706,0,0,0,85.362-9.1,8.685,8.685,0,0,0,85-6.575a9.248,9.248,0,0,0,.362,2.613,6.8,6.8,0,0,0,1.1,2.213A5.3,5.3,0,0,0,88.3-.213,5.413,5.413,0,0,0,90.8.35a5.267,5.267,0,0,0,2.313-.488A3.708,3.708,0,0,0,94.725-1.65h.05Zm-.05-6.5a7.963,7.963,0,0,1-.15,1.588,4.029,4.029,0,0,1-.512,1.325,2.658,2.658,0,0,1-.95.925,2.844,2.844,0,0,1-1.437.338,2.661,2.661,0,0,1-1.387-.35,2.947,2.947,0,0,1-.975-.95,4.48,4.48,0,0,1-.575-1.337,6.114,6.114,0,0,1-.187-1.512,7.247,7.247,0,0,1,.162-1.563,4.066,4.066,0,0,1,.538-1.325,2.625,2.625,0,0,1,.975-.913,3.006,3.006,0,0,1,1.45-.325,2.95,2.95,0,0,1,1.425.325,2.467,2.467,0,0,1,.95.9,4.281,4.281,0,0,1,.513,1.3A7.2,7.2,0,0,1,94.725-6.5Zm18.35.9v-.325a2.652,2.652,0,0,0,.025-.3,8.718,8.718,0,0,0-.412-2.7,6.944,6.944,0,0,0-1.2-2.25,5.554,5.554,0,0,0-1.975-1.537,6.264,6.264,0,0,0-2.713-.562,6.862,6.862,0,0,0-2.675.512,6.085,6.085,0,0,0-2.1,1.438,6.472,6.472,0,0,0-1.35,2.175,7.538,7.538,0,0,0-.475,2.7,7.9,7.9,0,0,0,.463,2.737,6.256,6.256,0,0,0,1.325,2.175,5.761,5.761,0,0,0,2.088,1.4A7.311,7.311,0,0,0,106.8.35a6.5,6.5,0,0,0,3.788-1.063A6.139,6.139,0,0,0,112.85-4h-3.125a2.082,2.082,0,0,1-.975,1.163,3.31,3.31,0,0,1-1.825.513,3.113,3.113,0,0,1-2.3-.8A3.614,3.614,0,0,1,103.75-5.6ZM103.75-7.85a3.557,3.557,0,0,1,.175-.888,2.714,2.714,0,0,1,.5-.887,2.691,2.691,0,0,1,.913-.7A3.079,3.079,0,0,1,106.7-10.6a2.561,2.561,0,0,1,1.912.675,3.877,3.877,0,0,1,.913,2.075ZM122.5,0h3.925V-6.4h4.125a7.661,7.661,0,0,0,2.788-.463,5.107,5.107,0,0,0,1.938-1.275,5.126,5.126,0,0,0,1.1-1.837,6.607,6.607,0,0,0,.35-2.15,6.607,6.607,0,0,0-.35-2.15,5.126,5.126,0,0,0-1.1-1.838,5.107,5.107,0,0,0-1.937-1.275,7.661,7.661,0,0,0-2.788-.462H122.5Zm3.925-14.8h3.05a8.26,8.26,0,0,1,1.35.1,2.991,2.991,0,0,1,1.087.4,2,2,0,0,1,.75.825,3.019,3.019,0,0,1,.262,1.35,3.019,3.019,0,0,1-.262,1.35,1.913,1.913,0,0,1-.75.813,3.33,3.33,0,0,1-1.087.4,7.362,7.362,0,0,1-1.35.113h-3.05ZM138.8,0h3.55V-5.825a4.964,4.964,0,0,1,.838-3.013,3.086,3.086,0,0,1,2.662-1.137,6.694,6.694,0,0,1,.688.038,5.344,5.344,0,0,1,.588.087v-3.3a2.435,2.435,0,0,0-.775-.125,4.424,4.424,0,0,0-2.475.775,4.189,4.189,0,0,0-1.65,1.975h-.05v-2.4H138.8Zm9.325-6.45a6.751,6.751,0,0,0,1.825,4.938A6.483,6.483,0,0,0,154.8.35a6.515,6.515,0,0,0,4.875-1.863A6.751,6.751,0,0,0,161.5-6.45a6.784,6.784,0,0,0-1.825-4.963,6.515,6.515,0,0,0-4.875-1.863,6.483,6.483,0,0,0-4.85,1.863A6.784,6.784,0,0,0,148.125-6.45Zm3.55,0a7.247,7.247,0,0,1,.163-1.563,4.238,4.238,0,0,1,.525-1.325,2.6,2.6,0,0,1,.975-.925A2.987,2.987,0,0,1,154.8-10.6a3.042,3.042,0,0,1,1.488.337,2.6,2.6,0,0,1,.975.925,4.239,4.239,0,0,1,.525,1.325,7.246,7.246,0,0,1,.162,1.563,7.076,7.076,0,0,1-.162,1.55,4.248,4.248,0,0,1-.525,1.312,2.6,2.6,0,0,1-.975.925,3.042,3.042,0,0,1-1.488.338,2.987,2.987,0,0,1-1.462-.338,2.6,2.6,0,0,1-.975-.925,4.248,4.248,0,0,1-.525-1.312A7.075,7.075,0,0,1,151.675-6.45ZM173.025,0H176.4V-17.85h-3.55v6.5h-.05a3.784,3.784,0,0,0-1.613-1.425,5.031,5.031,0,0,0-2.213-.5,5.484,5.484,0,0,0-2.462.537A5.077,5.077,0,0,0,164.7-11.25a6.706,6.706,0,0,0-1.087,2.15,8.685,8.685,0,0,0-.363,2.525,9.248,9.248,0,0,0,.363,2.613,6.8,6.8,0,0,0,1.1,2.213A5.3,5.3,0,0,0,166.55-.213a5.413,5.413,0,0,0,2.5.563,5.267,5.267,0,0,0,2.313-.488,3.708,3.708,0,0,0,1.612-1.512h.05Zm-.05-6.5a7.963,7.963,0,0,1-.15,1.588,4.029,4.029,0,0,1-.512,1.325,2.658,2.658,0,0,1-.95.925,2.844,2.844,0,0,1-1.437.338,2.661,2.661,0,0,1-1.388-.35,2.947,2.947,0,0,1-.975-.95,4.481,4.481,0,0,1-.575-1.337,6.114,6.114,0,0,1-.187-1.512,7.248,7.248,0,0,1,.162-1.563,4.066,4.066,0,0,1,.538-1.325,2.625,2.625,0,0,1,.975-.913,3.006,3.006,0,0,1,1.45-.325,2.95,2.95,0,0,1,1.425.325,2.467,2.467,0,0,1,.95.9,4.281,4.281,0,0,1,.512,1.3A7.2,7.2,0,0,1,172.975-6.5ZM191.2-12.925h-3.55V-6.15A4.8,4.8,0,0,1,187-3.313a2.46,2.46,0,0,1-2.1.863,1.964,1.964,0,0,1-1.738-.775,4.261,4.261,0,0,1-.538-2.4v-7.3h-3.55v7.95a10.287,10.287,0,0,0,.212,2.225,4.16,4.16,0,0,0,.75,1.65A3.41,3.41,0,0,0,181.5-.025a6.15,6.15,0,0,0,2.3.375,4.8,4.8,0,0,0,2.238-.55,4.326,4.326,0,0,0,1.712-1.6h.075V0H191.2Zm14.975,4.55A4.62,4.62,0,0,0,204.287-12a6.883,6.883,0,0,0-4.187-1.275,7.225,7.225,0,0,0-2.788.512,5.666,5.666,0,0,0-2.087,1.463,6.4,6.4,0,0,0-1.288,2.238,8.611,8.611,0,0,0-.437,2.787,7.413,7.413,0,0,0,.463,2.663,6,6,0,0,0,1.337,2.1,6.075,6.075,0,0,0,2.087,1.375,7.005,7.005,0,0,0,2.638.488,6.427,6.427,0,0,0,4.237-1.375A5.816,5.816,0,0,0,206.25-4.95h-3.425a3.214,3.214,0,0,1-.9,1.925,2.654,2.654,0,0,1-1.925.7,2.525,2.525,0,0,1-1.375-.362,2.693,2.693,0,0,1-.912-.95,4.683,4.683,0,0,1-.5-1.3A6.556,6.556,0,0,1,197.05-6.4a6.893,6.893,0,0,1,.163-1.488,4.772,4.772,0,0,1,.512-1.35,2.766,2.766,0,0,1,.95-.988,2.586,2.586,0,0,1,1.4-.375A2.38,2.38,0,0,1,202.7-8.375ZM212.75-16.8H209.2v3.875h-2.15v2.375h2.15v7.625a3.367,3.367,0,0,0,.313,1.538,2.3,2.3,0,0,0,.875.95,3.7,3.7,0,0,0,1.275.463,9.391,9.391,0,0,0,1.613.125A13.328,13.328,0,0,0,215.35.025V-2.75a5.619,5.619,0,0,1-1.1.1,1.737,1.737,0,0,1-1.2-.3,1.737,1.737,0,0,1-.3-1.2v-6.4h2.6v-2.375h-2.6ZM217.15,0h3.55V-12.925h-3.55Zm3.55-17.85h-3.55v2.925h3.55Zm2.4,11.4a6.751,6.751,0,0,0,1.825,4.938A6.483,6.483,0,0,0,229.775.35a6.515,6.515,0,0,0,4.875-1.863,6.751,6.751,0,0,0,1.825-4.938,6.784,6.784,0,0,0-1.825-4.963,6.515,6.515,0,0,0-4.875-1.863,6.483,6.483,0,0,0-4.85,1.863A6.784,6.784,0,0,0,223.1-6.45Zm3.55,0a7.247,7.247,0,0,1,.163-1.563,4.238,4.238,0,0,1,.525-1.325,2.6,2.6,0,0,1,.975-.925,2.987,2.987,0,0,1,1.462-.337,3.042,3.042,0,0,1,1.488.337,2.6,2.6,0,0,1,.975.925,4.239,4.239,0,0,1,.525,1.325,7.248,7.248,0,0,1,.162,1.563,7.076,7.076,0,0,1-.162,1.55,4.248,4.248,0,0,1-.525,1.312,2.6,2.6,0,0,1-.975.925,3.042,3.042,0,0,1-1.488.338,2.987,2.987,0,0,1-1.462-.338,2.6,2.6,0,0,1-.975-.925,4.248,4.248,0,0,1-.525-1.312A7.075,7.075,0,0,1,226.65-6.45ZM238.775,0h3.55V-6.775a4.8,4.8,0,0,1,.65-2.838,2.46,2.46,0,0,1,2.1-.862,1.958,1.958,0,0,1,1.75.775,4.343,4.343,0,0,1,.525,2.4V0h3.55V-7.95a10.462,10.462,0,0,0-.213-2.238,4.056,4.056,0,0,0-.75-1.65,3.456,3.456,0,0,0-1.462-1.062,6.15,6.15,0,0,0-2.3-.375,4.8,4.8,0,0,0-2.238.55,4.326,4.326,0,0,0-1.712,1.6h-.075v-1.8h-3.375ZM272.8-5.6v-.325a2.653,2.653,0,0,0,.025-.3,8.718,8.718,0,0,0-.413-2.7,6.944,6.944,0,0,0-1.2-2.25,5.554,5.554,0,0,0-1.975-1.537,6.264,6.264,0,0,0-2.712-.562,6.862,6.862,0,0,0-2.675.512,6.085,6.085,0,0,0-2.1,1.438A6.471,6.471,0,0,0,260.4-9.15a7.538,7.538,0,0,0-.475,2.7,7.9,7.9,0,0,0,.462,2.737,6.256,6.256,0,0,0,1.325,2.175,5.761,5.761,0,0,0,2.087,1.4,7.311,7.311,0,0,0,2.725.488,6.5,6.5,0,0,0,3.787-1.063A6.139,6.139,0,0,0,272.575-4H269.45a2.082,2.082,0,0,1-.975,1.163,3.31,3.31,0,0,1-1.825.513,3.113,3.113,0,0,1-2.3-.8,3.615,3.615,0,0,1-.875-2.475Zm-9.325-2.25a3.556,3.556,0,0,1,.175-.888,2.714,2.714,0,0,1,.5-.887,2.691,2.691,0,0,1,.912-.7,3.079,3.079,0,0,1,1.363-.275,2.561,2.561,0,0,1,1.913.675,3.877,3.877,0,0,1,.912,2.075ZM279.4-16.8h-3.55v3.875H273.7v2.375h2.15v7.625a3.366,3.366,0,0,0,.313,1.538,2.3,2.3,0,0,0,.875.95,3.7,3.7,0,0,0,1.275.463,9.39,9.39,0,0,0,1.612.125A13.328,13.328,0,0,0,282,.025V-2.75a5.619,5.619,0,0,1-1.1.1,1.737,1.737,0,0,1-1.2-.3,1.737,1.737,0,0,1-.3-1.2v-6.4H282v-2.375h-2.6ZM299.875,0h3.375V-17.85H299.7v6.5h-.05a3.783,3.783,0,0,0-1.613-1.425,5.031,5.031,0,0,0-2.212-.5,5.484,5.484,0,0,0-2.462.537,5.077,5.077,0,0,0-1.812,1.488,6.706,6.706,0,0,0-1.087,2.15,8.685,8.685,0,0,0-.363,2.525,9.248,9.248,0,0,0,.363,2.613,6.8,6.8,0,0,0,1.1,2.213A5.3,5.3,0,0,0,293.4-.213a5.413,5.413,0,0,0,2.5.563,5.267,5.267,0,0,0,2.313-.488,3.708,3.708,0,0,0,1.612-1.512h.05Zm-.05-6.5a7.962,7.962,0,0,1-.15,1.588,4.029,4.029,0,0,1-.513,1.325,2.658,2.658,0,0,1-.95.925,2.844,2.844,0,0,1-1.437.338,2.661,2.661,0,0,1-1.388-.35,2.947,2.947,0,0,1-.975-.95,4.481,4.481,0,0,1-.575-1.337,6.114,6.114,0,0,1-.187-1.512,7.247,7.247,0,0,1,.163-1.563,4.065,4.065,0,0,1,.537-1.325,2.625,2.625,0,0,1,.975-.913,3.006,3.006,0,0,1,1.45-.325,2.95,2.95,0,0,1,1.425.325,2.467,2.467,0,0,1,.95.9,4.28,4.28,0,0,1,.512,1.3A7.2,7.2,0,0,1,299.825-6.5Zm18.35.9v-.325a2.653,2.653,0,0,0,.025-.3,8.718,8.718,0,0,0-.413-2.7,6.944,6.944,0,0,0-1.2-2.25,5.554,5.554,0,0,0-1.975-1.537,6.264,6.264,0,0,0-2.712-.562,6.862,6.862,0,0,0-2.675.512,6.085,6.085,0,0,0-2.1,1.438,6.471,6.471,0,0,0-1.35,2.175,7.538,7.538,0,0,0-.475,2.7,7.9,7.9,0,0,0,.462,2.737,6.256,6.256,0,0,0,1.325,2.175,5.761,5.761,0,0,0,2.087,1.4A7.311,7.311,0,0,0,311.9.35a6.5,6.5,0,0,0,3.787-1.063A6.139,6.139,0,0,0,317.95-4h-3.125a2.082,2.082,0,0,1-.975,1.163,3.31,3.31,0,0,1-1.825.513,3.113,3.113,0,0,1-2.3-.8A3.615,3.615,0,0,1,308.85-5.6ZM308.85-7.85a3.556,3.556,0,0,1,.175-.888,2.714,2.714,0,0,1,.5-.887,2.691,2.691,0,0,1,.912-.7A3.079,3.079,0,0,1,311.8-10.6a2.561,2.561,0,0,1,1.913.675,3.877,3.877,0,0,1,.912,2.075Zm34.45-4a7.3,7.3,0,0,0-.837-2.725,6.682,6.682,0,0,0-1.7-2.025,7.38,7.38,0,0,0-2.363-1.25,9.112,9.112,0,0,0-2.8-.425,9.088,9.088,0,0,0-3.663.712,7.8,7.8,0,0,0-2.775,2,8.922,8.922,0,0,0-1.738,3.012,11.185,11.185,0,0,0-.6,3.7,10.813,10.813,0,0,0,.6,3.625,8.694,8.694,0,0,0,1.738,2.963,7.951,7.951,0,0,0,2.775,1.975A9.088,9.088,0,0,0,335.6.425a8.525,8.525,0,0,0,3-.513,7.209,7.209,0,0,0,2.413-1.475,7.3,7.3,0,0,0,1.662-2.312,9.034,9.034,0,0,0,.775-3h-3.8a4.966,4.966,0,0,1-1.262,2.912A3.672,3.672,0,0,1,335.6-2.875a4.659,4.659,0,0,1-2.2-.488A4.178,4.178,0,0,1,331.888-4.7a5.957,5.957,0,0,1-.863-1.913,8.9,8.9,0,0,1-.275-2.237,9.556,9.556,0,0,1,.275-2.325,6.078,6.078,0,0,1,.85-1.95,4.152,4.152,0,0,1,1.513-1.35,4.637,4.637,0,0,1,2.212-.5,4.043,4.043,0,0,1,2.6.9,3.337,3.337,0,0,1,1.3,2.225ZM345.75,0h3.55V-5.825a4.964,4.964,0,0,1,.837-3.013A3.086,3.086,0,0,1,352.8-9.975a6.694,6.694,0,0,1,.688.038,5.343,5.343,0,0,1,.587.087v-3.3a2.435,2.435,0,0,0-.775-.125,4.424,4.424,0,0,0-2.475.775,4.189,4.189,0,0,0-1.65,1.975h-.05v-2.4H345.75Zm21.975-5.6v-.325a2.653,2.653,0,0,0,.025-.3,8.718,8.718,0,0,0-.413-2.7,6.944,6.944,0,0,0-1.2-2.25,5.554,5.554,0,0,0-1.975-1.537,6.264,6.264,0,0,0-2.712-.562,6.862,6.862,0,0,0-2.675.512,6.085,6.085,0,0,0-2.1,1.438,6.471,6.471,0,0,0-1.35,2.175,7.538,7.538,0,0,0-.475,2.7,7.9,7.9,0,0,0,.462,2.737,6.256,6.256,0,0,0,1.325,2.175,5.761,5.761,0,0,0,2.087,1.4A7.311,7.311,0,0,0,361.45.35a6.5,6.5,0,0,0,3.787-1.063A6.139,6.139,0,0,0,367.5-4h-3.125a2.082,2.082,0,0,1-.975,1.163,3.31,3.31,0,0,1-1.825.513,3.113,3.113,0,0,1-2.3-.8A3.615,3.615,0,0,1,358.4-5.6ZM358.4-7.85a3.556,3.556,0,0,1,.175-.888,2.714,2.714,0,0,1,.5-.887,2.691,2.691,0,0,1,.912-.7,3.079,3.079,0,0,1,1.363-.275,2.561,2.561,0,0,1,1.913.675,3.877,3.877,0,0,1,.912,2.075ZM377.875-5a5.548,5.548,0,0,1-.075.887,2.88,2.88,0,0,1-.35.95,2.132,2.132,0,0,1-.875.813A3.3,3.3,0,0,1,375-2.025a3.005,3.005,0,0,1-1.587-.363,1.39,1.39,0,0,1-.587-1.287,1.5,1.5,0,0,1,.55-1.288,3.832,3.832,0,0,1,1.55-.613q.325-.05.85-.125.825-.125,1.313-.25a1.982,1.982,0,0,0,.788-.375Zm-4.65-3.95a2.025,2.025,0,0,1,.7-1.488,2.641,2.641,0,0,1,1.65-.463,3.4,3.4,0,0,1,1.7.35,1.484,1.484,0,0,1,.6,1.4,1.051,1.051,0,0,1-.725,1.075,11,11,0,0,1-2.325.475q-.65.075-1.15.15a10.883,10.883,0,0,0-1.7.35,4.782,4.782,0,0,0-1.362.65,3,3,0,0,0-.975,1.15,3.94,3.94,0,0,0-.363,1.775A3.49,3.49,0,0,0,370.5-.638a4.9,4.9,0,0,0,3.175.988,7.43,7.43,0,0,0,2.412-.388,4.818,4.818,0,0,0,1.938-1.212,4.87,4.87,0,0,0,.25,1.25h3.6a3.19,3.19,0,0,1-.337-1.138,12.007,12.007,0,0,1-.112-1.737V-9.6a3.2,3.2,0,0,0-.5-1.837,3.338,3.338,0,0,0-1.312-1.138,6.135,6.135,0,0,0-1.8-.55,13.725,13.725,0,0,0-2.062-.15,10.884,10.884,0,0,0-2.187.212,6.076,6.076,0,0,0-1.9.725,4.06,4.06,0,0,0-1.388,1.35,4.279,4.279,0,0,0-.6,2.038Zm15.45-7.85h-3.55v3.875h-2.15v2.375h2.15v7.625a3.366,3.366,0,0,0,.313,1.538,2.3,2.3,0,0,0,.875.95,3.7,3.7,0,0,0,1.275.463A9.39,9.39,0,0,0,389.2.15a13.328,13.328,0,0,0,2.075-.125V-2.75a5.619,5.619,0,0,1-1.1.1,1.737,1.737,0,0,1-1.2-.3,1.737,1.737,0,0,1-.3-1.2v-6.4h2.6v-2.375h-2.6Zm4.4,16.8h3.55V-12.925h-3.55Zm3.55-17.85h-3.55v2.925h3.55Zm2.4,11.4a6.751,6.751,0,0,0,1.825,4.938A6.483,6.483,0,0,0,405.7.35a6.515,6.515,0,0,0,4.875-1.863A6.751,6.751,0,0,0,412.4-6.45a6.784,6.784,0,0,0-1.825-4.963,6.515,6.515,0,0,0-4.875-1.863,6.483,6.483,0,0,0-4.85,1.863A6.784,6.784,0,0,0,399.025-6.45Zm3.55,0a7.247,7.247,0,0,1,.163-1.563,4.239,4.239,0,0,1,.525-1.325,2.6,2.6,0,0,1,.975-.925A2.987,2.987,0,0,1,405.7-10.6a3.042,3.042,0,0,1,1.487.337,2.6,2.6,0,0,1,.975.925,4.238,4.238,0,0,1,.525,1.325,7.247,7.247,0,0,1,.163,1.563,7.075,7.075,0,0,1-.163,1.55,4.247,4.247,0,0,1-.525,1.312,2.6,2.6,0,0,1-.975.925,3.042,3.042,0,0,1-1.487.338,2.987,2.987,0,0,1-1.462-.338,2.6,2.6,0,0,1-.975-.925,4.248,4.248,0,0,1-.525-1.312A7.075,7.075,0,0,1,402.575-6.45ZM414.7,0h3.55V-6.775a4.8,4.8,0,0,1,.65-2.838,2.46,2.46,0,0,1,2.1-.862,1.958,1.958,0,0,1,1.75.775,4.343,4.343,0,0,1,.525,2.4V0h3.55V-7.95a10.463,10.463,0,0,0-.212-2.238,4.057,4.057,0,0,0-.75-1.65A3.456,3.456,0,0,0,424.4-12.9a6.15,6.15,0,0,0-2.3-.375,4.8,4.8,0,0,0-2.237.55,4.326,4.326,0,0,0-1.713,1.6h-.075v-1.8H414.7Z" transform="translate(0.175 18.275)"/>
</svg>
