<svg xmlns="http://www.w3.org/2000/svg" width="28.624" height="14.336" viewBox="0 0 28.624 14.336">
  <path id="패스_69" data-name="패스 69" d="M3.632,0H6.144V-9.312H9.568v-2.112H.208v2.112H3.632Zm6.752-4.128a4.32,4.32,0,0,0,1.168,3.16,4.149,4.149,0,0,0,3.1,1.192,4.17,4.17,0,0,0,3.12-1.192,4.32,4.32,0,0,0,1.168-3.16A4.342,4.342,0,0,0,17.776-7.3,4.17,4.17,0,0,0,14.656-8.5a4.149,4.149,0,0,0-3.1,1.192A4.342,4.342,0,0,0,10.384-4.128Zm2.272,0a4.638,4.638,0,0,1,.1-1,2.713,2.713,0,0,1,.336-.848,1.664,1.664,0,0,1,.624-.592,1.912,1.912,0,0,1,.936-.216,1.947,1.947,0,0,1,.952.216,1.664,1.664,0,0,1,.624.592,2.713,2.713,0,0,1,.336.848,4.638,4.638,0,0,1,.1,1,4.528,4.528,0,0,1-.1.992,2.719,2.719,0,0,1-.336.84,1.664,1.664,0,0,1-.624.592,1.947,1.947,0,0,1-.952.216A1.912,1.912,0,0,1,13.72-1.7,1.664,1.664,0,0,1,13.1-2.3a2.719,2.719,0,0,1-.336-.84A4.528,4.528,0,0,1,12.656-4.128Zm7.76,7.04h2.272V-1.024h.032A2.6,2.6,0,0,0,23.784-.1,3.22,3.22,0,0,0,25.2.224,3.409,3.409,0,0,0,26.76-.12,3.326,3.326,0,0,0,27.9-1.064a4.2,4.2,0,0,0,.7-1.368,5.558,5.558,0,0,0,.232-1.616,6.145,6.145,0,0,0-.232-1.7,4.325,4.325,0,0,0-.7-1.424,3.254,3.254,0,0,0-1.176-.968A3.693,3.693,0,0,0,25.072-8.5a3.139,3.139,0,0,0-1.424.32,2.566,2.566,0,0,0-1.04.96h-.032V-8.272h-2.16Zm4.176-4.4A1.831,1.831,0,0,1,23.68-1.7a1.77,1.77,0,0,1-.624-.584,2.515,2.515,0,0,1-.344-.832,4.528,4.528,0,0,1-.1-.992,4.717,4.717,0,0,1,.1-1.016,2.713,2.713,0,0,1,.336-.848,1.681,1.681,0,0,1,.616-.592,1.831,1.831,0,0,1,.912-.216,1.779,1.779,0,0,1,.912.224,1.725,1.725,0,0,1,.616.608,2.969,2.969,0,0,1,.344.856,4.248,4.248,0,0,1,.112.984,4.607,4.607,0,0,1-.1,1.008,2.527,2.527,0,0,1-.336.824,1.748,1.748,0,0,1-.608.576A1.82,1.82,0,0,1,24.592-1.488Z" transform="translate(-0.208 11.424)"/>
</svg>
