<svg xmlns="http://www.w3.org/2000/svg" width="140.98" height="52.36" viewBox="0 0 140.98 52.36">
  <path id="패스_68" data-name="패스 68" d="M15.89,0H26.88V-40.74H41.86v-9.24H.91v9.24H15.89ZM45.43-24.78a30.276,30.276,0,0,0,1.68,10.15,24.342,24.342,0,0,0,4.865,8.295,22.262,22.262,0,0,0,7.77,5.53A25.445,25.445,0,0,0,70,1.19a25.445,25.445,0,0,0,10.255-2,22.4,22.4,0,0,0,7.8-5.565,24.039,24.039,0,0,0,4.865-8.3A30.551,30.551,0,0,0,94.57-24.78a31.925,31.925,0,0,0-1.645-10.36,24.23,24.23,0,0,0-4.865-8.435,22.192,22.192,0,0,0-7.8-5.6A25.446,25.446,0,0,0,70-51.17a25.445,25.445,0,0,0-10.255,1.995,21.851,21.851,0,0,0-7.77,5.6A24.98,24.98,0,0,0,47.11-35.14,31.319,31.319,0,0,0,45.43-24.78Zm10.99,0a26.756,26.756,0,0,1,.77-6.51,17.018,17.018,0,0,1,2.38-5.46,11.626,11.626,0,0,1,4.235-3.78A12.983,12.983,0,0,1,70-41.93a12.983,12.983,0,0,1,6.2,1.4,11.626,11.626,0,0,1,4.235,3.78,17.018,17.018,0,0,1,2.38,5.46,26.756,26.756,0,0,1,.77,6.51,24.912,24.912,0,0,1-.77,6.265,16.706,16.706,0,0,1-2.38,5.32A11.748,11.748,0,0,1,76.2-9.45,12.983,12.983,0,0,1,70-8.05a13.044,13.044,0,0,1-6.16-1.365,11.7,11.7,0,0,1-4.235-3.745,16.681,16.681,0,0,1-2.415-5.355A24.912,24.912,0,0,1,56.42-24.78ZM102.06,0h10.99V-17.92H124.6a21.452,21.452,0,0,0,7.805-1.3,14.3,14.3,0,0,0,5.425-3.57,14.353,14.353,0,0,0,3.08-5.145,18.5,18.5,0,0,0,.98-6.02,18.5,18.5,0,0,0-.98-6.02,14.353,14.353,0,0,0-3.08-5.145,14.3,14.3,0,0,0-5.425-3.57,21.452,21.452,0,0,0-7.805-1.3H102.06Zm10.99-41.44h8.54a23.128,23.128,0,0,1,3.78.28,8.375,8.375,0,0,1,3.045,1.12,5.587,5.587,0,0,1,2.1,2.31,8.454,8.454,0,0,1,.735,3.78,8.453,8.453,0,0,1-.735,3.78,5.358,5.358,0,0,1-2.1,2.275,9.324,9.324,0,0,1-3.045,1.12,20.614,20.614,0,0,1-3.78.315h-8.54Z" transform="translate(-0.91 51.17)"/>
</svg>
