<svg xmlns="http://www.w3.org/2000/svg" width="34.125" height="10.92" viewBox="0 0 34.125 10.92">
  <path id="패스_213" data-name="패스 213" d="M14.115-10.71h-2.31L10.05-3.33h-.03L8.19-10.71H5.985L4.125-3.42H4.1L2.4-10.71H.045L2.88,0H5.265L7.05-7.29h.03L8.9,0h2.34ZM15.03,0h2.13V-7.755H15.03Zm2.13-10.71H15.03v1.755h2.13Zm1.3,8.19A2.72,2.72,0,0,0,18.8-1.253,2.437,2.437,0,0,0,19.62-.4a3.6,3.6,0,0,0,1.14.465A6.11,6.11,0,0,0,22.11.21,5.938,5.938,0,0,0,23.438.068,3.622,3.622,0,0,0,24.563-.39a2.29,2.29,0,0,0,.795-.84,2.551,2.551,0,0,0,.293-1.26,1.894,1.894,0,0,0-.195-.885,1.685,1.685,0,0,0-.54-.615,3.46,3.46,0,0,0-.765-.4,7.189,7.189,0,0,0-.96-.278Q23.025-4.71,22.6-4.8a7.69,7.69,0,0,1-1.38-.39.655.655,0,0,1-.45-.63.564.564,0,0,1,.345-.57,2.1,2.1,0,0,1,.84-.15,1.967,1.967,0,0,1,1.028.233.972.972,0,0,1,.427.818H25.44a2.664,2.664,0,0,0-.352-1.17,2.24,2.24,0,0,0-.765-.765,3.462,3.462,0,0,0-1.05-.412,5.807,5.807,0,0,0-1.253-.127,6.381,6.381,0,0,0-1.267.12,3.524,3.524,0,0,0-1.073.4,2.009,2.009,0,0,0-.757.773,2.42,2.42,0,0,0-.278,1.2,1.674,1.674,0,0,0,.2.847,1.749,1.749,0,0,0,.548.585,3.243,3.243,0,0,0,.757.375,8.76,8.76,0,0,0,.953.263,11.306,11.306,0,0,1,1.875.518.743.743,0,0,1,.54.683.8.8,0,0,1-.42.75,1.931,1.931,0,0,1-.975.24,1.978,1.978,0,0,1-1.155-.323,1.149,1.149,0,0,1-.48-.983ZM26.895,0h2.13V-4.065a2.877,2.877,0,0,1,.39-1.7,1.476,1.476,0,0,1,1.26-.517,1.175,1.175,0,0,1,1.05.465,2.606,2.606,0,0,1,.315,1.44V0h2.13V-4.77a6.278,6.278,0,0,0-.127-1.342,2.434,2.434,0,0,0-.45-.99,2.073,2.073,0,0,0-.877-.638,3.69,3.69,0,0,0-1.38-.225,2.651,2.651,0,0,0-1.252.33,2.624,2.624,0,0,0-1.013.96h-.045V-10.71h-2.13Z" transform="translate(-0.045 10.71)" fill="#525252"/>
</svg>
