<svg xmlns="http://www.w3.org/2000/svg" width="36.4" height="11.647" viewBox="0 0 36.4 11.647">
  <path id="패스_57" data-name="패스 57" d="M15.056-11.424H12.592L10.72-3.552h-.032L8.736-11.424H6.384L4.4-3.648H4.368L2.56-11.424H.048L3.072,0H5.616l1.9-7.776h.032L9.488,0h2.5ZM16.032,0H18.3V-8.272H16.032ZM18.3-11.424H16.032v1.872H18.3ZM19.7-2.688a2.9,2.9,0,0,0,.36,1.352,2.6,2.6,0,0,0,.872.912,3.841,3.841,0,0,0,1.216.5,6.517,6.517,0,0,0,1.44.152A6.333,6.333,0,0,0,25,.072a3.863,3.863,0,0,0,1.2-.488,2.443,2.443,0,0,0,.848-.9,2.721,2.721,0,0,0,.312-1.344,2.02,2.02,0,0,0-.208-.944,1.8,1.8,0,0,0-.576-.656,3.691,3.691,0,0,0-.816-.424,7.668,7.668,0,0,0-1.024-.3q-.176-.048-.624-.144a8.2,8.2,0,0,1-1.472-.416.7.7,0,0,1-.48-.672.6.6,0,0,1,.368-.608,2.243,2.243,0,0,1,.9-.16,2.1,2.1,0,0,1,1.1.248,1.037,1.037,0,0,1,.456.872h2.16A2.842,2.842,0,0,0,26.76-7.1a2.389,2.389,0,0,0-.816-.816,3.693,3.693,0,0,0-1.12-.44A6.2,6.2,0,0,0,23.488-8.5a6.806,6.806,0,0,0-1.352.128,3.759,3.759,0,0,0-1.144.424,2.142,2.142,0,0,0-.808.824,2.581,2.581,0,0,0-.3,1.28,1.786,1.786,0,0,0,.216.9,1.865,1.865,0,0,0,.584.624,3.459,3.459,0,0,0,.808.4,9.344,9.344,0,0,0,1.016.28,12.059,12.059,0,0,1,2,.552.793.793,0,0,1,.576.728.857.857,0,0,1-.448.8A2.059,2.059,0,0,1,23.6-1.3a2.11,2.11,0,0,1-1.232-.344,1.226,1.226,0,0,1-.512-1.048ZM28.688,0H30.96V-4.336a3.069,3.069,0,0,1,.416-1.816A1.574,1.574,0,0,1,32.72-6.7a1.253,1.253,0,0,1,1.12.5,2.779,2.779,0,0,1,.336,1.536V0h2.272V-5.088a6.7,6.7,0,0,0-.136-1.432,2.6,2.6,0,0,0-.48-1.056,2.212,2.212,0,0,0-.936-.68,3.936,3.936,0,0,0-1.472-.24,2.828,2.828,0,0,0-1.336.352,2.8,2.8,0,0,0-1.08,1.024H30.96v-4.3H28.688Z" transform="translate(-0.048 11.424)" fill="#fff"/>
</svg>
