<svg xmlns="http://www.w3.org/2000/svg" width="57.136" height="11.647" viewBox="0 0 57.136 11.647">
  <path id="패스_63" data-name="패스 63" d="M15.056-11.424H12.592L10.72-3.552h-.032L8.736-11.424H6.384L4.4-3.648H4.368L2.56-11.424H.048L3.072,0H5.616l1.9-7.776h.032L9.488,0h2.5Zm.656,7.3A4.32,4.32,0,0,0,16.88-.968a4.149,4.149,0,0,0,3.1,1.192A4.17,4.17,0,0,0,23.1-.968a4.32,4.32,0,0,0,1.168-3.16A4.342,4.342,0,0,0,23.1-7.3,4.17,4.17,0,0,0,19.984-8.5,4.149,4.149,0,0,0,16.88-7.3,4.342,4.342,0,0,0,15.712-4.128Zm2.272,0a4.638,4.638,0,0,1,.1-1,2.713,2.713,0,0,1,.336-.848,1.664,1.664,0,0,1,.624-.592,1.912,1.912,0,0,1,.936-.216,1.947,1.947,0,0,1,.952.216,1.664,1.664,0,0,1,.624.592,2.713,2.713,0,0,1,.336.848,4.638,4.638,0,0,1,.1,1,4.528,4.528,0,0,1-.1.992,2.719,2.719,0,0,1-.336.84,1.664,1.664,0,0,1-.624.592,1.947,1.947,0,0,1-.952.216,1.912,1.912,0,0,1-.936-.216,1.664,1.664,0,0,1-.624-.592,2.719,2.719,0,0,1-.336-.84A4.528,4.528,0,0,1,17.984-4.128ZM25.808,0H28.08V-4.8a2.354,2.354,0,0,1,.168-.944,1.636,1.636,0,0,1,.408-.592,1.4,1.4,0,0,1,.5-.288,1.571,1.571,0,0,1,.464-.08,1.534,1.534,0,0,1,.76.16,1.014,1.014,0,0,1,.416.432,1.71,1.71,0,0,1,.168.608q.032.336.032.864V0h2.272V-4.608a4.64,4.64,0,0,1,.064-.808,2.07,2.07,0,0,1,.224-.648,1.212,1.212,0,0,1,.464-.464,1.515,1.515,0,0,1,.768-.176,1.61,1.61,0,0,1,.752.152.958.958,0,0,1,.424.424,1.833,1.833,0,0,1,.176.608,7.223,7.223,0,0,1,.04.832V0h2.272V-5.536a2.848,2.848,0,0,0-.808-2.248A3.235,3.235,0,0,0,35.424-8.5a2.731,2.731,0,0,0-1.456.392,3.342,3.342,0,0,0-1.04.984,2.136,2.136,0,0,0-.952-1.04A3.073,3.073,0,0,0,30.512-8.5a2.951,2.951,0,0,0-1.432.352,3.185,3.185,0,0,0-1.1.992h-.032v-1.12H25.808ZM48.08-3.584v-.208a1.7,1.7,0,0,0,.016-.192,5.579,5.579,0,0,0-.264-1.728,4.444,4.444,0,0,0-.768-1.44A3.555,3.555,0,0,0,45.8-8.136a4.009,4.009,0,0,0-1.736-.36,4.392,4.392,0,0,0-1.712.328,3.894,3.894,0,0,0-1.344.92,4.142,4.142,0,0,0-.864,1.392,4.824,4.824,0,0,0-.3,1.728,5.056,5.056,0,0,0,.3,1.752,4,4,0,0,0,.848,1.392,3.687,3.687,0,0,0,1.336.9,4.679,4.679,0,0,0,1.744.312,4.161,4.161,0,0,0,2.424-.68,3.929,3.929,0,0,0,1.448-2.1h-2a1.333,1.333,0,0,1-.624.744,2.118,2.118,0,0,1-1.168.328A1.992,1.992,0,0,1,42.672-2a2.313,2.313,0,0,1-.56-1.584Zm-5.968-1.44a2.276,2.276,0,0,1,.112-.568,1.737,1.737,0,0,1,.32-.568,1.722,1.722,0,0,1,.584-.448A1.971,1.971,0,0,1,44-6.784a1.639,1.639,0,0,1,1.224.432,2.481,2.481,0,0,1,.584,1.328ZM49.424,0H51.7V-4.336a3.069,3.069,0,0,1,.416-1.816A1.574,1.574,0,0,1,53.456-6.7a1.253,1.253,0,0,1,1.12.5,2.779,2.779,0,0,1,.336,1.536V0h2.272V-5.088a6.7,6.7,0,0,0-.136-1.432,2.6,2.6,0,0,0-.48-1.056,2.212,2.212,0,0,0-.936-.68A3.936,3.936,0,0,0,54.16-8.5a3.073,3.073,0,0,0-1.432.352,2.768,2.768,0,0,0-1.1,1.024h-.048V-8.272h-2.16Z" transform="translate(-0.048 11.424)"/>
</svg>
